<svg class="svg" aria-hidden="true" xmlns="http://www.w3.org/2000/svg" viewBox="0 0 30.94 59.85"><defs><style>.cls-1{fill:#0087b1;}</style></defs><title>Asset 5</title><g id="Layer_2" data-name="Layer 2"><g id="Layer_1-2" data-name="Layer 1"><path class="cls-1" d="M20.12,26.31c0,.06.17.13.18.05l-.18-.18Z"/><path class="cls-1" d="M20.76,26.12a.64.64,0,0,0-.43-.38c.17.18.08.15.28.37,0,.09-.14.08-.21,0s-.1.07,0,.19.29-.1.21-.29A.28.28,0,0,1,20.76,26.12Z"/><path class="cls-1" d="M21.43,18.47l0,.06A.07.07,0,0,0,21.43,18.47Z"/><path class="cls-1" d="M20.53,13.74s0,0,.06,0S20.55,13.73,20.53,13.74Z"/><path class="cls-1" d="M20.64,12.9v0S20.66,12.9,20.64,12.9Z"/><path class="cls-1" d="M21.43,18.47l.06-.14C21.4,18.34,21.44,18.41,21.43,18.47Z"/><path class="cls-1" d="M20.61,25a.2.2,0,0,0,0,.08.2.2,0,0,1,0-.07Z"/><path class="cls-1" d="M22,20.56v0l.11,0Z"/><path class="cls-1" d="M22.14,22.23s-.2,0-.29-.06a.22.22,0,0,1,.14.08A.44.44,0,0,0,22.14,22.23Z"/><path class="cls-1" d="M21.52,24.86l0,.05Z"/><path class="cls-1" d="M21.85,19.38l.07,0Z"/><path class="cls-1" d="M12.47,11.67v0S12.46,11.67,12.47,11.67Z"/><polygon class="cls-1" points="10.58 10.78 10.61 10.76 10.59 10.64 10.58 10.78"/><path class="cls-1" d="M20.67,11.44h0S20.69,11.46,20.67,11.44Z"/><path class="cls-1" d="M25.45,1.94c-.1-.19.23-.23.07-.44C25.52,1.58,25.32,1.81,25.45,1.94Z"/><path class="cls-1" d="M20.65,24.94a.14.14,0,0,1,0-.06S20.64,24.92,20.65,24.94Z"/><polygon class="cls-1" points="25.52 1.5 25.52 1.49 25.5 1.47 25.52 1.5"/><path class="cls-1" d="M20.42,8.15a.19.19,0,0,0-.09,0Z"/><path class="cls-1" d="M20.17,10.64l0-.07A.25.25,0,0,0,20.17,10.64Z"/><path class="cls-1" d="M20.25,6.87s.05,0,0-.09h0S20.29,6.84,20.25,6.87Z"/><polygon class="cls-1" points="20.55 5.61 20.5 5.62 20.5 5.66 20.55 5.61"/><path class="cls-1" d="M16.64,11.84a.6.6,0,0,1-.06-.19C16.59,11.8,16.38,11.84,16.64,11.84Z"/><path class="cls-1" d="M20.72,25s-.07,0-.07-.06v0Z"/><path class="cls-1" d="M18.62,6.55l.07-.24A.61.61,0,0,0,18.62,6.55Z"/><path class="cls-1" d="M26.78,9.37l0,.05A0,0,0,0,0,26.78,9.37Z"/><path class="cls-1" d="M18.82,5.59A.5.5,0,0,0,19,5.5l-.05,0Z"/><path class="cls-1" d="M16.58,11.65Z"/><path class="cls-1" d="M15.07,12c.21,0,.12-.26.18-.42.26,0,.1.22.17.36.17-.06.31-.3.43-.28s0,.07,0,.12c.19-.2.5,0,.72-.23a.19.19,0,0,1,0,.07,1.2,1.2,0,0,1,0-.38c.09,0,.18-.17.21,0-.06,0-.07.06-.1.11l.11-.07c.07.27-.15.08-.16.28.2-.07.44-.28.59-.2,0,.26-.36.07-.17.31l-.23-.11c.16.41-.14,0,0,.4.32.09.36-.11.67,0,.08-.14,0-.21.06-.35.44-.24.34.65.68.31.08-.17.11-.5.34-.33l-.07.29c.31,0,.16-.42.49-.24-.05.11-.24.1-.19.14.22.21.14-.17.29-.18l0,.25c.33-.06.67-.28,1-.37,0,.08-.07.17,0,.23a3,3,0,0,1,1.43-.05l.12-.25s.09.08.06.14c.18,0,0-.14,0-.24s.15.09.11.17c.25-.25.73-.59,1.09-.46l0,.08c.27,0,.14-.51.41-.39l0,0c.55-.07,1-.46,1.53-.32-.06-.32.56-.1.4-.52.38.05.33.17.81.05.12-.05,0-.33.11-.45l.14.19,0-.32.26.15.08-.14a.17.17,0,0,1-.2-.06.54.54,0,0,1,.62-.16c.09-.18.18-.36.25-.54.06.07,0,.17,0,.26,0-.38.22.12.24-.23-.06,0-.09-.11-.12-.14.19,0,.39-.27.46-.49l.11.12a4.53,4.53,0,0,0,.55-1.24c-.13.13-.37,0-.35-.14l.24,0c-.11-.13-.13.09-.24-.13.08-.15.3,0,.34.1V6.59c.07,0,.09.07.17.11-.11-.12.35-.29.12-.48H29a4.54,4.54,0,0,0,.06-1.08c-.21,0-.16-.16-.32-.28A1.94,1.94,0,0,0,28.91,4c-.15-.21-.19,0-.34-.12.19,0,.11-.35.28-.22a2,2,0,0,0-.45-.91c-.06.08-.07.15-.14.14s0-.21.1-.24l0,0a1.62,1.62,0,0,1-.32-.91c-.12-.33-.24-.72-.6-.72h0L27,.83c-.19-.14.21,0,.11-.24-.65,0-.84-.42-1.36-.3A.68.68,0,0,0,24.89,0,1.68,1.68,0,0,1,24,.1l.06.12c-.08.16-.16,0-.26,0,.05.1.16.09.11.18a21.09,21.09,0,0,0-2.71,1.14c-.29.21.32.65-.21.71l-.09-.26c-.28.68-1,1.06-1.12,1.81,0-.06-.09-.1-.05-.15-.25,0-.26.47-.13.54-.07.08-.13,0-.23,0s.06.42-.13.43c0,0,0-.06,0-.09,0,.12-.19.4,0,.39-.17.2-.07.48-.23.64.19.18-.22.38.09.5-.32-.1-.36.37-.22.54-.09-.07-.13.12-.26,0,0,.18,0,.35.2.34-.45.28.25.67-.28.81.14.53.27,1,.35,1.44-.34,0,0-.5-.39-.48.13.43.43.67.36,1.09,0,.11-.15,0-.21-.09.16.42,0,.82.22,1.18a.12.12,0,0,1-.09-.07c0,.07,0,.17.11.15l-.05-.06c.22-.14.49.25.61.25-.45-.09-.07.38-.65.23a.23.23,0,0,0,.22.09c0,.07-.08.1-.2,0,.11.26.26.15.29.39-.08,0-.11,0-.2-.05.16.11.32.21.29.42-.05,0-.1,0-.11,0,.08.35.47.53.41.92-.34-.05-.08.14-.35.22l.13.18.11-.1c0,.17.26.28.21.45l-.14-.1.12.31.06-.21c.18.15.34-.09.32.16,0,0,0,.17-.11.29h0c.11.07.22.14.18.28s-.31,0-.36.07c.24,0,.15.39.42.44a.44.44,0,0,0-.24,0l.21,0c-.05.09-.07.11-.19.12,0,.25.33-.15.25.16,0,0-.05,0-.09,0,0,.3.25.52.21.81-.25.14-.12-.22-.33-.08.14.37.51.71.52,1.08l0-.07c.4,0-.13.31.09.46,0,0-.23,0-.18,0,0,.26.2.48.4.84l-.11,0c-.06.16,0,.4,0,.56s.11.12.24,0c-.5.59.48.89,0,1.4,0-.05-.1-.11-.1-.07l.14.36c.17-.05.1-.07.23-.16a.31.31,0,0,1,.21.23c-.14-.16-.28,0-.37.11s.12,0,.17,0c-.29.23.35,0,.17.28h-.09c.05.09.18.18.16.29-.19.06-.1-.1-.26-.1,0,.15.4.28.21.43-.06-.06-.07-.16-.13-.22-.23.17-.17.18-.2.29h0L21,22.1l.06-.07c.54.17.1.38.44.63-.32-.25-.18,0-.41-.06-.06.06-.14.16-.2.13.18.12-.14.19.12.36-.07,0,0,.12-.19.09,0,.15.13,0,.22,0,.22.25-.35.51-.05.88.09.3.32.4.38.7-.14.07-.25-.13-.25-.13A.31.31,0,0,0,21,25c-.05,0-.11,0-.21,0s.23.15.08.25a1.43,1.43,0,0,1-.24-.19c0,.13.1.29.12.45-.13,0-.15-.15-.22-.22a.7.7,0,0,0,.14.52l.11-.06c0,.06-.17,0-.19-.1s.13-.14.2-.12v.11c.43.07.07-.4.16-.56l.27.17L21.07,25c.09,0,.27,0,.28.11.19-.11-.07-.16.12-.24,0,0,0,0,.05,0l-.06-.17c.06,0,.22,0,.16.11.23-.23-.14-.46.11-.52v0c0-.38-.21-.08-.44-.38l.57-.11-.22-.06a.1.1,0,0,1,.13-.09c-.15-.15-.11,0-.25-.08.23-.16,0-.48.31-.51-.17-.07-.13.17-.25,0,.39,0-.07-.22.11-.38.21,0,.1.21.28,0-.34-.1.08-.32,0-.47-.27,0-.12-.29-.23-.52.09,0,.12-.45.2-.67H22c-.28,0-.26-.24-.33-.39a.33.33,0,0,1,.31.08l0-.15a.22.22,0,0,1-.18-.16H22c0-.2-.29-.37-.2-.65-.19,0-.49.28-.66,0,.1,0,.27-.07.33,0s-.1-.07-.07-.12l.19.08c.06-.13-.15,0-.15-.14s.09-.08.21-.09,0,.09,0,.12a.4.4,0,0,1,.18-.31c-.09,0-.2,0-.23,0s.16-.1.22-.23c-.11,0,0-.18-.25-.14,0-.06.1-.09.15-.12-.12-.09-.12-.47-.33-.31v0h0c-.28-.29,0-.72-.18-1h.07c-.12-.18-.14-.43-.32-.54,0,0,.1-.16.19-.16-.09-.13-.17-.13-.1-.37.16.12.1-.08.12.13,0-.21.13-.28-.12-.44.2,0,.2-.2.13-.28l-.11.16a.71.71,0,0,1-.06-.28h.26c.2-.47-.67-.6-.24-1-.2-.07-.07.24-.29.19,0-.19.29-.46.28-.51.08-.28-.41-.16-.37-.44a.31.31,0,0,1-.43,0c0-.19.31-.3.41-.2a0,0,0,0,1,0,.07c.05.05.1.12.18,0h-.09c.07-.11,0-.36.16-.33-.11-.12-.15,0-.18.08.08-.26-.07-.36,0-.61,0,0-.14.1-.14.06,0-.37-.2-.12-.29-.35.12-.16.33,0,.18-.23.07-.16.23-.07.31,0-.21-.18,0-.41,0-.54l.09.1a.31.31,0,0,1-.07-.17l-.16.09c0-.07,0-.12.08-.13-.12-.05-.28.09-.46,0,.08-.1-.12-.26.11-.31,0,.28.23-.06.29.16a.15.15,0,0,1,0-.16,0,0,0,0,1,.06,0c.18-.28-.28-.09-.3-.36.14,0,.24-.08.21-.13,0,.12-.21.08-.32,0,.09-.19-.1-.19-.09-.29l0,.11c-.14,0-.13-.12-.18-.24.11,0,.08.11.12.06-.24-.13.23-.33.06-.52.09-.1.25,0,.31-.1-.19-.21.17-.25,0-.47-.18.07-.14.09-.31-.07l.13.37L20,9.55c0,.11.12.24.09.3-.15-.1-.11-.1-.25,0,.26-.17-.17-.31,0-.5h.44c.19-.27-.23-.48-.11-.83l-.09.11c-.17,0,0-.21-.08-.33.15,0,.2,0,.3-.09-.12,0,0-.25-.27-.3l.2-.14c.1-.27-.38-.35-.31-.62.15.1.27,0,.37.18,0-.09,0-.16-.06-.18.1,0-.16-.27,0-.33-.05,0-.21-.08-.18-.18a.15.15,0,0,1,.08,0c-.08,0-.07-.17-.25-.11.5-.18.14-.78.6-.89a2.28,2.28,0,0,1,.1-.6s.07,0,0,.06c.22-.17-.34-.31-.07-.5.28,0,.05.19.17.15.46.18.08-.33.43-.34v.05c.21,0,0-.38.18-.54a.11.11,0,0,0,0,.05.94.94,0,0,1,.12-.77c.1.18,0,.14.18.24.05-.09-.25-.19-.15-.38a.78.78,0,0,1,.45.12l-.13.14c.26.12.17-.17.27-.2l.07.09c.17-.22,0-.45.24-.62l-.08,0c-.05-.33.21,0,.21-.23l.22.21a1.81,1.81,0,0,1,.31-.6,2,2,0,0,1-.17.65c.09-.06.29-.21.26-.37,0,0,0,.14-.09.12a.54.54,0,0,1,.3-.55c.21.52.58-.1.86.28.28-.3.68-.08,1-.09-.11-.45.1,0,.11-.46.1,0,.14,0,.14,0a1.67,1.67,0,0,1,.21.33c0,.14-.1.08-.11.18s0,.21.06.34c0-.16.13-.21.18-.11a2.13,2.13,0,0,0,0-.25c.31-.12,0,.42.29.31L26,2.37c.12,0,.27.21.62.09,0,0-.11.15-.17.13.13.2.71.4.58.76h-.11c.05.05.23,0,.15.15s-.11,0-.11,0,.24.11.19.22l-.14,0c-.08.36.42.47.52.78a.56.56,0,0,0-.48.41H27c-.06.36.21.67.23,1.09-.4.12-.41.7-.78.91.08,0,.22.14.21.22s.05.33-.19.15l0,0c-.28-.12-.31.07-.41.16l.29.28c-.34,0-.46.14-.59.33s-.26.37-.49.21c0,.13-.12.19-.15.32L25,8.38a1.84,1.84,0,0,0-.64.3V8.51c-.17.06,0,.66-.12.74L24.1,9c-.31.13-.73,0-1,.36,0,0,0-.13,0-.16-.15.05-.64,0-.46.38-.09-.27-.34.07-.49.24l0-.21c-.08.3-.06.37-.26.5s-.08-.16,0-.12c-.2-.07-.09.23-.32.16l.05-.14c-.18,0-.15.09-.22.26s-.34,0-.4-.17c0,.12-.07.29-.19.26a.22.22,0,0,1,0-.15c-.31-.09-.4.32-.63.14a.19.19,0,0,0,0-.12l.41,0c0-.19-.22-.19-.12-.48-.12.17-.34.52-.53.45a.33.33,0,0,1,0-.06v0a.09.09,0,0,0-.11,0,.32.32,0,0,0-.16,0c0-.16-.22-.07-.31-.07,0,.21-.1.19,0,.35,0,0,0,0,.08,0s0,0,0,0v0l.23,0c-.06.11-.13.21-.25.1,0,.14-.08.29-.1.36-.16-.29-.42-.43-.46-.61-.28.14-.67.11-.85.5-.08.05-.1-.11-.13-.18s.11,0,.13-.09c-.16.11-.48,0-.53.31-.21-.13.12-.25-.17-.21l0-.08c-.53-.47-1,.65-1.57,0,.05,0,.07.06.07.11-.71-.31-1.52.09-2.24-.35-.2-.09-.23.09-.37.21l0-.22L13,10.4c-.31.18-.54-.57-.94-.19l.05.15c-.14,0-.44.1-.43-.07,0,0,0,.16-.1.08v-.11l-.33.23c-.28-.06,0-.48-.42-.45-.15.07-.38.4-.31.47a.21.21,0,0,1,.19.17l-.12.08c0,.35,0,.71.33.91l.18-.24.09.16-.17,0c.11.15.16,0,.22-.1a.3.3,0,0,0,.1.18l.17-.36c0,.14-.06.28.08.35.08-.16-.12-.3,0-.42.12.16.09.29.2.15a.16.16,0,0,1,0,.18c.1-.11.27,0,.32-.24.11.19.36-.06.35.27,0-.08.19-.26.29-.27-.19.39.37,0,.31.46.14-.36.48-.14.74-.32,0,0-.05.08-.07.06s.17.15.25.22c0-.29.25-.34.38-.51.15.29-.13.33-.1.61,0-.24.31-.21.27-.42.12.19.11.1.15.35.06-.37.13-.05.25-.27.17.2,0,.35.24.25C15.26,11.91,15.07,12,15.07,12Zm5.09-.6h0l-.1,0Zm.42-.06-.18,0c0-.07,0-.15,0-.15S20.51,11.32,20.58,11.37Zm-1-1.34c.06,0,.09,0,.1,0l-.11,0v0A.31.31,0,0,1,19.54,10Z"/><path class="cls-1" d="M19.46,10.31l0,0,0,0,0-.06Z"/><path class="cls-1" d="M21.41,18.54h0l0,0Z"/><polygon class="cls-1" points="26.41 9.77 26.38 9.73 26.37 9.79 26.41 9.77"/><path class="cls-1" d="M21,20.89l-.05,0Z"/><path class="cls-1" d="M21.07,21.85,21,22A.39.39,0,0,0,21.07,21.85Z"/><path class="cls-1" d="M21,22.58l.09,0h0Z"/><path class="cls-1" d="M18.77,10.79l0,0C18.71,10.69,18.73,10.74,18.77,10.79Z"/><path class="cls-1" d="M19.84,14.33a.54.54,0,0,1-.12-.09C19.72,14.31,19.72,14.36,19.84,14.33Z"/><polygon class="cls-1" points="18.61 6.57 18.61 6.58 18.62 6.55 18.61 6.57"/><path class="cls-1" d="M19.69,14.08a.13.13,0,0,0,0,.16C19.72,14.19,19.73,14.12,19.69,14.08Z"/><path class="cls-1" d="M20.38,25.52l0,0s0,0,0,0Z"/><path class="cls-1" d="M20.39,25.57a.06.06,0,0,1,0,0A0,0,0,0,0,20.39,25.57Z"/><path class="cls-1" d="M20.41,25.7v-.09A.06.06,0,0,0,20.41,25.7Z"/><path class="cls-1" d="M20.76,24.7l-.07,0Z"/><path class="cls-1" d="M20.8,24.42c0,.07-.2.13-.17.23l.06,0C20.59,24.61,20.91,24.51,20.8,24.42Z"/><path class="cls-1" d="M21.9,23.31l-.09.26c.09,0,.2-.1.21,0C22.3,23.28,21.83,23.65,21.9,23.31Z"/><path class="cls-1" d="M22,22.49c0,.14.12,0,.17,0S22.1,22.39,22,22.49Z"/><path class="cls-1" d="M21.21,16.74l.19,0C21.35,16.61,21.33,16.73,21.21,16.74Z"/><polygon class="cls-1" points="20 15.89 19.91 16.02 20.09 16.03 20 15.89"/><polygon class="cls-1" points="21.19 14.96 21.22 15 21.12 14.84 21.19 14.96"/><path class="cls-1" d="M20.66,5.88l-.24,0C20.45,5.92,20.7,6,20.66,5.88Z"/><path class="cls-1" d="M22.5,2.7c.11.06.24.06.22-.07C22.64,2.67,22.52,2.65,22.5,2.7Z"/><polygon class="cls-1" points="26.02 7.63 26.01 7.53 25.97 7.66 26.02 7.63"/><path class="cls-1" d="M12.56,24.85c.08,0,.21-.06.14-.14a1.14,1.14,0,0,0-.25.06A.44.44,0,0,1,12.56,24.85Z"/><path class="cls-1" d="M12.34,24a.44.44,0,0,0-.37.47c.18-.2.17-.11.43-.29a.14.14,0,0,1,.06.24c.08,0,.08.14.23.09.08-.24-.16-.43-.42-.36C12.24,24.12,12.31,24.08,12.34,24Z"/><path class="cls-1" d="M4.27,35.1,4.34,35A.16.16,0,0,0,4.27,35.1Z"/><path class="cls-1" d="M1.22,43.58c0-.07,0-.1,0-.11S1.19,43.59,1.22,43.58Z"/><path class="cls-1" d="M.67,45.05.7,45S.66,45,.67,45.05Z"/><path class="cls-1" d="M4.27,35.1l-.17.18C4.16,35.33,4.2,35.2,4.27,35.1Z"/><path class="cls-1" d="M10.9,24.83a.36.36,0,0,0,0-.11l-.06.08Z"/><path class="cls-1" d="M5.88,31.48l0-.06-.06-.1Z"/><path class="cls-1" d="M7.22,28.78s.14.17.21.24a.24.24,0,0,1-.06-.2A.27.27,0,0,0,7.22,28.78Z"/><path class="cls-1" d="M9.85,24.69l0-.08Z"/><path class="cls-1" d="M4.85,33.39h0Z"/><path class="cls-1" d="M16.32,26.56a.08.08,0,0,0,0,0S16.3,26.55,16.32,26.56Z"/><path class="cls-1" d="M13.14,24.76h0s0-.08,0-.12Z"/><path class="cls-1" d="M.07,47.89h0C.05,47.8.06,47.84.07,47.89Z"/><path class="cls-1" d="M19.83,57.11c-.36.07.2-.51-.28-.35C19.64,56.79,19.46,57.28,19.83,57.11Z"/><path class="cls-1" d="M10.83,24.85l-.07.07A.22.22,0,0,0,10.83,24.85Z"/><path class="cls-1" d="M19.55,56.76h0l0,0Z"/><path class="cls-1" d="M1.57,54.63a.36.36,0,0,0,0-.11S1.58,54.56,1.57,54.63Z"/><path class="cls-1" d="M.48,49.62l0,.12A1,1,0,0,0,.48,49.62Z"/><path class="cls-1" d="M3.54,56.51c0,.05,0,.1.13.13a0,0,0,0,0,0,0S3.58,56.59,3.54,56.51Z"/><path class="cls-1" d="M5.8,58a.14.14,0,0,1,0-.06l-.08,0Z"/><path class="cls-1" d="M24,28.21A.58.58,0,0,1,24,28C24,28.16,23.57,28.12,24,28.21Z"/><path class="cls-1" d="M10.82,24.74c0,.05,0,.08,0,.11l.05-.05S10.85,24.75,10.82,24.74Z"/><path class="cls-1" d="M4.71,55.32c.08.09.18.16.27.25A3.32,3.32,0,0,0,4.71,55.32Z"/><path class="cls-1" d="M26,40.68v-.1A.12.12,0,0,0,26,40.68Z"/><path class="cls-1" d="M5.9,56.18a.53.53,0,0,0,.1.24s0,0,.07,0A1.73,1.73,0,0,1,5.9,56.18Z"/><path class="cls-1" d="M24,28Z"/><path class="cls-1" d="M21.19,27.88c.38.1.24-.22.36-.36.47,0,.17.25.29.42.3,0,.58-.2.79-.14,0,.05,0,.07,0,.12.35-.15.9.19,1.31,0A.16.16,0,0,1,24,28a.75.75,0,0,1,0-.38c.17,0,.36-.1.38.09-.1,0-.13,0-.19.08l.2,0c.1.29-.27,0-.31.22a2.77,2.77,0,0,1,1.08,0c0,.26-.65-.06-.34.24L24.4,28c.23.47-.24-.08,0,.4.53.2.64,0,1.17.22.16-.11,0-.22.16-.33.83-.07.47.77,1.12.57.18-.14.31-.44.68-.18l-.21.25c.53.15.4-.33.91,0-.12.09-.44,0-.36.05.3.3.29-.1.56,0v.26a.63.63,0,0,0,.41,0,2.13,2.13,0,0,1,.39,0,.51.51,0,0,1,0,.18.41.41,0,0,0-.26.11.36.36,0,0,1,0,.21l0,.16-.09.3a11.21,11.21,0,0,1-.45,1.16l.15.34c0,.06-.13.1-.15,0-.15.27.13,0,.18.2s-.17.2-.21.08A3.38,3.38,0,0,1,28,34l0-.12c-.2.4.31.59,0,.93l0-.09A9,9,0,0,1,27,37.28c.27.22-.4.86,0,1-.36.46-.4.28-.76,1-.08.19.17.37.14.62l-.22-.06.13.4-.32.09v.24c0-.09.15-.16.21-.13,0,.39-.42.81-.54.78l-.09.89c-.08,0-.07-.2-.09-.33.08.52-.25,0-.18.48.06,0,.12.07.16.1a1.86,1.86,0,0,0-.43,1l-.12-.11c-.26.59-.39,1.3-.64,2,.16-.22.39-.07.34.14h-.25c.09.18.16-.18.23.15-.12.24-.32.07-.34-.1l0,.34c-.07,0-.08-.1-.16-.15.1.18-.43.44-.26.72h-.07c-.26.67-.31,1-.52,1.56.19.09.06.28.16.51a8.05,8.05,0,0,0-.76,1.23c-.05.38.12.17.17.37-.19-.05-.39.42-.4.12a12,12,0,0,0-.52,1.49c.11,0,.19-.1.22,0s-.22.25-.29.19v0c-.16.92-1.47,1.45-1.53,2.2v0c-.07.24-.17.46-.25.69s0-.24-.24-.12c-.22.79-.79.87-1.07,1.45-.7-.08-1.24,1.11-2,1.11l.1.1c-.08.19-.21,0-.32.06.06.08.21,0,.15.13-1.13.85-2.66.78-4,.66-.51-.06-.32.69-1,.33l.21-.23c-1.08.23-2.13-.29-3.19-.37.07,0,.1-.1.2-.07-.16-.23-.77-.26-.83-.13-.14-.08,0-.14-.05-.24s-.61,0-.64-.21c0,0,.08,0,.12,0-.16,0-.59-.3-.56-.05-.31-.25-.7-.28-.92-.52-.29.09-.49-.46-.73-.22.2-.25-.37-.62-.67-.65.12,0-.09-.21.08-.26-.2-.18-.43-.3-.51-.14-.06-.62-.94-.53-.68-1.09A4.9,4.9,0,0,1,2.14,52.2c.32-.07.3.77.63.59a3.09,3.09,0,0,1-.85-1.6c0-.19.16.08.24.12a16,16,0,0,1-.37-2s.06.07.09.13c0-.12,0-.29-.11-.27l.05.12c-.23.21-.49-.51-.59-.54.43.23.12-.65.67-.28,0-.09-.1-.2-.2-.18,0-.13.1-.16.21,0-.06-.47-.23-.31-.2-.73.08,0,.1.09.18.14a.93.93,0,0,1-.15-.8s.1,0,.09.09c0-.61-.25-1.1,0-1.75.28.25.14-.22.42-.2l0-.38-.16.12c.07-.31-.08-.63.06-.89l.07.26.06-.61-.17.32c-.08-.35-.35,0-.19-.44,0,.09.06-.32.26-.46h0a.67.67,0,0,1,0-.57c.11-.05.3.11.36.08-.19-.2.1-.74-.08-1a.22.22,0,0,0,.21.1L2.5,41.4c.1-.13.13-.14.24-.09.16-.42-.38,0-.09-.43,0,0,0,0,0,.13.22-.49.19-1,.44-1.46.31,0-.07.42.21.35a9.08,9.08,0,0,1,.51-2.1l-.08.1c-.33-.24.38-.4.35-.79,0,.09.16.19.13.16a7.66,7.66,0,0,0,.5-1.62l0,.12a7.85,7.85,0,0,0,.55-.89c0-.12,0-.27-.14-.24.93-.57.52-1.73,1.33-2.25,0,.09,0,.25,0,.18l.24-.67c-.18,0-.13,0-.32.11a.69.69,0,0,1,0-.5c0,.34.25.13.4,0-.06,0-.09-.07-.15-.09.45-.19-.28-.21.14-.57L7,31a1.4,1.4,0,0,1,.13-.57c.22,0,0,.22.13.31.12-.26-.08-.68.22-.81,0,.13-.09.28-.09.42.33-.14.3-.2.43-.37l0,0,.32-.39L8,29.66c-.3-.55.25-.69.17-1.27.07.56.13.15.31.29.12-.08.27-.22.3-.14-.06-.28.3-.27.21-.68.07,0,.12-.21.26-.08.08-.29-.15,0-.22-.06,0-.52.76-.82.75-1.56.14-.55,0-.75.17-1.26.19-.07.13.27.13.27a1.21,1.21,0,0,0,.47-.54c0,.07.08.08.19.09s-.07-.29.2-.34c0,.09,0,.23,0,.34a1.38,1.38,0,0,1,.41-.49c.08.11-.08.21-.1.32.16-.14.51-.22.61-.4a.8.8,0,0,0-.16-.08c.1,0,0,.18,0,.21s-.29,0-.33-.1l.16-.08c-.11-.2-.32-.15-.48,0s-.26.36-.4.46a2.05,2.05,0,0,1-.07-.34,1.8,1.8,0,0,0-.12.44c-.11,0-.28-.08-.18-.25-.31.1-.09.25-.37.33,0,0,0,0,0,0L9.77,25c0-.08-.21-.09-.08-.2-.44.32-.22.8-.51.84v-.05c-.22.65.17.17.18.73l-.65,0,.17.16c0,.06-.11.17-.18.11,0,.29.1,0,.17.2-.34.2-.33.85-.69.75.1.18.27-.22.21.15-.39-.09-.12.39-.42.57-.14-.17.09-.38-.21-.19.22.32-.33.48-.39.74.24.13-.15.54-.26.95-.07-.06-.5.64-.77.95l0,0c.21.19,0,.53-.11.82A.32.32,0,0,1,6,31.17l-.12.25a.43.43,0,0,1,0,.37l-.15-.16c-.16.34-.12.78-.46,1.14.16.11.65-.09.53.41-.1,0-.27-.09-.24-.23,0,0,0,.18-.08.23l-.06-.25c-.17.15.08.16,0,.31-.13-.07-.15.07-.24,0s.12-.11.1-.19a.86.86,0,0,1-.43.35.17.17,0,0,1,.13.23c-.16.33-.22,0-.39.19.06.13-.15.29,0,.4,0,.09-.15.06-.22.08,0,.21-.38.82-.07.72l0,0v0h0c-.08.66-.68,1.13-.85,1.74l-.07,0a4.6,4.6,0,0,0-.24,1.09c0,.11-.22.2-.29.12a1,1,0,0,1-.25.69c0-.32-.15.05,0-.31-.2.32-.34.37-.29.81-.13-.19-.32.19-.32.38l.21-.21a2.75,2.75,0,0,1-.18.53l-.21-.17c-.53.65.09,1.48-.55,1.92.12.24.23-.38.38-.15-.13.33-.55.62-.58.73-.24.45.27.51.07,1,.1,0,.35-.06.36.32s-.45.35-.48.12c0-.08,0-.12.08-.11s0-.27-.14-.15l.07.06c-.12.16-.2.63-.32.49,0,.28.12.14.2,0A10,10,0,0,0,.7,45c.06-.07.18-.12.17,0-.22.66.11.33.08.79-.17.24-.31-.14-.26.34-.13.27-.24,0-.3-.1.11.45-.21.79-.27,1l0-.24a1.14,1.14,0,0,1,0,.37L.27,47c0,.13-.06.24-.13.23.1.15.3-.08.44.21-.1.17.06.54-.18.59.12-.56-.24.05-.25-.43a.58.58,0,0,1,0,.34s0,0-.06-.06c-.25.54.25.26.23.83-.13-.08-.26.12-.23.22,0-.23.23-.11.32.1-.09.36.09.39.09.58l0-.22c.13.07.12.25.17.49-.1,0-.08-.22-.12-.13.25.26-.19.65,0,1-.06.2-.25.06-.28.23.24.41-.11.52.14,1,.14-.18.1-.19.34.09-.09-.24-.21-.48-.28-.73a3.65,3.65,0,0,0,.35.43,3.15,3.15,0,0,1-.2-.59c.18.2.13.19.26,0-.22.36.29.57.19,1l-.43.11c0,.61.51.88.71,1.58l0-.25c.19,0,.21.4.39.56-.14.06-.11.21-.14.35.08-.06.28.47.57.35l0,.38c.3.51.74.25,1.08.67-.24,0-.14.26-.48.06.12.15.24.27.31.2,0,.15.51.21.54.43.11,0,.23-.11.38,0s0,.06,0,.06.32.12.28-.12c.15.74,1.28.84,1.51,1.4.36.16.82.29,1.15.44,0,0,0,.06-.09,0,.41.32.44-.28.9.06.18.33-.32,0-.19.17-.09.49.66.17.94.54h-.1c.23.25.74,0,1.18.16a.06.06,0,0,0,0,.07A4.05,4.05,0,0,1,11,59.27c-.16.17-.21.08-.15.28.2,0,0-.32.38-.33.12.12.4.24.42.45l-.38,0c.17.28.5,0,.7.09l0,.12c.61,0,.61-.29,1.24-.31l-.07-.08c.33-.31.3.15.63-.09l.13.28c.23-.1.76-.38,1.14-.54a2.4,2.4,0,0,1-.92.63c.23,0,.78-.13.87-.31-.09,0-.19.14-.29.12a1.84,1.84,0,0,1,1-.6c0,.28.34.22.69.12a1.43,1.43,0,0,1,.95-.17c.63-.56,1.47-.77,2.19-1.43-.55-.11.2-.2-.16-.5.14-.17.21-.22.24-.21.23-.08.44-.18.66-.28s-.07.22,0,.28c.36-.33.28,0,.6-.17-.17-.06-.07-.29.16-.46l-.41.16c.24-.67.68-.19.91-.89l0,.26c.15-.33.77-1,.63-1.54.08,0,.23,0,.18.13.5-.67.58-1.77,1.07-2.22l.07.11c0-.15-.07-.33.12-.45,0,0,.07.11.11.05a1,1,0,0,1,.14-.6l0,.21c.47-.66.23-1.23.41-1.85.3.13.65-.4.81-.66l0,0a10,10,0,0,0,.5-2.35c.52-.36.76-1.6,1.23-2.31-.1.1-.24-.11-.22-.26s0-.58.24-.46l0,.07c.33,0,.39-.45.49-.74l-.36-.18c.82-.6.47-2.11,1.1-2.38,0-.22,0-.45,0-.67l.2.08a7.19,7.19,0,0,0,.46-1.44l.1.18c.12-.37-.45-.63-.37-1h.34c.17-.64.62-1.23.51-1.94a.17.17,0,0,1,.11.17c.09-.3.51-1.12.06-1.12.28.06.2-.66.16-1l.19.11a1.09,1.09,0,0,1-.23-.82c.05-.09.18,0,.1.07.18-.3-.14-.3.06-.67l.1.18c.09-.33,0-.32-.09-.54s.19-.62.38-.63a.4.4,0,0,1-.11-.48c.07,0,.1.07.11.11a1.26,1.26,0,0,0,.11-.68,1.2,1.2,0,0,1,.15-.73.25.25,0,0,0,.15-.11c-.07.32-.13.61-.18.82s-.06.22-.06.2c.19,0,.3-.32.5,0a4.07,4.07,0,0,1-.11-.84,1.94,1.94,0,0,1,.08-.9.48.48,0,0,1,.09-.11v0a.7.7,0,0,0,0-.33l.06-.17a1.89,1.89,0,0,0-.31-.1c.09-.14-.65-.23-.95-.31-.09.19-.43.08-.18.32,0,0,.06,0,.25,0h.1l.69.14c-.34,0-.6.07-.8-.1-.23.09-.43.19-.52.23-.23-.35-.68-.62-.7-.81-.57,0-1.3-.22-1.73.09-.17,0-.15-.15-.2-.22.1,0,.21,0,.27,0-.33,0-.93-.17-1.07.08-.36-.21.28-.19-.27-.27l.1-.07c-1-.67-1.88.3-2.92-.52.07.05.11.07.11.12-1.28-.55-2.8-.4-4-1.09-.36-.16-.44,0-.7.08l0-.24-.45.17c-.59.06-.83-.76-1.61-.57l0,.17c-.24-.09-.82-.1-.74-.26,0,0-.11.14-.19,0V24.8l-.66.06c-.46-.19.18-.44-.51-.63-.28,0-.82.17-.74.27s.25.13.23.25h-.25c-.12.33-.39.63.14,1l.46-.12.09.2-.34-.07c.16.2.31.09.47,0a.32.32,0,0,0,.13.22l.47-.24c0,.15-.24.23,0,.36.22-.11-.12-.34.22-.37.16.2.07.32.33.24,0,.09,0,.14-.15.15.23-.06.55.08.7-.07.16.23.7.1.6.42a1.17,1.17,0,0,1,.61-.14c-.43.31.69.18.51.57.33-.28.95.06,1.44,0,0,0-.1.07-.13,0,.24.08.29.21.44.31.1-.28.51-.26.76-.38.24.34-.27.29-.23.58,0-.24.59-.11.53-.33.2.23.18.13.25.39.12-.34.24,0,.48-.18.3.25,0,.36.41.33C21.56,27.83,21.19,27.88,21.19,27.88Zm8.08,1.45h0v0Zm-.08.44a.9.9,0,0,0,0-.19c.08,0,.16,0,.14,0S29.26,29.71,29.19,29.77Zm1.11-2c.23,0,.27.07.25.11l-.37-.06-.05,0A.51.51,0,0,1,30.3,27.81Z"/><path class="cls-1" d="M29.75,28h-.09l.08.07.11,0Z"/><path class="cls-1" d="M4.35,35v0l0,0Z"/><polygon class="cls-1" points="26.16 39.84 26.21 39.85 26.19 39.77 26.16 39.84"/><path class="cls-1" d="M6.92,31.56l.07,0Z"/><path class="cls-1" d="M7.8,30l.18-.2A1.38,1.38,0,0,0,7.8,30Z"/><path class="cls-1" d="M8.53,28.75s0-.05-.07-.07h0Z"/><path class="cls-1" d="M1.88,49.46s0,0,0,.06S1.92,49.55,1.88,49.46Z"/><path class="cls-1" d="M2.16,43c0,.08,0,.16.06.23C2.25,43.07,2.28,43,2.16,43Z"/><polygon class="cls-1" points="4.68 55.29 4.68 55.29 4.71 55.32 4.68 55.29"/><path class="cls-1" d="M2.15,43.48a.48.48,0,0,0,.07-.3A.63.63,0,0,0,2.15,43.48Z"/><path class="cls-1" d="M11.66,24.54h.05s0,0,0,0Z"/><path class="cls-1" d="M11.71,24.51l0,0S11.72,24.49,11.71,24.51Z"/><path class="cls-1" d="M11.87,24.45l-.11,0S11.84,24.5,11.87,24.45Z"/><path class="cls-1" d="M10.5,25.13l.05.06A.13.13,0,0,0,10.5,25.13Z"/><path class="cls-1" d="M10.23,25.55c.08-.1.3-.16.36-.31l0,0C10.59,25.31,10.19,25.37,10.23,25.55Z"/><path class="cls-1" d="M8.31,27.16l.27-.4c-.11,0-.26.09-.18-.11C7.91,27.07,8.62,26.62,8.31,27.16Z"/><path class="cls-1" d="M7.53,28.41c.08-.24-.11-.05-.14-.08C7.38,28.51,7.38,28.55,7.53,28.41Z"/><path class="cls-1" d="M2.82,38l-.17-.1C2.61,38.1,2.72,37.93,2.82,38Z"/><polygon class="cls-1" points="3.06 40.25 3.23 40.11 3.09 39.97 3.06 40.25"/><polygon class="cls-1" points="1.4 41.02 1.4 40.92 1.38 41.27 1.4 41.02"/><path class="cls-1" d="M5.28,58l.07-.23C5.2,57.7,5,57.91,5.28,58Z"/><path class="cls-1" d="M13.09,59.68a.35.35,0,0,0,.46.06C13.36,59.73,13.18,59.64,13.09,59.68Z"/><polygon class="cls-1" points="27.33 42.36 27.36 42.54 27.39 42.24 27.33 42.36"/><path class="cls-1" d="M16.72,35.14c-.07,0-.2.06-.17.09l.25-.06Z"/><path class="cls-1" d="M16.34,35.49a1.61,1.61,0,0,0,.56-.09,2.27,2.27,0,0,0-.43,0s.06-.08.15-.11c-.07,0,0-.06-.12,0s-.16.15,0,.16Z"/><path class="cls-1" d="M15.6,38.21h0Z"/><path class="cls-1" d="M14.61,39.07s0,0,0-.07S14.61,39,14.61,39.07Z"/><path class="cls-1" d="M14.5,38.77v0S14.51,38.75,14.5,38.77Z"/><path class="cls-1" d="M15.6,38.21h-.09C15.58,38.25,15.57,38.22,15.6,38.21Z"/><path class="cls-1" d="M17,35.81l-.07,0,0,0Z"/><path class="cls-1" d="M15.72,37.47h0l-.09-.05Z"/><path class="cls-1" d="M15.81,36.94a2,2,0,0,0,.29.07A.36.36,0,0,1,16,37Z"/><path class="cls-1" d="M16.2,36.07h0Z"/><path class="cls-1" d="M15.53,37.81l-.07,0Z"/><path class="cls-1" d="M18.69,27.56l0,0Z"/><polygon class="cls-1" points="19.95 27.37 19.95 27.38 20.06 27.44 19.95 27.37"/><path class="cls-1" d="M14.48,38.42Z"/><path class="cls-1" d="M15.28,36.15v0l0-.09c0-.06,0-.13-.07-.23l.06.21,0,.12S15.29,36.17,15.28,36.15Z"/><path class="cls-1" d="M17,35.83a0,0,0,0,1,0,0S17,35.83,17,35.83Z"/><polygon class="cls-1" points="15.19 35.85 15.19 35.85 15.18 35.84 15.19 35.85"/><path class="cls-1" d="M14.27,38.32l-.1.06Z"/><path class="cls-1" d="M14.05,39l0,0S14.05,39,14.05,39Z"/><path class="cls-1" d="M14,38.23s0,0,0,0h0S14,38.22,14,38.23Z"/><path class="cls-1" d="M14,38h0v0Z"/><path class="cls-1" d="M18.06,29.08l.19.06C18.11,29.08,18.09,29,18.06,29.08Z"/><path class="cls-1" d="M16.91,35.82H17v0Z"/><path class="cls-1" d="M12.26,38.46a.88.88,0,0,1,.05-.15A.27.27,0,0,0,12.26,38.46Z"/><path class="cls-1" d="M16.4,32.55v0S16.38,32.54,16.4,32.55Z"/><path class="cls-1" d="M12.34,37.85l.16-.06-.05,0Z"/><path class="cls-1" d="M18.25,29.14Z"/><path class="cls-1" d="M18,28.41c0,.07.23.16.37.24s-.21,0-.35-.08c0,.09.25.24.22.28l-.11-.05c.17.15-.07.17.14.36l-.06,0,.34.15s.13.14,0,.08c0,0-.05-.06-.09-.09l.05.07c-.25-.08-.06-.09-.23-.17,0,.1.2.27.11.29-.24-.1,0-.15-.26-.19l.13,0c-.39-.12,0,0-.37-.17-.11.07.06.17-.06.24.12.09.2.09.31.17.16.26-.63-.16-.38.1.14.1.42.25.23.26l-.24-.16c-.08.09.34.24.12.26s-.05-.12-.09-.12c-.24,0,.12.12.1.17l-.24-.1c0,.13.09.33.08.47-.07,0-.13-.1-.21-.1,0,.2-.19.3-.39.38l.17.15s-.1,0-.14-.05.13.07.19.13-.13,0-.18-.06c.12.18.22.46,0,.46l-.05-.05c-.12.05.36.29.14.28l0,0c-.17.13-.09.42-.45.41.27.16-.21.11.18.32-.25,0-.31-.06-.51,0,0,0,.22.17.24.24l-.21-.1.19.17-.27-.09,0,.08s.11,0,.17,0-.23.09-.34,0l.1.25a.36.36,0,0,1-.14-.13c.17.19-.23-.09-.07.08a.83.83,0,0,1,.16.09c-.15,0-.19.07-.17.16L16,33c-.1.1-.06.29-.12.42.09,0,.33.12.33.17L16,33.48c.12.09.1,0,.24.13-.05,0-.27-.08-.32-.15l0,.1c-.07,0-.09-.06-.17-.1.12.09-.28,0-.06.15l-.07,0c-.06.13,0,.23-.06.35.19.09.12.12.26.22-.1.06-.29.07-.32.18s.15.09.25.17c-.17-.09-.17,0-.28-.13a1.13,1.13,0,0,0,.1.22c.07,0,.1.06.14.12s-.07,0-.14-.11h0c.08.14-.06.08-.15,0s-.15-.23-.09,0v0a.74.74,0,0,1,0,.21s0-.15-.06-.27c0,.16,0,.15-.05.12a.36.36,0,0,0-.38.12.34.34,0,0,0-.55,0c-.14.13-.21.28-.41.22L14,35c.06.13-.09,0-.14,0s.12,0,.15.12c-.15.38-.67.45-1,.74-.11.11.54.43.18.42L13,36.11c.12.4-.29.53-.16.89,0,0-.11-.06-.1-.09-.19,0-.09.21.05.26,0,0-.13,0-.21,0s.17.22,0,.19c0,0,0,0-.06,0s-.07.18.14.2c-.12.06,0,.21-.11.32.22.1-.16.23.17.28-.34,0-.31.27-.16.33-.1,0-.11.1-.25.08s.06.2.23.14c-.42.33.33.25-.19.56.2.23.37.38.49.53-.29.24-.09-.22-.4,0,.19.15.45,0,.47.27s-.12.1-.17.12c.19.08.21.37.46.34l-.08,0s0,.1.12,0h0c.08-.22.35-.31.41-.42-.27.36.09.17-.24.63a.38.38,0,0,0,.13-.16s0,.09-.08.19c.15,0,.18-.17.27-.17h0a.67.67,0,0,1-.09.14l0,0,0,0c.11-.12.2-.24.27-.18s0,.1-.06.1c.18,0,.37-.43.49-.34-.1.37,0,.1,0,.4l.11-.12,0-.13c.09,0,.16-.27.23-.21l-.07.16.16-.14-.09-.07c.07-.2,0-.39.08-.35s.06,0,.12.12h0c0-.12,0-.24.1-.2s0,.34.06.39c0-.27.17-.19.14-.46a1.2,1.2,0,0,0,.06.24l0-.21s.07.06.1.18c.12,0-.16-.32,0-.26,0,0,0,0,0,.09.15,0,.15-.29.29-.3.2.2,0,.14.12.31.15-.19.11-.6.24-.65h0c-.3-.26.22,0,.12-.15,0,0,.17.15.13.12.12,0,.06-.24,0-.45l.07.07c.11,0,.14-.12.21-.16s-.05-.09-.19-.14c.63.06-.11-.48.4-.47,0,0,.06.08.07.06l0-.18a1.29,1.29,0,0,0-.25,0c-.09,0-.15-.12-.14-.15a.45.45,0,0,0,.37.08l-.16,0c.32,0-.33-.11-.1-.16l.08,0s-.14-.11-.1-.15c.2,0,.08.07.24.11,0-.07-.34-.21-.14-.22s.05.08.1.12c.24,0,.18,0,.23-.07h0l.13-.09-.07,0c-.5-.17-.06-.18-.39-.34.31.15.18,0,.41.08.06,0,.14-.06.2,0-.18-.07.15-.08-.11-.18.08,0,0-.05.2,0-.06-.08-.13,0-.22,0-.25-.12.31-.26,0-.41-.16-.13-.4-.13-.53-.23a.42.42,0,0,1,.26,0c.1-.07.08-.12,0-.17a.34.34,0,0,0,.19,0s-.27,0-.17-.07a1.48,1.48,0,0,1,.3,0c-.08-.05-.23-.08-.3-.12a.44.44,0,0,1,.28,0,.37.37,0,0,0-.35-.13l-.06.06s.17-.05.21,0-.06.1-.13.11l-.05,0c-.41.14.1.15.09.24l-.31,0,.27,0a.54.54,0,0,1-.3,0c-.15.08.11,0,0,.1H16.2l.1,0c-.07,0-.22,0-.18,0-.17.1.25.12,0,.17h0c.11.12.23,0,.5.09l-.57.08h.23s0,0-.12,0c.16,0,.1,0,.25,0-.21.06.09.19-.28.18.18,0,.14-.06.26,0-.4,0,.06.09-.13.13s-.09-.08-.27,0c.33.07-.09.1,0,.15.27,0,.09.12.16.22-.08,0-.17.11-.29.15h0c.26.09.18.15.22.22a.74.74,0,0,1-.27-.13l0,.05c.08,0,.13.07.14.11l-.19-.08c0,.06.18.21,0,.24.17.08.52.13.6.28a1.12,1.12,0,0,1-.29-.14s.07.06,0,.06l-.15-.11c-.08,0,.13.08.1.11s-.1,0-.21-.08.07,0,0,0a.43.43,0,0,1-.25,0c.08,0,.18.08.19.11s-.17-.05-.26-.05c.09.06,0,.05.17.15,0,0-.1,0-.16-.05s-.05.15.17.24h0c.12.22-.24.15-.23.29l-.06,0c0,.1-.05.15,0,.29s-.14,0-.2-.11.07.13-.06.09-.08-.08,0-.09-.15-.11,0,.09c-.11-.17-.17-.18-.15-.12l.1.09s0,0,0,0l-.12-.22c-.1-.12,0,0,0,.13s0,.24-.08,0c0,.21.06.11.11.34,0,0-.16-.39-.16-.39s0,.46,0,.37a1.41,1.41,0,0,1,0,.54c-.05,0-.05-.45,0-.55s0,0,0,.06a.69.69,0,0,0,0-.22v.11c0-.1-.06-.07,0-.27a.51.51,0,0,0,0,.25c0-.15-.06,0-.08-.08a1.43,1.43,0,0,1,0,.21c0-.12-.07.26-.14.34,0-.18.12-.47,0-.29a3.09,3.09,0,0,1,.12-.46c-.09.27,0-.15,0-.2l.05-.11,0,.06-.09.27a.8.8,0,0,1,0-.16,7.45,7.45,0,0,1-.27.7v0s-.1.12,0-.18c0,.13.16-.36.2-.41s0,0,0,0l.05-.09c.13-.33-.2.4-.23.37l.17-.33a5.15,5.15,0,0,1-.28.46c.07-.16-.09.09-.09.06l0,.08c-.13.18-.13.14-.18.17.09-.14.08-.07.12-.14-.25.27.19-.38,0-.21.08-.12.25-.3.3-.39-.18.18.19-.22,0-.08a2.24,2.24,0,0,1-.33.3l.14-.07a2.09,2.09,0,0,1-.28.24s.13-.07.1,0a1.79,1.79,0,0,0-.26.28c.27-.33-.18.08,0-.16l.47-.44c.21-.2-.25.14-.13,0l-.08.07c-.19.12,0,0-.11,0l.32-.2c-.12.06,0,0-.31.1l.21-.12c.09-.07-.45.1-.38,0s.28-.08.4-.08,0,0-.08,0c.1,0-.2,0,0-.05-.07,0-.23,0-.21,0h.07a1.11,1.11,0,0,0-.27,0c.49-.08,0-.25.42-.25a.71.71,0,0,1,0-.24s.07,0,.05,0c.16,0-.39-.18-.21-.23s.11.09.21.09c.46.15,0-.14.26-.1l0,0c.18,0-.12-.18,0-.25a.1.1,0,0,0,.06,0,.55.55,0,0,1-.24-.4.6.6,0,0,0,.25.16s-.28-.13-.3-.23a1.64,1.64,0,0,1,.4.12l0,.07c.25.1,0-.08.1-.09l.09.06c0-.1-.23-.26-.14-.34l-.09,0c-.2-.22.17.05,0-.13l.25.16a1,1,0,0,1-.14-.38,3.26,3.26,0,0,1,.26.42.17.17,0,0,0,0-.22s.05.09,0,.07c-.16-.18-.2-.3-.14-.37.42.39.25-.06.61.21-.07-.25.23-.07.19-.1-.2-.38,0,0-.18-.42,0,0,0,0,0,0a.67.67,0,0,1,.07.21h0v0l.05.55c0-.17,0-.23.14-.17a1,1,0,0,1-.14-.22c.17-.23.25.41.44.15l0,.15c.1-.08.46-.08.4-.46,0,0,.12.14.09.19.32-.07.25-.65.51-.65l.07.1c0-.07-.11-.22,0-.19s.08.09.09.07-.09-.24,0-.26l.07.13c.13-.09.12-.23.06-.37s-.16-.2-.16-.28a.53.53,0,0,0,.52,0l0,0c.12-.15-.11-.41-.15-.62.37.06.3-.26.55-.32a.53.53,0,0,1-.24-.16c.07,0-.16-.2.11-.06h0c.28.1.24,0,.28-.06l-.35-.19c.59.1,0-.49.51-.34C18,33.08,18.06,33,18,33l.19.1a.36.36,0,0,0,.16-.27l.12.09c.05-.06-.5-.35-.48-.42l.29.11c.06-.12.37-.12.17-.37,0,0,.12.06.12.09s.3-.13-.1-.3c.26.12.09-.12,0-.24l.18.11c-.21-.18-.27-.21-.3-.32s.16,0,.1.06c.13,0-.16-.14,0-.17l.11.09c0-.06,0-.08-.15-.19s.11-.09.28,0c-.1-.06-.22-.16-.15-.18a.21.21,0,0,1,.11.08c.18,0-.14-.27.08-.25l.12,0c0,.09-.09.15-.1.14.18.08.24,0,.45.2-.1-.12-.34-.35-.23-.38L19,31v0s0,0,0-.06.06,0,.08,0,.11,0,.14-.07c-.2-.09-.14-.12-.32-.15,0,0,0,0,0,0s0,0,0,0h0a.16.16,0,0,1,0,.09c-.08-.07-.15-.14,0-.12l-.28-.2c.28.08.47.06.64.13-.06-.16.05-.28-.28-.52,0-.05.12,0,.18,0s0,.05.06.09.05-.2-.19-.33c.15,0,.21.15.22,0l.07.05c.49,0-.48-.64.14-.61a.22.22,0,0,1-.1,0c.35-.14,0-.63.53-.7.11,0-.05-.13-.15-.23l.21.09-.2-.19c-.12-.19.59.06.33-.24l-.14,0c.05,0,0-.19.15-.1,0,0-.14-.09-.06-.07l.11.05L20,27.7c.13-.05.42.22.51.1a.82.82,0,0,0-.33-.31s-.09,0-.19,0l0-.08a2.06,2.06,0,0,0-.89-.34l.16.17-.17-.05,0-.07c-.16,0,0,.05,0,.12a.62.62,0,0,0-.18-.05l.26.22c-.12-.05-.22-.15-.32-.13.13.1.3.1.36.2-.16,0-.27-.1-.17,0a.29.29,0,0,1-.16-.1c.08.09,0,.13.15.23-.2,0,0,.15-.32,0,.07.05.2.18.2.23-.33-.24-.09.12-.46-.08.29.2.06.24.19.41,0,0-.07-.05,0-.05s-.15,0-.23,0a1.68,1.68,0,0,1,.43.36c-.28-.06-.29-.18-.55-.28.22.1.17.2.36.27a1,1,0,0,1-.33-.08c.33.17,0,.07.22.2-.19,0-.32-.13-.25,0A.39.39,0,0,1,18,28.41Zm-.26,2h0v0Zm-.07.14a.1.1,0,0,0,0-.05c.07,0,.13.06.12.07S17.78,30.55,17.71,30.54Zm1.47.34s0,0-.07,0v-.05h0Z"/><path class="cls-1" d="M19,30.72s0,0,0,0h-.05l.05,0Z"/><path class="cls-1" d="M15.64,38.21Z"/><polygon class="cls-1" points="16.38 32.35 16.43 32.37 16.4 32.34 16.38 32.35"/><path class="cls-1" d="M16.66,37.68h0Z"/><path class="cls-1" d="M16.81,37.29l.08,0S16.82,37.27,16.81,37.29Z"/><path class="cls-1" d="M17,37l-.09,0h0Z"/><path class="cls-1" d="M13.07,40.51h0C13,40.52,13,40.52,13.07,40.51Z"/><path class="cls-1" d="M14.8,40a.93.93,0,0,0,0,.13S14.81,40.07,14.8,40Z"/><polygon class="cls-1" points="12.25 38.48 12.26 38.48 12.26 38.46 12.25 38.48"/><path class="cls-1" d="M14.69,40.11s.05,0,.07,0S14.71,40.07,14.69,40.11Z"/><path class="cls-1" d="M17,35.5v0h0Z"/><path class="cls-1" d="M17,35.48h0S16.94,35.49,17,35.48Z"/><path class="cls-1" d="M16.87,35.45l.06,0S16.93,35.44,16.87,35.45Z"/><path class="cls-1" d="M17,36h0Z"/><path class="cls-1" d="M17,36.1s.15-.1.1-.14h-.06C17.16,36,16.87,36.08,17,36.1Z"/><path class="cls-1" d="M16.07,36.62l.06-.09c-.08,0-.19,0-.21,0C15.68,36.62,16.11,36.5,16.07,36.62Z"/><path class="cls-1" d="M15.93,36.87s-.12,0-.16,0S15.85,36.9,15.93,36.87Z"/><path class="cls-1" d="M15.15,38.62,15,38.49S15.06,38.54,15.15,38.62Z"/><polygon class="cls-1" points="15.48 39.68 15.59 39.75 15.51 39.58 15.48 39.68"/><polygon class="cls-1" points="14.73 38.51 14.73 38.47 14.73 38.56 14.73 38.51"/><path class="cls-1" d="M14.19,38,14,38S14.26,38.07,14.19,38Z"/><path class="cls-1" d="M14.5,36.74c.11,0,.19.07.11,0S14.48,36.71,14.5,36.74Z"/><polygon class="cls-1" points="17.9 33.56 17.96 33.63 17.93 33.54 17.9 33.56"/><path class="cls-1" d="M6.78,29.21c0,.06-.08.19,0,.18l.11-.22Z"/><path class="cls-1" d="M6.82,29.72a1.64,1.64,0,0,0,.25-.5c-.12.2-.09.11-.23.36,0,0,0-.1,0-.18s0-.07-.1.07,0,.22.13.09C6.87,29.62,6.83,29.67,6.82,29.72Z"/><path class="cls-1" d="M9.63,31.19v0Z"/><path class="cls-1" d="M11.43,32a0,0,0,0,0,0,0S11.43,32,11.43,32Z"/><path class="cls-1" d="M11.66,32.35v0S11.65,32.36,11.66,32.35Z"/><path class="cls-1" d="M9.63,31.19l0,.09C9.69,31.21,9.65,31.22,9.63,31.19Z"/><path class="cls-1" d="M7.44,29.31l-.05.05h0Z"/><path class="cls-1" d="M8.75,31.08h0l-.05.09Z"/><path class="cls-1" d="M8.12,30.89a2.36,2.36,0,0,0,.13-.27.43.43,0,0,1-.08.12Z"/><path class="cls-1" d="M7.27,30.16l0,0Z"/><path class="cls-1" d="M9.18,31.29l0,.07A.19.19,0,0,0,9.18,31.29Z"/><path class="cls-1" d="M27.33,35v0A.1.1,0,0,0,27.33,35Z"/><polygon class="cls-1" points="27.84 36.23 27.83 36.24 27.8 36.35 27.84 36.23"/><path class="cls-1" d="M12.15,32.8Z"/><path class="cls-1" d="M17.57,34.38c0-.2.17-.2.14-.43C17.7,34,17.53,34.24,17.57,34.38Z"/><path class="cls-1" d="M7.44,29.35h0A0,0,0,0,0,7.44,29.35Z"/><polygon class="cls-1" points="17.71 33.95 17.71 33.95 17.71 33.93 17.71 33.95"/><path class="cls-1" d="M13.54,33.13a.28.28,0,0,0,0-.09S13.54,33.09,13.54,33.13Z"/><path class="cls-1" d="M12.63,32.52l0,0S12.64,32.52,12.63,32.52Z"/><path class="cls-1" d="M14.15,33s0,0,0,0v0S14.15,33.06,14.15,33Z"/><path class="cls-1" d="M14.69,33.2v-.05h0Z"/><path class="cls-1" d="M25.64,34.74a1.36,1.36,0,0,1,0,.2C25.65,34.79,25.74,34.75,25.64,34.74Z"/><path class="cls-1" d="M7.39,29.42s0-.07.05-.07h0A.24.24,0,0,1,7.39,29.42Z"/><path class="cls-1" d="M14.69,31.45l.07.06A.11.11,0,0,0,14.69,31.45Z"/><path class="cls-1" d="M21.72,33.77l0,0S21.73,33.74,21.72,33.77Z"/><path class="cls-1" d="M15,31.56a.36.36,0,0,0,0,.15l0,0Z"/><path class="cls-1" d="M25.62,34.94Z"/><path class="cls-1" d="M26.31,34.59c-.08,0-.1.25-.16.4s0-.21,0-.35c-.08,0-.18.29-.23.27a.53.53,0,0,1,0-.12c-.12.2-.2,0-.34.22,0,0,0,0,0-.07a2.61,2.61,0,0,1-.08.37s-.11.15-.08,0c0,0,0-.06.06-.11l-.05.07c0-.26.07-.08.12-.26-.1.06-.24.25-.28.16.05-.25.16,0,.13-.29l.07.12c0-.41,0,0,.09-.39-.11-.1-.17.09-.27,0-.06.13,0,.21-.1.34-.23.2,0-.66-.18-.36s-.17.47-.21.28l.1-.27c-.11-.06-.17.38-.24.17s.11-.07.1-.11c0-.24-.09.14-.15.13l.05-.25c-.13,0-.31.15-.46.16a.43.43,0,0,0,.06-.22c-.2.08-.36-.13-.48-.32l-.12.2s0-.1,0-.14,0,.14-.09.21,0-.13,0-.19c-.15.15-.42.3-.48,0l0-.05c-.07-.11-.22.41-.25.19l0,0c-.18-.14-.45,0-.52-.37-.11.3-.16-.19-.29.24-.06-.25,0-.31-.13-.5,0,0-.13.25-.2.28l.06-.22-.13.21,0-.28-.07,0a.24.24,0,0,1,0,.17c-.11.08-.15-.2-.12-.32l-.23.14a.32.32,0,0,1,.1-.16c-.16.2.05-.24-.1-.06a1,1,0,0,1-.05.18c0-.15-.11-.18-.21-.14l.06-.15c-.12-.08-.31,0-.46,0a.47.47,0,0,1-.1.36l.05-.24c-.07.13,0,.1-.09.26-.05,0,0-.28.09-.35l-.09.07a1.21,1.21,0,0,1,.07-.2c-.07.14-.05-.26-.17,0l0-.07c-.15-.05-.25,0-.37,0-.06.2-.1.14-.18.3-.08-.09-.13-.28-.25-.3s-.07.17-.14.28c.05-.19-.07-.2,0-.32a.58.58,0,0,0-.39.09.35.35,0,0,1,0,.18s-.05-.1,0-.19h0c-.27.22-.28-.66-.54-.32v0l-.21.15c-.06,0,.08-.12.06-.25-.25.25-.25-.13-.44,0,.05-.58-.39-.08-.43-.47l0,.13c-.08.12,0-.08,0-.12s0,.13,0,.19c-.36.06-.59-.39-.87-.6-.11-.07-.27.64-.33.29l.12-.23c-.33.21-.48-.16-.79,0,0,0,.06-.12.08-.11,0-.19-.18-.07-.22.07,0,0,0-.13,0-.21s-.19.18-.17,0a.16.16,0,0,1,0-.06c-.06.07-.14-.07-.18.14-.05-.12-.19,0-.22-.11-.12.21-.11-.15-.23.16.11-.32-.07-.31-.17-.18,0-.09,0-.11,0-.24s-.14,0-.18.19c0-.42-.34.24-.24-.28a2.06,2.06,0,0,1-.64.19c.11-.32.19,0,.3-.31-.21.08-.39.33-.52.2s.07-.13.1-.18c-.2.08-.29-.14-.49,0a.16.16,0,0,1,.06-.08s-.05-.07-.1.08l0,0c0,.23-.26.4-.3.51.19-.4-.1-.15.15-.65a.35.35,0,0,0-.1.18s0-.1.06-.2c-.13.05-.15.21-.24.18s.06-.09.09-.17c-.09.12-.18.24-.24.16s0-.1.06-.09c-.14,0-.35.29-.45.11.15-.3,0-.12.07-.39l-.1.05,0,.14c-.06,0-.19.15-.22,0l.09-.09h-.14l0,.13c-.11.11-.11.34-.17.23s-.07,0-.05-.19h0c-.06.08-.12.15-.15.07s.11-.29.12-.35c-.11.21-.17,0-.3.23a1.71,1.71,0,0,0,.09-.22l-.09.17a.3.3,0,0,1,0-.21c-.08-.06-.09.35-.15.17a.13.13,0,0,1,.05-.06c-.09-.12-.26,0-.33-.09.06-.28.11,0,.16-.27-.17,0-.42.21-.54.09v0c-.15.37,0-.22-.17-.07a.54.54,0,0,0,.08-.16c-.08-.1-.24,0-.43.08l.06-.09c0-.1-.14-.1-.18-.17-.06.09-.09.06-.12.21,0-.61-.47.16-.47-.36,0,0,.08-.06.06-.07l-.18,0a1.12,1.12,0,0,0,0,.24c-.05.09-.12.15-.16.13s.1-.26.1-.36a1.66,1.66,0,0,1-.06.16c0-.32-.13.32-.16.09l0-.09c-.06,0-.14.13-.17.09s.08-.07.14-.23-.25.32-.24.11c0,0,.08,0,.13-.07,0-.24,0-.19,0-.24h0l-.06-.13v.07c-.26.46-.18,0-.4.31.21-.26.08-.17.17-.38a.35.35,0,0,1,0-.2c-.12.15,0-.16-.19.06,0-.07,0,0,0-.19-.08,0,0,.12-.07.21s-.11-.37-.37-.1c-.16.09-.27.31-.42.38a.38.38,0,0,1,.12-.23c0-.13-.07-.13-.15-.07a.48.48,0,0,0,0-.19s-.12.24-.14.11.1-.19.15-.26-.18.16-.26.2c0-.13.11-.17.15-.24a.43.43,0,0,0-.29.23l0,.08s0-.17.08-.2,0,.1,0,.17l-.05,0c-.12.41.18,0,.25.05L7.16,30l.17-.21c0,.08-.06.25-.12.28s.09-.08.08.09,0,.05,0,.05l.09-.06c0,.06-.07.21-.09.15,0,.21.24-.16.19.08h0c.17,0,.09-.2.29-.42l-.14.56.1-.21s0,0,0,.12c.11-.12,0-.09.11-.22,0,.22.22,0,.11.32.08-.15,0-.15.1-.23-.12.37.1,0,.1.16s-.11.06-.11.25c.15-.31.09.12.17.07.09-.25.15-.06.27-.11,0,.08.11.2.15.32v0c.11-.25.17-.17.25-.2a.71.71,0,0,1-.15.27l.06,0c0-.08.08-.12.13-.13l-.09.18c.08,0,.24-.17.29,0,.07-.18.1-.53.25-.61a.88.88,0,0,1-.13.29s.06-.07.06,0l-.1.15c0,.09.08-.13.11-.1s0,.11-.06.22,0-.07,0,0a.32.32,0,0,1,0,.25c0-.08.07-.19.11-.19s0,.17,0,.26c.06-.09.07,0,.15-.18,0,0,0,.11,0,.17s.2,0,.23-.2v0h0c.2-.16.22.21.39.17l0,.07c.11-.05.19,0,.3-.12s0,.15,0,.23.12-.11.16,0,0,.11-.09.07,0,.2.18,0c-.09.17,0,.24,0,.2v-.14a.14.14,0,0,1,.12,0l-.11.23c.06.34.46-.39.41.13.1-.15,0-.14.06-.32.06.06,0,.42,0,.43s.21-.31.28-.19c0-.09.08-.31.19-.37s0,.39-.11.44,0,0,0-.06-.08,0-.08.15l0-.08c0,.1.11.12,0,.25a.14.14,0,0,0,0-.18c.05.15.14.05.21.17,0-.06,0-.16,0-.15s.12-.14.23-.15c0,.15-.13.3,0,.23a.41.41,0,0,1-.12.29c.15-.14.13.16.17.21l-.07.05a.11.11,0,0,1,.09,0l0-.17s0,0,0,.11c.07-.1.08-.28.19-.42,0,.1.14-.05.07.18-.09-.12-.06.23-.17.23s.05,0,.07,0a.1.1,0,0,1,0,0c0,.24.14-.23.25-.19-.06.12-.05.25,0,.23s.05-.22.13-.3c0,.12.1,0,.13,0l0-.07c.05-.12.08-.09.15-.11s-.07,0-.07.1c.13-.2.05.27.18.15,0,.1-.08.24-.07.31.15-.14,0,.2.18.1s0-.14.13-.28l-.19.06.18-.21s-.13.08-.15,0a.37.37,0,0,0,.1-.23c0,.27.17-.11.18.08l-.14.42c.05.23.27-.15.37,0l0-.08c.07-.16.09,0,.16,0a.92.92,0,0,0,0,.29c0-.1.1.05.21-.23V33c.09.11.26-.36.35-.28-.08.14-.06.26-.17.35s.06,0,.09-.05c0,.09.16-.16.15,0,0-.06.09-.21.13-.18l0,.07c0-.07.09-.08.11-.24,0,.47.32.07.29.47a.94.94,0,0,1,.28,0s0,.07,0,0c.06.17.19-.38.26-.2s-.1.1-.09.2c-.13.47.16,0,.15.28l0,0c0,.18.2-.13.28-.07a.2.2,0,0,0,0,.07.68.68,0,0,1,.4-.29c-.09.17-.07.08-.11.27.05,0,.08-.3.18-.32a1.67,1.67,0,0,1,0,.41h-.08c0,.26.1,0,.13.08l0,.11c.13,0,.22-.28.34-.22v-.09c.16-.26,0,.17.15,0l-.07.29a1.46,1.46,0,0,1,.34-.26,1.45,1.45,0,0,1-.34.38.18.18,0,0,0,.23-.1s-.07.08-.07,0c.12-.2.23-.29.32-.26-.19.55.19.22.13.66.22-.15.29.19.49.21.06-.45.06,0,.18-.44q.08,0,.06,0l.06.3c0,.14-.07.08-.1.18s0,.2,0,.34c0-.16.1-.22.14-.14l0-.23c.21-.19,0,.41.21.22l-.08.12c.09-.06.26.08.43-.25,0,0,0,.18-.06.2.15.1.48-.27.54,0l0,.1s.11-.19.12-.07,0,.11,0,.12.14-.17.16-.09l-.07.11c.12.19.33-.22.49-.26a.54.54,0,0,0,.06.53l0,0c.18.1.4-.17.61-.24,0,.37.33.24.45.49a.44.44,0,0,1,.11-.27c0,.07.18-.19.09.1h0c0,.29.06.24.13.27l.11-.38c0,.6.51-.09.47.44.07-.09.12-.07.19-.16l-.06.21a.36.36,0,0,0,.31.11l-.07.14c.08,0,.26-.56.33-.55l-.05.31c.14,0,.21.34.42.1,0,0,0,.13-.07.13s.21.28.29-.15c-.07.28.14.07.25,0l-.07.2c.14-.24.16-.31.26-.36s0,.17,0,.11c0,.13.1-.18.16,0l-.07.13c.07,0,.08,0,.16-.18s.13.09.09.27c0-.11.12-.25.15-.18a.34.34,0,0,1,0,.13c.08.17.24-.19.27,0a.35.35,0,0,0,0,.12c-.09,0-.17-.06-.16-.07,0,.18,0,.24-.1.48.1-.13.28-.4.34-.3v.09s0,0,.05,0,0,.06.05.07.07.11.11.13c.05-.21.09-.16.08-.35,0,0,0,0,0,0s0,0,0,0v0h-.1c.05-.1.11-.18.12,0l.14-.32c0,.3.05.48,0,.66.14-.09.3,0,.47-.37,0,0,0,.12,0,.18s-.06,0-.08.08.21,0,.29-.26c.06.15-.11.24,0,.22l0,.08c.12.49.54-.59.66,0a.34.34,0,0,1,0-.1c.24.31.66-.09.86.37.06.09.11-.08.19-.2l0,.23.14-.24c.17-.15.09.59.32.28l0-.16c.05,0,.19,0,.14.12,0,0,.06-.15.06-.06l0,.11.18-.16c.08.1-.12.45,0,.51a.8.8,0,0,0,.24-.38s0-.09,0-.2l.07,0a2.22,2.22,0,0,0,.13-1l-.14.19v-.17h.08c0-.16-.07,0-.12.06a.68.68,0,0,0,0-.19l-.17.3c0-.13.1-.25.06-.34-.07.14,0,.31-.12.39,0-.16,0-.29,0-.16a.31.31,0,0,1,.06-.18c-.07.09-.13,0-.19.19,0-.2-.16,0-.08-.3,0,.07-.14.23-.18.23.16-.36-.15-.05,0-.46-.14.33-.24.11-.38.28,0,0,0-.08,0-.06s0-.15-.06-.23a1.44,1.44,0,0,1-.26.5c0-.29.12-.33.16-.6-.05.23-.17.21-.19.4a.9.9,0,0,1,0-.33c-.09.35-.06,0-.15.26,0-.2.06-.34-.05-.25A.35.35,0,0,1,26.31,34.59Zm-2.09.14Zm-.16,0s0,0,.07,0,0,.14-.05.13S24.07,34.76,24.06,34.69Zm0,1.51s0,0,0-.07h.05v0Z"/><path class="cls-1" d="M24.16,35.94h0v0l0,.06Z"/><path class="cls-1" d="M9.62,31.15h0v0Z"/><polygon class="cls-1" points="21.93 33.72 21.91 33.77 21.94 33.73 21.93 33.72"/><path class="cls-1" d="M9,30.15a.11.11,0,0,0,0,0A.11.11,0,0,1,9,30.15Z"/><path class="cls-1" d="M8.65,30l0-.09A.3.3,0,0,0,8.65,30Z"/><path class="cls-1" d="M8.4,29.76l0,.08h0Z"/><path class="cls-1" d="M13.07,31.17h0S13.1,31.15,13.07,31.17Z"/><path class="cls-1" d="M11.53,31.16l.08-.07S11.57,31.05,11.53,31.16Z"/><polygon class="cls-1" points="14.68 31.45 14.68 31.45 14.69 31.45 14.68 31.45"/><path class="cls-1" d="M11.67,31.11c0-.05,0,0-.06,0S11.64,31.14,11.67,31.11Z"/><path class="cls-1" d="M7.19,29.2v0l0,0Z"/><path class="cls-1" d="M7.16,29.22h0S7.15,29.24,7.16,29.22Z"/><path class="cls-1" d="M7.09,29.27l0,0S7.12,29.22,7.09,29.27Z"/><path class="cls-1" d="M7.53,29.43l0-.07Z"/><path class="cls-1" d="M7.66,29.46s0-.18-.07-.15l0,.05C7.62,29.27,7.58,29.57,7.66,29.46Z"/><path class="cls-1" d="M7.8,30.53l-.07-.1c0,.09,0,.2-.08.2C7.68,30.9,7.69,30.45,7.8,30.53Z"/><path class="cls-1" d="M8.06,30.75c-.06,0,0,.11-.06.15S8.08,30.83,8.06,30.75Z"/><path class="cls-1" d="M10.25,31.56l-.07.18C10.23,31.73,10.21,31.67,10.25,31.56Z"/><polygon class="cls-1" points="11 30.77 11 30.65 10.93 30.81 11 30.77"/><polygon class="cls-1" points="10.79 32.15 10.77 32.17 10.86 32.13 10.79 32.15"/><path class="cls-1" d="M14.54,33.34l.06-.22S14.47,33.4,14.54,33.34Z"/><path class="cls-1" d="M16.23,33.63c0,.12,0,.2.06.1S16.25,33.6,16.23,33.63Z"/><polygon class="cls-1" points="21 35.43 20.94 35.49 21.02 35.45 21 35.43"/></g></g></svg>
