<svg xmlns="http://www.w3.org/2000/svg" viewBox="0 0 30.94 59.85" class="svg" focusable="false" aria-hidden="true" role="img"><defs><style>.cls-1{fill:#0087b1}</style></defs><g id="Layer_2" data-name="Layer 2"><g id="Layer_1-2" data-name="Layer 1"><path class="cls-1" d="M20.12 26.31c0 .06.17.13.18.05l-.18-.18zm.64-.19a.64.64 0 00-.43-.38c.17.18.08.15.28.37 0 .09-.14.08-.21 0s-.1.07 0 .19.29-.1.21-.29a.28.28 0 01.15.11zm.67-7.65v.06a.07.07 0 000-.06zm-.9-4.73h.06c.06 0-.04-.01-.06 0zm.11-.84s.02 0 0 0zm.79 5.57l.06-.14c-.09.01-.05.08-.06.14zM20.61 25a.2.2 0 000 .08.2.2 0 010-.07zM22 20.56h.11zm.14 1.67s-.2 0-.29-.06a.22.22 0 01.14.08.44.44 0 00.15-.02zm-.62 2.63v.05zm.33-5.48h.07zm-9.38-7.71s-.01 0 0 0zm-1.89-.89l.03-.02-.02-.12-.01.14zm10.09.66s.02.02 0 0zm4.78-9.5c-.1-.19.23-.23.07-.44 0 .08-.2.31-.07.44zm-4.8 23a.14.14 0 010-.06s-.01.04 0 .06zM25.52 1.5v-.01l-.02-.02.02.03zm-5.1 6.65a.19.19 0 00-.09 0zm-.25 2.49v-.07a.25.25 0 000 .07zm.08-3.77s.05 0 0-.09.04.06 0 .09zm.3-1.26l-.05.01v.04l.05-.05zm-3.91 6.23a.6.6 0 01-.06-.19c.01.15-.2.19.06.19zM20.72 25s-.07 0-.07-.06zm-2.1-18.45l.07-.24a.61.61 0 00-.07.24zm8.16 2.82zm-7.96-3.78A.5.5 0 0019 5.5h-.05z"/><path class="cls-1" d="M15.07 12c.21 0 .12-.26.18-.42.26 0 .1.22.17.36.17-.06.31-.3.43-.28s0 .07 0 .12c.19-.2.5 0 .72-.23a.19.19 0 010 .07 1.2 1.2 0 010-.38c.09 0 .18-.17.21 0-.06 0-.07.06-.1.11l.11-.07c.07.27-.15.08-.16.28.2-.07.44-.28.59-.2 0 .26-.36.07-.17.31l-.23-.11c.16.41-.14 0 0 .4.32.09.36-.11.67 0 .08-.14 0-.21.06-.35.44-.24.34.65.68.31.08-.17.11-.5.34-.33l-.07.29c.31 0 .16-.42.49-.24-.05.11-.24.1-.19.14.22.21.14-.17.29-.18v.25c.33-.06.67-.28 1-.37 0 .08-.07.17 0 .23a3 3 0 011.43-.05l.12-.25s.09.08.06.14c.18 0 0-.14 0-.24s.15.09.11.17c.25-.25.73-.59 1.09-.46v.08c.27 0 .14-.51.41-.39.55-.07 1-.46 1.53-.32-.06-.32.56-.1.4-.52.38.05.33.17.81.05.12-.05 0-.33.11-.45l.14.19v-.32l.26.15.08-.14a.17.17 0 01-.2-.06.54.54 0 01.62-.16c.09-.18.18-.36.25-.54.06.07 0 .17 0 .26 0-.38.22.12.24-.23-.06 0-.09-.11-.12-.14.19 0 .39-.27.46-.49l.11.12a4.53 4.53 0 00.55-1.24c-.13.13-.37 0-.35-.14h.24c-.11-.13-.13.09-.24-.13.08-.15.3 0 .34.1v-.11c.07 0 .09.07.17.11-.11-.12.35-.29.12-.48H29a4.54 4.54 0 00.06-1.08c-.21 0-.16-.16-.32-.28a1.94 1.94 0 00.17-.86c-.15-.21-.19 0-.34-.12.19 0 .11-.35.28-.22a2 2 0 00-.45-.91c-.06.08-.07.15-.14.14s0-.21.1-.24a1.62 1.62 0 01-.32-.91c-.12-.33-.24-.72-.6-.72L27 .83c-.19-.14.21 0 .11-.24-.65 0-.84-.42-1.36-.3a.68.68 0 00-.86-.29 1.68 1.68 0 01-.89.1l.06.12c-.08.16-.16 0-.26 0 .05.1.16.09.11.18a21.09 21.09 0 00-2.71 1.14c-.29.21.32.65-.21.71l-.09-.26c-.28.68-1 1.06-1.12 1.81 0-.06-.09-.1-.05-.15-.25 0-.26.47-.13.54-.07.08-.13 0-.23 0s.06.42-.13.43v-.09c0 .12-.19.4 0 .39-.17.2-.07.48-.23.64.19.18-.22.38.09.5-.32-.1-.36.37-.22.54-.09-.07-.13.12-.26 0 0 .18 0 .35.2.34-.45.28.25.67-.28.81.14.53.27 1 .35 1.44-.34 0 0-.5-.39-.48.13.43.43.67.36 1.09 0 .11-.15 0-.21-.09.16.42 0 .82.22 1.18a.12.12 0 01-.09-.07c0 .07 0 .17.11.15l-.05-.06c.22-.14.49.25.61.25-.45-.09-.07.38-.65.23a.23.23 0 00.22.09c0 .07-.08.1-.2 0 .11.26.26.15.29.39-.08 0-.11 0-.2-.05.16.11.32.21.29.42h-.11c.08.35.47.53.41.92-.34-.05-.08.14-.35.22l.13.18.11-.1c0 .17.26.28.21.45l-.14-.1.12.31.06-.21c.18.15.34-.09.32.16 0 0 0 .17-.11.29.11.07.22.14.18.28s-.31 0-.36.07c.24 0 .15.39.42.44a.44.44 0 00-.24 0h.21c-.05.09-.07.11-.19.12 0 .25.33-.15.25.16h-.09c0 .3.25.52.21.81-.25.14-.12-.22-.33-.08.14.37.51.71.52 1.08v-.07c.4 0-.13.31.09.46h-.18c0 .26.2.48.4.84h-.11c-.06.16 0 .4 0 .56s.11.12.24 0c-.5.59.48.89 0 1.4 0-.05-.1-.11-.1-.07l.14.36c.17-.05.1-.07.23-.16a.31.31 0 01.21.23c-.14-.16-.28 0-.37.11s.12 0 .17 0c-.29.23.35 0 .17.28h-.09c.05.09.18.18.16.29-.19.06-.1-.1-.26-.1 0 .15.4.28.21.43-.06-.06-.07-.16-.13-.22-.23.17-.17.18-.2.29l-.01.23.06-.07c.54.17.1.38.44.63-.32-.25-.18 0-.41-.06-.06.06-.14.16-.2.13.18.12-.14.19.12.36-.07 0 0 .12-.19.09 0 .15.13 0 .22 0 .22.25-.35.51-.05.88.09.3.32.4.38.7-.14.07-.25-.13-.25-.13A.31.31 0 0021 25h-.21c-.1 0 .23.15.08.25a1.43 1.43 0 01-.24-.19c0 .13.1.29.12.45-.13 0-.15-.15-.22-.22a.7.7 0 00.14.52l.11-.06c0 .06-.17 0-.19-.1s.13-.14.2-.12v.11c.43.07.07-.4.16-.56l.27.17-.15-.25c.09 0 .27 0 .28.11.19-.11-.07-.16.12-.24h.05l-.06-.17c.06 0 .22 0 .16.11.23-.23-.14-.46.11-.52 0-.38-.21-.08-.44-.38l.57-.11-.22-.06a.1.1 0 01.13-.09c-.15-.15-.11 0-.25-.08.23-.16 0-.48.31-.51-.17-.07-.13.17-.25 0 .39 0-.07-.22.11-.38.21 0 .1.21.28 0-.34-.1.08-.32 0-.47-.27 0-.12-.29-.23-.52.09 0 .12-.45.2-.67H22c-.28 0-.26-.24-.33-.39a.33.33 0 01.31.08v-.15a.22.22 0 01-.18-.16h.2c0-.2-.29-.37-.2-.65-.19 0-.49.28-.66 0 .1 0 .27-.07.33 0s-.1-.07-.07-.12l.19.08c.06-.13-.15 0-.15-.14s.09-.08.21-.09 0 .09 0 .12a.4.4 0 01.18-.31h-.23c-.03 0 .16-.1.22-.23-.11 0 0-.18-.25-.14 0-.06.1-.09.15-.12-.12-.09-.12-.47-.33-.31-.28-.29 0-.72-.18-1h.07c-.12-.18-.14-.43-.32-.54 0 0 .1-.16.19-.16-.09-.13-.17-.13-.1-.37.16.12.1-.08.12.13 0-.21.13-.28-.12-.44.2 0 .2-.2.13-.28l-.11.16a.71.71 0 01-.06-.28h.26c.2-.47-.67-.6-.24-1-.2-.07-.07.24-.29.19 0-.19.29-.46.28-.51.08-.28-.41-.16-.37-.44a.31.31 0 01-.43 0c0-.19.31-.3.41-.2v.07c.05.05.1.12.18 0h-.09c.07-.11 0-.36.16-.33-.11-.12-.15 0-.18.08.08-.26-.07-.36 0-.61 0 0-.14.1-.14.06 0-.37-.2-.12-.29-.35.12-.16.33 0 .18-.23.07-.16.23-.07.31 0-.21-.18 0-.41 0-.54l.09.1a.31.31 0 01-.07-.17l-.16.09c0-.07 0-.12.08-.13-.12-.05-.28.09-.46 0 .08-.1-.12-.26.11-.31 0 .28.23-.06.29.16a.15.15 0 010-.16h.06c.18-.28-.28-.09-.3-.36.14 0 .24-.08.21-.13 0 .12-.21.08-.32 0 .09-.19-.1-.19-.09-.29v.11c-.14 0-.13-.12-.18-.24.11 0 .08.11.12.06-.24-.13.23-.33.06-.52.09-.1.25 0 .31-.1-.19-.21.17-.25 0-.47-.18.07-.14.09-.31-.07l.13.37-.33-.29c0 .11.12.24.09.3-.15-.1-.11-.1-.25 0 .26-.17-.17-.31 0-.5h.44c.19-.27-.23-.48-.11-.83l-.09.11c-.17 0 0-.21-.08-.33.15 0 .2 0 .3-.09-.12 0 0-.25-.27-.3l.2-.14c.1-.27-.38-.35-.31-.62.15.1.27 0 .37.18 0-.09 0-.16-.06-.18.1 0-.16-.27 0-.33-.05 0-.21-.08-.18-.18a.15.15 0 01.08 0c-.08 0-.07-.17-.25-.11.5-.18.14-.78.6-.89a2.28 2.28 0 01.1-.6s.07 0 0 .06c.22-.17-.34-.31-.07-.5.28 0 .05.19.17.15.46.18.08-.33.43-.34v.05c.21 0 0-.38.18-.54a.11.11 0 000 .05.94.94 0 01.12-.77c.1.18 0 .14.18.24.05-.09-.25-.19-.15-.38a.78.78 0 01.45.12l-.13.14c.26.12.17-.17.27-.2l.07.09c.17-.22 0-.45.24-.62h-.08c-.05-.33.21 0 .21-.23l.22.21a1.81 1.81 0 01.31-.6 2 2 0 01-.17.65c.09-.06.29-.21.26-.37 0 0 0 .14-.09.12a.54.54 0 01.3-.55c.21.52.58-.1.86.28.28-.3.68-.08 1-.09-.11-.45.1 0 .11-.46h.14a1.67 1.67 0 01.21.33c0 .14-.1.08-.11.18s0 .21.06.34c0-.16.13-.21.18-.11a2.13 2.13 0 000-.25c.31-.12 0 .42.29.31l-.04.02c.12 0 .27.21.62.09 0 0-.11.15-.17.13.13.2.71.4.58.76h-.11c.05.05.23 0 .15.15s-.11 0-.11 0 .24.11.19.22h-.14c-.08.36.42.47.52.78a.56.56 0 00-.48.41H27c-.06.36.21.67.23 1.09-.4.12-.41.7-.78.91.08 0 .22.14.21.22s.05.33-.19.15c-.28-.12-.31.07-.41.16l.29.28c-.34 0-.46.14-.59.33s-.26.37-.49.21c0 .13-.12.19-.15.32l-.12-.2a1.84 1.84 0 00-.64.3v-.17c-.17.06 0 .66-.12.74L24.1 9c-.31.13-.73 0-1 .36V9.2c-.15.05-.64 0-.46.38-.09-.27-.34.07-.49.24v-.21c-.08.3-.06.37-.26.5s-.08-.16 0-.12c-.2-.07-.09.23-.32.16l.05-.14c-.18 0-.15.09-.22.26s-.34 0-.4-.17c0 .12-.07.29-.19.26a.22.22 0 010-.15c-.31-.09-.4.32-.63.14a.19.19 0 000-.12h.41c0-.19-.22-.19-.12-.48-.12.17-.34.52-.53.45a.33.33 0 010-.06.09.09 0 00-.11 0 .32.32 0 00-.16 0c0-.16-.22-.07-.31-.07 0 .21-.1.19 0 .35h.08c.08 0 0 0 0 0h.23c-.06.11-.13.21-.25.1 0 .14-.08.29-.1.36-.16-.29-.42-.43-.46-.61-.28.14-.67.11-.85.5-.08.05-.1-.11-.13-.18s.11 0 .13-.09c-.16.11-.48 0-.53.31-.21-.13.12-.25-.17-.21v-.08c-.53-.47-1 .65-1.57 0 .05 0 .07.06.07.11-.71-.31-1.52.09-2.24-.35-.2-.09-.23.09-.37.21v-.22l-.2.13c-.31.18-.54-.57-.94-.19l.05.15c-.14 0-.44.1-.43-.07 0 0 0 .16-.1.08v-.11l-.33.23c-.28-.06 0-.48-.42-.45-.15.07-.38.4-.31.47a.21.21 0 01.19.17l-.12.08c0 .35 0 .71.33.91l.18-.24.09.16h-.17c.11.15.16 0 .22-.1a.3.3 0 00.1.18l.17-.36c0 .14-.06.28.08.35.08-.16-.12-.3 0-.42.12.16.09.29.2.15a.16.16 0 010 .18c.1-.11.27 0 .32-.24.11.19.36-.06.35.27 0-.08.19-.26.29-.27-.19.39.37 0 .31.46.14-.36.48-.14.74-.32 0 0-.05.08-.07.06s.17.15.25.22c0-.29.25-.34.38-.51.15.29-.13.33-.1.61 0-.24.31-.21.27-.42.12.19.11.1.15.35.06-.37.13-.05.25-.27.17.2 0 .35.24.25.09.15-.1.24-.1.24zm5.09-.6h-.1zm.42-.06h-.18v-.15s.11.13.18.18zm-1-1.34h.1-.11a.31.31 0 01-.03 0zm-.12.31v-.06zm1.95 8.23z"/><path class="cls-1" d="M26.41 9.77l-.03-.04-.01.06.04-.02zM21 20.89h-.05zm.07.96L21 22a.39.39 0 00.07-.15zm-.07.73h.09zm-2.23-11.79c-.06-.1-.04-.05 0 0zm1.07 3.54a.54.54 0 01-.12-.09c0 .07 0 .12.12.09zm-1.23-7.76v.01l.01-.03-.01.02zm1.08 7.51a.13.13 0 000 .16c.03-.05.04-.12 0-.16zm.69 11.44zm.01.05zm.02.13v-.09a.06.06 0 000 .09zm.35-1h-.07zm.04-.28c0 .07-.2.13-.17.23h.06c-.1-.04.22-.14.11-.23zm1.1-1.11l-.09.26c.09 0 .2-.1.21 0 .28-.29-.19.08-.12-.26zm.1-.82c0 .14.12 0 .17 0s-.07-.1-.17 0zm-.79-5.75h.19c-.05-.13-.07-.01-.19 0zM20 15.89l-.09.13.18.01-.09-.14zm1.19-.93l.03.04-.1-.16.07.12zm-.53-9.08h-.24c.03.04.28.12.24 0zM22.5 2.7c.11.06.24.06.22-.07-.08.04-.2.02-.22.07zm3.52 4.93l-.01-.1-.04.13.05-.03zM12.56 24.85c.08 0 .21-.06.14-.14a1.14 1.14 0 00-.25.06.44.44 0 01.11.08zm-.22-.85a.44.44 0 00-.37.47c.18-.2.17-.11.43-.29a.14.14 0 01.06.24c.08 0 .08.14.23.09.08-.24-.16-.43-.42-.36-.03-.03.04-.07.07-.15zM4.27 35.1l.07-.1a.16.16 0 00-.07.1zm-3.05 8.48v-.11c0-.01-.03.12 0 .11zm-.55 1.47L.7 45s-.04 0-.03.05zm3.6-9.95l-.17.18c.06.05.1-.08.17-.18zm6.63-10.27a.36.36 0 000-.11l-.06.08zm-5.02 6.65v-.06l-.06-.1zm1.34-2.7s.14.17.21.24a.24.24 0 01-.06-.2.27.27 0 00-.15-.04zm2.63-4.09v-.08zm-5 8.7zm11.47-6.83s-.02-.01 0 0zm-3.18-1.8v-.12zM.07 47.89c-.02-.09-.01-.05 0 0zm19.76 9.22c-.36.07.2-.51-.28-.35.09.03-.09.52.28.35zm-9-32.26l-.07.07a.22.22 0 00.07-.07zm8.72 31.91zM1.57 54.63a.36.36 0 000-.11s.01.04 0 .11zM.48 49.62v.12a1 1 0 000-.12zm3.06 6.89c0 .05 0 .1.13.13s-.09-.05-.13-.13zM5.8 58a.14.14 0 010-.06h-.08zM24 28.21a.58.58 0 010-.21c0 .16-.43.12 0 .21z"/><path class="cls-1" d="M10.82 24.74v.11l.05-.05s-.02-.05-.05-.06zM4.71 55.32c.08.09.18.16.27.25a3.32 3.32 0 00-.27-.25zM26 40.68v-.1a.12.12 0 000 .1zM5.9 56.18a.53.53 0 00.1.24h.07a1.73 1.73 0 01-.17-.24z"/><path class="cls-1" d="M21.19 27.88c.38.1.24-.22.36-.36.47 0 .17.25.29.42.3 0 .58-.2.79-.14v.12c.35-.15.9.19 1.31 0A.16.16 0 0124 28a.75.75 0 010-.38c.17 0 .36-.1.38.09-.1 0-.13 0-.19.08h.2c.1.29-.27 0-.31.22a2.77 2.77 0 011.08 0c0 .26-.65-.06-.34.24L24.4 28c.23.47-.24-.08 0 .4.53.2.64 0 1.17.22.16-.11 0-.22.16-.33.83-.07.47.77 1.12.57.18-.14.31-.44.68-.18l-.21.25c.53.15.4-.33.91 0-.12.09-.44 0-.36.05.3.3.29-.1.56 0v.26a.63.63 0 00.41 0 2.13 2.13 0 01.39 0 .51.51 0 010 .18.41.41 0 00-.26.11.36.36 0 010 .21v.16l-.09.3a11.21 11.21 0 01-.45 1.16l.15.34c0 .06-.13.1-.15 0-.15.27.13 0 .18.2s-.17.2-.21.08A3.38 3.38 0 0128 34v-.12c-.2.4.31.59 0 .93v-.09a9 9 0 01-1 2.56c.27.22-.4.86 0 1-.36.46-.4.28-.76 1-.08.19.17.37.14.62l-.22-.06.13.4-.32.09v.24c0-.09.15-.16.21-.13 0 .39-.42.81-.54.78l-.09.89c-.08 0-.07-.2-.09-.33.08.52-.25 0-.18.48.06 0 .12.07.16.1a1.86 1.86 0 00-.43 1l-.12-.11c-.26.59-.39 1.3-.64 2 .16-.22.39-.07.34.14h-.25c.09.18.16-.18.23.15-.12.24-.32.07-.34-.1v.34c-.07 0-.08-.1-.16-.15.1.18-.43.44-.26.72h-.07c-.26.67-.31 1-.52 1.56.19.09.06.28.16.51a8.05 8.05 0 00-.76 1.23c-.05.38.12.17.17.37-.19-.05-.39.42-.4.12a12 12 0 00-.52 1.49c.11 0 .19-.1.22 0s-.22.25-.29.19c-.16.92-1.47 1.45-1.53 2.2-.07.24-.17.46-.25.69s0-.24-.24-.12c-.22.79-.79.87-1.07 1.45-.7-.08-1.24 1.11-2 1.11l.1.1c-.08.19-.21 0-.32.06.06.08.21 0 .15.13-1.13.85-2.66.78-4 .66-.51-.06-.32.69-1 .33l.21-.23c-1.08.23-2.13-.29-3.19-.37.07 0 .1-.1.2-.07-.16-.23-.77-.26-.83-.13-.14-.08 0-.14-.05-.24s-.61 0-.64-.21h.12c-.16 0-.59-.3-.56-.05-.31-.25-.7-.28-.92-.52-.29.09-.49-.46-.73-.22.2-.25-.37-.62-.67-.65.12 0-.09-.21.08-.26-.2-.18-.43-.3-.51-.14-.06-.62-.94-.53-.68-1.09a4.9 4.9 0 01-1.33-2.05c.32-.07.3.77.63.59a3.09 3.09 0 01-.85-1.6c0-.19.16.08.24.12a16 16 0 01-.37-2s.06.07.09.13c0-.12 0-.29-.11-.27l.05.12c-.23.21-.49-.51-.59-.54.43.23.12-.65.67-.28 0-.09-.1-.2-.2-.18 0-.13.1-.16.21 0-.06-.47-.23-.31-.2-.73.08 0 .1.09.18.14a.93.93 0 01-.15-.8s.1 0 .09.09c0-.61-.25-1.1 0-1.75.28.25.14-.22.42-.2v-.38l-.16.12c.07-.31-.08-.63.06-.89l.07.26.06-.61-.17.32c-.08-.35-.35 0-.19-.44 0 .09.06-.32.26-.46a.67.67 0 010-.57c.11-.05.3.11.36.08-.19-.2.1-.74-.08-1a.22.22 0 00.21.1l-.17-.17c.1-.13.13-.14.24-.09.16-.42-.38 0-.09-.43v.13c.22-.49.19-1 .44-1.46.31 0-.07.42.21.35a9.08 9.08 0 01.51-2.1l-.08.1c-.33-.24.38-.4.35-.79 0 .09.16.19.13.16a7.66 7.66 0 00.5-1.62v.12a7.85 7.85 0 00.55-.89c0-.12 0-.27-.14-.24.93-.57.52-1.73 1.33-2.25v.18l.24-.67c-.18 0-.13 0-.32.11a.69.69 0 010-.5c0 .34.25.13.4 0-.06 0-.09-.07-.15-.09.45-.19-.28-.21.14-.57L7 31a1.4 1.4 0 01.13-.57c.22 0 0 .22.13.31.12-.26-.08-.68.22-.81 0 .13-.09.28-.09.42.33-.14.3-.2.43-.37l.32-.39-.14.07c-.3-.55.25-.69.17-1.27.07.56.13.15.31.29.12-.08.27-.22.3-.14-.06-.28.3-.27.21-.68.07 0 .12-.21.26-.08.08-.29-.15 0-.22-.06 0-.52.76-.82.75-1.56.14-.55 0-.75.17-1.26.19-.07.13.27.13.27a1.21 1.21 0 00.47-.54c0 .07.08.08.19.09s-.07-.29.2-.34v.34a1.38 1.38 0 01.41-.49c.08.11-.08.21-.1.32.16-.14.51-.22.61-.4a.8.8 0 00-.16-.08c.1 0 0 .18 0 .21s-.29 0-.33-.1l.16-.08c-.11-.2-.32-.15-.48 0s-.26.36-.4.46a2.05 2.05 0 01-.07-.34 1.8 1.8 0 00-.12.44c-.11 0-.28-.08-.18-.25-.31.1-.09.25-.37.33l-.14.26c0-.08-.21-.09-.08-.2-.44.32-.22.8-.51.84v-.05c-.22.65.17.17.18.73h-.65l.17.16c0 .06-.11.17-.18.11 0 .29.1 0 .17.2-.34.2-.33.85-.69.75.1.18.27-.22.21.15-.39-.09-.12.39-.42.57-.14-.17.09-.38-.21-.19.22.32-.33.48-.39.74.24.13-.15.54-.26.95-.07-.06-.5.64-.77.95.21.19 0 .53-.11.82a.32.32 0 01-.23-.36l-.12.25a.43.43 0 010 .37l-.15-.16c-.16.34-.12.78-.46 1.14.16.11.65-.09.53.41-.1 0-.27-.09-.24-.23 0 0 0 .18-.08.23l-.06-.25c-.17.15.08.16 0 .31-.13-.07-.15.07-.24 0s.12-.11.1-.19a.86.86 0 01-.43.35.17.17 0 01.13.23c-.16.33-.22 0-.39.19.06.13-.15.29 0 .4 0 .09-.15.06-.22.08 0 .21-.38.82-.07.72-.08.66-.68 1.13-.85 1.74h-.07a4.6 4.6 0 00-.24 1.09c0 .11-.22.2-.29.12a1 1 0 01-.25.69c0-.32-.15.05 0-.31-.2.32-.34.37-.29.81-.13-.19-.32.19-.32.38l.21-.21a2.75 2.75 0 01-.18.53l-.21-.17c-.53.65.09 1.48-.55 1.92.12.24.23-.38.38-.15-.13.33-.55.62-.58.73-.24.45.27.51.07 1 .1 0 .35-.06.36.32s-.45.35-.48.12c0-.08 0-.12.08-.11s0-.27-.14-.15l.07.06c-.12.16-.2.63-.32.49 0 .28.12.14.2 0A10 10 0 00.7 45c.06-.07.18-.12.17 0-.22.66.11.33.08.79-.17.24-.31-.14-.26.34-.13.27-.24 0-.3-.1.11.45-.21.79-.27 1v-.24a1.14 1.14 0 010 .37L.27 47c0 .13-.06.24-.13.23.1.15.3-.08.44.21-.1.17.06.54-.18.59.12-.56-.24.05-.25-.43a.58.58 0 010 .34l-.06-.06c-.25.54.25.26.23.83-.13-.08-.26.12-.23.22 0-.23.23-.11.32.1-.09.36.09.39.09.58v-.22c.13.07.12.25.17.49-.1 0-.08-.22-.12-.13.25.26-.19.65 0 1-.06.2-.25.06-.28.23.24.41-.11.52.14 1 .14-.18.1-.19.34.09-.09-.24-.21-.48-.28-.73a3.65 3.65 0 00.35.43 3.15 3.15 0 01-.2-.59c.18.2.13.19.26 0-.22.36.29.57.19 1l-.43.11c0 .61.51.88.71 1.58v-.25c.19 0 .21.4.39.56-.14.06-.11.21-.14.35.08-.06.28.47.57.35v.38c.3.51.74.25 1.08.67-.24 0-.14.26-.48.06.12.15.24.27.31.2 0 .15.51.21.54.43.11 0 .23-.11.38 0s0 .06 0 .06.32.12.28-.12c.15.74 1.28.84 1.51 1.4.36.16.82.29 1.15.44 0 0 0 .06-.09 0 .41.32.44-.28.9.06.18.33-.32 0-.19.17-.09.49.66.17.94.54h-.1c.23.25.74 0 1.18.16a.06.06 0 000 .07 4.05 4.05 0 011.42-.13c-.16.17-.21.08-.15.28.2 0 0-.32.38-.33.12.12.4.24.42.45h-.38c.17.28.5 0 .7.09v.12c.61 0 .61-.29 1.24-.31l-.07-.08c.33-.31.3.15.63-.09l.13.28c.23-.1.76-.38 1.14-.54a2.4 2.4 0 01-.92.63c.23 0 .78-.13.87-.31-.09 0-.19.14-.29.12a1.84 1.84 0 011-.6c0 .28.34.22.69.12a1.43 1.43 0 01.95-.17c.63-.56 1.47-.77 2.19-1.43-.55-.11.2-.2-.16-.5.14-.17.21-.22.24-.21.23-.08.44-.18.66-.28s-.07.22 0 .28c.36-.33.28 0 .6-.17-.17-.06-.07-.29.16-.46l-.41.16c.24-.67.68-.19.91-.89v.26c.15-.33.77-1 .63-1.54.08 0 .23 0 .18.13.5-.67.58-1.77 1.07-2.22l.07.11c0-.15-.07-.33.12-.45 0 0 .07.11.11.05a1 1 0 01.14-.6v.21c.47-.66.23-1.23.41-1.85.3.13.65-.4.81-.66a10 10 0 00.5-2.35c.52-.36.76-1.6 1.23-2.31-.1.1-.24-.11-.22-.26s0-.58.24-.46v.07c.33 0 .39-.45.49-.74l-.36-.18c.82-.6.47-2.11 1.1-2.38v-.67l.2.08a7.19 7.19 0 00.46-1.44l.1.18c.12-.37-.45-.63-.37-1h.34c.17-.64.62-1.23.51-1.94a.17.17 0 01.11.17c.09-.3.51-1.12.06-1.12.28.06.2-.66.16-1l.19.11a1.09 1.09 0 01-.23-.82c.05-.09.18 0 .1.07.18-.3-.14-.3.06-.67l.1.18c.09-.33 0-.32-.09-.54s.19-.62.38-.63a.4.4 0 01-.11-.48c.07 0 .1.07.11.11a1.26 1.26 0 00.11-.68 1.2 1.2 0 01.15-.73.25.25 0 00.15-.11c-.07.32-.13.61-.18.82s-.06.22-.06.2c.19 0 .3-.32.5 0a4.07 4.07 0 01-.11-.84 1.94 1.94 0 01.08-.9.48.48 0 01.09-.11.7.7 0 000-.33l.06-.17a1.89 1.89 0 00-.31-.1c.09-.14-.65-.23-.95-.31-.09.19-.43.08-.18.32h.35l.69.14c-.34 0-.6.07-.8-.1-.23.09-.43.19-.52.23-.23-.35-.68-.62-.7-.81-.57 0-1.3-.22-1.73.09-.17 0-.15-.15-.2-.22h.27c-.33 0-.93-.17-1.07.08-.36-.21.28-.19-.27-.27l.1-.07c-1-.67-1.88.3-2.92-.52.07.05.11.07.11.12-1.28-.55-2.8-.4-4-1.09-.36-.16-.44 0-.7.08v-.24l-.45.17c-.59.06-.83-.76-1.61-.57v.17c-.24-.09-.82-.1-.74-.26 0 0-.11.14-.19 0v-.04l-.66.06c-.46-.19.18-.44-.51-.63-.28 0-.82.17-.74.27s.25.13.23.25h-.25c-.12.33-.39.63.14 1l.46-.12.09.2-.34-.07c.16.2.31.09.47 0a.32.32 0 00.13.22l.47-.24c0 .15-.24.23 0 .36.22-.11-.12-.34.22-.37.16.2.07.32.33.24 0 .09 0 .14-.15.15.23-.06.55.08.7-.07.16.23.7.1.6.42a1.17 1.17 0 01.61-.14c-.43.31.69.18.51.57.33-.28.95.06 1.44 0 0 0-.1.07-.13 0 .24.08.29.21.44.31.1-.28.51-.26.76-.38.24.34-.27.29-.23.58 0-.24.59-.11.53-.33.2.23.18.13.25.39.12-.34.24 0 .48-.18.3.25 0 .36.41.33.2.21-.17.26-.17.26zm8.08 1.45zm-.08.44a.9.9 0 000-.19h.14c-.02 0-.07.13-.14.19zm1.11-2c.23 0 .27.07.25.11l-.37-.06h-.05a.51.51 0 01.17-.01z"/><path class="cls-1" d="M29.75 28h-.09l.08.07h.11zm-25.4 7zm21.81 4.84l.05.01-.02-.08-.03.07zM6.92 31.56h.07zM7.8 30l.18-.2a1.38 1.38 0 00-.18.2zm.73-1.25s0-.05-.07-.07zM1.88 49.46v.06c0 .06.04.03 0-.06zM2.16 43c0 .08 0 .16.06.23.03-.16.06-.23-.06-.23zm2.52 12.29l.03.03-.03-.03z"/><path class="cls-1" d="M2.15 43.48a.48.48 0 00.07-.3.63.63 0 00-.07.3zm9.51-18.94h.05zm.05-.03s.01-.02 0 0zm.16-.06h-.11s.08.05.11 0zm-1.37.68l.05.06a.13.13 0 00-.05-.06zm-.27.42c.08-.1.3-.16.36-.31 0 .07-.4.13-.36.31zm-1.92 1.61l.27-.4c-.11 0-.26.09-.18-.11-.49.42.22-.03-.09.51zm-.78 1.25c.08-.24-.11-.05-.14-.08-.01.18-.01.22.14.08zM2.82 38l-.17-.1c-.04.2.07.03.17.1zm.24 2.25l.17-.14-.14-.14-.03.28zm-1.66.77v-.1l-.02.35.02-.25zM5.28 58l.07-.23c-.15-.07-.35.14-.07.23zm7.81 1.68a.35.35 0 00.46.06c-.19-.01-.37-.1-.46-.06zm14.24-17.32l.03.18.03-.3-.06.12zm-10.61-7.22c-.07 0-.2.06-.17.09l.25-.06zm-.38.35a1.61 1.61 0 00.56-.09 2.27 2.27 0 00-.43 0s.06-.08.15-.11c-.07 0 0-.06-.12 0s-.16.15 0 .16zm-.74 2.72zm-.99.86V39v.07zm-.11-.3s.01-.02 0 0zm1.1-.56h-.09c.07.04.06.01.09 0zm1.4-2.4h-.07zm-1.28 1.66l-.09-.05zm.09-.53a2 2 0 00.29.07.36.36 0 01-.1-.01zm.39-.87zm-.67 1.74h-.07zm3.16-10.25zm1.26-.19v.01l.11.06-.11-.07zm-4.67 8.78v-.09c0-.06 0-.13-.07-.23l.06.21v.12s.02.01.01-.01zm1.72-.32zm-1.81.02l-.01-.01.01.01zm-.92 2.47l-.1.06zm-.22.68zm-.05-.77s0-.01 0 0zm0-.23zm4.06-8.92l.19.06c-.14-.06-.16-.14-.19-.06zm-1.15 6.74H17zm-4.65 2.64a.88.88 0 01.05-.15.27.27 0 00-.05.15zm4.14-5.91s-.02-.01 0 0zm-4.06 5.3l.16-.06h-.05z"/><path class="cls-1" d="M18 28.41c0 .07.23.16.37.24s-.21 0-.35-.08c0 .09.25.24.22.28l-.11-.05c.17.15-.07.17.14.36h-.06l.34.15s.13.14 0 .08c0 0-.05-.06-.09-.09l.05.07c-.25-.08-.06-.09-.23-.17 0 .1.2.27.11.29-.24-.1 0-.15-.26-.19h.13c-.39-.12 0 0-.37-.17-.11.07.06.17-.06.24.12.09.2.09.31.17.16.26-.63-.16-.38.1.14.1.42.25.23.26l-.24-.16c-.08.09.34.24.12.26s-.05-.12-.09-.12c-.24 0 .12.12.1.17l-.24-.1c0 .13.09.33.08.47-.07 0-.13-.1-.21-.1 0 .2-.19.3-.39.38l.17.15s-.1 0-.14-.05.13.07.19.13-.13 0-.18-.06c.12.18.22.46 0 .46l-.05-.05c-.12.05.36.29.14.28-.17.13-.09.42-.45.41.27.16-.21.11.18.32-.25 0-.31-.06-.51 0 0 0 .22.17.24.24l-.21-.1.19.17-.27-.09v.08h.17c.06 0-.23.09-.34 0l.1.25a.36.36 0 01-.14-.13c.17.19-.23-.09-.07.08a.83.83 0 01.16.09c-.15 0-.19.07-.17.16L16 33c-.1.1-.06.29-.12.42.09 0 .33.12.33.17l-.21-.11c.12.09.1 0 .24.13-.05 0-.27-.08-.32-.15v.1c-.07 0-.09-.06-.17-.1.12.09-.28 0-.06.15h-.07c-.06.13 0 .23-.06.35.19.09.12.12.26.22-.1.06-.29.07-.32.18s.15.09.25.17c-.17-.09-.17 0-.28-.13a1.13 1.13 0 00.1.22c.07 0 .1.06.14.12s-.07 0-.14-.11c.08.14-.06.08-.15 0s-.15-.23-.09 0a.74.74 0 010 .21s0-.15-.06-.27c0 .16 0 .15-.05.12a.36.36 0 00-.38.12.34.34 0 00-.55 0c-.14.13-.21.28-.41.22L14 35c.06.13-.09 0-.14 0s.12 0 .15.12c-.15.38-.67.45-1 .74-.11.11.54.43.18.42l-.19-.17c.12.4-.29.53-.16.89 0 0-.11-.06-.1-.09-.19 0-.09.21.05.26h-.21c-.08 0 .17.22 0 .19h-.06c-.06 0-.07.18.14.2-.12.06 0 .21-.11.32.22.1-.16.23.17.28-.34 0-.31.27-.16.33-.1 0-.11.1-.25.08s.06.2.23.14c-.42.33.33.25-.19.56.2.23.37.38.49.53-.29.24-.09-.22-.4 0 .19.15.45 0 .47.27s-.12.1-.17.12c.19.08.21.37.46.34h-.08s0 .1.12 0c.08-.22.35-.31.41-.42-.27.36.09.17-.24.63a.38.38 0 00.13-.16s0 .09-.08.19c.15 0 .18-.17.27-.17a.67.67 0 01-.09.14c.11-.12.2-.24.27-.18s0 .1-.06.1c.18 0 .37-.43.49-.34-.1.37 0 .1 0 .4l.11-.12v-.13c.09 0 .16-.27.23-.21l-.07.16.16-.14-.09-.07c.07-.2 0-.39.08-.35s.06 0 .12.12c0-.12 0-.24.1-.2s0 .34.06.39c0-.27.17-.19.14-.46a1.2 1.2 0 00.06.24v-.21s.07.06.1.18c.12 0-.16-.32 0-.26v.09c.15 0 .15-.29.29-.3.2.2 0 .14.12.31.15-.19.11-.6.24-.65-.3-.26.22 0 .12-.15 0 0 .17.15.13.12.12 0 .06-.24 0-.45l.07.07c.11 0 .14-.12.21-.16s-.05-.09-.19-.14c.63.06-.11-.48.4-.47 0 0 .06.08.07.06v-.18a1.29 1.29 0 00-.25 0c-.09 0-.15-.12-.14-.15a.45.45 0 00.37.08h-.16c.32 0-.33-.11-.1-.16h.08s-.14-.11-.1-.15c.2 0 .08.07.24.11 0-.07-.34-.21-.14-.22s.05.08.1.12c.24 0 .18 0 .23-.07l.13-.09h-.07c-.5-.17-.06-.18-.39-.34.31.15.18 0 .41.08.06 0 .14-.06.2 0-.18-.07.15-.08-.11-.18.08 0 0-.05.2 0-.06-.08-.13 0-.22 0-.25-.12.31-.26 0-.41-.16-.13-.4-.13-.53-.23a.42.42 0 01.26 0c.1-.07.08-.12 0-.17a.34.34 0 00.19 0s-.27 0-.17-.07a1.48 1.48 0 01.3 0c-.08-.05-.23-.08-.3-.12a.44.44 0 01.28 0 .37.37 0 00-.35-.13l-.06.06s.17-.05.21 0-.06.1-.13.11h-.05c-.41.14.1.15.09.24h-.31.27a.54.54 0 01-.3 0c-.15.08.11 0 0 .1h-.28.1-.18c-.17.1.25.12 0 .17.11.12.23 0 .5.09l-.57.08h.36c-.21.06.09.19-.28.18.18 0 .14-.06.26 0-.4 0 .06.09-.13.13s-.09-.08-.27 0c.33.07-.09.1 0 .15.27 0 .09.12.16.22-.08 0-.17.11-.29.15.26.09.18.15.22.22a.74.74 0 01-.27-.13v.05c.08 0 .13.07.14.11l-.19-.08c0 .06.18.21 0 .24.17.08.52.13.6.28a1.12 1.12 0 01-.29-.14s.07.06 0 .06l-.15-.11c-.08 0 .13.08.1.11s-.1 0-.21-.08.07 0 0 0a.43.43 0 01-.25 0c.08 0 .18.08.19.11s-.17-.05-.26-.05c.09.06 0 .05.17.15 0 0-.1 0-.16-.05s-.05.15.17.24c.12.22-.24.15-.23.29h-.06c0 .1-.05.15 0 .29s-.14 0-.2-.11.07.13-.06.09-.08-.08 0-.09-.15-.11 0 .09c-.11-.17-.17-.18-.15-.12l.1.09-.12-.22c-.1-.12 0 0 0 .13s0 .24-.08 0c0 .21.06.11.11.34l-.16-.39v.37a1.41 1.41 0 010 .54c-.05 0-.05-.45 0-.55s0 0 0 .06a.69.69 0 000-.22v.11c0-.1-.06-.07 0-.27a.51.51 0 000 .25c0-.15-.06 0-.08-.08a1.43 1.43 0 010 .21c0-.12-.07.26-.14.34 0-.18.12-.47 0-.29a3.09 3.09 0 01.12-.46c-.09.27 0-.15 0-.2l.05-.11v.06l-.09.27a.8.8 0 010-.16 7.45 7.45 0 01-.27.7s-.1.12 0-.18c0 .13.16-.36.2-.41l.05-.09c.13-.33-.2.4-.23.37l.17-.33a5.15 5.15 0 01-.28.46c.07-.16-.09.09-.09.06v.08c-.13.18-.13.14-.18.17.09-.14.08-.07.12-.14-.25.27.19-.38 0-.21.08-.12.25-.3.3-.39-.18.18.19-.22 0-.08a2.24 2.24 0 01-.33.3l.14-.07a2.09 2.09 0 01-.28.24s.13-.07.1 0a1.79 1.79 0 00-.26.28c.27-.33-.18.08 0-.16l.47-.44c.21-.2-.25.14-.13 0l-.08.07c-.19.12 0 0-.11 0l.32-.2c-.12.06 0 0-.31.1l.21-.12c.09-.07-.45.1-.38 0s.28-.08.4-.08h-.08c.1 0-.2 0 0-.05h-.21.07a1.11 1.11 0 00-.27 0c.49-.08 0-.25.42-.25a.71.71 0 010-.24h.05c.16 0-.39-.18-.21-.23s.11.09.21.09c.46.15 0-.14.26-.1.18 0-.12-.18 0-.25a.1.1 0 00.06 0 .55.55 0 01-.24-.4.6.6 0 00.25.16s-.28-.13-.3-.23a1.64 1.64 0 01.4.12v.07c.25.1 0-.08.1-.09l.09.06c0-.1-.23-.26-.14-.34h-.09c-.2-.22.17.05 0-.13l.25.16a1 1 0 01-.14-.38 3.26 3.26 0 01.26.42.17.17 0 000-.22s.05.09 0 .07c-.16-.18-.2-.3-.14-.37.42.39.25-.06.61.21-.07-.25.23-.07.19-.1-.2-.38 0 0-.18-.42a.67.67 0 01.07.21l.05.55c0-.17 0-.23.14-.17a1 1 0 01-.14-.22c.17-.23.25.41.44.15v.15c.1-.08.46-.08.4-.46 0 0 .12.14.09.19.32-.07.25-.65.51-.65l.07.1c0-.07-.11-.22 0-.19s.08.09.09.07-.09-.24 0-.26l.07.13c.13-.09.12-.23.06-.37s-.16-.2-.16-.28a.53.53 0 00.52 0c.12-.15-.11-.41-.15-.62.37.06.3-.26.55-.32a.53.53 0 01-.24-.16c.07 0-.16-.2.11-.06.28.1.24 0 .28-.06l-.35-.19c.59.1 0-.49.51-.34-.37-.19-.31-.27-.37-.27l.19.1a.36.36 0 00.16-.27l.12.09c.05-.06-.5-.35-.48-.42l.29.11c.06-.12.37-.12.17-.37 0 0 .12.06.12.09s.3-.13-.1-.3c.26.12.09-.12 0-.24l.18.11c-.21-.18-.27-.21-.3-.32s.16 0 .1.06c.13 0-.16-.14 0-.17l.11.09c0-.06 0-.08-.15-.19s.11-.09.28 0c-.1-.06-.22-.16-.15-.18a.21.21 0 01.11.08c.18 0-.14-.27.08-.25h.12c0 .09-.09.15-.1.14.18.08.24 0 .45.2-.1-.12-.34-.35-.23-.38L19 31v-.06c0-.06.06 0 .08 0s.11 0 .14-.07c-.2-.09-.14-.12-.32-.15a.16.16 0 010 .09c-.08-.07-.15-.14 0-.12l-.28-.2c.28.08.47.06.64.13-.06-.16.05-.28-.28-.52 0-.05.12 0 .18 0s0 .05.06.09.05-.2-.19-.33c.15 0 .21.15.22 0l.07.05c.49 0-.48-.64.14-.61a.22.22 0 01-.1 0c.35-.14 0-.63.53-.7.11 0-.05-.13-.15-.23l.21.09-.2-.19c-.12-.19.59.06.33-.24h-.14c.05 0 0-.19.15-.1 0 0-.14-.09-.06-.07l.11.05-.14-.21c.13-.05.42.22.51.1a.82.82 0 00-.33-.31h-.19v-.08a2.06 2.06 0 00-.89-.34l.16.17-.17-.05v-.07c-.16 0 0 .05 0 .12a.62.62 0 00-.18-.05l.26.22c-.12-.05-.22-.15-.32-.13.13.1.3.1.36.2-.16 0-.27-.1-.17 0a.29.29 0 01-.16-.1c.08.09 0 .13.15.23-.2 0 0 .15-.32 0 .07.05.2.18.2.23-.33-.24-.09.12-.46-.08.29.2.06.24.19.41 0 0-.07-.05 0-.05h-.23a1.68 1.68 0 01.43.36c-.28-.06-.29-.18-.55-.28.22.1.17.2.36.27a1 1 0 01-.33-.08c.33.17 0 .07.22.2-.19 0-.32-.13-.25 0a.39.39 0 01-.29-.18zm-.26 2zm-.07.14a.1.1 0 000-.05c.07 0 .13.06.12.07s-.01-.02-.08-.03zm1.47.34h-.07v-.05zm-.14-.17h-.05.05z"/><path class="cls-1" d="M16.38 32.35l.05.02-.03-.03-.02.01zm.28 5.33zm.15-.39h.08s-.07-.02-.08 0zM17 37h-.09zm-3.93 3.51c-.07.01-.07.01 0 0zM14.8 40a.93.93 0 000 .13s.01-.06 0-.13zm-2.55-1.52h.01v-.02l-.01.02zm2.44 1.63h.07c.02 0-.05-.04-.07 0zM17 35.5zm0-.02s-.06.01 0 0zm-.13-.03h.06s0-.01-.06 0zM17 36zm0 .1s.15-.1.1-.14h-.06c.12.04-.17.12-.04.14zm-.93.52l.06-.09h-.21c-.24.09.19-.03.15.09zm-.14.25h-.16c-.04 0 .08.03.16 0zm-.78 1.75l-.15-.13s.06.05.15.13zm.33 1.06l.11.07-.08-.17-.03.1zm-.75-1.17v-.04.09-.05zm-.54-.51H14s.26.07.19 0zm.31-1.26c.11 0 .19.07.11 0s-.13-.03-.11 0zm3.4-3.18l.06.07-.03-.09-.03.02zM6.78 29.21c0 .06-.08.19 0 .18l.11-.22zm.04.51a1.64 1.64 0 00.25-.5c-.12.2-.09.11-.23.36v-.18c0-.08 0-.07-.1.07s0 .22.13.09c0 .06-.04.11-.05.16zm2.81 1.47zm1.8.81zm.23.35s-.01.01 0 0zm-2.03-1.16v.09c.06-.07.02-.06 0-.09zm-2.19-1.88l-.05.05zm1.31 1.77l-.05.09zm-.63-.19a2.36 2.36 0 00.13-.27.43.43 0 01-.08.12zm-.85-.73zm1.91 1.13v.07a.19.19 0 000-.07zM27.33 35zm.51 1.23l-.01.01-.03.11.04-.12zm-10.27-1.85c0-.2.17-.2.14-.43-.01.05-.18.29-.14.43zM7.44 29.35zm10.27 4.6v-.02.02zm-4.17-.82a.28.28 0 000-.09v.09zm-.91-.61s.01 0 0 0zm1.52.48s0 .06 0 0zm.54.2v-.05zm10.95 1.54a1.36 1.36 0 010 .2c.01-.15.1-.19 0-.2zM7.39 29.42s0-.07.05-.07a.24.24 0 01-.05.07zm7.3 2.03l.07.06a.11.11 0 00-.07-.06zm7.03 2.32s.01-.03 0 0zM15 31.56a.36.36 0 000 .15z"/><path class="cls-1" d="M26.31 34.59c-.08 0-.1.25-.16.4s0-.21 0-.35c-.08 0-.18.29-.23.27a.53.53 0 010-.12c-.12.2-.2 0-.34.22v-.07a2.61 2.61 0 01-.08.37s-.11.15-.08 0c0 0 0-.06.06-.11l-.05.07c0-.26.07-.08.12-.26-.1.06-.24.25-.28.16.05-.25.16 0 .13-.29l.07.12c0-.41 0 0 .09-.39-.11-.1-.17.09-.27 0-.06.13 0 .21-.1.34-.23.2 0-.66-.18-.36s-.17.47-.21.28l.1-.27c-.11-.06-.17.38-.24.17s.11-.07.1-.11c0-.24-.09.14-.15.13l.05-.25c-.13 0-.31.15-.46.16a.43.43 0 00.06-.22c-.2.08-.36-.13-.48-.32l-.12.2v-.14c0-.04 0 .14-.09.21s0-.13 0-.19c-.15.15-.42.3-.48 0v-.05c-.07-.11-.22.41-.25.19-.18-.14-.45 0-.52-.37-.11.3-.16-.19-.29.24-.06-.25 0-.31-.13-.5 0 0-.13.25-.2.28l.06-.22-.13.21v-.28h-.07a.24.24 0 010 .17c-.11.08-.15-.2-.12-.32l-.23.14a.32.32 0 01.1-.16c-.16.2.05-.24-.1-.06a1 1 0 01-.05.18c0-.15-.11-.18-.21-.14l.06-.15c-.12-.08-.31 0-.46 0a.47.47 0 01-.1.36l.05-.24c-.07.13 0 .1-.09.26-.05 0 0-.28.09-.35l-.09.07a1.21 1.21 0 01.07-.2c-.07.14-.05-.26-.17 0v-.07c-.15-.05-.25 0-.37 0-.06.2-.1.14-.18.3-.08-.09-.13-.28-.25-.3s-.07.17-.14.28c.05-.19-.07-.2 0-.32a.58.58 0 00-.39.09.35.35 0 010 .18s-.05-.1 0-.19c-.27.22-.28-.66-.54-.32l-.21.15c-.06 0 .08-.12.06-.25-.25.25-.25-.13-.44 0 .05-.58-.39-.08-.43-.47v.13c-.08.12 0-.08 0-.12v.19c-.36.06-.59-.39-.87-.6-.11-.07-.27.64-.33.29l.12-.23c-.33.21-.48-.16-.79 0 0 0 .06-.12.08-.11 0-.19-.18-.07-.22.07v-.21c0-.08-.19.18-.17 0a.16.16 0 010-.06c-.06.07-.14-.07-.18.14-.05-.12-.19 0-.22-.11-.12.21-.11-.15-.23.16.11-.32-.07-.31-.17-.18v-.24c0-.13-.14 0-.18.19 0-.42-.34.24-.24-.28a2.06 2.06 0 01-.64.19c.11-.32.19 0 .3-.31-.21.08-.39.33-.52.2s.07-.13.1-.18c-.2.08-.29-.14-.49 0a.16.16 0 01.06-.08s-.05-.07-.1.08c0 .23-.26.4-.3.51.19-.4-.1-.15.15-.65a.35.35 0 00-.1.18s0-.1.06-.2c-.13.05-.15.21-.24.18s.06-.09.09-.17c-.09.12-.18.24-.24.16s0-.1.06-.09c-.14 0-.35.29-.45.11.15-.3 0-.12.07-.39l-.1.05v.14c-.06 0-.19.15-.22 0l.09-.09h-.14v.13c-.11.11-.11.34-.17.23s-.07 0-.05-.19c-.06.08-.12.15-.15.07s.11-.29.12-.35c-.11.21-.17 0-.3.23a1.71 1.71 0 00.09-.22l-.09.17a.3.3 0 010-.21c-.08-.06-.09.35-.15.17a.13.13 0 01.05-.06c-.09-.12-.26 0-.33-.09.06-.28.11 0 .16-.27-.17 0-.42.21-.54.09-.15.37 0-.22-.17-.07a.54.54 0 00.08-.16c-.08-.1-.24 0-.43.08l.06-.09c0-.1-.14-.1-.18-.17-.06.09-.09.06-.12.21 0-.61-.47.16-.47-.36 0 0 .08-.06.06-.07h-.18a1.12 1.12 0 000 .24c-.05.09-.12.15-.16.13s.1-.26.1-.36a1.66 1.66 0 01-.06.16c0-.32-.13.32-.16.09v-.09c-.06 0-.14.13-.17.09s.08-.07.14-.23-.25.32-.24.11c0 0 .08 0 .13-.07v-.24l-.06-.13v.07c-.26.46-.18 0-.4.31.21-.26.08-.17.17-.38a.35.35 0 010-.2c-.12.15 0-.16-.19.06v-.19c-.08 0 0 .12-.07.21s-.11-.37-.37-.1c-.16.09-.27.31-.42.38a.38.38 0 01.12-.23c0-.13-.07-.13-.15-.07a.48.48 0 000-.19s-.12.24-.14.11.1-.19.15-.26-.18.16-.26.2c0-.13.11-.17.15-.24a.43.43 0 00-.29.23v.08s0-.17.08-.2 0 .1 0 .17H6.6c-.12.41.18 0 .25.05l.31.37.17-.21c0 .08-.06.25-.12.28s.09-.08.08.09 0 .05 0 .05l.09-.06c0 .06-.07.21-.09.15 0 .21.24-.16.19.08.17 0 .09-.2.29-.42l-.14.56.1-.21v.12c.11-.12 0-.09.11-.22 0 .22.22 0 .11.32.08-.15 0-.15.1-.23-.12.37.1 0 .1.16s-.11.06-.11.25c.15-.31.09.12.17.07.09-.25.15-.06.27-.11 0 .08.11.2.15.32.11-.25.17-.17.25-.2a.71.71 0 01-.15.27h.06c0-.08.08-.12.13-.13l-.09.18c.08 0 .24-.17.29 0 .07-.18.1-.53.25-.61a.88.88 0 01-.13.29s.06-.07.06 0l-.1.15c0 .09.08-.13.11-.1s0 .11-.06.22 0-.07 0 0a.32.32 0 010 .25c0-.08.07-.19.11-.19s0 .17 0 .26c.06-.09.07 0 .15-.18v.17c0 .06.2 0 .23-.2.2-.16.22.21.39.17v.07c.11-.05.19 0 .3-.12s0 .15 0 .23.12-.11.16 0 0 .11-.09.07 0 .2.18 0c-.09.17 0 .24 0 .2v-.14a.14.14 0 01.12 0l-.11.23c.06.34.46-.39.41.13.1-.15 0-.14.06-.32.06.06 0 .42 0 .43s.21-.31.28-.19c0-.09.08-.31.19-.37s0 .39-.11.44 0 0 0-.06-.08 0-.08.15v-.08c0 .1.11.12 0 .25a.14.14 0 000-.18c.05.15.14.05.21.17v-.15c0 .01.12-.14.23-.15 0 .15-.13.3 0 .23a.41.41 0 01-.12.29c.15-.14.13.16.17.21l-.07.05a.11.11 0 01.09 0v-.17.11c.07-.1.08-.28.19-.42 0 .1.14-.05.07.18-.09-.12-.06.23-.17.23h.07c0 .24.14-.23.25-.19-.06.12-.05.25 0 .23s.05-.22.13-.3c0 .12.1 0 .13 0v-.07c.05-.12.08-.09.15-.11s-.07 0-.07.1c.13-.2.05.27.18.15 0 .1-.08.24-.07.31.15-.14 0 .2.18.1s0-.14.13-.28l-.19.06.18-.21s-.13.08-.15 0a.37.37 0 00.1-.23c0 .27.17-.11.18.08l-.14.42c.05.23.27-.15.37 0v-.08c.07-.16.09 0 .16 0a.92.92 0 000 .29c0-.1.1.05.21-.23v.3c.09.11.26-.36.35-.28-.08.14-.06.26-.17.35s.06 0 .09-.05c0 .09.16-.16.15 0 0-.06.09-.21.13-.18v.07c0-.07.09-.08.11-.24 0 .47.32.07.29.47a.94.94 0 01.28 0s0 .07 0 0c.06.17.19-.38.26-.2s-.1.1-.09.2c-.13.47.16 0 .15.28 0 .18.2-.13.28-.07a.2.2 0 000 .07.68.68 0 01.4-.29c-.09.17-.07.08-.11.27.05 0 .08-.3.18-.32a1.67 1.67 0 010 .41h-.08c0 .26.1 0 .13.08v.11c.13 0 .22-.28.34-.22v-.09c.16-.26 0 .17.15 0l-.07.29a1.46 1.46 0 01.34-.26 1.45 1.45 0 01-.34.38.18.18 0 00.23-.1s-.07.08-.07 0c.12-.2.23-.29.32-.26-.19.55.19.22.13.66.22-.15.29.19.49.21.06-.45.06 0 .18-.44h.06l.06.3c0 .14-.07.08-.1.18s0 .2 0 .34c0-.16.1-.22.14-.14v-.23c.21-.19 0 .41.21.22l-.08.12c.09-.06.26.08.43-.25 0 0 0 .18-.06.2.15.1.48-.27.54 0v.1s.11-.19.12-.07 0 .11 0 .12.14-.17.16-.09l-.07.11c.12.19.33-.22.49-.26a.54.54 0 00.06.53c.18.1.4-.17.61-.24 0 .37.33.24.45.49a.44.44 0 01.11-.27c0 .07.18-.19.09.1 0 .29.06.24.13.27l.11-.38c0 .6.51-.09.47.44.07-.09.12-.07.19-.16l-.06.21a.36.36 0 00.31.11l-.07.14c.08 0 .26-.56.33-.55l-.05.31c.14 0 .21.34.42.1 0 0 0 .13-.07.13s.21.28.29-.15c-.07.28.14.07.25 0l-.07.2c.14-.24.16-.31.26-.36s0 .17 0 .11c0 .13.1-.18.16 0l-.07.13c.07 0 .08 0 .16-.18s.13.09.09.27c0-.11.12-.25.15-.18a.34.34 0 010 .13c.08.17.24-.19.27 0a.35.35 0 000 .12c-.09 0-.17-.06-.16-.07 0 .18 0 .24-.1.48.1-.13.28-.4.34-.3v.09h.05c.05 0 0 .06.05.07s.07.11.11.13c.05-.21.09-.16.08-.35h-.1c.05-.1.11-.18.12 0l.14-.32c0 .3.05.48 0 .66.14-.09.3 0 .47-.37v.18c0 .06-.06 0-.08.08s.21 0 .29-.26c.06.15-.11.24 0 .22v.08c.12.49.54-.59.66 0a.34.34 0 010-.1c.24.31.66-.09.86.37.06.09.11-.08.19-.2v.23l.14-.24c.17-.15.09.59.32.28v-.16c.05 0 .19 0 .14.12 0 0 .06-.15.06-.06v.11l.18-.16c.08.1-.12.45 0 .51a.8.8 0 00.24-.38v-.2h.07a2.22 2.22 0 00.13-1l-.14.19v-.17h.08c0-.16-.07 0-.12.06a.68.68 0 000-.19l-.17.3c0-.13.1-.25.06-.34-.07.14 0 .31-.12.39v-.16a.31.31 0 01.06-.18c-.07.09-.13 0-.19.19 0-.2-.16 0-.08-.3 0 .07-.14.23-.18.23.16-.36-.15-.05 0-.46-.14.33-.24.11-.38.28v-.06c0 .02 0-.15-.06-.23a1.44 1.44 0 01-.26.5c0-.29.12-.33.16-.6-.05.23-.17.21-.19.4a.9.9 0 010-.33c-.09.35-.06 0-.15.26 0-.2.06-.34-.05-.25a.35.35 0 01-.47-.2zm-2.09.14zm-.16 0h.07c.07 0 0 .14-.05.13s-.01-.1-.02-.17zm0 1.51v-.07h.05zm.1-.3V36zM9.62 31.15z"/><path class="cls-1" d="M21.93 33.72l-.02.05.03-.04-.01-.01zM9 30.15zM8.65 30v-.09a.3.3 0 000 .09zm-.25-.24v.08zm4.67 1.41s.03-.02 0 0zm-1.54-.01l.08-.07s-.04-.04-.08.07zm3.15.29h.01-.01z"/><path class="cls-1" d="M11.67 31.11c0-.05 0 0-.06 0s.03.03.06 0zM7.19 29.2zm-.03.02s-.01.02 0 0zm-.07.05s.03-.05 0 0zm.44.16v-.07zm.13.03s0-.18-.07-.15v.05c.03-.09-.01.21.07.1zm.14 1.07l-.07-.1c0 .09 0 .2-.08.2.03.27.04-.18.15-.1zm.26.22c-.06 0 0 .11-.06.15s.08-.07.06-.15zm2.19.81l-.07.18c.05-.01.03-.07.07-.18zm.75-.79v-.12l-.07.16.07-.04zm-.21 1.38l-.02.02.09-.04-.07.02zm3.75 1.19l.06-.22s-.13.28-.06.22zm1.69.29c0 .12 0 .2.06.1s-.04-.13-.06-.1zm4.77 1.8l-.06.06.08-.04-.02-.02z"/></g></g></svg>