<svg width="257" height="80" viewBox="0 0 257 80" version="1.1" xmlns="http://www.w3.org/2000/svg" class="svg" focusable="false" aria-hidden="true" role="img"><g id="Page-1" stroke="none" stroke-width="1" fill="none" fill-rule="evenodd"><g id="suomensyopapotilaat-fi"><g id="logo" transform="translate(-1)"><g id="c" transform="translate(.1)"><path d="M74.069 64.173c0 8.069-6.57 14.611-14.672 14.611-8.104 0-14.673-6.542-14.673-14.611 0-8.07 6.569-14.611 14.673-14.611 8.103 0 14.672 6.541 14.672 14.61" id="Fill-2" fill="#FDD31E"/><path d="M90.156 39.776c0 8.069-6.57 14.61-14.672 14.61-8.104 0-14.672-6.541-14.672-14.61 0-8.07 6.568-14.612 14.672-14.612 8.103 0 14.672 6.542 14.672 14.612" id="Fill-3" fill="#C7372A"/><path d="M75.047 14.814c0 8.07-6.57 14.612-14.672 14.612-8.104 0-14.673-6.542-14.673-14.612S52.272.203 60.375.203s14.672 6.541 14.672 14.611" id="Fill-4" fill="#0074B0"/><path d="M45.755 14.814c0 8.07-6.57 14.612-14.673 14.612S16.41 22.884 16.41 14.814 22.98.203 31.082.203c8.104 0 14.673 6.541 14.673 14.611" id="Fill-5" fill="#3EA447"/><path d="M30.296 39.654c0 8.068-6.569 14.611-14.672 14.611C7.52 54.265.95 47.722.95 39.655c0-8.071 6.57-14.613 14.673-14.613s14.672 6.542 14.672 14.612" id="Fill-6" fill="#EFA92C"/><path d="M44.733 65.04c0 8.07-6.57 14.612-14.673 14.612S15.388 73.11 15.388 65.04s6.57-14.611 14.672-14.611c8.104 0 14.673 6.541 14.673 14.61" id="Fill-7" fill="#7F78AB"/><path d="M67.767 17.026l1.342 9.726.126 1.014-.126.405a.771.771 0 0 1-.628.405c-.336.026-.839-.54-1.508-1.7C61.797 18.025 54.783 13.6 45.928 13.6c-7.057 0-12.62 2.118-16.687 6.35-4.068 4.234-6.103 10.017-6.103 17.352 0 8.44 2.265 15.336 6.794 20.688 4.528 5.353 10.352 8.029 17.472 8.029 4.154 0 8.24-1.087 12.257-3.258 4.016-2.17 6.8-4.802 8.351-7.897.718-1.438 1.272-2.171 1.66-2.199.441-.026.663.231.663.774l-.042.447-.167.895-.968 4.966-.168.732c-.111.703-.762 1.434-1.95 2.191-6.387 3.978-13.425 5.966-21.11 5.966-8.906 0-16.081-2.574-21.528-7.727-5.448-5.152-8.17-11.936-8.17-20.35 0-8.417 2.819-15.408 8.458-20.979 5.64-5.57 12.718-8.354 21.233-8.354 5.833 0 11.197 1.284 16.09 3.851l1.658.851.664.284.705.243c.139 0 .346-.107.621-.324.606-.429 1.018-.644 1.24-.644.44 0 .729.514.866 1.54" id="Fill-8" fill="#FFFFFE"/></g><path d="M108.206 25.785c.574 0 1.06.083 1.458.25l.556.234a.354.354 0 0 0 .145.032.303.303 0 0 0 .193-.08l.113-.097c.016-.022.046-.033.089-.033.134-.005.2.127.2.395 0 .091.036.363.106.814l.129.83c.026.177.04.287.04.33 0 .166-.057.25-.17.25-.085 0-.171-.13-.257-.387-.193-.58-.587-1.058-1.18-1.434a3.634 3.634 0 0 0-1.986-.564c-.58 0-1.065.17-1.455.512-.389.34-.584.766-.584 1.277 0 .45.126.84.379 1.168.22.279.46.483.721.612.26.129.901.363 1.922.701 1.987.65 2.98 1.716 2.98 3.198 0 1.005-.365 1.827-1.095 2.466-.73.639-1.668.959-2.812.959a5.94 5.94 0 0 1-1.366-.178c-.496-.118-.86-.255-1.091-.41a.51.51 0 0 1-.194-.206 4.085 4.085 0 0 1-.145-.56c-.01-.043-.078-.287-.201-.733-.14-.484-.21-.827-.21-1.031 0-.162.054-.24.162-.234.096.005.182.137.257.395.194.666.602 1.224 1.225 1.676.623.45 1.3.676 2.03.676.741 0 1.369-.217 1.882-.652.512-.435.769-.964.769-1.587 0-.597-.236-1.099-.71-1.507-.24-.21-.939-.508-2.094-.894-1.192-.403-2.037-.849-2.534-1.338-.496-.489-.745-1.122-.745-1.901 0-.87.324-1.58.971-2.127.647-.548 1.481-.822 2.502-.822zm14.566 6.582v-4.173c0-.671-.097-1.159-.29-1.462-.193-.304-.521-.477-.983-.52-.156-.016-.234-.075-.234-.177 0-.118.054-.175.162-.17.118.006.29.028.515.065.204.032.449.049.733.049.602 0 .972-.009 1.112-.025.188-.016.306-.024.355-.024.102 0 .153.049.153.145 0 .08-.057.145-.17.194-.327.134-.54.322-.636.564-.097.241-.145.698-.145 1.37v3.987c0 1.467-.293 2.594-.878 3.384-.37.5-.901.898-1.591 1.196a5.517 5.517 0 0 1-2.212.448c-.913 0-1.735-.178-2.465-.532-.73-.355-1.265-.835-1.604-1.442-.38-.699-.572-1.609-.572-2.732V28.42l-.016-.46c0-.574-.079-.97-.237-1.188-.159-.217-.477-.361-.955-.43-.145-.022-.218-.079-.218-.17 0-.129.102-.193.307-.193a13 13 0 0 1 .555.016c.248.016.427.024.54.024l.62-.008h.613c.064 0 .215-.011.451-.032a5.68 5.68 0 0 1 .411-.025c.124 0 .185.043.185.13 0 .101-.086.168-.257.2-.312.07-.52.206-.625.408-.105.2-.157.562-.157 1.083l.016.532v4.06c0 1.386.215 2.374.645 2.965.607.838 1.624 1.257 3.053 1.257 1.278 0 2.234-.35 2.868-1.051.634-.701.951-1.758.951-3.17zm8.798-6.582c1.681 0 3.06.52 4.137 1.56 1.077 1.038 1.615 2.37 1.615 3.991 0 1.719-.542 3.129-1.627 4.23-1.085 1.101-2.474 1.652-4.165 1.652-1.735 0-3.139-.527-4.21-1.58-1.072-1.052-1.607-2.433-1.607-4.14 0-.742.14-1.476.423-2.204.282-.728.662-1.336 1.14-1.825.505-.516 1.144-.925 1.917-1.229a6.454 6.454 0 0 1 2.377-.455zm-.524.524c-1.246 0-2.236.42-2.969 1.26-.733.841-1.1 1.973-1.1 3.397 0 1.627.47 3 1.406 4.117.938 1.117 2.088 1.675 3.453 1.675 1.246 0 2.274-.455 3.085-1.365.811-.91 1.217-2.064 1.217-3.46 0-1.607-.486-2.945-1.458-4.017-.972-1.071-2.184-1.607-3.634-1.607zm17.612 2.57c-.457.8-.76 1.356-.91 1.668l-.717 1.538-.822 1.692-.677 1.515c-.167.376-.312.685-.435.927-.07.145-.118.247-.145.306-.108.252-.223.378-.347.378-.128 0-.252-.131-.37-.394a13.08 13.08 0 0 0-.226-.444l-.16-.338-3.022-6.542-.185 3.988a47.71 47.71 0 0 0-.025 1.966c0 .945.333 1.469 1 1.571.327.054.49.134.49.242 0 .123-.077.185-.233.185a2.64 2.64 0 0 1-.298-.016 16.81 16.81 0 0 0-1.394-.08 8.47 8.47 0 0 0-1.128.072c-.107.016-.19.024-.25.024-.16 0-.241-.06-.241-.177 0-.092.064-.15.193-.178.392-.09.666-.273.822-.547.156-.274.25-.742.282-1.402l.113-2.337c.08-1.692.12-2.76.12-3.206 0-.956-.125-1.664-.378-2.123-.252-.46-.674-.743-1.265-.85-.16-.027-.242-.094-.242-.202 0-.118.068-.177.202-.177.048 0 .137.006.266.016.075.011.258.016.548.016.44 0 .72-.005.838-.016.123-.016.222-.024.298-.024.23 0 .424.17.58.508l.088.185 3.36 7.243.41.83c.06.14.103.21.13.21.032 0 .072-.052.12-.154l.097-.217.073-.161 3.786-8.105c.081-.172.141-.278.182-.319.04-.04.111-.06.213-.06.043 0 .161.01.355.032a8.135 8.135 0 0 0 1.08-.024c.096-.005.174-.01.233-.016.107-.006.161.048.161.161 0 .102-.054.166-.161.193l-.347.089a.79.79 0 0 0-.576.503c-.11.272-.165.716-.165 1.334l.049 1.942.153 4.374.04 1.015c0 .409.075.701.226.879.15.177.424.295.821.354.285.043.427.116.427.218 0 .107-.1.16-.298.16-.059 0-.126-.002-.201-.007l-.629-.065a6.651 6.651 0 0 0-.676-.032c-.167 0-.43.01-.79.032-.559.027-.88.04-.967.04-.155 0-.233-.048-.233-.145 0-.085.067-.147.201-.185.317-.086.53-.225.637-.419.107-.193.16-.531.16-1.015l-.032-1.313-.209-5.116zm6.808-1.611v3.238c0 .247.023.396.068.447.046.052.184.077.415.077h1.24c.565 0 1.01-.032 1.338-.097.29-.059.478-.137.564-.233.086-.097.164-.323.234-.677.027-.134.094-.199.201-.193.102.005.153.077.153.217 0 .038-.002.097-.008.177a17.47 17.47 0 0 0-.064 1.426c0 .328.016.653.048.975.011.108.016.186.016.234 0 .134-.05.201-.153.201-.112 0-.18-.059-.201-.177l-.048-.226c-.065-.36-.194-.604-.387-.733-.194-.129-.521-.193-.983-.193h-1.78c-.264 0-.44.027-.528.08-.089.054-.133.162-.133.323l.008.266v2.965c0 .456.082.74.246.854.163.112.578.169 1.244.169 2.111 0 3.467-.476 4.069-1.426.059-.092.118-.14.177-.145.097-.006.145.064.145.21 0 .348-.196.765-.588 1.248-.473.58-1.069.87-1.789.87-.155 0-.365-.01-.628-.032a28.082 28.082 0 0 0-2.546-.145c-.94 0-1.603.032-1.99.096a2.808 2.808 0 0 1-.419.057c-.172 0-.258-.06-.258-.177 0-.092.07-.156.21-.194l.306-.088c.387-.108.58-.484.58-1.128l.008-.524v-6.808c0-.768-.084-1.285-.254-1.55-.169-.267-.498-.4-.987-.4-.155 0-.233-.05-.233-.153 0-.15.12-.225.362-.225.135 0 .315.013.54.04a25.42 25.42 0 0 0 2.772.129c.655 0 1.235-.01 1.74-.032l1.144-.057c.317-.01.51-.021.58-.032a2.44 2.44 0 0 1 .322-.032c.177 0 .266.078.266.234 0 .048-.008.11-.024.185s-.038.29-.065.644l-.032.476c-.027.311-.053.506-.08.584-.027.078-.086.12-.178.125-.102.005-.153-.075-.153-.242v-.21c0-.171-.032-.335-.096-.49-.102-.243-.31-.404-.62-.484-.312-.08-.884-.121-1.717-.121h-1.265c-.333 0-.547.041-.644.125-.097.083-.145.267-.145.552zm16.774 1.82v6.752c0 .607-.014.976-.04 1.108-.027.131-.103.194-.226.189a.278.278 0 0 1-.185-.073l-.178-.209-6.791-7.767-.081-.088a.155.155 0 0 0-.113-.049c-.102 0-.153.121-.153.363v5.462l-.008.339.024.572c.038.354.13.599.274.733.145.134.43.234.854.298.177.022.266.091.266.21 0 .107-.056.16-.17.16-.074 0-.155-.005-.24-.015-.06-.011-.294-.027-.702-.049l-.822-.04-.386.016c-.21 0-.408.013-.596.04-.14.022-.24.033-.299.033-.14 0-.214-.052-.225-.154-.006-.08.07-.147.225-.201.452-.156.756-.364.915-.624.158-.26.238-.681.238-1.261v-5.479c0-.929-.148-1.66-.444-2.195-.295-.535-.722-.84-1.28-.915-.146-.021-.218-.083-.218-.185s.059-.153.177-.153c.027 0 .07.003.13.008l.33.008.54.016.128-.008c.129-.005.228-.008.298-.008.134 0 .269.078.403.234l7.412 8.395c.118.134.193.199.226.193.053-.005.083-.056.088-.153v-3.988l.008-1.088-.096-1.853c-.054-.456-.187-.78-.4-.97-.211-.191-.594-.332-1.147-.423-.156-.027-.234-.094-.234-.202 0-.102.078-.153.234-.153.07 0 .182.008.338.024.37.043.868.065 1.49.065.334 0 .6-.016.798-.049a2.32 2.32 0 0 1 .395-.048c.14 0 .215.056.226.17.005.069-.049.12-.161.152-.328.08-.544.215-.649.403-.105.188-.157.54-.157 1.056v.87l-.016.531z" id="SUOMEN" fill="#1A1919"/><path d="M108.206 43.785c.574 0 1.06.083 1.458.25l.556.234a.354.354 0 0 0 .145.032.303.303 0 0 0 .193-.08l.113-.097c.016-.022.046-.033.089-.033.134-.005.2.127.2.395 0 .091.036.363.106.814l.129.83c.026.177.04.287.04.33 0 .166-.057.25-.17.25-.085 0-.171-.13-.257-.387-.193-.58-.587-1.058-1.18-1.434a3.634 3.634 0 0 0-1.986-.564c-.58 0-1.065.17-1.455.512-.389.34-.584.766-.584 1.277 0 .45.126.84.379 1.168.22.279.46.483.721.612.26.129.901.363 1.922.701 1.987.65 2.98 1.716 2.98 3.198 0 1.005-.365 1.827-1.095 2.466-.73.639-1.668.959-2.812.959a5.94 5.94 0 0 1-1.366-.178c-.496-.118-.86-.255-1.091-.41a.51.51 0 0 1-.194-.206 4.085 4.085 0 0 1-.145-.56c-.01-.043-.078-.287-.201-.733-.14-.484-.21-.827-.21-1.031 0-.162.054-.24.162-.234.096.005.182.137.257.395.194.666.602 1.224 1.225 1.676.623.45 1.3.676 2.03.676.741 0 1.369-.217 1.882-.652.512-.435.769-.964.769-1.587 0-.597-.236-1.099-.71-1.507-.24-.21-.939-.508-2.094-.894-1.192-.403-2.037-.849-2.534-1.338-.496-.489-.745-1.122-.745-1.901 0-.87.324-1.58.971-2.127.647-.548 1.481-.822 2.502-.822zm9.676 9.563c0 .623.05 1.005.153 1.144.102.14.394.234.878.282.166.017.25.073.25.17 0 .129-.094.193-.282.193-.06 0-.2-.013-.42-.04a11.03 11.03 0 0 0-.587-.049l-.637-.032-.628.016a8.34 8.34 0 0 0-.798.024 2.903 2.903 0 0 1-.306.033c-.124 0-.185-.046-.185-.137 0-.108.088-.175.265-.202.452-.064.738-.184.858-.358.121-.175.182-.55.182-1.124l.008-.347v-2.4c0-.344-.024-.597-.073-.758-.048-.16-.166-.39-.354-.685l-2.248-3.569-.274-.443a1.765 1.765 0 0 0-.66-.616 1.729 1.729 0 0 0-.847-.238c-.155 0-.233-.048-.233-.145 0-.118.083-.177.25-.177.134 0 .27.008.41.024.35.038.715.056 1.096.056.79 0 1.295-.01 1.515-.032.236-.021.379-.032.427-.032.156 0 .233.054.233.161 0 .08-.061.14-.185.177-.36.108-.54.29-.54.548 0 .14.116.398.347.774l.225.386 1.684 2.66.105.16c.048.075.097.113.145.113.06 0 .115-.038.17-.113l.08-.12 1.168-1.773.395-.629c.376-.596.564-.996.564-1.2 0-.36-.339-.62-1.015-.781-.135-.033-.2-.094-.194-.186.006-.091.067-.137.186-.137.08 0 .222.016.427.049.155.026.531.04 1.127.04.548 0 .897-.008 1.048-.024.204-.022.346-.035.427-.04.145-.011.217.037.217.144 0 .086-.067.15-.201.194-.478.156-.876.456-1.192.902l-.524.782-1.958 2.916-.193.274c-.204.29-.306.556-.306.798v3.367zm10.554-9.563c1.681 0 3.06.52 4.137 1.56 1.077 1.038 1.615 2.37 1.615 3.991 0 1.719-.542 3.129-1.627 4.23-1.085 1.101-2.474 1.652-4.165 1.652-1.735 0-3.139-.527-4.21-1.58-1.072-1.052-1.607-2.433-1.607-4.14 0-.742.14-1.476.423-2.204.282-.728.662-1.336 1.14-1.825.504-.516 1.144-.925 1.917-1.229a6.454 6.454 0 0 1 2.377-.455zm-.524.524c-1.246 0-2.236.42-2.969 1.26-.733.841-1.1 1.973-1.1 3.397 0 1.627.47 3 1.406 4.117.938 1.117 2.088 1.675 3.453 1.675 1.246 0 2.274-.455 3.085-1.365.811-.91 1.217-2.064 1.217-3.46 0-1.607-.486-2.945-1.458-4.017-.973-1.071-2.184-1.607-3.634-1.607zm-.999-3.295c.108 0 .258.11.451.33.194.22.296.397.306.532.011.129-.08.314-.274.556-.193.241-.346.362-.459.362-.107 0-.263-.118-.467-.354-.204-.237-.309-.42-.314-.548-.006-.13.09-.308.286-.536.196-.228.353-.342.471-.342zm2.957 0c.107 0 .259.111.455.334.196.223.297.399.302.528.006.134-.087.32-.278.56-.19.239-.342.358-.455.358-.107 0-.263-.118-.467-.354-.204-.237-.31-.42-.314-.548-.006-.13.09-.308.286-.536.196-.228.353-.342.47-.342zm8.306 4.27v6.719l-.008.781.024.677c.06.65.301 1.029.725 1.136.296.08.519.121.67.121.16 0 .244.048.249.145.01.14-.083.21-.282.21a8.25 8.25 0 0 1-.54-.033c-.172-.01-.451-.016-.838-.016l-.572-.016-.628.008c-.317 0-.556.01-.717.032a4.05 4.05 0 0 1-.46.04c-.14 0-.209-.053-.209-.16 0-.103.089-.167.266-.194.419-.064.705-.3.858-.709.153-.408.23-1.144.23-2.207v-4.89c0-1.129-.068-1.842-.202-2.14-.134-.298-.47-.476-1.007-.536-.145-.01-.215-.064-.21-.16.006-.124.11-.186.315-.186.102 0 .239.013.41.04.34.049.618.073.839.073.343 0 .843-.03 1.498-.089.339-.027.615-.04.83-.04 1.123 0 2.034.27 2.735.81.701.54 1.052 1.244 1.052 2.114 0 1.053-.43 1.883-1.29 2.49-.644.451-1.326.677-2.046.677-.338 0-.648-.038-.93-.113-.282-.075-.418-.156-.407-.242.01-.064.062-.096.153-.096.043 0 .097.008.161.024.124.037.322.056.596.056.774 0 1.393-.212 1.857-.636.465-.425.697-.989.697-1.692 0-.811-.306-1.483-.918-2.014-.613-.532-1.389-.798-2.329-.798-.215 0-.362.04-.443.12-.08.081-.12.234-.12.46l-.009.234zm12.02 5.502h-2.916c-.397 0-.644.033-.74.097-.098.065-.227.28-.388.645l-.523 1.184c-.237.542-.355.945-.355 1.208 0 .253.063.435.19.548.126.113.374.21.745.29.16.033.244.097.25.194.005.091-.07.137-.226.137-.06 0-.15-.003-.274-.008l-.773-.04a21.211 21.211 0 0 0-.895-.017c-.156 0-.276.003-.362.008a14.81 14.81 0 0 1-.451.032c-.145 0-.218-.048-.218-.145 0-.086.046-.142.137-.169l.298-.088c.107-.033.253-.163.435-.391a3.69 3.69 0 0 0 .451-.713l.234-.532 4.141-9.193c.07-.16.148-.241.234-.241.086 0 .158.078.217.233l3.465 8.863.177.435c.252.65.462 1.054.628 1.212.167.159.505.284 1.015.375.167.032.247.1.242.201-.005.092-.08.137-.226.137-.048 0-.15-.005-.306-.016-.279-.027-.776-.04-1.49-.04-.747 0-1.214.016-1.402.048a1.49 1.49 0 0 1-.25.033c-.14 0-.21-.057-.21-.17 0-.086.068-.142.202-.169l.25-.056c.269-.054.403-.237.403-.548 0-.285-.164-.851-.492-1.7l-.403-1.064c-.112-.295-.2-.465-.265-.511-.065-.046-.247-.069-.548-.069zm.097-1.289l-1.264-3.19-.065-.17c-.064-.171-.134-.26-.21-.265-.037-.006-.08.045-.128.153l-1.571 3.488c-.07.15-.105.25-.105.299 0 .14.123.209.37.209l.218.008h2.433c.269 0 .403-.067.403-.201a.72.72 0 0 0-.04-.186l-.04-.145zm-2.57-8.483c.108 0 .258.11.452.33.193.22.295.397.306.532.005.129-.088.314-.278.556-.19.241-.343.362-.455.362-.108 0-.265-.12-.472-.362-.207-.242-.31-.422-.31-.54 0-.134.097-.314.29-.54.193-.226.35-.338.467-.338zm2.957 0c.108 0 .26.111.455.334.196.223.297.399.303.528.005.134-.088.32-.278.56-.191.239-.343.358-.456.358-.107 0-.263-.118-.467-.354-.204-.237-.309-.42-.314-.548-.006-.13.09-.308.286-.536.196-.228.353-.342.471-.342zm7.243 4.27v6.719l-.008.781.024.677c.06.65.301 1.029.725 1.136.296.08.519.121.669.121.161 0 .244.048.25.145.01.14-.083.21-.282.21a8.21 8.21 0 0 1-.54-.033c-.172-.01-.451-.016-.838-.016l-.572-.016-.628.008c-.317 0-.556.01-.717.032a4.05 4.05 0 0 1-.46.04c-.14 0-.21-.053-.21-.16 0-.103.09-.167.267-.194.419-.064.705-.3.858-.709.153-.408.23-1.144.23-2.207v-4.89c0-1.129-.068-1.842-.202-2.14-.134-.298-.47-.476-1.007-.536-.145-.01-.215-.064-.21-.16.006-.124.11-.186.315-.186.102 0 .239.013.41.04.339.049.618.073.838.073.344 0 .844-.03 1.499-.089.338-.027.615-.04.83-.04 1.122 0 2.034.27 2.735.81.701.54 1.051 1.244 1.051 2.114 0 1.053-.43 1.883-1.289 2.49-.644.451-1.326.677-2.046.677-.338 0-.649-.038-.93-.113-.283-.075-.418-.156-.407-.242.01-.064.061-.096.153-.096.043 0 .096.008.16.024.124.037.323.056.597.056.773 0 1.392-.212 1.857-.636.465-.425.697-.989.697-1.692a2.55 2.55 0 0 0-.919-2.014c-.612-.532-1.388-.798-2.328-.798-.215 0-.362.04-.443.12-.08.081-.12.234-.12.46l-.009.234zm11.924-1.499c1.681 0 3.06.52 4.137 1.56 1.077 1.038 1.615 2.37 1.615 3.991 0 1.719-.542 3.129-1.627 4.23-1.085 1.101-2.473 1.652-4.165 1.652-1.735 0-3.138-.527-4.21-1.58-1.071-1.052-1.607-2.433-1.607-4.14 0-.742.14-1.476.423-2.204.282-.728.662-1.336 1.14-1.825.505-.516 1.144-.925 1.917-1.229a6.454 6.454 0 0 1 2.377-.455zm-.524.524c-1.246 0-2.235.42-2.969 1.26-.733.841-1.1 1.973-1.1 3.397 0 1.627.47 3 1.407 4.117s2.088 1.675 3.452 1.675c1.246 0 2.274-.455 3.085-1.365.812-.91 1.217-2.064 1.217-3.46 0-1.607-.486-2.945-1.458-4.017-.972-1.071-2.184-1.607-3.634-1.607zm15.372.54h-2.264c-.236 0-.385.032-.447.096-.062.065-.092.223-.092.476v7.895l.008.314c.027.629.378 1.002 1.055 1.12.188.032.282.094.282.186 0 .118-.075.177-.226.177-.064 0-.196-.016-.394-.049a6.338 6.338 0 0 0-.725-.024l-.589-.008-.628.008a5.73 5.73 0 0 0-.572.024 8.955 8.955 0 0 1-.54.049c-.16 0-.241-.06-.241-.177 0-.086.088-.14.265-.162.414-.053.693-.167.838-.342.145-.175.218-.487.218-.939V45.51l-.008-.21c0-.193-.028-.316-.085-.37-.056-.054-.186-.08-.39-.08h-2.136c-.435 0-.75.087-.946.261-.196.175-.348.504-.455.987-.049.21-.121.312-.218.307-.097-.006-.145-.078-.145-.218 0-.113.032-.32.097-.62.08-.387.12-.707.12-.96 0-.246.029-.409.085-.486.057-.078.176-.117.359-.117h8.669c.295 0 .474.032.535.096.062.065.093.255.093.572 0 .317.013.548.04.693.027.183.043.314.049.395.005.161-.051.247-.17.258-.096.005-.16-.078-.193-.25-.07-.381-.183-.63-.338-.745-.156-.116-.46-.173-.91-.173zm4.923 1.506v6.027c0 .752.046 1.248.137 1.49.107.274.24.467.399.58.158.113.407.194.745.242.268.037.403.105.403.201 0 .13-.083.194-.25.194-.08 0-.183-.008-.306-.025a7.678 7.678 0 0 0-.854-.032l-1.168-.016-.951.057a3.89 3.89 0 0 1-.387.024c-.145 0-.217-.057-.217-.17 0-.096.083-.158.25-.185.408-.07.67-.21.789-.423.118-.212.177-.66.177-1.341V46.08c0-.666-.076-1.114-.23-1.345-.152-.231-.479-.387-.978-.467-.167-.033-.253-.097-.258-.194-.005-.118.072-.177.234-.177.043 0 .09.003.145.008.392.043.913.064 1.563.064.397 0 .738-.008 1.023-.024l.54-.04a5.68 5.68 0 0 1 .201-.008c.145 0 .218.051.218.153 0 .097-.07.17-.21.218l-.419.16c-.397.151-.596.793-.596 1.926zm5.406 6.47l.008.282c0 .644.062 1.026.185 1.144.124.118.527.177 1.209.177 1.004 0 1.876-.12 2.614-.359.739-.239 1.21-.554 1.414-.946.075-.145.15-.218.226-.218.086 0 .126.054.12.161-.02.355-.196.744-.523 1.169-.462.585-1.211.878-2.248.878-.172 0-.37-.008-.596-.024l-.87-.065a22.42 22.42 0 0 0-1.62-.056c-.66 0-1.214.032-1.66.096a5.06 5.06 0 0 1-.45.049c-.135.005-.202-.043-.202-.145 0-.086.073-.15.218-.194.37-.112.619-.278.745-.495.126-.218.19-.584.19-1.1l.007-.37v-7.203c0-.714-.29-1.13-.87-1.249l-.362-.072c-.13-.027-.194-.08-.194-.161 0-.124.092-.186.274-.186.124 0 .293.011.508.032.365.033.776.049 1.232.049.495 0 .943-.014 1.346-.04.204-.011.32-.017.346-.017.13 0 .194.04.194.121 0 .118-.078.196-.234.234l-.282.064c-.483.119-.725.6-.725 1.442v7.002zm12.278-2.039h-2.916c-.398 0-.645.033-.741.097-.097.065-.226.28-.387.645l-.524 1.184c-.236.542-.354.945-.354 1.208 0 .253.063.435.189.548.126.113.375.21.745.29.161.033.245.097.25.194.005.091-.07.137-.226.137-.059 0-.15-.003-.274-.008l-.773-.04a21.195 21.195 0 0 0-.894-.017 6.58 6.58 0 0 0-.363.008 14.81 14.81 0 0 1-.451.032c-.145 0-.218-.048-.218-.145 0-.086.046-.142.137-.169l.299-.088c.107-.033.252-.163.435-.391a3.69 3.69 0 0 0 .45-.713l.234-.532 4.142-9.193c.07-.16.147-.241.233-.241.086 0 .159.078.218.233l3.464 8.863.177.435c.253.65.462 1.054.629 1.212.166.159.505.284 1.015.375.166.032.247.1.242.201-.006.092-.081.137-.226.137-.048 0-.15-.005-.306-.016-.28-.027-.776-.04-1.49-.04-.747 0-1.215.016-1.403.048a1.49 1.49 0 0 1-.25.033c-.139 0-.209-.057-.209-.17 0-.086.067-.142.202-.169l.25-.056c.268-.054.402-.237.402-.548 0-.285-.164-.851-.491-1.7l-.403-1.064c-.113-.295-.201-.465-.266-.511-.064-.046-.247-.069-.548-.069zm.097-1.289l-1.265-3.19-.064-.17c-.065-.171-.135-.26-.21-.265-.037-.006-.08.045-.129.153l-1.57 3.488c-.07.15-.106.25-.106.299 0 .14.124.209.371.209l.218.008h2.433c.268 0 .402-.067.402-.201a.72.72 0 0 0-.04-.186l-.04-.145zm10.917 1.29h-2.917c-.397 0-.644.032-.741.096-.097.065-.226.28-.387.645l-.523 1.184c-.237.542-.355.945-.355 1.208 0 .253.063.435.19.548.126.113.374.21.745.29.16.033.244.097.25.194.005.091-.07.137-.226.137-.06 0-.15-.003-.274-.008l-.774-.04a21.126 21.126 0 0 0-.894-.017c-.156 0-.276.003-.362.008a14.81 14.81 0 0 1-.452.032c-.145 0-.217-.048-.217-.145 0-.086.046-.142.137-.169l.298-.088c.107-.033.252-.163.435-.391a3.69 3.69 0 0 0 .451-.713l.234-.532 4.141-9.193c.07-.16.148-.241.234-.241.086 0 .158.078.217.233l3.464 8.863.178.435c.252.65.462 1.054.628 1.212.167.159.505.284 1.015.375.167.032.247.1.242.201-.005.092-.08.137-.226.137-.048 0-.15-.005-.306-.016-.28-.027-.776-.04-1.49-.04-.747 0-1.214.016-1.402.048a1.49 1.49 0 0 1-.25.033c-.14 0-.21-.057-.21-.17 0-.086.068-.142.202-.169l.25-.056c.268-.054.403-.237.403-.548 0-.285-.164-.851-.492-1.7l-.403-1.064c-.112-.295-.201-.465-.265-.511-.065-.046-.248-.069-.548-.069zm.096-1.29l-1.265-3.19-.064-.17c-.064-.171-.134-.26-.21-.265-.037-.006-.08.045-.128.153l-1.571 3.488c-.07.15-.105.25-.105.299 0 .14.123.209.37.209l.218.008h2.433c.269 0 .403-.067.403-.201a.72.72 0 0 0-.04-.186l-.04-.145zm12.738-4.648h-2.264c-.236 0-.385.032-.447.096-.062.065-.093.223-.093.476v7.895l.008.314c.027.629.379 1.002 1.056 1.12.188.032.282.094.282.186 0 .118-.076.177-.226.177-.064 0-.196-.016-.395-.049a6.338 6.338 0 0 0-.725-.024l-.588-.008-.628.008c-.226 0-.417.008-.572.024a8.955 8.955 0 0 1-.54.049c-.161 0-.242-.06-.242-.177 0-.086.089-.14.266-.162.414-.053.693-.167.838-.342.145-.175.217-.487.217-.939V45.51l-.008-.21c0-.193-.028-.316-.084-.37-.057-.054-.187-.08-.391-.08h-2.135c-.435 0-.75.087-.947.261-.196.175-.347.504-.455.987-.048.21-.12.312-.217.307-.097-.006-.145-.078-.145-.218 0-.113.032-.32.096-.62.08-.387.121-.707.121-.96 0-.246.028-.409.085-.486.056-.078.176-.117.358-.117h8.67c.295 0 .473.032.535.096.062.065.093.255.093.572 0 .317.013.548.04.693.027.183.043.314.048.395.006.161-.05.247-.169.258-.097.005-.161-.078-.193-.25-.07-.381-.183-.63-.339-.745-.155-.116-.459-.173-.91-.173zm11.98 4.624l2.224 3.287.258.387c.687 1.01 1.32 1.533 1.9 1.571l.259.016c.096.006.142.043.137.113-.006.08-.125.153-.359.217a2.988 2.988 0 0 1-.793.097c-.484 0-.917-.133-1.302-.399-.384-.266-.774-.7-1.172-1.3l-2.006-3.062-.113-.178c-.129-.22-.338-.33-.628-.33h-1.072l-.177.032c-.064.038-.097.124-.097.258v2.514l.009.322c0 .462.022.778.068.947a.87.87 0 0 0 .326.455c.231.183.588.298 1.072.346.193.022.293.084.298.186.01.107-.078.16-.266.16-.075 0-.234-.01-.475-.031-.22-.022-.562-.033-1.023-.033l-.774-.008-.419.008c-.182 0-.403.014-.66.04-.21.022-.355.033-.436.033-.134 0-.201-.057-.201-.17 0-.08.067-.134.201-.16.43-.081.712-.276.846-.585.135-.308.202-.917.202-1.824v-5.785l-.016-.838c0-.838-.293-1.305-.879-1.402l-.378-.056c-.172-.032-.258-.097-.258-.194 0-.112.091-.169.274-.169.043 0 .23.011.564.032.193.017.432.025.717.025.247 0 .669-.02 1.265-.057.43-.027.808-.04 1.136-.04 1.235 0 2.167.232 2.795.697.629.464.943 1.156.943 2.074 0 1.209-.663 2.143-1.99 2.804zm-2.369-.177h.91c.704 0 1.258-.193 1.66-.58.403-.387.605-.916.605-1.587 0-.78-.274-1.42-.822-1.922-.548-.502-1.246-.753-2.095-.753-.317 0-.535.052-.656.157-.121.105-.182.294-.182.568l.008.266v3.27c0 .253.034.413.101.48s.224.1.471.1zm12.545 4.052c0 .623.05 1.005.153 1.144.102.14.395.234.878.282.166.017.25.073.25.17 0 .129-.094.193-.282.193-.06 0-.199-.013-.42-.04a11.03 11.03 0 0 0-.587-.049l-.637-.032-.628.016a8.34 8.34 0 0 0-.798.024 2.903 2.903 0 0 1-.306.033c-.124 0-.185-.046-.185-.137 0-.108.088-.175.266-.202.45-.064.737-.184.858-.358.12-.175.18-.55.18-1.124l.009-.347v-2.4c0-.344-.024-.597-.073-.758-.048-.16-.166-.39-.354-.685l-2.248-3.569-.274-.443a1.765 1.765 0 0 0-.66-.616 1.729 1.729 0 0 0-.846-.238c-.156 0-.234-.048-.234-.145 0-.118.083-.177.25-.177.134 0 .27.008.41.024.35.038.715.056 1.096.056.79 0 1.295-.01 1.515-.032.236-.021.379-.032.427-.032.156 0 .234.054.234.161 0 .08-.062.14-.186.177-.36.108-.54.29-.54.548 0 .14.116.398.347.774l.225.386 1.684 2.66.105.16c.048.075.097.113.145.113.06 0 .116-.038.17-.113l.08-.12 1.168-1.773.395-.629c.376-.596.564-.996.564-1.2 0-.36-.339-.62-1.015-.781-.135-.033-.2-.094-.194-.186.006-.091.067-.137.186-.137.08 0 .222.016.427.049.155.026.531.04 1.128.04.547 0 .896-.008 1.047-.024.204-.022.346-.035.427-.04.145-.011.217.037.217.144 0 .086-.067.15-.201.194-.478.156-.875.456-1.192.902l-.524.782-1.958 2.916-.193.274c-.204.29-.306.556-.306.798v3.367z" id="SYÖPÄPOTILAAT-RY" fill="#1A1919"/></g></g></g></svg>