<svg xmlns="http://www.w3.org/2000/svg" viewBox="0 0 664.04 369.3" class="svg" focusable="false" aria-hidden="true" role="img"><defs><clipPath id="clip-path"><path class="cls-1" d="M0 43.02h289.54v292.43H0z"/></clipPath><clipPath id="clip-path-2"><path class="cls-1" d="M320.47 0h343.57v369.3H320.47z"/></clipPath><style>.cls-1{fill:none}.cls-4{fill:#272525}.cls-5{clip-path:url(#clip-path-2)}</style></defs><g id="Layer_2" data-name="Layer 2"><g id="Layer_1-2" data-name="Layer 1"><g clip-path="url(#clip-path)"><path d="M174.78 183.29c2-1.86 5.43-1.48 7.54.83 36.54 40.08 37.55 98.66 2.26 130.84S91 340.72 54.5 300.64v-.05c-2.11-2.31-2.11-5.71-.07-7.56zm-91.53 26.95c-2 1.85-5.43 1.48-7.54-.83-36.54-40.09-37.55-98.67-2.26-130.84S167 52.81 203.53 92.89c2.1 2.32 2.1 5.71.06 7.57zM239 120.5a5 5 0 01-3.54-1.45L214.05 98a5 5 0 017.08-7.19l21.41 21.1a5 5 0 01-3.54 8.59m13.55-15.01A5 5 0 01249 104l-21.4-21.07a5 5 0 017.08-7.19l21.41 21.11a5 5 0 01-3.54 8.64M.2 304.69l18.46-42.22a2.28 2.28 0 013.78-.61L48 290.34a2.28 2.28 0 01-1 3.69L3 307.77a2.27 2.27 0 01-2.8-3.08M263.79 88.2L244.37 69a5 5 0 010-7l17.33-17.5a4.94 4.94 0 017 0l19.42 19.22a5 5 0 010 7l-17.33 17.5a4.94 4.94 0 01-7 0" fill="#007fa3"/></g><path class="cls-4" d="M376.21 104.64l-32-81.16h-.48v80.68h-6.46V16.55h11.2l31.27 79.69 31.27-79.69h11.07v87.61h-6.2V23.48h-.61l-32.13 81.16h-6.93zm64.36-88.09h6.45v87.6h-6.45zm31.38 10.1v77.5h-6.45v-87.6h7.55l52.32 77.99V16.55h6.45v87.6h-7.67l-52.2-77.5zM577 22.27h2l19.23 54.39h-40.4zm-3.9-5.84l-31.63 87.73h7.17L556 82.5h44.16l7.55 21.66h7.17l-31.73-87.73zm-12.22-6.57h5.84V0h-5.84zm28.84 0h5.84V0h-5.84z"/><g class="cls-5"><path class="cls-4" d="M624.39 93.57h4.87a21.36 21.36 0 01.85 6.45c0 4.13-1 10.46-2.92 14.35h-2.8zM344.07 333.78c0 14.48-6.45 25.18-17.76 35.52-.73-.72-5.23-6.57-5.84-7.17 8.63-7.92 14.23-16.31 14.23-28.72v-77.14h9.37z"/></g><path class="cls-4" d="M369.86 314.92h36.75l-17.52-50.5h-1.83zm11.56-58.77h13.75l31.27 87.73h-10.22L409 323.31h-41.33l-7.18 20.57h-10.1zm138.33 8.52h-31.14v79.21h-9.38v-79.21h-31.14v-8.4h71.66v8.4z"/><path class="cls-4" d="M548.95 343.88v-31.64l-29.81-55.97h10.83l23.72 46.11 23.73-46.11h10.71l-29.81 55.97v31.64h-9.37z"/><g class="cls-5"><path class="cls-4" d="M642.75 249.58h-8.16V237.9h8.16zm-26.89 0h-8.27V237.9h8.27zm9.25 13.63c-17.52 0-28.35 10.58-28.35 36.74s10.83 37.11 28.35 37.11 28.47-10.83 28.47-37.11-10.83-36.74-28.47-36.74m.24-8.4c26.89 0 37.84 17.27 37.84 45.14s-11 45.39-37.84 45.39S587 327.94 587 300s11.44-45.14 38.33-45.14m-245.97-52.74c0-13.62-11.32-15.21-22.88-17.15-12.41-2.07-25.31-5.36-25.31-23.13 0-19 15.34-23.36 31.27-23.36a188.75 188.75 0 0119.23 1.22v6.3c-5.35-.61-12.53-1.7-19.59-1.7-14.48 0-24.09 3.4-24.09 17.39 0 13.27 10.1 15.33 21.05 17.16 13 2.07 27.13 4.38 27.13 23.48 0 15.94-10.22 26.53-30.78 26.53a139.69 139.69 0 01-23.12-1.95v-6.45c10 1.83 15.45 2.44 22.75 2.44 15.94 0 24.34-6.45 24.34-20.81"/></g><path class="cls-4" d="M416.95 227.43v-32.49l-29.69-55.12h7.54l25.31 48.19 25.43-48.19h7.54l-29.68 55.12v32.49h-6.45z"/><g class="cls-5"><path class="cls-4" d="M508.2 133.13h-5.85v-9.86h5.85zm-28.84 0h-5.84v-9.86h5.84zm11.44 11.2c-18.5 0-30.55 10.95-30.55 39.17s12.05 39.43 30.55 39.43 30.66-11.08 30.66-39.43-12.17-39.17-30.66-39.17m.24-6c26.77 0 37.23 17.65 37.23 45.14s-10.46 45.42-37.27 45.42-37.6-17.76-37.6-45.39 10.83-45.14 37.6-45.14m55.63 51.72h20.93c14.12 0 20.32-11.32 20.32-22.15s-6.2-22.15-20.32-22.15h-20.93zm0 6v31.39h-6.44v-87.65h27.86c17.89 0 26.64 13.75 26.64 28.23 0 14.24-8.75 28-26.52 28z"/></g><path class="cls-4" d="M626.08 145.54h2.07l19.23 54.39H607zm-3.89-5.84l-31.64 87.73h7.18l7.42-21.65h44.17l7.54 21.65H664l-31.71-87.73zM610 133.13h5.84v-9.85H610zm28.83 0h5.84v-9.85h-5.84z"/></g></g></svg>