<svg xmlns="http://www.w3.org/2000/svg" viewBox="0 0 289.54 292.43" class="svg" focusable="false" aria-hidden="true" role="img"><g id="Layer_2" data-name="Layer 2"><path d="M174.78 140.27c2-1.85 5.43-1.48 7.54.83 36.54 40.09 37.55 98.67 2.26 130.84S91 297.71 54.5 257.62c-2.1-2.31-2.1-5.71-.06-7.57zm-91.53 26.95c-2 1.86-5.43 1.48-7.54-.83-36.54-40.08-37.55-98.66-2.26-130.84S167 9.79 203.53 49.87v.05c2.1 2.31 2.1 5.71.06 7.56zM239 77.48a5 5 0 01-3.54-1.48l-21.41-21.1a5 5 0 017.08-7.19l21.41 21.11a5 5 0 01-3.54 8.66m13.55-15.01A5 5 0 01249 61l-21.4-21.09a5 5 0 117.08-7.18l21.41 21.1a5 5 0 01-3.54 8.64M.2 261.67l18.46-42.22a2.27 2.27 0 013.78-.6L48 247.33a2.27 2.27 0 01-1 3.68L3 264.75a2.27 2.27 0 01-2.8-3.08M263.79 45.19L244.37 26a4.94 4.94 0 010-7L261.7 1.5a4.94 4.94 0 017 0l19.42 19.22a5 5 0 010 7l-17.33 17.5a4.94 4.94 0 01-7 0" fill="#007fa3" id="Layer_1-2" data-name="Layer 1"/></g></svg>