<svg class="svg" aria-hidden="true" xmlns="http://www.w3.org/2000/svg" viewBox="0 0 289.54 292.43"><defs><style>.cls-1{fill:#007fa3;}</style></defs><title>Asset 1</title><g id="Layer_2" data-name="Layer 2"><g id="Layer_1-2" data-name="Layer 1"><path class="cls-1" d="M174.78,140.27c2-1.85,5.43-1.48,7.54.83,36.54,40.09,37.55,98.67,2.26,130.84S91,297.71,54.5,257.62l0,0c-2.1-2.31-2.1-5.71-.06-7.57Z"/><path class="cls-1" d="M83.25,167.22c-2,1.86-5.43,1.48-7.54-.83C39.17,126.31,38.16,67.73,73.45,35.55S167,9.79,203.53,49.87l0,.05c2.1,2.31,2.1,5.71.06,7.56Z"/><path class="cls-1" d="M239,77.48A5,5,0,0,1,235.46,76l-21.41-21.1a5,5,0,0,1,7.08-7.19l21.41,21.11A5,5,0,0,1,239,77.48"/><path class="cls-1" d="M252.55,62.47A5,5,0,0,1,249,61L227.6,39.91a5,5,0,1,1,7.08-7.18l21.41,21.1a5,5,0,0,1-3.54,8.64"/><path class="cls-1" d="M.2,261.67l18.46-42.22a2.27,2.27,0,0,1,3.78-.6L48,247.33a2.27,2.27,0,0,1-1,3.68L3,264.75A2.27,2.27,0,0,1,.2,261.67"/><path class="cls-1" d="M263.79,45.19,244.37,26a4.94,4.94,0,0,1,0-7l17.33-17.5a4.94,4.94,0,0,1,7,0l19.42,19.22a5,5,0,0,1,0,7l-17.33,17.5a4.94,4.94,0,0,1-7,0"/></g></g></svg>
