<svg xmlns="http://www.w3.org/2000/svg" viewBox="0 0 124.05 91.91" class="svg" focusable="false" aria-hidden="true" role="img"><defs><style>.cls-1{fill:#0087b1}</style></defs><g id="Layer_2" data-name="Layer 2"><g id="Layer_1-2" data-name="Layer 1"><path class="cls-1" d="M90.48 28.9c.27 0 .2-.23-.47-.42l-.58.15zm-4.2-2.16c-.82-.14-1.8-.21-1.42.26.88 0 1 .19 2 .14.67.2 1.11.52 1 .59.26 0 1 .44 1.42.36a8.08 8.08 0 0 0-3-1.16c-.34-.16-.07-.15 0-.19zM93.07 25l-.16-.4c.09.08.09.22.16.4zm-23.7 31.72c.17-.28.22-.41.21-.44-.15.26-.28.48-.21.44zm-4.23 5.87l.24-.35a1.1 1.1 0 0 0-.24.35zM93.07 25c.14.34.29.68.4 1 .14 0-.16-.54-.4-1zm-15.72-1.35a4.4 4.4 0 0 0 .58.22c-.17-.09-.35-.16-.53-.24zm3.48-11.89l-.29-.18a1.63 1.63 0 0 0-.31 0zm-12.9-4.97c.31.06.46-.19.6-.29a1.58 1.58 0 0 1-.71.07s.02.12.11.22zm7.21 14.27l.36.18zm13.13-2.72a.22.22 0 0 0 0 .16s.02-.08 0-.16zm-39.48-6.21s.1-.04 0 0zM63.78 5.4l-.18.14a.43.43 0 0 0 0 .16zM58.49 74c.16-.35.07-.18 0 0zM34.25 60.12c1.27-.58-1.64 1.54.21.59-.22.02 1.29-1.43-.21-.59zM77 23.45c-.17-.09-.35-.18-.52-.29a3.85 3.85 0 0 0 .52.29zM34.46 60.71l.19-.1zm13.4 18.14a.79.79 0 0 0-.17.28s.07-.07.17-.28zM55.24 81l-.33.44c.14-.21.25-.36.33-.44zm-4.18-14.78a11.29 11.29 0 0 0 .55-1.3c0 .09-.09.16-.14.26a4.27 4.27 0 0 1-.41 1.04zm-6.79 2.65l.2-.1.28-.27zM15.24 28.83a2.53 2.53 0 0 1 .57-.43c-.15 0 .08-.37.16-.54s0-.11-.07 0a5.9 5.9 0 0 0-.66.97zm62.17-5.32a.58.58 0 0 1-.38-.06l.37.18c.06-.03.08-.06.01-.12zM47.64 69.1l.17-.34a3.49 3.49 0 0 0-.17.34zM14.79 58.18l-.39.22a1.55 1.55 0 0 0 .39-.22zm32.58 10.91c0-.13-.06-.15-.14-.13a.36.36 0 0 0 0 .11c.06-.02.11-.01.14.02z"/><path class="cls-1" d="M26.81 21.05c-1.7.74-.65.68-.93 1-2 1-1 .18-1.81.32-1.23.66-2.05 1.43-3 1.89-.1 0-.29.06-.12-.12-.59.47-1.57 1-2.56 1.63A6.82 6.82 0 0 0 16 28.26a.62.62 0 0 1-.23.14c.35-.14.52 0 .59.07-.54.72-.64 1.5-.95 1.74a2.52 2.52 0 0 0 .18-.86 4.93 4.93 0 0 0-.26.93c-.3.36-.23 0-.11-.4s.41-.92.31-1a5.11 5.11 0 0 0-.56 3 6.19 6.19 0 0 0 .87 2.47c-.06.24-.57-.49-.79-1.14-.12-.32-.17-.61-.22-.68s-.08.08 0 .61a5 5 0 0 1 0-2.42c-.23.43-.28.58-.31.55a.88.88 0 0 1 0-.42c.08-.39.17-.83-.29 0a4.92 4.92 0 0 0 .42 3.06 5.47 5.47 0 0 0 .62 1 4.37 4.37 0 0 0 .41.48 6.35 6.35 0 0 0 .58.57 3.28 3.28 0 0 0 .9.44 3.93 3.93 0 0 0 1 .17c.7-.17-.21-.28.46-.46a10.16 10.16 0 0 1 3.36-.1 4.22 4.22 0 0 0 2.45-.23 3.33 3.33 0 0 0 .39-.24 3.51 3.51 0 0 1 .51-.23 5.05 5.05 0 0 1 1.93-.19l-.64.43c2.55-.16 1.41-.66 4.1-.61-.46.19-2 .28-1.6.3 1.75.17 1.2-.31 2.53-.42l.3.32c1.76-.17 3.64-.43 5.57-.67l-.39-1.86-2.92 1.19c.12-.16.57-.45-.13-.28-3.53 1.53-7.57 3.17-10.94 4.79-.36.31-.74.61-1.1.94-.28.16-.59.19-.31 0-1.31.63 0 .2-.52.65s-1 .4-.62.06c-2.09 1.49-5.84 4.32-8.16 5.7l.36-.39c-1.75 1.16-1.51 1.89-3.19 2.89l.26-.27a66.2 66.2 0 0 0-5.22 4.51l-2.25 2.2c-.37.36-.74.69-1.1 1a5.25 5.25 0 0 0-1.08 1.34c0 .25-.14.7-.19 1.3a4 4 0 0 0 .33 2 2.88 2.88 0 0 0 1.47 1.47c.53.22.91.21 1 .08a6.69 6.69 0 0 0 1.65.25 8.54 8.54 0 0 0 1 0 7.24 7.24 0 0 0 1.22-.2 8.79 8.79 0 0 0 .9-.28l1.11-.41c.9-.37 1.17-.92 2.23-1.47l.16.27 1.34-1h.94l1-.55c-.41.17-.92.28-.89.17a13.53 13.53 0 0 1 4-1.52L21.17 55c0 .15-.63.5-1.09.82 1.84-1.27.51.11 2.19-1.06-.27.06.05-.23.06-.31a26.93 26.93 0 0 0 4.51-2.21l-.19.34c1.53-.78 3.11-1.68 4.75-2.62l-1.54-2.28c-1.12 1-2.28 1.93-3.46 2.89 1-.71 1-.24.27.42h-.51c-.38.57.89-.56 0 .47-1 .78-.9.26-.4-.29l-1.14 1.07c-.13 0 .12-.29.12-.44-.37.56-2.3 1.45-2.8 2.3h-.13c-2.67 2.19-3.79 3.21-6 5.06.14.25-.75.92-1.23 1.67a24.31 24.31 0 0 0-4.91 5.07c-.88 1.64-.09.59-.38 1.38-.15 0-.53.57-.79 1s-.42.73-.22.06a8.16 8.16 0 0 0-.43 1.12 4.39 4.39 0 0 0-.17 1.15 4.5 4.5 0 0 0 .38 2 5 5 0 0 0 1.31 1.78 4.69 4.69 0 0 0 2.74 1.1c-.51-.15-1-.38-.72-.38.79.21 1.86.22 1.76.34l-.22.06a14.18 14.18 0 0 0 1.82-.51c.56-.19 1.13-.39 1.7-.62a34.59 34.59 0 0 0 3.34-1.49 23.47 23.47 0 0 0 5.26-3.49l-.14.13 2.7-2.22c1.35-.88-.67.71.39.16 2.84-2.51 4.91-3.35 7.29-5.36a22.22 22.22 0 0 0 5-3.08l-1.46-2.32c-1.93 1.16-3.75 2.56-5.15 3.42h.27c-.57.67-.86.61-1.37 1 .16 0 .8-.51.47-.08a39 39 0 0 0-11.69 19.18 4.56 4.56 0 0 0 0 2.3 6.65 6.65 0 0 1 .09 1.37c0 .31 0 .66-.09 1.12v.55c0 .07 0 .16.06.14l.88.15c-.53 0-1.51.31-1.32-.36v.5h.33l.93.06c.62 0 1.2.06 1.81 0l.78-.1c.19 0 .38-.08.57-.12a10.27 10.27 0 0 0 1.12-.31 16.46 16.46 0 0 0 4-2 47.19 47.19 0 0 0 6.22-5.36c-.19.26-.13.34-.51.68a11.17 11.17 0 0 0 3-2.86c.63-.53.26 0 .71-.25.92-.63 1.89-2.08 2.49-2.29.1 0-.18.26-.32.41.46-.57 2.55-2.21 1.84-2A26.55 26.55 0 0 0 46.07 70l1-.88a2 2 0 0 1 .03-.12.35.35 0 0 1 .13-.05 1 1 0 0 1 .46-.54c.16-.12.27-.2.66-.84a1.9 1.9 0 0 0-.27.59s.09-.07 0 0 0 .2.07.21c-.19.16-.33.5-.58.66a.23.23 0 0 0 0 .2.19.19 0 0 0 .22.1l-.13.13a4.69 4.69 0 0 0-.2.44c-.13.3-.22.62-.32.93-.19.63-.3 1.25-.42 1.84a7.15 7.15 0 0 1-.89 2.87c-.35 2.13-.58 4.19-.74 6.2q-.12 1.5-.18 3a11.85 11.85 0 0 0 0 1.59 4 4 0 0 0 .6 1.72c-.12 0-.39-.28-.58-.78a4.23 4.23 0 0 1-.23-1.78c.06-1 .13-2-.11-2v2.64a4 4 0 0 0 1.28 2.61 3.29 3.29 0 0 0 2.83.81 6.63 6.63 0 0 0 2.61-1.18c.85-.59-.33.54-.66.76a10.53 10.53 0 0 0 2.28-2c.58-.69 1.13-1.37 1.66-2.07a29 29 0 0 0 2.69-4.25 2.53 2.53 0 0 1-.26.65c.33-.55.83-1.24.61-1.28l-.26.56c-.77.72.74-2.5.64-2.68 0 1.24 1.65-2.72 1.49-.86.16-.39.32-.9.15-.88.33-.53.49-.66.34 0 1-2.07.38-1.46 1.33-3.28.08 0-.07.44-.06.68a13.77 13.77 0 0 1 1.48-3.52c0 .12.16 0-.08.44 1.36-2.63 2-4.69 3.79-7.38-.13 1 .7-.87 1.11-.82.26-.51.55-1 .83-1.53l-.53.49a37.15 37.15 0 0 1 2.18-3.58l-.51 1 1.56-2.41c-.35.41-.69.84-1 1.26.71-1.39-.5-.14.76-1.75a21.82 21.82 0 0 1 1.54-1.77 10.78 10.78 0 0 1 1.5-2.15c.28-.16.19.44.37.34.2-.78 2.13-2.88 2.49-3.81-.14.3 0 .43.09.38l.21-.65c.51-.49.61-.55.65-.36 1.41-1.6-.81.2 1-1.58a4.38 4.38 0 0 1-.27.45c1.73-1.86 3.13-3.79 4.84-5.4.75-.24-1.34 1.54-.56 1.19a80 80 0 0 1 7-7.42l-.47.38c0-.71 2-1.43 3-2.69-.27.29-.2.57-.16.45a9.66 9.66 0 0 0 2.56-2.75 4.06 4.06 0 0 0 .51-2.32 6.94 6.94 0 0 0-.76-2.43l.29.35a26.76 26.76 0 0 0-2.21-4.5c-.32-.31-.79-1-.67-.47a15.66 15.66 0 0 0-3.8-5.1c-1.52-1.41-3.11-2.6-4.49-4.06.38.29 1 .61.67.37-.9-.68-1.88-1.26-2.83-1.86.1.33.3.36.77.91a13.56 13.56 0 0 1-2-1c1.36.65.18-.32-.32-.78.06.12-.17.07-.16.17-1.35-1.18-.46.24-2.46-1.07l.17-.06c-.85-.31-1.64-.54-2.53-.89-.28-.39.93.22 1.07.05-1.28-.5-2.67-.49-3.76-1.08.57.11 1.37.32 1.93.47a8.22 8.22 0 0 0-2.29-1h.09c-.73-.25-1.47-.47-2.22-.7l.56.22a8.43 8.43 0 0 1-2.69-.12A5 5 0 0 0 66 5.56a1.76 1.76 0 0 0-1.4 1 2.12 2.12 0 0 1 .71-.84c.14-.1.11-.12 0-.11s-.67.29-.67.11a2.44 2.44 0 0 0-.87.94c-.17.32-.24.53-.25.35a9.17 9.17 0 0 0 .05 1.85 3.69 3.69 0 0 0 .76 1.83c-.06.1.47 1.09.15 1 .33.66.37.54.28.3s-.18-.65-.1-.62c.27.48.61 1 .9 1.55a18 18 0 0 0 1 1.76 11.36 11.36 0 0 0 3 3.38 29.38 29.38 0 0 0 4.89 3c.61.59-.77-.08-.77-.08a12.7 12.7 0 0 0 3.11 1.92c-.27-.06-.08.15.22.42.92.45.77 0 1.91.76a3.86 3.86 0 0 1-1.1-.12c1.12.48 2.28.83 3.46 1.26.24.28-.8-.06-1.24-.16a15 15 0 0 0 3.9 1.22l-.79-.42c.48.18.16.31-.21.21-1.2-.26-1.56-.78-1.58-.89l.83.3c-.6-.88-3.29-1.34-4.85-2.26h.85c-.58-.19-1.19-.35-1.77-.57-.28-.29-.39-.62.39-.24-1-.82-1-.42-1.85-1.2-.09-.1 0-.09.07 0L74 20.48c.25.06 0-.35.59.11-1.7-1.4-3.06-1.86-3.49-2.65l.15.1c-.61-.46-.91-.72-1.09-.84s-.21-.1-.24-.05-.06.27-1-.44c-.18-.55-.31-1.13-.46-1.67h-.43c-.21-.23-.53-.78-.37-.75-.84-.84 0 .24-.55-.2-.36-.69-.88-1.6-1.34-2.38s-.66-1.53-.51-1.77c-.44-.42.42 1.4-.39 0 .14-.31 0-.72-.21-1.27a1.93 1.93 0 0 1 .15-1.8c0 .22-.06.57 0 .76s0 .12.25-.35c-.14-.37.28-.88.89-.9a10.11 10.11 0 0 1 1.89.26c.06-.18.69-.1 1.56 0s1.94.44 2.89.71a17.43 17.43 0 0 0 1.88.8 34.48 34.48 0 0 1 3.14 1.52h-.07c.47-.17 2.13.74 3.33 1.43-.17.16-.42.11-1.11-.19l1.1.66a4.06 4.06 0 0 1 1.4.67l-.42.05A21.07 21.07 0 0 1 86 15.72c.28-.09-.81-1.74 1-.22 0 .16-.14.39-.62 0a4.8 4.8 0 0 1 .84.76l-.83-.5c.64.79.51.24 1.07.83-.15.12.31.52.12.55a4.78 4.78 0 0 0-.71-.73 7.47 7.47 0 0 1 1.38 1.94c0-.13.2-.18.66.31 1.06 1.35.17.61.7 1.46.39.23.86 1.22 1.12 1.08a1.23 1.23 0 0 1 .27.8c.31.32.82 1.22 1.27 1.88s.69 1.17.61.65l-.09-.21.08.13a7.15 7.15 0 0 1 1.45 4.06c-.1 1.42-1.25 2.42-2.28 3.4l-.04-.12a48.77 48.77 0 0 0-3.67 3.64c-.38.35-1 .7-.94.46a17.72 17.72 0 0 1-2.46 2.4c.84-1.07-.44.21.91-1a13.42 13.42 0 0 0-2.84 2.8c.26-.64-1.14.73-1.66 1.39l1-.76c-.61.7-1.2 1.27-1.77 1.87v-.56c-2.74 2.38-3.75 5.3-6 7-.41.88 1.35-1.42 1-.58-1.07 1.24-2.5 2.31-2.82 2.72-1.49 1.7-.89 2-2.35 3.81.27-.18.69-.22-.24 1.27-1 1.33-1.55 1.39-1 .48.21-.34.35-.47.38-.44.26-.46.63-1.05.14-.6v.24c-.55.61-1.82 2.5-1.68 1.95-.6 1.1-.14.54.43-.18-1.31 1.66-1.83 2.75-3.06 4.55.24-.26.52-.46.34-.17-1.79 2.65-.53 1.32-1.58 3.2-.77 1-.17-.6-1.1 1.37-.75 1.11-.41.1-.24-.41a31 31 0 0 1-2.47 4.17l.4-1c-.24.58-.48 1-.72 1.5l.48-.42c-.31.52-.55 1-.63.93-.15.63.57-.25.19 1-.48.66-1 2.25-1.43 2.35 1.27-2.21-.41.11.53-1.83a8.61 8.61 0 0 1-.71 1.36c-.07.06 0-.11.05-.26-1.38 2-.2 1.16-1.4 3.36 0-.36-.58.35-.75.72.5-.88.5-.28.16.6A18 18 0 0 0 55.24 81l.56-.79a7 7 0 0 1-1 2c-.17 0 .47-.91.2-.61-.42 1.22-1.82 2.15-2.73 3.6-.6.53-.31-.15-.81.33a3.23 3.23 0 0 1-1.29 1.24c-.4.2-.83.45-1.46.72.22.07.37 0 .32.12a1.69 1.69 0 0 1-.76.36 4.45 4.45 0 0 0 2.37-1.32 6 6 0 0 1-1.42 1.3 6.79 6.79 0 0 0 2-1.49c-.56.79-.55.68-.07.53-.61.3-1.09.71-1.66 1a1.83 1.83 0 0 1-1.84.19l.24-.54a2.24 2.24 0 0 1-.65-.68 2.41 2.41 0 0 1-.32-1.08 19.5 19.5 0 0 1 .19-3.88l-.22 1c-.19-.44.19-1.92.26-2.94.18.13.35-.49.54-.89-.17 0 .42-2.24.11-2.59.17-.44.37-.88.56-1.31.7-2.42.15-2.91 1-5.27 0 .81.43-.23.1 1.37.12-.38.24-.75.32-1 0-.11.11-.37.13-.48s0-.2 0-.21a18 18 0 0 0 .67-2 12.21 12.21 0 0 1 .94-2.4c.05-.36-.3-.05.22-1.28.15-.25.23-.28.23-.28v-.41c0-.16-.08-.09-.55.73.23-.41.45-.83.68-1.27s-.17-.09-.44.11-.66.52-1 .85c-.75.64-1.57 1.38-2.36 2.09s-1.53 1.37-2.24 2a9.32 9.32 0 0 1-1.54 1.09c-1.29 1.23-2.87 2.7-4.08 3.79 0-.11-.06-.08.18-.26-1.8 1.34-.65 1.33-2.7 2.87-1.19.62.9-1 .21-.58-.69-.26-2.25 2.1-3.79 3l.29-.3c-1.14.69-2.22 2.34-3.89 3.61 0 0 0-.1-.05-.08a11.8 11.8 0 0 1-5 3.43c.53-.4.81-.42.38-.52-.4.16-.32.22-.33.34s-.12.3-1 .5c-.67 0-1.55-.18-1.36-.49a3.29 3.29 0 0 0 .94 0 1.2 1.2 0 0 0-.72-.12h-.23v-.19a1.89 1.89 0 0 1 0-.41h.16v-.42a1.8 1.8 0 0 1 0-.29v-1.43a10.6 10.6 0 0 1 .48-2.77l-.2.25c.11-1.59.54-1.19.82-2.72l.54-.3a25.28 25.28 0 0 1 1.92-5c-.3 1-1.1 3-1.45 4.28l.85-2a9.48 9.48 0 0 0 .67-1.67 6.57 6.57 0 0 1-.55 1.2 9.2 9.2 0 0 1 .73-2A15.21 15.21 0 0 1 28.78 68c.2.36 1-.67 2-1.84a11.46 11.46 0 0 1 3-2.68A21.69 21.69 0 0 1 40 58.9L38.8 57a77.1 77.1 0 0 0-2.71 1.84c1.57-.36-1 .72-.43 1.07a6.77 6.77 0 0 1-1.19.82l-2.65 1.4c-.68.26.69-.64.54-.7-1.79 1.19-.89.3-2.15 1 .37 0-.43.68-1.48 1.31L30.3 63c-2.3 1.93-2.42 1-4.71 3l.67-.71c-1.2 1-4.7 3.29-5.65 4.53-.27.09-.65.15-.12-.26a53.15 53.15 0 0 1-4.82 3 12.49 12.49 0 0 1-2.46.94 2.14 2.14 0 0 1-1.7-.25l.24-.06c-.42-.12-.93-.15-1.21-.75.07 0 .23.06.11-.12a2.22 2.22 0 0 1-.5-.65 1.74 1.74 0 0 1-.18-1.1 2.21 2.21 0 0 0 .18.53 3.29 3.29 0 0 1 .07-.84c0-.13.09-.25.12-.37s.12-.32.18-.48c.24-.62.5-1.19.76-1.75a14.7 14.7 0 0 1 2.1-3.31c.3.28 2.31-1.59 3.43-2.43V62c1.55-1.33 2.9-2.5 4.18-3.71s2.52-2.39 4-3.69a61.33 61.33 0 0 0 6.54-4.89l-1.38-2c-1.22.65-2.42 1.27-3.5 1.75.56-.2.08.35-.51.72-.84.35-2.08 1.44-2.14 1l.29-.14c-.79 0-2.4.92-3.71 1.57v.58c-3.73 1-8.88 4.62-11.08 4.84-.78.5-1.83 1-2.61 1.45l-.07-.27a8.31 8.31 0 0 1-2.72.65A3.19 3.19 0 0 1 3 59.7a.89.89 0 0 1-.62-.59.85.85 0 0 0 .29.16c-.13-.27-.41-.53-.56-.89A1.32 1.32 0 0 1 2.33 57a4.83 4.83 0 0 0 .63 0c2.12-2.24 4.65-4.07 6.72-6.32 0 .08 0 .23-.36.56 1.08-1 4.53-3.28 3.77-3.42.13.14.76-.33 1.53-1s1.68-1.43 2.32-2l-.05.38a10.41 10.41 0 0 1 2.55-2.33c.42-.22.47 0-.09.24 1.4-.68.87-.89 2.58-1.7l-.51.5a5.78 5.78 0 0 0 1.89-1.42 7.5 7.5 0 0 1 3-1.25A3.93 3.93 0 0 1 28 38.05c.16 0-.13.23-.27.33 2.49-1 3.48-2 5.29-2.42a.39.39 0 0 0 .35 0c-2 .8-3.53 1.49-3.39 1.41.1.22 1.68-.42.59.45.58-.37 1.37-.87 2.22-1.36a14.84 14.84 0 0 1 2.55-1.15.63.63 0 0 1 .24 0l-.15.08a4.88 4.88 0 0 0 1-.39c.51-.14.84-.23 1.32-.4a.31.31 0 0 0 .18 0l8-1-8.52-1.33a24.64 24.64 0 0 0-2.67.15c.09.28-1 .32 0 .47-.14 0 .16 0 .73-.1a2.44 2.44 0 0 0 .36-.06h-.06l1.63-.14 6.26-.53-5.92 2.19-.47.18.44-.27 4.44-2.63-4.65 1.24a5.77 5.77 0 0 1-1.83.15c-.43.21-.9.43-1.17.54-1.2-.3-3.49-.34-3.82-.56l-4.27.51c-.73.1-1.35.17-2 .32a7.36 7.36 0 0 0-1.51.55 1.72 1.72 0 0 1-1.15-.06 9.23 9.23 0 0 0 1.13-.3c-.72.19-1.8.38-2.73.52a6.35 6.35 0 0 0-1.86.38c-.42-.07-.47-.14-.5-.19s.06-.05.11-.07.11 0 .08-.05a1.18 1.18 0 0 1-.38-.17l-.17-.15.14.06h.1a4.28 4.28 0 0 1-.42-5c1-1.71 2.91-3 5.58-3.86a1.76 1.76 0 0 1-.65.17c5.9-2.48 12-5.68 18.08-7.56A9.07 9.07 0 0 0 43 16.52l.47.13 1.62-1c2.36-1.27 4.58-1.14 7.45-3H52c1.13-.47 3.41-1.84 3.34-1.54a1.43 1.43 0 0 1 .72-.51l.11.12c.84-.55 1.67-1.11 2.48-1.7 2.07-1.08 0 .75 3-1 1-.72 2.76-2.37 2.31-2.18s-1.14.63-1.26.52l.91-.7c-.08-.51.37-1.37-2.13-.11-.48.45-1 .86-1.49 1.28l-.65.14L60.71 6a4.36 4.36 0 0 0-1.79 1.23 1.68 1.68 0 0 0-.83.19c-.48.45-1 .91-1.43 1.34-.29-.05.57-.72-.6-.2-.69.61.95 0-.29.77-.92.26-.75 0-1.64.65-.19 0 0-.21.34-.46a25.56 25.56 0 0 0-2.61 1.66c-1 .2-3 1.46-3 1a12.68 12.68 0 0 1-2.24 1.39c1.3-1.13-3.1 1.29-2.93.59-.94.9-4 1.85-5.89 2.9a1.25 1.25 0 0 1 .47-.28 18.12 18.12 0 0 1-2.28.63c0 .42-1.73 1.22-2.58 1.84-1.52.23.66-.78.09-.93.19.26-2.28 1.3-1.7 1.34-1.15.23-1 .29-1.63.22 0 .53-.95.5-1.69 1.16-1.61.43-.57-.26-2.18.61-.9.21.51-.6.51-.6zm7.54 12.85l.83-.33c-.18.06-.42.15-.83.33zM31 35.29l1.46-.62c.16 0 .06.18-.28.33.13-.14-.68.15-1.18.29zm5.59-2.9c.57-.08.76 0 .84 0l-1 .11h-.07a.57.57 0 0 1 .2-.11z"/><path class="cls-1" d="M35.56 32.84h-.24.35l.19-.11zm57.33-8.35v-.08c0-.04-.01.05 0 .08zM11.17 60.01l-.03-.06-.26.18.29-.12zM79.85 9.66a.63.63 0 0 0-.19-.19 1 1 0 0 0 .19.19zm-8.03-3.45l-1.18-.39c.51.18.88.29 1.18.39zm-7.04-.7a.37.37 0 0 0-.08.2zm-7.7 76.05l-.13.23c-.27.55-.07.21.13-.23zm15.33-27.31c-.15.3-.3.6-.47.9.34-.44.59-.79.47-.9zM47.62 69.13zm23.47-12.8a7.61 7.61 0 0 0 .85-1.18 11 11 0 0 0-.85 1.18zm11.66-30.1l.3.14zm.35.11l.34.1a1 1 0 0 0-.34-.1zm1.07.32l-.73-.22a2.14 2.14 0 0 0 .73.22zm-9.3-4.54h-.14a.17.17 0 0 0 .14 0zm-2.27-1.51a12.8 12.8 0 0 0 2 1.56h.12c-.43-.17-1.55-1.3-2.12-1.56zm-6.47-9.06a21 21 0 0 0 1 1.92c-.13-.38-.29-.86.3-.07-1.12-2.48.09.6-1.3-1.85zM66 6.5c-.76.29 0 .13 0 .22.24-.09.45-.12.47-.15s-.11-.08-.47-.07zm20.94 29.67l-.08-.27c-.65.67.06.1.08.27zm-5.75 7.75l.72-.55.12-.47-.84 1.02zM76.1 47l.23-.34-.92 1.26.69-.92zM45.85 67.14a3.83 3.83 0 0 1 .48 0c.67-.65.8-1.25-.48 0zM24.13 78.76a4.22 4.22 0 0 0 .69-1.88c-.26.75-.61 1.48-.69 1.88zm-5.35-25.17l.61-.42-1.19.69.58-.27zm35.8 31.17c-.15-.08-.26.12 0 .36A2.45 2.45 0 0 0 55 85a2.4 2.4 0 0 1-.42-.24zm1.73 1.58c.49-.1.93-.45.65-.73-.39.32-.47.21-1 .5-.38 0-.58-.29-.47-.38-.16 0-.43-.29-.69-.24a1.31 1.31 0 0 0 1.54.63c.15.09.01.16-.03.22zM69 72.93l.06-.25a.83.83 0 0 0-.06.25zm9.3 17.44c-.17.11-.22.18-.22.21.15-.11.27-.2.22-.21zm3.36-2.99l-.15.22a.41.41 0 0 0 .15-.22zM69 72.93l-.13.64c.13.05.13-.33.13-.64zm-8.81 10.68a1 1 0 0 0-.12.3l.15-.25zM69 67.12v.1q-.09.39-.18.81zm-1.68 4.18c.05-.07-.13-.39-.18-.57a1 1 0 0 1 0 .44.53.53 0 0 0 .18.13zm-5.24 11.38l-.07.23zm6.76-12.61c0 .1-.08.19-.11.28.04-.09.07-.18.11-.28zM93.49 5.54s-.05-.04 0 0zM85.89.65H86a.42.42 0 0 0 0-.15zM84.1 79.84c0 .23.01.16 0 0zm18.27.85c-.23.79-.35-1.27-.6-.09.11-.11.46 1.07.6.09zm-42.04 2.79l.17-.26a2.73 2.73 0 0 0-.17.26zm41.44-2.88v.13zM86 64a.33.33 0 0 0-.11-.1zm-1.89 11.37l.08-.31a2.86 2.86 0 0 0-.08.31zm2.26-13.78c0 .16 0 .32.1.29v-.15c-.03.09-.05.11-.1-.14zm.92 3.91a.65.65 0 0 0 0-.13 1.55 1.55 0 0 0 0-.21zM104 23.23a1.09 1.09 0 0 1 .08-.4c-.15.17-.68-.71-.08.4z"/><path class="cls-1" d="M60.32 83.7a.25.25 0 0 1 0-.22 1.74 1.74 0 0 1-.11.18s.07.06.11.04zM86.6 56.11l.66 1.3c-.18-.41-.41-.85-.66-1.3zm24.95-2.05l.23.07a.55.55 0 0 0-.23-.07zM89 62a9.24 9.24 0 0 0 .05 1.2.68.68 0 0 0 .11.19z"/><path class="cls-1" d="M100.32 16.43c.42 1 .53.31.82.44.61 1.12 0 .64 0 1.12.41.69 1 1.1 1.22 1.64 0 .06 0 .18-.14.09.63.63 1.09 2.24 1.87 3a.3.3 0 0 1 0 .16.56.56 0 0 1 .39-.36c.21.42.6.68.47 1-.13-.27-.23-.24-.35-.33l.31.4c-.1.55-.41-.56-.64-.44a15.72 15.72 0 0 1 1.57 2.4c-.23.3-.9-1.5-.72-.47l-.41-1.09c-.07 1-.28-.64-.42.34.6 1.4.93 1.44 1.54 2.82.33.22.2-.23.52 0 1.31 1.74 0 1.89 1.19 3.07.39.26.85.19 1.18 1.29l-.52-.16c.66 1.31.88.48 1.38 1.95-.26-.17-.66-.95-.59-.74.21 1 .52.52.89 1.19l-.23.3c.79 1.35 1.83 2.74 2.72 4.23-.13 0-.37-.25-.26.16a48.41 48.41 0 0 1 3.13 6l.66.55c.09.16.06.37-.09.22.32.77.18-.06.48.23s.17.62-.05.4a21.47 21.47 0 0 1 3.15 4.72l-.23-.2c.54 1.07 1.23.81 1.6 1.88l-.16-.15c.32.57.71 1.12 1 1.61a2.4 2.4 0 0 1 .38 1.37c-.05.79-.92 1.17-1.74 1.09-.1.24-.66.27-1.19.23s-1-.13-1.17.14c-1.34-.57-.93-.56-2.78-1.27-.49-.17-.86.12-1.51 0l.09-.29h-.95l-.3-.52-.6-.17c.22.12.43.34.36.4a3.68 3.68 0 0 1-2-1.34c-.7-.28-1.4-.57-2.09-.91.11-.07.45.09.75.18-1.19-.37 0-.38-1.1-.74.08.15-.17.11-.23.15a13.25 13.25 0 0 0-2.14-1.72l.27-.06-1-.83-.25-.22-.15-.13a2.84 2.84 0 0 1-.25-.23l-1-1c-.32-.34-.64-.63-1-1l-1-1.1-1.88-2.17c1 1.34 1 2 .53 1.4v-.05a5.86 5.86 0 0 0-.39-.64c.12.58.13.36.18.35s.07 0 .1.13 0 .12 0 .2 0 .28.08.5c0 1-.37 0-.49-1l.15 1.8a5.59 5.59 0 0 1-.29-.9 6.56 6.56 0 0 1 0 1.77 6.3 6.3 0 0 0 .11 2.13H99c0 .88 0 1.64.06 2.33 0 .38 0 .73.06 1.06 0 .67.09 1.3.12 2.1.28 0 .23.65.46 1.13-.06 1.18-.26 2.49-.21 3.91.16 1 .25.29.42.73-.25.08-.2 1.5-.4.77.08 1.7.1 2.18.35 4.33.1-.24.14-.5.23-.37 0 .39-.09.89-.22.84v-.1c.43 2.41-.64 5.6-.07 7.52v-.11l.32 2c0 .92-.2-.55-.35.14.47 2.15 0 3.41.33 5.18a7.63 7.63 0 0 0-.3 3.1c0 1.16-.19 2.32-.73 2.7h.19c0 .38-.3.28-.47.41.12.08.34-.16.29.06a2.22 2.22 0 0 1-1.83.92 4.59 4.59 0 0 1-2.38-.73 5.62 5.62 0 0 1-1-.8 11.11 11.11 0 0 1-.92-1 11.45 11.45 0 0 1-1.35-2.35 1.53 1.53 0 0 0-.78-.88c-.26-.16-.49-.41-.52-1.33.14.14.3.27.45.4a12.65 12.65 0 0 1-.92-4.3c-.12-1.51-.14-3-.34-4.53.08.17.18.18.18.47a3.81 3.81 0 0 0-.23-2.36c0-.47.17-.11.27-.4.12-.65-.36-1.61-.14-2 0-.06.09.18.11.3-.12-.42-.08-2-.33-1.56a8.15 8.15 0 0 0-.14-1.66c0-.26-.08-.51-.11-.76l-.1-1.23a8.62 8.62 0 0 1-.51-1.86c-.16-.67-.33-1.26-.5-1a3 3 0 0 0-.36-1.82 4.8 4.8 0 0 0-.92-1.5c.15 0-.37-1-.19-1-.5-.89-1.07-1.72-.91-1l-.21-.54a.4.4 0 0 0-.1.16 3.07 3.07 0 0 0-.17.49 12.69 12.69 0 0 0-.27 1.34c-.15.92-.25 1.64-.61 1.35-.19 2.21-.36 4.34-.53 6.41-.07 1.14-.14 2.24-.23 3.33-.44-.14.27-2.4-.21-2.36a33.58 33.58 0 0 1-.23 5.32c-.13.52-.16-.33-.21-.51-.08 2.07-.56 4-.55 5.8 0 0-.06-.21-.07-.4 0 .36-.18.82 0 .81v-.36c.37-.53.43 1.51.58 1.59-.51-.68-.38 1.78-1 .72 0 .24.06.55.2.51-.08.35-.18.45-.28.07-.06 1.3.22.87 0 2-.1 0-.1-.25-.2-.39a4.07 4.07 0 0 1-.06 2.15c-.05-.06-.14 0-.09-.25-.3 1.59-.14 2.89-1.16 4.39-.12-.66-.42.45-.8.3a8.31 8.31 0 0 1-.44.76l.36-.16c-.49.6-.86 1.29-1.52 1.58a5.71 5.71 0 0 0 .39-.47 6.49 6.49 0 0 1-1.22.85 4.63 4.63 0 0 0 .81-.3c-.61.59.35.39-.71.82.2-.12-.8.34-1.28.2a2 2 0 0 1-1.42.27c-.14-.14.15-.4 0-.49a1.44 1.44 0 0 1-1.09 0 8.25 8.25 0 0 0-1.19-.36c.19 0 .3-.13.28-.19h-.42c-.24-.3-.24-.37-.09-.45-.73-.79-.12.63-.85-.51.08.06.08 0 .25.14a7.49 7.49 0 0 1-1.54-3.55c.29-.44.33 1.07.55.58a15.63 15.63 0 0 1-.74-5.62l-.05.34c-.53-.28.32-1.38.12-2.34 0 .24.28.32.22.25a33.23 33.23 0 0 0-.08-4.58l.25.3a11.72 11.72 0 0 0 .16-1.38v-.87c0-.28.06-.68.08-1s-.07-.89-.3-.36a15.36 15.36 0 0 0 .41-2.82 17.05 17.05 0 0 0 0-2.17c0-.6-.07-1.09-.05-1.76s.12-1.55.35-3.15c0 .35.11.3.12 0v-1.51l-.3.82c-.16.91-.07.62-.06.83s-.06.34-.1.57a.88.88 0 0 1-.07.2c-.25.88-.5 1.7-.65 2.06a8.75 8.75 0 0 0 .41-1.62.76.76 0 0 0-.06-.47c0 .27-.17.81-.22 1.12-.12-.79-.46 2.36-.8 2.46l.1-.57c-.27.82-.51 1.85-.71 2.25 0-.63.25-1 .35-1.78a19.22 19.22 0 0 0-.56 2c-.17.66-.29 1.11-.46 1.16.13-.51.34-1 .49-1.6-.16 0-.27.11-.37.28s-.18.39-.33.7v-.06l-.75 1.46.22-.31a6.52 6.52 0 0 1-.5 2.23 5.1 5.1 0 0 0-.51 1.8c.07-1.33-.16-.28-.4-.49-.2.28-.48.71-.51.54 0 .66-.56.88-.56 1.82-.1 0-.25.6-.43.38-.23.77.23-.11.32 0-.16 1.26-1.47 2.52-1.71 4.34-.41 1.48-.18 1.87-.63 3.22-.35.36-.16-.5-.16-.5a9.15 9.15 0 0 0-1 1.78c0-.17-.13-.08-.34 0-.3.44.08.52-.52 1a2.39 2.39 0 0 1 .06-.66 5.45 5.45 0 0 1-1.15 1.51c-.22-.06.19-.4.28-.64a5 5 0 0 1-.93.71 2.61 2.61 0 0 0-.74.5h.49c-.26.08-.19-.19 0-.29.49-.38.83-.27.92-.2a2.7 2.7 0 0 1-.39.27c.34.17.81-.11 1.17-.54s.66-1 .95-1.38c0 .2.06.39.08.59.13-.35.23-.7.32-1 .2-.13.49-.15.27.32.56-.53.21-.63.71-1.08.06 0 .06 0 0 .05l.2-.7c0 .16.32 0 .08.39.77-1.09.53-2 1-2.37v.11c.54-1.7-.22-.27-.05-1.64l1-.55-.22-.28c.08-.16.24-.49.33-.38.06-.71-.17.06-.2-.39.59-.71.8-2.3 1.32-2.3-.09-.38-.48.71-.27-.22.58 0 .32-1 .85-1.7.16.33-.26 1 .26.33-.24-.61.73-1.52.75-1.81s0-.46.1-.84a12.91 12.91 0 0 0 .5-1.35c0 .3.63-1 .77-1v.28a15.48 15.48 0 0 1 .86-3.11c-.25 1.2-.39 1.76-.57 2.48l.15-.39c.12-.51.22-.91.35-1.31 0-.06 0-.06 0 0l-.2 1.31c0 .2.09 0 .14.1s.07.35-.06 1.08c.15-.44.37-1.27.57-2s.39-1.32.45-.84c-.16.54-.44 1.37-.49 1.27s.12 0 0 .39a1.57 1.57 0 0 0-.25.33c-.14.79.21-.42.17.06-.23.61-.18.71-.35 1.11 0 0 .11-.54 0-.42a8.54 8.54 0 0 1-.38 1.68c.13-.29.3-.65.31-.43 0 .65-.27.7-.39 1.17.14-.08 0 .43.28.13a.88.88 0 0 1-.24.47 2.36 2.36 0 0 1 .07.71c0 .47 0 .8.22.52v-.13.08c.21 1.71-.33 3.51-.29 5.19h-.1a21.77 21.77 0 0 0 .15 3c0 .3-.19.7-.31.57a7.32 7.32 0 0 1 .07 2c-.21-.78-.14.28-.17-.81a4.32 4.32 0 0 0 .24 2.36c-.31-.35-.2.84 0 1.31a6.43 6.43 0 0 1 0-.76c.14.54.24 1 .38 1.51l-.4-.16a4.55 4.55 0 0 0 1.53 2.75c.76.69 1.52 1.15 2.23 1.81.65.07-1.09-.73-.45-.71a7.44 7.44 0 0 0 2.3 1.24 2 2 0 0 0 1.48-.23 5.14 5.14 0 0 1 1.36-.6c-.24 0-.46-.25.42-.79s1.3-.23.81.22c-.21.14-.33.16-.34.12-.26.21-.66.43-.22.37l.07-.16c.54-.1 1.69-1 1.53-.65.55-.6.15-.35-.35 0a7.86 7.86 0 0 0 2.4-2.5c-.17.15-.39.24-.28.06.57-.8.58-1 .58-1.19s-.09-.25.13-.85c.42-.62.33.4.61-.89.34-.72.35-.07.34.27a15.92 15.92 0 0 1 .88-2.8v.63a6.56 6.56 0 0 1 .12-1l-.29.31c.1-.35.15-.65.25-.63-.1-.39-.44.21-.53-.54.19-.45.06-1.43.4-1.55-.3 1.45.33-.13.21 1.13a3.6 3.6 0 0 1 .13-.89s.06.06.06.16c.47-1.36-.27-.69-.07-2.13.15.21.38-.29.37-.53-.08.58-.33.24-.39-.31a4.78 4.78 0 0 0 .1-1.5l-.13.55c-.15-.21-.07-.67 0-1.32.14 0 0 .59.11.37-.22-.75.53-1.57.45-2.6.18-.44.34 0 .47-.39-.08-1.15.4-1.18.37-2.38-.29.31-.24.37-.36-.48l-.08 1.95-.19-1.28c-.08.58 0 1.24-.09 1.59-.12-.62-.07-.55-.3-.3.46-.75 0-1.6.36-2.49l.58.1c.44-1.34 0-2.52.4-4.26 0 .15-.12.37-.17.55a.53.53 0 0 1-.07-.3 1.56 1.56 0 0 1 0-.36 2 2 0 0 0 .06-.56c.17.18.26.07.37.14-.12-.19.07-.37-.21-1.29a.48.48 0 0 1 .23.22 6.31 6.31 0 0 0 0-1.47c0-.37-.05-.77-.05-1.14a2.76 2.76 0 0 1 .06-.82c0 1.11.15 1.49.16 2.52a1.57 1.57 0 0 0 0-.23 1.07 1.07 0 0 0 0-.4c.06.32.1.15.18.08s.17-.06.2.36c.05-.2.11-.83.24-.44a1.57 1.57 0 0 1 0 .29c0-.32.24.17.21-.75a10.44 10.44 0 0 0 .37 2.51 6.16 6.16 0 0 1 .16.94 3.06 3.06 0 0 1-.08 1.09 27.32 27.32 0 0 1 .36 3.13c-.06-.06-.1 0-.08-.17-.14 1.28.59.76.42 2.23-.3.75-.18-.77-.3-.31-.64.22.13 1.76-.23 2.76v-.24c-.2.76.29 1.84.32 3.09 0 0-.06-.06-.1 0a30.89 30.89 0 0 1 .93 3.59c-.32-.32-.22-.51-.44-.24.12.52.38-.22.64.81-.07.37 0 1.16-.24 1.33l-.26-1c-.23.6.33 1.31.44 1.85h-.17a4.7 4.7 0 0 0 .82 1.45 12.91 12.91 0 0 1 1 1.44v-.21c.82.56.24.79 1 1.35 0 .16-.07.31-.11.47a13.41 13.41 0 0 0 2.84 1.75 3.29 3.29 0 0 1-1.3-.43 14.94 14.94 0 0 1-1.27-.8 8.26 8.26 0 0 0 1 .9 2.67 2.67 0 0 0 1.06.51 2 2 0 0 1-.74-.41c.82.23 1.74.6 2.93.9-.21.33.6.65 1.67.61a5.76 5.76 0 0 0 1.59-.32c.49-.18.91-.38 1.21-.45a7.27 7.27 0 0 0 1.76-3.35 12.41 12.41 0 0 0 .34-3.6c-.58.86 0-.71-.64-.55v-.82l.33-1.71c.17-.41.14.53.28.47 0-1.23.25-.52.4-1.33-.22.17-.33-.43-.26-1.13l-.26 1c-.36-1.71.48-1.49.13-3.22l.2.55c-.13-.89-.06-3.28-.57-4.14.07-.16.23-.37.28 0 0-2.13-.61-4.72-.34-6.38l.15.16c0-.4-.29-.69-.15-1.19.06 0 .15.16.15 0a4.93 4.93 0 0 1-.2-1.58l.18.45c.15-2.08-.48-3.18-.61-4.91.44 0 .55-1.64.6-2.45h.07a22.55 22.55 0 0 0-.19-3.29l-.11-.75-.1-.27a4.79 4.79 0 0 1-.18-.78.24.24 0 0 0 .19 0s0-.11.07 0a6.39 6.39 0 0 0 .44.57l.19.23c.25.28.5.54.73.78-.22-.3.26-.21.61 0 .36.42 1.35.69 1 .95l-.15-.12c.08.57 1.06 1.15 1.79 1.63l.41-.37a8.25 8.25 0 0 0 3.37 2.12 10 10 0 0 1 2.93 1.36c.56.07 1.22.25 1.78.28l-.11.26c.74.22 1.29.4 1.9.52a10 10 0 0 0 1 .19 8.2 8.2 0 0 0 1.38.08l-.44.19a1.94 1.94 0 0 0 1.34-.44 3.9 3.9 0 0 1 1.16-.68 3.64 3.64 0 0 0 .47.28 4.16 4.16 0 0 0 1.57-1.06A3.3 3.3 0 0 0 124 55a4 4 0 0 0-1.24-3.12c.07 0 .2 0 .39.23-.5-.79-1.54-2.87-1.87-2.33.31-.22-.95-1.56-1.59-2.3h.31a4 4 0 0 1-1.49-1.39c-.11-.25.07-.31.19 0-.34-.84-.59-.46-1-1.47l.35.26a2 2 0 0 0-.93-1c-.39-.44-.82-1.55-.67-1.79a1.54 1.54 0 0 1-.83-.87c0-.11.2 0 .27.1-.59-1.43-1.41-1.83-1.69-2.89a.24.24 0 0 0 .06-.24c.59 1.07 1.06 1.94 1 1.87.22-.13-.22-1 .47-.5a9.71 9.71 0 0 1-1.94-2.48.26.26 0 0 1 0-.15l.07.07a1.55 1.55 0 0 0-.33-.51 5.47 5.47 0 0 0-.31-.74c.13-.2-.45-1-.67-1.49-.23.17-.5-.42-.41.22 0-.07.07.07.24.35a1.56 1.56 0 0 0 .12.17c.16.28.36.65.6 1.06a2 2 0 0 1-.74-1.12c-.28-.14-.57-.3-.72-.39 0-.78-.42-2-.29-2.3-.86-1.26-1.78-3.08-2.69-3.67-.27-.34-.1-.5-.1-.68.16.19.29.45.42.53-.53-.69-1.24-2.21-1.66-2.22-.35-1 .58.38-.16-.91l.19.13c-.81-2.85-3-3.79-3.71-7 .06.22.08.33 0 .4-.64-1.74-1.45-3.43-2.27-5.17s-1.78-3.4-2.63-5.08c-.5-1-.8-.88-1.32-1.29l.09-.37-1-.61a7.79 7.79 0 0 1-1.38-1.72 4.26 4.26 0 0 0-1.93-1.64l.09.31c-.28-.21-.77-.51-1.16-.76s-.7-.41-.6-.48a.53.53 0 0 1-.5-.16l.06-.16a15.28 15.28 0 0 0-1.74-.44c-.62-.28-.52-.41-.5-.56s0-.34-1.05-.59c-.78-.15-2.22.13-1.94.26s.75.2.75.36H86c-.18.44-.64.86.77 1.38h1.08l.26.3-.85-.19c.43.33.78.18 1.15.19a.69.69 0 0 0 .33.38 6.86 6.86 0 0 1 1.11 0c0 .21-.56.14 0 .51.53 0-.25-.56.54-.35.36.42.14.51.74.64 0 .14-.13.15-.36.08.54.11 1.21.67 1.58.63.28.51 1.47 1.05 1.13 1.37a3.44 3.44 0 0 1 1.29.71c-1-.29 1.25 1.36.64 1.58.81.18 1.65 1.75 2.5 2.61a.53.53 0 0 1-.24-.21 5.82 5.82 0 0 1 .45 1.24c.37-.12 1 .74 1.44 1.15 0 .91-.63-.24-.84.16.26-.19.92 1.13 1 .77 0 .68.12.55 0 1 .5-.1.32.5.81.9.15 1-.33.41.23 1.31.09.33-.44-.46-.44-.46zm12.11 21.69l-.26-.44zm1 1.82l-.43-.79c0-.11.18-.09.28.09-.11-.07.08.39.16.7zm-.43-4.79c.2.27.2.4.17.46l-.3-.48a.39.39 0 0 1 .13.02z"/><path class="cls-1" d="M112.42 34.81a.52.52 0 0 1-.08-.11v.21l.14.06zM69.09 72.64a.25.25 0 0 1 0-.09zm44.56-17.88l-.02.07.19-.01-.17-.06zm-43.71 6.61v-.17a.23.23 0 0 0 0 .17zm-2.51 5.99l-.4.72c.18-.31.3-.53.4-.72zm-1.99 4.52a.2.2 0 0 0 .08.11zm16.78 3.51v-.15c-.01-.35-.02-.11 0 .15zm-6.33 14.84c.16-.08.31-.2.47-.27-.28.04-.5.12-.47.27zM86.52 56l.08.14zm-9.44 33.68a2.85 2.85 0 0 0-.72.28 2.34 2.34 0 0 0 .72-.28zM58 85.34h-.14zm-.18.08l-.15.07c.07-.02.14-.04.15-.07zm-.49.21a2.44 2.44 0 0 0 .34-.14c-.12.04-.27.05-.34.14zm3.74-3.26l-.07-.09a.12.12 0 0 0 .07.09zm.6-1.37a9.24 9.24 0 0 0-.67 1.2v.08c0-.28.7-.87.67-1.28zm3.58-5.39l-.56 1.16c.18-.17.43-.39.23.16.91-1.37-.35.22.33-1.32zM66.89 72c-.21.66.15.05.19.11.07-.45.09-.55-.19-.11zm1.59 9.61l-.26-.07c.04.54.1 0 .26.07zm2.06 5.16a4.17 4.17 0 0 1 0-.5l-.3-.15c.1.22.19.44.3.65zm.46 3.78l-.23-.17a5.54 5.54 0 0 0 .92.59 7.92 7.92 0 0 1-.69-.42zm15.91-26.13a2.19 2.19 0 0 0 .3-.16c-.09-.18-.42.01-.3.16zM90.1 85a1.51 1.51 0 0 0 .63 1.09c-.31-.41-.44-.92-.63-1.09zm17.5-30.29l-.43-.14.76.35z"/></g></g></svg>