<svg xmlns="http://www.w3.org/2000/svg" xmlns:xlink="http://www.w3.org/1999/xlink" viewBox="0 0 1916.94 133.62"><defs><style>.cls-1{fill:none;}.cls-2{clip-path:url(#clip-path);}.cls-3{fill:#fff;}</style><clipPath id="clip-path" transform="translate(0 0)"><rect class="cls-1" width="1916.94" height="133.62"/></clipPath></defs><title>Asset 7</title><g id="Layer_2" data-name="Layer 2"><g id="Layer_1-2" data-name="Layer 1"><g class="cls-2"><path class="cls-3" d="M1333.83,8.51c.7-.11.3-.33-1.64-.28l-1.36.41Z" transform="translate(0 0)"/><path class="cls-3" d="M1320.8,7.86c-2.27.2-4.9.55-3.42.91,2.25-.4,2.8-.24,5.22-.71,1.94-.05,3.38.11,3.06.26.68-.11,3,.07,4-.19a48.45,48.45,0,0,0-9,0c-.72-.08,0-.19.14-.26" transform="translate(0 0)"/><path class="cls-3" d="M1131.66,6.89l1.22.05c-.33,0-.75,0-1.22-.05" transform="translate(0 0)"/><path class="cls-3" d="M1014.47,6.2a4.76,4.76,0,0,0,1.31-.08,6.13,6.13,0,0,0-1.31.08" transform="translate(0 0)"/><path class="cls-3" d="M994.47,5.68l1.18,0a7,7,0,0,0-1.18,0" transform="translate(0 0)"/><path class="cls-3" d="M1131.66,6.89l-3.13-.14a15.22,15.22,0,0,0,3.13.14" transform="translate(0 0)"/><path class="cls-3" d="M1294.72,8.87c.65,0,1.2-.06,1.7-.11l-1.6,0-.1.07" transform="translate(0 0)"/><path class="cls-3" d="M1183.32,6.75h1a8,8,0,0,0,.79-.15Z" transform="translate(0 0)"/><path class="cls-3" d="M1223,6.8a2.78,2.78,0,0,0-1.56.46,9.16,9.16,0,0,1,2-.22c0-.06-.1-.14-.4-.24" transform="translate(0 0)"/><path class="cls-3" d="M1285.83,7.5l1.12,0-1.12,0" transform="translate(0 0)"/><path class="cls-3" d="M1154.94,6.58a.79.79,0,0,0-.36-.12s.15.08.36.12" transform="translate(0 0)"/><path class="cls-3" d="M46.05,3.3s0,0,0-.06c-.23,0-.3,0,0,.06" transform="translate(0 0)"/><path class="cls-3" d="M.11,1.28l.63-.09C.8,1.12.87,1.05.86,1Z" transform="translate(0 0)"/><path class="cls-3" d="M957.85,5.08H958c1,0,.41,0-.17,0" transform="translate(0 0)"/><path class="cls-3" d="M621.7,3.68c3.81.32-6.2.35-.46.71-.54-.13,5.21-.49.46-.71" transform="translate(0 0)"/><path class="cls-3" d="M1293.69,8.82h-1.63c.74,0,1.24,0,1.63,0" transform="translate(0 0)"/><path class="cls-3" d="M621.24,4.39h0l.59,0-.59,0" transform="translate(0 0)"/><path class="cls-3" d="M873.48,4.89a4.92,4.92,0,0,0,.86.15,3.34,3.34,0,0,0-.86-.15" transform="translate(0 0)"/><path class="cls-3" d="M936.33,5.66l-1.55,0c.62,0,1.12,0,1.55,0" transform="translate(0 0)"/><path class="cls-3" d="M840.85,5.21c-.85,0-1.14-.08-2.29,0l.35,0a12,12,0,0,1,1.94,0" transform="translate(0 0)"/><path class="cls-3" d="M806.88,5.05l.62.07h1.08Z" transform="translate(0 0)"/><path class="cls-3" d="M149.28,3.82a9.94,9.94,0,0,1-1.57-.31c.53.24-4.46.3,1.57.31" transform="translate(0 0)"/><path class="cls-3" d="M1294.7,8.68a3.2,3.2,0,0,1-1,.14l1.13,0c.1-.05.12-.09-.12-.12" transform="translate(0 0)"/><path class="cls-3" d="M839.45,7.85l-5.39-.08,5.39.08" transform="translate(0 0)"/><path class="cls-3" d="M393,5.19l-1.24,0a8,8,0,0,0,1.24,0" transform="translate(0 0)"/><path class="cls-3" d="M818,7.74c-1-.12-2-.19-3-.24a4.3,4.3,0,0,0-.62.08Z" transform="translate(0 0)"/><path class="cls-3" d="M147.7,3.51h0" transform="translate(0 0)"/><path class="cls-3" d="M221,1.41a8.89,8.89,0,0,1,2.35.1l-2.79,0-.19,0a2.45,2.45,0,0,1,.63-.16m21.34,2.45-4.38,0c-.35-.12,0-.24,1-.22a24.6,24.6,0,0,0,3.34.26m-10.1-.06h0m-120.11.28c5.14,0,2.42-.41,3.51-.66,6.14-.08,2.84.34,4.93.58,3.83-.09,6.77-.48,9.63-.44.21.07.77.1.12.19,4-.33,12,.06,16.75-.35a3.19,3.19,0,0,1,.61.11c-.76-.23-.88-.45-.72-.61,2.31,0,4.28-.25,5.15,0a8.79,8.79,0,0,0-2.2.19L152.35,3c2.17.42-3.3.12-3.3.42,4.71-.1,10.2-.41,13.81-.27.75.41-8.44.08-3.63.47l-5.58-.19c4.26.67-3.39-.06.52.65,7.35.16,8.23-.16,15.56,0,1.65-.21-.55-.33,1.1-.55,10.43-.34,8.2,1.07,15.86.58a27.05,27.05,0,0,1,8.21-.47L193,4.11c7.12.09,4.07-.63,11.52-.28C203.23,4,199,4,200,4c4.83.39,3.42-.24,7.13-.22l.76.41,24.32-.29c-.47.12-1.91.24.06.38,10.58-.14,22.58.18,32.79.48l3.9-.33c.91,0,1.68.17.7.23,4,.16.21-.22,2.12-.35,2.26,0,3,.22,1.55.32,7-.26,20-.53,27.4-.11l-1.45.1c5.76.17,6.51-.68,11.85-.33l-1,.06c12.5.22,26.32,0,35.85.57,1.82-.5,12.37.29,13.18-.41,7.13.39,5.09.5,15.14.79,2.68.05,4-.41,7.32-.47l.08.37,4.51-.36,2.39.45,3.12-.07a6.76,6.76,0,0,1-2.45-.29c2.43-.07,5.4,0,7.77.13a27.72,27.72,0,0,1,4.2.38l11.51-.25a27.8,27.8,0,0,1-3.71.28c6.15-.34,1.12.39,6.74.08-.75-.09.41-.22.54-.29,2.81.24,9.19.27,13.92.21l-.91.24c8.53.12,18,0,27.56,0-3.43-.14-2.64-.57.17-.6l1.12.4c1.82-.23-2.93-.17.79-.44,3.58.06,2.41.45.35.57l4.35-.11c.25.12-.77.17-1,.32,1.78-.23,7.5.43,10.08,0L473,6l21.71,0c.15-.34,3.2-.25,5.53-.5,5.73.13,12.09.43,19,.44,4.86-.14,1.42-.28,3.6-.46.36.3,7.26.31,3.68.51,8.29,0,10.58,0,21.07-.19-1.14-.13-2.42-.2-1.76-.3,1.91,0,4.33.16,4.06.3l-.5,0c11.76-.39,27.14,1,36.52.45l-.53,0L595.07,6c4.47.07-2.68.21.62.42,10.48-.46,16.56.16,25.19-.14,6.68.94,23.71.06,32.72.69l-.52-.22a25.74,25.74,0,0,1,4.54.19c-.24-.16-2.53-.2-1.08-.31,19.74-.15,40.75.52,61,.82,7.41.09,4.21-1.08,13.54-.53l-2.65.38c14.94-.39,30.55.17,45.17-.15a13,13,0,0,1-2.32.19c3.09.3,11.42.07,11.47-.16,2.28,0,.53.21,1.93.34,3.1.19,7.78-.33,9.43,0,.28,0-.87.09-1.44.11,2-.13,9.41.08,7.47-.26,5.49.18,10.51-.1,14.88.12,2.86-.36,9.4.22,10.31-.3-.4.54,9.62.48,13.09.25-1.16.15,3,.18,1.65.4,4,0,7.6-.07,6.91-.35,7.29.68,14.66-.45,18.77.4,11.77-.24,22.65-.38,33.24-.46-.39.54-11.7,0-11.25.57,10-.18,15.83-.61,25.79-.43,2.58.08-1.46.22-2.34.31,10-.17,19.4.14,28.32-.11a13,13,0,0,1-1.89.13c1.76,0,4.09.1,3.89-.15l-1.72.06c-2.8-.36,7-.71,7.31-.89-3,.68,8.81.21,4.07,1.08,1.15,0,2.61-.15,2.34-.32,1.72.06,2.27.16.52.33,6.3-.1,4.07-.37,9.77-.34A13.2,13.2,0,0,1,962,8a92.89,92.89,0,0,1,10.62-.32c-.29.07.27.17-1.17.16,8.28,0,14.12-.55,23.21-.29-2.68.5,3.09.19,3.57.63l4.89-.11-2-.22c4.28,0,8.06-.28,11.74-.12l-3.18.17,8,0-4.54-.19c4.34-.21-.46-.56,5.24-.42-1.16,0,4.28,0,6.51.3h0a67.83,67.83,0,0,1,7.46-.15c.82.15-.66.49-.13.59,2.09-.37,10-.07,12.68-.45-.89.09-.93.32-.64.37l1.75-.29c2,.1,2.27.15,2,.33,6,.08-1.89-.57,5.19-.3-.56,0-.29.07-1.45.11,7.11.16,13.74-.13,20.27,0,1.93.46-5.71.09-3.5.48,9.42-.05,19.51-.46,28.62-.32l-1.7,0c1.27-.63,6.79.34,11.4.06-1.12,0-1.48.34-1.17.27,6.24.13,12.76-.1,22.22-.27l-1.17.16c3.68.16,9.69.12,13.66.2,1.18-.15,3.46-.12,2.08-.36,12.25,1,23.37-.41,34.24.39-1.3,0-3.09.14-2.06.14l9.26-.12a14.92,14.92,0,0,0-3.16-.39,55.44,55.44,0,0,1,6.09-.27c-4.17.17,0,.44,1.83.6-.3-.08.31-.17.16-.26,4.84.51.81-.55,7.42-.2l-.35.15c2.47-.07,4.75-.26,7.42-.21,1.1.32-2.64.14-2.81.41,3.75,0,7.39-.59,10.78-.26l-5.47.16a59.93,59.93,0,0,0,6.86.36h-.27l6.34.18-1.61-.1c4.68-.82,9.54-.13,15.85-.66-6.13.5-1,.3-1.48.66,1.61.1,4.06.22,3.36.32,3-.28,5,.24,9.19-.17.19.11,3.19,0,2.52.31,3.88-.09-.92-.21-.59-.35,6-.39,14,.53,22.65,0,7.42-.22,8.79-.62,15.67-.81,2.32.19-1.9.43-1.9.43,3.75.17,6.57.14,10.1,0-.72.1,0,.19,1.1.32,2.83,0,1.89-.43,5.63-.25a22.92,22.92,0,0,1-2.83.46l10.09-.42c.92.2-2.09.31-3.3.44,3.88-.08,10.06-.2,11.26-.53l-2.49-.1c1.42,0,.73.27-.32.33-3.33.28-4.8-.1-5-.21l2.47-.08c-2.53-.68-9.89.11-14.85.06l2.07-.49-5.09.41c-1.08-.13-1.82-.41.63-.48-3.55-.25-3.15.17-6.2-.1-.33,0-.18-.07.13-.09l-3.47.15c.68-.1-.58-.35,1.55-.28-6.23-.29-10,.37-12.39,0l.52,0c-8.64.16-.83.36-7.32.79l-4.36-.91-.85.37c-.89,0-2.66,0-2.33-.2-3.32.24.56.16-1.36.39-4.29-.34-11.84.13-12.81-.45-1.54.27,4.11.22-.47.4-1.31-.63-5.3.1-9.22-.2,1.2-.32,4.92-.14,1-.44-2.36.54-7.63-.14-10.94,0-.16.43-7.19.16-12.74.29.35-.14-10.45-.26-15.61-.43l.15-.07c-1,.43-6.33.33-10.2.41.15-.27.85-.37,3-.48h-3.65a31.9,31.9,0,0,1-4.36.25l.92-.32c-4.85,0-9.77.35-16,.11-.35.3,5,.87-1.64,1-.24-.17-.49-.45,1.24-.51a30,30,0,0,1-3.16,0l2.64-.27c-2.84-.13-1.49.23-3.76.2,0-.24-1.68-.18-1.35-.36.58,0,2,.1,2.85,0a66.71,66.71,0,0,1-6.68-.38c.22.13,0,.32-1.88.34-4.86,0-1.66-.29-4.49-.42-1.18.16-4.27,0-4.36.33a8,8,0,0,1-2.23-.27c-2.51.15-11.73,0-8.9.39l.65,0h-.41c-8.24.32-17.1-.26-25.27-.14V6.73c-4.87.12-10.85,0-14.33.28-1.44,0-3.4-.23-2.79-.37-3.72.07-4.14.2-9.53,0,3.75-.19-1.29-.19,3.85-.14a98.44,98.44,0,0,0-11.14,0c1.77-.3-3.65-.4-6-.32l3.39.23c-2.59,0-4.85,0-7.15,0l1.25-.4c-9.91-.52-17.88.75-25.42-.09-2.62.27,5.38.22,3,.54-4.56-.08-9.31-.67-10.73-.67-6.25-.25-5.83.55-12.37.38.84.14,1.63.52-3.26.64-4.56-.08-5.6-.62-2.72-.72a5.43,5.43,0,0,1,1.57.08c1.48,0,3.41-.09,1.61-.25l-.6.13c-2.26-.15-8.53-.16-7.06-.39-3.45.12-1.47.23,1.08.31-5.85-.23-9.14,0-15.16-.21,1,.08,1.84.25.88.25-8.83-.22-3.89.25-9.87.28-3.4-.23,1.22-.51-4.81-.35-3.68-.17-.78-.38.69-.49-5.49.25-10.26-.23-13.39-.29L972,5c-1.73.06-3.15,0-4.59,0l1.65.29a15.66,15.66,0,0,1-3.1-.18c-1.75.18,1.34.48-2.14.72-2.26-.16-6.89.12-7.67-.26,7.12.16-.78-.38,5.24-.41-1.16,0-2.58,0-4.28,0-.26,0,.24-.08.7-.1-6.81-.36-3.13.41-10.19.37.9-.2-1.63-.41-2.78-.37,2.84,0,1.35.36-1.26.51-4.52-.18-4.92.1-7.29.07l2.71.09A54.06,54.06,0,0,1,932.7,6c-.27-.17,2.87-.1,1.74-.18-3.5.35-7.91-.42-12.8-.19-2.26-.16-.21-.4-2.2-.51-5.48.25-5.93-.31-11.68-.12,1.65.3,1.94.23-2.11.49l9.46-.16L909,5.7c2.85,0,6-.16,7.73-.1-2.89.22-2.59.15-1.23.39-3.9-.44-7.74.22-12.26-.09l.14-.71c-6.78-.34-12.06.31-20.88.09l2.84.13c-1.19.28-5.45,0-8.3.11.26-.23-1.52-.32-2.74-.48.15.18-6.45,0-7.25.42l-3.94-.33c-7.12-.16-8.12.64-15,.52,2.07-.24-1-.42,3.54-.59a24.55,24.55,0,0,0-4.37.1c-1.34-.15-6.34.29-8.44,0a17.13,17.13,0,0,1-3.84.32c-.28,0,0-.12,0-.12s-4,.14-1.78.41c-7-.77-19.67,0-25.79-.7L792,5.21c.3-.06,0-.11.88-.08-6.25-.25-3.85.65-11,.37-3.63-.4,3.77-.18,1.51-.34-1-.78-8.57.06-13.35-.41l1.15,0c-3.65-.28-8.91.25-14.88.16,0,0,.29-.07,0-.12-4.08.38-11.82.47-17.56.55,1.79-.29,2.61-.15,1.52-.46-2.58,0,.75.5-4.39.56-1.67-.18-5.38-.34-5.87-.67h4.85c-2.48-.44-6.27,0-8.83-.11l.33-.18c-7.43,0-7.54.49-15.52.41l.82.15c-4.36.44-3.65-.28-8,0l-1.31-.47c-2.89.1-10.09.4-15.26.46,2.93-.33,9-.48,12.71-.67-2.85,0-9.7,0-11.19.21,1.15,0,2.6-.14,3.74-.07A134.61,134.61,0,0,1,678.6,5c1-.91-14.82-.31-19-1-10.06.28-20-.25-31.68-.26,4.15.74-3.42,0-2.71.74a40.08,40.08,0,0,1-4,0L613,3.92c-2-.23,2.59-.15,2.34-.32-6-.08-2.5-.32-6.46-.53.81.26-2.08.36-5.49.24l4.8.36C599.81,4,601,3,592.53,3.37l2.66-.22c-4.32.11-15.94-.09-20.18.48-.76-.09-1.77-.3.13-.34-10.32-.14-23,.5-31,.1l.78-.18a46,46,0,0,1-5.77.13c.13-.08.78-.18-.11-.19s-5.12.28-7.67.16l2.18-.18c-10.07-.29-15.46.4-23.91.48,0-.53-7.9-.74-11.86-.85l.14-.07c-11.73-.13-19.93.33-30.79.47-6.74-.6-22.84-.36-33.68-.74,1.66.1-.27.41-2.19.45-2.55-.12-7,.32-6.63-.15h.91c-1.92-.48-7.15-.39-11.23-.42l-.67.62c-10.67-1-28,.19-33.79-.67-2.58.15-5.77.13-8.32.27l.14-.34C364.52,2.07,361,2,352.13,2l1.8-.24c-5,0-6.28.94-10.87.94l-1.38-.52c-8.68,0-17.47-.53-26.05-.12.14-.08.4-.22,1.81-.23-4.09,0-15.81-.43-14.33.27-.1-.45-9-.1-13.65.07l.74-.33a73,73,0,0,1-9.62.61c-1.31-.05-1.14-.28.6-.18-4.37-.2-3.41.29-8.7.09l2-.2a37.65,37.65,0,0,0-6.61.29c-2.82.12-8.52-.13-9.18-.43a26,26,0,0,1-5.71.31c-.35-.12.61-.18,1.09-.22-7.5-.27-11.16.32-16.32,0a1.82,1.82,0,0,0-.87-.21c6,.05,10.76.09,10.31.12,0-.31-4.81-.39-1-.79-3.87.2-10.48.67-15.18.5l-.62-.11.49,0c-1.08,0-2,0-3,0-1.5-.06-2.45-.11-3.89-.12-.55-.26-5.52-.17-7.92-.2.19.34-2.95.27,0,.56a14.08,14.08,0,0,1,2.06,0c.36,0,.78,0,1,0l-.16,0h6a38.3,38.3,0,0,1-6.54.09c-1.23.21-2.59.42-3.36.52-3.28-.48-9.62-.77-10.5-1.07-7.33.15-17.28,0-21.89.63a10.64,10.64,0,0,1-3.18-.3c1.21-.06,2.64,0,3.29-.13-4.17.14-12.35,0-13.35.43-5.26-.23,3-.39-4.27-.36l1-.13c-14.2-.79-23.1,1-38.85,0a12.1,12.1,0,0,1,1.86.16c-17.95-.5-37,.14-54.72-.61a58,58,0,0,0-8.66.31L64.7,1l-5.26.39C52,1.62,46.55.39,37.11.89l1.21.25c-3.38-.06-10.73,0-10.16-.24A8.43,8.43,0,0,1,25.72,1L25.62.8,17.3,1c-6.45-.28,1-.73-8.39-1C7.15,0,4.65.09,2.72.3S-.49.86.18.84a11.17,11.17,0,0,1,3.76.1C2.87,1,1.8,1.06.74,1.19c-.26.31-1,.67-.66.89s1.6.24,5.48.46L11,2.29l1.76.31-4.6-.08a30.37,30.37,0,0,0,6.12,0,10.38,10.38,0,0,0,2.29.35L22,2.45c.65.23-2.42.39,1.19.57,2.52-.2-2.41-.52,1.76-.62,2.62.3,1.85.49,4.93.32.43.15-.22.23-1.44.28,2.74-.13,7.25,0,8.67-.28,2.72.34,9.24,0,9,.52.87-.12,4.83-.37,7.34-.38-4.6.6,9.42.12,8.2.78,3.4-.55,12.28-.17,18.3-.45a8.45,8.45,0,0,1-1.53.1c3.39.07,4.37.25,6.55.37.44-.46,5.71-.54,8.56-.81,4.15.48-2.53.54-1.22,1C92,3.45,99.46,3.5,98,3.17a21.63,21.63,0,0,1,4.38.55c.56-.58,3-.07,5.59-.42,4.6.32,1.18.56,6.23.41,2.4.2-2.09.37-2.09.37" transform="translate(0 0)"/><path class="cls-3" d="M218.15,1.83l-.66,0,.95.08.57-.1h-.86" transform="translate(0 0)"/><path class="cls-3" d="M1133.09,7h-.21a3.39,3.39,0,0,1,.44,0l-.23,0" transform="translate(0 0)"/></g><polygon class="cls-3" points="380.83 5.28 381.72 5.29 381.71 5.21 380.83 5.28"/><g class="cls-2"><path class="cls-3" d="M1188.68,8.29a4.13,4.13,0,0,0,.73.09,6.86,6.86,0,0,0-.73-.09" transform="translate(0 0)"/><path class="cls-3" d="M1212.69,8.44l3.4.12-3.4-.12" transform="translate(0 0)"/><path class="cls-3" d="M1231.15,8.65a1,1,0,0,0,.37-.14h0Z" transform="translate(0 0)"/><path class="cls-3" d="M937.6,7.91h-.72c-1.67.06-.53,0,.72,0" transform="translate(0 0)"/><path class="cls-3" d="M1025,7.52l-2.81.15c1.55,0,2.76,0,2.81-.15" transform="translate(0 0)"/><path class="cls-3" d="M840,7.86s0,0,0,0h0Z" transform="translate(0 0)"/><path class="cls-3" d="M1018.09,7.64c1.55.08,2.85.07,4.06,0-1.28,0-2.78-.07-4.06,0" transform="translate(0 0)"/><path class="cls-3" d="M1311.18,8.89h.89s0,0,.11-.05Z" transform="translate(0 0)"/><path class="cls-3" d="M1312.18,8.85l1,0a6.7,6.7,0,0,0-1,0" transform="translate(0 0)"/><path class="cls-3" d="M1315.24,8.71l-2.08.09a13,13,0,0,0,2.08-.09" transform="translate(0 0)"/><path class="cls-3" d="M1286.74,8.74l-.28.12c.15,0,.25-.07.28-.12" transform="translate(0 0)"/><path class="cls-3" d="M1279.31,8.77c1.77,0,4.44.26,6.92.19l.23-.1c-1.17.18-5.47-.3-7.15-.09" transform="translate(0 0)"/><path class="cls-3" d="M1248.31,7.22l6.22.12c-1.09-.14-2.52-.31.32-.34-7.85-.4,1.61.3-6.54.22" transform="translate(0 0)"/><path class="cls-3" d="M1229,7c3.35-.06,0-.19.14-.27-2.12.12-2.63.15-.14.27" transform="translate(0 0)"/><path class="cls-3" d="M1089.55,6.51l.34-.3c-2.58,0,0,.12-.34.3" transform="translate(0 0)"/></g><polygon class="cls-3" points="1062.88 7.98 1065.39 8.18 1066.59 7.91 1062.88 7.98"/><polygon class="cls-3" points="1043.97 5.8 1047.14 5.75 1048.27 5.71 1043.97 5.8"/><g class="cls-2"><path class="cls-3" d="M812.92,4.78l.78.38c1.74-.06,2.11-.48-.78-.38" transform="translate(0 0)"/><path class="cls-3" d="M711.81,4.66a27.88,27.88,0,0,0-5.7-.15c2.27,0,4.54.19,5.7.15" transform="translate(0 0)"/></g><polygon class="cls-3" points="406.76 2.4 408.56 2.43 410.59 2.32 406.76 2.4"/><g class="cls-2"><path class="cls-3" d="M1916.8,8.65c.3-.1.13-.34-.68-.3l-.57.39Z" transform="translate(0 0)"/><path class="cls-3" d="M1911.37,7.88c-.95.19-2,.52-1.44.88,1-.37,1.17-.21,2.19-.66.81,0,1.41.14,1.27.28.29-.1,1.26.1,1.7-.15a8.61,8.61,0,0,0-3.78-.09c-.3-.09,0-.19.06-.26" transform="translate(0 0)"/><path class="cls-3" d="M1832.34,6.76l.51,0-.51,0" transform="translate(0 0)"/><path class="cls-3" d="M1783.37,6.24c.38,0,.53,0,.55-.08-.34,0-.63,0-.55.08" transform="translate(0 0)"/><path class="cls-3" d="M1775,5.75l.49,0a1.23,1.23,0,0,0-.49,0" transform="translate(0 0)"/><path class="cls-3" d="M1832.34,6.76,1831,6.63c-.09.13.67.1,1.31.13" transform="translate(0 0)"/><path class="cls-3" d="M1900.46,8.76a3.37,3.37,0,0,0,.71-.1l-.66,0,0,.06" transform="translate(0 0)"/><path class="cls-3" d="M1853.93,6.58h.4a1.68,1.68,0,0,0,.33-.16Z" transform="translate(0 0)"/><path class="cls-3" d="M1870.5,6.63c-.38,0-.51.31-.65.46a1.76,1.76,0,0,1,.81-.23c0-.06,0-.14-.16-.23" transform="translate(0 0)"/><path class="cls-3" d="M1896.76,7.38l.47,0-.47,0" transform="translate(0 0)"/><path class="cls-3" d="M1842.07,6.43a.27.27,0,0,0-.15-.12s.06.09.15.12" transform="translate(0 0)"/><path class="cls-3" d="M1378.69,5.91s0,0,0-.06-.13.06,0,.06" transform="translate(0 0)"/><path class="cls-3" d="M1359.5,4.46l.27,0a.44.44,0,0,0,0-.19Z" transform="translate(0 0)"/><path class="cls-3" d="M1759.72,5.22h.07c.4,0,.17,0-.07,0" transform="translate(0 0)"/><path class="cls-3" d="M1619.26,4.58c1.58.31-2.6.36-.21.71-.22-.13,2.19-.51.21-.71" transform="translate(0 0)"/><path class="cls-3" d="M1900,8.72h0" transform="translate(0 0)"/><path class="cls-3" d="M1619.05,5.29h0l.25,0-.25,0" transform="translate(0 0)"/><path class="cls-3" d="M1724.46,5.2a1.56,1.56,0,0,0,.36.15s-.09-.08-.36-.15" transform="translate(0 0)"/><path class="cls-3" d="M1750.72,5.84l-.65,0a4.17,4.17,0,0,0,.65,0" transform="translate(0 0)"/><path class="cls-3" d="M1710.82,5.59a4,4,0,0,0-1,0l.14,0a2.12,2.12,0,0,1,.81,0" transform="translate(0 0)"/><path class="cls-3" d="M1696.63,5.5l.26.07.45,0Z" transform="translate(0 0)"/><path class="cls-3" d="M1421.83,6.12a2.29,2.29,0,0,1-.66-.3c.22.24-1.87.31.66.3" transform="translate(0 0)"/><path class="cls-3" d="M1900.46,8.58a.7.7,0,0,1-.43.14l.48,0s0-.09,0-.12" transform="translate(0 0)"/><path class="cls-3" d="M1710.22,8.23,1708,8.16c.63,0,1.45.06,2.25.07" transform="translate(0 0)"/><path class="cls-3" d="M1523.65,6.72l-.51,0a1.6,1.6,0,0,0,.51,0" transform="translate(0 0)"/><path class="cls-3" d="M1701.28,8.17a7.5,7.5,0,0,0-1.27-.24l-.27.08Z" transform="translate(0 0)"/></g><path class="cls-3" d="M1421.17,5.82h0Z" transform="translate(0 0)"/><g class="cls-2"><path class="cls-3" d="M1451.83,3.47c.66-.05.89,0,1,.09l-1.17,0-.08,0a.62.62,0,0,1,.27-.16m8.89,2.37-1.83,0c-.14-.12,0-.23.44-.23-.23.08.76.15,1.39.25m-4.22,0h-1l1,0m-50.19.69c2.14,0,1-.42,1.47-.67,2.56-.11,1.18.33,2,.56,1.6-.1,2.84-.5,4-.48.09.08.32.11.05.19,1.7-.33,5,0,7-.41a.74.74,0,0,1,.26.11c-.32-.22-.37-.44-.3-.6,1,0,1.79-.27,2.15,0a1.77,1.77,0,0,0-.92.19l1-.12c.91.42-1.38.14-1.38.44a49.68,49.68,0,0,1,5.78-.32c.31.41-3.53.11-1.52.49l-2.34-.17c1.78.65-1.41-.06.22.64,3.07.13,3.44-.19,6.5,0,.69-.22-.23-.33.46-.55,4.36-.38,3.42,1,6.63.52a5,5,0,0,1,3.43-.49l-.78.45c3,.06,1.71-.65,4.82-.32-.56.18-2.34.14-1.89.19,2,.38,1.43-.25,3-.24l.31.41c3.17,0,6.66-.31,10.17-.36-.2.11-.8.24,0,.37,4.42-.18,9.44.11,13.7.37l1.63-.34c.38,0,.7.17.29.23,1.66.15.09-.22.89-.35,1,0,1.25.21.65.31a64.18,64.18,0,0,1,11.45-.19l-.61.1c2.41.15,2.73-.7,5-.36l-.43.06c5.22.18,11-.1,15,.45.77-.5,5.17.26,5.51-.44a52.56,52.56,0,0,0,6.33.75c1.12,0,1.67-.43,3.06-.5l0,.37,1.89-.37,1,.44,1.31-.08c-.52,0-1.1-.17-1-.28a14.61,14.61,0,0,1,5,.48l4.81-.28a5.37,5.37,0,0,1-1.55.28c2.57-.36.47.39,2.82.06-.31-.09.17-.22.23-.29a33.5,33.5,0,0,0,5.81.17l-.38.25c3.56.08,7.52-.08,11.52-.05-1.43-.12-1.1-.56.07-.6l.47.4c.76-.24-1.23-.16.33-.44,1.5,0,1,.45.14.57l1.82-.13c.11.12-.32.18-.43.33.75-.24,3.13.4,4.21,0l.1.12c4,0,5.82-.09,9.08-.09.07-.34,1.34-.26,2.31-.52,2.4.12,5,.4,7.94.39,2-.15.59-.28,1.51-.47.14.3,3,.29,1.53.5,3.46,0,4.42,0,8.8-.25-.47-.13-1-.18-.73-.29.8,0,1.81.14,1.69.29l-.21,0c4.93-.43,11.34,1,15.26.35l-.22,0,4.07-.31c1.86.07-1.13.23.25.42,4.39-.48,6.92.12,10.53-.2,2.79.92,9.91,0,13.67.6l-.21-.21c1-.2,1.17.13,1.89.18-.1-.16-1.06-.2-.45-.31,8.25-.2,17,.42,25.48.67,3.09.07,1.77-1.09,5.66-.56l-1.11.39c6.25-.43,12.77.1,18.88-.27a2.24,2.24,0,0,1-1,.2c1.29.3,4.77,0,4.79-.18,1,0,.22.21.81.33,1.29.18,3.25-.34,3.94-.06.11.05-.37.1-.61.12.85-.14,3.94.06,3.13-.28,2.29.17,4.39-.12,6.22.09,1.19-.36,3.92.2,4.31-.32-.17.54,4,.46,5.47.22-.49.16,1.25.18.68.4,1.66,0,3.18-.09,2.89-.37,3,.67,6.13-.48,7.84.36,4.92-.26,9.47-.43,13.9-.53-.17.54-4.89,0-4.71.59,4.2-.19,6.62-.64,10.78-.48,1.08.08-.61.23-1,.32,4.2-.2,8.11.1,11.84-.17a2.57,2.57,0,0,1-.79.14c.73,0,1.7.09,1.62-.16l-.71.07c-1.17-.37,2.92-.73,3.06-.91-1.26.69,3.68.2,1.69,1.07.48,0,1.09-.16,1-.32.72,0,.95.15.22.33,2.63-.12,1.7-.38,4.08-.36,0,.12-.49.16-.74.3a16.32,16.32,0,0,1,4.44-.34c-.12.07.11.17-.49.16,3.46,0,5.91-.57,9.7-.33-1.12.51,1.29.18,1.49.63l2-.12-.81-.22c1.79,0,3.37-.3,4.91-.14l-1.33.17,3.35-.06-1.9-.18c1.81-.22-.19-.57,2.19-.43a26.69,26.69,0,0,1,2.72.29h0a11.46,11.46,0,0,1,3.12-.16c.34.14-.28.49-.06.58.87-.36,4.19-.07,5.3-.46-.37.09-.39.32-.27.37l.73-.3c.83.1,1,.15.82.34,2.49.07-.79-.57,2.17-.31a5.12,5.12,0,0,1-.61.11c3,.15,5.74-.15,8.47,0,.8.46-2.39.1-1.47.48,3.94-.06,8.16-.48,12-.35l-.71-.06c.53-.63,2.83.33,4.76,0-.47,0-.62.34-.49.27,2.61.12,5.33-.12,9.29-.29l-.49.16c1.53.15,4,.11,5.7.19.5-.16,1.45-.13.87-.37,5.12,1,9.78-.43,14.31.37-.54,0-1.29.13-.86.14l3.87-.13c-.3-.28-.51-.17-1.32-.39a9.9,9.9,0,0,1,2.55-.27c-1.75.17,0,.44.76.6-.13-.09.13-.18.07-.26,2,.5.34-.56,3.1-.21l-.15.15a25.87,25.87,0,0,1,3.1-.21c.46.32-1.1.14-1.17.41,1.56,0,3.09-.59,4.5-.26-.66.08-1.62.08-2.28.16a10.27,10.27,0,0,0,2.86.36h-.11l2.65.19-.68-.11c2-.82,4-.13,6.63-.65-2.56.49-.42.29-.62.65.67.11,1.69.22,1.4.32,1.25-.28,2.08.25,3.84-.17.08.12,1.34,0,1,.31,1.62-.08-.38-.2-.24-.35,2.5-.38,5.87.52,9.46,0,3.11-.21,3.68-.59,6.56-.77,1,.19-.8.42-.8.42a19.88,19.88,0,0,0,4.22,0c-.3.1,0,.19.46.32,1.18,0,.79-.42,2.35-.24a4.38,4.38,0,0,1-1.19.46c1.4-.09,2.78-.3,4.23-.4.38.21-.88.3-1.39.43,1.63-.08,4.21-.15,4.71-.47l-1-.12c.59,0,.3.27-.13.33-1.4.24-2-.12-2.09-.24l1-.07c-1-.69-4.13.08-6.2,0l.87-.49-2.13.4c-.45-.13-.76-.41.27-.48-1.49-.25-1.32.17-2.59-.11-.14,0-.08-.07,0-.09l-1.45.14c.28-.1-.24-.35.65-.27-2.6-.31-4.2.34-5.18,0l.22,0c-3.61.14-.35.36-3.06.77L1886.12,7l-.36.36c-.37,0-1.11,0-1-.19-1.39.24.23.16-.57.39-1.79-.34-5,.13-5.35-.46-.65.28,1.71.23-.2.41-.54-.63-2.22.09-3.85-.21.5-.31,2-.13.42-.43-1,.54-3.19-.14-4.58,0-.06.44-3,.17-5.32.29.14-.14-4.37-.26-6.52-.43l.06-.07c-.42.43-2.64.34-4.27.42.07-.27.36-.37,1.24-.48h-1.52a6.05,6.05,0,0,1-1.83.26l.39-.33a59.26,59.26,0,0,1-6.69.13c-.15.3,2.06.86-.7,1-.1-.16-.2-.44.52-.51a5.66,5.66,0,0,1-1.32.06l1.11-.27c-1.19-.13-.62.23-1.57.2,0-.24-.71-.18-.57-.36a6.62,6.62,0,0,0,1.19,0,12,12,0,0,1-2.79-.38c.1.14,0,.32-.78.35-2,0-.7-.29-1.88-.42-.49.16-1.78,0-1.82.33a1.63,1.63,0,0,1-.93-.26c-1.05.15-4.9,0-3.72.39l.27,0H1833c-3.45.33-7.15-.24-10.56-.11V6.63c-2,.12-4.54,0-6,.29-.6,0-1.42-.22-1.16-.36a18,18,0,0,1-4,0c1.57-.19-.54-.18,1.61-.14a17.72,17.72,0,0,0-4.66,0c.74-.29-1.52-.38-2.48-.3l1.41.22c-1.08,0-2,0-3,0l.52-.4c-4.14-.51-7.48.78-10.62,0-1.1.27,2.25.21,1.26.53-1.9-.07-3.88-.65-4.48-.66-2.6-.23-2.44.57-5.16.4.34.14.67.52-1.37.64-1.91-.06-2.34-.6-1.13-.71.45,0,.67,0,.65.09.62,0,1.43-.11.67-.27l-.24.14c-.95-.15-3.57-.15-2.95-.38-1.44.13-.62.23.45.31-2.45-.22-3.82,0-6.34-.18.4.08.77.25.37.24-3.69-.2-1.63.26-4.13.31-1.42-.23.51-.51-2-.35-1.53-.16-.32-.38.29-.49a28.18,28.18,0,0,1-5.59-.26l1.21-.11a18.36,18.36,0,0,1-1.92,0l.69.29c-.71,0-1.31-.06-1.3-.18-.73.18.56.48-.89.72-1-.15-2.88.14-3.21-.24,3,.15-.32-.38,2.2-.42a12.11,12.11,0,0,1-1.79,0c-.11,0,.1-.08.29-.1-2.84-.35-1.31.42-4.26.39.38-.21-.68-.4-1.16-.36,1.19,0,.56.35-.53.51a17,17,0,0,0-3,.08l1.13.09a9.58,9.58,0,0,1-2.65.23c-.11-.16,1.2-.1.73-.18-1.46.36-3.3-.41-5.34-.17-.95-.15-.09-.4-.92-.5-2.29.26-2.48-.3-4.88-.09.69.29.81.22-.89.48l4-.17-2.54.4c1.19,0,2.52-.17,3.23-.11-1.21.22-1.09.15-.52.39-1.63-.44-3.23.23-5.12-.07l.06-.71c-2.83-.33-5,.33-8.72.13l1.18.13c-.5.28-2.27,0-3.47.13.12-.23-.63-.32-1.14-.47.06.17-2.69,0-3,.43l-1.64-.32c-3-.14-3.4.65-6.26.55.86-.25-.44-.42,1.48-.59-1,0-1.81-.06-1.83.1-.56-.15-2.65.3-3.53.07a3.09,3.09,0,0,1-1.6.32c-.12,0,0-.11,0-.11s-1.68.15-.74.41c-2.94-.75-8.22,0-10.78-.64-2.08.06-4.59.12-6.49.13.13-.07,0-.12.37-.09-2.61-.24-1.61.66-4.58.4-1.51-.39,1.58-.2.64-.35-.41-.77-3.59.09-5.58-.38l.48,0c-1.52-.27-3.73.27-6.22.2,0,0,.12-.07,0-.12a53.73,53.73,0,0,1-7.34.59c.75-.3,1.09-.15.64-.46-1.08,0,.31.49-1.84.56-.69-.17-2.24-.32-2.44-.65h2c-1-.43-2.62,0-3.69-.08l.14-.18c-3.1,0-3.15.51-6.49.45l.34.14c-1.82.46-1.52-.27-3.34.07l-.55-.48c-1.2.11-4.22.43-6.38.5a52.33,52.33,0,0,1,5.32-.7,27.12,27.12,0,0,0-4.68.24,7.46,7.46,0,0,1,1.56-.08,24.11,24.11,0,0,1-5.77.51c.43-.91-6.19-.27-7.91-1-4.2.31-8.34-.2-13.24-.17,1.73.72-1.43,0-1.13.74a8,8,0,0,1-1.68,0l-3.45-.46c-.82-.22,1.08-.16,1-.32-2.5-.07-1-.32-2.7-.52.34.26-.87.37-2.29.26l2,.35c-3.49.36-3-.63-6.53-.27l1.11-.22c-1.81.12-6.66,0-8.44.53-.31-.09-.73-.29.06-.34-4.31-.12-9.61.56-13,.18l.33-.18a7.78,7.78,0,0,1-2.41.14c0-.07.32-.17,0-.19a16.29,16.29,0,0,1-3.21.19l.92-.19c-4.21-.26-6.47.45-10,.55,0-.53-3.3-.72-5-.82l.06-.07c-4.9-.1-8.33.38-12.87.56-2.81-.59-9.54-.3-14.07-.65.69.1-.12.41-.92.46-1.06-.12-2.94.34-2.77-.14h.38c-.8-.47-3-.36-4.69-.39l-.28.63c-4.46-.94-11.69.26-14.12-.57-1.08.15-2.41.14-3.48.29l.06-.34c-3-.1-4.47-.15-8.16-.1l.76-.23c-2.08,0-2.64,1-4.55,1l-.58-.51c-3.62,0-7.29-.48-10.88,0,.06-.08.17-.22.75-.24-1.7,0-6.6-.38-6,.31,0-.45-3.75-.06-5.71.12l.31-.33a13.16,13.16,0,0,1-4,.63c-.55,0-.48-.26.25-.17-1.82-.19-1.43.3-3.63.11l.82-.21a6.79,6.79,0,0,0-2.76.32c-1.18.13-3.56-.11-3.83-.41a4.85,4.85,0,0,1-2.39.33c-.15-.12.25-.18.45-.22-3.13-.24-4.66.36-6.82,0,0-.11-.18-.17-.36-.2,2.49,0,4.5.05,4.31.08,0-.31-2-.38-.4-.79a33.23,33.23,0,0,1-6.35.55.89.89,0,0,1-.26-.11l.2,0a6.27,6.27,0,0,0-1.24,0c-.62-.05-1-.09-1.62-.1-.23-.26-2.31-.15-3.31-.17.08.33-1.23.27,0,.56-.16,0,.19,0,.86-.05l.43,0-.07,0h2.5a6.94,6.94,0,0,1-2.74.11c-.51.21-1.08.43-1.4.53-1.37-.48-4-.75-4.38-1-3.07.17-7.22.08-9.16.7a2,2,0,0,1-1.32-.29,12.06,12.06,0,0,0,1.37-.13c-1.74.15-5.16,0-5.58.46-2.2-.21,1.24-.39-1.78-.34l.41-.13c-5.93-.74-9.67,1.06-16.24.11a2.24,2.24,0,0,1,.78.16c-7.5-.45-15.47.3-22.86-.42a10.1,10.1,0,0,0-3.63.32l-.45-.37-2.2.39c-3.12.27-5.38-1-9.33-.43l.51.25c-1.42-.06-4.49.1-4.25-.18a1.49,1.49,0,0,1-1,.12l0-.19-3.49.32c-2.71-.1.43-.78-3.55-.73-1.49.09-4.21.84-3.63.92s1.54,0,1.6.16l-1.33.22c-.19.6-1.1,1.2,2.09,1.35.73-.16,1.48-.29,2.23-.42l.74.25-1.9.07a5.52,5.52,0,0,0,2.53-.18,1.87,1.87,0,0,0,1,.28l2.23-.53c.27.22-1,.43.5.56,1-.25-1-.5.73-.65,1.1.26.78.46,2.06.26.18.14-.09.23-.6.29,1.14-.16,3,0,3.61-.33,1.14.32,3.86,0,3.74.49a15.85,15.85,0,0,1,3.07-.4c-1.92.61,3.94.09,3.42.76,1.43-.55,5.14-.19,7.66-.47a1.78,1.78,0,0,1-.65.1,21.88,21.88,0,0,1,2.74.35c.19-.46,2.39-.55,3.58-.83,1.74.46-1.06.54-.52,1-.08-.37,3-.35,2.44-.67,1.32.28,1.14.14,1.82.53.24-.58,1.24-.09,2.34-.44,1.92.3.49.55,2.6.38,1,.19-.87.38-.87.38" transform="translate(0 0)"/><path class="cls-3" d="M1450.62,3.9l-.27,0,.39.08.24-.11h-.36" transform="translate(0 0)"/><path class="cls-3" d="M1832.94,6.82h-.09l.19.05a.23.23,0,0,1-.1,0" transform="translate(0 0)"/></g><polygon class="cls-3" points="1518.58 6.84 1518.95 6.86 1518.95 6.77 1518.58 6.84"/><g class="cls-2"><path class="cls-3" d="M1856.16,8.12a.81.81,0,0,0,.3.09.86.86,0,0,0-.3-.09" transform="translate(0 0)"/><path class="cls-3" d="M1866.19,8.26l1.42.13c-.61-.07-1.06-.11-1.42-.13" transform="translate(0 0)"/><path class="cls-3" d="M1873.91,8.47a.41.41,0,0,0,.15-.14h0Z" transform="translate(0 0)"/><path class="cls-3" d="M1751.24,8.09h-.3c-.7.06-.23,0,.3,0" transform="translate(0 0)"/><path class="cls-3" d="M1787.75,7.54c-.39.06-.77.11-1.18.15.65,0,1.16,0,1.18-.15" transform="translate(0 0)"/><path class="cls-3" d="M1710.47,8.23Z" transform="translate(0 0)"/><path class="cls-3" d="M1784.87,7.67a8.88,8.88,0,0,0,1.7,0,12,12,0,0,0-1.7,0" transform="translate(0 0)"/><path class="cls-3" d="M1907.34,8.84h.37s0,0,0,0Z" transform="translate(0 0)"/><path class="cls-3" d="M1907.76,8.8l.41,0a1,1,0,0,0-.41,0" transform="translate(0 0)"/><path class="cls-3" d="M1909,8.68l-.87.08a2.15,2.15,0,0,0,.87-.08" transform="translate(0 0)"/><path class="cls-3" d="M1897.13,8.62l-.12.12c.07,0,.11-.06.12-.12" transform="translate(0 0)"/><path class="cls-3" d="M1894,8.63a21.31,21.31,0,0,0,2.88.2l.1-.09c-.49.18-2.28-.31-3-.11" transform="translate(0 0)"/><path class="cls-3" d="M1881.08,7.05l2.6.11c-.45-.13-1-.31.14-.33-3.28-.41.67.29-2.74.22" transform="translate(0 0)"/><path class="cls-3" d="M1873,6.81c1.4,0,0-.19.06-.26-.89.11-1.1.14-.06.26" transform="translate(0 0)"/><path class="cls-3" d="M1814.75,6.44l.14-.3c-1.08,0,0,.11-.14.3" transform="translate(0 0)"/></g><polygon class="cls-3" points="1803.59 7.94 1804.64 8.14 1805.14 7.86 1803.59 7.94"/><polygon class="cls-3" points="1795.7 5.79 1797.03 5.73 1797.5 5.69 1795.7 5.79"/><g class="cls-2"><path class="cls-3" d="M1699.16,5.22l.32.38c.73-.07.88-.49-.32-.38" transform="translate(0 0)"/><path class="cls-3" d="M1656.9,5.33a5,5,0,0,0-2.38-.14c1,0,1.9.19,2.38.14" transform="translate(0 0)"/></g><polygon class="cls-3" points="1529.44 3.89 1530.19 3.92 1531.04 3.79 1529.44 3.89"/><g class="cls-2"><path class="cls-3" d="M1333.62,7.33c-.13-.12-.35,0-.22.38l.44.19Z" transform="translate(0 0)"/><path class="cls-3" d="M1333.45,10.05c.29.4.74.83,1,.45-.47-.34-.34-.48-.89-.85-.13-.37,0-.69.13-.66-.12-.11,0-.61-.32-.77a2,2,0,0,0,.32,1.8c0,.16-.18,0-.26,0" transform="translate(0 0)"/><path class="cls-3" d="M1349.45,43.61v-.25a1,1,0,0,0,0,.25" transform="translate(0 0)"/><path class="cls-3" d="M1352.26,67.1c0-.17-.07-.25-.11-.25,0,.16.08.3.11.25" transform="translate(0 0)"/><path class="cls-3" d="M1352.18,71.16a1.85,1.85,0,0,0,0-.23.31.31,0,0,0,0,.23" transform="translate(0 0)"/><path class="cls-3" d="M1349.45,43.61l0,.64c.14,0,0-.33,0-.64" transform="translate(0 0)"/><path class="cls-3" d="M1335.94,14.67a1.19,1.19,0,0,0-.23-.26l.16.27Z" transform="translate(0 0)"/><path class="cls-3" d="M1346.87,33.61l-.06-.18a1.24,1.24,0,0,0-.2-.1Z" transform="translate(0 0)"/><path class="cls-3" d="M1343.41,26.72c.09.15.39,0,.55,0a.54.54,0,0,1-.4-.18.54.54,0,0,0-.15.21" transform="translate(0 0)"/><path class="cls-3" d="M1335.49,16.86l-.15-.18a1.43,1.43,0,0,1,.15.18" transform="translate(0 0)"/><path class="cls-3" d="M1348.22,39.08a.29.29,0,0,0-.1.09s.07,0,.1-.09" transform="translate(0 0)"/><path class="cls-3" d="M1355.15,11.36s0,0,0,0,0-.08,0,0" transform="translate(0 0)"/><path class="cls-3" d="M1360.81,4.05l0,.12a.51.51,0,0,0,.16.09Z" transform="translate(0 0)"/><path class="cls-3" d="M1352.3,78.56v0c0-.19,0-.08,0,0" transform="translate(0 0)"/><path class="cls-3" d="M1334.5,119.24c0,.83-.88-1-.69.22.07-.16.91.73.69-.22" transform="translate(0 0)"/><path class="cls-3" d="M1336,14.87l.13.28a1.52,1.52,0,0,0-.13-.28" transform="translate(0 0)"/><path class="cls-3" d="M1333.81,119.46h0l0,.12s0-.08,0-.12" transform="translate(0 0)"/><path class="cls-3" d="M1353.15,95.51a.5.5,0,0,0,.15-.17s-.08,0-.15.17" transform="translate(0 0)"/><path class="cls-3" d="M1353.22,82.85l0,.31a1.2,1.2,0,0,0,0-.31" transform="translate(0 0)"/><path class="cls-3" d="M1353,101.8a.8.8,0,0,0-.14.42s0,0,0-.06a.47.47,0,0,1,.09-.36" transform="translate(0 0)"/><path class="cls-3" d="M1350.26,107.84l.12-.07.09-.2Z" transform="translate(0 0)"/><path class="cls-3" d="M1341.47,26.87a1.23,1.23,0,0,1,.44-.05c-.25-.07.37-.92-.44.05" transform="translate(0 0)"/><path class="cls-3" d="M1335.77,14.75a.23.23,0,0,1,.21.12l-.11-.19s-.1,0-.1.07" transform="translate(0 0)"/><path class="cls-3" d="M1355.42,102.79c-.13.38-.27.75-.41,1.12a8.36,8.36,0,0,0,.41-1.12" transform="translate(0 0)"/><path class="cls-3" d="M1329.19,74.84v-.26a.46.46,0,0,0,0,.26" transform="translate(0 0)"/><path class="cls-3" d="M1353.67,107.09a2.21,2.21,0,0,0-.5.46.42.42,0,0,0,0,.16Z" transform="translate(0 0)"/></g><path class="cls-3" d="M1341.92,26.82h0Z" transform="translate(0 0)"/><g class="cls-2"><path class="cls-3" d="M1338,41.1c0,.32-.1.41-.17.44l.07-.55,0-.05a.51.51,0,0,1,.13.16M1335,44.91c.06-.24.11-.55.17-.87.13,0,.23.05.19.25-.06-.13-.21.34-.36.62m.35-2h0c0-.21,0-.38.07-.5,0,.11,0,.25-.07.5M1346.37,21c-.74.74,0,.65,0,1-.78,1-.63.18-1.09.32-.47.63-.6,1.35-1,1.76-.09,0-.18,0-.16-.12-.32.83-1.69,1.81-2,2.84a.25.25,0,0,1-.16,0,.79.79,0,0,1,.55.29c-.3.36-.36.84-.69.79.19-.21.12-.3.14-.47l-.23.46c-.6.08.33-.61.1-.81a21.64,21.64,0,0,1-1.5,2.47c-.43-.11,1-1.49,0-.91.28-.28.55-.56.85-.82-1.07.28.49-.51-.57-.32a6.53,6.53,0,0,0-1,1.34c-.23.38-.44.76-.91,1.42,0,.42.35.07.35.49a2.75,2.75,0,0,1-1.19,1.56,1.33,1.33,0,0,0-.79,1.28c.1.5.52.82-.1,1.81l-.31-.52c-.51,1.42.35,1-.37,2.41-.1-.31.17-1.16.06-1-.63.88,0,.76-.14,1.5l-.44.06c-.32,1.55-.37,3.29-.6,5-.1-.11-.17-.42-.36,0a33.39,33.39,0,0,1-1.45,6.49l.21.83c0,.18-.21.31-.25.1-.27.77.22.08.28.49s-.3.56-.35.26a15.43,15.43,0,0,1-.71,5.5l0-.31c-.34,1.13.48,1.42,0,2.43l0-.21c-.59,2.46-.76,5.27-1.61,7.08.43.45-.66,2.42,0,2.7a13.57,13.57,0,0,0-1.24,2.9c-.12.53.3.87.25,1.55l-.36,0,.22,1-.52.41,0,.63c.07-.24.26-.49.36-.44a3.72,3.72,0,0,1-.86,2.31l-.1,2.35c-.14-.08-.12-.47-.16-.79.15,1.29-.42.15-.28,1.33.11-.13.2.12.27.16a7.76,7.76,0,0,0-.62,2.75l-.22-.22c-.36,1.68-.51,3.6-.85,5.51.24-.67.64-.43.58.13l-.42.16c.17.4.25-.56.41.23-.17.71-.52.41-.58,0l0,.89c-.12,0-.14-.19-.28-.27.18.4-.65,1.43-.33,2l-.12,0c-.33,1.93-.34,2.84-.52,4.46.33.07.18.69.4,1.2a17.3,17.3,0,0,0-.51,4c.19,1,.29.3.5.75-.31.08-.17,1.55-.45.8a15,15,0,0,0,1,4.38c.06-.26,0-.54.18-.43.15.37.1.91,0,.89l-.06-.09c1,2.23,1,5.68,2.42,7.19l-.07-.09,1.12,1.67c.33.84-.43-.4-.33.29,1.36,1.71,1.34,3.07,2.38,4.52-.25,1.6,2.07,4.32,2.32,6.22l.15-.18c.38.34.13.56.23.9.13-.11,0-.54.18-.33l.28.52.3.61c.29.6.57,1.21.86,1.82l1.7,3.85c1.16-1.84,2.34-3.69,3.51-5.55q1.1-1.57,2.13-3.15c.8-1.27-.53-1.29.86-2.67l.07.66c1.11-2.85,3.12-5.33,4.26-8.09,0,.2.09.26,0,.51.56-.4,1.17-2,1-2.12.26-.38.24,0,.49-.17.46-.46.47-1.54.89-1.69.06,0,0,.2-.05.31.08-.42,1-1.63.5-1.46.7-.88,1-1.93,1.55-2.65-.05-.68,1-1.69.65-2.09.47.32,1.21-1.74,1.16-2.56.08.3.34-.59.48-.24.23-.85.27-1.66,0-1.56,1-1.49-.12-3.16.73-4-.24-2.42-.47-4.65-.68-6.81.54.06.11,2.37.67,2.27-.27-2-.77-3.2-.71-5.22,0-.52.25.29.34.46-.29-2-.11-3.94-.5-5.73,0,0,.12.19.17.38,0-.36,0-.84-.21-.78l.09.34c-.33.59-.82-1.38-1-1.43.73.57.07-1.79,1-.88-.06-.24-.19-.52-.35-.46,0-.35.11-.47.32-.12-.21-1.27-.44-.8-.51-2,.11,0,.18.23.32.34a4,4,0,0,1-.5-2.13c.07.06.16-.06.17.23-.16-1.68-.81-2.81-.75-4.66.56.49.11-.64.55-.78l-.22-1-.18.42a15.86,15.86,0,0,1-.39-2.36l.25.63-.24-1.61-.08.93c-.31-.85-.55.15-.54-1,.07.22-.08-.87.14-1.34h0a2.83,2.83,0,0,1-.34-1.49c.13-.18.51.09.59,0-.42-.38-.32-2-.78-2.5a.29.29,0,0,0,.39.09l-.34-.32c.05-.41.09-.48.28-.43-.08-1.21-.51.44-.44-1,0,.11.08,0,.15.28,0-1.45-.52-2.74-.54-4.08.39-.44.25,1.14.57.65-.32-1.89-1-3.86-1.2-5.7v.35c-.67-.16.11-1.41-.32-2.29.08.22.39.25.31.2a25.45,25.45,0,0,0-1-4.4l.2.21c0-.76-.23-2-.3-2.77-.21-.21-.26-.67-.44-.35.46-2.64-1.4-4.56-1.28-6.88.07.26.31.58.25.37-.21-.6-.47-1.19-.7-1.78-.22.23-.09.29-.17.73a2.74,2.74,0,0,1-.66-1.08c.46.74.41-.15.43-.55-.06.09-.19,0-.26.06.1-1.1-.55,0-.76-1.33h.16a10.54,10.54,0,0,1-.83-1.29c.19-.34.38.42.63.34-.37-.68-1.18-1.09-1.27-1.83a10.2,10.2,0,0,1,.69.9,2.32,2.32,0,0,0-.39-1.41l0,.06a10.37,10.37,0,0,0-.56-1.22l.11.33c-1.22-.34-1.25-1.56-2.54-2.17,1.21.6.36-.05.7-.22-.16-.31-.44-.77-.26-.73-.64-.26-.59-.94-1.57-1.2,0-.12-.51-.46-.22-.59-.64-.42,0,.27-.12.35-1.19-.47-1.75-2.1-3.18-3a17.66,17.66,0,0,1-2.41-2.12c-.07-.5.57.12.57.12a5.8,5.8,0,0,0-.93-1.78c.15.08.17-.09.2-.33-.25-.5-.55-.17-.66-.93a1.91,1.91,0,0,1,.64.34c-.35-.56-.78-1.09-1.09-1.71.13-.23.42.29.62.47-.35-.68-.77-1.82-1.14-2l0,.51c-.08-.27.23-.22.34,0,.44.55.17.94.08,1l-.22-.45c-.52.7.73,1.86,1.09,2.75l-.62-.18.79.77c0,.24-.21.51-.48.09.09.76.44.49.48,1.17,0,.08,0,.07-.09,0,.15.19.32.36.48.54-.16-.07-.24.28-.4-.13.4,1.28,1.42,1.54,1.4,2.15l-.09-.07c1.24,1.3.38-.06,1.56.66,0,.41-.06.84-.07,1.27l.39-.13c.12.13.36.41.21.46.66.3,0-.19.47-.08.41.84,1.93,1.44,1.68,2,.41,0-.48-.7.34-.25-.21.62.86.63,1.2,1.42-.41,0-.78-.6-.46.15.75-.05.89,1.21,1.36,1.64.36-.22,1,1,1.62,1.94-.13,0,.77,1.94,1,3h-.08c.49,0,.78,1,1.13,1.73-.26.06-.4,0-.66-.39l.25.68a1.56,1.56,0,0,1,.51.74l-.37-.07a9.82,9.82,0,0,1,1,3c.32,0,.59-1.18,1.1.08-.14.08-.41.19-.56-.13a1.35,1.35,0,0,1,.22.6l-.4-.45c0,.58.3.24.38.69-.23,0-.09.37-.29.34s0-.41-.12-.55a2.85,2.85,0,0,1-.07,1.38c.12-.07.31-.07.42.3.2.95-.21.38-.22,1,.2.2.15.84.5.79,0,.28-.11.37-.18.49.24.47.44,2.32.71,1.7v-.14a.24.24,0,0,0,0,.08h0c.62,1.59.35,3.45.74,5.05l-.11,0a20,20,0,0,0,.74,2.82c0,.29-.11.71-.27.6a4.38,4.38,0,0,1,.29,1.91c-.31-.73-.15.28-.26-.75a4.15,4.15,0,0,0,.33,2.22c-.34-.31-.28.78-.14,1.23l.13-.71a11.1,11.1,0,0,1,.18,1.44l-.43-.2c-.23,2,1.25,3.48.61,5.09.33.49.08-1.1.45-.67a12.88,12.88,0,0,1-.38,2.22c-.09,1.27.69,1.11.68,2.44.12-.18.48-.38.71.59,0,.92-.48,1.18-.65.61,0-.21,0-.32.05-.32-.08-.29-.18-.67-.29-.3l.15.11c-.1.47,0,1.73-.23,1.45.2.68.26.28.28-.24-.09,1.19.17,1.83.13,3.06.06-.2.21-.39.23-.2,0,1.79.33.76.49,2-.16.7-.53-.21-.26,1-.09.75-.36.19-.5-.1a6.5,6.5,0,0,1,0,2.71l-.15-.57a4.53,4.53,0,0,1,.13.91l.26-.35c0,.35,0,.63-.13.64.21.34.45-.31.75.38-.11.46.25,1.38-.12,1.56,0-1.44-.36.18-.5-1a2.57,2.57,0,0,1,.05.86c0,.06-.08,0-.11-.13-.25,1.39.46.6.54,2-.22-.17-.38.35-.33.58,0-.57.34-.29.53.22-.11.93.18,1,.18,1.47l0-.55c.22.17.22.63.32,1.26-.17.07-.15-.57-.21-.34.41.69-.3,1.62,0,2.59-.13.46-.4.06-.48.46.32,1.1-.24,1.21,0,2.36.27-.34.2-.4.5.41l-.26-1.9.45,1.21c0-.58-.22-1.21-.18-1.56.25.57.18.52.4.23-.39.81.31,1.56.05,2.48h-.7c-.27,1.38.42,2.43.29,4.21l.11-.58c.29.24.07,1.1.18,1.67-.23-.05-.31.31-.46.55.18,0,0,1.27.44,1.44l-.35.76c-.21,1.36.57,1.64.27,3-.18-.44-.44.12-.49-.77-.06.43-.18.8,0,.84-.18.22.06,1.26-.29,1.58.05.21.27.34.09.81-.06,0-.11,0-.11,0s-.12.8.28.47c-1.12,1-1.56,3.59-2.74,4.37-.42.9-1,2-1.42,2.79,0-.08-.1-.06,0-.2-.83,1,.19,1-.74,2.14-.7.44.2-.77-.15-.44-.77-.22-.78,1.55-1.66,2.16l.08-.23c-.6.51-.65,1.71-1.31,2.73,0,0,0-.09-.1-.07a12.64,12.64,0,0,1-1.23,3.39c-.08-.46.12-.54-.25-.5-.23.47.5.12.05,1.06-.31.21-.81.78-1.15.71l.48-.86c-.62.22-.63,1.1-1,1.51l-.13-.15c-.7,1.33-.31,1.59-1.15,3l.21-.08c0,1-.6.51-.74,1.45h-.54c-.28.69-.41,1.6-.87,2.58.07-.48.17-.92.25-1.27,0-.16,0-.32.08-.47l0-.19.08-.3a3.62,3.62,0,0,0-.33.66,2.37,2.37,0,0,0-.16.71c.06-.19.07-.44.17-.47a5.11,5.11,0,0,1-.72,2.32c0-.06-.06-.13-.09-.2a3.43,3.43,0,0,0-.25-1.83,7,7,0,0,1-.23-.69.72.72,0,0,1,0-.29,1.4,1.4,0,0,1,0-.46c-1.16-1.7-1.56-3.72-2.6-5.85-.3,1.06-.31-.62-.91-.19-.28-.48-.36-.67-.33-.74l-.31-1.7c0-.45.37.41.49.29-.45-1.12.07-.59-.09-1.39-.17.25-.51-.23-.71-.9l.1,1c-1.06-1.38-.06-1.59-1.12-3l.43.39c-.49-.74-1.31-2.9-2.16-3.45,0-.17.12-.43.32-.1-.72-1.89-2.18-4-2.16-5.64l.21.1c-.13-.34-.47-.55-.38-1,.08,0,.2.11.18-.06a3,3,0,0,1-.42-1.41l.25.39c0-1.9-.72-2.91-.78-4.59.51,0,.78-1.5,1-2.26l.07,0c.32-2.26.11-4,.29-6.15.8-1.24,1-4.51,1.74-6.61-.16.31-.4-.13-.38-.52.19-.49-.11-1.46.35-1.3l0,.18c.53-.3.59-1.36.75-2.17l-.6-.25c1.28-2,.65-5.63,1.67-6.65-.07-.54,0-1.17,0-1.71l.33.09a31.42,31.42,0,0,0,.73-3.88l.18.4c.19-1-.74-1.42-.6-2.34l.55-.19c.29-1.73,1-3.4.89-5.19.07,0,.2.11.17.4.16-.81.9-3.09.16-2.92.45.06.36-1.77.33-2.74l.3.2a3.61,3.61,0,0,1-.31-2c.09-.25.31-.18.16.15.33-.84-.19-.73.17-1.76l.14.43a1.74,1.74,0,0,0-.1-1.37c0-.59.39-1.68.7-1.76a1.34,1.34,0,0,1-.13-1.2c.12,0,.16.15.18.26.48-1.46,0-2.3.51-3.27a.26.26,0,0,0,.23-.14c-.22,1.19-.41,2.14-.42,2,.31.05.53-.9.81-.06a8.16,8.16,0,0,1,0-3.12.38.38,0,0,1,.12-.1l0,.1a1.37,1.37,0,0,0,.06-.59,5.9,5.9,0,0,0,.24-.75c.27-.06.34-1.05.46-1.51-.34,0-.15-.63-.55-.12,0-.07,0,.1,0,.41a.77.77,0,0,0,0,.21l0,0c-.06.31-.13.72-.21,1.17a1.56,1.56,0,0,1,.13-1.3c-.16-.29-.32-.6-.39-.77.6-.55,1.15-1.7,1.47-1.79.19-1.45.87-3.23.68-4.3.11-.39.37-.34.53-.43-.05.24-.18.47-.15.62.1-.38.35-.92.53-1.4s.4-.89.26-1.09c.72-.76,0,.7.73-.52V31c2.11-1.79,2-4.28,4.85-6-.19.11-.28.18-.37.16,2.81-2.32,5-5.54,7.86-7.88.76-.7.62-1,.86-1.58l.42.05.33-1.11c.69-1.37,2.3-1.62,2.87-3.59l-.33.09c.39-.58,1-2,1.18-1.73a.47.47,0,0,1,.13-.5l.17.07.49-1.67c.69-1.14.63.53,1.42-1.27.21-.71.27-2.12,0-1.9s-.39.64-.58.59l.16-.64c-.48-.3-.84-.92-1.78.35l-.09,1.12-.37.21.32-.84c-.43.37-.33.76-.34,1.16a.7.7,0,0,0-.47.27V7.61c-.25,0-.17-.61-.59,0,0,.55.64-.2.42.61-.46.34-.56.11-.68.73-.17,0-.18-.15-.12-.39-.12.55-.66,1.25-.55,1.64-.51.31-.93,1.57-1.33,1.23a3.9,3.9,0,0,1-.46,1.44c0-1.09-1.17,1.45-1.56.84.06.9-1.33,2-1.88,3.13,0-.07,0-.23.13-.29a4.72,4.72,0,0,1-1.12.74c.29.38-.34,1.24-.53,1.84-.91.29,0-.74-.55-.85.31.23-.72,1.3-.3,1.32-.64.26-.47.3-1,.27.34.48-.35.49-.46,1.12-.86.46-.56-.22-1.15.63-.47.22,0-.57,0-.57" transform="translate(0 0)"/><path class="cls-3" d="M1337.71,40.45a.56.56,0,0,1,0-.13,1,1,0,0,0-.11.17l.08.13,0-.17" transform="translate(0 0)"/><path class="cls-3" d="M1349.45,43.32v0l0-.1,0,.06" transform="translate(0 0)"/></g><polygon class="cls-3" points="1329.42 72.57 1329.51 72.58 1329.46 72.39 1329.42 72.57"/><g class="cls-2"><path class="cls-3" d="M1348,32.09a.32.32,0,0,0,0-.17s0,.08,0,.17" transform="translate(0 0)"/><path class="cls-3" d="M1345.92,27.54l-.25-.67a5.53,5.53,0,0,0,.25.67" transform="translate(0 0)"/><path class="cls-3" d="M1343.81,24.28a.31.31,0,0,0-.16,0h0Z" transform="translate(0 0)"/><path class="cls-3" d="M1355.45,82.48a.59.59,0,0,0,0,.14c.08.33,0,.11,0-.14" transform="translate(0 0)"/><path class="cls-3" d="M1353.32,64.87a5.2,5.2,0,0,1,.21.55c0-.32,0-.56-.21-.55" transform="translate(0 0)"/></g><polygon class="cls-3" points="1355.42 102.79 1355.46 102.67 1355.46 102.66 1355.42 102.79"/><g class="cls-2"><path class="cls-3" d="M1353.61,66.24a2.12,2.12,0,0,0-.08-.82,3.22,3.22,0,0,0,.08.82" transform="translate(0 0)"/><path class="cls-3" d="M1334.88,11.65l0-.17h-.06Z" transform="translate(0 0)"/><path class="cls-3" d="M1334.79,11.48l-.09-.18a.27.27,0,0,0,.09.18" transform="translate(0 0)"/><path class="cls-3" d="M1334.51,10.93l.19.37c0-.14-.07-.31-.19-.37" transform="translate(0 0)"/><path class="cls-3" d="M1336.5,16.11h.13a.2.2,0,0,0-.13,0" transform="translate(0 0)"/><path class="cls-3" d="M1337.24,17.34a5.82,5.82,0,0,0-.51-1.24h-.1c.24.11.27,1.05.61,1.23" transform="translate(0 0)"/><path class="cls-3" d="M1340.25,22.94c-.31-.31-.62-.6-.92-.91.08.25.19.58-.27.2,1,1.37-.07-.43,1.19.71" transform="translate(0 0)"/><path class="cls-3" d="M1342.82,25.7c-.45-.47-.14.13-.22.14.35.24.44.31.22-.14" transform="translate(0 0)"/><path class="cls-3" d="M1350.5,52.05l-.31,0c.11.5.12,0,.31,0" transform="translate(0 0)"/></g><polygon class="cls-3" points="1352.77 57.19 1352.89 56.67 1352.58 56.46 1352.77 57.19"/><polygon class="cls-3" points="1351.12 61.24 1350.98 60.61 1350.91 60.39 1351.12 61.24"/><g class="cls-2"><path class="cls-3" d="M1350.58,106.65l.41,0c.1-.33-.24-.59-.41,0" transform="translate(0 0)"/><path class="cls-3" d="M1340.67,124.51a1.23,1.23,0,0,0-.68.93,7.63,7.63,0,0,0,.68-.93" transform="translate(0 0)"/></g><polygon class="cls-3" points="1331.44 78.43 1331.5 78.86 1331.53 78.08 1331.44 78.43"/></g></g></svg>