<svg xmlns="http://www.w3.org/2000/svg" viewBox="0 0 1930.51 114" class="svg" focusable="false" aria-hidden="true" role="img"><defs><clipPath id="clip-path"><path fill="none" d="M0 0h1930.51v114H0z"/></clipPath><style>.cls-2{clip-path:url(#clip-path)}.cls-3{fill:#fff}</style></defs><g id="Layer_2" data-name="Layer 2"><g id="Layer_1-2" data-name="Layer 1"><g class="cls-2"><path class="cls-3" d="M.42 7.4c-.91 0-.4.27 2.09.28l1.77-.29zm16.73.95c2.93-.09 6.32-.3 4.43-.64-2.91.25-3.61.11-6.74.41-2.49 0-4.34-.19-3.92-.3-.88.06-3.87-.16-5.22 0a96.45 96.45 0 0011.64.3c.92.09 0 .16-.19.21M260.62 11h-1.57 1.57m150.85.48a9.48 9.48 0 00-1.68.07 13.72 13.72 0 001.68-.07m25.76.37h-1.52a13.69 13.69 0 001.52 0M260.62 11l4 .12a32.82 32.82 0 00-4-.12M50.73 8.15c-.84 0-1.55 0-2.19.06h2.19m143.38 2.73h-1.22l-1 .13zm-51.04-.25a5.15 5.15 0 002-.37 18.8 18.8 0 01-2.52.16c0 .06.13.12.51.21M62.15 9.42h-1.43 1.43m168.49 1.76a1.71 1.71 0 00.47.11s-.19-.07-.47-.11M1296 78.94c-.14-.28-.19-.37 0 0m-1.08-59.38v.82c.06.09.11.18.16.18zM917.1 10.51c-4.9-.22 8-.38.59-.6.69.1-6.7.48-.59.6M52.05 8.2h2.09-2.09m865.64 1.71h-.76.76M593 12c-.22 0-.66-.08-1.11-.11A6.41 6.41 0 00593 12m-80.94-.36h2-2M635 11.47c1.09 0 1.46.06 2.94 0h-.45a23.09 23.09 0 01-2.49 0m43.72-.1h-2.2zm608.37 17.07c.1-1 .19-1.55.28-2-.2.67-.18-5.75-.28 2"/><path class="cls-3" d="M50.75 8.31a5.71 5.71 0 011.3-.11H50.6c-.13 0-.16.08.15.11m586.01.97h7-7m574.59-7.41l1.59-.14c-.61 0-1.18.08-1.59.14M664.32 9.22c1.24.09 2.56.15 3.92.18.28 0 .61 0 .8-.07zm623.06 17.19"/><path class="cls-3" d="M1305 111.68a25.92 25.92 0 002.56-.85 9.59 9.59 0 01-3 1h-.21l.67-.24m13.36-20.87c-.12 1.59-.28 3.57-.56 5.66-.17.44-.18-.07 0-1.37a31.13 31.13 0 00.58-4.29m-2.06 13a11.44 11.44 0 01-1.44 3.08 11.37 11.37 0 001.44-3.09m-2.85-86.83c.12-6.62-.3-3.1-.49-4.52a5.62 5.62 0 00-.59-2.85 3.84 3.84 0 00-1.47-1.42c-.86-.45-1.18-.5-1.32-.61s.18-.26-1.32-.55a88.86 88.86 0 00-12.63.35c-.29 0-1 0-.17-.14a13.3 13.3 0 00-4.93 1.57 6.19 6.19 0 00-2.28 2.44 8.27 8.27 0 00-.78 3.26c-.1 4.08-.1 8.09 0 11.15a5.8 5.8 0 01-.1.79c.19-1 .38-1.13.51-.92 0 3 .15 5.51-.11 6.62a17.61 17.61 0 00-.12-2.82l.06 3.11c-.38 2.79-.06-4.25-.31-4.25 0 6.06.2 13.13 0 17.78-.35 1 0-10.87-.35-4.67l.24-7.19c-.61 5.48.1-4.37-.54.67-.24 9.46 0 10.59-.22 20 .15 2.13.28-.7.44 1.43.16 13.43-1 10.52-.64 20.44.11 1.28.3 2.17.44 3.62s.26 3.46.53 7c-.2-.79-.43-1.59-.6-2.38a32.85 32.85 0 001.19 7.27c.42 1.33.62 2.75 2.15 7.42a30.28 30.28 0 01-1.4-3.92c-.4-1.39-.6-2.42-.48-1.73a18.29 18.29 0 001.48 5c.4.86.78 1.53 1.85 3.73l.17 1.07a32.81 32.81 0 004.55 6.27 15.57 15.57 0 003.14 2.68 8 8 0 004.22 1.29 9.59 9.59 0 004.25-1 17.62 17.62 0 003.57-2.25 14.57 14.57 0 004.92-6.9c-.09.63-.74 2.61.32 0 1.9-6.77 2.15-14.2 2.34-21.4s.32-14.35.46-20.92l-.24-5c0-1.17.15-2.17.19-.9.16-5.12-.18-.27-.27-2.73 0-2.92.2-3.85.27-2-.16-9-.28-25.75.12-35.27l.07 1.86c.12-4.74-.13-7-.24-9.54.09-.45.5-2 .88-3.46l-1.88-.16-1.77-.18 1.54.06-12.46-1-12.2-.9c-8-.57-15.47-1.1-21.6-1.66-1.18.12-5.16-.09-9-.29s-7.49-.25-8 0c-4.6-.16-6.25-.29-8.37-.32s-4.71-.09-11.19.13c-3.47.16-5.14.64-9.4 1l-.12-.29-5.77.69-3.11-.16-4 .34a14.19 14.19 0 013.16 0c-3.12.27-6.93.46-10 .57s-5.34.1-5.42 0l-14.77 1.07c.33-.14 2.8-.31 4.75-.49-7.87.73-1.45-.24-8.66.42 1 0-.52.21-.68.28-3.61 0-11.82.41-17.89.69l1.16-.25-35.44 1.21c4.42 0 3.41.38-.2.5l-1.45-.29c-2.33.25 3.77 0-1 .39-4.6 0-3.1-.31-.46-.47l-5.6.23c-.33-.09 1-.17 1.32-.3-2.29.25-9.66-.13-13 .28l-.32-.09-27.94.68c-.19.29-4.11.28-7.1.55-7.38 0-15.57-.1-24.46 0-6.24.22-1.82.26-4.62.46-.46-.25-9.34-.1-4.74-.34-10.67.18-13.62.25-27.11.61 1.46.09 3.11.12 2.26.21a27.22 27.22 0 01-5.22-.17h.64c-15.14.53-35-.39-47 .26h.68l-12.51.4c-5.75 0 3.45-.23-.81-.34-13.48.56-21.31.1-32.42.48-8.6-.69-30.51.27-42.12-.12l.67.17a48.25 48.25 0 01-5.84-.1c.31.14 3.25.14 1.39.24-25.41.4-52.45 0-78.51 0-9.53 0-5.4.94-17.42.58l3.41-.34c-19.23.48-39.32.13-58.14.54a23.54 23.54 0 013-.18c-2-.11-5.67-.1-8.85 0l-4.15.12a9.44 9.44 0 00-1.77.15c-2.94 0-.68-.17-2.49-.26-4-.13-10 .34-12.13.11a11.73 11.73 0 011.85-.1c-2.6.12-12.11 0-9.62.28-7.07-.1-13.52.16-19.15 0-3.68.32-12.1-.12-13.26.32.5-.45-12.39-.34-16.86-.12 1.5-.13-3.88-.13-2.13-.32-5.1 0-9.77.11-8.88.34-9.4-.51-18.88.47-24.17-.2-15.15.28-29.16.46-42.79.57.5-.45 15.06-.06 14.48-.53-12.93.2-20.38.59-33.2.49-3.32-.06 1.89-.19 3-.27-12.91.19-25 0-36.46.23 0 0 1.28-.08 2.45-.12-2.27 0-5.27-.06-5 .14h2.2c3.62.29-9 .62-9.39.77 3.84-.58-11.35-.13-5.25-.87-1.49 0-3.36.13-3 .27-2.21 0-2.91-.12-.67-.27-8.11.11-5.22.32-12.57.31 0-.09 1.51-.13 2.27-.25-3.72.19-7.46.38-13.67.3.37-.06-.35-.14 1.5-.14-10.66 0-18.17.5-29.87.31 3.45-.42-4-.14-4.6-.51l-6.3.11 2.53.18c-5.51 0-10.38.26-15.12.14l4.1-.15-10.33.06 5.84.14c-5.57.19.6.47-6.73.36 1.49 0-5.52 0-8.39-.22-2.73.11-5.53.23-9.61.13-1.06-.12.86-.4.17-.48-2.69.3-12.91.06-16.32.38 1.14-.08 1.2-.27.83-.31l-2.26.25c-2.55-.09-2.93-.13-2.51-.28-7.68-.06 2.43.47-6.68.25.72 0 .38 0 1.87-.09-9.16-.12-17.69.13-26.1 0-2.48-.38 7.35-.08 4.51-.4-12.13.05-25.11.4-36.85.29h2.19c-1.63.51-8.74-.29-14.68-.07 1.46 0 1.91-.28 1.52-.22-8-.11-16.44.07-28.61.19l1.6.03c-4.74-.13-12.48-.11-17.59-.19-1.52.13-4.45.1-2.67.3-15.77-.81-30.09.3-44.09-.43 1.68 0 4-.09 2.66-.1l-11.92.06a30 30 0 004.07.34c-1.51.12-4.88.21-7.83.19 5.36-.12-.05-.36-2.36-.5.38.07-.41.14-.21.21-6.23-.44-1 .46-9.55.14l.45-.12c-3.18 0-6.12.19-9.55.13-1.42-.27 3.39-.1 3.61-.32-4.82 0-9.51.45-13.87.16l7-.11c-4.74-.33-5.3-.26-8.82-.33h.34l-8.16-.19 2.08.1c-6 .64-12.28 0-20.41.41 7.9-.36 1.31-.23 1.91-.53-2.07-.1-5.22-.22-4.32-.29-3.84.21-6.41-.25-11.83.06-.25-.1-4.11 0-3.24-.28-5 0 1.18.18.75.3-7.69.26-18.08-.54-29.16-.2-9.54.06-11.31.36-20.17.41-3-.19 2.45-.32 2.45-.32-4.82-.2-8.45-.22-13-.17.92-.07 0-.15-1.41-.28-3.65 0-2.45.32-7.26.12.83-.1 1.89-.26 3.65-.34l-13 .18c-1.18-.18 2.68-.2 4.25-.3-5 0-12.95-.11-14.5.14l3.2.16c-1.82 0-.93-.24.42-.27a25.94 25.94 0 016.42.33h-3.17c3.24.67 12.72.1 19.1.22L48.61 9l6.54-.26c1.39.13 2.34.37-.81.39 4.57.26 4-.1 8 .18.43 0 .24.06-.17.07l4.47-.07c-.87.08.74.3-2 .21 8 .34 12.94-.15 15.95.2h-.67C91 9.78 81 9.5 89.33 9.23l5.61.79L96 9.73c1.15 0 3.42.06 3 .18 4.27-.17-.73-.14 1.75-.31 5.52.32 15.24 0 16.48.49 2-.22-5.28-.22.62-.33 1.67.53 6.82 0 11.86.24-1.55.26-6.33.08-1.28.36 3.05-.43 9.83.18 14.09.12.2-.35 9.26-.06 16.4-.15-.45.12 13.45.27 20.09.43l-.19.06c1.29-.35 8.14-.25 13.13-.29-.19.21-1.09.29-3.8.38h4.7c1.1-.11 2.57-.16 5.61-.19l-1.18.27c6.25 0 12.58-.25 20.62 0 .45-.25-6.39-.74 2.11-.86.31.14.63.37-1.6.42.73 0 2.6-.1 4.07 0l-3.4.21c3.66.12 1.92-.18 4.84-.15-.05.2 2.17.15 1.75.3-.75 0-2.55-.09-3.67 0 3.29.06 7.28.18 8.6.33-.29-.11 0-.26 2.42-.27 6.25 0 2.14.24 5.78.35 1.51-.13 5.5 0 5.6-.27a15.83 15.83 0 012.87.23c3.24-.12 15.1 0 11.46-.31h-.83.53c10.6-.25 22 .24 32.53.15v.1c6.28-.09 14 0 18.45-.22 1.86 0 4.38.19 3.59.3 4.8-.06 5.33-.17 12.26 0-4.82.16 1.67.15-4.94.11 6.23.1 7.65.25 14.34 0-2.28.25 4.69.32 7.66.25L338 11.4h9.2l-1.6.33c12.76.42 23-.64 32.72.05 3.37-.23-6.93-.18-3.91-.44 5.87.06 12 .54 13.82.54 8 .2 7.5-.46 15.91-.34-1.08-.11-2.09-.43 4.19-.53 5.88 0 7.22.49 3.51.58a9.62 9.62 0 01-2-.07c-1.9.05-4.39.1-2.07.22l.77-.11c2.91.12 11 .11 9.09.3 4.44-.11 1.9-.19-1.39-.25 7.53.17 11.77 0 19.52.12-1.23-.06-2.37-.2-1.14-.2 11.37.15 5-.22 12.71-.26 4.38.18-1.57.42 6.19.27 4.73.13 1 .32-.88.41 7.07-.22 13.2.15 17.24.2l-3.72.09c2.22-.05 4-.05 5.9-.05l-2.17-.26a33 33 0 014 .15c2.25-.16-1.72-.4 2.75-.6 2.91.12 8.87-.13 9.87.18-9.16-.1 1 .32-6.74.36h5.51c.33 0-.31.07-.9.08 8.76.28 4-.35 13.11-.35-1.15.18 2.11.33 3.59.29-3.66 0-1.75-.29 1.61-.42 5.83.13 6.33-.11 9.38-.1l-3.48-.06c1.18-.17 4.1-.15 8.16-.21.34.13-3.69.1-2.24.15 4.51-.31 10.19.31 16.48.1 2.91.12.28.33 2.84.41 7-.24 7.63.23 15 0-2.14-.24-2.51-.18 2.71-.41l-12.18.17 7.81-.35c-3.67 0-7.75.16-10 .12 3.72-.19 3.34-.14 1.58-.33 5 .35 10-.21 15.78 0l-.18.58c8.74.25 15.53-.31 26.88-.17l-3.65-.1c1.53-.23 7 0 10.69-.14-.35.19 1.95.26 3.52.38-.19-.15 8.31 0 9.34-.4l5.06.24c9.17.09 10.46-.57 19.27-.53-2.65.22 1.35.35-4.55.51a45.8 45.8 0 005.63-.11c1.72.12 8.16-.28 10.86-.1a34.3 34.3 0 014.95-.28c.36 0 0 .1 0 .1s5.16-.15 2.28-.36c9.06.59 25.32-.1 33.21.41l20-.22c-.38.06 0 .1-1.12.08 8 .16 4.94-.57 14.08-.4 4.68.29-4.85.18-1.94.29 1.27.64 11-.12 17.2.23h-1.49c4.7.2 11.47-.28 19.16-.27 0 0-.37.06 0 .1 5.25-.35 15.2-.49 22.6-.61-2.3.26-3.36.15-2 .4 3.32-.05-1-.41 5.65-.5 2.15.13 6.92.22 7.56.49h-6.24c3.2.34 8.08-.05 11.36 0l-.42.16c9.57-.1 9.7-.49 20-.52l-1.06-.11c5.61-.41 4.71.19 10.31-.12l1.7.38c3.71-.11 13-.44 19.63-.55-3.77.31-11.54.49-16.36.69 3.68 0 12.49-.09 14.4-.3-1.48.05-3.34.16-4.8.1 4.5-.33 10.43-.51 17.75-.54-1.29.76 19.09.1 24.41.63 13-.37 25.69-.07 40.78-.22-5.35-.55 4.41-.05 3.48-.65 3.51-.06 4.85-.06 5.17 0l10.65.29c2.53.15-3.34.15-3 .29 7.69 0 3.23.23 8.32.35-1-.21 2.67-.33 7.06-.28l-6.18-.23c10.75-.39 9.3.43 20.14 0l-3.43.22c5.56-.16 20.52-.2 26-.73 1 .06 2.29.21-.16.28 13.3-.07 29.59-.81 39.93-.62l-1 .16c2.48-.08 4.31-.34 7.42-.23-.16.06-1 .16.15.15 1.31-.06 6.59-.34 9.87-.3l-2.8.2c13 0 19.89-.68 30.77-.93 0 .44 10.18.44 15.27.44l-.17.06c15.1-.2 25.64-.85 39.62-1.29 8.69.38 29.41-.56 43.37-.75-2.14 0 .33-.35 2.81-.47 3.28 0 9-.67 8.53-.25l-1.16.05c2.48.27 9.2-.13 14.45-.39l.84-.57c13.77.11 35.94-2.43 43.46-2.23 3.29-.34 7.39-.58 10.65-.84l-.16.29c9.15-.26 13.7-.27 25 .08l-2.32.1c6.38.29 8.1-.47 14-.13l1.74.52c11.15.69 22.4 1.89 33.43 2.36a7.19 7.19 0 01-2.33 0l9.2.78c-.12.46-.24.9-.35 1.31v4.1c.05.88.13 1.24.25.83-.37.13-.14 11.53 0 17.57l-.27-.94c.3 5.1.4 5.26.43 12.38 0 1.68-.24 1.47-.15-.77-.19 5.62.22 4.39 0 11.19l-.15-2.54a73.76 73.76 0 00.2 8.51 104.67 104.67 0 01-.43 11.81 51.72 51.72 0 01.21 7.36c-.1.45-.14-.79-.16-1.41-.28 9.65.21 14.39-.9 20.9a3.25 3.25 0 00-.33 1.07 113.92 113.92 0 001-13.12c-.24 0-.5 6.15-.68 1.24 0 2.48.05 5.82-.24 9.26a47.43 47.43 0 01-.71 5.12 20.06 20.06 0 01-1.3 4.48c-.15.23-.29.44-.42.6l.24-.51a15.66 15.66 0 01-2 2.87 17.52 17.52 0 01-3.71 2.84 19.33 19.33 0 01-3.55 1.22 6 6 0 01-4.66-1.35c0 .42-2.83-2.13-.28.37a11.91 11.91 0 002.1 1.12 4.47 4.47 0 001.13.26h-.19c1.73.36 4.2-.37 6.57-2a12.6 12.6 0 01-3.16 1.81 5.89 5.89 0 01-4 .13 8.62 8.62 0 01-3.66-1.74 33.64 33.64 0 01-4.44-6.38 23.84 23.84 0 01-2.06-5 51.63 51.63 0 01-3.14-14.71c-.45-5-.47-9.72-.71-12.69a21.22 21.22 0 01.29-4.08c0 1.55 0 3.39.06 4.23-.06-5.37.18-15.9-.16-17.19.26-6.76.28 3.81.35-5.49l.1 1.26c.42-9.14.3-16.58.2-24.26 0-3.82-.15-7.79 0-11.91a5.27 5.27 0 011-2.78 5.34 5.34 0 012.54-1.72 21.4 21.4 0 017-.67h-2.38c2.87-.11 5.77-.08 8.67.09a13.62 13.62 0 014.12.59 2.05 2.05 0 011.2 1.16 5.68 5.68 0 01.23 2c-.08 5.91-.15 11.85-.23 17.78-.14 11.87-.31 23.7-.76 35.09-.21 6.48 0 7.19.12 11.15l-.32 1.39a13.49 13.49 0 01-1 6.37 4 4 0 01-2.43 2 4.25 4.25 0 01-3-.32 10.17 10.17 0 01-4.29-4.48c-2.12-3.82-3.12-8.45-3.68-14.43l-.09 1.56c-.37-4.3-.34-13.78-.16-13a17.12 17.12 0 01-.11-3.13l.16-.13-.29-10.72c.1-8.31.62 1.3.63-10.82-.06-4.51-.47-12.83-.57-11.14a30 30 0 01-.25 4.78l-.09-4.12c-.46-.75-.93-3.91-1.24 6.2l.3 7.05-.22 2.27v-5.93a59.73 59.73 0 00.12 7.89 18.9 18.9 0 00-.24 3l.45 6.92c-.18.84-.36-3.1-.45 1.54.21 3.25.4-3.11.54 2.26a32.94 32.94 0 00-.19 6.35c-.12.55-.2-.28-.25-1.85.14 3.51.06 9.35.46 11.18a35 35 0 00.82 7.33c.53 2.51 1.31 4.47 1 4.38a28.78 28.78 0 002 3.6 13.25 13.25 0 004.16 4.2c-1.43-.79-1.42-.8-.71-.19a6.73 6.73 0 004.79 1.47 5.68 5.68 0 003.06-1.42 7.44 7.44 0 001.64-2.36c.63-1.45.8-2.34.87-1.88.4-2.5.17-6.42.27-10.78s.13-9.17.06-13.05a18.9 18.9 0 01.06 2c.11-4.37.27-5.63.4-8.43-.37-.57-.35-7.37-.53-11 .46-5.34.4 3.26.79 1.59-.32.26-.16-9.3-.45-7.49a41.11 41.11 0 01.52-5.63c-.47-.72 0-3.81-.26-7.2.34-5.92.48-1.52.44-8 .2-3.09.27 2.69.27 2.69"/><path class="cls-3" d="M1301.84 111.82a3.77 3.77 0 01-.7-.27 6 6 0 001 .46c.22 0 .44.07.64.07a6.82 6.82 0 01-.94-.26M258.77 10.91h.28-.58.3"/></g><path class="cls-3" d="M1225.78.79l.03.07 1.13-.14-1.16.07z"/><g class="cls-2"><path class="cls-3" d="M187.22 9.64a8.12 8.12 0 00-.94-.08 8.86 8.86 0 00.94.08m-30.91-.23l-4.38-.13 4.38.13m-23.77-.32a1.71 1.71 0 00-.47.11h.05zm377.89.7h.91c2.15-.06.69 0-.91 0M398 10.42l3.61-.13a14.68 14.68 0 00-3.61.13m238-1.14z"/><path class="cls-3" d="M406.81 10.29h-5.23c1.65 0 3.58.05 5.23 0M29.55 7.8h-1.28zm-1.28.01H27h1.28m-3.96.02h2.67a25.56 25.56 0 00-2.67 0M61 8.38l.36-.09a.73.73 0 00-.36.09m9.56.1c-2.28-.06-5.72-.29-8.9-.27l-.3.08c1.5-.13 7 .33 9.2.19m39.89 1.64l-8-.15c1.4.12 3.24.28-.4.28 10.09.4-2.08-.26 8.41-.13m24.83.36c-4.3 0 .05.16-.17.22 2.73-.08 3.39-.1.17-.22m179.53.84l-.43.25c3.32 0 0-.1.43-.25"/></g><path class="cls-3" d="M344.38 10.14l4.76-.06-3.22-.17-1.54.23zm25.04 1.77l-1.45.03 5.53-.08-4.08.05z"/><g class="cls-2"><path class="cls-3" d="M670.94 11.63l-1-.3c-2.24.06-2.71.41 1 .3m130.16-.82a58.18 58.18 0 007.34.06c-2.93 0-5.85-.11-7.34-.06"/></g><path class="cls-3" d="M1191.47 5.41l-2.61.24 4.93-.35-2.32.11z"/><g class="cls-2"><path class="cls-3" d="M1930.35 18.57c.34-.09.14-.28-.78-.23l-.65.34zm-6.24-.52c-1.09.17-2.34.47-1.63.76 1.07-.33 1.34-.2 2.49-.59.93 0 1.62.08 1.47.2a12 12 0 001.94-.16 13.7 13.7 0 00-4.34 0c-.34-.07 0-.16.07-.22m-90.62.09h.58-.58m-56.15-.13a1.6 1.6 0 00.63-.07c-.4 0-.72 0-.63.07m-9.58-.39h.56a2.2 2.2 0 00-.56 0m65.73.52L1832 18c-.11.11.77.08 1.5.1m78.12.9a5.59 5.59 0 00.81-.1l-.76.05-.05.05m-53.38-1.2h.45a3.35 3.35 0 00.38-.14zm18.99-.13c-.43 0-.58.27-.74.39a2.63 2.63 0 01.93-.19c0-.05-.05-.12-.19-.2m30.12.27h.54-.54m-62.71-.15a.35.35 0 00-.17-.1s.07.07.17.1m-531.3-2.74V15c0-.05-.15 0 0 .05m-19.4 5.56l.11-.28a.32.32 0 00-.11-.12zm295.23-3.88c1.82.26-3 .3-.23.6-.26-.11 2.5-.42.23-.6M1911.13 19h-.78.78m-322.19-1.67h.28-.28m120.85-.03a3.05 3.05 0 00.41.12s-.1-.07-.41-.12m30.11.47h-.74.74m-45.74-.14a7.45 7.45 0 00-1.1 0h.17a3 3 0 01.93 0m-16.28-.06l.3.06h.52zm-315.07-1.22a2.86 2.86 0 01-.75-.26c.25.2-2.14.22.75.26"/><path class="cls-3" d="M1911.61 18.86a.91.91 0 01-.48.12h.54s.06-.08-.06-.1m-218.12.93h-2.59 2.59m-213.93-1.74h-.59a2.7 2.7 0 00.59 0m203.67 1.71a10.94 10.94 0 00-1.46-.2 1.67 1.67 0 00-.3.07z"/></g><g class="cls-2"><path class="cls-3" d="M1397.21 14.65a2.79 2.79 0 011.13.08h-1.43a.77.77 0 01.3-.13m10.2 2.07h-2.1c-.17-.1 0-.2.5-.19-.26.06.88.14 1.6.23m-62.41-.39c2.46.07 1.17-.33 1.7-.52 2.94 0 1.35.3 2.35.51 1.83 0 3.25-.35 4.62-.3.1.06.37.09 0 .16 2-.24 5.77.13 8-.18a.75.75 0 01.3.1c-.36-.2-.42-.38-.34-.51a8.35 8.35 0 012.47.05 2.61 2.61 0 00-1.06.15l1.16-.08c1 .36-1.58.08-1.59.34 2.26-.07 4.9-.3 6.63-.17.35.34-4 0-1.75.37l-2.67-.18c2 .57-1.63-.06.24.54 3.52.16 3.94-.1 7.45.07.8-.18-.25-.28.54-.46 5-.24 3.91.92 7.59.54a7.77 7.77 0 013.94-.34l-.89.36c3.4.1 2-.51 5.52-.19-.64.14-2.68.08-2.17.13 2.31.34 1.64-.18 3.42-.15l.36.34c3.63 0 7.63-.15 11.65-.16-.22.1-.91.19 0 .31 5.07-.09 10.82.2 15.71.48l1.87-.27c.43 0 .8.15.33.2 1.91.13.1-.19 1-.29 1.09 0 1.43.19.74.27a100.87 100.87 0 0113.13 0l-.69.07c2.76.16 3.12-.55 5.68-.25l-.5.05c6 .19 12.61 0 17.18.5.87-.41 5.92.26 6.31-.32 3.42.33 2.44.42 7.25.68 1.29 0 1.92-.34 3.51-.38v.3l2.16-.29 1.15.37 1.49-.06c-.59 0-1.26-.15-1.17-.23a23.15 23.15 0 015.73.42l5.52-.2a8.2 8.2 0 01-1.78.22c2.94-.28.53.33 3.23.07-.36-.07.2-.18.26-.24a53.33 53.33 0 006.66.18l-.43.2c4.09.1 8.62 0 13.21 0-1.65-.12-1.27-.48.08-.5l.53.33c.87-.19-1.4-.14.39-.36 1.71.05 1.14.37.16.47l2.08-.09c.13.1-.36.14-.49.26.85-.19 3.59.36 4.83 0l.12.09h10.4c.08-.27 1.54-.2 2.65-.41 2.75.11 5.79.35 9.1.35 2.33-.12.68-.23 1.73-.38.17.25 3.47.25 1.76.42 4 0 5.07 0 10.09-.17-.54-.11-1.15-.16-.84-.24.92 0 2.08.12 1.94.24h-.24c5.64-.33 13 .85 17.5.36h-.25l4.66-.24c2.14.05-1.29.18.29.34 5-.38 7.94.12 12.07-.14 3.2.77 11.36 0 15.68.53l-.25-.18a6.8 6.8 0 012.17.16c-.11-.14-1.21-.17-.51-.26 9.46-.15 19.52.38 29.22.58 3.54.07 2-.89 6.48-.45l-1.27.32c7.16-.36 14.64.09 21.65-.21a3.81 3.81 0 01-1.12.17 20.63 20.63 0 005.5-.16c1.09 0 .25.18.92.28 1.49.15 3.73-.28 4.52-.05.13 0-.42.08-.69.1 1-.12 4.51 0 3.58-.24 2.63.14 5-.1 7.13.07 1.37-.3 4.5.16 4.94-.27-.19.45 4.61.38 6.27.18-.55.13 1.45.14.79.33 1.9 0 3.64-.08 3.31-.31 3.5.55 7-.4 9 .29 5.63-.22 10.85-.36 15.92-.46-.18.45-5.6 0-5.39.5 4.81-.17 7.59-.55 12.36-.43 1.23.06-.7.19-1.12.27 4.81-.18 9.29.06 13.57-.18a3.75 3.75 0 01-.91.12c.84 0 2 .07 1.87-.13l-.83.05c-1.34-.29 3.35-.6 3.5-.76-1.43.58 4.23.16 2 .88.56 0 1.25-.13 1.13-.26.82 0 1.08.12.25.27 3-.1 1.94-.32 4.68-.31 0 .1-.56.13-.85.25a25.71 25.71 0 015.09-.29c-.14.06.13.14-.56.13 4 0 6.77-.49 11.12-.3-1.28.42 1.48.14 1.71.51l2.34-.11-.94-.18c2.06 0 3.87-.26 5.63-.14l-1.52.15 3.84-.07-2.17-.14c2.07-.19-.23-.46 2.5-.36-.55 0 2.06 0 3.12.22a18.39 18.39 0 013.57-.14c.4.11-.31.4-.06.48 1-.31 4.81-.08 6.07-.41-.42.08-.44.27-.3.31l.84-.25c1 .08 1.09.12.93.27 2.86.05-.9-.46 2.49-.26a5.56 5.56 0 01-.7.09c3.41.11 6.59-.15 9.72 0 .92.38-2.74.09-1.68.41 4.51-.06 9.35-.46 13.71-.37h-.81c.6-.53 3.25.25 5.46 0-.54 0-.71.29-.56.23 3 .08 6.11-.13 10.65-.31l-.57.14c1.77.12 4.65.06 6.55.12.57-.13 1.66-.11 1-.31 5.88.76 11.2-.43 16.41.18-.62 0-1.48.12-1 .12l4.44-.14c-.35-.22-.58-.13-1.51-.31a16.87 16.87 0 012.91-.25c-2 .16 0 .37.88.49-.14-.07.15-.15.08-.22 2.32.4.38-.46 3.55-.2l-.17.12c1.19-.06 2.28-.23 3.56-.2.53.27-1.26.13-1.35.35 1.8 0 3.54-.51 5.17-.26l-2.62.16a17 17 0 003.29.27h-.13l3 .13-.78-.08c2.24-.7 4.57-.14 7.59-.62-2.93.45-.48.25-.7.55.77.08 1.94.17 1.61.25 1.43-.25 2.39.17 4.4-.19.09.09 1.53 0 1.21.24 1.86-.09-.44-.17-.28-.29 2.86-.35 6.73.35 10.85-.13 3.55-.22 4.2-.55 7.5-.73 1.11.14-.91.35-.91.35a28.87 28.87 0 004.84 0c-.34.09 0 .15.53.26 1.36-.05.9-.37 2.7-.25a6.59 6.59 0 01-1.36.4l4.84-.42c.44.16-1 .27-1.58.39a33.13 33.13 0 005.39-.49l-1.2-.08c.68 0 .36.22-.14.28a3.67 3.67 0 01-2.4-.16l1.18-.08c-1.22-.54-4.73.16-7.11.16l1-.42-2.44.37c-.51-.1-.87-.32.3-.4-1.7-.18-1.51.17-3 0-.16 0-.09-.05.06-.07l-1.66.14c.32-.09-.28-.29.74-.24-3-.21-4.81.34-5.94 0h.25c-4.14.17-.39.31-3.5.69l-2.09-.73-.41.3c-.43 0-1.27 0-1.12-.14-1.59.22.28.13-.65.33-2-.26-5.67.17-6.13-.31-.74.24 2 .17-.23.34-.63-.51-2.54.11-4.42-.11.58-.27 2.36-.15.48-.37-1.13.46-3.66-.07-5.25 0-.07.36-3.44.16-6.1.29.17-.12-5-.17-7.48-.29l.07-.06c-.47.36-3 .3-4.88.38.07-.21.4-.3 1.41-.4h-1.75a8.85 8.85 0 01-2.09.22l.44-.27c-2.32 0-4.68.34-7.67.17-.17.25 2.38.69-.78.88-.12-.14-.24-.37.59-.43a9.29 9.29 0 01-1.51.06l1.26-.24c-1.36-.09-.71.2-1.8.18 0-.19-.81-.13-.65-.29a10.38 10.38 0 001.37 0 18.11 18.11 0 01-3.21-.29c.11.11 0 .26-.9.29-2.32 0-.79-.23-2.15-.33-.56.14-2 0-2.08.29a2.3 2.3 0 01-1.07-.22c-1.21.13-5.62.05-4.27.36h.31-.19c-4 .29-8.2-.15-12.11 0v-.1c-2.34.11-5.2.07-6.87.28-.69 0-1.63-.17-1.34-.29a27.82 27.82 0 01-4.56 0c1.79-.17-.62-.15 1.84-.13a27.31 27.31 0 00-5.34 0c.85-.25-1.74-.32-2.85-.24l1.63.18h-3.43l.6-.33c-4.75-.4-8.56.67-12.18 0-1.25.23 2.58.17 1.46.43-2.19 0-4.46-.51-5.15-.51-3-.19-2.79.47-5.92.35.4.11.78.43-1.56.54-2.18-.05-2.68-.5-1.3-.59.52 0 .77 0 .75.07.71 0 1.63-.09.77-.22l-.29.12c-1.08-.12-4.09-.11-3.38-.3-1.65.11-.71.19.52.25-2.81-.17-4.38 0-7.27-.12.46.06.88.2.43.2-4.24-.15-1.87.22-4.74.27-1.62-.18.59-.43-2.3-.28-1.76-.13-.37-.31.33-.41a45.71 45.71 0 01-6.41-.2l1.38-.09c-.83.05-1.51.05-2.2.05l.79.23c-.81 0-1.5 0-1.48-.14-.84.15.64.39-1 .6-1.08-.13-3.3.12-3.67-.19 3.41.11-.38-.32 2.51-.36a20.21 20.21 0 01-2 0c-.13 0 .11-.07.33-.08-3.26-.29-1.5.35-4.88.33.43-.17-.78-.33-1.33-.3 1.36 0 .65.3-.6.43a25.36 25.36 0 00-3.5.08l1.3.06a14.35 14.35 0 01-3 .2c-.13-.13 1.37-.09.83-.15-1.68.31-3.79-.32-6.13-.12-1.09-.12-.11-.33-1.06-.41-2.62.22-2.84-.25-5.6-.07.8.24.94.18-1 .41l4.54-.16-2.91.34c1.36 0 2.88-.15 3.7-.1-1.38.19-1.24.13-.59.32-1.87-.35-3.71.2-5.87 0l.07-.58c-3.26-.27-5.78.29-10 .12l1.36.11a31.91 31.91 0 01-4 .11c.13-.19-.72-.27-1.31-.39.07.14-3.09 0-3.47.36l-1.89-.26c-3.41-.12-3.89.54-7.17.46 1-.21-.5-.35 1.7-.49a6.46 6.46 0 00-2.1.09c-.64-.13-3 .25-4 .06a5.07 5.07 0 01-1.84.27c-.14-.05 0-.1 0-.1s-1.92.12-.85.34c-3.37-.62-9.42 0-12.36-.52l-7.43.11c.14 0 0-.09.41-.07-3-.19-1.84.55-5.24.33-1.74-.32 1.81-.16.72-.28-.47-.65-4.11.06-6.39-.32h.55c-1.75-.22-4.27.22-7.13.16 0 0 .14-.05 0-.09-2 .31-5.66.4-8.41.48.86-.25 1.25-.13.73-.38-1.24 0 .36.41-2.11.47-.8-.15-2.57-.27-2.81-.55h2.33c-1.19-.36-3 0-4.23-.07l.15-.15c-3.56 0-3.61.42-7.43.37l.39.12c-2.09.37-1.75-.23-3.84.05l-.63-.4c-1.38.09-4.83.36-7.31.42 1.41-.28 4.3-.42 6.1-.58a44.89 44.89 0 00-5.37.19 12 12 0 011.79-.06 37.59 37.59 0 01-6.61.41c.49-.75-7.1-.24-9.07-.84-4.83.25-9.57-.18-15.18-.17 2 .6-1.64 0-1.3.61a11.89 11.89 0 01-1.93 0l-4-.39c-.94-.18 1.25-.12 1.13-.26-2.87-.06-1.2-.26-3.1-.43.39.21-1 .3-2.63.21l2.3.29c-4 .29-3.45-.53-7.49-.24l1.28-.18c-2.08.1-7.64-.06-9.67.41-.37-.07-.85-.24.06-.28-4.95-.11-11 .43-14.86.1l.37-.15a12.14 12.14 0 01-2.76.11c.06-.06.37-.14 0-.16a26.11 26.11 0 01-3.68.15l1-.16c-4.83-.23-7.41.34-11.46.41 0-.43-3.78-.61-5.68-.69l.07-.06c-5.62-.1-9.55.27-14.76.39-3.22-.5-10.94-.3-16.13-.62.8.09-.13.34-1 .37-1.22-.1-3.37.27-3.18-.13h.44c-.92-.4-3.42-.33-5.38-.36l-.32.52c-5.11-.8-13.4.15-16.19-.57-1.23.11-2.76.09-4 .21l.07-.28c-3.42-.11-5.12-.17-9.35-.15l.87-.19c-2.39-.05-3 .77-5.22.76l-.66-.43c-4.16 0-8.36-.46-12.48-.13.07-.06.19-.18.87-.19-2 0-7.57-.37-6.87.21 0-.37-4.29-.1-6.53 0l.35-.27a21.07 21.07 0 01-4.61.48c-.63 0-.55-.23.28-.15-2.09-.17-1.63.24-4.16.05l1-.16a10.39 10.39 0 00-3.17.23 14.82 14.82 0 01-4.4-.38 7.31 7.31 0 01-2.74.24c-.16-.1.3-.15.53-.17-3.59-.24-5.35.24-7.82-.07 0-.09-.21-.14-.42-.17 2.86.05 5.16.1 5 .11 0-.25-2.31-.33-.47-.65a53.53 53.53 0 01-7.27.38 1.79 1.79 0 01-.3-.09h.23a9.47 9.47 0 00-1.42 0c-.72-.05-1.17-.09-1.86-.1a20.86 20.86 0 00-3.8-.19c.1.28-1.41.21 0 .46h1.49-.08 2.86a10.3 10.3 0 01-3.13.06c-.59.17-1.25.34-1.61.42-1.57-.42-4.6-.68-5-.93-3.52.09-8.28-.06-10.5.42a3.05 3.05 0 01-1.52-.26c.58 0 1.27 0 1.58-.09-2 .1-5.92-.06-6.4.3-2.52-.21 1.42-.31-2-.31l.47-.11c-6.79-.7-11.08.72-18.61-.22a3.28 3.28 0 01.89.14c-8.59-.57-17.74-.06-26.2-.93a15.8 15.8 0 00-4.15.16l-.51-.32-2.53.26c-3.6.14-6.11-1-10.72-.59l.59.2c-1.64-.1-5.18.38-4.93.16a2.42 2.42 0 01-1.16.28l-.08-.15a21.22 21.22 0 00-3.86 1.33c-1.48.55-1.41.45-1.54.32s-.48-.25-2.42 1.32a8 8 0 00-1.8 2.67c-.31.95-.44 1.58-.26 1.3s.35-.73.54-1.05.43-.5.51-.48a7.9 7.9 0 00-.64 1.42c.15.21.24.62.5.56s.56-.6 1.64-1.82a8.11 8.11 0 011.48-1.8c.26-.08.5-.18.76-.25a9.75 9.75 0 00-1.55 1.21c.93-.6 1.42-1.1 2.09-1.6a4.32 4.32 0 001-.2 13.9 13.9 0 012.15-1.18c.33.1-1 .62.63.31 1.09-.42-1.18-.18.68-.68a5.38 5.38 0 002.3-.12c.21.1-.09.2-.63.32 1.23-.31 3.34-.31 4-.55 1.26.23 4.36.05 4.23.47a23.85 23.85 0 013.53-.23c-2.22.44 4.51.18 3.91.72 1.64-.41 5.89 0 8.78-.16a2.29 2.29 0 01-.73.07 29.7 29.7 0 013.13.38c.22-.38 2.75-.39 4.12-.6 2 .42-1.22.42-.61.8-.09-.32 3.47-.23 2.8-.51a6.06 6.06 0 012.08.49c.28-.48 1.42-.05 2.69-.31 2.2.29.56.46 3 .38 1.15.17-1 .29-1 .29"/><path class="cls-3" d="M1395.83 15h-.32l.46.07.27-.08h-.41m438.34 3.19h-.1.22-.12"/></g><path class="cls-3" d="M1473.75 18.13l.43.01-.01-.07-.42.06z"/><g class="cls-2"><path class="cls-3" d="M1860.81 19.05a1.31 1.31 0 00.35.07 1.58 1.58 0 00-.35-.07m11.51.02l1.62.09-1.62-.09m8.84.09a.35.35 0 00.18-.12zm-140.65.46h-.34c-.8.06-.26 0 .34 0m41.86-.62l-1.35.13c.75 0 1.33 0 1.35-.13m-88.6.82zm85.31-.66a13.9 13.9 0 001.94 0h-1.94m140.43-.23h.43zm.49-.04h.47a1.61 1.61 0 00-.47 0m1.45-.13l-1 .09a3.63 3.63 0 001-.09m-13.65.24l-.14.1a.17.17 0 00.14-.1m-3.56 0c.85 0 2.13.2 3.31.13l.11-.08c-.55.15-2.62-.22-3.42 0m-14.87-1.16l3 .05c-.53-.1-1.21-.24.14-.27-3.76-.3.78.23-3.13.22m-9.25-.09c1.6-.06 0-.15.06-.22-1 .11-1.26.13-.06.22m-66.82.2l.16-.26c-1.23 0 0 .1-.16.26"/></g><path class="cls-3" d="M1800.54 19.3l1.2.15.57-.23-1.77.08zm-9.07-1.75l1.52-.05.54-.04-2.06.09z"/><g class="cls-2"><path class="cls-3" d="M1680.78 17.34l.37.31c.83 0 1-.4-.37-.31m-48.45.09a7.71 7.71 0 00-2.73-.12c1.09 0 2.18.15 2.73.12"/></g><path class="cls-3" d="M1486.19 15.76l.86.03.98-.1-1.84.07z"/></g></g></svg>