<svg xmlns="http://www.w3.org/2000/svg" viewBox="0 0 1944.61 100.39" class="svg" focusable="false" aria-hidden="true" role="img"><defs><clipPath id="clip-path"><path fill="none" d="M0 0h1944.61v100.39H0z"/></clipPath><style>.cls-2{clip-path:url(#clip-path)}.cls-3{fill:#fff}</style></defs><g id="Layer_2" data-name="Layer 2"><g id="Layer_1-2" data-name="Layer 1"><g class="cls-2"><path class="cls-3" d="M1396.92 5.91c-.13-.18-.51-.17-.52.23l.56.41zm-1.68 2.4c.21.52.63 1.15 1.26 1-.51-.58-.24-.64-.85-1.27 0-.41.34-.64.55-.53-.12-.17.27-.58-.08-.87a1.46 1.46 0 00-.48 1.81c-.16.12-.29-.06-.4-.11m-10.4 37.48l.18-.19a.55.55 0 00-.18.19m-15.49 17.5c.15-.1.17-.2.15-.25-.11.13-.21.23-.15.25m-4.13 1.37l.39-.13a.56.56 0 00-.39.13m19.62-18.87l-.45.49c.17.13.28-.23.45-.49m10.9-31.93a1 1 0 00-.11-.38v.34h.1m-7.67 21.94v-.18a1.37 1.37 0 00-.2-.23zm1.94-7.89c-.07.18.44.36.66.47a.55.55 0 01-.27-.47 1.26 1.26 0 00-.39 0m3.28-12.58v-.24.24m-7.16 25.91a.37.37 0 00-.21 0 .37.37 0 00.21 0m20.18-29.29v-.1c0-.03-.08.08 0 .1m-8.49-5.07h.13a1.36 1.36 0 00.11-.28zM1343 67.53c-.87-.17-.52-.08 0 0m77.94 19.05c-1-.08 1-1.14-.4-1.08.2.13-.68 1.25.4 1.08m-25.31-72.5a2 2 0 01-.06.34.81.81 0 00.06-.34m-26.37 60.68a.75.75 0 00-.11-.28c0 .06 0 .13.11.28M1352 69.12l.22.13a.34.34 0 00-.22-.13m24 6.74c.15.09.19.18.44.17a.35.35 0 00-.05-.08.33.33 0 01-.39-.09m6.76 1.91l-.1-.14h-.22zM1427 17.34a1.57 1.57 0 01-.19-.55c0 .39-1 .25.19.55m-31.56-3.5a.29.29 0 01.19.24v-.23c0-.08-.15 0-.2 0m-18.04 58.03l1.06.38a6.81 6.81 0 00-1.06-.38m65.79-26.14v-.26a.27.27 0 000 .26m-61.51 27.34a1.6 1.6 0 00.5.53.59.59 0 00.17-.1z"/></g><g class="cls-2"><path class="cls-3" d="M1442.55 16.88c.34 0 .41.15.43.26l-.58-.09-.05.06a.76.76 0 01.2-.23m3.29 4.74l-.87-.26c0-.19.1-.36.3-.29-.14.09.31.32.57.55m-2-.54l-.5-.11.51.1m-24.44-5c1 .3.66-.53 1-.86 1.28.14.43.66.75 1.12.82 0 1.57-.43 2.14-.25 0 .12.11.19-.06.3 1-.32 2.41.63 3.54.21a.35.35 0 01.08.2 1.84 1.84 0 01.11-1c.46.12 1-.19 1 .3-.28-.09-.35.08-.52.18l.54-.06c.26.76-.72 0-.85.51 1 .05 2.24-.17 2.91.21 0 .66-1.74-.26-.93.56l-1-.54c.58 1.21-.66-.26-.17 1 1.42.58 1.73.13 3.15.71.42-.25 0-.54.46-.79 2.25-.06 1.21 2 3 1.6.51-.31.88-1.05 1.85-.34l-.56.61c1.4.46 1.09-.79 2.45.09-.34.2-1.19-.08-1 .07.81.82.79-.22 1.53 0v.66c1.55.32 3.34.33 5 .67-.15.16-.49.28-.15.58a14.41 14.41 0 013.32.87l.81.32.39.17.08.08a.4.4 0 01.1.32 4.14 4.14 0 01.76-.37c.06 0-.22.2-.39.27-.23.25.47-.26.73-.29 0 .16-.45.35-.63.36a.4.4 0 01.29.24 1.38 1.38 0 01.07.26v.44a6.93 6.93 0 01-1 2.74l-.08-.34c-.55 1.1.73 1.62-.06 2.56v-.23c-.93 2.46-1.12 5.38-2.41 7.1.69.56-1 2.41.09 2.83-.89 1.31-1 .85-1.84 2.77-.19.53.47 1 .42 1.67l-.57-.13.37 1.05-.81.3v.66c.09-.24.39-.46.54-.38 0 1-1 2.25-1.31 2.19l-.16 2.4c-.21-.11-.18-.51-.24-.85.23 1.36-.65 0-.44 1.3.17-.11.31.17.41.23a5.36 5.36 0 00-1 2.65l-.33-.3c-.62 1.61-1 3.52-1.66 5.3.43-.56 1-.17.88.38h-.66c.22.48.44-.47.59.4-.33.65-.83.19-.86-.27l-.13.89c-.19 0-.2-.25-.4-.38.23.48-1.15 1.12-.75 1.86h-.18c-.79 1.72-1 2.6-1.68 4 .46.28.07.76.22 1.38a32.12 32.12 0 00-2.44 3c-.3 1 .23.49.25 1-.43-.2-1.2.93-1.07.15-.88 1.39-1.14 1.75-2.15 3.62.31 0 .53-.19.57 0-.17.36-.72.52-.86.33v-.1a4.33 4.33 0 01-1.16 1.45 16.26 16.26 0 01-1.66 1.08 5.5 5.5 0 00-2.62 2.15v-.1c-.39.51-.76 1.07-1.19 1.56-.78.42.22-.6-.49-.48a4.19 4.19 0 01-2 1.63 7.73 7.73 0 00-2 1.17 2.22 2.22 0 00-1.4 0 6.12 6.12 0 00-.76.25c-.19.07-.11 0-.16.08l-.07.06h-.37l-.45-.12a4 4 0 01-1.51-.75v.35c-.55.19-.51-.34-.83-.51 0 .26.42.43.08.53-4-.72-8-2.76-12-4.19-1.45-.51-1.31 1.45-3 .14l.7-.45c-3.18-.11-6.09-1.74-9.18-2 .22-.09.27-.27.56-.18-.5-.62-2.28-.67-2.39-.31-.44-.17 0-.35-.24-.62-.55-.43-1.71.13-1.92-.4 0-.09.22-.09.34-.1-.46.1-1.86-.58-1.62 0-1-.55-2.16-.37-2.95-.91-.73.4-1.8-.8-2.2 0 .31-.81-1.73-1.21-2.54-1 .31-.18-.53-.42-.16-.69-.79-.21-1.56-.26-1.54.2-1.18-1.4-3.15 0-3.61-1.53-1.24-.1-2.42-.24-3.57-.39l-.81-.11h-.38c-.26 0-.56 0-.86-.06a1.09 1.09 0 01.9-.24c.2 0 .39 0 .52-.39a3.19 3.19 0 01-1.19.35 2.56 2.56 0 01-1.43-.17c0-.11.88-.13 1.18-.2a3.59 3.59 0 01-1.25-.2 8.1 8.1 0 00-1.79-.25h1c-.23 0 .22-.07-1.27-.08h.54a33.29 33.29 0 01-3.46-.1l-1.13-.07h-.75c3.7.12 2.24-.06 6.45.12l-1.52-.07c.43 0 .91 0 1.73.06-.2-.06-1-.12-1.09-.18s0 0 .15 0l1.1.13c-.8-.1-1.24-.26-.37-.37.2 0 .54.08.4.12.31-.11.24-.28.43-.57a2.13 2.13 0 011.31-.69c.08.42.23.43.35.43a.67.67 0 01.24 0 .42.42 0 01.37.2l.88-.65-.54-.12c.84-.4 1.28-1.29 2.08-1.47l-.45.59a15.84 15.84 0 001.42-1 7.76 7.76 0 01-1 .29c.6-.78-.54-.69.56-1.19-.16.2.75-.49 1.38-.41a2.28 2.28 0 011.09-1.18c.27.08.37.71.55.76 0-.37.39-.73.79-1.11a2.07 2.07 0 00.77-1.23.59.59 0 00.3.54v-.61c.42-.17.52-.15.67.11 1-.79-.9-.37.45-1.13-.06.12 0 .13-.09.35 1.22-.92 1.83-2.27 2.89-3.18.81.16-.67 1 .09 1.08a15.91 15.91 0 001.61-2.67 17.23 17.23 0 011.58-2.58l-.27.25c-.68-.78 1.24-.9 1.33-2-.06.24.31.57.25.45.85-1 1.19-2.47 1.81-4.38l.12.34a17.33 17.33 0 001.45-2.53c-.14-.33.09-.75-.37-.63 2.4-1.84 1-4.84 2.88-6.61-.07.27 0 .69.09.49l.33-1.94c-.46 0-.33.17-.77.46a1.88 1.88 0 01-.08-1.34c0 .91.69.19 1-.11-.15 0-.26-.14-.4-.15 1-.76-.81-.39.06-1.58l.2.13a5.23 5.23 0 010-1.58c.55-.1.1.59.5.72.16-.77-.57-1.72.09-2.29.06.36 0 .82 0 1.18a1.93 1.93 0 00.87-1.27v.05l.55-1.23-.23.29c-1.07-1.24.19-2-.39-3.46.54 1.41.42.3 1 .51.22-.29.5-.76.63-.58-.33-.71.56-1 .06-1.95.19 0 .14-.65.58-.42 0-.83-.36.12-.57 0-.39-1.33 1.29-2.73.75-4.65-.08-1.58-.65-2-.71-3.42.38-.42.6.5.6.5a3 3 0 00.37-2.05c.14.17.3 0 .54-.14.06-.58-.59-.5-.18-1.22a2.59 2.59 0 01.62.71c0-.71-.26-1.44-.29-2.17.35-.13.4.51.56.8 0-.82.1-2.1-.36-2.44l-.27.47c0-.29.46-.06.51.17a.64.64 0 01-.55.94v-.52c-1.17.32-.21 2-.45 3l-.7-.56.46 1.15c-.24.19-.71.26-.73-.26-.52.66.16.69-.38 1.24-.08.05-.11 0-.13 0l.1.75c-.14-.17-.57 0-.38-.4-.67 1.19.22 2.16-.45 2.53v-.11c0 1.81.54.27 1 1.71l-1.57.64.54.27c0 .18-.16.53-.38.42.27.75.27-.06.57.4-.68.77-.2 2.45-1.16 2.47.38.4.5-.77.62.22-1 .08 0 1.12-.65 1.82-.45-.34 0-1-.64-.34.75.65-.51 1.5-.49 2.2.67.18 0 1.51-.07 2.68-.21-.13-.86 2-1.39 3l-.11-.06c.62.37.22 1.4.13 2.2-.39-.14-.5-.32-.57-.79l-.21.72a1.22 1.22 0 01.15 1l-.44-.33c-.25 1 0 2.09-.75 3.19.43.23 1.61-.54 1.48.87-.27 0-.71-.14-.69-.51 0 .12.07.47-.12.65l-.24-.66c-.37.49.25.41 0 .84-.35-.14-.37.23-.63.06 0-.12.29-.32.21-.54a2.32 2.32 0 01-1 1.08.42.42 0 01.38.55c-.32.94-.54.16-.93.62.15.31-.34.79.17 1-.12.27-.38.21-.56.26 0 .58-.92 2.18-.13 1.92l.09-.11a.28.28 0 000 .09 5 5 0 01-1.09 2.35 13.09 13.09 0 00-1.42 2.15l-.16-.1a20.84 20.84 0 00-1.15 2.74c-.17.25-.67.38-.78.14a2.53 2.53 0 01-1.13 1.57c.2-.8-.39 0 .28-.76-.73.67-1.07.67-1.35 1.8-.14-.58-.94.15-1.13.59l.7-.28a6.24 6.24 0 01-1 1.07l-.31-.61a4 4 0 00-1.72 2.08c-.42.75-.89 1.42-1.86 1.43-.1.69 1-.48 1 .22-.73.58-2.06.42-2.27.59-1.16.48-.35 1.45-1.58 2 .27.1.74.5 0 1.24-.83.45-1.47-.23-1.06-.66.18-.12.3-.13.33 0 .2-.24.46-.53 0-.54v.26c-.48.08-1.56.66-1.48.21-.48.52-.07.47.42.32a4.57 4.57 0 00-1.35.59 6 6 0 01-.62.31c-.26.11-.37.14-.93.34.36 0 .71.1.45.22-2.73.86-.84.83-2.46 1.44-1.54 0-.71-.69-2.4 0-1.78.18-1.5-.31-1.11-.58a5.35 5.35 0 01-.68.27l-.37.11h-.55c-1 .08-2.06.12-3.19.15-2.22.07-4.81.08-6.44.16l1.89-.3c-1.2.18-2.47.27-3.82.36l3.66.16-2.28.08a15.32 15.32 0 01-1.84 0 11.22 11.22 0 002.67.32 6.34 6.34 0 012.46.43 19.06 19.06 0 00-2.11.11c.62.24 1.49.48-.72.44-.29-.37-1.18-.41-2.31-.44a15.87 15.87 0 01-4-.48h.15-.11a4.54 4.54 0 011.72.59 7 7 0 01-1.3-.15c.42.53.93.43 2.33.54a15 15 0 012.91.29c-1.62-.08-2.73 0-2.27 0a19.2 19.2 0 013.43.11c-.19 0-.07.06 0 .1a3.17 3.17 0 00.33.11 8.07 8.07 0 00.82.15 10.64 10.64 0 011.47.24l-.35-.23a16.43 16.43 0 013.14.47c-.78 0-1.38-.2-1.46-.11 1.49.11 1.47.27 1.57.48s.27.47 1.52.62c.12.27-1.54.22-1.24.47 1.46.18 1.67.36 2 .57a3.61 3.61 0 001.95.63c.15-.43 0-.36 1.93-.27l-3.56-.67c1.13.09 2.17.15 3.12.19-.77-.22-2.3-.35-2.65-.53 1.65.08 1.26.09 1.72-.17-.22.29.57.41 1.31.48s1.47.13 1.73.44l-1.57.72a9 9 0 003.26.85 13 13 0 013.22.67l-.52-.35c.36-.36 1.11.25 1.73.23-.16.35.16.58.34.87 0-.27 1.28.39 1.64-.29l.66.7c1.36.6 1.91-.57 3.24-.07-.52.28 0 .71-1 .74.46.13.85.31.92.06.21.3 1.41-.13 1.73.33.23-.1.4-.47.91-.29a.21.21 0 010 .18c0-.18.86 0 .53-.55 1.09 1.53 4 1 4.9 2.34 1 .16 2.26.38 3.17.6-.09.1 0 .18-.21.1 1.15.68 1.05-.82 2.37 0 .56.79-.85.1-.46.45-.13 1.25 1.76.32 2.52 1.28h-.25c.61.61 1.91 0 3.07.47a.21.21 0 000 .18 8.87 8.87 0 013.77 0c-.48.36-.59.1-.5.63.53.08.06-.8 1.12-.65.27.35.94.78.9 1.32l-1-.25c.32.79 1.26.33 1.74.59l-.14.26c1.5.33 1.73-.39 3.31.11l-.11-.26c1.07-.47.62.61 1.64.32l.06.8a22.59 22.59 0 013.28 0 10.3 10.3 0 01-2.86.42c.57.16 2 .49 2.35.21-.25 0-.59.1-.78-.07a4.34 4.34 0 013-.06c-.6 1.34 2.85 1.18 3.37 2.5a8.94 8.94 0 013.07.76l.37.16.63.22.67.24.35.12a2.46 2.46 0 00.34-.09l1.36-.47c.3-.1.6-.21.9-.34-1.29-.72.7-.29.08-1.32.5-.32.71-.4.79-.36.62 0 1.29-.07 1.91-.18.54.08-.37.52-.21.71 1.21-.57.72.16 1.66 0-.37-.27.1-.74.84-1l-1.2.07c1.27-1.43 1.88 0 3.11-1.57l-.28.63c.69-.7 2.87-2.16 2.91-3.5.22 0 .6.07.34.41a12.05 12.05 0 002.32-2.76 8.16 8.16 0 012-2.42l.12.31c.2-.38 0-.9.58-1.13.08.09.12.3.25.16a3.48 3.48 0 01.74-1.53v.58c1.6-1.56 1.28-3.19 2-4.81.7.44 1.83-.88 2.35-1.58l.09.08c1.31-2.19 1.34-4.15 1.95-6.39 1.41-1 2.16-4.38 3.32-6.41-.25.29-.6-.25-.55-.66.32-.47-.12-1.59.59-1.28l-.07.18c.84-.17 1-1.29 1.23-2.11l-.93-.41c2-1.77 1-5.79 2.58-6.63-.12-.59 0-1.23-.07-1.81l.52.16a19.8 19.8 0 001-3.92l.28.45c.28-1-1.2-1.63-1-2.56l.85-.08c.42-1.75 1.54-3.32 1.29-5.21a.43.43 0 01.27.46c.24-.81 1.37-3 .23-3 .71.18.56-1.74.55-2.75l.47.3a10.35 10.35 0 01-.43-1 5 5 0 01.14-1.56c.19-.36.57-.36.25.16.73-1.33-.25-.85.55-2.38a3.64 3.64 0 01.23.39 4.76 4.76 0 00.23-.75 1.15 1.15 0 000-.22c0-.06 0-.12-.1-.1a11.63 11.63 0 00-1.21.11c-.94 0-2.09-.71-2.13-1.22a2 2 0 01-1.66.11c0-.19.2-.25.31-.27-1.41-.76-2.39 0-3.29-.8a.39.39 0 00-.09-.36 16.75 16.75 0 012 .64c.13-.47-.81-.81.13-1.25-.87.14-2.4.55-3.28.07a.76.76 0 01-.08-.2h.11a.94.94 0 00-.61-.09 2.93 2.93 0 00-.74-.35c0-.42-1-.52-1.52-.67-.1.53-.71.28-.24.86-.06-.06.11 0 .44 0a.54.54 0 00.22 0l1.2.29a1.18 1.18 0 01-1.36-.16 10.31 10.31 0 01-.89.65c-.47-.9-1.63-1.64-1.68-2.13-1.55-.11-3.51-.75-4.7 0-.45 0-.4-.4-.51-.6.26 0 .55.06.72 0-.91 0-2.5-.58-2.89 0-1-.59.77-.46-.71-.74l.25-.16c-2.54-1.86-5.09.47-7.86-1.78.2.14.3.21.31.34-3.42-1.6-7.56-1.46-10.83-3.4-1-.47-1.18-.07-1.89.1l-.06-.62-1.23.35c-1.62.06-2.21-2.06-4.34-1.69l.14.44c-.65-.26-2.2-.37-2-.77-.09.05-.33.33-.54.06l.06-.3h-1.8c-1.24-.57.51-1.1-1.35-1.67-.73-.08-2.23.3-2 .56.28.09.67.38.62.68h-.69c-.35.83-1.08 1.57.33 2.59l1.24-.22.24.51-.93-.22c.42.53.84.27 1.28.14a.79.79 0 00.33.58l1.3-.52c0 .37-.66.53 0 .91.6-.24-.28-.88.62-.9.42.53.18.81.88.64 0 .25-.14.35-.41.38.62-.11 1.48.29 1.89-.09.41.63 1.88.38 1.6 1.17a3.22 3.22 0 011.65-.26c-1.18.71 1.87.57 1.34 1.54.92-.68 2.56.29 3.9.13-.09.05-.26.16-.35.08.66.26.78.58 1.17.86.28-.69 1.39-.57 2.08-.86.64.92-.74.71-.66 1.45.12-.6 1.6-.19 1.45-.75.52.6.49.36.66 1 .35-.87.63 0 1.31-.4.79.7 0 .91 1.09.91.4.41-.58.48-.58.48"/><path class="cls-3" d="M1441.79 17.4a.74.74 0 01-.15 0l.16.17.16-.13h-.17m-56.74 28.16l.1-.05h-.07"/></g><path class="cls-3" d="M1443.5 43.44l.13.03-.07-.21-.06.18z"/><g class="cls-2"><path class="cls-3" d="M1390.71 35.4a.31.31 0 00.17-.11s-.1.05-.17.11m1.36-4.84l.34-.65a3.45 3.45 0 00-.34.65m1.08-3.72l-.21-.12zm-20.88 36.97a3.33 3.33 0 01-.35.54c.3-.15.52-.28.35-.54"/></g><path class="cls-3" d="M1377.27 71.84l.12.04-.11-.04h-.01z"/><g class="cls-2"><path class="cls-3" d="M1371.19 64.83a1.34 1.34 0 00.73-.48 2.37 2.37 0 00-.73.48m25.21-54.27l.06-.18a.1.1 0 01-.08 0zm-.02-.22v-.21.21m-.08-.65v.44c0-.14.08-.32 0-.44m-1.05 5.79l.18.09a.3.3 0 00-.18-.09M1395 17c.1-.35.56-.83.53-1.36l-.14-.07c.24.28-.66 1-.39 1.43m-3.47 5.9l.39-1.24c-.24.18-.57.42-.51-.16-.9 1.48.51-.24.12 1.4m-1.07 3.84c0-.69-.29 0-.4-.11.1.47.12.58.4.11M1380.21 53l-.35-.34c-.24.46.15.11.35.34m-1.57 5.85a5.8 5.8 0 00.59-.19l-.17-.49a7.74 7.74 0 01-.42.68"/></g><path class="cls-3" d="M1373.51 59.15l.39-.49.12-.2-.51.69z"/><g class="cls-2"><path class="cls-3" d="M1381.42 77.88v-.62c-.38 0-.63.63 0 .62m20.35 5.12a.9.9 0 001.08.51c-.44-.17-.83-.52-1.08-.51"/></g><path class="cls-3" d="M1446.72 50.05l.07.47.06-.82-.13.35z"/><g class="cls-2"><path class="cls-3" d="M1454.44 21.3c-.14.11-.29.44 0 .52.16-.15.33-.29.5-.43zm.56 1.96a1.72 1.72 0 001.43-.41c-.69 0-.53-.19-1.29 0a.37.37 0 010-.59c-.18.07-.23-.39-.58-.14 0 .59.17.78.75.87-.06.15-.25.18-.35.24m-4.25 19.44l.11-.1a.22.22 0 00-.11.1m-4.28 11.81a.15.15 0 00-.08-.18c0 .1 0 .18.08.18m-1.38 1.77l.08-.1c-.07 0-.12.06-.08.1m5.66-13.58l-.29.26c.19.09.19-.12.29-.26m6.63-16.8a.45.45 0 00-.18-.21 1.67 1.67 0 01.08.2h.1m-5.55 11.36v-.1a1.39 1.39 0 00-.22-.15zm1.04-4.11c0 .08.46.26.68.35-.2-.11-.28-.2-.3-.3a2.73 2.73 0 00-.38 0m2.35-6.28l-.07-.12s0 .08.07.12m-4.36 13.22a.76.76 0 00-.19 0 .41.41 0 00.19 0m-78.75 42.41a.94.94 0 010-.09s-.06.08 0 .09m-.89-5.08l.06.3a1.29 1.29 0 010-.34M1443 59.67c0-.11 0-.06 0 0m-14.58 32.69c.62-.13.23.87 1 .58-.21 0-.47-.88-1-.58M1457.28 26a.74.74 0 010 .21.35.35 0 000-.21m-27.87 66.94h.08-.08M1440 68.12a.72.72 0 00.25 0 .6.6 0 00-.25 0m3.22-5.92l-.13.13a.39.39 0 00.13-.13m-3.92 9.43c-.07.06-.15.06-.13.2h.07c0-.07-.06-.13.06-.19m-1.47 3.3h.13v-.12zm-55.04 10.47a1.75 1.75 0 010-.51c0 .38-.6.36 0 .51M1457 25.89c.14 0 .21.05.24.11a.74.74 0 000-.14.26.26 0 00-.2 0m-13.93 47.59l-.31.51a2.46 2.46 0 00.31-.51m-35.17 19.31h-.15a.11.11 0 00.15 0m34.22-17.18a.84.84 0 00-.47.15.53.53 0 00.1.12z"/></g><g class="cls-2"><path class="cls-3" d="M1391.45 83.23c.18 0 .21.09.2.2h-.31v.06a.89.89 0 01.14-.24m1.17 4.21a2.15 2.15 0 00-.45-.15c0-.19.11-.36.21-.32-.09.1.13.27.24.47m-1-.3l-.26-.05h.26M1378.74 85c.53.17.44-.59.67-.94.68 0 .15.58.26 1 .45-.06.93-.59 1.22-.48 0 .12 0 .18-.07.3.57-.42 1.24.34 1.93-.19a.57.57 0 010 .18 3.79 3.79 0 01.19-1c.24.06.57-.29.53.17-.14 0-.21.12-.31.24l.3-.12c0 .7-.4.12-.54.59.55-.06 1.26-.42 1.59-.13-.11.64-.94 0-.6.65l-.51-.41c.16 1.11-.33-.17-.23 1 .71.4.94-.07 1.65.34.27-.3.09-.53.36-.82 1.25-.31.39 1.81 1.42 1.21.33-.35.63-1.11 1.08-.53l-.4.64c.71.29.71-.88 1.34-.18-.21.23-.64.06-.55.18.33.7.46-.3.85-.18l-.1.64c.8.13 1.8-.06 2.69.08-.1.17-.3.32-.16.57a6.11 6.11 0 013.26 1.45l.55-.42c.1 0 .11.29 0 .37.35.32.12-.34.37-.49.25 0 .22.4 0 .52.85-.24 2.34-.37 2.94.43l-.19.11c.53.39 1-.9 1.39-.24l-.13.07c1.22.61 2.78.54 3.53 1.64.41-.72 1.18.72 1.57-.33.59.75.32.88 1.25 1.55.26.13.61-.56 1-.57l-.15.57.64-.45v.74h.36a.45.45 0 01-.13-.49c.57-.1 1.11.76 1 1l1.32-.13c-.09.22-.31.24-.51.34.8-.39-.06.63.67.27 0-.15.14-.32.19-.43a1.55 1.55 0 001.38.62l-.21.36c.85.36 1.91.36 2.89.66-.3-.28 0-.93.29-.91l-.06.63c.29-.31-.24-.32.28-.65.35.18 0 .75-.22.88l.51-.07c0 .18-.16.24-.25.46.29-.31.6.83 1 .26v.19c1 .3 1.49.22 2.3.43.16-.51.45-.3.81-.65a6.27 6.27 0 001.8 1.11c.58-.11.28-.39.59-.63-.1.48.62.64.16.87a6.79 6.79 0 002.31.17c-.06-.23-.17-.35-.06-.49s.39.33.3.54h-.07a1.36 1.36 0 011 .18 4.16 4.16 0 01.45.32c.12.11.48.3.72.46 1 .64 2.43 1.35 3.07 1h-.07.37c.06-.17.1-.36.15-.53l.25-1c.43-.61 0 .78.47.54a5.55 5.55 0 011-2.42c.22-.35.32-.45.43-.65a1.22 1.22 0 00.15-.66c1.62 0 1.12-2.31 2.39-2.75l-.33-.11c-.18-.38.32-.18.47-.31-.24-.1-.4.1-.49-.12.65-2.07 2.45-3.7 3.73-5.53.43-.68-1.38-1.18-.21-1.74l.44.54c0-1.79 1.49-3 1.56-4.68.1.14.27.22.2.36.55-.11.54-1.11.21-1.27.14-.21.33.09.56 0 .39-.19-.17-1 .32-1 .08 0 .09.15.1.22-.11-.29.48-.91-.09-.93.48-.44.25-1.14.73-1.44-.41-.53.67-.82 0-1.25.77.39 1.06-.67.84-1.18.19.22.38-.19.66.09.16-.39.17-.82-.27-.93 1.26-.32-.14-1.79 1.25-1.68a24.94 24.94 0 01.49-3.7c.78.37-.4 1.21.45 1.51.09-1.15-.36-2 .24-2.92.21-.22.28.28.38.42.09-1.13.87-1.92.78-3 .07 0 .11.16.14.28 0-.19.28-.37-.09-.49v.21c-.64.07-.83-1.14-1.1-1.27.93.7.61-.79 1.74.2a.54.54 0 00-.39-.43c.13-.14.3-.14.51.14 0-.71-.43-.64-.2-1.21.18.07.2.21.38.35-.23-.42-.45-.84-.13-1.28.1.07.26.07.2.21.26-.86-.39-1.77.28-2.57.67.56.37-.22 1.06 0v-.57l-.4.08c.17-.43-.17-1 .18-1.29l.16.43.23-.73-.41.38c-.2-.57-.87-.26-.48-.77 0 .14.16-.43.64-.52-.14-.29-.29-.59 0-.85.24 0 .72.32.88.32-.49-.41.2-1.08-.3-1.55a1 1 0 00.54.25l-.39-.33c.21-.15.29-.16.57 0 .29-.58-.92-.1-.31-.69 0 .07.1.06.13.2.43-.66.17-1.5.62-2.09.74 0 0 .64.62.6.19-1-.14-2.26.31-3.15l-.13.15c-.92-.44.69-.55.39-1.17 0 .14.49.33.39.26.36-.59.18-1.39.18-2.46l.21.2c.34-.31.44-1 .67-1.34-.21-.19-.1-.42-.5-.38 1.79-.85 0-2.64 1.47-3.42 0 .13.12.38.16.28v-1c-.45 0-.29 0-.68.16a.82.82 0 01-.27-.76c.16.51.68.19 1 .07-.14 0-.26-.11-.4-.13.9-.29-.83-.33-.13-.87l.22.1c0-.29-.27-.6-.13-.86.52 0 .15.33.55.46.08-.39-.71-1-.13-1.23.09.2 0 .44.12.64.68-.23.55-.31.72-.57l.44-.58-.2.12c-1.15-.83 0-1.06-.63-1.94.62.85.43.23 1 .43.2-.13.44-.34.58-.22-.37-.43.49-.43 0-1 .19 0 .11-.33.54-.14 0-.45-.34 0-.55-.08-.46-.77 1.16-1.27.5-2.47-.2-.91-.8-1.15-1-1.91.31-.23.66.26.66.26a.92.92 0 000-1.14c.16.07.3 0 .5-.15-.07-.35-.67-.18-.45-.65a2.18 2.18 0 01.77.28 8.9 8.9 0 00-.87-1.15c.28-.2.53.13.78.26-.23-.49-.68-1.26-1.22-1.16v.35c-.09-.14.37-.26.51-.16.52.29 0 .66-.15.72a2.43 2.43 0 00-.2-.25c-.46.31-.37.53-.13.8s.56.61.53.9c-.27-.07-.53-.13-.8-.18a8.32 8.32 0 01.68.53c-.21.13-.65.19-.77-.06-.39.37.29.34-.17.64a.1.1 0 01-.13 0l.21.37c-.16-.08-.56 0-.43-.19-.5.56.47 1.1-.16 1.25v-.07c.1.93.56.19 1.09 1-.5.06-1 .1-1.5.13l.54.22a.25.25 0 01-.35.17c.29.44.26 0 .57.3-.63.31-.09 1.29-1 1.15.39.27.45-.34.62.22-1-.12 0 .59-.54.88-.46-.26-.09-.57-.65-.28.78.47-.39.74-.32 1.12.66.2.08.83.14 1.46-.21-.1-.67 1-1.06 1.44l-.11-.05c.65.3.36.81.39 1.25-.4-.13-.54-.25-.65-.52l-.11.38a.67.67 0 01.28.57l-.47-.24c-.11.51.3 1.17-.23 1.72.46.17 1.46-.13 1.57.64-.26-.05-.7-.15-.75-.36 0 .07.14.27 0 .36l-.34-.4c-.28.24.31.26.2.48-.36-.11-.31.1-.59 0 0-.07.21-.16.1-.29a1.09 1.09 0 01-.76.52c.21 0 .49.14.48.35-.13.51-.49 0-.76.28.21.19-.14.43.4.6 0 .15-.31.1-.47.11.16.33-.29 1.22.37 1.11l.05-.06c.27 1-.85 1.66-.88 2.57l-.18-.06c.05.56-.23 1.14 0 1.63 0 .14-.43.24-.63.11 0 .42.2.53-.28 1-.18-.49-.32 0-.1-.47-.31.44-.64.46-.32 1.15-.4-.33-.7.18-.64.46l.44-.24a1.68 1.68 0 01-.26.72l-.55-.32c-1.06.75.63 2.23-.86 2.57.33.41.49-.44.9 0-.25.43-1.27.61-1.32.75-.56.52.66.9.21 1.48.24 0 .83.11.86.68a.72.72 0 01-1.16-.11.13.13 0 01.18-.11c0-.18 0-.41-.34-.31l.19.14c-.3.15-.5.79-.79.52.07.41.29.27.49.05-.52.48-.34.92-.77 1.45.15-.06.43-.06.4 0-.59.79.25.54.13 1.17-.45.23-.73-.4-.68.3-.36.29-.59-.13-.71-.34.2.7-.65.93-.84 1.21l-.06-.35a.84.84 0 01-.07.49h.48c-.14.14-.19.28-.37.21.21.28.76.13 1 .62-.3.15 0 .78-.63.64.47-.64-.59-.14-.45-.77a.49.49 0 01-.17.42c-.07 0-.11-.07-.12-.12-.76.48.51.55.23 1.25-.29-.21-.67-.07-.64.07.11-.28.58.07.72.42-.42.36 0 .56-.13.79l.22-.23c.28.22.15.43.13.78-.26-.07-.06-.35-.21-.28.41.57-.88.56-.71 1.19-.3.14-.59-.21-.82-.07.19.7-.67.41-.56 1.11.49 0 .4-.06.64.51l.09-1.06.36.85c.12-.28 0-.7.12-.84.23.42.14.35.54.35-.79.14.06.92-.55 1.2l-1-.44c-.73.48.06 1.41-.57 2.17l.3-.2c.36.29-.17.56-.12.91-.34-.17-.54-.05-.81 0 .27.09-.29.62.37 1l-.62.19c-.49.62.64 1.22.24 1.85-.29-.37-.67-.17-.74-.74-.1.23-.25.4 0 .51-.27 0 .19.82-.23.88.11.16.46.35.32.59a.3.3 0 01-.17-.07c.17.07 0 .49.53.44-1.38.21-.78 2-2 2.15a9.33 9.33 0 01-.45 1.62c-.09-.07-.17-.08-.09-.15-.6.46.8.83.13 1.36-.72.09-.13-.51-.44-.39-1.17-.42-.23.91-1.1 1.07v-.15c-.54.18 0 1.07-.33 1.6a.43.43 0 00-.17-.08 3.14 3.14 0 01.09 2.13c-.35-.38-.11-.36-.6-.47-.06.28.75.27.63.83-.32 0-.7.3-1.19.12l.2-.48c-.73-.06-.27.61-.5.81l-.25-.17c-.26.76.41 1.1 0 1.84h.24c.46.75-.54.17-.26.83l-.74-.21a7.38 7.38 0 010 1.85 4.78 4.78 0 01-.43-1.74c-.14.27-.42 1-.16 1.26 0-.15-.1-.37 0-.42a1.64 1.64 0 01.11 1.71c-1.24-.76-1.06 1.24-2.27 1.11 0 1.2-1.18 1.79-1.7 2.93 1.21.14-.15.33.92.82-.08.29-.15.38-.23.36l-1 .45c-.4 0-.09-.36-.34-.46-.19.25-.33.25-.48.22a1.35 1.35 0 01-.44-.2c.36.21.48.36.33.31a1.35 1.35 0 00.48.24c.18.32-.07.25-.26.09s-.35-.38-.2 0a3.91 3.91 0 00-.2-.41c.08.3 0 .09-.08 1a1.43 1.43 0 010-.57c-.06-.05-.11 0-.2 0h-.07a.66.66 0 01-.21 0h-.47a1.8 1.8 0 01-1.52-.4l.16-.25c-.22 0-.5.41-.66.06 0-.11.15-.25.07-.29s-.67.32-.89.09l.32-.24c-.94-.67-1.81.27-2.74.2.24-.8-.5-1.3-.88-1.55v-.11c-1.18-.46-2.25.06-3.46 0-.44-1.08-2.25-1.06-3.22-1.88.13.2-.21.62-.43.64-.22-.24-.89.34-.63-.38h.09c0-.78-.59-.75-1-.89l-.35.94c-.7-1.73-3-.34-3.27-1.77-.34.16-.67.06-1 .23l.17-.52a5.54 5.54 0 00-2-.67l.3-.31c-.51-.18-1.08 1.3-1.56 1.19l.08-.81c-.9-.26-1.61-1.2-2.7-.76 0-.11.14-.33.29-.32-.41-.14-1.48-1-1.63.11.19-.7-.9-.35-1.47-.18l.22-.49c-.6.53-.66.7-1.29.72-.11-.11 0-.45.15-.26-.38-.4-.49.37-1-.06l.3-.26c-.46-.18-.47 0-.83.31-.35.12-.84-.39-.78-.87-.14.26-.51.56-.74.35a.36.36 0 01.21-.3c-.67-.58-1.32.25-1.71-.41a.51.51 0 000-.33 4.84 4.84 0 011 .39c.13-.46-.34-.69.25-1.23-.51.24-1.41.81-1.83.44a.82.82 0 010-.18h.07a.3.3 0 00-.33 0 1.06 1.06 0 00-.36-.26c0-.4-.51-.38-.75-.47-.13.52-.43.34-.25.86h.36l.62.15c-.27.2-.54.36-.73 0-.22.29-.46.59-.58.72-.14-.81-.68-1.39-.64-1.86-.84.06-1.84-.34-2.59.49-.25.06-.17-.35-.2-.53.15-.06.29 0 .4-.12-.5.12-1.3-.28-1.6.37-.46-.47.48-.54-.29-.65l.16-.17c-1.16-1.51-2.88 1-4.11-.85.09.12.14.18.13.3-1.68-1.16-4-.56-5.53-2.07-.46-.34-.65.07-1.06.3v-.58l-.73.47c-.9.24-.94-1.74-2.16-1.15v.41c-.32-.17-1.17-.11-1-.52 0 0-.18.27-.27.19l.18.08a.39.39 0 010-.06v-.07c-.07.07.11-.07 0 0a.34.34 0 01-.28-.07c.1-.2.41-.13.68-.1h.17l-.16-.07a.79.79 0 01-.28-.26v-.12l-.31-.39a.56.56 0 01.17-.24c-.07-.44 0-.9-.11-1.31a.67.67 0 00-.49-.49 1.77 1.77 0 00-1.42.24 2.68 2.68 0 00-.38 1.54 3.2 3.2 0 00-.54.3 3.65 3.65 0 01.46-1.16 1.09 1.09 0 00-.35 1.57.77.77 0 00-.49.61 3.38 3.38 0 001.25 1.24c-.1.17-.34.11-.51.11s-.31.11 0 .72c.48.24.45-.09.5-.29s.14-.31.64 0l.18.44.37.16c0 .28 0 .41.33.23a.41.41 0 01-.28.41c.36-.18.78.11 1.06-.3.14.56 1 .16.73 1a1.55 1.55 0 011-.45c-.76.83 1 .35.53 1.34.6-.76 1.37 0 2.13-.3 0 0-.16.17-.2.11.33.18.35.47.53.7.25-.7.84-.71 1.27-1.06.22.82-.51.76-.57 1.47.15-.59.92-.36.91-.89.2.53.22.29.22.94.32-.88.35-.07.78-.54.35.59-.12.88.48.76.17.35-.39.53-.39.53"/><path class="cls-3" d="M1391 83.82h-.08a1.16 1.16 0 00.06.15l.11-.15zm59.84-41.27h.08-.06"/></g><path class="cls-3" d="M1406.62 92.63l.08.04.04-.13-.12.09z"/><g class="cls-2"><path class="cls-3" d="M1454.28 37.33a.21.21 0 00.15 0h-.15m.82-2.46l.28-.3a1.43 1.43 0 00-.28.3m.77-1.87a1 1 0 00-.21-.1zm-9.27 30.38a.19.19 0 000 .08v-.08m2.12-9.29a1.49 1.49 0 01.13.37c.1-.14.15-.26-.13-.37"/></g><path class="cls-3" d="M1443.11 73.45l.03-.05v-.01l-.03.06z"/><g class="cls-2"><path class="cls-3" d="M1448.7 54.87a.39.39 0 00.16-.41.57.57 0 00-.16.41m8.3-31.24a.31.31 0 000-.13h-.08zm-.16-.11l-.12-.11c0 .06 0 .11.12.11m-.37-.34l.25.23c0-.1-.09-.23-.25-.23m.68 3.69l.19.05a.4.4 0 00-.19-.05m-.02.9c.07-.2.47-.5.36-.82h-.15c.29.17-.51.64-.21.86m-3.05 2.82l.32-.61c-.23.07-.54.14-.5-.16-.82.65.49-.05.18.77m-.82 1.92c0-.37-.29-.07-.4-.12.12.27.16.33.4.12M1449 46.87l-.46-.18c0 .28.18.06.46.18"/></g><path class="cls-3" d="M1450.51 50.38l.37-.16-.38-.27.01.43zm-3.83.84l.01-.35-.03-.14.02.49z"/><g class="cls-2"><path class="cls-3" d="M1437.66 74.16l.58.17c0-.21-.62-.53-.58-.17m-4.07 10.03c-.33 0-.64.15-.46.45.15-.2.47-.31.46-.45"/></g><path class="cls-3" d="M1410.63 88.78l.18.09.26-.13-.44.04z"/><g class="cls-2"><path class="cls-3" d="M1427.52 39c0-.16.06-.53 0-.46l-.09.63zm-.12-1.2a8.23 8.23 0 00-.21 1.41c.11-.6.09-.35.21-1.06v.44c0-.16 0 .14.1-.25s0-.52-.15-.12v-.42m-5.52-1.8a.49.49 0 000-.13.28.28 0 000 .13m-.34-.72c0-.06 0-.09 0 0m2.51 1.22v-.2.2m2.77 2.76a1.66 1.66 0 000-.16v.16m-1.77-3.19v-.25zm.74-.07s-.07.51-.09.74a1.59 1.59 0 01.07-.36V36m1.1 1.09v-.07.07m-2.35-1.18a1.49 1.49 0 000-.19 1.15 1.15 0 010 .19M1404 39.84a.31.31 0 000-.1.45.45 0 000 .1"/></g><path class="cls-3" d="M1402.93 37.26l.01-.03-.02-.3.01.33z"/><g class="cls-2"><path class="cls-3" d="M1420.84 34.56c0-.06 0 0 0 0m-6.36.2c.07.48-.12.62 0 1.15a5.44 5.44 0 000-1.15m-.01 1.15V36a.09.09 0 010-.05m4.76-1.14a1.93 1.93 0 010 .23 2.3 2.3 0 000-.23m1.15.81v-.07.07m-1.79-.08s0-.12 0 0v.07c0-.08 0-.11 0 0m-.59-.09a.41.41 0 010 .11zm-12.16 3.93l-.06-.48c0 .38 0 .52.06.48m20.96-.45a1.77 1.77 0 010 .23v-.2m-8.39.72l-.1-.08s.06.08.1.08m-.41-.01a1.69 1.69 0 000-.37v.13z"/></g><g class="cls-2"><path class="cls-3" d="M1406.92 34.85v.13a.25.25 0 000 .07v-.2m.58 3.68a.15.15 0 00-.09 0 1.15 1.15 0 010-.37 1.23 1.23 0 00.08.39m-.19 0v-.05m-2.1 1.74c.1 0 0-.69 0-1.1.1-.2.08.52.14.87.06-.19.07-.83.13-.81a2.66 2.66 0 010 .3c0-.56.22 0 .26-.74a1.11 1.11 0 010 .17c0-.35 0-.71-.07-1 0 0 0-.45.1 0v.31-.2c.08.66 0 .23 0 .72.07-.22.14-.77.22-.59 0 .65-.14.23 0 .8l-.12-.24c.14 1-.06-.07.07 1 .15.18.13-.34.28-.15v-.89c.15-.66.24 1.61.33.74 0-.43 0-1.24.1-.82v.73c.13.07 0-1 .18-.57 0 .29-.09.25-.07.34.12.57 0-.42.11-.42l.05.64c.13-.11.26-.58.41-.71a2.42 2.42 0 000 .6c.18-.34.41 0 .62.43v-.56a.88.88 0 010 .36c.08.21 0-.35 0-.58 0 0 .06.32 0 .49.1-.48.32-1 .48-.44v.17c.11.22.07-1.15.19-.63v.1c.23.23.47-.29.67.55 0-.81.24.35.22-.77a4.65 4.65 0 00.31 1.12s0-.7.11-.82v.58l.06-.61.06.7.06-.16a1.22 1.22 0 01-.06-.43c.08-.26.23.41.24.71l.2-.51a2.36 2.36 0 01-.06.47c.1-.6 0 .62.12.07v-.47c.06.35.18.36.26.21v.4c.16.1.33-.2.5-.2a2.53 2.53 0 010-1v.62c0-.39-.06-.24 0-.7a2.39 2.39 0 010 .9l.08-.22v.52c0-.38.14.62.18-.05v.19c.17 0 .25-.21.39-.25a4.93 4.93 0 01.09-.85c.11.17.23.59.35.55a3.76 3.76 0 00.06-.77c0 .48.14.44.07.79.16-.08.2-.1.39-.5a2.5 2.5 0 010-.45c0-.08.08.2.08.44.22-.73.5 1.42.67.4v.05l.18-.53c.08.09 0 .37 0 .67.19-.81.3.12.46-.42.11 1.44.43-.1.59.82v-.34c0-.33 0 .2.08.28a2.79 2.79 0 010-.49c.36-.41.73.5 1.09.82.13.09.12-1.75.27-.94l-.06.63c.29-.75.55 0 .83-.6v.33c0 .46.21 0 .22-.34a3.5 3.5 0 010 .53c0 .27.16-.58.18-.13a.45.45 0 010 .19c0-.22.17.06.16-.47.09.25.19-.23.26.09.08-.59.17.28.21-.55 0 .86.15.7.23.3v.63c.07 0 .14-.17.15-.61.09 1 .3-.81.32.51a3.2 3.2 0 01.65-.95c0 .85-.22.07-.25 1 .2-.34.34-1.07.51-.86a1.66 1.66 0 01-.07.52c.2-.35.35.09.54-.36a1.55 1.55 0 010 .23s.07.13.09-.26v.1a9.3 9.3 0 01.21-1.47c-.11 1.11.15.29 0 1.69a1.69 1.69 0 00.08-.51 1.58 1.58 0 010 .52c.12-.2.1-.62.21-.61 0 .19 0 .27-.06.49.07-.37.15-.73.23-.57s0 .26 0 .26c.15-.05.32-1 .46-.6-.1.81 0 .27 0 1l.1-.21v-.34c.07 0 .17-.5.23-.26l-.08.29.16-.13-.07-.27c.1-.36 0-.9.14-.69s.08 0 .09.43c.06-.22.11-.46.16-.28s-.06.79-.06.94c.07-.59.19-.15.28-.78a5 5 0 000 .59l.06-.48a1.52 1.52 0 010 .53c.11.1 0-.9.13-.5v.18c0 .07.27-.29.37-.05 0 .72-.11.17-.12.78.18-.12.42-.83.58-.65v-.08c.1-1 .09.5.21 0a2 2 0 00-.05.44c.1.17.25-.23.45-.53v.25c0 .24.17.15.23.27a1.67 1.67 0 00.09-.58c.1 1.49.5-.76.59.48a.46.46 0 00-.05.23l.19-.22a4 4 0 000-.62c0-.25.11-.45.15-.45a2.83 2.83 0 000 1v-.41c0 .78.09-.88.17-.35v.23c.06-.11.13-.41.17-.34 0 .51-.07.23-.11.65.07 0 .22-1 .24-.44 0 .14-.08.14-.12.27 0 .6 0 .45.07.55l.09.28v-.17c.2-1.31.19-.22.39-1.08a4 4 0 00-.13 1 1.68 1.68 0 010 .5c.1-.45.06.38.2-.29 0 .18.05 0 0 .48.08-.14 0-.32 0-.55.17-.62.18.79.42-.06.17-.34.26-1 .42-1.26a2.53 2.53 0 01-.1.67c0 .28.09.23.18 0a2.58 2.58 0 000 .5c.06 0 .1-.66.14-.38s-.08.53-.12.73c.07-.16.17-.5.25-.66a4.06 4.06 0 01-.13.69 1.64 1.64 0 00.29-.78v-.18a1.94 1.94 0 01-.06.52c-.1.4-.07-.18-.05-.37l.05-.11c.07-1.09-.2.16-.28.08l.12-.78-.16.64a2.83 2.83 0 01.09-.76c0-.39-.09.28-.1-.16a.49.49 0 010-.14l-.08.23c0-.17 0-.56.07-.44-.07-.47-.25.57-.23 0v.13c-.18.25-.07.58-.26 1.25l.06-1.44-.07.58v-.3a4.88 4.88 0 00-.09.62c0-.54-.24.23-.17-.7-.07.44 0 .35-.07.65.07-1-.12.16-.15-.3s.12-.24.09-.7c-.13.86-.13-.2-.2 0-.07.69-.16.27-.29.49 0-.23-.16-.39-.23-.65v-.11c-.08.69-.17.55-.25.69a3.51 3.51 0 01.12-.77h-.39a.82.82 0 01-.12.41l.12-.52c-.1 0-.24.59-.33.23a7.5 7.5 0 01-.17 1.68 4.67 4.67 0 01.1-.82s-.06.22-.07.1l.08-.44c0-.19 0 .37-.09.33v-.57s0 .16 0 0a1.53 1.53 0 01-.08-.58 1.88 1.88 0 01-.08.55c-.09 0 0-.45 0-.65 0 .26-.08 0-.12.55a1.66 1.66 0 010-.42c-.07.24-.23.05-.22.65v.06c-.2.55-.3-.34-.47-.11v-.19c-.11.21-.21.11-.31.51a1.57 1.57 0 010-.57c-.08.14-.1.35-.18 0 .09-.32 0-.29.09-.23-.08-.17-.08-.47-.21 0 .06-.48 0-.61-.08-.47v.35c-.06.07-.09 0-.13 0l.06-.63c-.13-.78-.42 1.28-.48 0-.07.44.08.32 0 .83a9 9 0 01-.14-1c-.1-.35-.17.92-.28.67a3.3 3.3 0 01-.12 1 2.89 2.89 0 010-1.13v.13a.91.91 0 00.06-.42v.22c0-.23-.15-.21-.1-.58a.75.75 0 000 .49c-.09-.34-.17 0-.27-.25a2.4 2.4 0 010 .39c-.15-.29-.1.42-.22.51 0-.34.07-.82-.06-.53a2.25 2.25 0 01.06-.79c-.13.43-.18-.29-.23-.37l.06-.18c0 .1-.06.1-.09.1v.45a.42.42 0 010-.27c0 .29 0 .75-.1 1.15 0-.23-.14.24-.13-.36.13.21 0-.6.14-.69 0 .07-.05.06-.08 0a.63.63 0 010-.16c-.1-.54-.09.68-.23.66v-.57a2.07 2.07 0 01-.06.81c-.08-.26-.11.2-.15.16v.13c0 .33-.07.29-.13.39 0-.26.06-.18 0-.29-.09.59-.11-.63-.23-.23v-.79c-.12.43-.09-.47-.21-.11a1.88 1.88 0 01-.08.78l.19-.31-.14.65c.05 0 .12-.28.15-.2a1.68 1.68 0 000 .63c0-.68-.17.39-.23-.07l.06-1.12c-.11-.51-.26.56-.41.28v.19c0 .45-.11.06-.17.24a5.46 5.46 0 000-.75c0 .28-.12 0-.17.72v-.5c-.13-.21-.2 1.07-.32.93a5.93 5.93 0 01.11-1s-.08-.08-.09.18c0-.23-.14.5-.17.15 0 .16 0 .55-.09.52s0-.19 0-.19a2.35 2.35 0 00-.06.67c-.09-1.17-.37.07-.45-.93a.76.76 0 01-.3.26v-.15c-.1-.35-.1 1.08-.22.68 0-.6.08-.32 0-.55 0-1.24-.16.16-.23-.56v-.08c-.06-.42-.18.47-.29.38v-.19a2.11 2.11 0 01-.36 1 3 3 0 000-.74 8.56 8.56 0 01-.1.92 6.28 6.28 0 01-.09-1h.09c0-.67-.12 0-.16-.09v-.3c-.14.09-.16.84-.31.78v.23c-.09.74-.06-.42-.15.13v-.75a5.44 5.44 0 01-.3.86 7 7 0 01.26-1.17c-.06 0-.18 0-.22.43 0-.08 0-.26.07-.14-.07.58-.16.87-.27.86 0-1.46-.27-.37-.33-1.5-.2.53-.38-.24-.6-.15.07 1.13-.06 0-.06 1.19 0 .08-.07.06-.07 0l-.15-.69v-.52c-.11-.09 0-.49-.12-.8 0 .41 0 .59-.1.43l.09.54c-.16.62-.14-1-.3-.37v-.36c-.08.21-.3 0-.38.92a2.34 2.34 0 010-.53c-.19-.14-.43 1-.58.42v-.29c0 .09-.06.54-.1.25a1.25 1.25 0 000-.3c0 .1-.09.5-.14.34v-.32c-.19-.38-.29.78-.44 1a2.23 2.23 0 00-.24-1.24v-.12c-.22-.1-.37.7-.57 1-.14-.91-.43-.37-.65-.88a2.56 2.56 0 010 .74c-.06-.17-.12.58-.13-.19-.06-.75-.15-.55-.23-.57v1c-.23-1.45-.51.55-.65-.75-.05.25-.11.25-.15.5v-.53c-.14-.13-.21-.2-.37-.06v-.39c-.09 0-.07 1.56-.15 1.59l-.06-.8c-.16 0-.35-.68-.49.05a1.9 1.9 0 010-.38c-.07 0-.31-.53-.24.57 0-.72-.18-.07-.25.25v-.53a3 3 0 01-.14 1.06v-.29c-.09-.27 0 .51-.15.23v-.34c-.08 0-.07.14-.1.54 0 .21-.16-.13-.2-.61 0 .29 0 .69-.08.55a1.91 1.91 0 010-.35c-.15-.35-.18.63-.3.11a2.57 2.57 0 000-.31c.11 0 .21 0 .2.07a7.19 7.19 0 01-.08-1.25c0 .37-.14 1.18-.24.95V35v.08c0-.08-.06-.14-.08-.14 0-.41-.12-.21-.17-.23a4.8 4.8 0 000 .89.08.08 0 010-.09.11.11 0 000-.06h.11c0 .27 0 .5-.11.21v.86c-.1-.74-.24-1.14-.28-1.59a1.69 1.69 0 00-.35 1.22c0 .13-.06-.29-.08-.44s0-.09 0-.24c-.07.26-.23.12-.21.82-.11-.31 0-.65-.11-.53v-.16c-.34-1.11-.33 1.81-.71.39a.85.85 0 010 .25c-.38-.62-.65.63-1-.35-.11-.19-.09.25-.12.6l-.06-.57v.67c-.1.49-.34-1.39-.45-.46v.38c-.07-.07-.18.24-.21-.2v.2-.3l-.12.53c-.13-.21-.07-1.19-.25-1.24a3.78 3.78 0 00-.08 1.09 1 1 0 01.11.48v.16a12.09 12.09 0 00.28 2.4l.06-.55.07.42h-.09c.08.4.09 0 .1-.21a2.85 2.85 0 00.08.47v-.85a4.46 4.46 0 00.09.87c0-.39-.1-.77 0-1 .08.4.09.72.12.38a1.5 1.5 0 010 .47c0-.27.13-.12.12-.59.08.49.16-.15.21.69a2.32 2.32 0 01.09-.7c0 1 .17.05.23 1.12 0-.9.19-.42.27-.92v.17a2 2 0 01.15.51 8.55 8.55 0 01.07-1.39c.12.72 0 .88.08 1.57 0-.6.09-.61 0-1.11a4.68 4.68 0 01.14.82v-.73c.11.45.08.87.15.58a1.9 1.9 0 010 .62m2.05-4.72v.12-.17z"/><path class="cls-3" d="M1424 36.59a.15.15 0 010 .07v-.06"/></g><path class="cls-3" d="M1410.06 39.44l.02.02v-.14l-.02.12z"/><g class="cls-2"><path class="cls-3" d="M1425.31 38.66v.2a.68.68 0 000-.2m.32.34v-.23zm-5.41.2c0 .1 0 .06 0 0m1.67-1.2a1.09 1.09 0 01-.07.25s0 .06.07-.25"/></g><path class="cls-3" d="M1418.41 39.76l.01-.01h-.02l.01.01z"/><g class="cls-2"><path class="cls-3" d="M1421.75 38.28c0 .1 0 .08.08 0s0-.09-.08 0m5.31 1.06a.22.22 0 010-.09zm.03-.06v-.06.06m.07-.19l-.05.13.05-.13m-.66 0s0 .42.1.31v-.16c0 .29-.06-.47-.12-.15m-.32-2.44l.1.17c0-.21 0-.49.06-.53-.09-.63 0 .46-.16.36m-.33-.33c.07-.09 0-.3 0-.42a.77.77 0 000 .42m-2.6-.22v-.48.48"/></g><path class="cls-3" d="M1422.56 38.58l.02.3.05-.44-.07.14zm-.13-3.38l.07-.1.03-.07-.1.17z"/><g class="cls-2"><path class="cls-3" d="M1418.08 35.05v.6c0-.11.06-.78 0-.6m-1.91.56c0-.3-.07-.5-.11-.2 0 0 .08.27.11.2"/></g><path class="cls-3" d="M1410.42 34.61l.04.03.03-.2-.07.17z"/><g class="cls-2"><path class="cls-3" d="M1414.84 49.08c0-.16.06-.53 0-.46l-.08.62zm-.07-1.18a11.21 11.21 0 00-.2 1.41c.1-.6.08-.35.19-1.06v.44c0-.16 0 .14.09-.25s0-.52-.12-.12v-.42m-2.63-1.28v.08a.54.54 0 000-.08m-1.69-.53a.23.23 0 000-.13.42.42 0 000 .13m-.22-.72c0-.06 0-.09 0 0m1.91 1.25v-.2.2m2.12 2.75a.76.76 0 000-.16v.16m-1.31-3.17v-.26zm.6-.04s-.08.51-.11.74a2.63 2.63 0 01.07-.36v-.38m.86 1.04v-.07a.25.25 0 010 .07m-1.82-1.2a1.56 1.56 0 000-.2v.2m-16.76 2.24v-.1a.58.58 0 000 .1m-.39-2.71v-.3zm14.37-.9c0-.06 0 0 0 0m-4.99-.16c0 .49-.16.6-.13 1.14a8.38 8.38 0 00.13-1.14m3.71.34a1.93 1.93 0 000 .23v-.23m.84.86v-.08a.38.38 0 000 .08m-1.4-.16s0-.12 0 0v.07c0-.08 0-.11 0 0m-.5-.13zm-10.09 2.7a4 4 0 010-.48c0 .38-.13.5 0 .48m16.96.92a2.24 2.24 0 010 .23 1.91 1.91 0 000-.2m-6.85.6l-.07-.09a.11.11 0 00.07.09m-.32-.04a2.15 2.15 0 000-.37v.14zm-9.76-2v.01-.01"/><path class="cls-3" d="M1398.76 47.47h-.06a1.44 1.44 0 010-.36 1.75 1.75 0 000 .39m-2.1 1.41c.08 0 .12-.68.18-1.08.11-.19 0 .52 0 .88.08-.18.19-.82.23-.78a1.89 1.89 0 010 .3c.12-.55.18 0 .33-.7a1 1 0 000 .17c0-.35.06-.7.09-1 0 0 .11-.43.07 0a1.39 1.39 0 00-.06.31l.06-.2c0 .66-.08.23-.13.71.09-.2.23-.74.26-.55 0 .65-.14.2-.13.78l-.06-.25c0 1 0-.08-.1 1 .08.2.15-.31.24-.11.06-.36 0-.53.11-.89.23-.62 0 1.63.15.79.08-.42.18-1.24.21-.8l-.1.73c.09.08.17-1 .23-.54-.05.28-.11.23-.11.32 0 .58.1-.41.15-.4v.64c.12-.09.29-.54.43-.64a3.81 3.81 0 00-.07.59c.2-.31.33.11.44.51l.11-.55a1.2 1.2 0 010 .36c0 .22 0-.35.09-.56v.48c.15-.46.4-1 .45-.37v.16c.06.24.22-1.13.24-.6v.1c.15.26.41-.23.46.62.12-.79.14.38.28-.73a5.22 5.22 0 00.1 1.15c0 .05.13-.69.19-.81l-.06.59.13-.61v.7l.07-.14a1.59 1.59 0 010-.43c.1-.26.13.42.1.72l.22-.47a2.26 2.26 0 01-.11.45c.16-.58 0 .62.1.08v-.46c0 .36.1.37.19.23l-.06.4c.11.12.29-.16.43-.14a3.25 3.25 0 01.1-.95l-.05.62a5.59 5.59 0 01.09-.7 3.49 3.49 0 01-.09.9l.08-.21c0 .19 0 .28-.07.52.07-.38 0 .63.15 0v.18c.14 0 .23-.18.34-.2a6 6 0 01.18-.84c.06.18.11.61.22.58a4.14 4.14 0 00.13-.76c0 .48.06.45 0 .79.13-.07.17-.08.37-.46a2.16 2.16 0 010-.45v.44c.25-.7.24 1.46.49.46l.2-.51c.06.09-.08.36-.06.67.24-.79.23.14.41-.38 0 1.44.36-.07.4.86v-.34c.07-.32 0 .2 0 .28a4.82 4.82 0 010-.49c.33-.37.55.56.81.9.1.1.25-1.74.3-.92l-.11.62c.31-.72.45.08.74-.53a1.42 1.42 0 01-.07.32c0 .46.16 0 .2-.33a4.1 4.1 0 010 .53c0 .27.18-.57.16-.12a1 1 0 010 .18c0-.21.13.08.16-.45 0 .26.18-.22.21.1.1-.58.1.3.21-.53-.1.86.06.71.16.31v.63c.06 0 .13-.16.16-.6 0 1 .31-.8.23.52a4 4 0 01.59-.92c-.1.85-.18.07-.27 1 .19-.33.35-1.06.48-.83a2.08 2.08 0 01-.1.51c.19-.34.28.11.46-.34a1.19 1.19 0 010 .22s0 .14.09-.25v.1a10.51 10.51 0 01.27-1.46c-.17 1.11.1.29-.13 1.69a2.29 2.29 0 00.1-.51 2.09 2.09 0 010 .52c.11-.2.12-.62.21-.6 0 .19 0 .26-.08.48.08-.36.16-.72.22-.56s0 .26 0 .26.32-1 .41-.58c-.13.81 0 .27 0 1l.09-.21v-.34c.06 0 .17-.49.2-.25l-.07.28.13-.12v-.27c.1-.36.09-.9.15-.69s.07 0 0 .43c.06-.22.12-.45.14-.27s-.09.78-.1.93c.1-.59.17-.15.27-.77a5.72 5.72 0 00-.07.59l.08-.47a2.08 2.08 0 010 .52c.08.1.07-.9.13-.5v.18c0 .07.24-.28.31 0 0 .71-.11.16-.14.76.15-.11.38-.82.5-.63v-.09c.13-1 0 .51.16 0a4.25 4.25 0 00-.06.45c.07.17.21-.23.39-.53v.26c0 .23.13.15.17.27a2.37 2.37 0 00.1-.59c0 1.49.43-.75.46.49a.6.6 0 00-.06.23l.16-.23a4.5 4.5 0 000-.61 1.15 1.15 0 01.14-.45 3.52 3.52 0 00-.07.95v-.41c0 .78.11-.88.15-.35v.23c0-.11.12-.41.15-.34a5.77 5.77 0 01-.11.65c.06 0 .21-.95.21-.44 0 .14-.08.14-.12.27v.55l.07.28v-.17c.22-1.31.17-.22.36-1.08a4.7 4.7 0 00-.14 1.05 2.09 2.09 0 010 .5c.1-.46 0 .37.17-.3a1.5 1.5 0 010 .49c.07-.14 0-.32 0-.55.16-.62.12.78.34-.07.15-.34.24-1 .38-1.26a3.09 3.09 0 01-.1.67c0 .28.07.23.14 0a3.49 3.49 0 000 .5s.1-.67.13-.39-.08.53-.12.74c.06-.17.15-.51.22-.67a4.15 4.15 0 01-.12.7 1.87 1.87 0 00.25-.79v-.18a2.48 2.48 0 01-.06.53c-.09.39 0-.19 0-.37v-.12c.09-1.08-.16.16-.23.09l.12-.78-.15.64a3.79 3.79 0 01.1-.76c0-.39-.08.28-.08-.16a1.13 1.13 0 010-.14l-.08.23c0-.16.06-.56.07-.44 0-.46-.21.57-.18 0-.16.25-.08.57-.25 1.24l.09-1.43-.07.57V47c-.09.39 0 .25-.08.62 0-.53-.21.22-.12-.7-.07.44 0 .35-.08.65.09-1-.09.16-.1-.3s.1-.24.09-.7c-.13.86-.09-.2-.16 0-.08.69-.14.28-.24.5 0-.23-.11-.4-.16-.65v-.12c-.09.69-.15.55-.23.69a4.65 4.65 0 01.13-.76 1.57 1.57 0 01-.11.41l.07-.52c-.08 0-.21.6-.27.24a9.36 9.36 0 01-.21 1.67c0-.26.08-.71.11-.82s0 .22-.06.11l.09-.44c0-.2-.06.36-.09.32v-.56s0 .15 0 0a1.73 1.73 0 010-.58 2.51 2.51 0 01-.09.54c-.07 0 0-.45 0-.64 0 .25-.06 0-.12.54a2.07 2.07 0 010-.42c-.06.24-.18 0-.2.65v.06c-.18.54-.21-.34-.36-.12v-.18c-.09.2-.17.11-.27.5a2.36 2.36 0 010-.57c-.07.14-.1.35-.14 0s0-.29.08-.23c0-.17 0-.47-.17 0 .08-.47 0-.61 0-.47v.35c0 .07-.08 0-.11 0l.09-.63c-.06-.78-.4 1.27-.38 0-.08.43.05.32 0 .83a9.56 9.56 0 010-1c0-.36-.19.91-.26.66a3.89 3.89 0 01-.16 1 3.78 3.78 0 01.08-1.13v.14a1 1 0 00.07-.42v.22c0-.23-.1-.22 0-.58a.83.83 0 000 .48c-.05-.33-.13 0-.2-.25a1.61 1.61 0 010 .39c-.1-.3-.1.42-.2.5 0-.34.11-.81 0-.53a2.7 2.7 0 01.09-.78c-.12.42-.12-.3-.15-.39l.06-.17c0 .1-.06.1-.08.09v.46a.53.53 0 010-.28c-.06.29-.06.75-.16 1.15 0-.23-.13.23-.07-.36.08.21.05-.6.15-.69 0 .07 0 .06-.06 0a.43.43 0 010-.15c0-.55-.12.66-.23.64a1.6 1.6 0 000-.57 3.17 3.17 0 01-.11.81c0-.26-.1.19-.13.16v.12c0 .34-.08.29-.14.39 0-.26.06-.17.06-.29-.12.58 0-.62-.17-.24 0-.23.07-.63.06-.78-.13.42 0-.47-.16-.12a2.48 2.48 0 01-.12.77l.17-.3-.16.65s.12-.28.14-.2a2.28 2.28 0 00-.09.63c0-.68-.15.38-.17-.08l.12-1.12c0-.51-.24.56-.34.26v.2c-.06.44-.08 0-.14.23v-.75c0 .28-.1 0-.19.71v-.5c-.09-.21-.24 1-.33.92a7.62 7.62 0 01.16-1s0-.08-.08.18c0-.24-.15.49-.14.14 0 .16-.08.55-.12.51s0-.18 0-.18a3.85 3.85 0 00-.1.66c0-1.18-.3 0-.28-1a.65.65 0 01-.25.25v-.15c-.06-.35-.18 1.07-.24.67 0-.61.09-.32.08-.55.12-1.23-.14.15-.13-.57v-.07c0-.43-.18.45-.26.35a1.31 1.31 0 000-.19 2.33 2.33 0 01-.37 1 4.4 4.4 0 00.11-.74c-.05.07-.08.79-.17.92a8.05 8.05 0 010-1h.07c0-.67-.09 0-.12-.1V45c-.12.08-.21.83-.32.76V46c-.14.72 0-.42-.13.12l.06-.75a6.23 6.23 0 01-.32.83 11.41 11.41 0 01.32-1.14s-.15 0-.21.41c0-.07.06-.26.07-.14q-.18.87-.3.84c.17-1.44-.18-.39-.12-1.52-.2.52-.27-.26-.45-.19-.06 1.13 0 0-.17 1.18-.05.07-.06 0-.06 0v-.71c0-.34.06-.25.09-.51-.08-.1 0-.49 0-.81 0 .42-.09.59-.13.43v.54c-.2.6 0-1-.2-.39l.08-.36c-.08.21-.23 0-.39.89a2.09 2.09 0 01.06-.53c-.14-.16-.45.95-.51.37v-.28c0 .07-.11.52-.12.23a1.62 1.62 0 000-.3c0 .1-.13.49-.15.32l.06-.31c-.1-.39-.31.75-.45.93a3 3 0 000-1.26v-.12c-.16-.12-.37.66-.56 1 0-.91-.3-.42-.4-.94a3.63 3.63 0 01-.11.73c0-.17-.17.57-.08-.2.05-.75 0-.56-.1-.59l-.12 1c0-1.47-.47.49-.41-.82-.07.24-.12.23-.18.48l.06-.54c-.09-.14-.14-.22-.28-.1l.07-.38c-.07-.05-.26 1.53-.33 1.55l.06-.8c-.13 0-.18-.72-.38 0a2 2 0 01.06-.38s-.17-.57-.27.53c.08-.71-.12-.08-.23.22l.07-.52a3.85 3.85 0 01-.25 1v-.29c0-.28-.11.49-.15.2l.06-.33c-.06-.05-.07.13-.15.52-.07.21-.12-.14-.07-.62 0 .29-.12.67-.15.53a1.63 1.63 0 01.06-.34c-.07-.37-.23.59-.25.07v-.32c0-.05.15.06.14.1a9.9 9.9 0 01.12-1.25c-.09.36-.28 1.15-.32.91a1.16 1.16 0 010-.17v-.1c0-.4-.06-.23-.09-.25a5.26 5.26 0 00-.1.89.1.1 0 010-.09h.09c0 .27-.11.49-.11.19l-.15.85V43.9a2.06 2.06 0 00-.45 1.16c-.05.12 0-.29 0-.45a1.32 1.32 0 00.08-.22c-.09.25-.2.08-.29.77 0-.32.11-.63 0-.53v-.21c-.08-1.14-.53 1.74-.61.28a1 1 0 010 .25c-.19-.66-.61.53-.76-.5 0-.21-.11.24-.19.57v-.57l-.15.65c-.16.47 0-1.42-.28-.52v.38c0-.08-.18.21-.13-.23 0 .07-.06.4 0 .2v-.3l-.18.49c-.07-.22.14-1.18 0-1.25a4.92 4.92 0 00-.24 1 1.32 1.32 0 010 .49l-.07.15a14.92 14.92 0 00-.19 2.41l.14-.53v.43h-.07c0 .41.06.05.11-.19v.48l.18-.84a4.57 4.57 0 00-.08.88c.08-.39 0-.78.14-1 0 .41-.06.73 0 .4a2.18 2.18 0 01-.08.46c.07-.26.12-.1.19-.56 0 .49.15-.12.06.71a3.06 3.06 0 01.18-.67c-.17 1 .13.07 0 1.14.15-.89.22-.38.37-.87v.17a3.33 3.33 0 010 .52 9.26 9.26 0 01.27-1.35c0 .72-.13.87-.19 1.56.07-.6.18-.59.21-1.09a5.16 5.16 0 010 .83c.11-.92.06-.15.17-.72 0 .47-.08.87 0 .6a2 2 0 01-.1.61m1.78-4.45v-.04"/><path class="cls-3" d="M1412.11 46.71a.2.2 0 010 .07.13.13 0 000-.06"/></g><path class="cls-3" d="M1400.69 48.69l.01.02.01-.13-.02.11z"/><g class="cls-2"><path class="cls-3" d="M1412.73 48.62a.71.71 0 000 .14.53.53 0 000-.14m.34.16v.2a1.05 1.05 0 000-.2m.24.29v-.22zm-4.39.15s0 .06 0 0m1.42-1.1a1.09 1.09 0 01-.07.25s0 .06.07-.25m-2.92 1.59zm2.8-1.36c0 .11 0 .09 0 0s0-.09 0 0m4.24 1.09a.34.34 0 000-.09zm.02-.06v-.06.06m-.35-.22v.19a1.52 1.52 0 000-.19m-.13.04s0 .42.07.31v-.16c0 .29 0-.47-.09-.15m-.16-2.43l.07.16a1.55 1.55 0 01.07-.53c0-.62 0 .47-.14.37m-.25-.33c.06-.09 0-.3 0-.41a.82.82 0 000 .41m-2.06-.23l.06-.48a2.54 2.54 0 00-.06.48"/></g><path class="cls-3" d="M1410.85 48.67v.31l.07-.45-.07.14zm.09-3.37l.05-.1.03-.07-.08.17z"/><g class="cls-2"><path class="cls-3" d="M1407.53 45l-.06.6c0-.1.12-.77.06-.6m-1.53.44c0-.3 0-.5-.06-.21 0 .05 0 .28.06.21"/></g><path class="cls-3" d="M1401.59 43.94l.03.04.05-.2-.08.16z"/><g class="cls-2"><path class="cls-3" d="M1397.9 7.51c.73-.1.31-.3-1.71-.25l-1.44.37zm-13.65-.58c-2.39.19-5.14.51-3.59.83 2.36-.36 2.93-.22 5.47-.64 2 0 3.55.09 3.21.23.71-.1 3.15.06 4.24-.17a58.48 58.48 0 00-9.48 0c-.75-.07 0-.17.15-.24M1186 6h1.27-1.27m-122.79-.75a7.25 7.25 0 001.37-.07 4.93 4.93 0 00-1.37.07m-20.97-.49h1.24a9.09 9.09 0 00-1.24 0M1186 6l-3.28-.13A19.51 19.51 0 001186 6m170.91 1.83c.69 0 1.26 0 1.78-.09h-1.78m-116.74-1.88h1c.3 0 .57-.08.83-.14zm41.55.08a3.24 3.24 0 00-1.63.42 10.89 10.89 0 012.05-.2c0-.06-.11-.13-.42-.22m65.88.66h1.17-1.17m-137.17-.91a1.48 1.48 0 00-.38-.11s.15.08.38.11M48.3 3.84c-.24 0-.32 0 0 0M.12 2.9h.67c.07-.06.13-.12.13-.17zm651.46-.25c4 .29-6.5.31-.49.64-.56-.12 5.46-.44.49-.64m704.26 5.14h-1.71 1.71m-704.75-4.5h.62-.62M915.45 4a6.92 6.92 0 00.9.14 3.42 3.42 0 00-.9-.14m65.87.7h-1.63 1.63m-100.07-.48c-.89 0-1.19-.07-2.4 0h.37a13.13 13.13 0 012 0M845.65 4l.65.07h1.13zM156.49 3a12.5 12.5 0 01-1.65-.26c.55.21-4.68.32 1.65.26"/><path class="cls-3" d="M1356.89 7.66a3.2 3.2 0 01-1.05.13h1.16c.1 0 .13-.09-.13-.12M879.79 6.59l-5.66-.07 5.66.07m-467.93-2.8h-1.3a12.8 12.8 0 001.3 0m445.49 2.69c-1-.11-2.08-.18-3.19-.22-.23 0-.5 0-.66.07zM154.83 2.76"/><path class="cls-3" d="M231.64.17a11.23 11.23 0 012.47.08h-3.13a2.75 2.75 0 01.66-.16M254 2.35l-4.59-.05c-.37-.11 0-.21 1.1-.2a26 26 0 003.49.25M117.58 3.68c5.39 0 2.53-.41 3.67-.64 6.43-.15 3 .28 5.17.47 4-.13 7.09-.51 10.09-.51.22.06.8.08.12.17 4.25-.34 12.61-.09 17.55-.51a4.2 4.2 0 01.65.1c-.8-.2-.93-.4-.76-.54 2.41 0 4.48-.28 5.39 0a10.77 10.77 0 00-2.3.19l2.53-.13c2.28.36-3.45.15-3.45.42 4.93-.14 10.69-.48 14.47-.39.79.36-8.85.16-3.8.47l-5.85-.12c4.47.56-3.56 0 .56.58 7.7.07 8.61-.23 16.29-.16 1.73-.21-.57-.3 1.16-.51 10.92-.41 8.6.88 16.63.36a33 33 0 018.59-.49l-1.94.42c7.45 0 4.25-.61 12.06-.36-1.39.17-5.86.16-4.73.21 5.06.3 3.58-.25 7.47-.26l.8.36c7.94-.07 16.69-.37 25.47-.41-.48.11-2 .22.06.34 11.08-.12 23.68.24 34.37.51l4.09-.29c.95 0 1.76.16.73.21 4.17.15.22-.2 2.22-.31 2.38 0 3.14.2 1.63.29 7.36-.22 21-.44 28.71 0l-1.51.09c6 .16 6.81-.61 12.41-.28h-1.07c13.1.21 27.57 0 37.57.55 1.9-.44 13 .28 13.81-.35 7.47.36 5.33.46 15.86.74 2.82 0 4.2-.38 7.68-.42l.08.33 4.73-.32 2.51.41 3.26-.06a8.54 8.54 0 01-2.56-.28c2.55-.06 5.65 0 8.13.13a34.58 34.58 0 014.41.34l12.06-.21a33.37 33.37 0 01-3.88.24c6.43-.3 1.16.36 7.06.08-.79-.08.43-.19.57-.26 2.94.22 9.63.26 14.58.2l-.95.23c8.94.11 18.85 0 28.89.06-3.6-.13-2.77-.52.17-.54l1.18.35c1.9-.2-3.08-.15.82-.39 3.75.06 2.52.41.37.52l4.56-.1c.27.11-.8.15-1.08.29 1.87-.21 7.86.39 10.56 0l.26.11h22.76c.16-.3 3.35-.22 5.79-.45 6 .13 12.67.41 19.91.42 5.08-.12 1.48-.25 3.77-.41.37.27 7.6.29 3.85.46 8.69 0 11.1 0 22.08-.15-1.19-.12-2.53-.18-1.83-.27 2 0 4.53.14 4.24.27h-.52c12.33-.35 28.45 1 38.27.44h-.55l10.19-.24c4.68.07-2.82.19.65.38 11-.4 17.35.16 26.4-.1 7 .85 24.84.08 34.29.65l-.54-.2a30.6 30.6 0 014.75.18c-.26-.15-2.65-.19-1.13-.28 20.69-.12 42.7.5 63.91.79 7.76.09 4.41-1 14.19-.46l-2.78.34c15.66-.35 32 .18 47.34-.11a14.49 14.49 0 01-2.43.18c1.61.14 4.61.15 7.2.11a32.1 32.1 0 004.82-.16c2.39 0 .56.2 2 .31 3.24.17 8.15-.29 9.87 0a7.29 7.29 0 01-1.5.09c2.11-.11 9.85.08 7.83-.22 5.75.17 11-.08 15.59.12 3-.32 9.85.21 10.8-.26-.41.48 10.08.44 13.72.23-1.22.14 3.16.17 1.74.37 4.15 0 8-.06 7.23-.32 7.64.62 15.37-.39 19.67.38 12.34-.2 23.75-.32 34.84-.38-.4.48-12.26 0-11.79.5 10.52-.15 16.6-.54 27-.37 2.7.08-1.54.2-2.45.28 10.51-.15 20.33.14 29.68-.08a17.44 17.44 0 01-2 .12c1.85 0 4.29.09 4.08-.13l-1.79.05c-2.95-.33 7.32-.63 7.65-.8-3.13.62 9.24.2 4.26 1 1.22 0 2.74-.14 2.46-.28 1.8 0 2.37.14.55.3 6.6-.09 4.26-.34 10.24-.31a14.33 14.33 0 01-1.85.27 109.92 109.92 0 0111.13-.27c-.31.06.28.14-1.23.14 8.69 0 14.8-.49 24.33-.25-2.81.45 3.24.17 3.74.57l5.12-.09-2-.21c4.48 0 8.45-.25 12.31-.1l-3.34.15h8.41l-4.76-.17c4.54-.19-.48-.51 5.49-.37-1.21 0 4.49 0 6.82.27 2.22-.12 4.5-.24 7.82-.13.86.14-.69.44-.13.53 2.19-.32 10.5 0 13.28-.39-.93.08-1 .29-.67.33l1.84-.26c2.08.1 2.38.14 2 .31 6.25.07-2-.52 5.44-.27-.59 0-.31.06-1.52.1 7.45.15 14.4-.11 21.24 0 2 .41-6 .08-3.67.43 9.88 0 20.45-.41 30-.27h-1.78c1.33-.57 7.12.31 12 .06-1.18 0-1.55.31-1.23.24 6.54.12 13.37-.08 23.29-.22l-1.23.14c3.86.15 10.15.12 14.32.2 1.24-.14 3.62-.11 2.17-.33 12.84.89 24.5-.36 35.89.38-1.36 0-3.24.11-2.16.12l9.71-.1a17.42 17.42 0 00-3.31-.36c1.23-.14 4-.25 6.37-.24-4.36.15 0 .4 1.92.54-.31-.07.33-.15.17-.23 5.07.46.85-.5 7.78-.18l-.37.13c2.59-.06 5-.22 7.77-.17 1.16.29-2.76.12-2.94.36 3.93 0 7.75-.52 11.3-.22l-5.73.14c3.87.35 4.32.26 7.19.33h-.28l6.64.17-1.69-.09c4.91-.74 10-.12 16.61-.59-6.43.45-1.06.26-1.55.59 1.69.09 4.25.2 3.52.29 3.13-.25 5.22.22 9.63-.15.2.1 3.35 0 2.64.28 4.07-.08-1-.19-.62-.32 6.27-.34 14.73.47 23.75 0 7.77-.18 9.21-.55 16.42-.71 2.43.16-2 .38-2 .38 3.93.15 6.89.13 10.59 0-.75.09 0 .17 1.15.28 3 0 2-.38 5.9-.22a26.83 26.83 0 01-3 .42l10.58-.38c1 .18-2.18.27-3.46.39 4.07-.08 10.55-.15 11.81-.46L1375 7.2c1.49 0 .77.25-.33.3-3.49.22-5-.1-5.23-.21l2.58-.07c-2.65-.61-10.36.1-15.55.06l2.16-.45-5.33.37c-1.13-.11-1.9-.36.66-.43-3.72-.22-3.3.16-6.49-.09-.36 0-.2-.06.13-.08l-3.64.14c.71-.1-.6-.32 1.63-.25-6.53-.27-10.53.33-13 0h.55c-9.06.13-.88.32-7.67.69l-4.58-.82-.89.33c-.93 0-2.78-.05-2.44-.18-3.48.22.59.15-1.43.36-4.49-.31-12.4.11-13.41-.42-1.62.25 4.3.2-.5.36-1.37-.56-5.56.09-9.67-.18 1.27-.29 5.16-.12 1-.39-2.48.48-8-.13-11.47 0-.17.39-7.54.14-13.36.25.37-.13-10.94-.25-16.35-.41l.16-.07c-1 .39-6.63.3-10.7.37.16-.24.89-.33 3.1-.42h-3.83a38.52 38.52 0 01-4.57.23l1-.3c-5.08 0-10.24.32-16.78.1-.37.27 5.2.78-1.72.94-.26-.15-.51-.4 1.3-.46-.59 0-2.11.12-3.31 0l2.77-.24c-3-.12-1.56.2-4 .17.05-.21-1.76-.16-1.42-.32.61 0 2.08.09 3 0-2.68 0-5.93-.18-7-.35.23.13 0 .29-2 .31-5.09 0-1.74-.26-4.71-.38-1.23.14-4.47 0-4.56.3a9.66 9.66 0 01-2.34-.25c-2.63.13-12.29 0-9.32.34h.67-.43c-8.63.28-17.92-.25-26.48-.15v-.11c-5.11.1-11.37 0-15 .24-1.51 0-3.56-.21-2.92-.33-3.9.06-4.34.18-10 0 3.93-.17-1.36-.17 4-.12-5.07-.11-6.22-.28-11.67 0 1.85-.26-3.82-.35-6.23-.28l3.55.21h-7.49l1.3-.35c-10.38-.48-18.73.66-26.63-.11-2.75.24 5.64.2 3.18.48-4.78-.07-9.75-.6-11.25-.61-6.54-.23-6.11.5-13 .33.87.13 1.7.48-3.42.57-4.78-.06-5.87-.56-2.86-.64a6.39 6.39 0 011.65.07c1.55 0 3.58-.08 1.68-.23l-.62.13c-2.37-.14-9-.16-7.4-.36-3.61.1-1.55.2 1.13.28-6.13-.21-9.58 0-15.89-.2 1 .07 1.93.23.93.22-9.26-.2-4.08.23-10.35.25-3.56-.2 1.28-.45-5-.32-3.85-.15-.81-.34.72-.44-5.75.22-10.75-.21-14-.27l3-.09c-1.81.05-3.3.05-4.81 0l1.73.26a18.84 18.84 0 01-3.25-.17c-1.84.16 1.4.44-2.24.65-2.37-.14-7.22.1-8-.24 7.46.15-.82-.34 5.49-.37h-4.49c-.27 0 .25-.07.74-.08-7.14-.34-3.28.36-10.68.32.94-.18-1.71-.37-2.92-.33 3 0 1.42.32-1.31.46-4.74-.18-5.16.08-7.64 0l2.83.09a66.07 66.07 0 01-6.64.19c-.28-.15 3-.09 1.83-.16-3.68.32-8.3-.39-13.42-.18-2.37-.14-.23-.36-2.31-.46-5.74.22-6.21-.29-12.24-.12 1.73.27 2 .21-2.21.44l9.92-.14-6.37.35c3 0 6.32-.13 8.11-.08-3 .19-2.72.13-1.29.35-4.09-.4-8.12.19-12.85-.1l.15-.63c-7.12-.32-12.65.27-21.89.06l3 .13c-1.24.24-5.7 0-8.69.09.28-.21-1.59-.29-2.87-.43.15.15-6.76 0-7.6.37l-4.13-.3c-7.46-.15-8.51.56-15.69.45 2.17-.22-1.09-.38 3.71-.52a28.31 28.31 0 00-4.58.08c-1.4-.14-6.64.25-8.84 0a21 21 0 01-4 .28c-.3 0 0-.11 0-.11s-4.21.12-1.86.37c-7.38-.7-20.62 0-27-.65l-16.3.09c.3-.06 0-.11.91-.08-6.54-.23-4 .59-11.47.33-3.8-.36 3.95-.16 1.58-.31-1-.7-9 0-14-.38h1.21c-3.83-.26-9.35.21-15.6.13 0 0 .3-.06 0-.1-4.28.33-12.38.4-18.4.47 1.87-.26 2.73-.13 1.59-.41-2.7 0 .79.45-4.6.5-1.75-.16-5.63-.31-6.15-.61h5.08c-2.6-.4-6.57 0-9.25-.1l.34-.17c-7.78 0-7.89.44-16.26.37l.86.13c-4.57.39-3.83-.26-8.4 0l-1.37-.43c-3 .09-10.58.35-16 .41 3.07-.3 9.4-.43 13.32-.6-3 0-10.17 0-11.73.18 1.21 0 2.73-.13 3.92-.06-3.67.32-8.5.46-14.46.42 1.06-.82-15.54-.29-19.86-1-10.55.25-20.92-.24-33.2-.25 4.35.66-3.59 0-2.84.66h-4.21l-8.67-.44c-2-.2 2.72-.13 2.46-.27-6.26-.09-2.63-.3-6.77-.49.85.24-2.18.32-5.75.21l5 .33c-8.76.31-7.57-.59-16.4-.29l2.8-.19c-4.53.1-16.71-.1-21.15.41-.8-.08-1.86-.27.13-.31-10.82-.14-24.09.43-32.5.06l.82-.15a55.7 55.7 0 01-6.05.1c.13-.06.82-.15-.12-.17s-5.36.26-8 .15l2.29-.17c-10.56-.27-16.21.35-25.06.41 0-.47-8.28-.67-12.43-.77l.15-.07c-12.29-.13-20.88.28-32.27.4-7.06-.56-23.94-.35-35.29-.71 1.73.1-.29.37-2.31.41-2.66-.12-7.37.28-6.94-.15h1c-2-.43-7.48-.35-11.76-.39l-.71.57c-11.18-.9-29.31.13-35.41-.65-2.7.13-6.05.11-8.72.23l.14-.3C382 .94 378.31.88 369.06.9L371 .69c-5.21 0-6.59.84-11.4.82l-1.44-.46C349 1 339.8.55 330.81.9a4.74 4.74 0 011.89-.2c-4.28 0-16.56-.41-15 .22-.11-.4-9.39-.09-14.3 0l.76-.29a89.33 89.33 0 01-10.07.52c-1.37-.05-1.2-.25.62-.16-4.57-.18-3.57.26-9.11.07l2.07-.18a44.93 44.93 0 00-6.93.26 64.17 64.17 0 01-9.61-.41 31.72 31.72 0 01-6 .26c-.37-.11.64-.16 1.14-.19-7.86-.27-11.7.26-17.1-.08a2 2 0 00-.91-.19c6.24.06 11.28.12 10.81.13 0-.27-5-.36-1-.71-4.06.18-11 .56-15.91.42-.24 0-.48-.06-.66-.1h.51-3.11c-1.57 0-2.57-.08-4.08-.08-.61-.19-5.82-.06-8.34-.06.21.3-3.08.26 0 .5a12.84 12.84 0 012.15-.06h1.08-.17 6.26a45.34 45.34 0 01-6.86.12c-1.29.2-2.71.4-3.51.5-3.45-.41-10.09-.63-11-.88-7.69.19-18.11.17-22.95.76a12.69 12.69 0 01-3.34-.27c1.27-.06 2.77-.06 3.45-.14-4.37.16-13 .11-14 .51-5.51-.15 3.09-.38-4.47-.28l1-.12c-14.9-.57-24.2 1.13-40.71.4a16.08 16.08 0 011.95.13c-18.83-.25-38.78.56-57.36.12a68.82 68.82 0 00-9 .39l-1.14-.32-5.51.42c-7.81.33-13.53-.7-23.41-.1l1.23.19c-3.55 0-11.24.22-10.65 0a10.42 10.42 0 01-2.52.12L26.86 2l-8.73.38c-6.76-.05 1.06-.69-8.82-.61-1.84.07-4.43.22-6.43.39s-3.37.38-2.67.41a16.88 16.88 0 013.94.16C3 2.72 1.91 2.8.79 2.86c-.28.25-1 .56-.71.77a4.45 4.45 0 001.49.28c.88.08 2.22.13 4.3.2l5.73-.39 1.85.22L8.62 4A36.57 36.57 0 0015 3.83a11.93 11.93 0 002.4.24l5.63-.54c.69.19-2.52.41 1.26.49 2.64-.25-2.53-.42 1.83-.6a20.49 20.49 0 005.17.17c.46.13-.23.21-1.5.28 2.86-.18 7.59-.13 9.07-.41 2.86.26 9.68-.15 9.4.33.9-.12 5.05-.41 7.68-.45-4.81.6 9.86 0 8.6.58 3.56-.54 12.86-.32 19.17-.64a10.33 10.33 0 01-1.6.1c3.55 0 4.58.17 6.87.25.45-.42 6-.56 9-.83 4.35.38-2.64.51-1.27.89-.22-.34 7.56-.39 6.08-.66a24.92 24.92 0 014.58.44c.58-.53 3.1-.11 5.86-.45 4.82.23 1.24.49 6.54.3 2.51.14-2.19.36-2.19.36"/><path class="cls-3" d="M228.63.57h-.69l1 .06.6-.09h-.91M1187.53 6h-.23.47-.24"/></g><path class="cls-3" d="M399.14 3.85l.94.02-.02-.08-.92.06z"/><g class="cls-2"><path class="cls-3" d="M1245.78 7.25a4.09 4.09 0 00.77.08s-.37 0-.77-.08m25.22.16l3.56.12-3.56-.12m19.3.2a1.08 1.08 0 00.38-.13zm-216.1-1.17l-2.94.13a9.06 9.06 0 002.94-.13m-193.79.16zM1067 6.55c1.63.06 3 .06 4.26 0-1.34 0-2.91-.06-4.26 0m307.17 1.32h1.04zm1.04-.04h1a8.53 8.53 0 00-1 0m3.21-.12l-2.18.09a17.3 17.3 0 002.18-.09m-29.87.01l-.29.11c.16 0 .26-.06.29-.11m-7.79.03c1.86 0 4.66.23 7.25.16l.25-.08c-1.22.16-5.73-.27-7.5-.08m-32.48-1.42l6.52.1c-1.14-.12-2.64-.28.33-.3-8.23-.37 1.69.26-6.85.2m-20.23-.22c3.51-.05 0-.17.15-.24-2.23.1-2.76.13-.15.24m-146.16-.52l.36-.28c-2.7 0 0 .11-.36.28"/></g><path class="cls-3" d="M1113.95 6.89l2.63.19 1.25-.25-3.88.06zm-19.82-1.98l3.32-.05 1.18-.03-4.5.08z"/><g class="cls-2"><path class="cls-3" d="M852 3.81l.82.34c1.82-.05 2.21-.43-.82-.34m-106-.2a34.22 34.22 0 00-6-.14c2.38 0 4.75.18 6 .14"/></g><path class="cls-3" d="M426.31 1.29l1.89.03 2.13-.1-4.02.07z"/><g class="cls-2"><path class="cls-3" d="M1944.49 7.82c.26-.09.12-.3-.61-.26l-.51.35zm-4.86-.7c-.85.17-1.83.46-1.28.79.84-.33 1-.19 2-.59.73 0 1.26.13 1.14.26.26-.09 1.12.09 1.52-.13a7.43 7.43 0 00-3.38-.09c-.27-.08 0-.17.05-.24M1869 6h.46a2.92 2.92 0 00-.46 0m-43.81-.58c.33 0 .47 0 .49-.07-.31 0-.56 0-.49.07m-7.47-.42h.44a1 1 0 00-.44 0M1869 6l-1.17-.12c-.08.11.6.09 1.17.12m60.88 1.9a3.65 3.65 0 00.64-.09h-.6v.06m-41.64-2.02h.35a2.75 2.75 0 00.3-.14zm14.81.07c-.34 0-.46.28-.58.42a1.5 1.5 0 01.73-.21s0-.12-.15-.21m23.48.73h.42-.42m-48.9-.95a.21.21 0 00-.13-.11s0 .07.13.11m-413.11 2.14s0 .1 0 0m-8.71 13.62l.07-.23a.67.67 0 00-.14-.11zm222.59-17.73c1.42.28-2.31.33-.17.65-.2-.12 2-.46.17-.65m-.17.65h.22-.22m94.25.02a1 1 0 00.32.14s-.09-.07-.32-.14M1796 5h-.59.59m-35.68-.27a3.76 3.76 0 00-.85 0h.13a1.79 1.79 0 01.72 0m-12.69-.1l.23.07h.4zm-245.7.69a2.05 2.05 0 01-.59-.27c.2.21-1.66.29.59.27"/><path class="cls-3" d="M1929.88 7.73a.59.59 0 01-.38.13h.42v-.11m-170.14-.64l-2-.06c.56 0 1.29 0 2 .06M1593 5.65h-.46a1.61 1.61 0 00.46 0m158.79 1.4a6.05 6.05 0 00-1.14-.22.69.69 0 00-.23.08z"/></g><g class="cls-2"><path class="cls-3" d="M1528.73 2.81c.6 0 .8 0 .88.09h-1.07a.52.52 0 01.23-.16m8 2.13h-1.63c-.14-.11 0-.22.39-.21-.21.07.68.14 1.24.23m-3.77 0l-1 .11h.93m-44.87.84c1.92 0 .9-.39 1.31-.62 2.29-.11 1.06.3 1.84.5 1.43-.1 2.53-.47 3.6-.45.08.06.29.09 0 .17 1.52-.32 4.5 0 6.26-.41a.49.49 0 01.23.1c-.29-.2-.33-.41-.27-.55.86 0 1.6-.25 1.92 0a1.54 1.54 0 00-.82.18l.9-.11c.82.37-1.23.12-1.23.4a43.51 43.51 0 015.16-.32c.28.36-3.15.12-1.35.44l-2.05-.17c1.59.58-1.27 0 .2.58 2.74.11 3.07-.19 5.81-.08.61-.2-.21-.3.41-.5 3.89-.35 3.06.93 5.93.45A4.49 4.49 0 011519 5l-.69.41c2.66 0 1.52-.59 4.3-.3-.5.16-2.09.13-1.69.18 1.8.33 1.28-.23 2.66-.23l.29.37c2.83 0 6-.31 9.08-.36-.17.1-.71.22 0 .33a121.12 121.12 0 0112.25.32l1.46-.31c.33 0 .62.14.26.2 1.48.13.07-.2.79-.32s1.12.19.58.28a57.08 57.08 0 0110.23-.19l-.54.09c2.16.14 2.44-.64 4.43-.33l-.38.05c4.67.16 9.83-.1 13.39.4.68-.45 4.62.23 4.92-.41a47 47 0 005.66.67c1 0 1.5-.38 2.74-.44v.33l1.68-.34.89.4 1.17-.08c-.47 0-1-.15-.92-.25a13.06 13.06 0 014.48.43l4.3-.26a4.35 4.35 0 01-1.39.26c2.3-.32.41.35 2.52 0-.28-.07.15-.19.2-.26a28.79 28.79 0 005.2.15l-.34.23c3.19.08 6.72-.07 10.3 0-1.28-.12-1-.51.06-.54l.42.35c.68-.21-1.1-.14.3-.39 1.33 0 .89.4.13.51l1.62-.11c.1.1-.29.15-.39.29.67-.22 2.81.37 3.77 0l.09.11c3.58 0 5.2-.09 8.12-.08 0-.31 1.19-.23 2.06-.47 2.14.11 4.52.36 7.1.36 1.81-.14.53-.26 1.35-.43.13.28 2.7.27 1.37.46 3.09 0 4 0 7.87-.23-.42-.11-.9-.17-.65-.26.71 0 1.61.13 1.51.26h-.19c4.4-.39 10.14.87 13.65.32h-.2l3.63-.28c1.67.06-1 .2.23.38 3.92-.43 6.19.11 9.41-.17 2.49.83 8.86 0 12.23.55l-.2-.19c.88-.19 1.06.11 1.7.16-.09-.15-.95-.18-.4-.28 7.37-.17 15.22.39 22.78.62 2.76.07 1.58-1 5.06-.49l-1 .34c5.58-.38 11.41.11 16.88-.21a2.19 2.19 0 01-.87.18 11.62 11.62 0 004.29-.17c.85 0 .19.19.71.3 1.16.16 2.91-.3 3.53 0 .1 0-.33.08-.54.1.75-.12 3.51.06 2.79-.25 2.05.16 3.93-.1 5.56.09 1.07-.32 3.51.19 3.85-.28-.15.48 3.59.42 4.89.2-.43.15 1.13.16.62.36 1.48 0 2.84-.07 2.58-.32 2.72.6 5.48-.43 7 .33 4.4-.23 8.47-.37 12.42-.46-.14.49-4.37 0-4.2.53 3.75-.17 5.92-.57 9.64-.42 1 .07-.55.2-.88.28 3.75-.17 7.25.1 10.58-.13a2.3 2.3 0 01-.71.12c.66 0 1.53.09 1.46-.14l-.64.06c-1-.33 2.61-.65 2.73-.82-1.12.63 3.3.19 1.52 1 .43 0 1-.14.88-.28.64 0 .84.13.19.29 2.35-.1 1.52-.34 3.65-.31 0 .1-.44.14-.66.26a14.42 14.42 0 014-.29c-.11.06.1.15-.44.14 3.1 0 5.28-.51 8.68-.28-1 .45 1.15.16 1.33.56l1.82-.1-.73-.2c1.6 0 3-.26 4.39-.12l-1.19.16 3-.06-1.7-.16c1.62-.2-.17-.51 2-.38-.43 0 1.6 0 2.43.26a10.38 10.38 0 012.79-.14c.3.13-.25.44-.05.53.78-.33 3.74-.06 4.73-.41-.32.08-.34.29-.24.33l.66-.26c.74.09.85.13.73.3 2.23.07-.71-.51 1.94-.27a4.49 4.49 0 01-.54.1c2.65.13 5.13-.14 7.57 0 .72.41-2.13.08-1.31.43 3.52-.05 7.29-.43 10.7-.3h-.64c.48-.57 2.54.3 4.26 0-.42 0-.56.31-.44.24 2.33.12 4.77-.1 8.3-.25l-.43.15c1.37.14 3.62.1 5.1.18.44-.14 1.29-.11.78-.33 4.57.87 8.73-.37 12.79.36-.49 0-1.16.12-.77.12l3.46-.11c-.27-.25-.45-.15-1.18-.35a9 9 0 012.28-.24c-1.56.15 0 .4.68.54-.12-.08.12-.16.06-.24 1.8.46.31-.49 2.77-.18L1893 7a24.67 24.67 0 012.77-.17c.41.29-1 .12-1 .36 1.4 0 2.77-.52 4-.23-.59.08-1.45.07-2 .15a9 9 0 002.56.32h-.1l2.36.17-.6-.1c1.76-.73 3.57-.11 5.93-.58-2.3.45-.38.27-.56.59.6.1 1.52.21 1.26.3 1.11-.26 1.85.22 3.43-.15.07.1 1.19 0 .94.28 1.45-.07-.34-.19-.22-.32 2.24-.34 5.25.48 8.46 0 2.78-.18 3.29-.53 5.87-.68.86.17-.72.37-.72.37a17 17 0 003.77 0c-.26.09 0 .17.41.29 1.06 0 .71-.38 2.11-.21a4.32 4.32 0 01-1.06.41c1.25-.08 2.48-.27 3.77-.35.34.18-.78.27-1.24.38 1.46-.07 3.77-.13 4.22-.42l-.93-.11c.52 0 .27.25-.12.3-1.25.22-1.8-.11-1.87-.22l.92-.06c-.94-.62-3.69.07-5.54 0l.77-.44-1.9.35c-.4-.12-.68-.37.24-.43-1.33-.23-1.18.15-2.32-.11-.12 0-.07-.06 0-.07l-1.3.12c.26-.09-.21-.32.59-.25-2.33-.27-3.76.31-4.63 0h.19c-3.23.12-.31.32-2.74.69l-1.62-.83-.32.33c-.34 0-1-.05-.87-.18-1.25.22.21.15-.51.35-1.61-.31-4.43.11-4.79-.42-.57.25 1.54.21-.18.37-.48-.57-2 .07-3.44-.2.45-.28 1.84-.12.38-.39-.89.49-2.86-.13-4.09 0-.06.39-2.69.14-4.77.26.14-.13-3.9-.25-5.83-.41l.06-.06c-.37.39-2.36.3-3.81.37.06-.24.32-.33 1.1-.43h-1.36a5.1 5.1 0 01-1.63.23l.34-.3a49.8 49.8 0 01-6 .1c-.13.28 1.85.79-.62 1-.09-.15-.18-.41.47-.46a4.67 4.67 0 01-1.18 0l1-.24c-1.06-.12-.55.2-1.4.17 0-.21-.63-.16-.51-.32a6.23 6.23 0 001.07 0 11.06 11.06 0 01-2.5-.34c.09.12 0 .28-.7.3-1.81 0-.62-.26-1.68-.38-.44.15-1.59 0-1.62.3a1.41 1.41 0 01-.84-.24c-.94.13-4.38 0-3.32.35h.24-.16c-3.08.29-6.38-.24-9.44-.13v-.1c-1.82.1-4.06 0-5.36.25-.54 0-1.27-.2-1-.32a16.77 16.77 0 01-3.56 0c1.4-.17-.48-.17 1.44-.12a15.23 15.23 0 00-4.16 0c.66-.27-1.36-.35-2.22-.28l1.26.21h-2.67l.47-.36c-3.7-.46-6.68.69-9.5-.06-1 .24 2 .19 1.13.47-1.7-.06-3.47-.59-4-.59-2.33-.22-2.18.5-4.62.35.31.13.6.47-1.22.58-1.71-.07-2.1-.56-1-.65.41 0 .61 0 .59.08.55 0 1.27-.09.6-.24l-.22.13c-.85-.14-3.19-.14-2.64-.35-1.29.11-.55.21.4.28-2.18-.2-3.41 0-5.66-.18.35.08.68.23.33.23-3.3-.19-1.46.23-3.7.26-1.26-.2.46-.46-1.79-.31-1.37-.14-.29-.34.26-.44a24.69 24.69 0 01-5-.25l1.08-.09a17 17 0 01-1.71 0l.61.26c-.63-.05-1.17-.05-1.16-.16-.65.16.5.43-.8.65-.84-.14-2.58.12-2.87-.22 2.66.13-.29-.35 2-.38a10.92 10.92 0 01-1.6 0c-.1 0 .09-.07.26-.09-2.54-.32-1.17.37-3.81.34.34-.18-.61-.36-1-.33 1.06 0 .51.33-.47.47A13.77 13.77 0 001796 5l1 .07a8.33 8.33 0 01-2.37.21c-.1-.15 1.07-.09.65-.16-1.31.32-3-.37-4.78-.16-.85-.14-.08-.36-.82-.45-2 .23-2.22-.28-4.37-.1.62.27.73.2-.79.44l3.54-.15-2.27.35c1.06 0 2.25-.14 2.89-.09-1.09.2-1 .14-.47.35-1.45-.39-2.89.21-4.58-.07l.06-.63c-2.53-.31-4.51.29-7.8.1l1.06.12c-.45.25-2 0-3.1.11.1-.21-.57-.29-1-.42.05.15-2.41 0-2.72.38l-1.47-.29c-2.65-.13-3 .58-5.59.49.77-.22-.39-.38 1.32-.54-.85 0-1.62 0-1.63.1-.5-.14-2.37.27-3.15.06a2.91 2.91 0 01-1.44.28c-.11 0 0-.1 0-.1s-1.5.13-.66.37c-2.63-.68-7.35 0-9.64-.59-1.86 0-4.11.1-5.8.11.11-.07 0-.11.33-.08-2.33-.22-1.44.59-4.09.35-1.36-.35 1.41-.17.56-.31-.36-.7-3.2.07-5-.35h.44c-1.37-.24-3.34.24-5.57.18 0 0 .11-.06 0-.11a45.37 45.37 0 01-6.57.52c.67-.26 1-.13.57-.41-1 0 .28.44-1.64.51-.62-.16-2-.3-2.19-.6h1.81c-.92-.39-2.34 0-3.3-.08l.13-.16c-2.78 0-2.82.45-5.8.4l.3.13c-1.63.4-1.36-.25-3 0l-.49-.43c-1.08.1-3.77.39-5.7.45a47.85 47.85 0 014.75-.63 24.66 24.66 0 00-4.18.21 6.57 6.57 0 011.4-.06 21.71 21.71 0 01-5.16.45c.38-.82-5.54-.25-7.08-.9-3.76.28-7.45-.18-11.84-.17 1.55.65-1.27 0-1 .67a6.39 6.39 0 01-1.5 0l-3.07-.37c-.73-.19 1-.13.88-.28-2.23-.07-.94-.29-2.41-.47.3.24-.78.33-2.05.23l1.79.32c-3.13.32-2.7-.58-5.85-.25l1-.2c-1.62.11-6-.05-7.54.47-.29-.08-.66-.26 0-.3-3.86-.11-8.6.5-11.59.16l.29-.16a7.05 7.05 0 01-2.15.12c0-.06.29-.16 0-.17a13.87 13.87 0 01-2.86.17l.81-.17c-3.76-.24-5.78.4-8.93.49 0-.48-3-.65-4.43-.74v-.06c-4.38-.09-7.45.34-11.51.5-2.51-.53-8.53-.27-12.58-.58.62.09-.1.37-.82.41-1-.1-2.63.31-2.47-.12h.33c-.71-.43-2.66-.33-4.19-.35l-.25.56c-4-.85-10.45.25-12.63-.5-1 .13-2.15.12-3.11.26L1585 3c-2.67-.1-4-.14-7.3-.09l.68-.21c-1.86 0-2.36.86-4.07.87l-.51-.46c-3.25 0-6.53-.42-9.74 0 .06-.06.15-.2.68-.21-1.53 0-5.91-.34-5.35.29 0-.41-3.35-.06-5.1.12l.27-.3a11.91 11.91 0 01-3.59.57c-.49 0-.43-.24.22-.16-1.63-.16-1.27.28-3.25.11l.74-.19a5.85 5.85 0 00-2.47.3 8.22 8.22 0 01-3.43-.37 4.19 4.19 0 01-2.13.3c-.14-.1.22-.16.4-.19-2.8-.22-4.17.33-6.1 0 0-.1-.16-.15-.32-.18 2.23 0 4 0 3.85.07 0-.28-1.79-.34-.36-.71a30.41 30.41 0 01-5.67.51 1.33 1.33 0 01-.24-.1h.19a5.68 5.68 0 00-1.11 0c-.56 0-.92-.08-1.46-.09-.2-.23-2.06-.13-3-.14.08.3-1.1.25 0 .5h1.15-.06 2.23a6 6 0 01-2.44.11c-.46.19-1 .39-1.26.48-1.22-.42-3.59-.66-3.92-.92-2.74.16-6.46.09-8.18.66a1.81 1.81 0 01-1.19-.26 10 10 0 001.23-.12c-1.56.14-4.62 0-5 .43-2-.18 1.11-.36-1.59-.3l.36-.12c-5.31-.63-8.63 1-14.51.2a1.79 1.79 0 01.69.14c-6.71-.38-13.82.36-20.46-.15a7.23 7.23 0 00-3.27.58l-.45-.26a12.55 12.55 0 00-1.91.73c-.68.25-1.33.36-2 .57a15.51 15.51 0 00-1.91.59l-1 .41a7.2 7.2 0 00-1 .6 6.74 6.74 0 00-1.77 1.83c.14-.08.33-.13.49-.2-1 .91-2.27 3.45-2.33 3.17a1.38 1.38 0 01-.31.89h-.17c-.34 1-.62 2-.86 3-.85 2.27-.54-.56-1.62 2.79-.31 1.26-.71 3.63-.45 3.22s.55-1.22.73-1.2l-.32 1.15c.39.37.56 1.47 1.88-1.27l.34-2.06.42-.56-.49 1.65a4.68 4.68 0 00.57-2.21 1.82 1.82 0 00.51-.73c.06-.66.11-1.34.2-2 .27-.14.05.93.63-.22.13-.92-.74.65-.31-.81.62-.75.64-.42 1-1.46.2-.06.13.15 0 .56a11.3 11.3 0 01.73-1.49 3.75 3.75 0 00.64-1.17c.43-.23.93-.84 1.46-1.22s1-.69 1.06-.45a6.34 6.34 0 012.07-1.44c-.63.55.12.25 1-.05s2-.48 1.88-.13a7.34 7.34 0 012.81-.68l1.87-.14c.63 0 1.27-.07 1.83-.14a1.57 1.57 0 01-.57.1 18.28 18.28 0 012.45.27c.16-.42 2.13-.52 3.19-.79 1.55.4-.94.5-.45.89-.08-.34 2.69-.36 2.16-.64 1.19.25 1 .12 1.64.46.2-.52 1.1-.09 2.08-.42 1.72.25.45.49 2.33.32.9.16-.78.35-.78.35"/><path class="cls-3" d="M1527.66 3.21h-.25l.36.07.21-.1h-.32M1869.51 6h-.08l.16.05h-.08"/></g><path class="cls-3" d="M1588.43 5.76l.34.02V5.7l-.34.06z"/><g class="cls-2"><path class="cls-3" d="M1890.27 7.24a.56.56 0 00.27.08.86.86 0 00-.27-.08m8.97.14l1.27.12c-.55-.06-1-.1-1.27-.12m6.9.21a.31.31 0 00.13-.13zM1796.46 7h-.27c-.63.06-.2 0 .27 0m32.64-.4c-.35.05-.69.1-1 .13.58 0 1 0 1-.13m-69.1.52zm66.53-.4a8.71 8.71 0 001.52 0 11 11 0 00-1.52 0M1936 8h.33zm.4 0h.37a.87.87 0 00-.37 0m1.15-.16l-.78.07a1.91 1.91 0 00.78-.07m-10.65-.08l-.1.11a.16.16 0 00.1-.11m-2.77.01a20.26 20.26 0 002.58.19l.09-.09c-.44.16-2-.28-2.67-.1m-11.58-1.45l2.33.11c-.41-.12-.94-.28.12-.3-2.93-.38.6.26-2.45.19m-7.2-.23c1.25 0 0-.17.05-.23-.79.1-1 .12-.05.23m-52.11-.44l.13-.27c-1 0 0 .11-.13.27"/></g><path class="cls-3" d="M1843.27 6.99l.93.18.45-.25-1.38.07zm-7.06-1.95l1.19-.05.42-.04-1.61.09z"/><g class="cls-2"><path class="cls-3" d="M1749.89 4.38l.29.35c.65-.06.79-.44-.29-.35m-37.78.06a4.45 4.45 0 00-2.13-.13c.85 0 1.69.17 2.13.13"/></g><path class="cls-3" d="M1598.13 3.09l.68.03.76-.11-1.44.08z"/><g class="cls-2"><path class="cls-3" d="M1505.64 81.55c.08.1 0 .28-.3.21l-.2-.34zm-1.95.7c-.34-.09-.8-.26-.66-.61.41.23.46.07.88.38.29 0 .48-.17.42-.29.11.07.46-.1.62.1a1.61 1.61 0 01-1.32.21c-.09.09 0 .16.06.21m-16.18-11.83l.11.13a.47.47 0 01-.11-.13m-9-17.18l.1.15a.22.22 0 01-.1-.15m9 17.18l-.29-.35c.08-.08.17.17.29.35m12.38 12.41a.58.58 0 01.26 0l-.23.07zm-9.36-5.77l.06.12a.56.56 0 01-.07.16zm2.47 5.02c-.07-.11.16-.27.25-.37a.39.39 0 000 .33.35.35 0 01-.2 0m6.25 2.39h.16-.16m-10.62-10.92h-.11a.11.11 0 01.11 0m11.99 3.29s0 .06 0 0m4.33 5.07v-.09a.94.94 0 01.12-.09zm-29-33.15c0 .13 0 .06 0 0m-11.22-43.87c-.29.21 0 .21.22.24s.41.1 0 .32c.08-.14-1-.18-.21-.56m34.98 78.08l-.21.11a.86.86 0 01.21-.11M1465 5.41h-.08.08m6.16 32.39a.31.31 0 01.16.06s-.07 0-.16-.06m4.05 7.92l-.13-.18a1.29 1.29 0 01.13.18m-5.56-12.3a.73.73 0 01-.15-.28.09.09 0 01.06 0 .26.26 0 00.09.25m-1.9-4.39l.08.06c.08.06 0 .1.05.14zm26.33 34.78a.72.72 0 00.33.08c-.22 0 0 .69-.33-.08M1500 83a.17.17 0 00-.18 0l.15-.06v.1m-28.36-50.69l-.34-.68c.11.19.23.44.34.68m7.69.32v.17a.28.28 0 010-.17m-8.89-3.08a1.08 1.08 0 01-.35-.32.26.26 0 010-.11z"/></g><g class="cls-2"><path class="cls-3" d="M1491.72 53.65c-.06-.22-.15-.26-.21-.27s.09.22.14.37a.34.34 0 00.09-.14m-3.06-1.86c.08.15.18.34.27.55.11 0 .18-.09.11-.22 0 .1-.22-.18-.38-.33m.61 1.28a2.69 2.69 0 00.14.32l-.14-.33m6.83 15.58c-.34-.65.16-.47.28-.71-.3-.82-.42-.23-.73-.41-.16-.53 0-1-.24-1.4-.07 0-.12-.06-.15.05 0-.64-.76-1.52-.73-2.28a.15.15 0 00-.12 0 .8.8 0 00.5-.14c-.14-.3-.07-.65-.34-.65.1.18 0 .24 0 .35v-.35c-.45-.12.1.47-.13.59a6.92 6.92 0 00-.61-1.88c-.35.05.44 1.11-.14.64l.47.65c-.75-.3.25.41-.51.17-.55-.88-.37-1.11-.92-2 .06-.29.28 0 .35-.35-.36-1.46-1.29-.65-1.36-1.82.08-.35.41-.64-.13-1.23l-.23.4c-.48-.88.24-.76-.45-1.59-.06.24.23.77.12.65-.57-.48 0-.53-.25-1h-.35c-.43-1-.72-2.15-1.18-3.24-.06.1-.07.33-.29.13a19.4 19.4 0 00-2.23-4.08v-.62c-.06-.11-.22-.16-.21 0-.34-.46.15-.1.14-.4s-.33-.31-.32-.09a9.15 9.15 0 00-1.46-3.59v.22c-.45-.69.15-1.09-.41-1.65v.15c-.86-1.55-1.44-3.43-2.4-4.47.27-.41-.91-1.51-.42-1.86a8.34 8.34 0 01-1.43-1.7c-.18-.34.11-.67 0-1.12l-.29.12v-.72l-.48-.16-.11-.43c.09.15.28.28.35.22-.15-.68-.88-1.44-1-1.39l-.42-1.59c-.1.09 0 .35 0 .58-.07-.92-.36 0-.42-.85.1.06.14-.13.19-.17a4.67 4.67 0 01-.9-1.76l-.14.21c-.54-1.08-.94-2.37-1.48-3.61.28.41.58.16.45-.22h-.36c.08-.31.28.33.29-.25-.24-.44-.47-.16-.46.15l-.14-.61c-.1 0-.09.16-.19.24.08-.31-.72-.84-.55-1.31h-.1c-.55-1.23-.68-1.84-1.11-2.86.25-.13 0-.5.11-.9a16.54 16.54 0 01-1.33-2.35c-.14-.68.14-.28.17-.63-.25.06-.61-.85-.58-.31a21.54 21.54 0 01-.93-2.84c.16.11.28.25.32.13s-.34-.52-.44-.43v.07c-.3-1.68-2.18-3.25-2.2-4.67v.07a.29.29 0 010-.21v-.14c0-.06-.07-.15-.11-.23s-.1 0-.09.11a.21.21 0 01-.08.2s0-.06-.12-.11a.56.56 0 00-.2-.11 3.12 3.12 0 00-.39-.15 2.11 2.11 0 00-.72-.11 12.21 12.21 0 01-1.35 0c-.27.46-.77.61-1.31 1a2.59 2.59 0 00-1.17 1.55l-.11-.14c-.3.15-.1.35-.17.56-.11-.1 0-.36-.15-.25a2.43 2.43 0 00-.14.2c0 .08 0 0-.06.09l-.09.12a.88.88 0 000 .15l.14.35c.28.66.58 1.32.89 2l1.91 3.89c.43.95-.64.89.24 1.95l.17-.47c.41 2.11 1.65 4 2.11 6 0-.14.12-.18 0-.37.38.31.64 1.48.46 1.56.14.29.19 0 .36.14.3.35.14 1.13.45 1.25v-.22c0 .31.55 1.21.19 1.06.42.66.46 1.41.86 1.91-.13.5.66 1.16.31 1.45.39-.23.87 1.1.87 1.63.06-.2.3.33.4.08.22.52.34 1 .09 1 .92.72.45 2.07 1.31 2.31.45 1.62.93 3.09 1.46 4.49.39-.24-.64-1.52-.19-1.66a15.67 15.67 0 001.09 3.5c.2.3.09-.27.11-.41.41 1.36 1.18 2.46 1.48 3.71v-.3c.09.23.31.5.11.56v-.24c-.44-.24-.15 1.15-.28 1.26.36-.63.66 1.06 1 .14 0 .17 0 .39-.11.42.14.2.25.24.29 0 .27.85-.06.66.29 1.38.09 0 0-.21.12-.33a2.41 2.41 0 00.37 1.48c0-.06.14 0 0-.21.47 1.07.38 2 1.1 3.1.23-.52.32.34.68.24l.2.67-.28-.18c.27.55.25 1.15.59 1.56l-.06-.47.43 1-.41-.52c.09.64-.45.15 0 .83 0-.16.26.54.6.73a1.62 1.62 0 00.32 1c.16.06.33-.26.43-.23-.15.4.55 1.31.41 1.79 0-.14.19-.24.24-.22l-.12.34c.2.21.25.23.37.12.41.74-.54 0 .08.78v-.23c.53.86.7 1.82 1.22 2.59.46.08-.27-.76.15-.62a34.82 34.82 0 001.46 3.78l-.15-.2c-.39.4.66.75.72 1.44 0-.16.18-.32.14-.25a15.26 15.26 0 011.13 2.94v-.21c.34.41.67 1.19 1 1.67 0 .21.11.48-.15.4 1.47 1.2 1.1 3.13 2.37 4.21-.08-.16-.09-.44 0-.31l.47 1.22c-.25 0-.2-.09-.49-.25a1.67 1.67 0 00.17.88c-.13-.6.34-.17.57 0-.09 0-.12.11-.19.12.67.43-.36.31.3 1l.09-.1a3.73 3.73 0 00.3 1c.31 0 0-.39.13-.51.23.48 0 1.16.47 1.47 0-.24-.18-.52-.21-.76a1.66 1.66 0 01.69.74l.53.73-.18-.16c-.33.9.49 1.26.49 2.26 0-1 .15-.24.4-.44.17.17.41.43.45.3 0 .49.48.54.43 1.24 0 0 .11.09.17.16s.09 0 .19 0c0 .25-.17 0-.27.11a1 1 0 00.51.82.67.67 0 01.61-.29c.24-.06.69-.19 1-.23a5 5 0 001.1-.27c.21-.3-.41-.17-.41-.17a2.51 2.51 0 011.25-.71c-.13 0-.07-.14 0-.31.38-.16.4.19.83-.16a1.43 1.43 0 00-.54-.18c.47-.14 1-.17 1.48-.27.06-.21-.37-.12-.58-.16.55-.16 1.44-.4 1.69-.18l-.32.2c.2 0 0-.25-.13-.25-.53 0-.63.33-.61.44l.35-.07c-.13.65-1.34.44-2 .81l.45.24h-.8c-.09.17-.07.42.26.31-.33.42-.46.08-.72.49v.05l-.48.14c.13 0 .08.29.31.09-.63.64-1.35.46-1.48.92h.09c-.67.37-.7.3-.72.18s0-.26-.37-.23a10.63 10.63 0 01-.64 1.41v-.37c-.09 0-.2-.26-.23 0-.15-.76.1-.1.06-.62-.21-.11-.41-.58-.58-.92s-.32-.61-.57-.56c.11-.3.42.44.27-.21-.55.07-.26-.71-.72-1.1-.17.28.2.68-.27.29.26-.5-.57-.91-.71-1.37.32-.18-.32-1-.56-1.73-.09.1-.85-1.22-1.29-1.81.27-.29-.13-.93-.31-1.45-.19.12-.22.24-.18.55l-.23-.46a1 1 0 00-.08-.65l-.18.24a8.23 8.23 0 00-.89-2.08c.21-.16 1 .3.69-.61-.14 0-.37.11-.31.35a.83.83 0 00-.15-.42v.44c-.27-.32.08-.28-.09-.56-.17.1-.23-.14-.35 0s.2.21.19.36a1.89 1.89 0 00-.7-.71c.12 0 .24-.12.14-.37-.29-.62-.31-.1-.58-.42 0-.21-.28-.53 0-.68-.09-.17-.23-.15-.34-.18 0-.38-.7-1.5-.24-1.28l.06.07v-.06c-.25-1.17-1.22-2.08-1.62-3.17h-.09a10.42 10.42 0 01-.64-1.94c-.09-.18-.38-.35-.44-.22a2.59 2.59 0 00-.58-1.21c.08.55-.22-.1.13.54-.38-.58-.59-.65-.67-1.42-.12.33-.52-.33-.59-.65l.37.35a6.43 6.43 0 00-.45-.91l-.22.31c-1-1.08-.49-2.57-1.56-3.24 0-.43.48.62.58.2-.32-.56-1.05-1-1.14-1.13-.55-.72.09-1-.43-1.74.16.06.49 0 .3-.65s-.8-.5-.71-.09c.06.15.13.2.16.17.05.21.13.48-.1.3l.07-.12c-.25-.24-.62-1-.7-.77-.11-.49.08-.27.29 0-.51-.68-.56-1.17-1-1.88.11.09.29.14.23 0-.67-1.06 0-.59-.34-1.38-.37-.36-.32.34-.55-.49-.33-.42-.33 0-.33.26-.12-.8-.75-1.25-1-1.63l.09.41a3.1 3.1 0 00-.23-.61l.31.11c-.13-.2-.22-.38-.31-.33 0-.29.44 0 .42-.53-.24-.24-.3-.94-.63-.91.52.87-.33 0 0 .83a1.43 1.43 0 00-.26-.55v.13c-.66-.75.13-.55-.29-1.45-.11.19-.41-.07-.44-.24.17.37.35 0 .32-.34-.4-.52-.2-.67-.36-1l.22.32c.11-.19 0-.47-.19-.9-.14 0 .09.41 0 .29.07-.58-.77-.88-.87-1.59-.24-.24-.31.11-.5-.12-.12-.8-.57-.66-.74-1.48.32.12.28.18.25-.44l.41 1.29v-.93c.17.37.21.84.35 1 0-.45 0-.39.23-.29-.55-.36-.26-1.09-.75-1.57l-.53.27c-.63-.77-.43-1.68-1.08-2.75l.26.32c.14-.25-.28-.72-.36-1.12-.17.11-.33-.09-.52-.2.15 0-.38-.83-.07-1.09l-.46-.4c-.51-.88 0-1.28-.41-2.13-.08.35-.38 0-.26.66-.13-.3-.28-.55-.16-.61-.19-.12-.11-.93-.4-1.12 0-.16.19-.29 0-.61h-.09s-.1-.57.23-.37c-1-.67-1.07-2.56-1.9-3.15-.21-.68-.49-1.48-.72-2.08 0 .06-.09 0 0 .14-.51-.74.31-.72-.27-1.56-.49-.35 0 .56-.18.31-.65.12-.4-1.15-1-1.63v.17c-.41-.39-.26-1.26-.62-2 0 0 0 .06-.09 0a7.66 7.66 0 00-.45-2.5c-.14.33 0 .39-.28.35-.11-.35.42-.06.21-.76-.21-.17-.52-.61-.8-.57l.24.64c-.46-.19-.32-.83-.51-1.14l-.13.1c-.34-1 0-1.15-.43-2.19l.16.07c.13-.72-.4-.4-.36-1.08h-.43a19.76 19.76 0 00-.36-2.17 8.79 8.79 0 00.07 1.9 4.1 4.1 0 01-.36-1.56c0 .16 0 .39.12.52a3.65 3.65 0 00-.27-2c-.34.21-.57-.26-.82-.83-.07-.17-.15-.35-.22-.53l-.29-.63v-.29c0-.1.05-.19.07-.27a1.38 1.38 0 00.06-.47l.13-.19.08-.11.17-.24.33-.48c.21-.32.43-.66.68-1a5.25 5.25 0 012.13-1.8c-.4.83.55-.23.65.4.43-.08.58-.14.61-.19a6.62 6.62 0 011.29-.49c.32-.18-.44-.13-.4-.27 1 0 .44-.29 1.13-.38-.16.21.33.32.89.37a6 6 0 00-.83.15 2.12 2.12 0 001.26.15 1.24 1.24 0 01.51 0 2.49 2.49 0 01.45.14 6.11 6.11 0 01.65.3l-.57-.4.49.21.29.11.15.06s0 .11.07.16c.08.22.17.46.27.7l.14.36.07.22a2.65 2.65 0 01.19 1.46c.11.07.32.14.26-.13.63 1.32.77 3.2 1.49 4.12l.09-.16c.07.27-.07.55.2.8.05 0 .1-.16.15 0a2.39 2.39 0 00.27 1.07v-.35c.74 1.23.47 2.17.85 3.3.41-.18 1 .79 1.27 1.28v-.05a27.68 27.68 0 011.24 4.2c.82.68 1.47 2.87 2.34 4.16-.17-.18-.3.17-.23.44.23.29.12 1 .47.81l-.06-.11c.47.09.67.8.92 1.32l-.45.3c1.31 1.07 1.37 3.72 2.33 4.18 0 .39.21.8.24 1.18l.25-.14a17.69 17.69 0 011.18 2.49l.08-.32c.31.63-.37 1.15-.12 1.74h.47c.5 1.11 1.36 2.08 1.53 3.33a.24.24 0 00.07-.31c.26.52 1.2 1.9.59 1.95.35-.15.57 1.13.7 1.8l.21-.21a2.32 2.32 0 00.08 1.46c.11.15.27 0 .1-.14.4.49 0 .54.42 1.15v-.33a1.09 1.09 0 01.14 1c.07.4.58 1 .85 1a.82.82 0 00.09.85c.11 0 .1-.15.1-.22.63.87.39 1.56 1 2.09a.24.24 0 01.21 0 13.55 13.55 0 00-.67-1.29c.23-.11.56.48.65-.16a4.94 4.94 0 00.48 2.14.28.28 0 00.12 0v-.07a.74.74 0 01.14.39 2.65 2.65 0 01.31.46c.23 0 .44.65.6 1-.26.1 0 .48-.42.21 0 0 0-.08-.08-.28a.48.48 0 010-.15c-.1-.21-.22-.47-.35-.77a1 1 0 00.3.88c-.08.23-.17.48-.2.62.56.24 1.15 1 1.42 1 .31 1 1 2.23.79 3.05.08.29.29.23.41.29 0-.17-.12-.35-.09-.47.14.59.73 1.58.46 1.87.48.59.12-.52.52.42v-.18c1.42 1.53.62 3.34 2.31 5-.12-.12-.17-.18-.24-.18 1.44 2.11 2.11 4.79 3.73 6.76.42.58.25.76.3 1.22h.34v.82c.27 1 1.51 1.26 1.7 2.66h-.26c.26.4.62 1.39.78 1.21 0 .06-.11.23.07.35l.15-.06.32 1.16c.53.75.48-.42 1.14.73.18.46.26 1.46.08 1.34s-.33-.4-.48-.33l.15.43c-.38.3-.63.83-1.44 0l-.12-.82-.31-.11.29.58c-.36-.23-.31-.52-.32-.81a.53.53 0 01-.37-.17v-.88c-.2 0-.15.47-.48.07 0-.41.52.1.36-.48-.36-.22-.47 0-.51-.52-.14 0-.16.12-.13.3 0-.41-.43-.93-.3-1.22-.41-.22-.55-1.19-.92-1a2.66 2.66 0 00-.17-1.09c-.16.82-.65-1.16-1.07-.74.2-.65-.62-1.63-.78-2.51v.23c-.25-.41-.45-.46-.67-.7.32-.23.06-.94.09-1.4-.61-.35-.25.53-.65.53.29-.12-.19-1 .13-1-.41-.29-.27-.29-.67-.34.4-.3-.12-.41 0-.88-.52-.47-.49.06-.68-.64-.29-.24-.15.41-.15.41"/><path class="cls-3" d="M1491.57 54.18v.09l-.12-.09v-.12a.61.61 0 000 .12m-3.81 16.4h.06"/></g><path class="cls-3" d="M1479.83 34.17l.06.11v-.13l-.06.02z"/><g class="cls-2"><path class="cls-3" d="M1492 77.16s.06 0 .11.06-.06 0-.11-.06m1.6 3l.3.38a4.32 4.32 0 01-.3-.38m1.3 2.26a.49.49 0 01-.08.1zM1477 45.09V45v.09m4.67 11.42a3 3 0 00-.05-.42c.11.19.19.34.05.42"/></g><path class="cls-3" d="M1471.64 32.43l-.03-.08.03.08z"/><g class="cls-2"><path class="cls-3" d="M1481.37 55.58a1.21 1.21 0 01.25.51 1.62 1.62 0 01-.25-.51m20.74 26.26h.12zm.15-.01h.15-.15m.48-.04h-.33c.11 0 .23-.08.33 0m-3.83 1.68l-.09-.07s.06 0 .09.07"/><path class="cls-3" d="M1498 84c.21-.16.45-.52.79-.65l.07.06c-.22-.05-.56.6-.86.59m-3 1.24l.56.92c-.15 0-.37-.16-.13.38-.91-1.09.28 0-.43-1.3m-1.48-2.46c.17.44-.14.06-.18.11 0-.31-.06-.38.18-.11m-8.81-17.61l-.21.15c-.13-.34.09 0 .21-.15"/></g><path class="cls-3" d="M1484.4 61.71l.14-.25-.3-.25.16.5zm-2.74-1.54l-.03-.16-.15-.43.18.59z"/><g class="cls-2"><path class="cls-3" d="M1467.85 29.9h.34c0 .25-.26.43-.34 0m-5.16-13.33a.75.75 0 01-.4-.71 5.87 5.87 0 01.4.71"/></g><path class="cls-3" d="M1480.58 29.68l.12.23-.14-.53.02.3z"/><g class="cls-2"><path class="cls-3" d="M1496.75 88.84c-.08 0-.22-.17-.15-.19l.28.18zm-.21-.7a1.5 1.5 0 01.64.4c-.29-.15-.2-.05-.54-.24-.07 0 0 .15.12.22-.08 0 0 .12-.19 0s-.09-.31.14-.25a.75.75 0 00-.17-.14m7.46-5.87a.12.12 0 01-.06-.06s.06 0 .06.06m-3.48 1.5v-.14.14m-2.86 4.24a.19.19 0 01-.1 0h.06zm1.34-3.52l-.11-.09zm-1 .83s.21.16.31.24a.39.39 0 00-.18-.09l-.13-.15m1.69-1.44v-.09a.41.41 0 010 .09m-1.96 3.4"/></g><path class="cls-3" d="M1495.66 87.68l.08-.13-.01-.02-.07.15z"/><g class="cls-2"><path class="cls-3" d="M1507.77 93c-.25-.11-.32.19-.6 0 .11 0 .44-.16.6 0m-.21-7.91h-.13a.37.37 0 01.13 0m-.3 1.07s.06 0 0 .07.06 0 0-.06m.07 1.05h-.06zm-7.2 2.3c-.07 0-.14.1-.21.15.15-.13.09-.29.21-.15m-2.59-1.58c.06 0 .09.06.11.06l-.08-.07m7.48-1.56l.06.16a.38.38 0 01-.06-.16m.05.63a.48.48 0 01.2.08h-.07z"/></g><g class="cls-2"><path class="cls-3" d="M1500.08 92.78c0 .06.06 0 .11 0a.19.19 0 010-.09.47.47 0 00-.09.12m1.84-.94s-.07 0-.11-.08-.14.14-.11.16.13 0 .22-.08m-.22-.22v-.07.07m-2.16-3.2c.13.11-.18.32-.3.51.07.2.25-.15.42-.24 0 .15-.13.47-.06.52s.08 0 .11-.12c-.1.3.28.27.13.64a.28.28 0 00.08-.06 4.06 4.06 0 00-.36.36s-.06.26.12.1c0 0 0-.1.07-.17v.13c.28-.2 0-.16.18-.34 0 .18 0 .51.11.51.25-.23-.12-.26.2-.38h-.22c.47-.3-.1 0 .38-.38.24.08.07.3.31.39-.09.17-.21.19-.3.36 0 .47.78-.44.64 0-.12.21-.4.53-.12.49l.23-.32c.18.13-.29.48 0 .46.08-.14 0-.21 0-.22.32-.12-.07.23 0 .31l.25-.23c.14.2.15.56.29.79.06-.09.1-.19.22-.23.12.36.53.46.89.54l-.11.3s.12-.06.14-.12-.12.13-.16.26.18-.06.21-.15c0 .32.07.81.45.74v-.09c.21 0-.28.57 0 .49v-.06c.37.18.48.66 1 .54-.13.18 0 .21.06.25s.08 0-.09.28a2 2 0 00.44-.41 2.27 2.27 0 00-.11.49l.1-.33a2.28 2.28 0 00-.06.39c0-.13.07-.27.11-.41v.11a1.11 1.11 0 00-.06.26c0 .22.13-.17.12-.4a4 4 0 00.08.43v-.37c.06.48 0-.48 0 0v.37c0-.26 0-.25.07-.09l-.08-.36c0-.08.1.22.15.26a10.47 10.47 0 00.39 1l-.25-.66c.18.43.07.23.3.76a10 10 0 00-.37-1l.12.26-.24-.58c.19.44-.29-.69 0 .08l-.09-.21.1.17v.06c.31.56.24.42.48.82-.1-.26-.34-.69-.32-.7.15.17.25.35.42.58a4.79 4.79 0 00-.43-.65l.25.1a3.59 3.59 0 00.25.27s-.11-.18-.24-.29c.2.1 0-.19-.17-.34s-.32-.22 0-.17a.66.66 0 00.28 0c0-.06-.19 0-.35 0 .21 0 .2-.17.16-.29s-.08-.23.06-.37c-.76-.2 0-.73-.43-1h.18c.17-.08-.1-.09-.15-.14.14 0 .16.07.26 0 .22-.61-.26-1.25-.42-1.87 0-.22.92-.13.49-.41l-.33.08c.39-.46 0-.92.29-1.37-.07 0-.17 0-.17.07-.24-.08 0-.34.17-.35 0-.07-.17 0-.28 0s.3-.24.06-.28a.09.09 0 00-.09 0c.11-.07 0-.28.23-.24-.14-.16.11-.32-.06-.44.3-.11-.17-.27.27-.33-.45 0-.38-.26-.18-.38-.14.05-.15-.08-.34 0 0-.12.07-.23.31-.23-.56-.17.4-.48-.31-.53a3.31 3.31 0 00.39-1c-.44.08 0 .36-.47.4a3.44 3.44 0 01.29-.42.59.59 0 00.09-.2.06.06 0 000-.09c-.07 0-.19.07-.26.09.16-.16-.07-.13.13-.4l-.1.12s-.07 0 .11-.15v.06a3.06 3.06 0 00.65-.79c-.49.59-.16 0-.77.77a2.55 2.55 0 01.22-.3c-.06 0-.12.12-.23.28 0-.12.2-.35.11-.35l-.14.27c.1-.21.15-.41 0-.32s-.06.14 0 .14-.08-.53-.31-.32c0 .44-.07.16-.07.53l-.06-.1v-.19s-.2-.23-.29-.09l.12.14h-.24l.1-.16c-.16-.17-.08-.47-.23-.33 0 0-.12 0-.14.26-.09-.1-.19-.21-.26-.09s.13.39.13.47c-.14-.28-.3 0-.47-.3a.93.93 0 01.11.3l-.12-.23v.28c-.15.1-.09-.47-.22-.21l.07.08c-.17.16-.44 0-.58.16.08.37.19 0 .24.35-.28 0-.7-.21-.91 0v-.06c-.26-.47-.08.32-.31.16 0 0 .17.24.14.19-.13.16-.39 0-.72 0l.09.11c0 .16-.21.19-.28.31-.09-.1-.14-.05-.21-.24.12.83-.8 0-.69.75 0 0 .15 0 .12.06l-.29.07c-.12-.19-.06-.13-.12-.31s-.25-.12-.3-.07c.2 0 .23.29.28.42 0-.06-.11-.11-.15-.17.16.41-.32-.34-.29 0l.09.09c-.1 0-.26-.07-.3 0 .16.22.15 0 .3.2-.1.06-.51-.23-.41 0h.23c.13.3.06.25 0 .35v.24-.1c-.59-.4-.3.11-.75-.08.43.17.2.15.42.36 0 .09 0 .21.12.25-.24-.11 0 .24-.31.08.07.07-.06.08.13.23-.13 0-.1-.13-.2-.21-.36-.1 0 .58-.49.46-.29 0-.57-.14-.83-.09.07.16.31.19.31.19 0 .18 0 .23-.2.24a.45.45 0 01.18.2c-.08.05-.31-.19-.27 0a2 2 0 00.35.19h-.47c.11.13.24.12.35.16a.56.56 0 01-.55 0v-.12s.16.17.22.18c.22.05 0-.18 0-.24h-.1c-.39-.42.27-.17.34-.31l-.36-.22.37.11c-.06-.1-.23-.27-.32-.25-.09-.22.17 0 .06-.2a.07.07 0 00-.06 0h.17c-.08 0-.21-.21-.21-.12 0-.31.44 0 .25-.29.29-.11.25.18.65.28l-.47-.61.24.19s0-.09-.06-.16c.22.06.08.1.27.19-.11-.29.34-.18 0-.54.2.13 0 .22.26.23-.35-.39.18-.06.09-.31s-.2 0-.28-.24c.38.27.1-.24.24-.25.25.26.26 0 .48-.08-.09-.09.11-.37.15-.58.26.26.34.1.49.08-.15-.17-.22-.22-.33-.25l.09-.08a.3.3 0 00.25.09l-.19-.2c.13-.09.44.06.5-.21.16.21.3.67.56.69-.08-.12-.21-.31-.28-.33s.11.06.11 0l-.21-.14c0-.14.16.13.2.07-.11-.16 0-.14-.13-.27s0 .11-.08.06a.48.48 0 000-.38c.06.1.15.23.21.21s-.08-.23-.05-.36c.1.09.12-.08.27.17v-.23c.14.07.36-.16.43.16.37.13.4-.4.7-.4v-.09c.19 0 .35-.09.53.06v-.31c.14 0 .19.12.29-.09-.18-.12 0-.16-.17-.08.12-.13.09-.29.35-.1-.15-.22 0-.35.09-.3v.21a.32.32 0 00.22-.09l-.15-.3c.19-.5.77.47.81-.25.15.2-.13.21 0 .45.12-.09.15-.59.2-.6.16-.24.31.42.49.25 0 .12 0 .43.22.51.13-.08.08-.52 0-.6s0 0 0 .08-.13-.07-.09-.21v.11c.05-.14.26-.16.18-.34.14.09.08.18 0 .26.14-.21.39-.08.66-.22 0 .07-.09.22 0 .21.41-.19.16.2.39.24.18-.18 0-.43.27-.28a.28.28 0 00.08-.41c.2.22.57-.13.77-.15l-.11-.11a.33.33 0 00.22.08l-.2.22c.1 0 .18 0 .23-.12 0 .15-.27.37-.24.58.18-.1.21.15.46-.13-.4.06.26-.3 0-.38h.23a.06.06 0 000-.08c.57-.22-.08.34 0 .62.13-.19.29-.2.27-.11 0-.14-.25.18-.33.4.16.1 0 .29 0 .38l-.08-.07c-.14.16-.1.23-.12.39.12-.07.06-.17.12-.17-.25.32.37.15.23.48.13.06.31-.13.41-.06-.17.36.29.25.15.61-.25-.06-.19 0-.39.15 0-.12.06-.31.1-.47-.1.13-.2.26-.3.37 0-.12.11-.31 0-.37-.16.19-.11.15-.31.15.37.06-.15.37.1.45l.59-.09c.29.18-.24.42-.07.68l-.11-.08c-.23.07 0 .18-.1.28a.93.93 0 01.4 0c-.14 0 0 .21-.35.27l.27.1c.13.22-.53.31-.45.52.21-.09.36 0 .5-.16 0 .07 0 .13-.09.15.13 0-.25.22-.06.27-.08 0-.28.06-.26.14a.22.22 0 00.1 0c-.1 0-.13.14-.35.08.63.18 0 .62.53.78a2.49 2.49 0 00-.12.49h.08c.19.19-.56.14-.35.35s.17-.12.29 0c.65 0-.08.27.31.4.22.11-.24.28-.19.47h.1a1 1 0 00-.53.56c.26-.06.14-.08.4 0 0 .08-.42 0-.49.14a1.31 1.31 0 00.54.17v-.15c.36.08 0 .2.06.28h.15c0 .23-.44.23-.41.48h-.12c-.39.13.22.11-.07.25h.4a2.35 2.35 0 00-.46.48 2.14 2.14 0 00.62-.4.34.34 0 01-.23.35s.14-.08.08-.12c-.31.11-.46.26-.46.43.77 0 .2.46.79.59-.28.31.12.61.07 1-.59-.13 0 .11-.62.09v.12l.36.25c.18.06.14-.08.28-.07 0 .18.25.07.42.19-.22 0-.31.07-.23.17l-.28-.14c-.17.13 0 .16.09.25s.26.22.1.44l.19-.13c-.11.22 0 1-.45 1 .07.07.24.21.28.13a1.36 1.36 0 01-.16.76.83.83 0 000 .78l.16.13c0 .06-.29-.15-.12.16.07.08.17.15.18.21s-.27-.06-.16.2l.18.11c.27.92-.39.26-.48.42a7.61 7.61 0 01.83 2l.07.13v.46c-.21-.24-.37-.44-.6-.75s-.43-.57-.62-.8c.08.37-.12.28-.36.12s-.49-.37-.66-.34a1.73 1.73 0 00-.22-.68c-.07.06-.34-.68-.22 0 0 .55-.21.2-.38.07l-.09-.76c-.14.38-.45 0-.67-.26s-.4-.59-.63-.34c-.06-.23-.18-.34-.22-.55l-.12.27a2.65 2.65 0 01-.41-.27 1.57 1.57 0 01-.19-.18 1.3 1.3 0 01-.17-.2l-.09.19c-.13-.1.42-.73.33-.84l-.33.27c-.19-.19-.64-.11-.57-.57 0 0-.12.14-.1.18s-.55-.14-.11-.52c-.27.27-.23-.17-.21-.39l-.18.22c.16-.34.22-.42.17-.61 0 0-.18.14-.09.12-.2 0 .11-.26-.11-.27l-.08.17c-.12-.08 0-.14 0-.34s-.24-.13-.43 0c.1-.12.19-.32.08-.33a.3.3 0 00-.11.16c-.3 0 0-.47-.32-.39a.53.53 0 01-.14.1c.14.12.25.22.26.19-.18.19-.32.11-.48.45 0-.22.2-.66 0-.68h-.08v-.09c0-.09-.11 0-.14 0-.16.14-.2 0-.26-.08.2-.2.1-.23.32-.33v.07c0 .07 0 0 0 0l.12.15c.06-.15.1-.28-.07-.22l.25-.4c-.35.21-.64.23-.82.38-.06-.27-.31-.44 0-.92 0-.09-.16.06-.23.11s0 .08 0 .15c0-.18-.24-.29 0-.58-.23 0-.17.3-.28.11l-.06.1c-.72.14.13-1.17-.74-.94a.19.19 0 00.13-.06c-.63-.11-.64-1-1.4-.92-.18 0 0-.21 0-.41l-.22.21.1-.37c0-.34-.77.34-.69-.21l.15-.14c-.11 0-.19-.3-.31-.1 0 0 .1-.19 0-.12l-.1.12v-.36c-.22 0-.34.52-.59.39a1 1 0 01.12-.62s.14 0 .23-.15v-.12c.25-.39.45-.84.85-1v.33l.17-.15-.11-.1c.19-.12.13.06.1.2a.53.53 0 01.21-.16l-.12.47c.12-.14.15-.34.3-.35 0 .21-.3.28-.27.47.19-.12.28-.28.24-.07a.32.32 0 00.12-.23c0 .17.15.19 0 .42.23-.16.19.23.46-.12a.66.66 0 000 .43c.21-.51.25.16.58-.3-.22.44.17.41.15.74v-.1c0 .01.22 0 .33-.07-.24.3-.17.48-.26.72.34-.2.24-.4.51-.65-.22.24 0 .39-.24.57a1.14 1.14 0 00.39-.24c-.31.38 0 .12-.12.4.27-.08.33-.32.35-.1.16-.06.17-.29.17-.29"/><path class="cls-3" d="M1500.28 92.45h.06v.07zm.22-8.63"/></g><path class="cls-3" d="M1504.88 93.99l-.01.07.02-.08-.01.01z"/><g class="cls-2"><path class="cls-3" d="M1499.16 86.09v.15a.53.53 0 010-.15m-.3.48l-.09-.07zm5.04-3.2a.38.38 0 00.11.11s-.08 0-.11-.11"/></g><path class="cls-3" d="M1505.05 86.36v.02-.02z"/><g class="cls-2"><path class="cls-3" d="M1504.12 83.45c0 .07-.07.06-.11 0s.06-.06.11 0m-6.76 4.99zm.38-.65l.08.06-.08-.06m.17-.15c0 .06.08.25 0 .26l-.07-.05c.14.08-.07-.28.09-.21m-.32-1.55l-.07.2c-.06-.1-.13-.23-.21-.18-.07-.41.14.2.28 0m.32-.57c-.11 0-.11-.11-.16-.15.12 0 .15 0 .16.15m3.73-2.54l-.11-.23c.09 0 0 .09.11.23"/></g><path class="cls-3" d="M1502.89 84.11l.01-.17-.12-.04.11.21zm-.09-2.06l.12.02-.17-.04.05.02z"/><g class="cls-2"><path class="cls-3" d="M1507.57 87h-.32c0-.05.41-.09.32 0m-.23 3.19c.15 0 .26.12.1.18s-.14-.14-.1-.18"/></g><path class="cls-3" d="M1505.26 97.82l-.09-.21-.07-.04.16.25z"/></g></g></svg>