<svg xmlns="http://www.w3.org/2000/svg" viewBox="0 0 1082 361.21" class="svg" focusable="false" aria-hidden="true" role="img"><defs><style>.cls-3{fill:#007fa3}</style><clipPath id="clip-path"><path fill="none" d="M0 0h1082v361.21H0z"/></clipPath></defs><g id="Layer_2" data-name="Layer 2"><g clip-path="url(#clip-path)" id="Layer_1-2" data-name="Layer 1"><path class="cls-3" d="M162.18 78.91c3-.58 6-1.14 9-1.63-5.57 1.66-14 3.85-23.59 6.08L222.09 68c25.88-5.21 52.4-10.67 78.52-15.72 52.2-10.4 102.72-19.73 142.44-27.28 14.42-1.91 28.06-3.75 38.38-5.6s17.39-3.29 18.67-4.34c2.51-2.08-19.08-1.36-48.31 2.21-6.44.64-14 1.5-18.65 1.82C391.13 22 340.12 28 284.05 37c10.84-1.43 22.14-3.09 33-4.4-8.12 1.15-16.16 2.47-24.43 3.8s-16.75 2.86-25.72 4.6l6.38-.24C245.33 44.88 212.42 51.5 181.85 59c-15.28 3.68-30 7.8-43.17 11.67-6.6 2-12.82 4-18.55 5.91s-11 3.69-15.62 5.52C85.87 89.24 80.32 93 86.32 93.24S109.86 90 137.56 84c8.21-1.76 16.42-3.38 24.62-5.07"/><path class="cls-3" d="M266.83 66.5c-33.1 5.36-64.86 11-96.65 17.32l-6.36 1 2.76 2.15.57-.32C196 77.1 244.58 65.29 289.56 56.32l16-3.36c7.65-1.8 12.7-3.19 14.2-4.05 1.77-1-.92-1.17-6.7-.68s-14.6 1.77-25.15 3.64c-8.11 1.4-16.19 3-24.29 4.46-29.67 5-67.7 12.8-102.16 21.73-8.62 2.29-17 4.46-25 6.8s-15.57 4.65-22.56 6.86-13.38 4.58-19 6.66c-2.82 1.05-5.44 2-7.84 3s-4.58 2-6.52 2.89c-7 3.32-.18 2.63 1.76 3.35-1.65 2.43 20.61-2.91 49.73-10.5l20.77-5.6c6.46-1.77 12.34-3.47 17.37-5 10.06-3 16.67-5.34 17.46-6.47 5-1 10.13-2.16 15.09-3.1-3.82 1.06-7.72 2.2-11.6 3.35 3.94-1.8 12.59-4.23 22.72-6.86s21.74-5.41 31.63-7.89c9.93-2.28 19.89-4.3 29.84-6.42l-17.76-.88c-5.17 1.18-10.32 2.51-15.49 3.76 1.23-.07 3.57-.29 3.38-.23-29.44 7.2-57 14.63-89.1 23.42-13.43 3.82-26.79 8-40.15 12.17-10.73 3.92-9.33 4.72 2.84 2.1l18.17-3.94-8.2 1.66c41.58-10.21 85.5-19.66 126.91-27a159.33 159.33 0 0 0 17.81-3.9c2.85-1-.06-.92-6.84.21m-146.42 34.66c-6.78 1.46-13.28 3.09-22.78 5.88l-4 1.51 13.32-3.07c9.5-2.24 14.23-3.89 13.5-4.32"/><path class="cls-3" d="M93.72 108.54c-3.33.75-5.53 1.32-5.53 1.32 1.29-.26 2.54-.5 3.75-.7l1.06-.35.72-.27m695 80.83c-60.23 25.57-120.55 50.44-181.21 75.08q-45.53 18.41-91.3 36.44t-92.3 35.16c-4.19 1.5-7.65 3-7.76 3.29s3.21-.66 7.08-2.07q46.65-17.08 92.3-35.09t91.12-36.35c60.53-24.56 120.71-49.37 180.92-74.91a50.06 50.06 0 0 0 7.78-3.86c.09-.34-2.84.69-6.63 2.31m56.42 20.74c-2.93 1-2.75 1.27.4.58a103.39 103.39 0 0 0 10.34-2.91c2.46-.87 2.28-1.17-.42-.58-3.13.68-7.86 2.05-10.32 2.91"/><path class="cls-3" d="M211.14 119l16.66-9.21-18.32 9.36zm-39.93-23.2c-2.79.4-4.49.65-6.67 1.08l6.67-1.08m-46.45 10.63l5-1.2a11.13 11.13 0 0 1-5 1.2m9.85-4.54l-3.07.55 6.28-2.8-3.21 2.25m247-53.32c18.84-1.87 33.6-2.59 47.53-3.22 12.28-1.86 25.1-3.78 38.16-5.27 8.76-1 17.47-2.1 26.15-3l25.61-2.74c17-1.88 34.07-3.64 51-5.09-4.47-.28 3.65-1 7.81-1.47l12.76-1.29c-18.17 1.25-36.27 2.85-54.38 4.63L482 36.43c-33.1 3.36-68.94 8-100.33 12.1m153.6 91.72c-34.15 13.79-66 29.2-97.58 41.31-15.73 6-31.35 11.33-46.6 14.71l-4 1-3.79 1-3.53 1-3.41 1-12.95 4c-8.45 2.64-16.7 5.21-25 7.67l24.15-8.05 12.51-4.15c4.35-1.4 8.57-2.79 14.23-4.23l9-2.25 4.34-1.09 4.38-1.32c2.93-.89 5.84-1.7 8.78-2.66l8.85-3c2.95-1 5.93-2.12 8.9-3.22s5.94-2.17 8.93-3.36c6-2.4 12-4.71 18-7.27 24.14-10 48.79-21 74.7-31.08m-218.76-65.4h.11l-9.6.61 9.49-.58M521.28 38l-3.37.09 11.83-.86 16.74.17-25.2.6m302.57 199.67c-17.46 5.31-34 10.41-48.6 15.35-2.73.89-5.94 1.73-8.34 2.29 1.16.13-2.14 1.44-8.53 3.39-31.46 9.45-63.65 17.76-96.33 25.74s-65.87 15.45-99.33 22.7c-66.91 14.5-135 28-202.49 41.1a27.28 27.28 0 0 1-5.54 2c-1.15.34-2.44.7-4.26 1.14l-10.54-46c4.36-1.76 10.3-3.9 17.11-6.15 6.93-2.5 14.8-5.28 22.82-7.91l13.94-4.75c28.1-9.78 56.16-20.4 84.14-31s55.88-21.6 83.7-32.61c11.15-5.06 24.17-10.74 38.41-16.74 47.32-21 94.74-42.24 143.06-64-3.18 1.05-5.17 1.52-5.29 1.15.57-1.25 11.57-6.73 24.7-12.36l19.63-8.67c-18.79 8.05-38 16.08-57.12 23.94a330.91 330.91 0 0 1-7.66 3.1l-63.63 26.88Q572.67 210.58 494 243c-13.13 5.38-26.22 10.75-39.27 16l-19.55 7.85-19.5 7.66c-6.49 2.59-13 5.06-19.43 7.49s-12.93 5-19.34 7.28l-19.21 6.88-18.7 6.06 12 52.43c81.29-15.94 161.25-32.48 240.67-50.53a106.57 106.57 0 0 1 10.68-2.12c1.87-.16 1.6.2-1.81 1-84.93 20.95-161.67 39.4-248.33 58.17l-15-65.42 11.08-3.75 5.58-1.92c1.88-.66 3.86-1.45 5.79-2.18l11.75-4.44 5.94-2.23 6-2.4L408 269l25.43-10.31c58.71-24.1 117-49.26 175.49-74.77q43.8-19.23 87.78-38.75l44-19.7 22-9.95 10.91-5 10.63-4.94 18.05 40.44a2 2 0 0 0-.92 1.28 12.42 12.42 0 0 0-1.16 2.48c-.15.45-.24.85-.38 1.34s-.45 1.23-.65 1.85c-.4 1.24-.76 2.49-1 3.76-.15.63-.29 1.26-.41 1.9l-.77 2.47q-.62 2.46-1.12 4.94l-2.06 11-1.06 6.11-.48 3.06-.23 1.54-.09.67h-.14l-.6-.05c-1.09-.09-2.73-.21-4.46-.31-3.48-.2-7.4-.35-11.35-.47-8-.25-16.23-.39-24.58-.49-16.71-.19-33.78-.2-50.9-.12-13.25-.13-26.44-.19-39.47-.16l-19.35.12-9.32.14h-2.97a2.48 2.48 0 0 0-.61.07l-.54.14-.81.17-2.73.58-5.45 1.16-11.1 3c-3.72 1.08-7.5 2.35-11.24 3.51s-7.57 2.65-11.35 3.95c-15.22 5.54-30.7 12.09-46.49 19.1s-32 14.54-48.87 21.93-34.48 14.73-53.52 21.16c-4.86 1.53-9.55 3.19-14.57 4.59l-14.17 3.88-.78.21-1.14.34-2.44.75-5.62 1.83-12.31 4.16c-17 5.81-34.87 11.82-53.2 17.25s-37.24 10.47-56.85 14.6c-9.8 2.07-19.77 3.93-30 5.46s-20.6 2.82-31.28 3.65a310.94 310.94 0 0 1-72.75-2.15L0 294.77 123.47 224q8.64-4.94 17.24-9.88c5.68-3.13 11.22-6 16.84-8.94s11.13-5.69 16.66-8.45 11.07-5.56 16.57-8.12c11-5.19 22-10.48 32.93-15.38l16.42-7.47 16.4-7.24c43.7-19.22 87.24-37.26 130.92-54.66 21.86-8.66 43.7-17.24 65.7-25.58s44-16.56 66.71-24.54l8-2.82 3-1.11 3.59-1.39c4.91-1.93 10-4 15.11-6.13C559.71 38 569.89 33.6 579.93 29s19.9-9.3 29.44-14.15S628.16 5 636.35 0l26.48 96.84c-10.75-.18-22.41.17-34.25.77s-24 1.49-36.28 2.58l-61.52 6.19-15.1 1.43L501.9 109l-25.45 2c-15.9 1.14-29.51 2.1-39.89 2.36s-17.52.12-20.49-.82c-3.46-1.17-.47-3.21 7.76-5.86s21.7-5.84 39.21-9.22l-21 2.73c-11.09 1.27-22.16 2.7-33.24 4.06-31.42 4-58.32 7.19-75.44 8.34-7.85.56-15.67 1.25-23.51 1.92-7.88.34-16.95 1-26.49 1.83s-19.64 1.77-29.5 2.84l-28.45 2.94c-8.85.91-16.89 1.52-23.37 1.93l5.21-3-6 .91c-9.88 1.71-18.23 2.87-24.68 3.68s-11.06 1.11-13.53.83l1.36-2.47c3.5-3.31 12.69-8 28-13.68-.76-.72.94-2 4.86-3.76-13.94 1.11-20.87.47-10.76-4.43-8.27 1.32-7.14.13 2.43-2.66 3.3-1 7.31-2 11.41-3h-.1c-4.59.53-6 .69-12.12 1.52l-12.84 2.71-21.2 4.93-7.9 1.85-11.1 2.77c-16.16 3.51-26.25 5.47-26.25 5.47-18.66 1.53-18.69 1.59-16.42-.75 1-.45 2.11-.94 3.3-1.43-14.28 3.71-15.26 4.11-19.12 5.09-4.07 1-6.9 1.51-6.9 1.51-.88-.62-.88-.62-3.4-.16-.88-.08-.79-.43-.79-.43 7.6-3.37 7.61-3.37 7.73-3.69 1.8-.83 4.31-1.84 4.31-1.84 9.18-3.15 12.83-4.44 14.38-4.9l20.6-3.64 4.12-2 4.93-.27-2.89-.19 10.32-2.13-11.75 2.32 33.54-8.59c10-2.39 18.47-4.76 19.48-5-.9-.07-1-.26-1-.26C195 83.59 195 83.51 220.1 78.39c2.36-.32 4.24-.52 6-.7a113.8 113.8 0 0 1 12.09-2.88l13.21-2.58 2.79-.72a.07.07 0 0 0 0-.06l11-2.64 2.29-.55h.13l15.83-3.74 32.09-7.21 22.1-3.39-6.49.7c-4.18.42-.56-1-2.81-.73-13.92 1.91-28.11 4.22-42.52 6.53-14.38 2.5-29 5-43.7 7.83-14.71 2.72-29.51 5.84-44.36 8.89-14.82 3.27-29.7 6.47-44.48 10-10.55 2.69-20.57 4.93-22.3 4.71-1.54-.24 5.82-3 16.65-5.79C206.87 68.58 273.78 54 341.53 42.51 375.42 36.85 409.54 32 443.05 28q12.57-1.53 25-2.8c8.29-.89 16.53-1.73 24.72-2.46l47.58-4.26c33.11-3.21 66.54-6.07 101.29-6.76l-5-.25c9-.13 18.12 0 27.38.34h.47l117.24 2.06-100.64 58.52-2.22 1.29 2.3-1.16 102-51.25-118.63-9.57c-6.15-.5-12.33-1-18.35-1.28-4.79-.11-9.44 0-14.23 0-20.06.67-39.23 1.95-58.06 3.36s-37.26 3.11-55.33 4.82L491.66 21c-9.13.78-18.24 1.71-27.38 2.62-18.28 1.83-36.63 3.88-55.23 6.2-40 5-74.38 9.22-112.13 15.07-9.68 1.71-16.48 2.41-15.45 1.61s10-2.86 19.42-4.54c60.36-11.58 125.18-21.32 187.79-27.89l45.66-4.59c15.2-1.46 30.25-2.73 45-3.7s29.26-1.64 43.46-1.9 28.07-.15 41.86.68l142 8.56-121.73 65.49c-4 2.17-7.66 4.2-11.18 6-11 6.23-21.63 11.53-31.82 16.28s-19.84 8.85-28.69 12.3l-1 .42c4.73-1.64 9.13-3.21 13.86-4.93-16.33 7.18-25.38 10-40.46 15.84l6.18-.73-15.35 6.15-7.87 3c-2.64 1-5.37 2-8.3 3.09l-15.78 5.4c-4.95 1.66-10 3.49-15 5.25-20.1 7.08-40.35 14.58-60.39 22l-115.66 43.71-8.32 3.28-96.53 44.47 18.14-7.85c6-2.62 12.06-5.21 18.24-7.76-6.5 3-12.93 6.05-19.36 9.11s-13 6-19.41 9.18l-19.61 9.38-19.86 9.71c-6.34 3.13-12.5 6.39-18.84 9.58-3.25 1.58-6 3.27-9.09 4.9l-9 4.91-14-73.69c7 1.16 14.15 2.08 21.53 2.57s14.86.7 22.4.48a400.29 400.29 0 0 0 44.24-3.47c28.42-3.69 53.5-9.09 71-12.27 12.15-3.63 24.27-7.52 36.61-11.63l18.85-6.29c3.24-1.06 6.6-2.13 10.13-3.2l2.82-.82c.92-.27 1.86-.55 3-.83l5.23-1.38 8.37-2.24c2.79-.77 5.64-1.77 8.46-2.63 5.63-1.67 11.39-3.94 17.1-5.93 11.51-4.42 23.07-9.11 34.86-14.31 23.48-10.22 47.57-21.51 73-31.88l4.75-1.95L543 130l9.72-3.76 9.94-3.54c3.32-1.18 6.63-2.36 10.08-3.4l10.26-3.22c3.44-1 7-1.92 10.52-2.87s7-1.93 10.68-2.64l11.91-2.51a58.53 58.53 0 0 1 8.87-.84l6.54-.18 11.14-.17 21.91-.16q21.84-.08 43.62.06c14.54.09 29.08.25 43.72.55 7.33.15 14.68.33 22.14.6l11.34.49c3.87.2 7.75.43 12.13.82 2 .19 4 .4 6.45.78l2.09.36 1.25.25 1.42.32.79.19 1.17.31c.78.22 1.51.45 2.29.71a41.91 41.91 0 0 1 5 2.07l.59.3 1.19.65a36.09 36.09 0 0 1 3.83 2.52 36.59 36.59 0 0 1 6.53 6.31l29.21 36.22-42.11 17.35a51.07 51.07 0 0 1-8.47 3c-.82-.07 2.29-1.89 7.77-4.53L855 157.5 828.76 125a35.63 35.63 0 0 0-6.31-6.05 36.37 36.37 0 0 0-3.72-2.42c-.83-.47-.85-.46-1.06-.57l-.58-.29a42.52 42.52 0 0 0-4.8-2c-.75-.23-1.52-.46-2.31-.67l-1.16-.3-.72-.15c-1-.21-2.08-.43-2.7-.52l-2.13-.33c-2.94-.4-5.14-.58-7.33-.75l-6.24-.41c-4-.21-7.88-.36-11.72-.49-7.66-.25-15.17-.4-22.68-.52-15-.22-29.88-.29-44.78-.3s-29.8 0-44.74.19l-22.49.28-11.42.23-6.51.19a57.76 57.76 0 0 0-8.81.85l-12.92 2.79c-2 .4-4 .92-5.9 1.45l-5.82 1.58-5.82 1.58c-1.93.54-3.79 1.18-5.68 1.77l-11.3 3.62C554.3 129 540 134.63 526 140.56c-27.81 11.84-54.32 24.6-80.39 35.49 26.05-10.39 52.63-22.65 80.53-34.06 14-5.69 28.38-11.15 43.27-16.07 3.74-1.21 7.56-2.32 11.34-3.47 1.91-.57 3.78-1.17 5.71-1.7l5.84-1.5c3.93-1 7.74-2.1 11.77-2.87l12.93-2.61a41.15 41.15 0 0 1 5.87-.63l2.95-.11 2.49-.06 8-.08h15.65l31.18.2c20.81.21 41.68.52 62.77 1.05 13.11.26 26.22.54 40 1.26 3.32.18 6.67.4 10.28.74 1.84.18 3.67.36 6 .7l1.85.29c.68.11 1.32.22 2.34.44l1.41.32c.76.19 1.51.41 2.25.63a34.57 34.57 0 0 1 4 1.53l1.18.57.29.15.65.35c.65.36 1.28.75 1.91 1.17a30.23 30.23 0 0 1 6.64 6l23 28.42-33.3 14.51c-6.18 2.7-12.42 5.41-18.48 7.92-59.78 26-118 50.35-176.8 74.73s-117.89 48.59-180.09 72.71c-7.14 2.79-14.24 5.53-21.37 8.16s-14.08 5.31-21.11 7.83l-21 7.38c-7.12 2.32-14.31 4.54-21.29 6.74L340.94 299c78.3-14.91 151.54-29.42 231.41-46.85 38.36-8.4 75.73-17 112.27-26l27.21-6.94 26.82-7.23 53.71-15.79 108.47-31.56c36.28-10.56 72.89-21.21 109.83-32.35 19.56-6.09 37.68-10.92 40.25-10.44s-10.69 6.19-30.34 12.34c-55.2 17.56-111.18 34.07-167 50.57l-84.07 24.79c-7.14 2.17-13.88 4.09-20.71 6.07l-10.29 2.89-10.38 2.79c-13.79 3.81-27.82 7.27-41.82 10.8-56.17 13.79-113.2 26.13-170.63 38S400.31 293 341.81 303.81L352.86 352l17.51-5.42c5.81-1.83 11.27-3.85 16.93-5.77 11.32-3.8 22.21-8 33.32-12s22-8.34 33-12.51l32.87-12.83q65.71-25.92 131.81-53.21c34-13.94 67.41-27.83 100.56-41.78-.5 0-1 0-1-.14-.28-.64 2.62-2.58 7.7-5.32Q669 226.7 611.43 249.8c-41.66 17.77-83.44 35.35-126 52.51l-32.13 12.76c-10.82 4.15-21.61 8.4-32.58 12.49s-21.93 8.23-33.32 12c-5.69 1.92-11.22 3.94-17.08 5.78l-17.77 5.43L342 305l75.19-13.46c82.49-14.72 157.21-27.69 233-42.93q35.79-8.16 71.12-17.3l17.59-4.68c5.86-1.56 11.61-3.29 17.43-4.93l8.72-2.5 8.91-2.64 17.78-5.2L934.06 170a68.58 68.58 0 0 1 9.21-2.34c1.44-.15-.55.68-4.37 1.87q-48.82 15.25-99 30.23l-50.35 15.09-25.36 7.65c-8.33 2.42-16.61 4.95-25 7.27 10.85-2 17.38-2.84 16.86-1.47-.26.69-2.37 1.85-6 3.37s-8.7 3.37-15 5.34c7.73-1.91 15.36-4 23-6.13s15.37-4.29 23.1-6.47c9.55-2.66 17.19-4.34 17.07-3.69s-7.49 3.26-16.57 5.81c-7.88 2.24-15.78 4.5-23.56 6.61l-11.71 3.22c-3.91 1.06-7.86 2-11.78 3-7.87 2-15.72 4-23.64 5.89s-15.78 3.85-23.73 5.62c-31.67 7.37-63.53 14.13-95.42 20.7-76.44 16.47-153 31.37-230.12 45.77 10.84-1.17 18.9-1.64 22.84-1.25l35.72-6.63c54.32-10.88 108.9-22.07 163.58-33.94s109.54-24.28 163.73-39L911 189.73Q952 178 993 166q20.49-6 40.88-12.29c13.58-4.18 27.17-8.46 40.36-13.09 4.09-1.5 7.55-2.52 7.72-2.29s-2.91 1.59-6.62 2.92c-16 5.6-32.4 10.74-48.83 15.73s-32.93 9.87-49.42 14.71q-49.5 14.45-99 28.48l.28-.06c2.71-.59 3.29-.44.42.57-2.49.88-7.69 2.35-10.35 2.93-3.12.68-2.91.31-.47-.55-30.74 8.77-61.43 17.45-92.06 26.38-30.45 9-61 16.89-91.76 24.29s-61.54 14.35-92.31 21.07-61.5 13.22-92.16 19.55c57.11-11.16 114.12-22.82 170.81-35.61 28.33-6.41 56.57-13.2 84.51-20.75l84-23.34 36.5-11.31a77 77 0 0 1 9.24-2.24c1-.05-1.39.92-4.84 1.95l-10.21 3.14c21.23-5.85 37.87-9.39 37.91-7.93-.77 1.72-18.66 7.95-40.7 14.08l-88.2 25.15c-29.32 8.56-58.92 16.1-88.63 23.06l-19.25 4.68c-6.46 1.67-12.85 3.33-19.28 5 23.22-4.9 46.36-10.19 69.44-15.65s46-11.71 68.76-18.1l136.6-37.39c7.77-2.21 14.51-3.74 14.81-3.3s-5.84 2.66-13.65 4.88c-39.76 11.86-79.73 23.5-119.76 35.18-20 5.83-39.93 11.84-60.27 17.52q-30.42 8.21-61.08 15.55C604.67 288.38 522.05 305 439.14 321c-29.92 6.78-59.92 13.47-90.56 20.19l-5.91-25.81 16.91-5.91c5.68-2.09 11.42-4.37 17.16-6.56s11.51-4.51 17.29-6.87l17.38-7.04-20.1 7.21c-16.85 6.09-33.45 11.7-49.39 16.5l7.16 31.29c79.22-14.72 153.6-30.12 227.61-46.74 37-8.34 73.92-17 111.28-26.28q28-7 56.41-14.71c9.47-2.54 19-5.43 28.53-8.14l28.55-8.38a46.68 46.68 0 0 1 8.51-2c.53.12-2.31 1.18-6.65 2.4l-30.78 9.13c-10.3 2.93-20.49 6.11-30.67 8.8l-15.21 4.17-15.16 4c-10.09 2.67-20.16 5.21-30.23 7.71-40.27 10.04-80.59 19.39-122.68 28.6-69.74 15.22-136.25 28.69-201.17 42C424 332.32 489.17 319.36 554 305.53q48.62-10.36 97.13-21.64c32.39-7.55 64.85-15.4 97.5-24.31 5.68-1.61 11.47-3.14 15.19-3.87a15.56 15.56 0 0 1 3.12-1.23l24.91-8 26.32-8.14a76.35 76.35 0 0 1 9.66-2.43c1.85-.29-.17.54-4 1.75"/></g></g></svg>