<svg xmlns="http://www.w3.org/2000/svg" viewBox="0 0 1263.7 266.39" class="svg" focusable="false" aria-hidden="true" role="img"><defs><clipPath id="clip-path"><path fill="none" d="M0 0h1263.7v266.39H0z"/></clipPath><style>.cls-3{fill:#007fa3}</style></defs><g id="Layer_2" data-name="Layer 2"><g clip-path="url(#clip-path)" id="Layer_1-2" data-name="Layer 1"><path class="cls-3" d="M39.88 67.72c1.29.29 2.56.66 3.81 1-2.28 1-5.78 1.37-9.82 1.34 19.88 3.43 42.24 2.49 63.6-.9a264.54 264.54 0 0057.63-15.9c11.77-.57 22-4.52 22.73-8.86s-8.2-7.39-20.08-6.84a56.08 56.08 0 01-7.67-1c-17.46-5.18-38.5-8-61.67-9.39l13.72 2.6a136.6 136.6 0 00-20.67-.43c.84.71 1.9 1.41 2.74 2.13a110.06 110.06 0 00-18.56-1.17 134.54 134.54 0 00-19.32 1.63 119.7 119.7 0 00-17.86 4.13 64.08 64.08 0 00-14.28 6.34 28.92 28.92 0 00-4.77 3.65 13.7 13.7 0 00-2.92 3.69 6.3 6.3 0 00.4 6.87C10 60.79 17.53 64.3 29.44 66c3.55.55 7 1.16 10.44 1.74"/><path class="cls-3" d="M84.53 88.57C70.71 87 57.44 85.12 44 83.29l-2.73-1.22 1.48 6.45.22-.44c11.81-6.61 31.79-10.63 50.21-13.77l6.53-1.51c3.1-1.11 5.1-2.57 5.64-4 1.29-3.27-4.75-5.73-13.44-5.52l-10 .28c-24.64-1.67-63 1.68-76.54 14.34-3 2.9.23 5.83 1.25 8.73-.26 2.21 2.14 4 6.19 5.09a47.1 47.1 0 0015.62 1.19 53.18 53.18 0 0015.9-3.41c4.13-1.71 6.79-3.87 7-6.08l6.33.33c-1.56.69-3.16 1.32-4.75 2C56 81.65 67 79.84 75.07 77.11L87.33 75l-7.85-9.5-6.32 1.9a14.85 14.85 0 011.45 1c-6 1.92-11.82 3.82-17.8 5.61S44.65 77.5 38 79l-16.75 5.33c-4.46 2.37-3.72 5.18 1.52 6.44l7.8 1.45-3.55-1c17.68.6 35.92.34 53.17 1.27 2.73.25 6-.46 7.3-1.59 1.12-1.09-.13-2.17-3-2.37m-60.88 6.94a28 28 0 00-9.75-.47l-1.71 1 2.74.52 3.06.64c4.09.86 6-.3 5.66-1.69M12.15 96l-2.47-.47 1.7.78.46-.13.31-.18M763.3 30.86c53.09-.14 106.36-1.08 159.57-2.49 1.78 0 3.26-.57 3.31-1.22s-1.34-1.06-3-1C870 27.5 817 28.39 763.87 28.55c-1.78.05-3.23.57-3.45 1.18-.06.65 1.21 1.13 2.88 1.13m399.82 43.22c-1.23.56-1.14 1.21.19 1.58a7.65 7.65 0 004.37-.29c1-.47.94-1.26-.2-1.57a7.58 7.58 0 00-4.36.28"/><path class="cls-3" d="M66.25 184.94l6.31-13.39-7 12.95zM45.84 111.3a12.6 12.6 0 00-2.84-1.12l2.86 1.12m-19.68-1.39l2.15.16c-.67 1-1.39.74-2.15-.16m3.95-4.72c-.44-.18-.84-.34-1.33-.5l2.53-2.81s-.53 1.39-1.2 3.31M132 89.68a102 102 0 0119.95 7.24A112.43 112.43 0 01167.48 95c14.32-.81 28.29-1.27 42.06-1.44-1.91-1.57 1.39-1.62 3.06-2l5.12-.81c-14.71-.07-29.49-.27-44.53-.5-13.55-.21-28.24.23-41.2-.62m513.36-36.78a834.65 834.65 0 01-86.52-.69l20.94-1.66q32.67.82 65.58 2.35m-538.18 75.22l-4.11-2.39 4.06 2.39m83-24.7l-1.42-.61 4.92.84 7.12 4.31s-5.31-2.23-10.62-4.54m964.42 20.57a157.48 157.48 0 00-20.66 4.84 8.21 8.21 0 01-3.5.14c.49 1-.88 2-3.55 2.56-52.5 11.32-109.31 17.52-165.17 24.62a5.62 5.62 0 01-2.26 2.48c-3.76 2.72-11.49 4.4-19.59 4.32l-6.13-.34c-24.7-.33-49.32-.36-73.88-.85a92.35 92.35 0 01-17 2.94c-21 4.08-42.14 8-63.75 11.24 1.39.64 2.26 1.44 2.28 2.36-.32 2.2-5.28 4-11.15 4.21l-8.87.53c8.52.15 17.05.33 25.54.59a21.19 21.19 0 013.4.22c9.32-.32 18.73-.77 28.29-1.4 83.44-5.64 161.63-17.52 239.14-31a7.63 7.63 0 014.44 0c.78.48.68 1.21-.73 1.57-48.62 13.43-90.47 29.85-145.72 39.57-65.74 11.63-130.72 21.69-198.25 30.14-70.87 3-136.18 11-208.33 17.79l-18.23 1.68-9.09.8-9.57.79-16.31 1.45-17.08 1.59-69.29 6.3c-46.41 4.12-92.86 7.92-140.1 11.86-35.31 4.51-68.42-1.94-74.12-14.32-3.3-7.54 4.09-15.59 18.29-21.75-2.91.2-5.78.38-8.68.53l-13.83-.4c-13.1-.47-24.43-2.74-31.77-6.49l-10-4.57c-6.82-4.58-15.58-8.56-24.05-12.6s-16.7-8.2-22.38-13.06l2-4.24-2.57-.94c-8.41-2.21-14.26-5.56-16.54-9.5l.33-5c1.19-5.73 4.79-11.35 10.92-16.88a7.67 7.67 0 011.73-6.21c-6.07-4.49-9.22-9.48-5.29-15.67-3.52-1.13-3.16-3.31.77-4.9a21.15 21.15 0 014.72-1.19 52.3 52.3 0 00-5.21-2.61c-3.41-.11-5.39-.26-5.39-.26l-16.95-.12a48.43 48.43 0 01-11.3-3c-4.14-4-6.36-5.95-7.31-7.43s-.78-2.44-.38-4.38a16.92 16.92 0 011.38-1.23c-6.31-.59-6.76-.64-8.47-.85a17.6 17.6 0 01-3.11-1.13c-.5-2-.5-2-1.65-2.6a3.41 3.41 0 01-.56-1.51C3.22 100 3.23 100 3.25 99.36a12.44 12.44 0 011.84-1.31l6.29-1.74c2.34 1.07 4.07 1.87 5.32 2.5l2.67 1.31 1.13.56 1.66-2 2.2 2.21L23 98.81l4.4.93-5.06-1.46c10.17-.17 10.19-.18 14.2-.64a42.79 42.79 0 008.12-1 3.24 3.24 0 01-.48-1.14c10.82-.17 10.82-.2 21.29-.16A22.87 22.87 0 0168 96.57a9.52 9.52 0 015-1.22l5.48-.09 1.14-.41a.81.81 0 000-.16l4.51-1.44.93-.33h.06l19.5-6.17c3.24 0 6.26.09 9.13.27-.94-.25-1.84-.49-2.72-.77-1.75-.56-.37-2.63-1.31-2.73-11.57-1.07-23.56-1.52-35.79-1.67q-9.17-.1-18.45-.06l-18.62.09c-4.37.62-8.73-.09-9.52-1.6s2.34-3.31 6.87-3.94C83.24 61.28 144.06 57.69 195.55 62c13.45 0 27-.23 40.53-.43a59.8 59.8 0 01-2-.83l10.59.69h1.14l-8.2-2.94c-1.85-.22-3.7-.43-5.58-.61-31.41.94-60.22-2.3-90.76-3.33-16.42-.57-30.67-2.79-46.3-4-4 .14-6.84-.89-6.5-2.38s4-2.72 7.85-2.88c51.22-6.85 109.94-9.22 151.94-.24 9.38-.64 18.48-.33 26.13 1.29h.42l-6-2.54c7.06.22 11 2.38 17.45 2.94-.83-1.29-1.83-2.56-2.66-3.86 34.78 0 72.12-3.84 104.78-.05 1.3 0 2.52.06 3.73.12 13.8-3.67 27.63-7.3 44.53-8.54l-17-.38c6-1.21 12.09-2.25 18.25-3.07q2.31-.3 4.65-.57c1.56-.17 3.11-.33 4.78-.45q4.92-.37 10-.53 3.45-.11 6.94-.15H466c5.32 156.8.8 23.1 1.67 48.92l-1.18-35.47C465.9 26 466 29.35 466 29.28h4.41c4.33.05 8.71.2 13.06.43 8.71.45 17.31 1.26 25.42 2.39 16.23 2.28 30.49 5.91 39.76 10.82 66.27-4 132.65-7.77 198.69-13.21 3.41-.33 6.52.4 7.18 1.56.4 1.17-1.81 2.42-5.22 2.74-47.25 6.27-95.3 10.52-143.48 14.4 40.41.41 81 .67 122.36-.68l15.82-1.2a122.16 122.16 0 0115.66-.05c52.79-2.22 102.91-3.78 156.58-9.27 45.84-4.72 85.9-9.39 131.38-15.41 31.94-4.25 62.4-8.5 92.66-12.21 15.13-1.86 30.2-3.58 45.32-5.13s30.36-2.91 45-4.14a35.31 35.31 0 015.5-.31c.86 0 1.73.09 2.49.18a18.85 18.85 0 012.11.38c2.79.62 4.2 1.77 4.77 3.25s-.13 3-1.81 4.37a16.28 16.28 0 01-3.62 1.78 27.76 27.76 0 01-5.13 1.18c-7.51 1.25-15.41 2.46-23.37 3.63s-16 2.32-24.11 3.45q-24.27 3.38-48.78 6.56-49 6.34-98.5 11.81c-66.1 7.18-133.14 12.78-202.45 15.13l-44.3 1.41a3.07 3.07 0 01.42 1.22c.07 1.67-1.25 3.28-3.53 4.67q24.95-.47 50.23-.25c46.56-5.59 93.15-11.24 143-11.83 34.22-.34 65.31 1.73 97 3.42 39.86-4 79.64-8.58 119.45-12.84 1.58-.32 3.25-.11 3.86.43s-.2 1.21-1.79 1.54c-27.18 5.62-55.46 10.11-84 14.25 4.62 1.66 7.46 4 7.24 6.72s-3.57 5.54-8.84 7.6l19.54-.87c4-.13 7.26.78 7.23 2.18s-3.15 2.78-7 3c-26.59 1.33-53.15 2.48-79.72 3.62-31.81 3.16-63.54 6-95.46 8.66 4.52 1.65 7.9 3.78 9.57 6.28l14.8-.91q67.44-9.15 136.37-15.81 34.39-3.3 69-6l34.5-2.61c5.72-.43 11.45-.85 17.06-1.32l4.18-.36c1.37-.13 2.8-.24 4.11-.37l3.93-.41 1.78-.21.88-.1.57-.09a2.33 2.33 0 01.69 0h.09l-.13.05c-.21-.44.12 1.28.29 2.21s.43 2.07.66 3a71.51 71.51 0 002.79 9c.82 2.12 1.38 3.32 1.42 3.42a70.34 70.34 0 01-3.81-10.84c-.23-.88-.45-1.79-.66-2.75-.1-.48-.2-1-.31-1.47-.05-.24-.09-.48-.14-.72h.4c.06 0 0 0 0 0a2 2 0 01-.65.17l-.76.12-1 .13-2.21.26-4.86.48-5 .45-5.11.42-20.72 1.58-41.76 3.39h.12c1.14.31 1.4 1 .19 1.57a8.3 8.3 0 01-4.37.3c-1.31-.36-1.24-1.08-.21-1.56-51.88 4.19-103.47 9.52-154.32 16 47.41-3 94.82-5.82 142.19-7.33l15.4-3.32c1.41-.23 3.3 0 3.91.59.43.51-.57 1.23-2 1.47l-4.3.87c9-.29 16 2 16.1 5.31-.27 3.46-7.81 6.58-17.14 7-24.91 2.15-49.76 3.87-74.62 5.35l-8 1-8 2 116-1.91c3.29-.25 6.17.53 6.32 1.72s-2.45 2.36-5.76 2.61c-33.73 4.58-67.68 8.46-101.79 12s-68.38 6.54-102.74 9.28c-22.33 6.23-44.75 12.51-67.59 18.68 2.91-.05 5.85-.12 8.8-.25 74.84-3.52 137.62-21.2 209.92-28.28 1.81-.26 3.35.17 3.62.75s-1 1.26-2.81 1.37c-35.28 4-67.29 10.69-102.21 15.95-28.92 4.4-56.43 8.41-83.26 13.56 55.17-4 107.82-12.94 162.42-18.77a13.78 13.78 0 016.36.29c.11-.33.58-.67 1.3-.91a217.62 217.62 0 0121.73-5 5.68 5.68 0 014.11.4c.79.47-.06 1.12-1.67 1.56"/></g></g></svg>