<svg xmlns="http://www.w3.org/2000/svg" viewBox="0 0 107.71 68.11" class="svg" focusable="false" aria-hidden="true" role="img"><defs><style>.cls-1{fill:#0087b1}</style></defs><g id="Layer_2" data-name="Layer 2"><g id="Layer_1-2" data-name="Layer 1"><path class="cls-1" d="M38 .57c-.09-.12-.36-.12-.37.17l.39.28zm-1.14 1.68c.15.36.44.8.88.67-.35-.4-.17-.44-.59-.88 0-.29.24-.45.39-.37-.1-.12.18-.41-.06-.61a1 1 0 00-.34 1.26c-.14.09-.2-.04-.28-.07zm-7.25 26.17l.12-.13a.37.37 0 00-.12.13zM18.8 40.63c.1-.07.12-.14.1-.17s-.15.16-.1.17zm-2.88.96l.26-.09c-.11.01-.18.03-.26.09zm13.69-13.17l-.32.34c.12.1.2-.15.32-.34zm7.6-22.28a.71.71 0 00-.07-.26v.23zm-5.36 15.28v-.12a.7.7 0 00-.14-.16zm1.32-5.5c-.05.12.31.25.46.33a.4.4 0 01-.19-.33.61.61 0 00-.27 0zm2.32-8.78v-.17zM30.5 25.22h-.15a.38.38 0 00.15 0zM44.58 4.78v-.07c-.03.03-.04.05 0 .07zm-5.93-3.54h.1a.8.8 0 00.07-.2zM.38 43.57c-.62-.14-.38-.07 0 0zm54.41 13.29c-.66 0 .67-.79-.27-.75.14.09-.52.89.27.75zM37.13 6.28v.23a.53.53 0 000-.23zm17.39 49.83zm-35.79-7.5a.44.44 0 00-.07-.19s.01.09.07.19zM6.69 44.68l.16.09a.24.24 0 00-.16-.09zm16.73 4.71c.11.06.14.12.31.11a.25.25 0 01-.31-.11zm4.73 1.32l-.07-.09h-.15zM59 8.55a1 1 0 01-.13-.39c.03.28-.69.18.13.39zM37 6.11c.09 0 .13.09.13.17v-.17a.14.14 0 00-.13 0zm-12.59 40.5l.74.26a5.29 5.29 0 00-.74-.26zm45.9-18.24v-.19a.25.25 0 000 .19zM27.39 47.44a1.14 1.14 0 00.35.37.37.37 0 00.12-.07z"/><path class="cls-1" d="M53.7 7.66c.72.2.47-.37.69-.6.9.1.31.45.53.77.57 0 1.1-.3 1.49-.17 0 .09.08.14 0 .21.67-.22 1.69.44 2.47.15a.24.24 0 01.06.14 1.43 1.43 0 01.06-.68c.33.08.68-.13.72.21-.2-.06-.25.06-.36.13h.37c.18.52-.5 0-.59.35a5.89 5.89 0 012 .14c0 .47-1.22-.17-.65.4l-.74-.38c.41.85-.46-.18-.11.7 1 .41 1.21.1 2.2.5.29-.17 0-.37.31-.55 1.58 0 .85 1.4 2.08 1.12.35-.22.61-.74 1.29-.24l-.39.42c1 .32.76-.55 1.71.07-.24.14-.83-.06-.69 0 .56.58.55-.14 1.07 0v.46c1.08.22 2.33.23 3.52.47-.1.11-.34.19-.1.4a10 10 0 012.32.61l.56.22.27.12.06.06a.3.3 0 01.07.22 2.91 2.91 0 01.53-.26s-.15.14-.27.19.33-.18.51-.21c0 .12-.32.25-.44.26a.28.28 0 01.2.17.78.78 0 010 .18v.31a4.9 4.9 0 01-.71 1.9l-.05-.23c-.39.77.51 1.13 0 1.78v-.16c-.64 1.72-.78 3.76-1.68 5 .48.39-.67 1.68.07 2-.63.91-.69.59-1.29 1.93-.13.37.33.68.3 1.16l-.4-.09.25.73-.56.22v.45c.07-.16.28-.32.38-.26 0 .72-.71 1.57-.91 1.53l-.11 1.67c-.15-.08-.13-.36-.17-.59.16.95-.46 0-.31.9.12-.07.22.13.29.17a3.74 3.74 0 00-.72 1.85l-.23-.21c-.43 1.12-.66 2.45-1.15 3.7.3-.4.71-.13.61.26h-.46c.15.33.3-.32.41.28-.23.45-.58.13-.6-.18l-.09.62c-.13 0-.14-.18-.28-.27.17.34-.8.78-.52 1.3h-.13c-.55 1.2-.68 1.81-1.17 2.77.32.19 0 .53.16 1a20.72 20.72 0 00-1.71 2.07c-.21.66.16.34.18.71-.3-.14-.84.65-.75.11-.62 1-.79 1.22-1.5 2.53.21 0 .37-.14.4 0s-.51.36-.6.23v-.07a3.12 3.12 0 01-.81 1 12.86 12.86 0 01-1.16.76 3.84 3.84 0 00-1.83 1.49v-.07c-.27.36-.53.75-.84 1.09-.53.29.16-.41-.33-.33A3 3 0 0155 53.33a5.08 5.08 0 00-1.39.81 1.56 1.56 0 00-1 0 3 3 0 00-.53.18l-.11.05h-.31l-.31-.08a2.6 2.6 0 01-1-.53V54c-.38.13-.35-.24-.58-.36 0 .19.3.31.06.37-2.82-.5-5.58-1.92-8.34-2.92-1-.35-.92 1-2.06.1l.49-.32c-2.23-.08-4.25-1.21-6.41-1.35.15-.07.19-.19.39-.13-.35-.43-1.59-.47-1.67-.22-.31-.12 0-.25-.17-.43-.38-.3-1.19.09-1.33-.28 0-.06.14-.07.23-.07-.32.07-1.3-.4-1.13 0-.72-.39-1.51-.26-2.06-.64-.51.29-1.25-.56-1.53 0 .21-.57-1.21-.85-1.77-.71.21-.13-.37-.3-.12-.49-.55-.15-1.08-.18-1.07.14-.82-1-2.2 0-2.52-1.06-.87-.08-1.69-.17-2.49-.27l-.57-.08h-.26a4.68 4.68 0 01-.61-.05.79.79 0 01.63-.16c.15 0 .28 0 .37-.27a2.17 2.17 0 01-.83.24 1.88 1.88 0 01-1-.04c0-.08.62-.1.82-.15a2.64 2.64 0 01-.87-.13 5 5 0 00-1.25-.18h.69c-.16 0 .15-.05-.88-.06h.37a20.9 20.9 0 01-2.41-.07l-.79-.05h-.52c2.58.09 1.56 0 4.5.09H14.6h1.2c-.14 0-.72-.08-.76-.12s0 0 .11 0l.76.09c-.55-.07-.86-.18-.25-.26.14 0 .38.06.28.09.22-.08.16-.2.29-.4a1.53 1.53 0 01.92-.48c.06.29.16.3.25.3a.3.3 0 01.16 0 .29.29 0 01.26.13l.61-.45-.43-.14c.59-.28.89-.9 1.45-1l-.31.42a11.83 11.83 0 001-.71c-.23.07-.45.15-.68.2.42-.54-.38-.48.39-.83-.11.14.52-.34 1-.29a1.63 1.63 0 01.76-.83c.19.05.26.5.39.53 0-.26.27-.51.55-.77a1.47 1.47 0 00.54-.86.41.41 0 00.2.37v-.42c.29-.12.36-.11.47.08.7-.56-.63-.26.31-.79 0 .08 0 .09-.06.25.85-.65 1.28-1.59 2-2.22.57.1-.46.72.07.74a11.52 11.52 0 001.13-1.86 12.65 12.65 0 011.09-1.8l-.18.18c-.48-.54.86-.63.93-1.4-.05.17.21.39.17.31a9.55 9.55 0 001.26-3.06l.09.24a13 13 0 001-1.76c-.1-.24.06-.53-.26-.45 1.68-1.28.71-3.37 2-4.6 0 .18 0 .48.06.33l.24-1.35c-.33 0-.23.12-.54.32a1.26 1.26 0 01-.06-.93c0 .63.48.13.71-.08-.1 0-.18-.1-.28-.1.71-.54-.56-.28 0-1.11l.15.09a3.39 3.39 0 010-1.1c.38-.07.07.41.35.51.11-.54-.4-1.21.06-1.6v.82a1.35 1.35 0 00.6-.89L35 17l-.17.2c-.75-.86.14-1.39-.27-2.41.38 1 .29.21.67.36.16-.21.36-.54.45-.41-.24-.49.39-.67 0-1.36.13 0 .1-.45.4-.3 0-.57-.25.09-.4 0-.27-.94.91-1.92.53-3.25-.06-1.1-.46-1.37-.5-2.39.27-.3.42.35.42.35a2.14 2.14 0 00.26-1.43c.1.12.21 0 .38-.1 0-.41-.42-.35-.13-.85a2 2 0 01.44.5c0-.5-.19-1-.21-1.52.25-.09.28.36.4.56 0-.57.06-1.46-.26-1.7l-.19.33c0-.21.32 0 .36.11a.45.45 0 01-.39.66V4c-.81.22-.14 1.42-.31 2.12L36 5.69l.32.8c-.17.13-.49.18-.51-.18-.36.46.11.48-.27.86h-.09l.08.52c-.1-.12-.4 0-.27-.27-.47.83.16 1.5-.32 1.76V9.1c0 1.26.38.19.68 1.2l-1.09.44.38.19c0 .13-.12.37-.27.3.19.52.19 0 .4.27-.48.54-.15 1.71-.81 1.73.26.28.35-.54.43.15-.72.05 0 .78-.45 1.27-.32-.24 0-.73-.45-.24.52.46-.36 1-.34 1.54.47.12 0 1 0 1.87-.15-.09-.6 1.4-1 2.06h-.08c.43.26.15 1 .09 1.54-.27-.1-.35-.23-.4-.55l-.14.5A.84.84 0 0132 22l-.31-.23c-.17.67 0 1.46-.52 2.23.3.16 1.12-.37 1 .61-.18 0-.49-.1-.48-.36 0 .08.05.33-.08.45l-.17-.46c-.25.34.18.29 0 .59-.25-.1-.26.16-.44 0 0-.08.2-.22.15-.37a1.73 1.73 0 01-.71.75.28.28 0 01.26.38c-.22.66-.37.11-.65.43.11.22-.24.56.12.72-.08.18-.26.15-.39.18 0 .4-.64 1.52-.09 1.34l.06-.08v.06a3.3 3.3 0 01-.75 1.65 9.49 9.49 0 00-1 1.51v-.07a13.23 13.23 0 00-.81 1.91c-.11.17-.47.26-.54.1a1.8 1.8 0 01-.79 1.09c.14-.56-.27 0 .2-.53-.52.47-.75.47-1 1.25-.09-.4-.65.11-.79.42l.49-.2a4.07 4.07 0 01-.66.75l-.22-.43a2.85 2.85 0 00-1.2 1.45c-.29.53-.62 1-1.29 1-.07.48.69-.33.69.16-.51.4-1.44.29-1.59.41-.81.33-.24 1-1.1 1.38.18.07.52.35 0 .86-.58.32-1-.16-.74-.45.12-.09.21-.1.23 0 .14-.17.32-.37 0-.38v.18c-.33.06-1.08.47-1 .15-.33.36-.05.33.3.22a3 3 0 00-.95.42c-.14.08-.28.14-.43.21l-.65.24c.25 0 .5.07.31.15-1.9.6-.58.58-1.71 1-1.08 0-.5-.47-1.68 0-1.24.13-1-.21-.77-.4l-.47.19-.27.07h-.38c-.69 0-1.43.08-2.22.1-1.56 0-3.36 0-4.5.11l1.32-.21c-.84.12-1.72.19-2.67.25l2.59.2H2.83a8.26 8.26 0 001.86.22 4.52 4.52 0 011.72.3 13.65 13.65 0 00-1.48.08c.43.16 1 .33-.5.3-.2-.25-.83-.28-1.61-.3a11 11 0 01-2.76-.34 3.23 3.23 0 011.2.42 4.94 4.94 0 01-.91-.11c.3.37.65.3 1.62.38a10.25 10.25 0 012 .2c-1.13-.06-1.91 0-1.58 0a14.69 14.69 0 012.39.08c-.14 0 0 0 0 .07l.23.07a4.28 4.28 0 00.58.11 8.52 8.52 0 011 .17l-.24-.16a11.65 11.65 0 012.19.33c-.54 0-1-.15-1-.08 1 .08 1 .19 1.09.34s.19.32 1.06.42c.09.19-1.07.16-.86.33 1 .13 1.16.26 1.36.4a2.46 2.46 0 001.37.44c.1-.29 0-.25 1.34-.19l-2.48-.46c.79.06 1.51.1 2.17.13-.53-.16-1.6-.24-1.84-.37 1.15.06.88.06 1.2-.12-.15.2.39.29.91.34s1 .08 1.21.3l-1.09.51a6.4 6.4 0 002.27.59 8.31 8.31 0 012.24.47l-.35-.25c.24-.25.76.18 1.2.17-.11.24.11.4.24.6 0-.19.89.27 1.14-.2l.46.49c.95.41 1.33-.4 2.26-.05-.36.19 0 .49-.67.51.31.09.59.22.64 0 .14.21 1-.1 1.2.23.17-.08.29-.33.64-.21v.13s.61 0 .37-.38c.76 1.06 2.76.71 3.42 1.63.72.11 1.58.26 2.22.42-.07.06 0 .12-.15.07.8.47.73-.58 1.65 0 .39.55-.59.07-.32.32-.09.87 1.23.22 1.76.89h-.17c.43.43 1.33 0 2.14.33a.15.15 0 000 .13 6.34 6.34 0 012.64 0c-.34.26-.41.07-.36.45.38.05 0-.56.79-.46.18.25.66.55.62.92l-.68-.17c.22.55.88.23 1.22.41l-.11.19c1.06.22 1.21-.28 2.31.07l-.07-.11c.75-.33.43.42 1.14.22v.56a16 16 0 012.29 0 6.84 6.84 0 01-2 .29c.4.12 1.36.35 1.64.16-.17 0-.41.07-.55-.06a3 3 0 012.09 0c-.42.94 2 .83 2.35 1.75a5.91 5.91 0 012.14.53l.27.11.44.15.46.17.24.08a1.05 1.05 0 00.24-.06l1-.33.63-.24c-.9-.5.49-.2.06-.92.34-.22.49-.28.54-.25.44 0 .9-.05 1.34-.12s-.26.36-.14.49c.84-.4.5.11 1.15 0-.26-.19.07-.52.59-.69h-.84c.89-1 1.31 0 2.17-1.1l-.19.44c.47-.49 2-1.51 2-2.44.15 0 .41.05.23.29a8.47 8.47 0 001.62-1.93 5.73 5.73 0 011.43-1.69l.08.22c.14-.27 0-.63.41-.79 0 .06.08.21.18.11a2.32 2.32 0 01.51-1.06v.4c1.11-1.09.89-2.23 1.43-3.36.49.31 1.28-.62 1.63-1.1l.07.06c.92-1.53.93-2.9 1.36-4.46 1-.69 1.51-3.06 2.32-4.47-.18.2-.42-.18-.39-.47.23-.32-.08-1.11.41-.89l-.05.12c.59-.11.69-.89.86-1.47l-.64-.29c1.42-1.23.71-4 1.79-4.62-.08-.41 0-.86 0-1.26l.36.11a13.75 13.75 0 00.72-2.74l.2.32c.2-.7-.83-1.14-.7-1.79l.58-.08c.3-1.22 1.08-2.31.9-3.63a.31.31 0 01.2.32c.16-.57 1-2.08.16-2.08.49.12.39-1.22.38-1.92l.33.21a5.14 5.14 0 01-.3-.72 3.55 3.55 0 01.08-1.08c.14-.25.4-.25.18.11.51-.92-.17-.59.38-1.65a1.75 1.75 0 01.16.27 4.27 4.27 0 00.17-.53 1 1 0 000-.15s0-.09-.07-.07-.46 0-.85.08c-.65 0-1.45-.5-1.48-.85a1.41 1.41 0 01-1.16.07c0-.13.14-.17.22-.19-1-.53-1.67 0-2.3-.56a.25.25 0 000-.25 14 14 0 011.43.44c.09-.32-.57-.57.09-.87a4.15 4.15 0 01-2.29.05.3.3 0 01-.06-.14h.08a.72.72 0 00-.43-.06 2.19 2.19 0 00-.51-.25c0-.29-.73-.35-1.07-.46-.07.37-.49.19-.16.6h.45l.84.2a.83.83 0 01-1-.11c-.23.18-.49.37-.62.45-.34-.6-1.15-1.13-1.19-1.45-1.08-.08-2.45-.53-3.28 0-.31 0-.28-.28-.36-.42h.5c-.63 0-1.74-.4-2 0-.67-.41.53-.32-.5-.52l.18-.11c-1.78-1.29-3.55.33-5.49-1.24.14.1.21.15.22.23-2.39-1.11-5.27-1-7.56-2.36-.67-.33-.82 0-1.32.06v-.43l-.95.22c-1.13 0-1.54-1.44-3-1.19l.09.31c-.45-.18-1.53-.26-1.37-.53-.07 0-.23.22-.38 0v-.21h-1.26c-.8-.32.42-.69-.88-1.09-.51-.06-1.55.21-1.4.39s.47.27.42.47h-.47c-.24.57-.76 1.09.23 1.8l.86-.15.17.35-.65-.15c.29.37.59.19.89.1a.57.57 0 00.23.4l.91-.36c0 .26-.46.37 0 .63.42-.16-.2-.61.43-.62.29.37.12.56.62.44 0 .17-.1.25-.29.27.43-.08 1 .2 1.31-.07.29.44 1.32.27 1.13.82a2.16 2.16 0 011.15-.18c-.83.5 1.3.4.93 1.07.64-.47 1.79.2 2.72.1-.06 0-.18.1-.24 0 .45.18.54.4.81.6.2-.48 1-.4 1.45-.6.45.64-.51.49-.46 1 .09-.41 1.12-.13 1-.52.36.42.34.25.45.72.25-.6.44 0 .92-.27.55.48 0 .63.76.63.31.34-.38.39-.38.39zm17.06 3.5l-.36-.08zm1.41.38l-.61-.18c0-.14.07-.25.21-.21-.1.06.23.23.4.39zm-2.3-3.31c.24 0 .29.1.3.18l-.4-.06a.45.45 0 01.1-.12z"/><path class="cls-1" d="M69.34 8.59h-.1l.11.12.11-.09zM29.75 28.27h.07s-.05-.01-.07 0zm40.78-1.51l.1.02-.05-.14-.05.12zM33.7 21.15s.07 0 .12-.08-.07.04-.12.08zm.95-3.38l.24-.45a2.57 2.57 0 00-.24.45zm.75-2.59a.32.32 0 00-.15-.08zM15.36 44.52h.1c.32.03.18.02-.1 0zM20.83 41a2.35 2.35 0 01-.24.37c.21-.12.41-.22.24-.37zm3.5 5.58h-.01l.09.03-.08-.03zm-4.25-4.89a1 1 0 00.51-.34 1.57 1.57 0 00-.51.34zM37.67 3.82v-.13h-.06zm-.02-.15v-.15c-.02.06-.03.12 0 .15zm-.05-.46v.31c.06-.1.09-.23 0-.31zm-.73 4.04l.12.06a.22.22 0 00-.12-.06zm-.15 1.06c.07-.24.4-.58.37-1H37c.16.2-.46.69-.28 1zm-2.44 4.12l.27-.87c-.18.13-.4.3-.36-.11-.63 1.04.36-.17.09.98zm-.75 2.68c0-.48-.21 0-.28-.08.07.33.08.41.28.08zm-7.15 18.31l-.25-.23c-.13.32.1.08.25.23zm-1.1 4.1l.41-.14-.12-.38a4.71 4.71 0 01-.29.52zm-3.31-.14l.09-.14-.36.49.27-.35zm5.25 13.41v-.43c-.22 0-.44.44 0 .43zm14.19 3.55a.63.63 0 00.76.36c-.31-.12-.58-.36-.76-.36zm31.37-22.97l.05.33.04-.57-.09.24zm5.39-20.06c-.1.08-.2.31 0 .36l.35-.29zm.38 1.37a1.18 1.18 0 001-.29c-.48 0-.36-.13-.9 0a.27.27 0 010-.41c-.12 0-.15-.28-.4-.11 0 .42.12.55.52.61-.02.14-.15.16-.22.2zm-2.98 13.54l.07-.07a.16.16 0 00-.07.07zm-2.99 8.24v-.12c0-.01-.04.12 0 .12zm-.96 1.24v-.07s-.03.04 0 .07zm3.95-9.48l-.21.19c.14.05.14-.09.21-.19zM80.2 14.5a.37.37 0 00-.13-.15l.06.14zm-3.88 7.92v-.07l-.16-.1zm.73-2.87c0 .06.32.18.47.25-.14-.08-.2-.15-.21-.21zm1.63-4.34v-.09zm-3.03 9.22zM20.7 54s-.03 0 0 0zm-.63-3.52v.2a1.69 1.69 0 010-.2zm50.14-12.4c0-.08-.01-.08 0 0zM60 60.89c.43-.09.15.61.68.41-.12-.03-.3-.61-.68-.41zm20.15-46.3a.76.76 0 010 .15.24.24 0 000-.15zM60.7 61.3zM68.08 44h.18a.35.35 0 00-.18 0zm2.26-4.15l-.09.09a.25.25 0 00.09-.09zm-2.73 6.58s-.11 0-.1.14h.06s-.04-.1.04-.14zm-1.03 2.31h.09v-.08zm-38.41 7.31a2.17 2.17 0 010-.36c-.05.31-.44.25 0 .36z"/><path class="cls-1" d="M80 14.51c.09 0 .14 0 .16.08a.44.44 0 000-.1.28.28 0 00-.16.02zM70.26 47.7l-.21.35a1.3 1.3 0 00.21-.35zM45.72 61.18h-.1a.08.08 0 00.1 0zM69.6 49.19a.6.6 0 00-.32.1.16.16 0 00.06.08z"/><path class="cls-1" d="M25.35 55.78c.37.12.31-.41.46-.66.48 0 .11.41.19.7.31 0 .65-.42.85-.34 0 .09 0 .13-.05.21.4-.29.87.24 1.34-.13a.2.2 0 010 .13 2.7 2.7 0 01.14-.67c.17 0 .39-.2.37.12-.1 0-.15.09-.22.17l.21-.08c0 .48-.28.08-.38.41.38 0 .88-.3 1.11-.09-.07.44-.65 0-.42.45l-.35-.29c.11.78-.23-.12-.16.7.49.28.66 0 1.15.24.18-.21.06-.37.25-.58.87-.21.27 1.27 1 .85.23-.25.44-.78.75-.37l-.28.45c.5.2.5-.62.94-.13-.15.16-.45 0-.39.12.24.49.33-.2.6-.12l-.07.45c.56.09 1.25 0 1.88 0-.07.12-.22.23-.11.4a4.33 4.33 0 012.27 1l.39-.29c.06 0 .07.2 0 .26.24.22.08-.24.26-.34s.15.27 0 .36c.59-.17 1.63-.26 2.05.3l-.14.08c.37.27.69-.63 1-.17l-.1.05c.86.42 2 .37 2.47 1.14.29-.5.82.51 1.1-.23.4.52.22.62.87 1.08.18.09.42-.38.68-.39l-.1.39.44-.31v.52h.25a.32.32 0 01-.09-.34c.4-.07.77.53.72.73l.92-.09c-.06.16-.21.17-.35.24.56-.27 0 .43.47.19 0-.11.1-.23.13-.31a1.06 1.06 0 001 .44l-.14.25c.59.25 1.33.25 2 .46-.22-.2 0-.65.19-.63v.43c.21-.21-.16-.22.2-.45.24.12 0 .52-.15.61h.35c0 .13-.11.18-.17.33.2-.22.41.58.73.18v.13c.69.21 1 .16 1.61.3.12-.35.31-.21.56-.45a4.44 4.44 0 001.26.77c.4-.07.19-.27.41-.44-.07.33.44.45.11.61a4.93 4.93 0 001.61.12c0-.16-.11-.25 0-.34s.27.23.2.38a.94.94 0 01.69.13 3.05 3.05 0 01.32.22 5 5 0 00.5.32c.73.45 1.7.94 2.14.7h.26c0-.12.07-.25.1-.37l.18-.71c.3-.43 0 .54.33.37a3.81 3.81 0 01.67-1.69c.15-.24.22-.31.3-.45a.92.92 0 00.11-.46c1.13 0 .78-1.62 1.66-1.92l-.43-.08c-.12-.26.22-.12.33-.21-.17-.07-.28.07-.34-.09.45-1.44 1.71-2.58 2.6-3.86.3-.47-1-.82-.15-1.21l.31.38c0-1.25 1-2.07 1.09-3.27.06.1.18.16.14.26.38-.08.37-.78.14-.9.1-.14.23.07.39 0s-.12-.71.22-.69c.06 0 .07.1.07.15-.07-.2.34-.63-.06-.65.34-.3.18-.79.52-1-.29-.37.47-.57 0-.87.54.27.74-.47.59-.82.13.15.26-.13.45.06.12-.28.12-.57-.18-.65.88-.22-.1-1.25.87-1.17a17.54 17.54 0 01.34-2.58c.54.25-.28.84.32 1.05.06-.8-.26-1.4.16-2 .15-.15.2.2.27.3.06-.8.6-1.34.54-2.09.05 0 .08.11.1.19 0-.13.19-.25-.07-.34v.15c-.45.05-.58-.79-.77-.89.65.49.42-.55 1.21.14a.34.34 0 00-.27-.29c.1-.11.21-.11.36.09 0-.5-.3-.44-.14-.84.12.05.14.15.27.24-.17-.29-.32-.59-.09-.89.06.05.17.05.13.15.18-.61-.27-1.24.2-1.8.47.39.26-.15.74 0v-.39L74 36c.12-.3-.12-.68.12-.89l.11.29.11-.6-.29.26c-.13-.39-.6-.18-.33-.54 0 .1.12-.3.45-.36-.1-.2-.2-.41 0-.59.17 0 .5.22.62.22-.34-.28.14-.75-.21-1.08a.79.79 0 00.37.18l-.27-.23c.15-.11.21-.11.4 0 .2-.41-.64-.07-.22-.49 0 0 .07 0 .09.15.3-.47.12-1 .44-1.47.52 0 0 .45.43.42.13-.7-.1-1.58.22-2.2l-.1.11c-.64-.31.49-.38.28-.81 0 .09.34.22.27.17.25-.41.12-1 .12-1.71l.15.14c.24-.22.31-.67.47-.94-.15-.13-.07-.29-.35-.27 1.25-.59 0-1.84 1-2.38 0 .1.09.27.11.19v-.71c-.31 0-.2 0-.47.11a.59.59 0 01-.19-.53c.11.36.48.13.68.05-.1 0-.18-.08-.28-.09.62-.2-.58-.23-.09-.61l.15.07c0-.2-.19-.42-.09-.6.37 0 .11.23.38.32.06-.27-.49-.71-.08-.86.06.14 0 .31.08.45.47-.16.38-.22.5-.4l.3-.41-.14.09c-.8-.59 0-.74-.44-1.36.44.6.3.16.68.3.14-.09.31-.24.41-.16-.26-.3.34-.29 0-.72.13 0 .08-.23.38-.1 0-.31-.24 0-.39-.05-.32-.54.81-.89.35-1.73-.13-.63-.56-.8-.73-1.32.22-.17.46.18.46.18a.66.66 0 000-.81c.11.06.21 0 .35-.1-.06-.24-.47-.12-.32-.45a1.67 1.67 0 01.54.19 6.76 6.76 0 00-.61-.8c.2-.14.37.1.54.19-.15-.35-.47-.89-.85-.82v.25c-.07-.1.25-.18.35-.11.37.2 0 .46-.1.5l-.14-.18c-.32.22-.26.37-.09.57s.38.42.37.62l-.5-.1c.16.12.32.24.47.37-.14.09-.45.14-.53 0-.28.26.2.24-.12.45a.08.08 0 01-.1 0l.15.26c-.11-.06-.39 0-.3-.14-.35.4.33.77-.11.87.07.65.4.12.76.7l-1 .09.37.16a.18.18 0 01-.24.11c.21.31.18 0 .4.21-.44.22-.06.9-.71.81.27.19.31-.24.43.15-.69-.09 0 .41-.37.61-.32-.18-.07-.4-.45-.2.54.33-.28.52-.23.79.46.14.06.57.1 1-.15-.07-.47.68-.74 1h-.07c.44.2.25.56.27.87-.28-.09-.38-.17-.46-.36l-.07.26a.46.46 0 01.19.4l-.33-.17c-.08.35.21.82-.16 1.2.32.12 1-.09 1.09.45-.18 0-.48-.11-.52-.25 0 .05.1.19 0 .25l-.35-.33c-.19.16.22.18.14.33-.25-.07-.21.07-.4 0 0-.05.14-.11.06-.2a.75.75 0 01-.52.36c.14 0 .33.1.33.25-.09.35-.34 0-.53.19.15.13-.1.3.28.42 0 .1-.22.07-.33.08.11.23-.2.85.26.77.19.7-.59 1.15-.62 1.78h-.12c0 .4-.16.8 0 1.14 0 .1-.3.17-.44.08 0 .29.14.37-.19.68-.13-.34-.23 0-.07-.32-.23.3-.45.32-.23.8-.28-.23-.49.12-.45.32l.31-.17a1.41 1.41 0 01-.18.51l-.39-.23c-.74.53.45 1.56-.59 1.8.23.28.34-.31.62 0-.17.3-.88.43-.92.53-.38.36.47.62.15 1 .16 0 .58.07.6.47a.5.5 0 01-.81-.07.1.1 0 01.13-.08c0-.13 0-.28-.24-.21l.13.09c-.21.11-.35.55-.55.36 0 .29.2.19.34 0-.36.33-.24.64-.54 1h.28c-.41.55.18.37.09.82-.31.15-.51-.29-.47.2-.25.21-.41-.09-.5-.23.15.49-.45.64-.58.84v-.25a.63.63 0 01-.06.35h.34c-.09.09-.13.19-.25.15.14.19.52.09.69.43-.21.1 0 .54-.43.45.32-.45-.42-.1-.32-.54a.31.31 0 01-.12.29s-.08-.05-.09-.09c-.53.34.36.39.16.88-.19-.15-.46-.05-.44 0 .08-.2.4 0 .5.29-.29.25 0 .39-.09.55l.15-.16c.2.15.11.3.09.55-.18-.05 0-.25-.14-.2.29.4-.61.39-.49.83-.22.1-.42-.15-.58 0 .13.49-.46.29-.39.78.34 0 .28-.05.45.35l.06-.74.25.6c.09-.2 0-.5.09-.59.16.29.09.24.37.25-.55.09 0 .64-.38.83l-.7-.32c-.51.34 0 1-.4 1.52l.21-.14c.26.2-.12.39-.08.63-.24-.12-.38 0-.56 0 .18.07-.21.44.25.69l-.43.14c-.34.43.45.85.17 1.29-.21-.26-.47-.12-.52-.51-.07.15-.17.27 0 .35-.18 0 .14.57-.15.62.07.11.31.24.22.41a.3.3 0 01-.12-.06c.12.06 0 .35.37.31-1 .15-.55 1.37-1.37 1.5a7.28 7.28 0 01-.31 1.14c-.06-.06-.12-.06-.07-.11-.42.32.56.58.09 1-.5.06-.09-.36-.3-.27-.82-.3-.17.63-.77.74v-.1c-.38.12 0 .75-.24 1.12a.32.32 0 00-.11-.06 2.25 2.25 0 01.03 1.42c-.24-.27-.07-.26-.42-.33 0 .19.52.19.44.58-.22 0-.49.21-.83.08l.14-.34c-.51 0-.19.43-.35.57l-.17-.11c-.18.52.28.76 0 1.28H64c.31.53-.39.12-.19.58l-.51-.15a5.42 5.42 0 010 1.29 3.47 3.47 0 01-.3-1.21c-.1.19-.29.66-.11.88 0-.1-.07-.26 0-.3a1.16 1.16 0 01.07 1.2c-.86-.53-.74.87-1.58.77 0 .84-.83 1.25-1.19 2 .85.1-.1.23.64.57 0 .2-.1.26-.15.25l-.73.32c-.27 0-.06-.26-.23-.33-.13.18-.23.18-.34.16a1.23 1.23 0 01-.31-.14c.26.14.34.25.23.22a1.5 1.5 0 00.34.16c.12.22 0 .18-.18.06s-.24-.26-.14 0a2.44 2.44 0 00-.14-.28c.06.21 0 .06-.05.71a1 1 0 010-.4h-.61a1.23 1.23 0 01-1.06-.28l.11-.17c-.15 0-.34.29-.46 0 0-.07.11-.17 0-.2s-.47.23-.62.06l.22-.17c-.65-.46-1.26.2-1.91.15.17-.56-.35-.92-.61-1.09v-.08c-.82-.32-1.56 0-2.41 0-.31-.75-1.57-.74-2.25-1.31.09.14-.15.43-.3.45-.15-.17-.62.24-.44-.27h.06c0-.54-.41-.52-.7-.62l-.24.66c-.48-1.21-2.12-.24-2.28-1.24-.23.11-.46 0-.7.16l.12-.36a4.06 4.06 0 00-1.39-.47l.2-.22c-.35-.12-.75.91-1.09.84l.06-.57c-.63-.18-1.12-.84-1.88-.53 0-.08.1-.23.2-.22-.29-.1-1-.7-1.14.07.14-.48-.63-.24-1-.13l.16-.34c-.42.37-.46.5-.9.5-.08-.07 0-.3.1-.18-.26-.28-.34.27-.66 0l.2-.19c-.31-.12-.32 0-.58.22s-.58-.27-.54-.61c-.1.19-.35.4-.51.25a.23.23 0 01.14-.21c-.47-.4-.92.17-1.19-.29a.43.43 0 000-.23 2.88 2.88 0 01.72.28c.1-.33-.23-.49.18-.86-.35.16-1 .56-1.28.3a.41.41 0 010-.12.23.23 0 00-.23 0 .87.87 0 00-.26-.18c0-.28-.35-.26-.52-.33-.09.37-.3.24-.17.6h.25l.43.1c-.19.14-.37.25-.51 0-.15.2-.32.41-.41.51-.09-.57-.47-1-.44-1.31-.59 0-1.28-.23-1.81.34-.17 0-.12-.24-.14-.36s.21 0 .28-.09c-.35.09-.91-.19-1.12.26-.31-.33.34-.37-.2-.45l.11-.12c-.8-1.06-2 .71-2.86-.59a.3.3 0 01.09.2c-1.17-.81-2.78-.39-3.86-1.44-.33-.24-.45 0-.74.21v-.41l-.5.34c-.63.16-.66-1.22-1.51-.81v.29c-.23-.13-.82-.08-.69-.37 0 0-.12.19-.19.14h.13c-.05 0 .07 0 0 0a.23.23 0 01-.2 0c.07-.13.29-.08.48-.07h.01a.51.51 0 01-.2-.18v-.08l-.22-.27a.38.38 0 01.12-.17c-.05-.31 0-.63-.08-.91s-.13-.27-.34-.35a1.25 1.25 0 00-1 .17 1.84 1.84 0 00-.27 1.08 1.9 1.9 0 00-.37.2 2.49 2.49 0 01.32-.81c-.53.32-.38.78-.25 1.1a.54.54 0 00-.34.43 2.47 2.47 0 00.87.86c-.07.12-.23.08-.36.08s-.21.07 0 .5c.34.17.31-.06.35-.21s.1-.21.45 0l.12.3.26.11c0 .2 0 .29.23.16a.28.28 0 01-.19.29c.25-.12.54.08.74-.21.1.39.69.11.5.67a1.08 1.08 0 01.67-.31c-.53.58.66.24.37.94.42-.54 1 0 1.49-.22 0 0-.12.12-.15.08.23.12.25.33.37.49.18-.49.59-.49.89-.74.16.57-.35.53-.39 1 .1-.41.63-.25.63-.62.14.37.15.21.15.66.22-.62.24 0 .55-.37.24.4-.09.61.33.52.22.31-.17.43-.17.43zm8.95 1.47h-.18zm.73.21a1.62 1.62 0 00-.31-.1c0-.13.08-.25.15-.23s.13.2.13.33zm-.81-2.93c.12 0 .14.06.14.14h-.22a.62.62 0 01.08-.14z"/><path class="cls-1" d="M33.87 54.94a1 1 0 000 .1l.08-.1zm41.79-28.8zm-30.8 34.97l.03-.09-.09.06.06.03zm33.2-38.61h.11zm.57-1.72l.2-.21a1.2 1.2 0 00-.2.21zm.54-1.29a.66.66 0 00-.15-.07zM72.7 40.67a.06.06 0 000 .06c.02.14.02.05 0-.06zm1.48-6.48a1 1 0 01.09.26c.07-.1.11-.18-.09-.26zm-3.89 13.47h-.01l-.02.04.03-.04zm3.88-12.92a.27.27 0 00.1-.29.43.43 0 00-.1.29zm5.75-21.8a.29.29 0 000-.09h-.06zm-.08-.08l-.08-.08s.04.08.08.08zm-.25-.23l.17.15c-.03-.07-.06-.16-.17-.15zm.47 2.57h.13zm-.01.63c0-.14.33-.35.25-.57h-.11c.2.09-.35.41-.14.57zm-2.13 1.99l.23-.42c-.17 0-.38.1-.36-.12-.57.46.34-.03.13.54zm-.57 1.34c0-.26-.21-.05-.28-.08.09.18.11.23.28.08zm-2.96 9.99l-.31-.15c-.02.22.12.07.31.15zm1.04 2.45l.26-.11-.27-.18.01.29zm-2.67.35l-.01-.1.01.34v-.24zm-6.3 16.25l.41.12c-.02-.15-.43-.32-.41-.12zm-2.84 6.99c-.23 0-.44.11-.32.32.11-.14.33-.22.32-.32zm-15.9 3.27l.19-.09-.31.03.12.06zm11.67-34.81v-.32l-.07.44zm-.09-.82a5.38 5.38 0 00-.14 1c.07-.42.06-.24.14-.74v.3c0-.11 0 .1.07-.17s0-.36-.11-.08a2.36 2.36 0 01.04-.31zm-2.38-.91s.01.01 0 0zm-1.51-.35v-.09a.14.14 0 000 .09zm-.23-.5s.01-.07 0 0zm1.74.85v-.14c-.04.14-.02.11 0 .14zm1.94 1.93a.5.5 0 000-.12v.05zm-1.24-2.23v-.18zm.53-.02s0 .35-.07.51a.82.82 0 01.05-.25c0-.07.01-.15.02-.26zm.75.73zm-1.64-.82zM43 24.25zm-.77-1.8l.01-.02-.02-.21.01.23zm8.06-1.74c.05.33-.09.42 0 .79a4.08 4.08 0 000-.79zm8.56 3.09zm-8.57-2.3zm3.32-.76zm.8.57v-.06a.22.22 0 000 .06zm-1.24-.06s0-.09 0 0v.05c-.02-.09-.02-.11 0-.05zm-.45-.02v.06zM44.26 24v-.33c-.02.24-.08.33 0 .33zm14.62-.36a.62.62 0 010 .16zm-5.88.55v-.06a.13.13 0 000 .06zm-5.64-.4v.05s-.01 0 0-.05zm5.39.39a1.26 1.26 0 000-.26v.09zm-8.53-.54z"/><path class="cls-1" d="M43.82 24.55c.07 0 0-.48 0-.76s.06.36.1.61c0-.13 0-.59.09-.57s0 .11 0 .21c0-.39.15 0 .18-.52v.12-.67s0-.31.07 0v.22-.14c.06.46 0 .16 0 .5.05-.15.1-.54.15-.41 0 .45-.1.16 0 .55l-.08-.16c.09.7 0-.05.05.7.1.13.09-.23.19-.11v-.62c.1-.45.16 1.13.23.53 0-.31 0-.88.07-.58V24c.09.05 0-.73.12-.39s-.06.17 0 .23c.08.4 0-.29.07-.3L45 24c.1-.07.19-.4.29-.49a1.88 1.88 0 000 .41c.13-.23.29 0 .43.31v-.39a.85.85 0 010 .25c.06.14 0-.25 0-.4s.05.22 0 .33c.07-.33.23-.72.34-.3v.11c.08.16.05-.8.14-.44v.07c.16.16.33-.2.47.39 0-.57.16.24.15-.54a3.59 3.59 0 00.21.78s0-.49.08-.57v.41-.43.49-.11a.88.88 0 010-.3c.06-.19.16.28.17.49l.13-.35a1 1 0 010 .33c.07-.42 0 .43.09 0v-.32c0 .24.12.24.18.14v.28c.1.07.22-.14.34-.13a2.17 2.17 0 010-.67v.43a2.65 2.65 0 010-.49 1.85 1.85 0 010 .63l.06-.15v.36c0-.27.1.44.13 0v.13c.12 0 .17-.15.27-.17a3.09 3.09 0 01.07-.6c.07.12.16.41.24.38a2.84 2.84 0 000-.54c0 .34.09.31.05.56.1-.06.13-.07.26-.35a1.78 1.78 0 010-.31c0-.06.05.14.05.3.15-.51.34 1 .46.28l.13-.37c.06.06 0 .26 0 .47.13-.57.21.08.32-.29.08 1 .3-.07.41.57V24c0-.23 0 .14.06.19a2.06 2.06 0 010-.34c.26-.28.51.36.76.57s.08-1.22.19-.65v.44c.2-.53.38 0 .58-.42a1.11 1.11 0 010 .23c0 .32.14 0 .15-.24a1.94 1.94 0 010 .37c0 .19.11-.4.12-.08a.2.2 0 010 .12c0-.15.12.05.11-.32.06.18.14-.16.19.06.05-.41.11.2.14-.38 0 .6.1.49.16.21v.44s.1-.12.11-.43c.06.72.21-.57.22.35a2.63 2.63 0 01.46-.66c0 .6-.16.05-.18.68.14-.24.24-.75.36-.6a1 1 0 010 .36c.14-.24.24.07.38-.25a.94.94 0 010 .16s.05.09.06-.18v.07a6.41 6.41 0 01.14-1c-.08.78.11.21 0 1.19a1.1 1.1 0 000-.36.86.86 0 010 .36c.09-.14.07-.43.15-.42s0 .18 0 .33c0-.25.1-.5.15-.39s0 .18 0 .18.22-.67.32-.42c-.07.57 0 .19 0 .69l.07-.15v-.24s.12-.34.16-.18v.2l.1-.09v-.19c.07-.25 0-.62.1-.48s.05 0 .06.3c0-.15.08-.32.11-.19s0 .55 0 .65c.06-.41.14-.1.2-.54v.41-.33a1.1 1.1 0 010 .37c.08.06 0-.63.09-.36v.13c0 .05.19-.2.26 0 0 .5-.08.12-.08.54.12-.08.29-.58.4-.45v-.06c.07-.7.06.35.14 0v.31c.07.12.17-.16.31-.37v.18c0 .16.12.1.16.18a1.27 1.27 0 00.06-.41c.08 1 .35-.52.42.34 0 0-.06.16 0 .16l.13-.16a1.86 1.86 0 000-.42c0-.18.08-.32.11-.32a1.91 1.91 0 000 .67v-.3c0 .55.07-.61.12-.24v.16c0-.07.09-.28.12-.24 0 .36 0 .17-.08.46 0 0 .16-.66.17-.31 0 .1-.06.1-.09.19 0 .42 0 .32.06.39l.07.19v-.16c.14-.92.13-.16.27-.76a3 3 0 00-.09.73 1.45 1.45 0 010 .36c.07-.32 0 .26.14-.21v.34c.06-.1 0-.23 0-.39.12-.43.13.55.3 0 .12-.24.18-.67.29-.88a1.66 1.66 0 01-.07.47c0 .19.06.16.13 0a1.27 1.27 0 000 .35s.08-.46.1-.27a4.54 4.54 0 01-.09.51c.06-.11.13-.35.18-.46a2.16 2.16 0 01-.09.48 1 1 0 00.2-.54v-.13a1.45 1.45 0 010 .37c-.07.27 0-.13 0-.26v-.08c.05-.76-.14.11-.2.06l.09-.55-.11.45a2 2 0 01.06-.53c0-.27-.06.19-.07-.11a.25.25 0 010-.1l-.06.16v-.31c0-.32-.17.4-.16 0-.13.17-.05.4-.18.87v-1l-.05.4v-.21a3.41 3.41 0 00-.06.43c0-.37-.17.16-.12-.48v.45c0-.7-.08.11-.1-.21s.08-.17.06-.49c-.09.6-.09-.14-.14 0-.05.48-.11.19-.2.35 0-.16-.11-.28-.16-.46v-.08c-.05.49-.11.39-.17.48a3.82 3.82 0 01.08-.53.82.82 0 01-.09.29l.05-.36c-.07 0-.17.41-.23.16a5 5 0 01-.12 1.17 4.62 4.62 0 01.07-.57v.07l.06-.3c0-.14 0 .25-.07.22v-.39s0 .11 0 0a1 1 0 01-.05-.4 1.23 1.23 0 01-.06.38c-.06 0 0-.31 0-.45 0 .18 0 0-.09.38a2.65 2.65 0 010-.29c-.05.16-.16 0-.15.45V22c-.14.38-.21-.24-.33-.08v-.13c-.07.14-.15.07-.21.35a1.12 1.12 0 010-.4c-.06.1-.07.24-.13 0s0-.2.07-.16c-.06-.12-.06-.33-.15 0 .05-.33 0-.42-.06-.32v.24c0 .05-.06 0-.09 0v-.44c-.1-.55-.3.89-.34 0-.05.3.06.22 0 .58-.05-.06-.07-.7-.09-.7-.07-.25-.12.63-.19.46a2.45 2.45 0 01-.09.72 2.06 2.06 0 010-.78v.09a.63.63 0 000-.3v.16c0-.16-.1-.15-.07-.41a.57.57 0 000 .34c-.06-.23-.12 0-.19-.17a1.14 1.14 0 010 .27c-.1-.2-.07.3-.15.36 0-.24.05-.57 0-.37a1.4 1.4 0 010-.55c-.09.3-.12-.2-.16-.26v-.13c0 .08 0 .07-.06.07v.32a.29.29 0 010-.19c0 .2 0 .52-.07.8 0-.16-.1.17-.09-.25.09.15 0-.42.1-.48s0 0-.06 0a.27.27 0 010-.11c-.07-.38-.07.47-.16.45v-.4a1.58 1.58 0 010 .58c0-.19-.08.13-.11.11v.08c0 .24-.06.21-.1.28v-.21c-.06.41-.08-.43-.16-.16v-.55c-.09.3-.06-.32-.15-.08a1.45 1.45 0 01-.05.55l.13-.22-.1.46s.09-.2.11-.14a1.1 1.1 0 000 .44c0-.48-.11.27-.16-.05v-.78c-.07-.36-.18.39-.28.19v.14c0 .31-.07 0-.12.16a2.77 2.77 0 000-.52c0 .2-.09 0-.12.5v-.34c-.09-.15-.14.74-.23.64a3.84 3.84 0 01.08-.67s-.06-.05-.07.13c0-.16-.09.35-.11.1 0 .11 0 .39-.06.37v-.09a1.91 1.91 0 00-.35.5c-.06-.82-.26.05-.31-.65-.07.08-.15.17-.21.18s0-.13 0-.1c-.07-.25-.07.75-.16.48 0-.43.06-.23 0-.39 0-.87-.12.11-.17-.39v-.05c0-.3-.13.32-.2.25v-.13a1.41 1.41 0 01-.25.71 2.28 2.28 0 000-.52s0 .55-.08.64a6.5 6.5 0 01-.06-.71h.07c0-.48-.09 0-.12-.07V21c-.1.07-.11.59-.21.55v.16c-.06.51 0-.29-.1.09v-.53a3.64 3.64 0 01-.21.61 6.72 6.72 0 01.18-.82s-.13 0-.15.3c0-.05 0-.18.05-.1-.05.41-.12.61-.19.6 0-1-.19-.26-.23-1.05-.14.38-.26-.16-.42-.1.05.79 0 0 0 .83 0 .05 0 0 0 0l-.06-.54v-.36c0-.18 0-.34-.09-.56 0 .29 0 .42-.07.31l.06.37c-.11.43-.09-.68-.2-.25v-.26c-.06.15-.21 0-.27.65a1.17 1.17 0 010-.38c-.14-.1-.31.7-.41.3v-.2c0 .06 0 .37-.08.17a1.38 1.38 0 000-.21c0 .07-.07.35-.1.23v-.22c-.14-.26-.2.55-.31.68a1.61 1.61 0 00-.17-.87v-.08c-.16-.07-.26.49-.4.72-.1-.63-.31-.26-.45-.61a2.09 2.09 0 010 .51c0-.12-.09.41-.09-.13 0-.52-.1-.38-.16-.39v.7c-.16-1-.36.38-.46-.53 0 .18-.07.18-.1.35v-.34c-.09-.1-.14-.14-.26-.05v-.27c-.07 0 0 1.09-.11 1.11v-.56c-.12 0-.25-.48-.35 0a.94.94 0 010-.27c-.06 0-.22-.37-.18.4 0-.51-.12-.05-.17.17v-.33a2.16 2.16 0 01-.1.74v-.2c-.07-.19 0 .35-.11.16v-.24c-.06 0-.05.1-.07.38s-.12-.09-.14-.43c0 .21 0 .48-.06.39a.83.83 0 010-.25c-.11-.24-.13.44-.22.08a.88.88 0 000-.22c.08 0 .15 0 .14.05a5.29 5.29 0 01-.05-.87c0 .26-.1.82-.17.66v-.19c0-.29-.08-.15-.12-.16a3.79 3.79 0 000 .62.06.06 0 010-.07h.08c0 .19 0 .35-.08.15v.6c-.07-.52-.17-.8-.2-1.11a1.18 1.18 0 00-.24.85c0 .09 0-.2-.06-.31s0-.06 0-.16c0 .18-.15.07-.14.56-.08-.21 0-.45-.07-.36v-.15c-.23-.77-.23 1.26-.49.27v.17c-.26-.42-.45.45-.73-.24-.08-.13-.06.18-.08.42v-.4L43 22c-.07.34-.24-1-.32-.32v.27c0-.05-.13.16-.15-.15v.15-.21l-.09.36c-.09-.14-.05-.83-.17-.86a3 3 0 00-.06.76.73.73 0 01.08.33v.12a8.46 8.46 0 00.19 1.67v-.38l.05.29h-.06c.06.28.06 0 .07-.15a2.36 2.36 0 000 .33v-.59a2.44 2.44 0 00.06.61 6.64 6.64 0 010-.72c0 .27.06.5.08.26a1.28 1.28 0 010 .33c0-.19.08-.09.07-.42.07.35.12-.09.16.49a1.93 1.93 0 010-.49c0 .7.13 0 .16.78 0-.63.14-.29.19-.64v.12c0-.03.07.24.11.35a6.23 6.23 0 010-1 10.23 10.23 0 01.06 1.09c0-.42.06-.43 0-.78a3.74 3.74 0 01.1.58v-.51c.08.31.06.61.11.4a1.36 1.36 0 01.18.48zm1.46-1.2zm.13 0a.86.86 0 010-.25 1.47 1.47 0 000 .23zM45 20.76v.15-.15zm0 .49v.09-.12zm11.94.75z"/><path class="cls-1" d="M47.22 23.98l-.01-.09-.01.08.02.01zm10.33-.66a.14.14 0 000 .09zm.3.11v.13a.49.49 0 000-.13zm.21.2v-.16zm-3.77.17c-.03.09-.02.06 0 0zm1.17-.8a1.43 1.43 0 01-.05.18s.04.03.05-.18zm-2.43 1.19zm2.33-1.03c0 .07 0 .06 0 0s.02-.06 0 0zm3.71.74zm.01-.04s.01-.04 0 0zm.06-.13v.09s-.02.01 0-.09zm-.37-.03zm-.09.03s0 .29.06.21v-.11c-.02.17-.02-.33-.06-.1zM58.44 22l.07.12v-.37c-.02-.42.03.34-.07.25zm-.23-.21v-.29a.49.49 0 000 .29zm-1.82-.15v-.34c-.01.05.02.13 0 .34zm-.47 1.73l.02.21.04-.31-.06.1zm-.04-2.43l.02-.05-.06.12.04-.07zm-3.08-.03v.41c.02-.07.04-.54 0-.41zm-1.34.39c0-.21 0-.35-.07-.14.03.03.06.19.07.14zm-3.98-.68l.02-.14-.04.12.02.02zm3.06 10.08v-.32l-.07.43zm-.05-.83a8.61 8.61 0 00-.14 1c.07-.42 0-.25.13-.74v.3c0-.11 0 .1.06-.17s0-.36-.08-.09a2.58 2.58 0 01.03-.3zM48.62 29s.01 0 0 0zm-1.17-.39a.17.17 0 000-.09.2.2 0 000 .09zm-.16-.51c.01-.01.01-.03 0 0zm1.33.9v-.14c-.03.14-.01.14 0 .14zm1.49 1.9a.53.53 0 000-.11zm-.92-2.22v-.17zm.42-.02s0 .36-.07.52a2 2 0 010-.26c.05-.07.06-.15.07-.26zm.57.73v-.05s.01.03 0 .05zm-1.27-.82a.66.66 0 000-.13v.13zm-11.69 1.54V30s-.01.11 0 .11zM37 28.22a1.49 1.49 0 010-.22zm10-.63c0-.04 0-.03 0 0zm-3.51-.11c0 .34-.11.42-.09.8a5.73 5.73 0 00.09-.8zm6.61 3.37zm-6.7-2.57zm2.68-.56a.92.92 0 000 .16v-.16zm.59.59s-.01 0 0 0zm-.98-.11s0-.08 0 0-.01-.06 0 0zm-.35-.03zm-7.04 1.88v-.34c-.01.29-.07.36 0 .34zm11.83.64a.62.62 0 010 .16c-.01-.08 0-.13 0-.16zm-4.78.44l-.05-.06a.1.1 0 00.05.06zm-4.54-.86s-.01.04 0 0zm4.32.83a2.14 2.14 0 000-.26v.1z"/><path class="cls-1" d="M37.86 30.55s.07-.47.12-.75 0 .36 0 .61a5.31 5.31 0 01.16-.55 1.83 1.83 0 010 .21c.08-.38.12 0 .22-.48v.12c0-.25 0-.49.06-.67 0 0 .08-.3.06 0v.21-.13c0 .46 0 .15-.09.49.07-.14.16-.52.19-.38-.05.45-.11.14-.1.54v-.18c0 .72 0-.05-.07.71.06.14.11-.22.17-.08 0-.25 0-.37.08-.61.15-.44 0 1.13.1.54.06-.29.13-.86.15-.55l-.08.5c.07.06.13-.72.16-.37 0 .19-.07.16-.07.22 0 .41.07-.28.11-.28v.45c.08-.06.2-.38.3-.45a2.7 2.7 0 00-.05.41c.14-.21.23.08.31.36l.08-.38a.84.84 0 010 .25c0 .15 0-.25.06-.4s0 .23 0 .34c.11-.32.29-.68.32-.26v.11c0 .17.15-.78.17-.41v.06c.11.18.29-.15.32.44.08-.55.1.26.2-.51a3.54 3.54 0 00.07.8s.09-.48.13-.56v.41l.09-.43v.49-.1a1.06 1.06 0 010-.3c.07-.18.09.3.06.51l.16-.34a2.34 2.34 0 01-.07.32c.11-.4 0 .43.06.06a3.11 3.11 0 010-.32c0 .24.07.25.13.16v.28c.08.08.2-.12.3-.1a2.55 2.55 0 01.07-.67v.44a2.41 2.41 0 01.06-.49 2.23 2.23 0 01-.07.63l.06-.15c0 .13 0 .2-.05.36.05-.26 0 .44.11 0v.13c.1 0 .16-.13.24-.14a3.24 3.24 0 01.12-.58c.05.12.08.42.15.4a3.73 3.73 0 00.1-.54v.56c.09-.05.11-.06.25-.32a1.62 1.62 0 010-.32v.31c.17-.5.17 1 .34.32l.14-.35v.46c.17-.55.16.1.29-.26 0 1 .25-.05.27.6v-.38c.24-.26.39.39.57.62.07.07.18-1.21.21-.64l-.07.43c.21-.5.31.06.51-.37a1.45 1.45 0 010 .23c0 .32.11 0 .14-.23a2.88 2.88 0 010 .36c0 .19.13-.39.11-.08a.31.31 0 010 .13c0-.15.09.05.11-.32 0 .18.13-.15.15.07.07-.4.07.21.15-.37-.07.6 0 .5.11.22v.44s.09-.11.12-.42c0 .72.21-.56.15.36a2.59 2.59 0 01.42-.64c-.07.6-.13.05-.19.67.13-.23.24-.74.33-.58a1.23 1.23 0 01-.06.36c.12-.24.19.07.32-.24v.16s0 .09.06-.18v.07a7.91 7.91 0 01.19-1c-.12.77.07.21-.09 1.18a1.69 1.69 0 00.07-.36 1.25 1.25 0 010 .37c.08-.14.09-.43.15-.42a2.33 2.33 0 01-.06.33c.06-.25.12-.5.16-.38s0 .18 0 .17.22-.66.28-.4c-.09.56 0 .19 0 .68l.07-.14v-.24s.12-.34.14-.18l-.06.2.1-.08v-.2c.07-.24.06-.62.11-.48s0 0 0 .31c0-.15.08-.32.1-.19s-.07.54-.07.65c.06-.41.11-.11.19-.54a4.09 4.09 0 000 .41v-.33a1.28 1.28 0 010 .37c0 .07 0-.63.09-.35v.12c0 .05.17-.19.22 0 0 .5-.08.11-.1.53.11-.07.27-.57.35-.44v-.06c.09-.7 0 .36.11 0a1.27 1.27 0 000 .31c.05.12.15-.16.27-.37v.18c0 .17.08.11.12.19a1.71 1.71 0 00.06-.41c0 1 .3-.52.32.35a.42.42 0 000 .15l.12-.15v-.43c0-.24.07-.32.1-.31a2.17 2.17 0 00-.06.66v-.29c0 .54.07-.62.1-.24v.16c0-.08.08-.29.1-.24 0 .35 0 .16-.08.45 0 0 .15-.66.15-.31 0 .1-.05.1-.08.2v.57-.11c.15-.92.12-.16.25-.75a3.06 3.06 0 00-.1.72 1.45 1.45 0 010 .36c.06-.32 0 .25.12-.21a2.2 2.2 0 010 .34v-.39c.11-.43.09.55.24 0 .11-.24.17-.68.26-.88a2.16 2.16 0 01-.07.46c0 .2 0 .16.1 0a1.89 1.89 0 000 .35s.07-.46.08-.27 0 .37-.08.52c0-.12.11-.36.15-.47a2.25 2.25 0 01-.08.48 1.24 1.24 0 00.17-.54v-.13a1.45 1.45 0 010 .37c-.07.27 0-.13 0-.26v-.08c.06-.76-.12.11-.16.06l.08-.54-.1.45a2.61 2.61 0 01.06-.54v-.11a.78.78 0 010-.09v-.15c0-.33-.15.4-.13 0-.11.17-.05.4-.17.86l.06-1-.05.4v-.21c-.06.27 0 .17-.06.43 0-.37-.14.16-.08-.48 0 .3 0 .24-.06.45.07-.69-.06.11-.07-.21s.07-.16.06-.49c-.09.6-.06-.14-.11 0 0 .48-.09.2-.17.35 0-.16-.07-.27-.11-.45v-.08c-.06.48-.11.38-.16.48a4.89 4.89 0 01.09-.53.78.78 0 01-.07.29v-.36c-.06 0-.15.42-.19.17a7.08 7.08 0 01-.14 1.16 4.89 4.89 0 01.07-.57v.07l.06-.3c0-.14 0 .25-.06.22v-.39s0 .11 0 0a1.29 1.29 0 010-.41 1.64 1.64 0 01-.06.38c-.05 0 0-.31 0-.45 0 .18 0 0-.08.38a1 1 0 010-.29c-.05.17-.13 0-.15.45v.05c-.13.37-.15-.24-.25-.09v-.13c-.07.15-.12.08-.19.36a1.51 1.51 0 010-.4c0 .09-.07.24-.1 0s0-.2.05-.16c0-.12 0-.33-.11 0v-.33.24c0 .05 0 0-.07 0l.06-.44c-.05-.55-.29.89-.26 0-.07.3 0 .22 0 .57a6 6 0 010-.7c0-.25-.13.64-.18.46a3.38 3.38 0 01-.11.72 2.68 2.68 0 01.05-.78v.09a.73.73 0 00.05-.3v.16c0-.16-.08-.15 0-.41a.61.61 0 000 .34c0-.23-.09 0-.14-.17a1.47 1.47 0 010 .27c-.07-.21-.07.29-.14.35 0-.24.08-.57 0-.38a1.86 1.86 0 01.07-.54c-.09.3-.08-.21-.11-.27v-.12c0 .07 0 .07-.05.07v.31a.33.33 0 010-.19c0 .21 0 .52-.11.8 0-.16-.09.16 0-.25.06.15 0-.42.1-.48a.27.27 0 010-.11c0-.38-.08.46-.15.45v-.4a1.89 1.89 0 01-.08.57c0-.19-.06.13-.08.1v.09c0 .24-.06.2-.1.27v-.2c-.08.41 0-.44-.11-.16v-.55c-.09.29 0-.33-.11-.09a2 2 0 01-.08.55l.12-.22-.11.46s.08-.2.09-.14a2.12 2.12 0 00-.06.44c0-.48-.11.26-.12-.06l.09-.78c0-.35-.17.39-.24.18v.14c0 .31-.06 0-.11.16a3.66 3.66 0 000-.52c0 .19-.06 0-.13.49V28c-.06-.15-.17.73-.23.63a6 6 0 01.11-.66s0-.06-.06.12c0-.16-.1.35-.09.1a2.29 2.29 0 01-.08.36 1.09 1.09 0 010-.13 2.81 2.81 0 00-.07.46c0-.82-.21 0-.19-.67a.54.54 0 01-.18.17v-.1c0-.25-.13.75-.17.47 0-.43.07-.23.06-.39.08-.86-.1.11-.1-.4 0-.29-.13.32-.18.25a1.09 1.09 0 000-.13 1.9 1.9 0 01-.25.69 4.63 4.63 0 00.07-.52 4.68 4.68 0 01-.12.64v-.72h.05c0-.48-.06 0-.08-.08v-.2c-.09.06-.15.57-.22.53v.15c-.1.51 0-.29-.09.09v-.52a4.37 4.37 0 01-.22.58 5.68 5.68 0 01.22-.8s-.11 0-.15.28v-.09c-.08.41-.15.6-.21.59.12-1-.12-.27-.08-1.06-.14.36-.19-.18-.32-.14 0 .79 0 0-.11.83 0 .05 0 0 0 0v-.49c0-.24 0-.18.07-.36s0-.34 0-.56c0 .29-.06.41-.09.3v.37c-.13.42 0-.68-.13-.27v-.25c-.06.15-.16 0-.27.62a1.4 1.4 0 010-.37c-.1-.11-.31.66-.35.26v-.2c0 .05-.08.37-.08.17a1.11 1.11 0 000-.21c0 .06-.09.34-.1.22v-.22c-.07-.27-.21.52-.32.65a2 2 0 000-.88V27c-.12-.09-.26.46-.4.67 0-.63-.2-.29-.27-.65a3.22 3.22 0 01-.08.51c0-.12-.12.39-.06-.14 0-.52 0-.39-.07-.41l-.08.7c0-1-.33.34-.29-.58-.05.17-.08.17-.13.34v-.37c-.07-.11-.1-.16-.2-.08v-.26s-.18 1.07-.23 1.08v-.56c-.09 0-.12-.5-.27 0a1.08 1.08 0 01.05-.26s-.12-.4-.19.37c.06-.5-.08-.06-.16.15v-.36a2.48 2.48 0 01-.18.71v-.2c0-.19-.07.35-.11.15v-.24s0 .1-.11.37-.08-.1 0-.44c0 .2-.08.47-.1.37a1.41 1.41 0 010-.24c0-.25-.16.42-.17.05v-.22c0-.04.11 0 .1.07a6.93 6.93 0 01.09-.87c-.07.25-.2.8-.23.64a.53.53 0 010-.12v-.05c0-.29 0-.16-.06-.18a3.91 3.91 0 00-.07.62.07.07 0 010-.06h.06c0 .18-.08.34-.08.13l-.1.6v-1.13a1.38 1.38 0 00-.31.81v-.31a1 1 0 000-.16c-.06.17-.14.06-.2.54 0-.22.08-.44 0-.37v-.15c-.06-.79-.37 1.22-.42.2v.17c-.14-.46-.43.38-.53-.34 0-.15-.08.16-.14.39v-.4l-.11.46c-.11.33 0-1-.19-.37v.27c0-.05-.13.15-.09-.16v.14-.21l-.13.34c0-.15.1-.82 0-.87a3.41 3.41 0 00-.17.73 1.14 1.14 0 010 .35v.1a10 10 0 00-.14 1.68l.1-.37v.3c0 .29 0 0 .07-.13v.33l.12-.58a3 3 0 000 .61c0-.27 0-.54.09-.71v.27a1.53 1.53 0 01-.05.33c.05-.19.09-.07.14-.4 0 .35.1-.08 0 .5a2.64 2.64 0 01.13-.47c-.12.69.09.05 0 .8.1-.62.16-.27.26-.61v.12a1.83 1.83 0 010 .37 6.25 6.25 0 01.19-.95c0 .51-.09.61-.13 1.09 0-.42.12-.41.14-.76a4.24 4.24 0 010 .58c.08-.65 0-.11.12-.5 0 .32-.06.61 0 .41a1.42 1.42 0 01-.27.37zm1.35-1zm.11 0a.81.81 0 010-.25 1.26 1.26 0 000 .27zm.06-2.55v.1c0 .1 0 0 0 0q-.02-.04 0-.1zm-.08.46v.11-.11zM48.63 29z"/><path class="cls-1" d="M40.67 30.44l.01-.09-.02.08.01.01zm8.39-.06zm.24.11v.13a.7.7 0 000-.13zm.17.2a1 1 0 000-.16zm-3.06.11c-.04.08-.02.06 0 0zm.99-.8a1.22 1.22 0 010 .17s-.02.07 0-.17zm-2.04 1.13h-.01.01zm1.95-.94c0 .08 0 .06 0 0s.02-.05 0 0zm2.96.81a.35.35 0 010-.06zm.02-.09s.01-.04 0 0zm.05-.14v.1s-.02.01 0-.1zm-.34-.02v.14a1.13 1.13 0 000-.14zm0 .03v.21-.21zm-.17-1.69l.05.11a1.07 1.07 0 010-.37c.01-.44.02.32-.05.26zm-.18-.23a.92.92 0 000-.29.7.7 0 000 .29zm-1.43-.16v-.34a1.21 1.21 0 000 .34zm-.47 1.71l.01.21.04-.3-.05.09zm.1-2.42l.02-.05-.06.12.04-.07zm-2.41-.14v.41c-.02-.07.04-.54 0-.41zm-1.09.3v-.14c-.02-.01-.02.2 0 .14zm-3.04-1.01l.04-.14-.05.11.01.03zM98 56c0 .09.17.16.28 0 0-.1-.08-.2-.11-.3zm1.34-.59c.11-.23.26-.55 0-.71-.09.33-.2.28-.23.68-.15.12-.33.13-.37 0 0 .1-.29.16-.25.37a1 1 0 00.76-.53c.1.04.07.14.09.19zm4.17-11.86v.12a.24.24 0 000-.12zm-2.87-10.8c0 .08.06.11.09.1s-.07-.13-.09-.1zm-.2-1.93v.12a.15.15 0 000-.12zm3.07 12.73v-.31c-.1 0-.02.16 0 .31zm-1.98 10.35a.58.58 0 00-.15.11l.15-.06zm3.64-5.72v.09h.13zm1.22 3.58c0-.08-.25 0-.36 0a.27.27 0 01.21.13.42.42 0 00.15-.13zm-3.83 2.9l-.1.06zm1.85-9.07a.14.14 0 00.07-.06.13.13 0 00-.07.06zM98.4 52.2s.01.03 0 0zm.16 4.53h-.13zm1.25-29.36c.05.09.03.04 0 0zM84.77.28c.47 0-.56.52.12.5-.1-.07.45-.54-.12-.5zm16.87 53.63h.15a.39.39 0 00-.15 0zM97.4 19.64a.3.3 0 00-.07.11s.04-.04.07-.11zm1.4 5.87v-.15a.66.66 0 000 .15zm-2.69-8.75a.31.31 0 00-.06-.21.18.18 0 01.06.21zM95 13.69v.08l.05.09zm.63 29.09a1.12 1.12 0 01-.17.2c.15-.1.33.35.17-.2zM101.56 54a.14.14 0 01.08-.12h-.11s0 .12.03.12zm-7.25-36.76l-.14-.5a3.82 3.82 0 00.14.5zm-4.99 3.09l.07.11a.14.14 0 00-.07-.11zm4.32-5a.83.83 0 00.06-.33h-.08z"/><path class="cls-1" d="M96.89 46.09c-.13-.47-.35-.14-.55-.19-.24-.54.14-.32.24-.55-.17-.33-.52-.53-.58-.79 0 0 0-.09.13-.05-.34-.31-.31-1.1-.73-1.46a.14.14 0 01.06-.07.73.73 0 01-.39.17c-.06-.21-.3-.34-.12-.47 0 .13.11.12.18.16l-.14-.2c.23-.27.18.28.39.23-.21-.41-.58-.86-.59-1.21.26-.14.3.75.43.24v.55c.33-.51 0 .32.42-.17-.1-.69-.34-.72-.44-1.41-.19-.12-.21.11-.41 0-.52-.88.5-.93-.06-1.54-.23-.14-.59-.12-.54-.67l.35.09c-.14-.66-.54-.26-.51-1 .15.09.24.49.25.38.13-.51-.26-.27-.35-.61l.26-.15c-.23-.68-.63-1.4-.88-2.17.09 0 .21.14.25-.07A10.52 10.52 0 0193 32l-.34-.3c0-.08.07-.18.14-.1 0-.4-.16 0-.3-.13s.06-.32.17-.2a5.14 5.14 0 01-.87-2.48l.11.11c-.06-.56-.65-.47-.57-1l.07.08c-.22-1.18-.82-2.38-.72-3.37-.38-.06-.2-1.18-.69-1.11a4.65 4.65 0 000-1.5c-.06-.26-.41-.28-.55-.56l.24-.09-.4-.33.23-.31-.16-.26c0 .11 0 .27-.11.28-.26-.41-.19-1.14-.06-1.19l-.56-1c.11 0 .2.15.31.27-.44-.47.22-.19-.18-.62 0 .09-.16 0-.21 0a2.56 2.56 0 00-.36-1.29h.2c-.24-.79-.65-1.6-1-2.46 0 .33-.27.37-.4.13l.22-.2c-.22-.1 0 .3-.32 0-.09-.33.21-.33.37-.17l-.24-.36h.25c-.22-.1 0-.77-.36-.9L87 13c-.33-.86-.55-1.22-.85-1.91-.22.08-.28-.22-.54-.35A10.1 10.1 0 0085.19 9c-.28-.39-.24 0-.44-.2.18-.11-.08-.72.19-.45a10.59 10.59 0 00-1-1.79c0 .14 0 .27-.11.23s-.08-.41 0-.43a4 4 0 01-.58-1.75c0-.18 0-.19.1-.25s0 0 0-.07a2 2 0 00.16-.29 6.75 6.75 0 01.24-.8c.25-.27 0 .27.26.14a1.15 1.15 0 01.25-.52 1.18 1.18 0 01.35-.29 5.3 5.3 0 00.73-.47c.34.2.69.1 1.15.06a1.81 1.81 0 011.33.25v-.15c.23-.1.22.14.35.21 0-.12-.18-.19 0-.23h.32c.07 0 .07.12.11.18.17.43.35.9.5 1.35l.9 2.82c.24.66.86.06.88 1l-.35-.13c.87 1.17 1.11 2.68 1.88 3.86-.09-.05-.17 0-.22-.15-.08.35.39 1 .54 1 .07.2-.12.1-.14.25 0 .31.49.6.36.81 0 0-.09-.05-.12-.1.16.15.29.85.44.6.08.52.44.89.46 1.33.34.17.19.88.55.84-.36.09 0 1 .29 1.22-.15-.07 0 .3-.21.23.12.36.3.66.46.53-.2.8.79 1.21.36 1.76a25.4 25.4 0 011.34 2.89c-.37.07-.35-1.06-.72-.9a8.46 8.46 0 011.07 2.23c0 .25-.19-.08-.28-.14.43.86.48 1.78.91 2.54 0 0-.1-.07-.15-.15.06.16.05.39.21.33l-.09-.15c.17-.32.69.5.82.5-.55-.15.11.84-.61.57.06.1.17.21.28.15 0 .17 0 .24-.21.11.24.56.36.3.5.83-.08 0-.14-.08-.25-.11a1.39 1.39 0 01.51.91s-.1.06-.14-.08c.24.76.77 1.19.85 2.07-.42-.15 0 .32-.33.44l.21.43.1-.22c.1.39.41.68.4 1.05l-.2-.26.26.72v-.46c.26.35.37-.15.43.4-.06-.1.1.39 0 .65a.92.92 0 01.31.65c-.07.1-.35 0-.4.1.31.12.32.9.66 1.07a.27.27 0 00-.27 0l.24.11c0 .2 0 .24-.17.24.12.56.33-.28.35.42l-.11-.11c.09.68.47 1.23.54 1.86-.25.26-.22-.51-.42-.24a22.91 22.91 0 011 2.56v-.17c.46 0 0 .69.29 1-.06-.09-.27-.07-.22 0a8.33 8.33 0 00.84 2l-.14-.08a10.22 10.22 0 00.27 1.29c.14.07.19.28.31.11-.29 1.31 1 2 .78 3.18 0-.11-.18-.25-.15-.15l.36.81c.17-.13.08-.15.17-.37a.92.92 0 01.37.49c-.25-.34-.3.1-.35.3h.18c-.19.54.39-.05.36.62h-.1a2.48 2.48 0 01.37.63c-.18.17-.18-.21-.36-.17.12.34.62.54.51.92-.1-.13-.17-.33-.28-.46a.94.94 0 000 .7l.08.61v-.17c.7.26.38.82.93 1.26-.54-.48-.24-.06-.52-.11 0 .09-.1.18-.19.14.14.08.11.14.1.18s0 .08.21.3a.5.5 0 01-.35-.14c-.08.07.2.12.32.21s-.34.09-.57 0a.93.93 0 00-.33 0 1.48 1.48 0 00-.59.2c-.69.25-.79.54-1.41.78-.24-.09.13-.32.13-.32a1.43 1.43 0 00-1 .17c0-.08 0-.13-.15-.19s-.12.32-.5.3a1.08 1.08 0 01.19-.39c-.31.16-.58.38-.88.56-.14-.1.13-.26.22-.39-.36.17-.93.46-1 .72h.26c-.12.06-.14-.15-.06-.23.26-.29.49-.09.53 0a1.48 1.48 0 00-.21.13c.38.36.88-.38 1.38-.45l-.12.38.41-.39c.12.07.23.25 0 .35.37.1.27-.18.59 0v.06l.31-.15c-.05.08.09.23-.12.21.61.11.91-.39 1.16-.16.8-.21 0-.26.62-.63a3.57 3.57 0 00.54.57 1.09 1.09 0 000-.26c.1 0 .3 0 .31.1.28-.21-.11-.1 0-.28a1.79 1.79 0 00.83 0 1.62 1.62 0 01.38 0c.06 0 .07-.08.21 0-.3-.3-.06.29-.39-.26.26.09.19-.08.07-.27s-.26-.39-.22-.58c.29.14.31.58.38.15a.68.68 0 01-.32-.61c0-.27 0-.47-.08-.61-.29.08-.34-.61-.6-1.08.11 0-.16-1-.2-1.5-.32 0-.42-.5-.59-.83.18 0 .27 0 .41.16l-.11-.33a.61.61 0 01-.3-.34h.25a4.3 4.3 0 01-.58-1.42c-.21 0-.42.63-.75.08.1-.06.29-.14.38 0 0-.05-.15-.15-.13-.27l.26.18c0-.28-.2-.09-.25-.3.16 0 .07-.19.2-.2s0 .2.08.26a1.07 1.07 0 010-.68.18.18 0 01-.28-.1c-.15-.44.14-.21.14-.49-.14-.07-.11-.39-.35-.33 0-.13.07-.18.12-.25-.18-.2-.35-1.07-.53-.73v.06c-.46-.68-.34-1.6-.65-2.32h.08a6.34 6.34 0 00-.6-1.25c0-.14.06-.36.17-.33a1.34 1.34 0 01-.27-.87c.24.31.09-.15.2.33-.06-.46 0-.6-.31-1 .25.11.17-.4 0-.6l-.06.35a2.83 2.83 0 01-.18-.66h.3c.08-1-1-1.48-.65-2.33-.25-.19 0 .53-.27.38-.08-.43.19-1 .15-1.11 0-.61-.54-.43-.6-1.06-.07.11-.31.25-.52-.18s.26-.62.41-.38 0 .16 0 .16.16.3.22.1h-.11c0-.23-.13-.81.07-.71-.18-.3-.2-.1-.18.15 0-.58-.23-.84-.28-1.42 0 .1-.12.21-.14.12-.1-.84-.28-.31-.47-.85.06-.35.38 0 .1-.5 0-.37.24-.14.35 0-.32-.45-.13-1-.18-1.28l.15.25a1.64 1.64 0 01-.16-.41l-.15.2v-.31c-.17-.13-.29.21-.54-.07 0-.23-.28-.61 0-.75.1.68.24-.14.43.41a.87.87 0 01-.1-.4s.06 0 .08.05c.06-.7-.36-.21-.54-.87.17.05.23-.22.17-.32.07.26-.2.19-.38 0 0-.45-.21-.43-.26-.65v.26c-.17 0-.21-.26-.33-.53.1-.06.15.24.17.12-.35-.25 0-.8-.25-1.2 0-.24.27-.1.28-.3-.33-.45 0-.61-.28-1.09-.14.21-.09.22-.39-.1l.4.83L98 23c.08.26.29.51.3.68-.23-.22-.18-.2-.3 0 .18-.45-.38-.66-.31-1.14l.48-.12c0-.69-.56-1-.7-1.88v.28c-.22-.05-.19-.49-.35-.72.17 0 .17-.21.24-.35-.12.05-.18-.6-.52-.57l.09-.43c-.12-.68-.68-.59-.84-1.23.24.13.25-.19.51.19-.06-.21-.1-.41-.21-.37.06-.16-.41-.51-.32-.75-.1-.06-.28 0-.34-.27a.07.07 0 01.07 0c-.07 0-.23-.32-.33-.06.28-.81-.66-1.76-.45-2.46-.22-.43-.47-.95-.63-1.36.06 0 .08 0 .09.06-.06-.62-.56-.18-.65-.87.12-.42.26.28.28 0 .47-.28-.37-.73-.25-1.27l.07.09c0-.4-.51-.72-.68-1.27a.08.08 0 00.08 0 4.59 4.59 0 01-1.06-1.38c.26.08.2.19.36 0-.12-.22-.29.2-.54-.23 0-.19 0-.56.19-.69l.2.42c.18-.33-.25-.55-.3-.79h.14c-.32-.64-.63-.51-.91-1.23l-.06.12c-.46-.26 0-.4-.36-.68l.25-.25a10.47 10.47 0 01-.95-1.17 4.77 4.77 0 011 .89c-.11-.25-.4-.83-.61-.9.07.09.2.18.2.3a2 2 0 01-.89-1c.31-.1.21-.4 0-.84l-.18-.44L89.7 1V.88a.25.25 0 00-.09 0A1.5 1.5 0 0189 .44l-.48-.06-.39-.07-.79-.17a4.4 4.4 0 00-1.86-.07c.56.41-.38.09-.18.59-.27.1-.37.14-.41.12a4 4 0 00-1 .13c-.28 0 .2-.25.12-.34-.64.34-.38 0-.86.15.2.09-.06.34-.38.59a2.84 2.84 0 01.58-.2c-.52.82-1 .27-1.33 1.21l.11-.32c-.13.22-.36.6-.55 1a1.92 1.92 0 00-.11.31l-.14.44c-.06.3-.15.52 0 .68s-.1.28-.26 0c.07.2.16.41.26.63l.15.32.1.17.42.68a3 3 0 01.56 1.27h-.15c.11.16.34.21.31.47 0 0-.14 0-.11.06s.39.36.41.61l-.21-.13c.22.94.87 1.23 1.25 2-.35.13-.18.87-.09 1.24h-.06a16.05 16.05 0 001.47 2.57c-.15.74.6 2.09.73 3.14 0-.17.27-.07.37.09s.46.54.13.62v-.08c-.25.28 0 .71.12 1.08l.44-.08c-.29 1.17 1.06 2.45.68 3.15.18.2.27.49.45.69l-.23.06a9 9 0 00.52 1.78l-.22-.12c.13.46.83.37 1 .79l-.3.23a6.38 6.38 0 00.71 2.37.2.2 0 01-.21-.12c.1.38.17 1.51.6 1.24-.3.1.2.83.45 1.23h-.24c.39.29.47.28.69.76 0 .13-.15.16-.14 0 0 .44.3.26.31.78l-.24-.28c.09.42.16.37.39.55s.15.8 0 .92a.49.49 0 01.37.46c-.06.05-.14 0-.17-.06 0 .73.53 1 .43 1.49a.18.18 0 00-.11.12 6.3 6.3 0 01-.21-1c-.21 0-.13.51-.51.23.25.32.75.84.76 1.3a.15.15 0 010 .07.5.5 0 00.11.27 1.5 1.5 0 000 .37c-.16.1 0 .54.09.76.22-.08.26.22.38-.1l-.09-.18a.26.26 0 000-.09l-.16-.54a.56.56 0 01.24.58 4.05 4.05 0 01.45.21c-.24.39-.26 1-.43 1.15.3.65.5 1.58 1 1.89.11.18-.06.25-.11.34-.07-.1-.1-.23-.18-.27.21.35.34 1.13.67 1.14 0 .52-.35-.2-.13.45l-.11-.06c-.13 1.44 1.33 1.92 1.11 3.54 0-.11 0-.16.06-.2.19 1.73 1.19 3.34 1.24 5.09.05.48.26.48.48.72l-.21.17.42.4c.41.62-.26 1.36.4 2.11l.13-.16c.06.32.39 1 .19 1 0 0 .2.05.15.19l-.12.05.45.7c.08.61-.53.06-.3.93.15.3.65.8.7.65s0-.36.1-.4l.15.27c.39-.07.84 0 .88-.76L99 55.5l.13-.22.14.42c.1-.3-.1-.4-.25-.54a.35.35 0 00.13-.27l-.5-.38c.13-.1.36.13.34-.22-.24-.18-.26.32-.49 0 .1-.29.26-.26 0-.5.08-.06.16 0 .24.08-.19-.22-.25-.65-.49-.72.13-.31-.31-.82 0-.91a1.47 1.47 0 01-.49-.58c.55.3-.22-.87.26-.89-.47-.2-.49-1.07-.86-1.56 0 0 .11.06.11.12a1.91 1.91 0 010-.66c-.32 0-.53-.42-.8-.62.2-.47.44.13.69-.08-.25.09-.44-.59-.61-.4.1-.34 0-.27.24-.5-.41.06-.14-.25-.45-.42.07-.48.33-.21.09-.64.2-.29.46.08.46.08zm-3.63-10.88l.07.23zm-.26-.93c0 .12.06.26.1.41s-.16 0-.18-.06.08-.19.08-.35zm-1 2.39c-.07-.14 0-.21 0-.24s.05.15.09.25a.3.3 0 01-.09-.01z"/><path class="cls-1" d="M92.32 36.85a.33.33 0 010 .06.22.22 0 000-.1h-.08zm11.19 6.84s0 .01 0 0zM89.77 21.32l-.05.02.08.07-.03-.09zM104.31 49v.08c0 .08-.01-.08 0-.08zm.69 2.2v.33a1.37 1.37 0 000-.33zm.36 1.54h.12-.12zm-8.04-26.69v-.06c-.11-.14-.07.01 0 .06zM100 34c-.06-.08-.12-.15-.17-.23.05.09.07.23.17.23zm-5.68-16.71h.01l-.02-.05.01.05zm5.44 16.05a.65.65 0 00.1.38 1 1 0 00-.1-.38zm.15 21.03h-.09zm-.08.06l-.09.07c.05-.02.08-.04.09-.07zm-.26.21l.17-.14c-.07.02-.16.06-.17.14zm2.75-.81v-.09a.22.22 0 000 .09z"/><path class="cls-1" d="M103 53.69c-.18 0-.46-.12-.7 0v.07c.13-.17.6.09.7-.07zm3.5.64h-.8c.18.07.47.16.11.23 1.26.14-.35-.15.69-.23zm-.02-1.92c.19.42.13 0 .19 0-.18-.29-.22-.33-.19 0zm-3.95-12.76h.21c-.09-.25-.08-.01-.21 0zm-1.75-2.15l-.06.27.22.05-.16-.32zm1.07-1.85l.06.09-.19-.37.13.28zm-6.44-21.48l-.22.16c.1.14.39.07.22-.16zm-3.86-8.91a.42.42 0 00-.14-.53c.08.2.07.45.14.53zm-4.59 14.29l-.14-.15.18.32-.04-.17zM107 54.37v-.2l-.06.27zm-.26-.53a1.12 1.12 0 00-.14.61c.08-.26.08-.15.17-.46 0 0 .08.1.07.2 0-.07.07.06.11-.11s-.13-.23-.23-.06a.52.52 0 01.02-.18zm-4.95-.17zm-2.92 1.2v-.07c0-.07-.02.05 0 .07zm-.75.19s-.01-.06 0 0zm3.67-1.39l-.11-.06c.02.08.06.05.11.06z"/><path class="cls-1" d="M106 54.45a.1.1 0 000-.07zm-2.87-1.29V53zm1.07-.16a1.73 1.73 0 000 .33v-.16a1.28 1.28 0 000-.17zm1.66.49zm-3.52-.25a.22.22 0 000-.08zm3.18.76zm1.31-1.01l.01.02.13.03-.14-.05zM96.78 56.1s0-.03 0 0zm6.31 7.29c.07-.22.3-.09.36-.36-.06.08-.36.17-.36.36zm2.91-8.97zM103.45 63zm-4.97-4.34l.07-.08a.3.3 0 00-.07.08zm-.92-1.82zm1.74 2.27v.06s-.02-.02 0-.06zm.6.66zm5.57-2.98a.71.71 0 01.21 0c-.17-.02-.22-.16-.21 0z"/><path class="cls-1" d="M106 54.32a.23.23 0 010 .1v-.1zm-5.29 3.59l.06.13a.22.22 0 00-.06-.13zm4.77 4.48s-.02-.02 0 0zm-4.41-4.08a.3.3 0 00-.07.16z"/><path class="cls-1" d="M105.16 55.8c0 .14.3.08.47.11s-.23.07-.39.12c.08.1.36.19.35.26a.22.22 0 01-.14 0c.24.12 0 .32.31.45h-.08a2.12 2.12 0 01.43 0c0 .06.19.11 0 .13 0 0-.08 0-.14-.06l.09.07c-.29 0-.1-.09-.32-.1.1.13.33.28.25.37-.28 0-.09-.22-.35-.1l.11-.15c-.45.11 0-.09-.44 0-.09.19.14.22 0 .41h.39c.28.28-.71.21-.34.41.19.06.55.08.36.22l-.32-.05c0 .18.46.11.24.3-.12 0-.1-.15-.14-.12-.26.13.18.09.18.19h-.28c0 .19.25.41.3.63-.09 0-.18-.05-.26 0 .14.27 0 .58-.2.85l.24.1h.1c.1 0-.14.08-.22 0 .21.18.45.51.19.7h-.07c-.1.15.5.16.27.3-.11.32.12.68-.25.92.17 0 .13.1.11.18s0 .07.22.11a1.46 1.46 0 01-.5 0 2.48 2.48 0 01.36.22l-.26-.13.27.19a3.07 3.07 0 01-.31-.17l.07.06.18.11c.12.15-.18 0-.31-.15a1.44 1.44 0 01.21.3l-.19-.25c.25.32-.27-.29 0 0l.2.24c-.15-.16-.15-.14-.09 0l-.17-.26c0-.05.08.19.07.24a8.21 8.21 0 01.38.83l-.25-.53c.16.35.1.17.29.62a6.18 6.18 0 01-.37-.79l.09.22-.21-.47c.15.37-.25-.58 0 .07l-.07-.18a1.28 1.28 0 000 .17 7.26 7.26 0 01.22.77c-.09-.21-.22-.61-.23-.6 0 .19.06.35.1.59-.08-.39-.11-.4-.14-.64l-.09.21a1.84 1.84 0 010 .31v-.32c0 .17-.11-.11-.1-.3s.05-.32-.08-.14a.8.8 0 01-.19.13s.11-.11.18-.23c-.11.14-.22 0-.27-.07s-.09-.19-.25-.18c.32-.57-.47-.4-.36-.85l-.09.12c-.15.06 0-.11 0-.17s0 .14-.13.18c-.49-.23-.6-.89-.87-1.35-.11-.16-.62.47-.54.06l.24-.15c-.5 0-.53-.56-1-.63.06 0 .12-.08.14-.06.09-.19-.19-.21-.31-.1 0 0 .1-.11.14-.19s-.33 0-.21-.14a.12.12 0 01.08 0c-.1 0-.14-.19-.27 0 0-.18-.26-.12-.23-.3-.24.12-.07-.25-.35 0 .28-.24.06-.38-.13-.33.11 0 0-.13.18-.21-.06-.07-.18-.09-.31.05.22-.43-.52 0-.14-.5a2.57 2.57 0 01-.85-.37c.3-.22.2.21.51 0a3.34 3.34 0 00-.42-.07.38.38 0 01-.17-.06v-.06c0-.06.15-.07.21-.11-.2 0 0-.11-.32-.14a.57.57 0 01.13 0h-.16.06a2.29 2.29 0 01-.85-.07c.64.05.07-.12.91 0h-.31a1 1 0 01.3 0c-.08-.06-.32-.08-.27-.14l.24.07c-.18-.06-.33-.15-.21-.17s.13 0 .12 0-.27-.36 0-.37c.25.27.13 0 .36.27v-.09l-.17-.04s0-.25.12-.22v.15l.12-.16h-.16c0-.19-.23-.32-.06-.32 0 0 .09-.06.24.07 0-.12 0-.24.09-.21s.16.31.21.36c-.09-.25.17-.19.09-.46a.82.82 0 00.12.23l-.07-.2c.08 0 .1.06.16.18.14 0-.23-.33 0-.26v.09c.19 0 .24-.27.43-.25.18.26-.09.13.07.34.18-.15.28-.54.52-.55-.14-.43.24.14.27-.09a.4.4 0 000 .19c.17 0 .25-.21.43-.41v.11c.12.08.24 0 .35 0s.06-.12 0-.27c.43.55.49-.46.85 0 0 0-.06.11 0 .1l.21-.13c0-.19 0-.11-.11-.25s.07-.22.13-.22c-.09.13 0 .3.09.41a1.23 1.23 0 010-.19c.16.33 0-.39.17-.17V54c.06-.06.11-.2.18-.17 0 .22-.06.11 0 .29.09 0 .16-.43.26-.22s-.1.07-.13.14c.11.25.11.19.18.22l.16.11v-.07c.1-.59.24-.12.39-.5-.15.37 0 .21 0 .47 0 .07.1.14.08.21.08-.2.12.17.23-.13 0 .08.08 0 .06.21.1-.06 0-.14 0-.24.15-.28.34.34.57 0 .19-.15.24-.42.43-.55a.36.36 0 01-.07.29c.09.13.16.11.26 0a.37.37 0 000 .23c.07 0 .07-.3.16-.17s-.06.23-.1.32c.09-.07.19-.21.28-.28 0 .14-.07.21-.11.3a.46.46 0 00.32-.33l-.24-.13v.23c0 .04-.11-.09-.11-.17h.06c0-.48-.26.06-.38 0l.08-.35-.15.29v-.33c-.09-.18-.09.11-.16-.08a.06.06 0 010-.06l-.1.1v-.2c-.15-.21-.27.25-.32 0-.23.11 0 .26-.21.55l-.09-.63v.25s-.07 0-.06-.13c-.09.17 0 .11 0 .27-.11-.23-.31.11-.33-.3 0 .19.11.15 0 .28 0-.43-.14.08-.24-.12s.13-.11 0-.31c-.06.38-.2-.08-.29 0 0 .3-.19.13-.33.24 0-.11-.29-.15-.44-.25v-.05c0 .31-.14.26-.24.34a.68.68 0 010-.35h-.1a.22.22 0 01-.09.19v-.23c-.14 0-.23.31-.42.18 0 .22.22.57.08.74a1 1 0 010-.36s0 .1-.07.06v-.2c-.09-.08 0 .16-.07.16 0-.17-.07-.11-.08-.24s.06.06.07 0a.45.45 0 01-.23-.21v.25c0 .03-.09-.19-.18-.25 0 .12-.12 0-.06.26 0 0-.08-.1-.11-.16 0 .12-.3.12-.15.35-.14.29-.48 0-.65.18v-.08c-.09.13-.25.15-.27.36 0 0-.14-.11-.16-.21-.07.1 0 .19-.23.12 0-.17-.08-.1 0-.14-.14 0-.23-.12-.26.15 0-.22-.21-.21-.24-.12l.15.1a.25.25 0 01-.17.08l-.1-.27c-.4-.18-.17.74-.62.34 0 .21.2 0 .25.28-.12 0-.44-.25-.47-.23-.24-.05.07.43-.14.44.07.07.23.28.18.43s-.36-.26-.34-.37 0 0 .07 0a.14.14 0 00-.07-.18v.09c-.11-.05-.25.07-.31-.09 0 .13.06.15.15.15-.21 0-.27.19-.51.27.07 0 .18.07.15.1-.35.13 0 .21-.08.37-.22 0-.28-.23-.33 0-.19.05-.26-.1-.29-.19 0 .25-.41.26-.54.37v-.13a.27.27 0 01-.08.18h.25c-.08 0-.12.09-.21.07.09.09.38 0 .49.19-.16.05 0 .22-.35.2.27-.21-.33 0-.22-.22 0 0 0 .09-.12.14h-.06c-.47.21.24.15.35.38-.19 0-.29.06-.23.1s.26 0 .44 0c0 .15.19.15.22.22v-.09c.17 0 .19.08.3.15-.11 0-.14-.06-.17 0 .33 0-.12.31.16.42 0 .11-.26.11-.28.21.31.1 0 .31.28.45.11-.19.08-.14.32-.16a1.85 1.85 0 01-.34-.21h.39c-.06-.08-.25-.11-.25-.18.21 0 .15 0 .27-.09-.18.25.32.12.21.32l-.39.29c-.07.28.39.11.44.36v-.11c.17-.1.11.1.22.1a.75.75 0 00-.2.27c.09-.08.1.14.36-.06l-.1.22c.06.21.5-.14.58 0-.18.08-.21.22-.39.21 0 .05 0 .11.14 0 0 .1.28 0 .2.13.07 0 .2-.14.24-.08a.31.31 0 01-.06.06c.06-.06.15 0 .25-.16-.27.48.37.35.15.77a2 2 0 01.36.21s-.06.06-.06 0c0 .22.41-.25.42 0s-.18 0-.21.14c-.37.39.21.11.07.42-.06.2.32 0 .4.16l-.06.06a.79.79 0 01.63 0c-.18.12-.12 0-.26.2.07 0 .24-.25.37-.2a1 1 0 01-.21.42l-.09-.08c-.17.26.12.11.13.19l-.1.09c.17.11.4-.13.53 0l.06-.09c.3-.15-.06.2.19.1l-.21.26a2 2 0 01.55 0 2 2 0 01-.6.14.28.28 0 00.34.06h-.11c.24-.12.42-.13.52 0-.46.44.16.38-.11.81.35 0 .3.43.54.61.27-.43.08 0 .42-.33.07 0 .09 0 .07.08l-.07.37c-.06.14-.12 0-.2.12.08.13-.1.2-.13.37.12-.15.22-.15.24 0l.08-.26c.17 0 .11.08.09.21s0 .28.2.32h-.18c.2.07.57.6.84.29 0 .09 0 .28-.08.25a1.05 1.05 0 00.55.35.67.67 0 01.44.47v.17c.06 0 .08-.26.17 0v.22c0 .04.12-.19.21 0v.18c.39.7.39-.08.54 0a6 6 0 00.7 1.66v.12c.14.17.23.25.29.25 0-.46-.16-1.14-.22-1.63.18.26.24.08.28-.15s.07-.51.19-.59a1.37 1.37 0 01-.28-.54c.07 0-.21-.59.09-.15.3.34.24 0 .26-.19l-.4-.5c.31.14.28-.25.23-.56s-.12-.58.17-.57c-.1-.17-.1-.3-.2-.45l.23.09a1.83 1.83 0 00.05-.84h.17c0-.13-.68-.17-.69-.29h.35c0-.22.31-.45 0-.68h.17c.02 0 .24-.41-.25-.37.32 0 0-.23-.11-.35h.24c-.3-.1-.38-.1-.47-.24s.19 0 .13 0c.12-.11-.22-.08-.1-.22h.15c0-.12-.06-.11-.24-.17s.06-.22.27-.24c-.13 0-.3-.08-.24-.14a.32.32 0 01.16 0c.15-.19-.28-.28 0-.42a.33.33 0 00.14 0 .73.73 0 010 .27c.21 0 .25-.13.55 0-.17-.1-.52-.27-.42-.39h.08v-.08c0-.02.06-.06.06-.1.18 0 .1-.14.1-.2-.23 0-.19-.08-.39 0v.21c-.12-.05-.22-.1-.09-.17l-.38-.09c.33-.08.51-.25.71-.27-.13-.18-.09-.44-.53-.56-.05 0 .13-.06.2-.08s0 .07.1.09c-.11-.11 0-.32-.35-.35.14-.13.28.08.24-.11h.09c.5-.35-.78-.61-.13-1a.21.21 0 01-.11 0c.29-.44-.22-1 .26-1.37.09-.12-.1-.15-.24-.24h.25l-.28-.16c-.2-.21.65-.26.28-.54H107c0-.08-.07-.28.13-.24 0 0-.18 0-.08-.07h.13l-.19-.24c.11-.14.51.1.57-.12s-.34-.31-.43-.29a.27.27 0 01-.23.06l-.05-.1a1.66 1.66 0 00-1.07 0l.21.19h-.19V53c-.19 0 0 .11.06.18a.57.57 0 00-.22 0l.35.2c-.15 0-.29-.11-.39 0 .16.09.35 0 .45.1-.19 0-.33 0-.19.11a.27.27 0 01-.2-.06c.11.09 0 .2.23.26-.23 0 0 .25-.34.21.09 0 .27.15.28.22-.43-.16 0 .25-.51.17.38.13.14.35.35.53h-.07c.02 0-.16.11-.24.16.32 0 .39.18.59.26-.32.09-.38-.09-.69-.07.27 0 .26.21.48.18a.74.74 0 01-.37.1c.41 0 .06.08.31.16-.21.11-.38 0-.27.16-.11.05-.25-.07-.25-.07zm.66 3.16v-.07zm0 .26a.41.41 0 000-.12h.16s-.09.08-.16.12zm1.63-.56s0 .06-.06.06a.36.36 0 000-.07h.09zm-.31-.07h-.05.07zm-5.3-4.9z"/><path class="cls-1" d="M105.37 62.25l.06.03-.05-.03h-.01zm-1.98-8.04zm.61 0l.09.08zm.44.11v-.1zm-5.15 2.27zm.3-1.12a.57.57 0 010 .13s.07-.02 0-.13zm1.12 2.43h-.01l.01.01v-.01zm-1.21-2.25h.09c.01 0-.08-.05-.09 0zm6.94-1.15zm.03-.02s0-.03 0 0zm.08-.08l-.06.05s.04.01.06-.05zm-.72-.05v.09a.34.34 0 010-.09zm-.19.02s.1.19.17.14v-.07c-.03.12-.12-.21-.17-.07zm-.76-1.08l.16.07c0-.09-.06-.22 0-.24-.18-.27.06.21-.16.17zm-.51-.14c.09 0 0-.13 0-.18s-.07.11 0 .18zm-3.7.76l-.07-.2c-.06.06.03.08.07.2zm-.16 1.29l.11.09-.06-.19-.05.1zm-1.07-1.16l.01-.04-.07.12.06-.08zm.19 5.75l.19-.19c-.07 0-.3.19-.19.19zm2.04 1.71c-.07.12-.08.23 0 .17.02-.05.05-.17 0-.17zm5.71 3.03l.08.17-.06-.24-.02.07z"/></g></g></svg>