<svg xmlns="http://www.w3.org/2000/svg" viewBox="0 0 91.78 59.85" class="svg" focusable="false" aria-hidden="true" role="img"><defs><style>.cls-1{fill:#0087b1}</style></defs><g id="Layer_2" data-name="Layer 2"><g id="Layer_1-2" data-name="Layer 1"><path class="cls-1" d="M58.18 0c-.19 0-.24.15.13.46h.47zm1.66 2.77c.47.32 1.06.68 1.1.21-.58-.26-.57-.44-1.22-.66-.33-.33-.45-.69-.3-.71-.18-.07-.42-.61-.76-.61A3.94 3.94 0 0 0 60 2.66c.08.18-.09.1-.16.11zM90.61 14a2.62 2.62 0 0 0 0-.28c-.01.07 0 .16 0 .28zM76 35.76c.16-.14.21-.22.2-.25-.12.14-.2.26-.2.25zm-3.92 2.66l.23-.15a.51.51 0 0 0-.23.15zM90.61 14v.72c.12.02.03-.38 0-.72zM63.76 7.78a2.65 2.65 0 0 0-.24-.35l.18.35zm19.51-2.22l-.2-.07-.2.07zM74.54 6c.2-.06.17-.35.21-.49a.73.73 0 0 1-.36.33s.06.16.15.16zm-11.1 4.28a1.78 1.78 0 0 0-.12-.29 2 2 0 0 1 .12.29zm24.72-.9a.24.24 0 0 0 0 .12s.01-.06 0-.12zm-57.4.15s.06-.05 0 0zm10.97-2.46h-.15a.77.77 0 0 0 0 .15zM64.9 43.32c.2-.18.1-.1 0 0zm-9.68-11.44c.25-.9.33 1.46.6.1-.11.13-.44-1.22-.6-.1zM63.82 8l.18.4a2.35 2.35 0 0 0-.18-.4zm-8 24v-.14c.02.04.01.07 0 .14zm-6.25 3.05a.55.55 0 0 0 .07.22s0-.08-.07-.22zm12 8.36l-.32-.18a2.91 2.91 0 0 0 .32.18zM44.16 29.75a1.79 1.79 0 0 0-.31-.44.29.29 0 0 0 0 .09.77.77 0 0 1 .31.35zM40.26 23v.15a2.29 2.29 0 0 0 .1.23c-.04-.18-.07-.31-.1-.38zM16.2 22a1.2 1.2 0 0 1 .4.23c-.14-.23 1.08-.38-.4-.23z"/><path class="cls-1" d="M63.62 7.85a.31.31 0 0 1 .2.18l-.12-.25c-.05-.01-.08.01-.08.07zM42.18 30.81c-.28-.35-.5-.74-.74-1.11a7.63 7.63 0 0 0 .74 1.11zM26.45 57.19h-.3a.81.81 0 0 0 .3 0zm12.89-30.88a4.19 4.19 0 0 0-.15-.77s-.09-.1-.13-.12c.09.3.17.58.28.89z"/><path class="cls-1" d="M24.61 21.73v.05c0 .05 0 0-.07.06a.18.18 0 0 0-.05.08c0 .12.05.27-.09.37-1.49 0-.66-.33-1.15-.56-.94 0-1.67.33-2.36.3-.05-.06-.19-.09 0-.16-1 .25-2.93 0-4.06.4a.31.31 0 0 1-.16-.09.51.51 0 0 1 .2.5c-.55 0-1 .29-1.23.07a.74.74 0 0 0 .51-.2l-.57.14c-.56-.3.78-.18.77-.43-1.14.17-2.43.62-3.31.66-.23-.33 2-.39.82-.54h1.37c-1.09-.43.84 0-.18-.52a29.48 29.48 0 0 0-3.81.66c-.36.27.19.24-.17.51a4.11 4.11 0 0 1-2.21.39 2 2 0 0 0-1.69.5 2.8 2.8 0 0 1-1.64 1.38c.06-.2.14-.38.21-.57-1.58 1-.6 1-2.19 2.05.11-.38 1-1.05.76-.91-1.17.58-.53.75-1.2 1.43l-.39-.08a11.47 11.47 0 0 0-2.3 5.86c-.09-.13-.15-.52-.31 0A32.7 32.7 0 0 0 0 37.26a30.65 30.65 0 0 0 .5 4.06l.58.89c.07.22 0 .47-.12.24.29 1 .18 0 .49.4s.18.76-.06.46a16 16 0 0 0 .91 1.34c.39.46.75 1 1.18 1.46l1.27 1.37a12.58 12.58 0 0 1 1.09 1.19l-.33-.18a2.56 2.56 0 0 0 1.32.79 2.72 2.72 0 0 1 1.2.75l-.24-.09c2.48 1.87 5.68 3 7.68 4.22.56-.25 2.78 1.18 3.15.65A16.28 16.28 0 0 0 22 56.38c.62.19 1-.13 1.82 0v.31l1.13-.07.48.48.76.07c-.29-.08-.6-.26-.54-.34a6.31 6.31 0 0 1 2.76.92c.93.08 1.85.14 2.78.19-.08.12-.55.09-.92.11 1.51-.08.22.36 1.6.29-.17-.1.12-.17.16-.23a12.4 12.4 0 0 0 3.3.55l-.24.18c2 .31 4.31.37 6.6.55-.81-.16-.59-.51.08-.5l.24.35c.45-.17-.69-.18.22-.36.85.1.55.42.05.48h1c.05.1-.2.14-.27.26.44-.18 1.78.44 2.42.12l.06.1c2.29.11 3.34 0 5.21.06 0-.28.78-.21 1.34-.43h1.23l1.89.07c.13-.58.26-1.21.37-1.87.05-.25.09-.5.14-.76l.09-.6c0-1.17-.19-.37-.29-.91.27 0 .46-1.69.53-.82a45.31 45.31 0 0 0 .34-5c-.13.26-.21.56-.28.4 0-.46.21-1 .33-.94v.12c-.08-2.83 1.34-6.42.93-8.7v.13l-.16-2.35c.09-1.06.16.66.35-.13-.33-2.53.19-4-.11-6.06.77-1.62-.19-5.7 0-7.93l-.17.15c-.23-.55 0-.69 0-1.12-.13.08-.08.63-.22.3a59.57 59.57 0 0 0-1.51-7.32 15.76 15.76 0 0 0-1.5-3.68 7.65 7.65 0 0 0-3.21-3 2.42 2.42 0 0 0-1.13-.3 2 2 0 0 0-.65.11 4.28 4.28 0 0 1-2.06-.09l.75-.31a12.26 12.26 0 0 0-5.9 1.7 8.62 8.62 0 0 0-3.89 4.55c0-.25-.06-.3.11-.66a3.77 3.77 0 0 0-.75 1.81c-.16.75 0 1.32.07 1.33 0 .62-.19.14-.3.52a3.13 3.13 0 0 0 .16 1.41 3.17 3.17 0 0 1 .16 1.09c0 .07-.14-.2-.18-.35.22.49.54 2.38.68 1.82a13.21 13.21 0 0 0 .65 1.87 10.48 10.48 0 0 1 .69 1.62c.54.52 1 2.12 1.45 2.1-.48.18 1 2.2 1.64 2.77-.28-.14.35.67 0 .52.61.77 1.22 1.42 1.3 1.14.75 1.73 2.68 2.4 2.93 3.56L48.15 37l1.66 1.2c1.06.83 2.2 1.48 3.25 2.2-.33.32-2.32-1.63-2.52-1.19 1.05.65 1.91 1.1 2.75 1.58A22.26 22.26 0 0 1 56 42.33c.49.38-.41 0-.63-.07 1.07.59 2.11 1.15 3.12 1.69.5.27 1 .53 1.49.78a15.22 15.22 0 0 0 1.54.59 1.21 1.21 0 0 1-.47-.08c.39.16.87.47.92.26l-.41-.12c-.47-.54 1.77.12 1.94 0-.48.11.08.4.69.74l.11.06h.1l.18-.1a.73.73 0 0 1 .28-.1c.13 0 .16.11-.18.59.38-.32.78-.74.62-.79.3-.19.35-.19.42-.19s.05.1-.1.3c1.18-1 .59-.84 1.7-1.64.06.08-.14.28-.19.45A6.81 6.81 0 0 1 69 42.94c0 .09.13.07-.15.27 1.58-1.2 2.4-2.42 4.23-3.59-.24.73.67-.34 1-.12l.85-.81-.48.15A27.89 27.89 0 0 1 76.54 37l-.5.59 1.45-1.26-.93.57c.68-.8-.38-.29.73-1.07a10.83 10.83 0 0 1 1.33-.83 4.8 4.8 0 0 1 1.25-1.28c.22 0 .15.42.3.39.17-.56 1.73-1.68 2-2.36-.1.2 0 .35.11.33l.13-.47c.39-.27.47-.29.52-.13 1.06-1-.65 0 .7-1.06-.08.11 0 .09-.17.31 1.28-1.13 2.17-2.48 3.27-3.61.59-.11-.83 1.11-.24.91a40.32 40.32 0 0 0 3.66-5.93l-.23.35c-.16-.27.08-.59.4-1a3.61 3.61 0 0 0 .68-1.57c-.05.27.16.44.13.35a10.2 10.2 0 0 0 .49-5.48l.15.28a9.58 9.58 0 0 0-.64-3.37c-.21-.24-.45-.75-.48-.36a6.78 6.78 0 0 0-2.23-3.72c-1-1-2.14-1.7-3.19-2.63.28.16.74.28.52.15a11.72 11.72 0 0 0-2.19-.86c.1.29.25.22.62.58a7.87 7.87 0 0 1-1.47-.24c1 .11.11-.37-.31-.6 0 .09-.11.13-.09.21-.54-.32-.62-.2-.74-.09s-.29.23-1.07 0l.1-.1c-.6 0-1.15.19-1.78.2-.29-.25.62-.17.66-.38-.93.05-1.74.63-2.57.53.36-.15.9-.24 1.28-.35a3.33 3.33 0 0 0-1.7 0h.06c-.51.07-1 .15-1.55.26h.41c-.89 1-2.19.85-3.37 1.94 1.15-1 .12-.34.09-.66-.4.09-1 .29-.86.13-.53.56-1.18.42-1.88 1.27-.09 0-.66.43-.65.13-.76.6.28 0 .28.17A13.46 13.46 0 0 1 67 8.7a9.64 9.64 0 0 0-1.16.91 2.52 2.52 0 0 0-.6.81 12.16 12.16 0 0 0-.77 1.31c-.21-.08-.32-.38-.69-1.24 0-.34.1-.27.2-.18a1.32 1.32 0 0 1 .18.24 3.78 3.78 0 0 0-.17-1 6.82 6.82 0 0 0-.49-1.09c.15.13.15-.06.15-.34-.3-.63-.49-.3-.75-1.17a2.25 2.25 0 0 1 .65.46c-.43-.72-1-1.35-1.45-2 0-.28.47.32.71.53-.5-.82-1.41-2-1.8-2.12l.26.55c-.2-.27.09-.27.28-.09.61.57.54 1.05.48 1.13l-.37-.47c-.15.79 1.27 2 1.7 3.15l-.57-.29c.25.32.52.65.78 1 0 .29-.18.52-.43 0 .08.89.38.6.41 1.49 0 .11 0 .09-.08 0l.34.82c-.12-.08-.19.51-.3-.18a8.29 8.29 0 0 0 .57 2.36c.33-.5.52-.79.7-.78l-.11.17c.89-1.18.89-1.25.86-1.38s-.09-.28.32-.92c.34 0 .81-.09 1.22-.11L67 9.9c.17-.14.5-.38.52-.24.47-.66-.19 0 0-.46.94-.44 2.2-1.76 2.67-1.46.18-.39-.92.36-.09-.35.54.29 1-.73 2-.93-.13.37-1 .63 0 .43.28-.68 1.65-.67 2.33-1-.1-.35 1.52-.72 2.77-1.06a5.87 5.87 0 0 0 1.34 0 10.34 10.34 0 0 1 2.24.15v.06c.25-.38 1.47-.14 2.34.06-.1.19-.28.23-.75.22a6.73 6.73 0 0 1 .77.21 1.66 1.66 0 0 1 1 .15l-.29.16a6.59 6.59 0 0 1 3 1.82c.25-.12-.39-1.34.88-.37 0 .14-.18.35-.51.1a2.13 2.13 0 0 1 .57.49l-.61-.27c.39.54.41.09.74.51-.16.12.14.39 0 .43s-.23-.4-.43-.49a3.2 3.2 0 0 1 .73 1.36c.06-.11.22-.16.49.17.63.92 0 .45.26 1 .28.15.45.84.72.73a.63.63 0 0 1 0 .54 6.41 6.41 0 0 1 .57 1.33c.16.48.3.82.37.47v-.14.08a5.77 5.77 0 0 1 .26 2.89 22.88 22.88 0 0 1-.64 2.83h-.09c-.21 1.11-.89 2.34-1.09 3.16-.17.29-.56.6-.59.41a5.15 5.15 0 0 1-1.2 1.87c.37-.81-.29.16.41-.81A8 8 0 0 0 86.15 26c.06-.47-.78.47-1.08.92l.65-.49a12.72 12.72 0 0 1-1.1 1.26l-.05-.43c-1.83 1.43-2.4 3.51-4.18 4.23-.3.59 1-.75.82-.17A15.93 15.93 0 0 1 79 32.65c-1.23.83-.71 1.28-2 2.17.23 0 .58.09-.24.92-.87.65-1.35.46-.88-.05.2-.17.32-.22.34-.18.24-.25.56-.59.15-.41v.18c-.49.24-1.63 1.19-1.48.82-.57.59-.15.37.36 0-1.19.73-1.7 1.34-2.9 2.13.22-.09.47-.11.29 0-1.74 1.16-.59.74-1.69 1.64-.75.35 0-.51-1.08.47-.77.42-.33-.14-.12-.43a10.57 10.57 0 0 1-2.66 1.74l.5-.48a8.06 8.06 0 0 1-.85.69h.46c-.35.2-.63.4-.68.32-.24.37.49.13 0 .79-.5.22-1.24 1.07-1.58.92 1.43-.91-.34-.14.79-1a4.06 4.06 0 0 1-.83.6c-.07 0 0-.09.09-.17a3 3 0 0 0-.7.43c-.09.09 0 .1 0 .18a.5.5 0 0 1 0 .24s0 .12-.09.11a.41.41 0 0 1-.18-.05c.06-.17.09-.33-.29-.46.59.27.17.4-.44.27a6.83 6.83 0 0 0-1.6-.63l.55.33a3.72 3.72 0 0 1-1.44-.44c0-.14.65.2.43 0-.88-.08-1.49-1.16-2.6-1.51-.41-.35.11-.31-.26-.6-1.23-.42-1-.93-2.29-1.46.2.41.29.4-.64.09l2 1-1.38-.46c.57.36 1.28.62 1.59.87-.67-.19-.58-.21-.41.14-.59-.8-1.66-.8-2.43-1.57l.19-.4a9.2 9.2 0 0 0-1.86-1.28 8.48 8.48 0 0 1-2.14-1.5l.44.5c-.36 0-1-.79-1.57-1.14.18-.11-.1-.44-.23-.71-.09.14-1.07-1-1.49-.89l-.48-.82c-1.07-1.25-1.7-1-2.73-2.25.47.24.11-.4.94.29-.37-.38-.63-.78-.74-.7-.09-.32-1.12-1-1.27-1.5-.21-.13-.43-.06-.74-.58 0-.07.08-.05.08-.05s-.63-.71-.52-.15c-.49-1.64-2.39-4-2.43-5.52-.22-.53-.48-1.11-.68-1.69s-.35-1.17-.43-1.68c.07.06.1 0 .1.18a1.5 1.5 0 0 0-.31-1.13c-.19-.23-.31-.5-.17-1.31.34-.78.14.85.28.36.34-.1.28-.56.38-1.06a2.42 2.42 0 0 1 .19-.84 1.67 1.67 0 0 1 .47-.7l-.09.23c.56-.54.81-1.75 1.9-2.56 0 0 0 .09.05.08a6.06 6.06 0 0 1 3.27-2.18c-.34.32-.53.3-.24.46.55-.17-.28-.37.87-.69.41.09 1.25.13 1.35.44a7.17 7.17 0 0 0-1 .08c.56.28 1.34-.11 1.88.05l-.08.14c.76.07 1.14.13 1.58.15a3.13 3.13 0 0 1 1.54.72L51 12a.93.93 0 0 1 .71.55 1.8 1.8 0 0 0 .57.7l-.15.47a11.15 11.15 0 0 1 1 1.18 10.61 10.61 0 0 1 1 1.74c-.47-.56-1.18-1.77-1.76-2.37.34.52 1 1.9 1.28 2.17a3 3 0 0 1-.39-.76 6.26 6.26 0 0 1 1.45 2.88c-.38 0-.23.83 0 1.82a6.23 6.23 0 0 1 .1 2.68c.59 2.29.36 4.65.47 7.4.57-1 0 .8.65.62a2.48 2.48 0 0 1 0 .95l-.36 2c-.19.46-.13-.62-.27-.56-.06 1.41-.27.59-.44 1.52.22-.19.31.49.2 1.29l.31-1.12c.27 2-.55 1.69-.32 3.68l-.16-.63c.08 1-.2 3.75.21 4.78-.08.18-.27.4-.28 0-.24 2.43.06 5.47-.45 7.33l-.13-.2c0 .46.19.82 0 1.37-.06 0-.13-.2-.16 0a6.38 6.38 0 0 1-.05 1.82l-.1-.53a12 12 0 0 0-.24 3v1.31a5.42 5.42 0 0 1 0 .82.26.26 0 0 0-.11-.08 6.64 6.64 0 0 0-.61-.38h-.25l-.42-.05-.75-.07v-.06c-2.76-.1-4.71.24-7.29.27-1.56-.56-5.38-.58-7.89-1.15.38.12-.1.33-.56.32s-1.69.11-1.54-.29h.21c-.39-.46-1.63-.51-2.58-.67l-.23.5c-2.37-1.11-6.56-.87-7.74-1.9-.62 0-1.34-.19-1.95-.22l.1-.27c-1.59-.5-2.38-.76-4.35-1.35l.46-.06c-1.07-.41-1.66.32-2.66-.08l-.14-.52c-1.9-.73-3.53-2-5.39-2.65.06 0 .18-.11.45 0-.37-.27-1.12-.77-1.7-1.21s-1.08-.73-1.13-.4c0-.08 0-.2-.17-.34a5.19 5.19 0 0 0-.61-.52c-.25-.2-.53-.4-.82-.59l-.7-.6.31-.06a8.66 8.66 0 0 1-.9-.47A5.82 5.82 0 0 1 3.87 44c-.14-.27 0-.33.2 0-.43-.88-.62-.53-1-1.66l.36.32a4 4 0 0 0-.83-1.27 3.74 3.74 0 0 1-.33-1.18 1.57 1.57 0 0 1 .12-.92A1.71 1.71 0 0 1 1.84 38c.09-.09.18.12.22.23a7.4 7.4 0 0 0-.12-1.15c0-.33-.09-.63-.14-.92a3.33 3.33 0 0 1 0-1.66.24.24 0 0 0 .2-.14c-.09 1.33 0 2.43 0 2.33.25 0 .24-1.09.64-.26a6.52 6.52 0 0 1-.34-3.34.34.34 0 0 1 .08-.09v.11a1.82 1.82 0 0 0 .1-.64c.1-.31.2-.49.31-.78.12 0 .23-.29.36-.6s.28-.66.41-.87c-.27-.1.13-.66-.41-.23.06-.06 0 .1-.16.42a1.36 1.36 0 0 0-.07.22v-.05a9.17 9.17 0 0 0-.45 1.23 1.87 1.87 0 0 1 .43-1.38 3.56 3.56 0 0 1-.05-.88c.68-.5 1.78-1.35 2.08-1.3 1-1.28 3-2.23 3.77-3.08.42-.25.57-.06.77 0a3.16 3.16 0 0 0-.66.37c.82-.49 2.66-.9 2.82-1.28 1.23-.09-.6.46 1 .08l-.21.15a20.3 20.3 0 0 0 4.34-.64 9.88 9.88 0 0 1 4.7 0c-.26-.06-.39-.09-.44-.15.84.1 1.69.18 2.54.25l3.23.29v-2.62a7.85 7.85 0 0 1 0-1l.13-.94a9.61 9.61 0 0 1 1.16-3.53 4.38 4.38 0 0 0 .64-1.88h.4l.42-1.27a3.12 3.12 0 0 1 .84-.89 5.21 5.21 0 0 1 1-.65 8.62 8.62 0 0 0 1.09-.62 6.17 6.17 0 0 0 1.17-.84h-.34a15 15 0 0 1 1.35-.71c.45-.23.82-.37.81-.23a.57.57 0 0 1 .54-.35l.08.14A17.91 17.91 0 0 1 37.79 8c1.49-.23-.08.63 2 .23.77-.22 2.2-.71 1.9-.79s-.84 0-.88-.18a6.06 6.06 0 0 1 .74-.15c.06-.24.24-.48.16-.7S41.28 6 40.28 6c-.44.15-.87.34-1.3.5l-.47-.12a10.77 10.77 0 0 1 1.13-.23 2 2 0 0 0-1.48.4 1 1 0 0 0-.62-.11l-1.17.8c-.21-.12.47-.53-.43-.34-.52.41.7.18-.23.67-.68 0-.58-.22-1.22.25-.14-.06 0-.21.24-.37-.57.42-1.66.8-1.83 1.23a4.86 4.86 0 0 0-1.28.63c-.4.28-.72.51-.83.31-.11.23-.79 1-1.19 1.5.23-.61-.2-.19-.71.32s-1 1.2-1.14.89a12.51 12.51 0 0 1-.89 2l-.57 1.23a6 6 0 0 0-.29 1.16.8.8 0 0 1 0-.4 10.39 10.39 0 0 1-.77 1.54c.36.2.25 1.54.39 2.26-.53 1-.37-.68-.77-.4.16 0 .17.46.18.88s.14.8.27.63c-.06.2-.09.34-.12.45a1 1 0 0 1-.07.09s-.09.05-.25 0c.23.1.26.18.26.25a.5.5 0 0 0 .06.32v.06c-.59-.31-.34-.5-.63-.38-.07-.08 0-.15 0-.21a.27.27 0 0 0 .06-.08zM.51 33.1a4.73 4.73 0 0 1 .09-.62 4.56 4.56 0 0 0-.09.62zm-.17 2.51v-1.09c.1-.08.2 0 .18.27-.02-.14-.09.45-.18.82zm2.72-4.52c-.08.33-.16.42-.23.44A5 5 0 0 1 3 31v-.05a.29.29 0 0 1 .06.14z"/><path class="cls-1" d="M3 30.38v-.14l-.14.16v.15a.89.89 0 0 0 .14-.17zm87.59-16.72v.05a.37.37 0 0 1 0-.11s.01.04 0 .06zM23.76 56.75l.02-.07-.23.01.21.06zM82.41 4a.48.48 0 0 0-.17-.11.68.68 0 0 0 .17.11zm-5.92 0l-.84.1c.35-.01.63-.05.84-.1zm-4.33 1.37a.18.18 0 0 0 0 .15zM61 45.24l-.16-.06c-.36-.12-.1-.03.16.06zM78.62 35a5.35 5.35 0 0 1-.43.54c.3-.24.53-.43.43-.54zm-36.36-4.07h.01l-.09-.12.08.12zm35.19 5.21a3.41 3.41 0 0 0 .74-.62 4.87 4.87 0 0 0-.74.62zM61.87 4.18L61.76 4zM61.71 4l-.17-.18c.06.09.12.18.17.18zm-.51-.57l.34.39c-.1-.15-.21-.34-.34-.39zm3.11 6.12h.1a.2.2 0 0 0-.1 0zm.25.88a3.62 3.62 0 0 0-.07-.92h-.08c.08 0 .06.19.06.42s.02.52.09.5zm4.66-1.93c-.41.25-.82.52-1.21.8.26-.07.61-.16.11.26 1.64-.84-.46.02 1.1-1.06zm3.98-2.07c-.68.36.07.14.06.21.4-.29.51-.36-.06-.21zm15.01 16.66l-.17-.2c-.28.52.08.11.17.2zm-2.82 5.81l.53-.34v-.37c-.16.24-.35.47-.53.71zm-3.91 1.4l.16-.21-.66.77.5-.56zM41 24.12l-.22.29c.22.35.61.27.22-.29zm9.82-11.95a1.9 1.9 0 0 0 .79.89c-.32-.34-.55-.8-.79-.89zM30.52 55.5l.49-.03-.91-.05.42.08z"/></g></g></svg>