<svg xmlns="http://www.w3.org/2000/svg" viewBox="0 0 48.53 56.09" class="svg" focusable="false" aria-hidden="true" role="img"><defs><style>.cls-1{fill:#0087b1}</style></defs><g id="Layer_2" data-name="Layer 2"><g id="Layer_1-2" data-name="Layer 1"><path class="cls-1" d="M1.1 9.29c-.11 0-.28.06-.17.26h.37zm-.05 1.63c.24.19.61.37.84.11-.39-.14-.29-.24-.74-.37-.12-.2 0-.41.09-.42-.11 0-.06-.35-.29-.39a.86.86 0 0 0 .31 1c-.04.15-.15.06-.21.07zm8.48 20.36v-.15a.44.44 0 0 0 0 .15zm5.68 12.4c-.05-.09-.1-.12-.13-.11s.11.14.13.11zm.61 2.32v-.13c-.04.01-.04.06 0 .13zM9.53 31.28l.06.37c.11-.02-.01-.2-.06-.37zM2.89 13.45a.75.75 0 0 0-.16-.15l.1.16zM6.68 26v-.1h-.16zm-2-4.22c0 .1.3 0 .43 0a.33.33 0 0 1-.27-.12.39.39 0 0 0-.16.12zm-2.47-6.94l-.08-.1zM8.05 29a.18.18 0 0 0-.07.08.27.27 0 0 0 .07-.08zM6.75 8.87s-.03.01 0 0z" transform="translate(-.89)"/><path class="cls-1" d="M1.28 9.61h.06a.88.88 0 0 0-.05-.15zM17.12 50c-.12-.13-.05-.08 0 0zm31.67-9.76c0 .29-.17.13-.31 0s-.28-.17-.25.19c.06-.09.69.46.56-.19zM2.9 13.58c0 .06.05.11.07.17a.73.73 0 0 0-.07-.17zm45.33 26.88zM25.46 56.09a.3.3 0 0 0-.13-.09s.04.05.13.09zm-6.82-3.94l.05.19a.74.74 0 0 0-.05-.19zm10.43 2.28a.38.38 0 0 0 .26-.07.22.22 0 0 1-.26.07zM32.76 53h-.09l-.11.05zM17.89 4.55a.94.94 0 0 1-.25-.18c.12.17-.4.42.25.18zM2.74 13.52a.15.15 0 0 1 .16.06l-.07-.12s-.08.02-.09.06zM28.42 52.3l.61-.18a3.42 3.42 0 0 0-.61.18zm6.45-34.93l-.09-.11a.14.14 0 0 0 .09.11zM30.75 51.4a.82.82 0 0 0 .4.06.18.18 0 0 0 0-.1zM17.64 4.36z" transform="translate(-.89)"/><path class="cls-1" d="M14 6.35c.56-.2.14-.43.18-.68.63-.34.4.15.69.24.39-.24.59-.67.91-.77 0 .05.11.05.07.15.34-.44 1.3-.47 1.7-1l.1.06a1 1 0 0 1-.24-.45c.25-.09.4-.38.57-.18-.16 0-.14.14-.19.24l.21-.18c.35.25-.32.23-.24.48a4.75 4.75 0 0 1 1.43-.78c.18.3-.9.41-.28.53l-.65.07c.63.36-.38.08.22.49.84-.16.85-.46 1.68-.6.13-.24-.14-.25 0-.49 1.06-.67 1.14.52 1.84-.11.16-.27.14-.73.8-.65l-.11.42c.8-.16.32-.65 1.21-.6-.11.18-.59.28-.46.29.6.17.33-.31.74-.4l.16.32A14 14 0 0 1 26.87 2c-.05.1-.17.21 0 .31.92-.17 1.43.61 1.71 1.63l.44.24c0 .08-.05.22-.14.14.08.44.18 0 .37.09s0 .37-.17.26a6.11 6.11 0 0 1 1.47 2.83l-.15-.12c.16.67.86.46.86 1.14l-.1-.09c.47 1.39 1.37 2.75 1.43 4 .47 0 .42 1.4 1 1.24a5.42 5.42 0 0 0 .19 1.85c.11.3.53.27.75.6l-.28.14.52.34-.22.41.23.3c-.05-.14 0-.34.08-.36a1.65 1.65 0 0 1 .26 1.43l.8 1.1c-.12 0-.26-.16-.4-.28.59.51-.24.25.3.72 0-.11.19 0 .25 0a3.14 3.14 0 0 0 .6 1.51h-.24c.38.92 1 1.85 1.48 2.86-.08-.41.29-.48.46-.2l-.23.26c.27.1 0-.36.37-.08.15.39-.21.41-.41.24l.32.41c-.07.07-.17 0-.29 0 .27.1.08.94.53 1.05l-.07.07c.49 1 .81 1.41 1.23 2.22.26-.11.36.24.69.38a12.07 12.07 0 0 0 .73 2.11c.38.45.29 0 .55.2-.21.15.17.86-.18.57a13.93 13.93 0 0 0 1.39 2c0-.17 0-.32.12-.29.14.18.13.5 0 .52 1 1 .77 3.17 1.75 3.9h-.05l.77.88c.2.49-.32-.18-.28.23.94.89.83 1.75 1.55 2.51a2.43 2.43 0 0 0 .14 1.38 2.24 2.24 0 0 1 .05.78 1.3 1.3 0 0 1-.09.4.4.4 0 0 1-.17.17h.18c.11.2-.16.14-.24.22.12.05.22-.09.26 0a3.54 3.54 0 0 1-2 1.82c-.24.1-.48.19-.73.27l-.79.21-1.87.48c-.82.27-.12 1-1.29 1l.17-.42c-1.48 1-3.32 1.27-4.79 2.2.06-.11 0-.2.19-.26-.43-.1-1.25.47-1.18.65-.26.08-.13-.14-.31-.17-.39 0-.74.61-1 .45 0 0 .06-.1.12-.15-.18.2-1 .37-.73.55-.64.11-1.09.56-1.63.59-.2.41-1.07.25-1 .7-.12-.44-1.18.06-1.48.41.07-.18-.38 0-.3-.24-.44.18-.8.41-.64.6-1-.2-1.42 1-2.06.47a4.51 4.51 0 0 1-3.11.71c.1-.2.35-.13.57-.1s.46 0 .44-.23a1.87 1.87 0 0 1-2.09-.44c-.13-.22.23 0 .34-.05-.81-.46-1.11-1.46-1.73-2.23 0 0 .12.06.19.14-.09-.17-.12-.43-.3-.33l.13.15c-.14.41-.89-.47-1-.45.67.09-.25-1 .65-.77-.09-.11-.24-.23-.36-.15 0-.2 0-.28.24-.16-.37-.64-.48-.31-.72-.94.09 0 .18.08.31.1a1.83 1.83 0 0 1-.75-1c.07 0 .11-.08.18.07-.41-.88-1.13-1.32-1.38-2.37.53.12 0-.38.31-.58l-.34-.48-.07.28c-.2-.46-.63-.75-.69-1.2l.29.28-.45-.83.09.55c-.38-.39-.4.24-.58-.41.09.11-.21-.46-.12-.78a1.13 1.13 0 0 1-.5-.73c.06-.14.4-.1.45-.19-.39-.1-.57-1-1-1.17a.28.28 0 0 0 .31-.07l-.31-.07c0-.25 0-.29.15-.33-.25-.65-.34.4-.5-.43 0 0 .07 0 .16.11-.26-.8-.83-1.38-1-2.12.25-.37.37.56.55.19a24.75 24.75 0 0 1-1.77-2.85l.05.19c-.55.1-.11-.82-.57-1.2.09.1.34 0 .27 0a10.92 10.92 0 0 0-1.4-2.2l.18.06a11.93 11.93 0 0 0-.57-1.49c-.18-.06-.28-.31-.39-.08.08-1.62-1.55-2.27-1.52-3.69.07.13.26.27.21.16l-.57-.92c-.17.18-.07.19-.13.47a1.13 1.13 0 0 1-.53-.53c.35.37.34-.17.37-.41-.05.06-.15 0-.21.08.13-.69-.46.11-.54-.71H7a2.62 2.62 0 0 1-.54-.7c.19-.23.24.22.45.15-.2-.39-.82-.57-.74-1 .14.14.26.38.4.51a1.14 1.14 0 0 0-.08-.84l-.18-.73v.21c-.86-.21-.57-1-1.29-1.44.69.47.28 0 .57-.07 0-.21 0-.5.08-.46-.36-.22-.06-.61-.58-.91.08-.06-.14-.35.12-.37-.25-.38-.12.16-.24.18-.58-.51-.29-1.66-1.09-2.4-.51-.72-.87-.74-1.33-1.42 0-.31.41.07.41.07a1.9 1.9 0 0 0-.44-1.09c.11 0 .15-.06.21-.22-.15-.29-.42-.07-.44-.53a1.5 1.5 0 0 1 .48.16c-.22-.32-.53-.61-.76-1 .12-.16.33.13.48.22-.24-.39-.57-1-.86-1.07v.31c-.07-.15.18-.16.27-.07.34.29.12.55 0 .61l-.16-.24c-.42.48.51 1 .69 1.58L2 13.62l.54.42c-.05.16-.24.33-.4.09 0 .46.27.28.2.7 0 .05 0 0-.08 0l.27.33c-.11 0-.24.17-.28-.08.06.76.74 1 .55 1.34v-.05c.52.88.32 0 .94.53l-.49.76h.32c0 .1.1.3 0 .32.34.27.09-.12.36 0 0 .57.67 1.21.27 1.51.29.07 0-.51.34-.08-.42.35.33.52.3 1-.3 0-.35-.47-.38 0 .53.07.27.86.51 1.18.34-.14.48.7.87 1.23-.13 0 .33 1.2.46 1.8h-.19c.38-.05.59.54.85.91-.21.08-.32.05-.51-.13l.18.38c.15 0 .26.13.42.37h-.3c.26.5.78.89.93 1.62.25-.07.4-.83.88-.21-.11.09-.31.22-.45.06.05.05.21.16.21.31L8 27.85c0 .34.25.07.34.32-.18.08 0 .24-.19.27s0-.24-.15-.3a1.41 1.41 0 0 1 .07.84.22.22 0 0 1 .36.07c.26.5-.13.27-.08.62.18.06.21.45.48.33.07.15 0 .23-.08.33.24.2.63 1.21.77.78v-.08c.68.73.71 1.86 1.24 2.66l-.09.05a7.55 7.55 0 0 0 1 1.38c.07.15 0 .43-.13.42a1.72 1.72 0 0 1 .51 1c-.35-.32-.08.2-.31-.35.17.55.08.73.58 1.16-.32-.08-.1.52.08.73v-.43a3.66 3.66 0 0 1 .36.75h-.37c.13 1.21 1.51 1.59 1.27 2.67.34.18-.12-.64.25-.5.18.49 0 1.2 0 1.35.13.73.72.41.92 1.15.07-.13.32-.35.66.12.17.51-.19.8-.41.54-.06-.12-.06-.19 0-.2-.11-.14-.25-.32-.28-.08h.14c0 .29.3 1 .06.87.26.32.24.08.18-.22.12.69.43 1 .6 1.66 0-.13.11-.28.15-.18.28 1 .39.33.71.94 0 .44-.45 0 0 .63.06.44-.25.2-.41.09.46.49.34 1.15.43 1.49l-.21-.26a1.72 1.72 0 0 1 .25.45l.15-.26c0 .2.09.34 0 .38.21.12.31-.29.65 0 0 .28.41.7.15.89-.2-.81-.26.2-.56-.43a1.08 1.08 0 0 1 .17.47s-.07 0-.1-.05c0 .85.46.21.76 1-.2 0-.23.32-.14.43-.13-.32.2-.26.46 0 .09.56.34.51.44.78l-.08-.33c.21 0 .3.28.53.6-.11.09-.25-.27-.24-.12.47.23.18 1 .74 1.44.08.31-.25.22-.15.49.66.42.38.81 1.19 1.22-.05-.36-.13-.29.49-.18a5.25 5.25 0 0 1-1.16-.69 6.11 6.11 0 0 0 .85.3 4.33 4.33 0 0 1-.84-.63c.41.15.34.15.36-.11.1.63.86.51 1.22 1l-.29.51c.81.71 1.82.36 2.95.38l-.38-.07c.14-.24.71-.09 1.05-.26 0 .2.24.23.42.32 0-.14.8-.19.78-.6l.54.1c.86-.18.73-.85 1.5-1.08-.15.29.25.29-.2.63.25-.1.49-.15.44-.28.2 0 .59-.52.89-.43.07-.12 0-.33.32-.42v.09s.39-.29.07-.4c1 .28 2.12-.87 3-.63.52-.28 1.15-.59 1.64-.79 0 .07 0 .09-.07.11.75-.09.22-.69 1.06-.8.51.14-.35.32-.06.34.34.56.9-.45 1.56-.29l-.11.08c.47 0 .88-.6 1.54-.81a.09.09 0 0 0 0 .09A5.35 5.35 0 0 1 40 49.67c-.1.32-.23.24 0 .43.27-.14-.23-.35.3-.63.23.06.68 0 .83.25l-.52.22c.4.23.68-.28 1-.33v.16c.79-.36.66-.73 1.54-1l-.15-.11c.34-.55.48.05.85-.41l.28.32 1.5-1.18c-.15.43-.79.9-1.16 1.22.33-.11 1.13-.52 1.18-.79-.1.11-.23.27-.38.28a4 4 0 0 1 1.23-1.26c.17.35.59.13 1-.24s.85-.89 1.26-1a9.56 9.56 0 0 0 .58-2.18 4.41 4.41 0 0 0-.19-2.42c-.36.75-.18-.45-.72-.11-.17-.3-.23-.42-.2-.46l-.13-1c.06-.28.26.21.37.12-.28-.64.1-.38 0-.86-.15.18-.39-.07-.5-.46v.62c-.74-.71.06-1-.67-1.7l.31.18c-.33-.39-.84-1.65-1.51-1.86 0-.11.12-.29.26-.12-.48-1.1-1.68-2.14-1.83-3.11h.17c-.14-.18-.43-.22-.42-.54.06 0 .18 0 .14-.08s-.51-.41-.56-.72l.26.15c-.35-1.13-1.17-1.42-1.7-2.25.39-.2.11-1.09 0-1.53h.06a18.65 18.65 0 0 0-2.06-3c.09-.92-1-2.48-1.28-3.73 0 .2-.32.12-.46-.07s-.63-.6-.24-.73v.09c.26-.37-.09-.87-.29-1.31l-.51.16c.16-1.45-1.63-2.83-1.29-3.73-.25-.22-.4-.56-.64-.77l.29-.08a13 13 0 0 0-.9-2.08l.27.11c-.22-.53-1-.33-1.28-.81l.32-.32c-.42-.92-.5-2-1.25-2.76a.23.23 0 0 1 .27.11c-.18-.44-.48-1.79-.94-1.4.34-.17-.38-1-.75-1.41h.29c-.51-.28-.6-.26-.95-.81 0-.15.15-.21.17 0-.07-.52-.4-.25-.51-.89L31 4c-.2-.51-.27-.43-.59-.61a1.43 1.43 0 0 1-.29-1.18.88.88 0 0 1-.7-.43c0-.1.17 0 .24 0a1.79 1.79 0 0 0-1-.79 4.09 4.09 0 0 1-1-.39.21.21 0 0 0-.1-.19A2.92 2.92 0 0 1 29 1c.18-.21-.52-.67.24-.63A4.57 4.57 0 0 0 28 .19a9.16 9.16 0 0 1-1.2 0s-.07-.05-.09-.09h.07a.81.81 0 0 0-.42.06 1.91 1.91 0 0 0-.53 0c-.11-.21-.72 0-1 .05.08.27-.29.3.1.46-.05 0 0 0 .23-.09s.09 0 .11-.06L26 .38a.81.81 0 0 1-.78.24c-.11.21-.23.42-.3.53-.52-.35-1.3-.4-1.46-.61-.81.36-2 .6-2.35 1.26-.22.13-.31-.07-.42-.13.12-.09.28-.12.34-.22-.44.26-1.39.46-1.39.84-.64 0 .23-.42-.56-.12l.07-.17c-1.78 0-2.29 1.74-4.27 1.64h.25c-2.1.38-4 1.78-6.07 2-.59.12-.56.36-.83.66L8 6.15l-.44.56c-.71.55-1.67-.13-2.51.73l.21.14c-.38.11-1.12.58-1.14.34 0 0 0 .25-.23.21L3.82 8 3 8.61c-.74.18-.13-.63-1.16-.24-.35.21-.9.87-.72.91s.43-.07.5.07l-.31.22c.11.46 0 1 1 1l.51-.57.28.13-.49.22c.36.08.47-.17.62-.37a.43.43 0 0 0 .34.13L4 9.48c.14.14-.12.44.3.37.2-.3-.41-.27 0-.58.36.08.34.28.6 0 .1.09 0 .19-.06.3.24-.26.76-.38.82-.67.39.12 1-.47 1.11 0a1.83 1.83 0 0 1 .65-.66c-.3.69 1-.37 1.1.2.19-.59 1.25-.72 1.8-1.22 0 .05-.06.15-.13.15a2.24 2.24 0 0 1 .81 0c-.1-.38.44-.69.67-1 .58.18-.11.53.16.82-.14-.29.67-.59.42-.78.43.09.34 0 .63.23-.11-.48.29-.2.47-.59.58 0 .29.38.78 0 .29-.05-.13.3-.13.3zM26.87 1.9h-.24zm.87.18a1 1 0 0 0-.35-.08c0-.1.05-.2.14-.17-.06 0 .14.11.21.25zm-2.35-2c.19-.07.27 0 .31 0l-.35.09a.27.27 0 0 1 .04-.09z" transform="translate(-.89)"/><path class="cls-1" d="M25.11.51L25 .54h.13l.05-.1zM9.5 31.11a.07.07 0 0 1 0-.06v.06z" transform="translate(-.89)"/><path class="cls-1" d="M33.3 16.24l.06-.03-.09-.07.03.1z"/><path class="cls-1" d="M7.57 24.85a.17.17 0 0 0 0-.11.23.23 0 0 0 0 .11zm-1.13-2.56l-.07-.4a3.9 3.9 0 0 0 .07.4zm-.76-2.01a.28.28 0 0 0-.13 0h.13zM20.27 51.2l.05.06c.13.14.05.04-.05-.06zm-4.59-9.07a1.42 1.42 0 0 1 .25.24c-.05-.17-.11-.3-.25-.24z" transform="translate(-.89)"/><path class="cls-1" d="M27.47 52.33l.07-.03-.07.03z"/><path class="cls-1" d="M16.13 42.8a.82.82 0 0 0-.2-.43 1.13 1.13 0 0 0 .2.43zM2.21 11.67v-.1zm-.07-.09l-.07-.1s.03.09.07.1zm-.22-.3l.15.2c-.07-.08-.07-.18-.15-.2zm1.21 3.07zm.36.79c-.06-.2 0-.56-.17-.8h-.08c.19.07.02.66.25.8zM3.74 19l-.21-.7c0 .16-.12.37-.27.08.07.92.14-.32.48.62zm.78 2.08c-.21-.34-.15.07-.21.07.19.19.24.23.21-.07zm6.99 14.69l-.25.08c.16.25.09-.04.25-.08z" transform="translate(-.89)"/><path class="cls-1" d="M13.15 38l.02-.33-.27-.02.25.35zm-.87 2.44l-.09-.1.3.41-.21-.31z"/><path class="cls-1" d="M32.19 53.49l-.19-.26c-.17.12-.08.47.19.26zm10.88-4.56a.52.52 0 0 0 .66-.14c-.26.08-.55.06-.66.14z" transform="translate(-.89)"/><path class="cls-1" d="M36.91 18.01l.2.17-.27-.37.07.2z"/><path class="cls-1" d="M33.36 42.07s.15.15.15.11l-.16-.18zm.44.22a2.47 2.47 0 0 0-.31-.47 3.05 3.05 0 0 0 .21.38s-.09 0-.15-.1-.06 0 0 .11.18.1.12-.05a1.13 1.13 0 0 1 .13.13zm1.78.27zm.58.86zm-.16.27zm-.42-1.13v.08c.03-.07 0-.06 0-.08zm-1.81-.96a.23.23 0 0 0 0 .07zm1.34.98v.1zm-.3 0v-.29.14zm-.58-.26zm1.07.37v.08zm-1.81-.99s.01 0 0 0z" transform="translate(-.89)"/><path class="cls-1" d="M33.27 42.73l-.01.01-.03.12.04-.13z"/><path class="cls-1" d="M35.1 45.58c.06.18 0 .24 0 .45a1.82 1.82 0 0 0 0-.45zm-1.3-3.96s0-.01 0 0z" transform="translate(-.89)"/><path class="cls-1" d="M34.26 46.03l.01.02-.01-.02z"/><path class="cls-1" d="M36 44.68zm.28-.56zm.04.82s-.03 0 0 0zm-.06.22zm-4.21-2.45l.16.1c-.12-.09-.11-.19-.16-.1zm1.77-1.01v-.08a.24.24 0 0 0 0 .08zM38 45.23l-.05.09a.16.16 0 0 0 .05-.09zm-5.68 1.03zm5.55-.66h-.16z" transform="translate(-.89)"/><path class="cls-1" d="M32.28 42c-.08.06.14.24.23.37s-.17-.12-.29-.21c0 .1.14.32.1.34a.32.32 0 0 1-.09-.08c.12.2-.13.15 0 .38h-.06l.31.23s.1.15-.05.05c0 0 0-.06-.08-.1v.07c-.22-.13 0-.09-.19-.21 0 .11.15.29.07.29s0-.15-.23-.22h.13c-.37-.19 0 0-.33-.23-.14 0 0 .19-.1.24.11.1.18.11.29.2.14.25-.62-.2-.38.07.14.11.43.25.24.25l-.26-.14c-.07.09.36.21.14.25s-.06-.12-.09-.11c-.24 0 .13.11.11.16l-.24-.08c0 .13.14.31.16.44a.45.45 0 0 0-.23 0c.1.19-.08.35-.22.56l.22.05h.09c.09 0-.12.07-.18 0 .19.12.44.24.25.41h-.07c-.06.11.46-.05.29.09 0 .21.24.29 0 .58.28-.15 0 .24.35 0-.12.2-.2.23-.22.44 0 0 .25-.13.32-.12l-.17.15.22-.11-.18.21h.08a.3.3 0 0 1 .1-.15c.12 0 0 .23-.07.32a1.07 1.07 0 0 0 .25 0 .38.38 0 0 1-.16.11c.22-.12-.14.19.06.08a.86.86 0 0 1 .13-.14c-.06.14 0 .2.1.19l-.1.13c.08.1.27.09.39.16a.54.54 0 0 1 .19-.33l-.11.22c.1-.12 0-.1.15-.23 0 0-.11.26-.18.31h.1c0 .06-.06.09-.11.17.09-.12 0 .27.14.05v.07c.13.06.22 0 .33 0 .08-.19.11-.13.2-.28 0 .09.08.27.18.29s.07-.17.13-.28c0 .19.05.19 0 .31.12 0 .15 0 .32-.12a.51.51 0 0 1 0-.18v.18c.18-.26.32.6.49.21l.14-.21c.07 0 0 .15 0 .26.14-.32.24 0 .35-.19.17.56.33-.09.53.23v-.13c0-.13.06.07.1.09s-.07-.11-.07-.18c.23-.23.64 0 1-.1.13 0-.32-.61 0-.44l.11.23c0-.38.43-.35.39-.72 0 0 .1.1.08.12.18.06.13-.17 0-.25 0 0 .11.07.19.09s-.13-.24 0-.18a.07.07 0 0 1 0 .06c0-.08.1-.15-.1-.21.13-.05 0-.2.13-.23-.2-.12.16-.13-.15-.23.32.1.3-.1.15-.18h.25c.14 0-.05-.14-.22-.15.42-.08-.31-.24.21-.27a6 6 0 0 1-.4-.45c.34 0 .05.15.4.12-.15-.14-.44-.17-.38-.31s.15 0 .21 0c-.15-.11 0-.26-.21-.34a.14.14 0 0 1 .09 0s0-.07-.11 0a2.63 2.63 0 0 1-.59 0c.44-.07.09-.13.64-.21a.42.42 0 0 0-.21 0 .38.38 0 0 1 .2-.06c-.1-.06-.25 0-.27-.05h.19c-.15 0-.29 0-.25-.07s.09 0 .1 0-.42 0-.34-.19c.32-.09.09-.08.34-.19h-.1l-.11.08c0-.05-.23 0-.17-.09H37l-.1-.07.1.11c-.15 0-.31.17-.27.07s0 0 .11-.14h-.14a3 3 0 0 1 .32-.19c-.22.1-.13-.08-.36 0a.87.87 0 0 0 .2-.12l-.17.08a.46.46 0 0 1 .16-.13c0-.09-.27.22-.2.06h.07c0-.12-.2-.06-.18-.18.2-.2.1 0 .26-.16-.12-.08-.42 0-.46-.09-.28.29.06-.2-.11-.1a.73.73 0 0 0 .13-.13c0-.1-.2 0-.37 0l.06-.08c0-.1-.08-.11-.11-.18-.06.09-.08.06-.13.2.09-.61-.38.17-.35-.33 0 0 .06-.07.05-.07l-.15.05a1.19 1.19 0 0 0 0 .25c0 .09-.08.16-.11.16a.62.62 0 0 0 .06-.37v.16c0-.32-.07.34-.11.12v-.09s-.14.21-.2.21c0-.2 0-.09.07-.25-.05 0-.13.36-.15.16l.08-.1c0-.24 0-.18-.07-.23l-.08-.11v.06c-.08.53-.13.09-.2.44.06-.33 0-.19 0-.41a.66.66 0 0 1-.06-.2c0 .19-.09-.14-.12.14 0-.07-.05 0-.06-.19-.05.07 0 .13 0 .22 0 .25-.27-.26-.31.1a2.56 2.56 0 0 0 0 .55.6.6 0 0 1-.08-.26c-.09-.08-.12 0-.12 0a.48.48 0 0 0-.11-.17s.11.25 0 .18-.08-.2-.1-.28a1.48 1.48 0 0 0 0 .3.66.66 0 0 1-.11-.25.38.38 0 0 0 0 .35h.07s-.11-.14-.12-.18.1 0 .14.08v.06c.25.34.06-.12.14-.13l.12.29L34 42a.77.77 0 0 1 .12.27c.1.13 0-.11.08 0v-.09c0 .06.09.2.05.16.11.15 0-.25.1 0 0-.13-.07-.22-.07-.5.07.18.12.36.18.54v-.36c.07.19.11-.12.16.24 0-.17-.06-.13 0-.25 0 .38 0-.07.1.1s0 .1 0 .28c0-.34.07.07.09 0 0-.27.06-.11.12-.19 0 .09.08.15.11.26 0-.27.09-.21.14-.25a1.71 1.71 0 0 1-.09.29.3.3 0 0 1 .07-.15l-.06.2s.15-.22.15-.07c.07-.17.13-.52.24-.61a1.86 1.86 0 0 1-.12.3s0-.08 0 0l-.08.15c0 .08.06-.13.08-.11a1.94 1.94 0 0 1-.07.22s0-.07 0 0a.45.45 0 0 1 0 .23.78.78 0 0 1 .1-.19c.05 0-.06.17-.07.25.05-.09 0 0 .13-.19 0 0 0 .1-.06.16s.09 0 .19-.2c.18-.14.06.19.17.16l-.05.05c.09 0 .11 0 .24-.07a.47.47 0 0 1-.13.18c.06 0 .12-.07.07 0s-.08.09-.09.05-.1.15.08 0c-.15.12-.16.18-.11.16l.09-.11-.2.15c-.2.23.51-.19.12.15.16-.08.08-.11.26-.2 0 0-.29.27-.28.28s.34-.14.28 0a1 1 0 0 1 .38-.17c0 .06-.31.22-.39.23a.35.35 0 0 0-.15.07h.08c-.07.06 0 .1-.18.15a.23.23 0 0 0 .17-.09c-.1.1 0 .07 0 .15l.14-.06c-.08.11.17 0 .22 0-.11.08-.3.11-.18.12a.84.84 0 0 1-.29.1c.18 0-.08.11-.1.14h-.08l.17-.06a.22.22 0 0 1-.1 0 3.52 3.52 0 0 1 .44-.11c-.08 0 .12 0-.11.1.06-.08-.23.07-.28 0h-.06c-.19.1.26 0 .27 0s-.24.07-.21.08.21-.07.32-.07c-.1.06.08 0 .07 0h.17-.12c.24 0-.22.12-.06.13-.09 0-.25 0-.3.07.17 0-.18.07 0 .1a.8.8 0 0 1 .31 0l-.14-.06h.27s-.12 0-.09-.06a.54.54 0 0 0 .25 0c-.26.07.16.06 0 .13h-.44c-.19.07.23.09.12.17h.08c.18 0 0 .05.1.07a2 2 0 0 0-.3 0c.11 0 0 0 .29.06h-.2c-.08.05.42.1.36.16s-.26 0-.37-.07 0 0 .07 0c-.09 0 .19.07 0 .06.06 0 .21 0 .2.07h-.08a1.65 1.65 0 0 0 .26.07c-.46 0 0 .19-.41.09a.24.24 0 0 1 .05.15h-.05c-.14 0 .35.24.19.22s-.09-.1-.18-.13c-.4-.27 0 .08-.23-.06-.13-.09.11.16 0 .17v-.05a.6.6 0 0 1 .17.39 1.37 1.37 0 0 0-.18-.24s.21.24.2.31a1.29 1.29 0 0 1-.28-.29c-.18-.2 0 0-.08 0l-.06-.1c0 .06.14.31.07.33v.07c.11.28-.11-.13 0 .08l-.15-.25a.88.88 0 0 1 0 .36c-.06-.21-.06-.33-.09-.46s-.06 0 0 .19v-.07c.08.23.08.35 0 .37-.19-.54-.18-.09-.34-.51 0 .22-.16 0-.23 0 .09.44 0 0 0 .47l-.1-.27v-.2c0-.1 0-.2-.06-.32v.39c-.06.25-.07-.39-.12-.14v-.15c0 .09-.1 0-.16.36a1.36 1.36 0 0 1 0-.21c-.06-.06-.22.37-.25.14v-.11s-.07.2-.07.08a.36.36 0 0 0 0-.11s-.08.18-.09.11v-.12c0-.15-.19.27-.29.32a1 1 0 0 0 .07-.49v-.05c-.06-.06-.23.2-.38.27.12-.34-.08-.22 0-.43a1.15 1.15 0 0 1-.18.23c0-.06-.18.15 0-.09.17-.25.1-.2.08-.23l-.26.3c.33-.47-.31 0 0-.38-.09.05-.1 0-.19.08l.17-.13v-.12l.13-.07s-.54.3-.57.27l.27-.17s.2-.2-.08-.14h.14s.17-.14-.24 0c.27-.09 0-.06-.11-.06h.2-.4.54-.22c-.16 0 0-.07.24-.07h-.21.13c.14 0-.23-.1 0-.12h.12v.06a3.29 3.29 0 0 1 .49 0c-.14 0-.45-.11-.35-.13h.24c-.2 0-.17-.07-.34-.1-.1 0-.19-.08-.07-.07l-.4.06a4 4 0 0 1 .63.13 1.21 1.21 0 0 0-.37-.34s.11 0 .17.06a.22.22 0 0 0 .07.06c-.08-.07 0-.09-.23-.25.13 0 .21.16.2.09h.07c.21.08.08 0 0-.19s-.16-.28.09-.13l-.08-.06c.25.1.12-.4.43-.1.06 0 0-.11 0-.24l.09.21a2.38 2.38 0 0 1 0-.26c0-.21.21.52.21.15v-.15s.08-.09.08.08v-.08.12c0-.06 0-.13.07-.2v.5c0 .03.12-.33.13-.41a.42.42 0 0 1 0-.19v-.06c.07-.34.22-.68.12-.94a1.37 1.37 0 0 0-.13.2v-.18h.09c0-.16-.08 0-.12.07a.49.49 0 0 0 0-.2L34 42c0-.13.06-.27 0-.34v.4c0-.15 0-.28-.08-.15a.31.31 0 0 1 0-.18c-.05.11-.14 0-.14.23-.07-.18-.15.08-.2-.25a.68.68 0 0 1-.07.29c0-.4-.16 0-.27-.38.05.35-.16.22-.17.45V42c0 .01-.13-.09-.2-.13a2.25 2.25 0 0 1 .15.54c-.2-.21-.14-.31-.3-.54.12.2 0 .27.15.42a.84.84 0 0 1-.25-.23c.21.31 0 .08.1.29-.17-.1-.23-.26-.23-.12a.32.32 0 0 1-.21-.23zm-.46 2zm0 .15a.14.14 0 0 0 0-.06h.14a.34.34 0 0 0-.16.03zm1.47.06h-.05zm-.29-.12h.06zm2.59-1.57z" transform="translate(-.89)"/><path class="cls-1" d="M31.24 46.21l.04-.04-.05.02.01.02z"/><path class="cls-1" d="M35.27 41.64zm-.27-.1v-.07a.14.14 0 0 0 0 .07zm-.3-.1v.09zm2.96 2.39s.04 0 0 0zm-.84-.83h.1s.01-.11-.1 0z" transform="translate(-.89)"/><path class="cls-1" d="M37.08 45.22h-.01v.01l.01-.01z"/><path class="cls-1" d="M36.94 43s-.03 0 0 0zm-3.41-1.28zm.01.03s.01.02 0 0zm0 .09v-.06s-.03.01 0 .06zm.37-.22v-.07zm.09-.07s-.12-.12-.14-.06v.06c0-.12.14.13.14 0zm.59.82h-.06a.8.8 0 0 1 0 .21c.14.18-.01-.23.06-.21zm.17.11v.16a.29.29 0 0 0 0-.16zm1.03.41l-.14.13s.05-.02.14-.13z" transform="translate(-.89)"/><path class="cls-1" d="M35.83 42.44l.07-.1-.15.1h.08zm-1.01.94l-.03.01.08-.01h-.05z"/><path class="cls-1" d="M36.1 45.06l.22.08s-.32-.14-.22-.08zm-.24.61c-.07-.1-.13-.16-.08-.05s.08.08.08.05z" transform="translate(-.89)"/><path class="cls-1" d="M32.78 45.07l.06-.05-.06.03v.02z"/><path class="cls-1" d="M30.15 5.67c0-.06-.07-.2-.1-.16l.07.24zm-.41-.34a1.17 1.17 0 0 0 .13.55c0-.24 0-.15-.05-.43 0 0 .09 0 .12.14 0-.07.08 0 0-.13s-.18-.14-.19 0a.49.49 0 0 1-.01-.13zM26 6.27zm-2.3.67v-.06a.07.07 0 0 0 0 .06zm-.48-.12s0-.02 0 0zM26 6.27l-.09-.06c.02.08.09.05.09.06zm3.45-.2a.15.15 0 0 0 0-.07zm-2.55-.35v-.1zm.75-.3s0 .19.07.28a.27.27 0 0 1 0-.15.81.81 0 0 1-.07-.13zM29 5.33zm-2.66.55v-.07zM5.63 14.69s-.01 0 0 0z" transform="translate(-.89)"/><path class="cls-1" d="M3.52 14l.01-.01-.04-.11.03.12z"/><path class="cls-1" d="M22.43 6.82s0-.02 0 0zm-6.35 2.46c.14.15 0 .27.15.43-.04-.07-.02-.35-.15-.43zm13.34-3.23s0 .01 0 0z" transform="translate(-.89)"/><path class="cls-1" d="M15.34 9.71l.02.01-.02-.01z"/><path class="cls-1" d="M20.86 7.52l.05.08a.15.15 0 0 0-.05-.08zm1.31-.15s-.01 0 0 0zM20.35 8h-.05.05z" transform="translate(-.89)"/><path class="cls-1" d="M18.81 8.25l.03.04.02-.02-.05-.02z"/><path class="cls-1" d="M7.57 14a.91.91 0 0 1-.09-.17c.05.09-.03.17.09.17zm21.84-8v.09zm-8.49 3.58h-.12a.25.25 0 0 0 .12 0zm-8.64 2.88s0 .03 0 0zm8.23-2.73a.69.69 0 0 0-.11-.12.15.15 0 0 0 0 .06z" transform="translate(-.89)"/><path class="cls-1" d="M7 14.47c.1 0 0-.27-.07-.43s.12.18.2.3c0-.09 0-.35.09-.36a.36.36 0 0 1 0 .11c0-.23.23-.08.24-.37v.06a2.7 2.7 0 0 1-.13-.36s0-.19.1 0v.13-.09c.12.23 0 .1 0 .29.07-.11.11-.35.2-.3.09.24-.14.13 0 .32l-.13-.06c.2.36-.08 0 .13.38.16 0 .11-.17.28-.15 0-.14-.07-.19-.08-.34.12-.3.34.56.39.19 0-.17-.09-.48.06-.35l.05.28c.15 0 0-.42.16-.27 0 .11-.08.12-.05.15.16.18 0-.18.09-.2l.09.24c.14-.09.24-.31.39-.41 0 .08 0 .16.07.23.17-.19.45-.11.69 0v-.23s.06.09.06.13v-.23c0-.1.1.11.09.18.08-.22.27-.51.48-.32V13c.14.05 0-.47.16-.31.27 0 .48-.26.76 0-.06-.31.29.06.17-.36.2.16.19.25.43.33.06 0 0-.29 0-.35l.07.22v-.26l.13.25v-.08s-.08-.08-.1-.15.28.08.32.2l.16-.26a.33.33 0 0 1 0 .2c0-.27.09.22.14 0a.53.53 0 0 1 0-.18.18.18 0 0 0 .3 0v.16c.18 0 .33-.19.51-.25-.09 0-.16-.31-.11-.35l.1.22c0-.16-.09-.07-.08-.27.08 0 .14.25.12.34l.06-.11v.2c0-.15.22.18.19-.08v.06c.18-.06.24-.17.39-.23-.07-.2 0-.18 0-.35.13 0 .31.13.44.07s0-.18 0-.31c.07.18.2.11.17.27a.85.85 0 0 0 .35-.34c-.05-.06-.09-.09-.1-.15s.11 0 .14.13c.12-.35.71.33.75-.11l.1-.27c.1 0 0 .16.11.24.08-.37.33-.07.42-.33.33.48.43-.21.73.06l-.06-.12c0-.14.09.05.13.07s-.09-.1-.09-.18c.32-.28.85-.09 1.28-.12.15 0-.17-.67.12-.44v.25c.18-.38.59-.2.77-.54v.14c0 .01.22-.07.17-.21s0 .13.11.19.06-.27.16-.12 0 .06 0 .08.19 0 .07-.22c.14.05.17-.16.3-.08 0-.23.22 0 .12-.27.11.32.28.19.29 0 0 .1.09.08.12.22.07 0 .12-.12 0-.28.29.33.17-.4.43.06a2.5 2.5 0 0 1 .5-.59c.11.32-.21.11-.08.44.14-.2.15-.51.37-.5.07 0 0 .14 0 .2.14-.19.38-.1.48-.33a.17.17 0 0 1 0 .1s.1 0 0-.13c-.13-.19 0-.48-.07-.59.1.43.21 0 .32.59a.32.32 0 0 0 0-.2s.07.06.08.19c.09-.13 0-.26.1-.3a1.06 1.06 0 0 1 0 .19c0-.15 0-.31.12-.28s0 .09 0 .1c.15-.08.13-.46.36-.39.06.32.09.08.2.34l.07-.11.23-.01c.08 0 .08-.24.19-.18L24 8l.13-.1-.13-.1c0-.17-.14-.33 0-.3 0 0 .08 0 .18.12 0-.1 0-.2.1-.16s.1.29.13.35c0-.24.17-.13.13-.38a1.94 1.94 0 0 0 .07.22v-.19c.06 0 .08.07.11.18s-.16-.32 0-.22v.07c.16 0 .21-.2.37-.16.14.25-.08.1 0 .31.16-.11.25-.45.44-.45-.12-.38.2.14.22-.07a.59.59 0 0 0 0 .18c.14 0 .21-.18.35-.36V7c.1.06.2 0 .3 0s0-.1 0-.23c.45.46.34-.45.72-.08v.1l.14-.15c-.07-.16-.06-.09-.14-.2s0-.2.05-.21.1.26.17.33a.67.67 0 0 1-.06-.15c.2.25-.11-.33.09-.18v.08c0-.06 0-.19.09-.18.09.18 0 .11 0 .26.07 0 0-.4.14-.24s-.05.08-.06.14c.15.2.14.14.2.15l.16.06h-.06c-.1-.52.15-.16.15-.52 0 .34 0 .18.12.4 0 .05.12.09.13.16 0-.19.15.1.13-.18 0 .07.07 0 .12.16.05-.08-.06-.11-.09-.2 0-.27.38.19.42-.19.09-.18 0-.42.11-.59a.36.36 0 0 1 .06.27c.11.07.16 0 .2-.07a.38.38 0 0 0 .09.18c.05 0-.06-.26.05-.19a1.45 1.45 0 0 1 .05.3c0-.09.06-.24.1-.32a.47.47 0 0 1 0 .28.42.42 0 0 0 .11-.38h-.08s.08.16.07.2-.12 0-.15-.1v-.06c-.2-.38-.16.13-.26.14l-.08-.3v.28c-.05-.07-.13-.23-.1-.29s0 .12-.14 0v.11c0-.06-.09-.2 0-.17-.18-.13-.11.29-.24.08-.13.16.06.22 0 .52l-.29-.5.07.22s-.06 0-.09-.1c0 .17.05.09.06.24-.15-.16-.19.18-.34-.16 0 .18.13.1.08.24-.16-.35-.07.1-.21 0s.06-.12-.08-.26c.08.33-.17 0-.21.06.09.26-.1.16-.17.28 0-.09-.26-.07-.39-.12.08.27 0 .26-.1.34a.68.68 0 0 1 .06-.57h-.07a.2.2 0 0 1 0 .18l-.06-.2c-.09 0-.1.3-.27.21.06.18.29.47.21.63a.74.74 0 0 1-.09-.31s0 .1-.05.06v-.15c-.08-.05 0 .15 0 .15s-.07-.09-.1-.2.06 0 .05 0a.37.37 0 0 1-.21-.16c0 .07.08.18.05.21s-.1-.15-.18-.2c0 .1-.08 0 0 .23L26.17 6c0 .11-.21.11-.07.31-.08.26-.37 0-.49.14v-.06c-.06.11-.19.12-.2.29 0 0-.11-.1-.13-.19-.05.08 0 .16-.17.08 0-.15-.07-.1 0-.11-.11 0-.17-.13-.2.09 0-.19-.16-.2-.18-.13l.11.1a.15.15 0 0 1-.13.05l-.07-.24c-.3-.22-.16.6-.48.18 0 .18.14.08.17.28-.1 0-.32-.3-.34-.29s0 .38-.14.34c.05.07.15.29.08.4s-.24-.31-.21-.39 0 0 .05 0a.12.12 0 0 0 0-.16v.08c-.07-.07-.19 0-.21-.16a.12.12 0 0 0 .08.17c-.15-.08-.17.06-.32 0 0 0 .09.13.07.14-.2 0 0 .18-.11.26-.11-.1-.09-.31-.17-.16-.1-.06-.1-.22-.09-.3-.05.2-.24 0-.31 0v-.09a.12.12 0 0 1-.07.07l.09.16s-.07 0-.1-.08c0 .12.14.27.13.44-.08-.07-.1.14-.2-.08.16 0-.1-.21 0-.29s0 0-.08 0 0 0 0-.06c-.21-.15 0 .27-.1.32 0-.13-.12-.23-.14-.19s.11.19.1.31c-.13-.07-.07.1-.12.11h.07c0 .14 0 .13-.06.2-.05-.1 0-.09 0-.13 0 .25-.24-.17-.28 0-.07-.07-.09-.23-.15-.27 0 .2-.18-.13-.24 0 .1.16.09.11.07.3l.14-.18v.29s.07-.15.11-.13 0 .11.07.24c-.17-.23-.09.2-.24.06l-.16-.42c-.2-.13-.15.3-.36.26h.09c0 .17-.1.06-.13.14a.72.72 0 0 0-.16-.25c.05.1-.12 0 0 .31l-.15-.15c-.16 0 0 .45-.15.45 0-.17-.11-.24-.07-.38s-.09 0-.06.1c-.05-.08 0 .23-.14.11 0 .07.06.22 0 .22a.17.17 0 0 1 0-.07c0 .07 0 .12.06.26-.3-.38-.36.17-.62-.16a1.6 1.6 0 0 1-.26.21v-.06c-.17-.09.08.42-.12.32s0-.14-.05-.21c-.19-.45-.13.12-.33-.11-.13-.13-.1.23-.23.24v-.07a.7.7 0 0 1-.19.5c0-.19 0-.11-.08-.29 0 0 .12.29.05.37a1 1 0 0 1-.26-.33l.09-.05c-.14-.23-.12.06-.18 0v-.11c-.13.08 0 .36-.18.4v.07c0 .3-.12-.13-.13.11L17.72 9a1.38 1.38 0 0 1-.17.42 1.54 1.54 0 0 1 .08-.52.22.22 0 0 0-.16.24s0-.11.06-.08c0 .24 0 .38-.15.41-.18-.54-.33 0-.57-.42-.11.27-.41.06-.62.18.24.39-.06 0 .12.46 0 .05-.06.05-.08 0L16 9.51c-.09-.11 0-.11 0-.2s-.12-.17-.24-.25c.08.15 0 .23 0 .2l.17.16c-.08.29-.28-.31-.35 0v-.17c-.05.11-.31.11-.25.49 0-.05-.1-.16-.08-.2-.21 0-.29.53-.52.37V9.8s0 .22-.07.13 0-.11 0-.11 0 .22-.1.18v-.14c-.23-.06-.18.4-.32.53a.52.52 0 0 0-.54-.39c-.23 0-.28.38-.45.58-.24-.3-.48 0-.75-.13a.39.39 0 0 1 0 .29c-.07 0-.07.27-.15 0-.13-.28-.21-.17-.29-.15l.11.38c-.38-.48-.47.37-.74-.08 0 .11-.08.13-.1.24l-.06-.21a.53.53 0 0 0-.39.09v-.21c-.1 0 .07.62 0 .66l-.12-.3c-.17.06-.42-.15-.5.17v-.15c0-.02-.37-.11-.21.29-.09-.27-.18 0-.24.18v-.21c0 .28 0 .35-.07.46s-.07-.16 0-.12c-.12-.07 0 .21-.14.14v-.14c-.1 0-.07.08-.07.24s-.18 0-.25-.18c0 .12 0 .28-.05.24a.2.2 0 0 1 0-.13c-.19-.09-.15.3-.31.13a.27.27 0 0 0 0-.11.45.45 0 0 1 .21 0c-.06-.18-.16-.18-.17-.46 0 .16-.07.5-.18.44v-.06l-.05.05c-.05.05-.06 0-.09 0-.06-.15-.14 0-.18 0 .06.2 0 .19.1.34v-.05l.02-.23c0 .11 0 .21-.11.11v.35c-.15-.26-.32-.38-.39-.55-.11.16-.32.18-.29.59 0 .06-.08-.1-.11-.15s0-.05 0-.11c0 .13-.23.12-.17.39-.14-.09 0-.26-.14-.18v-.08c-.41-.34-.24.81-.71.36a.2.2 0 0 1 .06.09c-.42-.13-.64.45-1.11.18-.12 0-.08.13-.09.28l-.1-.21v.28c-.08.23-.42-.44-.49 0l.07.14c-.07 0-.17.15-.22 0v.1-.12l-.1.25c-.15 0-.13-.45-.32-.41a.67.67 0 0 0 0 .46s.1.05.14.16v.08a1.78 1.78 0 0 0 .41.86v-.24l.09.15h-.08c.1.14.09 0 .09-.11a.64.64 0 0 0 .1.16v-.33c.06.12 0 .27.14.32 0-.16-.15-.28-.1-.4.1.13.13.26.14.11a.28.28 0 0 1 0 .19c0-.12.13-.09.09-.28.12.17.16-.1.26.21a.54.54 0 0 1 0-.3c0 .4.19 0 .3.37 0-.36.19-.23.24-.45v.07c0-.01.13.1.19.15a1.57 1.57 0 0 1 0-.57c.17.25.06.35.17.6-.08-.23.07-.27 0-.45a.8.8 0 0 1 .18.28c-.1-.35 0-.07 0-.3.15.14.13.32.19.18a.29.29 0 0 1 .09.24zm2.12-1.32zm.2-.07h-.09v-.14s-.01.06.04.14zm-.85-1.27h.06s-.1.03-.11 0zm-.02.28v-.06zM26 6.29z" transform="translate(-.89)"/><path class="cls-1" d="M11.2 12.63l-.01-.05-.01.05h.02z"/><path class="cls-1" d="M27.35 6.58zm.47-.12h.09zm.39-.03v-.08zM22.7 8.68c-.03.06-.01.04 0 0zm1.49-1.06a.36.36 0 0 1 0 .11s.04 0 0-.11z" transform="translate(-.89)"/><path class="cls-1" d="M20.04 9.58h-.01.01z"/><path class="cls-1" d="M24.09 7.75h.08c.01 0-.06-.03-.08 0zM29.77 6zm.01 0s0-.08 0 0zm.03-.15v.07s.02-.01 0-.07zm-.54.2v.08a.45.45 0 0 0 0-.08zm-.13.07s.14.13.17.06c0 .06-.19-.18-.17-.06zm-.93-.67h.14c-.05-.07-.12-.16-.07-.2-.28-.15.1.18-.07.2zm-.41.03c.05-.06 0-.12-.06-.16s-.01.11.06.16zm-2.66.95l-.06-.18s.02.07.06.18z" transform="translate(-.89)"/><path class="cls-1" d="M24.09 7.54l.09.09-.04-.17-.05.08zm-.79-1.17l.02-.03-.06.09.04-.06z"/><path class="cls-1" d="M19.75 8l.1.21c.02-.01-.07-.21-.1-.21zm-1.84 1c-.07-.1-.15-.15-.14 0s.13 0 .14 0z" transform="translate(-.89)"/><path class="cls-1" d="M11.14 10.66l.02-.09-.05.09h.03z"/><path class="cls-1" d="M44.53 35.7c0-.06 0-.21-.06-.17v.25zm-.33-.41a1.08 1.08 0 0 0 0 .56v-.43s.08.06.08.16c0-.07.07 0 .07-.12s-.14-.18-.19 0a.47.47 0 0 1 .04-.17zm-4.02.86zm-2.39.85v-.06a.07.07 0 0 0 0 .06zm-.5-.09s0-.02 0 0zm2.89-.76h-.09c.02.03.05-.01.09 0zm3.6-.15a.1.1 0 0 0 0-.07zm-2.62-.45v-.1zm.84-.33s0 .2.06.29a.27.27 0 0 1 0-.15s-.06-.08-.06-.14zm1.4-.03zm-2.84.54v-.07a.15.15 0 0 0 0 .07zM19 46.25z" transform="translate(-.89)"/><path class="cls-1" d="M16.81 45.66l.01-.02-.04-.11.03.13z"/><path class="cls-1" d="M36.48 37s0-.07 0 0zm-6.66 2.83c.14.14 0 .28.15.42-.04-.07.03-.34-.15-.42zM43.75 36z" transform="translate(-.89)"/><path class="cls-1" d="M29.08 40.25v.01l.02.01-.02-.02z"/><path class="cls-1" d="M34.84 37.75v.08zm1.37-.23h-.05a.06.06 0 0 0 .05 0zm-1.91.77h-.06s.02-.02.06 0z" transform="translate(-.89)"/><path class="cls-1" d="M32.73 38.57l.03.04.01-.02-.04-.02z"/><path class="cls-1" d="M21 45.31a.91.91 0 0 1-.11-.16c.11.14.03.23.11.16zm22.75-9.45v.09a.19.19 0 0 0 0-.09zm-8.89 4h-.12a.17.17 0 0 0 .12 0zm-8.98 3.44s.01.03 0 0zm8.55-3.3a.37.37 0 0 0-.11-.11.15.15 0 0 0 0 .06z" transform="translate(-.89)"/><path class="cls-1" d="M20.41 45.9c.11 0-.05-.27-.09-.43s.13.17.23.28c.05-.09 0-.35.07-.37a.28.28 0 0 1 .05.11c0-.23.23-.11.22-.4a.21.21 0 0 1 0 .06 2.6 2.6 0 0 1-.16-.35c.05 0 0-.19.11 0v.13-.09c.14.22 0 .11 0 .29.06-.12.09-.37.19-.33.11.23-.14.15.05.32h-.15c.24.33-.08 0 .16.37.17 0 .12-.19.29-.18 0-.15-.09-.19-.11-.34.11-.32.4.53.43.15 0-.17-.13-.48 0-.36l.07.28c.16 0-.07-.42.15-.3 0 .12-.08.14 0 .16.18.17 0-.18.08-.21l.11.23c.14-.1.23-.34.38-.45 0 .08 0 .16.09.22.17-.21.46-.16.72-.1v-.24s.07.08.07.13v-.23c0-.1.11.1.11.17.07-.23.25-.54.48-.38V44c.15 0 0-.47.14-.32.28 0 .48-.31.8-.08-.09-.31.29 0 .15-.38.22.14.21.23.46.29.07 0 0-.29 0-.36l.09.21v-.26l.15.24v-.08a.27.27 0 0 1-.11-.14c0-.14.29 0 .34.16l.16-.27a.44.44 0 0 1 0 .2c0-.27.11.21.14 0a.61.61 0 0 1-.05-.18.18.18 0 0 0 .3 0l.05.16c.18 0 .33-.22.52-.29-.1 0-.18-.31-.14-.35l.11.21c0-.15-.09-.06-.08-.26.08 0 .15.24.14.33l.05-.11a1.45 1.45 0 0 1 .06.19c0-.15.24.17.19-.1v.07c.19-.08.25-.19.4-.26-.07-.2 0-.18 0-.36.14 0 .33.12.46 0s0-.18 0-.32c.07.18.21.11.18.26a.78.78 0 0 0 .35-.35c-.05-.06-.09-.08-.1-.15s.12 0 .15.13c.13-.36.75.3.79-.15l.12-.27c.1 0 0 .16.1.24.1-.38.35-.09.45-.36.33.47.45-.23.76 0l-.05-.12c0-.14.08.05.13.07s-.1-.09-.1-.17c.34-.31.89-.15 1.33-.21.16 0-.16-.67.14-.45v.25c.19-.4.61-.24.81-.59v.14c.13.14.23-.09.18-.22s.06.12.11.17.08-.27.17-.12 0 .06 0 .08.19-.06.08-.24c.15.05.18-.17.31-.09 0-.24.23 0 .13-.28.11.32.29.17.3 0 0 .1.1.07.12.21.08 0 .13-.12.05-.28.29.32.18-.42.45 0a2.86 2.86 0 0 1 .52-.63c.11.32-.22.13-.08.46.15-.22.16-.54.39-.54.06 0 0 .15 0 .21.15-.21.4-.13.51-.37a.17.17 0 0 1 0 .1s.1 0 0-.13c-.14-.18 0-.49-.06-.6.09.43.21 0 .32.59a.35.35 0 0 0 0-.21c.05 0 .08.06.09.19.1-.13 0-.27.11-.31s0 .11 0 .19c0-.16 0-.31.14-.3s0 .1 0 .11c.17-.09.15-.48.38-.42.07.32.1.07.22.33l.21.09-.09-.11c.08 0 .08-.25.19-.2v.13l.14-.11-.13-.06c0-.17-.15-.33 0-.3 0 0 .08 0 .19.1 0-.1 0-.2.1-.17s.11.29.15.34c-.05-.23.17-.14.12-.39a1.77 1.77 0 0 0 .08.22v-.19c.07 0 .09.06.12.17s-.17-.31 0-.23v.08c.17 0 .22-.22.39-.19.15.24-.09.11.05.31.17-.13.25-.47.46-.49-.13-.38.21.12.22-.09 0 0 .06.22 0 .17.15 0 .21-.19.36-.38v.1c.11.06.21 0 .31 0s0-.1 0-.23c.46.45.36-.47.75-.1v.1l.15-.16c-.08-.16-.06-.09-.15-.2s0-.2.06-.22c0 .14.1.26.17.34s0-.11-.06-.16c.21.26-.1-.33.11-.18v.09c0-.07 0-.2.1-.19.09.18 0 .11 0 .26.07 0 0-.41.16-.24s-.06.08-.07.14c.15.2.14.14.2.15l.16.06v-.05c-.08-.53.16-.16.18-.52 0 .35 0 .18.1.4.05 0 .12.1.12.17 0-.2.15.1.15-.18 0 .07.06 0 .11.17.06-.08-.06-.12-.08-.21 0-.27.36.21.44-.17.11-.18.08-.42.19-.58a.34.34 0 0 1 0 .27c.1.09.15 0 .21 0a.35.35 0 0 0 .06.19c.06 0 0-.26.08-.17a1.41 1.41 0 0 1 0 .29c.05-.08.09-.22.15-.3v.28a.43.43 0 0 0 .16-.35l-.11-.15v.21c0 .04-.11-.05-.13-.12-.13-.41-.19.11-.29.1v-.31.27c0-.07-.09-.24 0-.29s0 .12-.15 0a.11.11 0 0 1 0-.05v.11c0-.07-.06-.21 0-.18-.18-.14-.15.28-.26.06-.15.15 0 .23 0 .52l-.24-.51v.22s-.06 0-.08-.1v.25c-.15-.17-.22.17-.34-.18 0 .18.12.11.06.25-.14-.36-.09.1-.22 0s.07-.13-.07-.27c.06.34-.18 0-.23.06.09.26-.11.16-.19.29 0-.09-.27-.07-.41-.12v-.05c.07.27-.06.26-.11.34a.47.47 0 0 1 0-.31h-.07a.22.22 0 0 1 0 .19v-.2c-.09 0-.11.31-.29.23.06.18.29.46.21.63a.68.68 0 0 1-.1-.32v.07V36c-.09-.05 0 .14 0 .15s-.08-.09-.11-.2.06 0 .06 0a.35.35 0 0 1-.22-.16c0 .08.07.19 0 .22s-.1-.15-.18-.2-.09 0 0 .24l-.11-.14c0 .11-.22.12-.08.32-.09.27-.4 0-.52.18v-.07c-.07.12-.2.14-.21.31 0 0-.12-.1-.14-.18-.05.08 0 .16-.18.09 0-.15-.07-.09 0-.12-.12 0-.19-.11-.22.12 0-.19-.16-.19-.19-.12l.12.09a.16.16 0 0 1-.14.06l-.07-.24c-.32-.2-.16.63-.51.22 0 .18.16.07.19.28-.1 0-.34-.29-.36-.27-.18-.08 0 .38-.14.35 0 .07.16.29.09.4s-.25-.29-.23-.38 0 0 .06 0a.14.14 0 0 0 0-.17v.09c-.09-.06-.2 0-.23-.15 0 .11 0 .15.09.17-.16-.07-.18.07-.33 0a.33.33 0 0 1 .08.13c-.22 0 0 .19-.12.28-.12-.1-.1-.31-.17-.16-.32-.03-.32-.14-.32-.26 0 .2-.24 0-.31 0v-.09a.12.12 0 0 1-.07.07l.09.16s-.07 0-.1-.08c0 .12.14.27.13.44-.08-.07-.1.14-.2-.07.17 0-.1-.22 0-.3s0 .05-.08 0 0 0 0-.06c-.21-.15 0 .27-.11.32 0-.13-.12-.22-.13-.19s.1.2.09.32c-.13-.06-.07.11-.12.12h.07c0 .13 0 .14-.07.2-.05-.09 0-.09 0-.12 0 .24-.24-.17-.29 0-.07-.06-.09-.23-.15-.27 0 .2-.18-.12-.25.06.1.15.09.11.07.3l.14-.19v.29c.06 0 .08-.15.13-.14 0 .16 0 .12.06.25-.17-.22-.1.21-.25.07l-.15-.41c-.21-.13-.17.31-.38.28h.08c0 .18-.1.07-.13.16a.72.72 0 0 0-.16-.25c0 .1-.13 0 0 .33L34.7 38c-.17 0 0 .46-.17.46 0-.16-.11-.24-.06-.38 0 0-.1 0-.06.1-.06-.07-.06.24-.15.13 0 .07.05.21 0 .22a.15.15 0 0 1 0-.06c0 .06 0 .12.06.26-.31-.38-.38.19-.65-.13a1.09 1.09 0 0 1-.27.22v-.06c-.17-.08.07.43-.12.35s0-.16 0-.22c-.19-.45-.15.13-.35-.1-.14-.13-.11.24-.25.26v-.07a.74.74 0 0 1-.21.51c0-.19 0-.11-.08-.28 0 0 .13.28 0 .37a.91.91 0 0 1-.26-.32l.09-.05c-.15-.23-.12.06-.19 0v-.11c-.13.1 0 .37-.19.42v.08c0 .3-.13-.13-.14.11l-.13-.27a1.84 1.84 0 0 1-.18.45 1.6 1.6 0 0 1 .09-.54.24.24 0 0 0-.17.25s0-.11.06-.08c0 .24 0 .39-.15.43-.19-.54-.35 0-.6-.4-.12.28-.43.08-.65.21.24.38-.06 0 .12.46 0 .05-.07.05-.09 0l-.26-.19c-.09-.11 0-.12 0-.21s-.12-.16-.24-.24c.07.14 0 .23-.05.2l.17.16c-.08.3-.28-.3-.36 0v-.15c-.06.11-.32.13-.27.5 0 0-.1-.15-.08-.19-.22 0-.31.55-.56.4v-.11s0 .22-.08.14 0-.11-.05-.11 0 .22-.1.18v-.1c-.25 0-.19.41-.33.55a.5.5 0 0 0-.42-.36c-.25.06-.3.41-.47.62-.27-.27-.51 0-.8-.05a.43.43 0 0 1 .06.29c-.08 0-.06.27-.16 0-.15-.26-.22-.14-.31-.12l.13.38c-.42-.45-.48.42-.78 0 0 .11-.08.14-.1.25l-.07-.2a.64.64 0 0 0-.41.13v-.15c-.1 0 .11.62 0 .67l-.15-.29c-.17.08-.45-.11-.51.23v-.15c0-.02-.4-.07-.21.32-.1-.26-.19 0-.23.2l-.07-.2v.46c0 .11-.09-.14 0-.11-.13-.07 0 .21-.15.15v-.14c-.09 0-.06.09 0 .25s-.19 0-.27-.15v.25a.31.31 0 0 1 0-.14c-.2-.07-.13.32-.31.17l-.06-.11c.12 0 .22-.07.21 0-.07-.18-.18-.17-.2-.45 0 .16 0 .51-.16.47v-.06l-.05.06a.13.13 0 0 0-.1 0c-.07-.15-.14 0-.19 0 .08.2 0 .19.13.33l.11-.06c0 .11 0 .21-.1.13l.06.34c-.18-.25-.36-.34-.45-.5-.1.17-.31.21-.26.61 0 .07-.09-.08-.13-.13s0-.06 0-.11c0 .12-.23.13-.14.4-.16-.07 0-.26-.17-.16v-.09c-.45-.29-.2.85-.72.45a.16.16 0 0 1 .07.07c-.45-.08-.65.52-1.16.3-.13 0-.07.13-.08.28l-.11-.2V45c-.08.23-.47-.41-.52 0l.08.13c-.08 0-.18.17-.24 0v.1-.11l-.09.25c-.16 0-.16-.44-.36-.38a.66.66 0 0 0 0 .46s.1 0 .15.15v.08a1.59 1.59 0 0 0 .46.84v-.24l.1.14h-.09c.11.12.09 0 .09-.13a.37.37 0 0 0 .12.16v-.35c.06.12.05.27.15.31 0-.17-.16-.27-.12-.39.11.12.15.25.16.1a.27.27 0 0 1 0 .18c0-.12.13-.1.09-.28.12.16.16-.13.28.18v-.31c.06.4.2-.06.34.35-.07-.36.18-.25.23-.48v.07c0-.02.14.1.21.14-.1-.28 0-.38 0-.57.2.23.09.34.21.58-.09-.22.06-.28-.05-.45a.91.91 0 0 1 .22.27c-.13-.35 0-.08 0-.31.16.13.15.3.21.16-.24.09-.28.25-.28.25zm2.16-1.56h-.05zm.2-.09a.16.16 0 0 0-.09 0c0-.07-.06-.14 0-.14s.03.1.09.14zm-1-1.18h.07-.05zm.07.28v-.07zm18.38-7.18z" transform="translate(-.89)"/><path class="cls-1" d="M24.81 43.49l-.02-.05v.05h.02z"/><path class="cls-1" d="M41.6 36.41v.05s.01-.03 0-.05zm.49-.13h.1zm.41-.02v-.09zm-5.77 2.57s-.02.04 0 0zm1.58-1.18a.43.43 0 0 1 0 .12s.05-.01 0-.12z" transform="translate(-.89)"/><path class="cls-1" d="M33.98 39.86v-.01l-.01.01h.01z"/><path class="cls-1" d="M38.21 37.8h.08c.01 0-.07-.04-.08 0zm5.9-1.87zm.01-.03s0-.03 0 0zm.05-.09zm-.57.13v.07zm-.14.06s.13.13.17.07V36c-.01.13-.17-.14-.17 0zm-.89-.73h.15c0-.08-.11-.17-.06-.21-.23-.16.09.19-.09.21zm-.44.01c.06-.06 0-.11-.05-.15s-.03.1.05.15zm-2.85 1.09l-.06-.18c-.04.05.02.07.06.18z" transform="translate(-.89)"/><path class="cls-1" d="M38.25 37.51l.09.09-.04-.18-.05.09zm-.85-1.13l.01-.03-.05.1.04-.07z"/><path class="cls-1" d="M33.67 38.35l.1.21c.02-.05-.07-.3-.1-.21zm-1.93 1.05c-.07-.1-.15-.15-.15 0s.13.04.15 0z" transform="translate(-.89)"/><path class="cls-1" d="M24.64 41.51l.01-.09-.05.1.04-.01z"/><path class="cls-1" d="M27.11 29v.12-.16zm.35.32a.39.39 0 0 0 0-.38v.28c-.05 0-.1-.07-.1-.13s-.07 0-.09.06.18.15.23.05a.19.19 0 0 1-.04.12zm2.2-.82s.01.01 0 0zm-3.09-2.29h.05s-.05-.02-.05 0zm-.39-.5s.01 0 0 0zm3.48 2.79v-.08c-.11.01-.03.05 0 .08zm-1.85.5zm3.93.8l.25.09zm-.08.42c.05 0-.38-.18-.57-.26l.24.12zm-2.95-.59s0 .01 0 0zm2.08-.54h.1zM18.57 17.33s-.01-.01 0 0z" transform="translate(-.89)"/><path class="cls-1" d="M16.85 16.01l.02.01.04-.07-.06.06z"/><path class="cls-1" d="M25.37 24.92s.02.01 0 0zm1.36-.44c-.18-.19.26-.08 0-.32.04.08-.23.16 0 .32zM27.85 29z" transform="translate(-.89)"/><path class="cls-1" d="M25.84 24.16l-.03-.02.03.02z"/><path class="cls-1" d="M23.87 24zm.8.78zm-1.53-1.08s.06 0 0 0 .04 0 0 0zm-.36-.35h-.1zm-1.54-4.42a.28.28 0 0 1 0-.13c-.02.09-.16.04 0 .13zM27.89 29v-.06a.17.17 0 0 0 0 .06zm-7.13-5.9V23a.13.13 0 0 0 0 .1zm6.14-.21zm-6.22-.13a.11.11 0 0 0 .09 0z" transform="translate(-.89)"/><path class="cls-1" d="M20.18 18.5c.13.08.16-.12.25-.19s0 .16 0 .28.29-.08.36 0 0 0 0 .06c.18-.05.31.2.53.12v.05a1 1 0 0 1 .12-.23c.06 0 .17 0 .13.09s-.07 0-.11 0h.09c0 .18-.11 0-.18.1.15 0 .36 0 .43.11s-.25-.1-.21.11l-.1-.15c0 .3-.08-.07-.14.24.16.16.26.06.42.22.09-.05.06-.12.15-.17.36 0 0 .49.29.43.11-.06.25-.23.33 0l-.16.13c.17.13.26-.16.37.07h-.16c0 .2.15 0 .24 0l-.08.15c.21.1.48.15.71.26 0 0-.11.06-.09.13a1.79 1.79 0 0 1 .75.67l.18-.05v.09c0 .01.06-.08.14-.09s0 .12 0 .13c.25 0 .65.13.74.39H25c.1.15.33-.13.38.08.27.27.69.41.79.76.17-.14.24.3.44.08a1.08 1.08 0 0 1 .05.25.69.69 0 0 0 0 .1v.09s.18-.1.25-.08l-.14.09h.21a1 1 0 0 1-.17.1h.07a.22.22 0 0 1 .11-.07c.15 0 0 .14-.13.14l.28.05h-.23c.3 0-.29 0 0 0h.24c-.16 0-.14 0 0 .06l-.29-.1a1.89 1.89 0 0 1 .23.11l.78.28-.5-.17c.34.13.17 0 .59.22 0 0-.57-.21-.75-.28l.21.09-.42-.13c.35.14-.54-.22.08 0l-.17-.07s.23.11.3.16a7.2 7.2 0 0 1 .94.52 1.8 1.8 0 0 1-.44-.14 2 2 0 0 1-.28-.13l.69.47c-.46-.31-.48-.31-.76-.51l.2.2.35.26a3 3 0 0 1-.37-.26c.18.16-.16-.07-.37-.23s-.33-.28-.18-.09a.34.34 0 0 1 .07.17c-.06 0-.07-.13-.18-.25.07.14 0 .11 0 .07s-.07-.06-.11 0a1 1 0 0 0 0-.18h-.13c-.19 0-.4 0-.49-.21v.09c-.1.06-.07-.07-.12-.11s.05.1 0 .13a2.66 2.66 0 0 1-.89-.29l-.22-.11a1.73 1.73 0 0 0-.28-.12c-.28-.11-.57-.21-.87-.31-.46-.13 0 .48-.57.13a.48.48 0 0 1 0-.17 2.25 2.25 0 0 1-.51 0L22 22c-.41-.09-.51 0-.59.11s-.1-.09-.07-.1c-.27-.09-.2.09-.09.15-.06 0-.12-.06-.21-.09s.06.15-.09.1v-.05s-.18.18 0 .2c-.18.12-.09.39-.15.43.2.11 0 .11.27.22-.32-.11-.22.07 0 .18h-.28a.49.49 0 0 0 .38.22c-.44.08.74.41.27.48.77.38 1.29.65 1.74.9-.22.13-.48-.31-.74-.2a5.17 5.17 0 0 0 .73.3 1.54 1.54 0 0 1 .47.26c.05.07-.09.06-.14.07.31.1.47.36.77.41h-.09c-.04 0 .09.1.14 0h-.06c0-.18.35-.14.41-.2-.25.19.17.22-.16.44a.16.16 0 0 0 .14-.07c0 .05 0 .09-.07.12.19.07.2-.06.34 0 0 0-.07 0-.12.07.13 0 .26-.06.35.06s0 .06-.07 0c.22.13.5 0 .67.27-.19.13 0 .11-.06.27h.16v-.11c.1.08.28 0 .33.15H26l.22.11-.07-.14c.16 0 .12-.2.23-.06 0 0 .11.08.1.21.09 0 .18 0 .23.07s-.14.15-.15.2.28.14.44 0c-.05 0-.1.09-.11.11l.12-.07a.12.12 0 0 1 0 .15c.13.12.09-.23.2 0h-.06c.14.17.39.18.51.34-.06.19-.17-.06-.2.11.25.14.61.16.81.35v-.05c.21-.18.06.2.21.16 0 0-.14.08-.12.06s.23.08.53.19h-.12c0 .05.09.11.1.15a1.57 1.57 0 0 0 .33 0c-.27.05-.12.09.13.19s.56.24.17.16l-.23.17.33.16a4 4 0 0 0 .45.12 3.24 3.24 0 0 1 .53.22 5.88 5.88 0 0 0-.8-.26l.38.13c-.62-.18.81.29.48.23l-.22-.09c.14.07.42.19.49.24a1.26 1.26 0 0 1-.33-.14l-.32-.13.1.05c.15.08.62.29.14.12-.09-.05 0 0-.13-.09a5.59 5.59 0 0 0-.66-.22l-.36-.12.17.06c1 .47 0 .07.51.36a5.23 5.23 0 0 0-.76-.37l-.44-.18c.28.15-.34-.14.05.09-.12-.07-.07 0-.36-.17a2.85 2.85 0 0 0 .37.19c.15.1-.06 0-.22 0s-.3-.11-.18 0 .23.29.14.36a.42.42 0 0 1-.2-.2c-.19-.1-.23-.09-.26 0a.92.92 0 0 0-.17-.15s.14.19 0 .1l-.18-.31s0 .14-.06.17-.05-.13-.07-.19-.14.06-.11.2l.09.06s-.08-.13-.07-.15.13.06.17.12c.27.32.25 0 .36 0l.15.23a.39.39 0 0 0 0-.18c.09.07.26.2.21.23.24.13 0-.07.26.07v-.06c0 .05.23.18.11.13.41.17.11-.14.45.06.18-.05-.23-.18-.37-.38l.89.49-.29-.19a.66.66 0 0 1 .25.11c-.11-.12-.16-.09-.31-.21.45.2.2 0 .85.28-.25-.15-.36-.13-.43-.22.74.35.05 0 .5.13s0 .07.49.25c-.57-.3.43.1.45 0-.57-.25 0-.07 0-.13a4.8 4.8 0 0 0 .67.17v-.08h.12a5.74 5.74 0 0 1-1-.45 6.12 6.12 0 0 1 .77.29l-.14-.09-.5-.22.46.15c-.21-.14-.81-.37-.77-.46a6.58 6.58 0 0 1-1.2-.3 5.6 5.6 0 0 1 .59.15s-.2-.07-.16-.07l.38.12s-.3-.09-.33-.13c.25.05.12 0 .33.05l.08.06c.08.06 0-.09.14-.09a1.24 1.24 0 0 1-.4-.1c-.18-.11.21 0 .21-.06-.18 0-.15-.11-.45-.14h.14c-.22-.08-.46-.3-.62-.23-.46-.14-.41-.39-.76-.56h.05c-.21-.07-.39-.23-.52-.19a.12.12 0 0 1 0-.17c-.11 0-.15 0-.24-.16.14 0 0-.08.13 0-.09-.12-.07-.21-.28-.19.12-.07 0-.19-.08-.2v.13a.55.55 0 0 1-.17-.13l.12-.11c-.12-.34-.64 0-.63-.44-.13 0 .09.16 0 .23-.1-.1-.08-.37-.11-.4s-.29.1-.42-.07c0 .06-.08.21-.23.17s0-.3.1-.29v.05c.05 0 .11 0 .1-.06 0-.09-.18-.2-.08-.25-.12 0-.1.05-.05.12-.1-.17-.23-.16-.34-.31v.1c-.18-.22-.16 0-.32-.06s.15-.16 0-.2.07-.14.13-.16c-.2 0-.21-.24-.27-.31h.1a.22.22 0 0 1-.13-.05V25s-.07-.07 0-.11-.08.18-.23.21-.2-.07-.13-.21c.14.17.07-.14.23-.06 0 0-.07 0-.1-.07-.09-.23-.18.09-.35 0 .07-.06.05-.17 0-.17s-.05.14-.15.15-.15 0-.21-.09v.07c-.07.06-.12 0-.22 0h.09c-.17.06-.1-.27-.28-.27 0-.09.09-.14.06-.21-.2 0-.08-.21-.26-.22s0 .09-.15.15a1.42 1.42 0 0 1 .25.07h-.25c.07.05.19 0 .22.09-.13 0-.1 0-.12.11 0-.21-.27-.06-.26-.2l.21-.21c.08-.11-.25 0-.28-.1-.17 0-.1-.05-.2-.07h.28a2.78 2.78 0 0 0-.41-.06h.19c.06 0-.69-.14-.75-.22.29.07.42.08.65.14l-.16-.05c.15 0-.42-.13-.2-.1a2.08 2.08 0 0 1-.44-.14h.14c-.14 0-.26-.1-.54-.16.38.08.3 0 .18 0s-.25-.18.24-.05c-.12-.13-.11-.27-.05-.25l.11.06c.38.18-.78-.47-.31-.26s.16.13.38.24c.89.54 0 0 .58.28.28.18-.16-.17 0-.11l.09.07c-.24-.23-.14-.27-.06-.29a1 1 0 0 0 .2.25s-.27-.28-.18-.3a1.87 1.87 0 0 1 .38.37h-.07c.2.24.08 0 .15.07l.05.09c.07 0 0-.23.16-.18v-.06c.08-.18.08.13.18 0a1.34 1.34 0 0 1 0 .2 1.2 1.2 0 0 1 .47-.11 1.38 1.38 0 0 1-.45.2c.08 0 .29.06.35 0s-.09 0-.11 0a.46.46 0 0 1 .46-.1c-.14.36.4.21.43.54a.65.65 0 0 1 .45.11l.21.11.11.06.22.07c-.15-.36.16 0 .15-.28.11 0 .14 0 .16.05a3.37 3.37 0 0 0 .39.33c.13.14-.1 0-.07.12.32.14.18.2.44.39-.1-.16 0-.16.24 0l-.34-.27c.27-.08.57.48.89.44a.3.3 0 0 1 0 .08c.09 0 .32.1.51.15s.28 0 .16-.18c.09.07.29.23.24.24a.68.68 0 0 0 .32.07s0-.09.05-.13.1-.11.28 0l.12.1s-.18-.18 0-.09l.12.1s-.11-.16 0-.11l.09.09c.13 0 .1 0 .07-.07s-.07-.08 0-.17c.2.15.44-.05.49-.16.1-.23-.25-.39-.52-.65h.17a.7.7 0 0 0-.1-.19c-.1-.14-.23-.3-.19-.4a1.41 1.41 0 0 1-.47-.15s-.57-.26-.13-.17c.33 0 0-.19-.17-.32l-.49-.05c.14-.13-.24-.39-.52-.55s-.53-.3-.49-.49c-.16 0-.28-.13-.42-.15l.1-.1a1.74 1.74 0 0 0-.51-.41l.1-.05c-.11-.1-.39.21-.51.14l.09-.2c-.21-.15-.32-.46-.65-.46 0 0 .07-.07.11-.05s-.31-.4-.44-.14c.11-.15-.21-.17-.38-.19l.1-.1c-.2.08-.23.11-.4.06 0 0 0-.11.06-.05-.06-.14-.16 0-.25-.11h.1c-.1-.09-.12 0-.24 0s-.19-.18-.14-.29c-.06.05-.18.09-.22 0a.08.08 0 0 1 .08-.06c-.14-.21-.37-.06-.43-.26a.13.13 0 0 0 0-.09l.25.2c.07-.11 0-.21.16-.29-.15 0-.44.07-.52-.06s-.05 0-.09 0a.27.27 0 0 0-.08-.1c0-.1-.1-.14-.16-.19-.07.12-.14.05-.13.19h.06l.15.1c-.09 0-.17 0-.19-.07l-.22.13c0-.22-.07-.41 0-.53-.23-.06-.47-.25-.73-.11-.07 0 0-.1 0-.15s.08 0 .12 0c-.14 0-.33-.18-.46 0-.08-.16.17-.1 0-.19h.06c-.2-.49-.85 0-1-.57a.11.11 0 0 1 0 .08c-.37-.43-1-.47-1.35-1-.1-.13-.18 0-.3 0l.05-.14-.23.06c-.26 0-.14-.52-.51-.46v.1c-.08-.07-.31-.12-.24-.21s-.08.08-.09 0v-.07h-.29c-.14-.15.19-.26-.05-.42s-.38 0-.37.11a.14.14 0 0 1 0 .17h-.1c-.14.2-.32.36-.2.62h.21v.12l-.12-.06c0 .13.1.07.18.05a.17.17 0 0 0 0 .14l.25-.11c0 .09-.15.12-.08.22.11-.05 0-.21.18-.21s-.05.2.08.17a.12.12 0 0 1-.11.08c.11 0 .21.09.31 0 0 .16.25.12.13.3a.47.47 0 0 1 .29 0c-.26.16.23.16.05.39.21-.15.37.1.59.09h-.06c-.01 0 .06.15.1.22.11-.16.27-.11.41-.17 0 .23-.19.15-.25.33.08-.14.27 0 .3-.15v.25c.15-.19.1 0 .25-.07.05.18-.09.21.08.23s-.26-.02-.26-.02zm3.26 1.65h-.07zm.25.17a.31.31 0 0 0-.11-.08s.06-.08.09-.06.01.08.02.14zm0-1.17c.05 0 .05 0 0 .07h-.08zm-.16.1z" transform="translate(-.89)"/><path class="cls-1" d="M25.84 22.85l.03-.02-.03.01v.01z"/><path class="cls-1" d="M29.78 29.2h-.11zm-.11.09l-.24-.08zm-.6-.14l.17.08zm-4.91-3.58c-.08-.01-.04 0 0 0zm2.36 1.26a.4.4 0 0 1-.11 0s.06.06.11 0z" transform="translate(-.89)"/><path class="cls-1" d="M19.88 23.11v-.01.01z"/><path class="cls-1" d="M26.31 26.76a.1.1 0 0 0 .1.07.18.18 0 0 0-.1-.07zm1.2 2.15zm0 .01s0 .02 0 0zm-.04.08s-.01-.07 0 0zm.53 0zm.14 0c-.06 0-.24-.14-.23-.1l.09.1c-.13-.11.22.13.14 0zm2.1.91l-.33-.08c.16.07.39.17.31.17.68.25-.34-.16.02-.09zm.95.19c-.06 0 .24.1.32.14s-.08-.07-.32-.14zm-2.76-2.58l.08-.1c-.08-.03-.03.04-.08.1z" transform="translate(-.89)"/><path class="cls-1" d="M26.5 27.6l.01.11.1-.08-.11-.03zm.13-1.02h.04l-.13-.03.09.03z"/><path class="cls-1" d="M23.23 23.6l-.55-.19c.12.06.73.27.55.19zm.9-.12c0 .09.07.15.09.07s-.07-.09-.09-.07z" transform="translate(-.89)"/><path class="cls-1" d="M28.09 22.98l.17.07-.23-.12.06.05z"/></g></g></svg>