<svg xmlns="http://www.w3.org/2000/svg" viewBox="0 0 107.71 68.11"><defs><style>.cls-1{fill:#0087b1;}</style></defs><title>Asset 3</title><g id="Layer_2" data-name="Layer 2"><g id="Layer_1-2" data-name="Layer 1"><path class="cls-1" d="M38,.57c-.09-.12-.36-.12-.37.17l.39.28Z"/><path class="cls-1" d="M36.86,2.25c.15.36.44.8.88.67-.35-.4-.17-.44-.59-.88,0-.29.24-.45.39-.37-.1-.12.18-.41-.06-.61a1,1,0,0,0-.34,1.26C37,2.41,36.94,2.28,36.86,2.25Z"/><path class="cls-1" d="M29.61,28.42l.12-.13A.37.37,0,0,0,29.61,28.42Z"/><path class="cls-1" d="M18.8,40.63c.1-.07.12-.14.1-.17S18.75,40.62,18.8,40.63Z"/><path class="cls-1" d="M15.92,41.59l.26-.09C16.07,41.51,16,41.53,15.92,41.59Z"/><path class="cls-1" d="M29.61,28.42l-.32.34C29.41,28.86,29.49,28.61,29.61,28.42Z"/><path class="cls-1" d="M37.21,6.14a.71.71,0,0,0-.07-.26v.23Z"/><path class="cls-1" d="M31.85,21.42l0-.12a.7.7,0,0,0-.14-.16Z"/><path class="cls-1" d="M33.17,15.92c-.05.12.31.25.46.33a.4.4,0,0,1-.19-.33A.61.61,0,0,0,33.17,15.92Z"/><path class="cls-1" d="M35.49,7.14l0-.17Z"/><path class="cls-1" d="M30.5,25.22h-.15A.38.38,0,0,0,30.5,25.22Z"/><path class="cls-1" d="M44.58,4.78l0-.07C44.55,4.74,44.54,4.76,44.58,4.78Z"/><path class="cls-1" d="M38.65,1.24h.1a.8.8,0,0,0,.07-.2Z"/><path class="cls-1" d="M.38,43.57s0,0,0,0C-.24,43.43,0,43.5.38,43.57Z"/><path class="cls-1" d="M54.79,56.86c-.66,0,.67-.79-.27-.75C54.66,56.2,54,57,54.79,56.86Z"/><path class="cls-1" d="M37.13,6.28l0,.23A.53.53,0,0,0,37.13,6.28Z"/><path class="cls-1" d="M54.52,56.11h0Z"/><path class="cls-1" d="M18.73,48.61a.44.44,0,0,0-.07-.19S18.67,48.51,18.73,48.61Z"/><path class="cls-1" d="M6.69,44.68l.16.09A.24.24,0,0,0,6.69,44.68Z"/><path class="cls-1" d="M23.42,49.39c.11.06.14.12.31.11a.1.1,0,0,0,0,0A.25.25,0,0,1,23.42,49.39Z"/><path class="cls-1" d="M28.15,50.71l-.07-.09-.15,0Z"/><path class="cls-1" d="M59,8.55a1,1,0,0,1-.13-.39C58.9,8.44,58.18,8.34,59,8.55Z"/><path class="cls-1" d="M37,6.11c.09,0,.13.09.13.17V6.11A.14.14,0,0,0,37,6.11Z"/><path class="cls-1" d="M24.41,46.61l.74.26A5.29,5.29,0,0,0,24.41,46.61Z"/><path class="cls-1" d="M70.31,28.37v-.19A.25.25,0,0,0,70.31,28.37Z"/><path class="cls-1" d="M27.39,47.44a1.14,1.14,0,0,0,.35.37.37.37,0,0,0,.12-.07Z"/><path class="cls-1" d="M58.9,8.16Z"/><path class="cls-1" d="M53.7,7.66c.72.2.47-.37.69-.6.9.1.31.45.53.77.57,0,1.1-.3,1.49-.17,0,.09.08.14,0,.21.67-.22,1.69.44,2.47.15a.24.24,0,0,1,.06.14A1.43,1.43,0,0,1,59,7.48c.33.08.68-.13.72.21-.2-.06-.25.06-.36.13l.37,0c.18.52-.5,0-.59.35a5.89,5.89,0,0,1,2,.14c0,.47-1.22-.17-.65.4l-.74-.38c.41.85-.46-.18-.11.7,1,.41,1.21.1,2.2.5.29-.17,0-.37.31-.55,1.58,0,.85,1.4,2.08,1.12.35-.22.61-.74,1.29-.24l-.39.42c1,.32.76-.55,1.71.07-.24.14-.83-.06-.69,0,.56.58.55-.14,1.07,0l0,.46c1.08.22,2.33.23,3.52.47-.1.11-.34.19-.1.4a10,10,0,0,1,2.32.61l.56.22.27.12.06.06a.3.3,0,0,1,.07.22,2.91,2.91,0,0,1,.53-.26s-.15.14-.27.19.33-.18.51-.21c0,.12-.32.25-.44.26a.28.28,0,0,1,.2.17.78.78,0,0,1,0,.18v.17l0,.14a4.9,4.9,0,0,1-.71,1.9l-.05-.23c-.39.77.51,1.13,0,1.78l0-.16c-.64,1.72-.78,3.76-1.68,5,.48.39-.67,1.68.07,2-.63.91-.69.59-1.29,1.93-.13.37.33.68.3,1.16l-.4-.09.25.73-.56.22v.45c.07-.16.28-.32.38-.26,0,.72-.71,1.57-.91,1.53l-.11,1.67c-.15-.08-.13-.36-.17-.59.16.95-.46,0-.31.9.12-.07.22.13.29.17a3.74,3.74,0,0,0-.72,1.85l-.23-.21c-.43,1.12-.66,2.45-1.15,3.7.3-.4.71-.13.61.26h-.46c.15.33.3-.32.41.28-.23.45-.58.13-.6-.18l-.09.62c-.13,0-.14-.18-.28-.27.17.34-.8.78-.52,1.3l-.13,0c-.55,1.2-.68,1.81-1.17,2.77.32.19,0,.53.16,1a20.72,20.72,0,0,0-1.71,2.07c-.21.66.16.34.18.71-.3-.14-.84.65-.75.11-.62,1-.79,1.22-1.5,2.53.21,0,.37-.14.4,0s-.51.36-.6.23l0-.07a3.12,3.12,0,0,1-.81,1,12.86,12.86,0,0,1-1.16.76,3.84,3.84,0,0,0-1.83,1.49l0-.07c-.27.36-.53.75-.84,1.09-.53.29.16-.41-.33-.33A3,3,0,0,1,55,53.33a5.08,5.08,0,0,0-1.39.81,1.56,1.56,0,0,0-1,0,3,3,0,0,0-.53.18l-.11.05-.05,0s-.06,0-.1,0h0l-.16,0-.31-.08a2.6,2.6,0,0,1-1-.53V54c-.38.13-.35-.24-.58-.36,0,.19.3.31.06.37-2.82-.5-5.58-1.92-8.34-2.92-1-.35-.92,1-2.06.1l.49-.32c-2.23-.08-4.25-1.21-6.41-1.35.15-.07.19-.19.39-.13-.35-.43-1.59-.47-1.67-.22-.31-.12,0-.25-.17-.43-.38-.3-1.19.09-1.33-.28,0-.06.14-.07.23-.07-.32.07-1.3-.4-1.13,0-.72-.39-1.51-.26-2.06-.64-.51.29-1.25-.56-1.53,0,.21-.57-1.21-.85-1.77-.71.21-.13-.37-.3-.12-.49-.55-.15-1.08-.18-1.07.14-.82-1-2.2,0-2.52-1.06-.87-.08-1.69-.17-2.49-.27l-.57-.08h-.26a4.68,4.68,0,0,1-.61-.05.79.79,0,0,1,.63-.16c.15,0,.28,0,.37-.27a2.17,2.17,0,0,1-.83.24A1.88,1.88,0,0,1,16,45c0-.08.62-.1.82-.15a2.64,2.64,0,0,1-.87-.13,5,5,0,0,0-1.25-.18l.69,0c-.16,0,.15-.05-.88-.06l.37,0a20.9,20.9,0,0,1-2.41-.07l-.79-.05-.52,0c2.58.09,1.56,0,4.5.09l-1.06,0c.3,0,.63,0,1.2,0-.14,0-.72-.08-.76-.12s0,0,.11,0l.76.09c-.55-.07-.86-.18-.25-.26.14,0,.38.06.28.09.22-.08.16-.2.29-.4a1.53,1.53,0,0,1,.92-.48c.06.29.16.3.25.3a.3.3,0,0,1,.16,0,.29.29,0,0,1,.26.13l.61-.45L18,43.21c.59-.28.89-.9,1.45-1l-.31.42a11.83,11.83,0,0,0,1-.71c-.23.07-.45.15-.68.2.42-.54-.38-.48.39-.83-.11.14.52-.34,1-.29h0a1.63,1.63,0,0,1,.76-.83c.19.05.26.5.39.53,0-.26.27-.51.55-.77a1.47,1.47,0,0,0,.54-.86.41.41,0,0,0,.2.37l0-.42c.29-.12.36-.11.47.08.7-.56-.63-.26.31-.79,0,.08,0,.09-.06.25.85-.65,1.28-1.59,2-2.22.57.1-.46.72.07.74a11.52,11.52,0,0,0,1.13-1.86,12.65,12.65,0,0,1,1.09-1.8l-.18.18c-.48-.54.86-.63.93-1.4-.05.17.21.39.17.31a9.55,9.55,0,0,0,1.26-3.06l.09.24a13,13,0,0,0,1-1.76c-.1-.24.06-.53-.26-.45,1.68-1.28.71-3.37,2-4.6,0,.18,0,.48.06.33l.24-1.35c-.33,0-.23.12-.54.32a1.26,1.26,0,0,1-.06-.93c0,.63.48.13.71-.08-.1,0-.18-.1-.28-.1.71-.54-.56-.28,0-1.11l.15.09a3.39,3.39,0,0,1,0-1.1c.38-.07.07.41.35.51.11-.54-.4-1.21.06-1.6,0,.25,0,.57,0,.82a1.35,1.35,0,0,0,.6-.89l0,0L35,17l-.17.2c-.75-.86.14-1.39-.27-2.41.38,1,.29.21.67.36.16-.21.36-.54.45-.41-.24-.49.39-.67,0-1.36.13,0,.1-.45.4-.3,0-.57-.25.09-.4,0-.27-.94.91-1.92.53-3.25-.06-1.1-.46-1.37-.5-2.39.27-.3.42.35.42.35a2.14,2.14,0,0,0,.26-1.43c.1.12.21,0,.38-.1,0-.41-.42-.35-.13-.85a2,2,0,0,1,.44.5c0-.5-.19-1-.21-1.52.25-.09.28.36.4.56,0-.57.06-1.46-.26-1.7l-.19.33c0-.21.32,0,.36.11a.45.45,0,0,1-.39.66V4c-.81.22-.14,1.42-.31,2.12L36,5.69l.32.8c-.17.13-.49.18-.51-.18-.36.46.11.48-.27.86,0,0-.07,0-.09,0l.08.52c-.1-.12-.4,0-.27-.27-.47.83.16,1.5-.32,1.76l0-.08c0,1.26.38.19.68,1.2l-1.09.44.38.19c0,.13-.12.37-.27.3.19.52.19,0,.4.27-.48.54-.15,1.71-.81,1.73.26.28.35-.54.43.15-.72.05,0,.78-.45,1.27-.32-.24,0-.73-.45-.24.52.46-.36,1-.34,1.54.47.12,0,1,0,1.87-.15-.09-.6,1.4-1,2.06l-.08,0c.43.26.15,1,.09,1.54-.27-.1-.35-.23-.4-.55l-.14.5A.84.84,0,0,1,32,22l-.31-.23c-.17.67,0,1.46-.52,2.23.3.16,1.12-.37,1,.61-.18,0-.49-.1-.48-.36,0,.08.05.33-.08.45l-.17-.46c-.25.34.18.29,0,.59-.25-.1-.26.16-.44,0,0-.08.2-.22.15-.37a1.73,1.73,0,0,1-.71.75.28.28,0,0,1,.26.38c-.22.66-.37.11-.65.43.11.22-.24.56.12.72-.08.18-.26.15-.39.18,0,.4-.64,1.52-.09,1.34l.06-.08v.06h0A3.3,3.3,0,0,1,29,29.89a9.49,9.49,0,0,0-1,1.51L28,31.33a13.23,13.23,0,0,0-.81,1.91c-.11.17-.47.26-.54.1a1.8,1.8,0,0,1-.79,1.09c.14-.56-.27,0,.2-.53-.52.47-.75.47-1,1.25-.09-.4-.65.11-.79.42l.49-.2a4.07,4.07,0,0,1-.66.75l-.22-.43a2.85,2.85,0,0,0-1.2,1.45c-.29.53-.62,1-1.29,1-.07.48.69-.33.69.16-.51.4-1.44.29-1.59.41-.81.33-.24,1-1.1,1.38.18.07.52.35,0,.86-.58.32-1-.16-.74-.45.12-.09.21-.1.23,0,.14-.17.32-.37,0-.38v.18c-.33.06-1.08.47-1,.15-.33.36-.05.33.3.22a3,3,0,0,0-.95.42c-.14.08-.28.14-.43.21l-.65.24c.25,0,.5.07.31.15-1.9.6-.58.58-1.71,1-1.08,0-.5-.47-1.68,0-1.24.13-1-.21-.77-.4l-.47.19-.27.07-.13,0-.25,0c-.69,0-1.43.08-2.22.1-1.56,0-3.36,0-4.5.11l1.32-.21c-.84.12-1.72.19-2.67.25L5.7,43,4.11,43c-.5,0-.93,0-1.28,0a8.26,8.26,0,0,0,1.86.22,4.52,4.52,0,0,1,1.72.3,13.65,13.65,0,0,0-1.48.08c.43.16,1,.33-.5.3-.2-.25-.83-.28-1.61-.3a11,11,0,0,1-2.76-.34h0a3.23,3.23,0,0,1,1.2.42,4.94,4.94,0,0,1-.91-.11c.3.37.65.3,1.62.38a10.25,10.25,0,0,1,2,.2c-1.13-.06-1.91,0-1.58,0a14.69,14.69,0,0,1,2.39.08c-.14,0,0,0,0,.07l.23.07a4.28,4.28,0,0,0,.58.11,8.52,8.52,0,0,1,1,.17l-.24-.16a11.65,11.65,0,0,1,2.19.33c-.54,0-1-.15-1-.08,1,.08,1,.19,1.09.34s.19.32,1.06.42c.09.19-1.07.16-.86.33,1,.13,1.16.26,1.36.4a2.46,2.46,0,0,0,1.37.44c.1-.29,0-.25,1.34-.19l-2.48-.46c.79.06,1.51.1,2.17.13-.53-.16-1.6-.24-1.84-.37,1.15.06.88.06,1.2-.12-.15.2.39.29.91.34s1,.08,1.21.3l-1.09.51a6.4,6.4,0,0,0,2.27.59,8.31,8.31,0,0,1,2.24.47l-.35-.25c.24-.25.76.18,1.2.17-.11.24.11.4.24.6,0-.19.89.27,1.14-.2l.46.49c.95.41,1.33-.4,2.26-.05-.36.19,0,.49-.67.51.31.09.59.22.64,0,.14.21,1-.1,1.2.23.17-.08.29-.33.64-.21,0,.06,0,.13,0,.13s.61,0,.37-.38c.76,1.06,2.76.71,3.42,1.63.72.11,1.58.26,2.22.42-.07.06,0,.12-.15.07.8.47.73-.58,1.65,0,.39.55-.59.07-.32.32-.09.87,1.23.22,1.76.89h-.17c.43.43,1.33,0,2.14.33a.15.15,0,0,0,0,.13,6.34,6.34,0,0,1,2.64,0c-.34.26-.41.07-.36.45.38.05,0-.56.79-.46.18.25.66.55.62.92l-.68-.17c.22.55.88.23,1.22.41l-.11.19c1.06.22,1.21-.28,2.31.07L41.53,54c.75-.33.43.42,1.14.22l0,.56a16,16,0,0,1,2.29,0,6.84,6.84,0,0,1-2,.29c.4.12,1.36.35,1.64.16-.17,0-.41.07-.55-.06a3,3,0,0,1,2.09,0c-.42.94,2,.83,2.35,1.75a5.91,5.91,0,0,1,2.14.53l.27.11.44.15.46.17.24.08a1.05,1.05,0,0,0,.24-.06l1-.33.63-.24c-.9-.5.49-.2.06-.92.34-.22.49-.28.54-.25.44,0,.9-.05,1.34-.12s-.26.36-.14.49c.84-.4.5.11,1.15,0-.26-.19.07-.52.59-.69l-.84,0c.89-1,1.31,0,2.17-1.1l-.19.44c.47-.49,2-1.51,2-2.44.15,0,.41.05.23.29a8.47,8.47,0,0,0,1.62-1.93,5.73,5.73,0,0,1,1.43-1.69l.08.22c.14-.27,0-.63.41-.79,0,.06.08.21.18.11a2.32,2.32,0,0,1,.51-1.06v.4c1.11-1.09.89-2.23,1.43-3.36.49.31,1.28-.62,1.63-1.1l.07.06c.92-1.53.93-2.9,1.36-4.46,1-.69,1.51-3.06,2.32-4.47-.18.2-.42-.18-.39-.47.23-.32-.08-1.11.41-.89l-.05.12c.59-.11.69-.89.86-1.47l-.64-.29c1.42-1.23.71-4,1.79-4.62-.08-.41,0-.86,0-1.26l.36.11a13.75,13.75,0,0,0,.72-2.74l.2.32c.2-.7-.83-1.14-.7-1.79L75,21.9c.3-1.22,1.08-2.31.9-3.63a.31.31,0,0,1,.2.32c.16-.57,1-2.08.16-2.08.49.12.39-1.22.38-1.92l.33.21a5.14,5.14,0,0,1-.3-.72A3.55,3.55,0,0,1,76.75,13c.14-.25.4-.25.18.11.51-.92-.17-.59.38-1.65a1.75,1.75,0,0,1,.16.27,4.27,4.27,0,0,0,.17-.53,1,1,0,0,0,0-.15s0-.09-.07-.07-.46,0-.85.08c-.65,0-1.45-.5-1.48-.85a1.41,1.41,0,0,1-1.16.07c0-.13.14-.17.22-.19-1-.53-1.67,0-2.3-.56A.25.25,0,0,0,72,9.28a14,14,0,0,1,1.43.44c.09-.32-.57-.57.09-.87a4.15,4.15,0,0,1-2.29.05.3.3,0,0,1-.06-.14l.08,0a.72.72,0,0,0-.43-.06,2.19,2.19,0,0,0-.51-.25c0-.29-.73-.35-1.07-.46-.07.37-.49.19-.16.6-.05,0,.07,0,.3,0,.06,0,.12,0,.15,0l0,0,.84.2a.83.83,0,0,1-1-.11c-.23.18-.49.37-.62.45C68.41,8.53,67.6,8,67.56,7.68c-1.08-.08-2.45-.53-3.28,0-.31,0-.28-.28-.36-.42.19,0,.38,0,.5,0-.63,0-1.74-.4-2,0-.67-.41.53-.32-.5-.52l.18-.11c-1.78-1.29-3.55.33-5.49-1.24.14.1.21.15.22.23-2.39-1.11-5.27-1-7.56-2.36-.67-.33-.82,0-1.32.06l0-.43L47,3.11c-1.13,0-1.54-1.44-3-1.19l.09.31c-.45-.18-1.53-.26-1.37-.53-.07,0-.23.22-.38,0l0-.21-1.26,0C40.28,1.17,41.5.8,40.2.4c-.51-.06-1.55.21-1.4.39s.47.27.42.47h-.47c-.24.57-.76,1.09.23,1.8l.86-.15.17.35-.65-.15c.29.37.59.19.89.1a.57.57,0,0,0,.23.4l.91-.36c0,.26-.46.37,0,.63.42-.16-.2-.61.43-.62.29.37.12.56.62.44,0,.17-.1.25-.29.27.43-.08,1,.2,1.31-.07.29.44,1.32.27,1.13.82a2.16,2.16,0,0,1,1.15-.18c-.83.5,1.3.4.93,1.07.64-.47,1.79.2,2.72.1-.06,0-.18.1-.24,0,.45.18.54.4.81.6.2-.48,1-.4,1.45-.6.45.64-.51.49-.46,1,.09-.41,1.12-.13,1-.52.36.42.34.25.45.72.25-.6.44,0,.92-.27.55.48,0,.63.76.63C54.39,7.61,53.7,7.66,53.7,7.66Zm17.06,3.5h0l-.36-.08Zm1.41.38-.61-.18c0-.14.07-.25.21-.21C71.67,11.21,72,11.38,72.17,11.54Zm-2.3-3.31c.24,0,.29.1.3.18l-.4-.06,0,0A.45.45,0,0,1,69.87,8.23Z"/><path class="cls-1" d="M69.34,8.59h-.1l.11.12.11-.09Z"/><path class="cls-1" d="M29.75,28.27l0,0,.07,0S29.77,28.26,29.75,28.27Z"/><polygon class="cls-1" points="70.53 26.76 70.63 26.78 70.58 26.64 70.53 26.76"/><path class="cls-1" d="M33.7,21.15s.07,0,.12-.08S33.75,21.11,33.7,21.15Z"/><path class="cls-1" d="M34.65,17.77l.24-.45A2.57,2.57,0,0,0,34.65,17.77Z"/><path class="cls-1" d="M35.4,15.18a.32.32,0,0,0-.15-.08h0Z"/><path class="cls-1" d="M15.36,44.52h.1C15.78,44.55,15.64,44.54,15.36,44.52Z"/><path class="cls-1" d="M20.83,41a2.35,2.35,0,0,1-.24.37C20.8,41.25,21,41.15,20.83,41Z"/><polygon class="cls-1" points="24.33 46.58 24.32 46.58 24.41 46.61 24.33 46.58"/><path class="cls-1" d="M20.08,41.69a1,1,0,0,0,.51-.34A1.57,1.57,0,0,0,20.08,41.69Z"/><path class="cls-1" d="M37.67,3.82l0-.13-.06,0Z"/><path class="cls-1" d="M37.65,3.67V3.52C37.63,3.58,37.62,3.64,37.65,3.67Z"/><path class="cls-1" d="M37.6,3.21l0,.31C37.66,3.42,37.69,3.29,37.6,3.21Z"/><path class="cls-1" d="M36.87,7.25l.12.06A.22.22,0,0,0,36.87,7.25Z"/><path class="cls-1" d="M36.72,8.31c.07-.24.4-.58.37-1L37,7.31C37.16,7.51,36.54,8,36.72,8.31Z"/><path class="cls-1" d="M34.28,12.43l.27-.87c-.18.13-.4.3-.36-.11C33.56,12.49,34.55,11.28,34.28,12.43Z"/><path class="cls-1" d="M33.53,15.11c0-.48-.21,0-.28-.08C33.32,15.36,33.33,15.44,33.53,15.11Z"/><path class="cls-1" d="M26.38,33.42l-.25-.23C26,33.51,26.23,33.27,26.38,33.42Z"/><path class="cls-1" d="M25.28,37.52l.41-.14L25.57,37A4.71,4.71,0,0,1,25.28,37.52Z"/><polygon class="cls-1" points="21.97 37.38 22.06 37.24 21.7 37.73 21.97 37.38"/><path class="cls-1" d="M27.22,50.79v-.43C27,50.36,26.78,50.8,27.22,50.79Z"/><path class="cls-1" d="M41.41,54.34a.63.63,0,0,0,.76.36C41.86,54.58,41.59,54.34,41.41,54.34Z"/><polygon class="cls-1" points="72.78 31.37 72.83 31.7 72.87 31.13 72.78 31.37"/><path class="cls-1" d="M78.17,11.31c-.1.08-.2.31,0,.36l.35-.29Z"/><path class="cls-1" d="M78.55,12.68a1.18,1.18,0,0,0,1-.29c-.48,0-.36-.13-.9,0a.27.27,0,0,1,0-.41c-.12,0-.15-.28-.4-.11,0,.42.12.55.52.61C78.75,12.62,78.62,12.64,78.55,12.68Z"/><path class="cls-1" d="M75.57,26.22l.07-.07A.16.16,0,0,0,75.57,26.22Z"/><path class="cls-1" d="M72.58,34.46c0-.07,0-.11,0-.12S72.54,34.46,72.58,34.46Z"/><path class="cls-1" d="M71.62,35.7l0-.07S71.59,35.67,71.62,35.7Z"/><path class="cls-1" d="M75.57,26.22l-.21.19C75.5,26.46,75.5,26.32,75.57,26.22Z"/><path class="cls-1" d="M80.2,14.5a.37.37,0,0,0-.13-.15l.06.14Z"/><path class="cls-1" d="M76.32,22.42l0-.07-.16-.1Z"/><path class="cls-1" d="M77.05,19.55c0,.06.32.18.47.25-.14-.08-.2-.15-.21-.21Z"/><path class="cls-1" d="M78.68,15.21l0-.09Z"/><path class="cls-1" d="M75.65,24.43h0Z"/><path class="cls-1" d="M20.7,54V54S20.67,54,20.7,54Z"/><path class="cls-1" d="M20.07,50.48l0,0,0,.2A1.69,1.69,0,0,1,20.07,50.48Z"/><path class="cls-1" d="M70.21,38.08h0C70.21,38,70.2,38,70.21,38.08Z"/><path class="cls-1" d="M60,60.89c.43-.09.15.61.68.41C60.56,61.27,60.38,60.69,60,60.89Z"/><path class="cls-1" d="M80.15,14.59a.76.76,0,0,1,0,.15A.24.24,0,0,0,80.15,14.59Z"/><path class="cls-1" d="M60.7,61.3h0l0,0Z"/><path class="cls-1" d="M68.08,44h.18A.35.35,0,0,0,68.08,44Z"/><path class="cls-1" d="M70.34,39.85l-.09.09A.25.25,0,0,0,70.34,39.85Z"/><path class="cls-1" d="M67.61,46.43s-.11,0-.1.14h.06S67.53,46.47,67.61,46.43Z"/><path class="cls-1" d="M66.58,48.74h.09v-.08Z"/><path class="cls-1" d="M28.17,56.05a2.17,2.17,0,0,1,0-.36C28.12,56,27.73,55.94,28.17,56.05Z"/><path class="cls-1" d="M80,14.51c.09,0,.14,0,.16.08a.44.44,0,0,0,0-.1A.28.28,0,0,0,80,14.51Z"/><path class="cls-1" d="M70.26,47.7l-.21.35A1.3,1.3,0,0,0,70.26,47.7Z"/><path class="cls-1" d="M45.72,61.18h-.1A.08.08,0,0,0,45.72,61.18Z"/><path class="cls-1" d="M69.6,49.19a.6.6,0,0,0-.32.1.16.16,0,0,0,.06.08Z"/><path class="cls-1" d="M28.15,55.69Z"/><path class="cls-1" d="M25.35,55.78c.37.12.31-.41.46-.66.48,0,.11.41.19.7.31,0,.65-.42.85-.34,0,.09,0,.13-.05.21.4-.29.87.24,1.34-.13a.2.2,0,0,1,0,.13,2.7,2.7,0,0,1,.14-.67c.17,0,.39-.2.37.12-.1,0-.15.09-.22.17l.21-.08c0,.48-.28.08-.38.41.38,0,.88-.3,1.11-.09-.07.44-.65,0-.42.45l-.35-.29c.11.78-.23-.12-.16.7.49.28.66,0,1.15.24.18-.21.06-.37.25-.58.87-.21.27,1.27,1,.85.23-.25.44-.78.75-.37l-.28.45c.5.2.5-.62.94-.13-.15.16-.45,0-.39.12.24.49.33-.2.6-.12l-.07.45c.56.09,1.25,0,1.88,0-.07.12-.22.23-.11.4a4.33,4.33,0,0,1,2.27,1l.39-.29c.06,0,.07.2,0,.26.24.22.08-.24.26-.34s.15.27,0,.36c.59-.17,1.63-.26,2.05.3l-.14.08c.37.27.69-.63,1-.17l-.1.05c.86.42,2,.37,2.47,1.14.29-.5.82.51,1.1-.23.4.52.22.62.87,1.08.18.09.42-.38.68-.39l-.1.39.44-.31,0,.52.25,0a.32.32,0,0,1-.09-.34c.4-.07.77.53.72.73l.92-.09c-.06.16-.21.17-.35.24.56-.27,0,.43.47.19,0-.11.1-.23.13-.31a1.06,1.06,0,0,0,1,.44l-.14.25c.59.25,1.33.25,2,.46-.22-.2,0-.65.19-.63l0,.43c.21-.21-.16-.22.2-.45.24.12,0,.52-.15.61l.35,0c0,.13-.11.18-.17.33.2-.22.41.58.73.18l0,.13c.69.21,1,.16,1.61.3.12-.35.31-.21.56-.45a4.44,4.44,0,0,0,1.26.77c.4-.07.19-.27.41-.44-.07.33.44.45.11.61a4.93,4.93,0,0,0,1.61.12c0-.16-.11-.25,0-.34s.27.23.2.38l0,0a.94.94,0,0,1,.69.13,3.05,3.05,0,0,1,.32.22,5,5,0,0,0,.5.32c.73.45,1.7.94,2.14.7l0,0,.26,0c0-.12.07-.25.1-.37l.18-.71c.3-.43,0,.54.33.37a3.81,3.81,0,0,1,.67-1.69c.15-.24.22-.31.3-.45a.92.92,0,0,0,.11-.46c1.13,0,.78-1.62,1.66-1.92L64,60.35c-.12-.26.22-.12.33-.21-.17-.07-.28.07-.34-.09.45-1.44,1.71-2.58,2.6-3.86.3-.47-1-.82-.15-1.21l.31.38c0-1.25,1-2.07,1.09-3.27.06.1.18.16.14.26.38-.08.37-.78.14-.9.1-.14.23.07.39,0s-.12-.71.22-.69c.06,0,.07.1.07.15-.07-.2.34-.63-.06-.65.34-.3.18-.79.52-1-.29-.37.47-.57,0-.87.54.27.74-.47.59-.82.13.15.26-.13.45.06.12-.28.12-.57-.18-.65.88-.22-.1-1.25.87-1.17a17.54,17.54,0,0,1,.34-2.58c.54.25-.28.84.32,1.05.06-.8-.26-1.4.16-2,.15-.15.2.2.27.3.06-.8.6-1.34.54-2.09.05,0,.08.11.1.19,0-.13.19-.25-.07-.34l0,.15c-.45.05-.58-.79-.77-.89.65.49.42-.55,1.21.14a.34.34,0,0,0-.27-.29c.1-.11.21-.11.36.09,0-.5-.3-.44-.14-.84.12.05.14.15.27.24-.17-.29-.32-.59-.09-.89.06.05.17.05.13.15.18-.61-.27-1.24.2-1.8.47.39.26-.15.74,0l0-.39L74,36c.12-.3-.12-.68.12-.89l.11.29.11-.6-.29.26c-.13-.39-.6-.18-.33-.54,0,.1.12-.3.45-.36h0c-.1-.2-.2-.41,0-.59.17,0,.5.22.62.22-.34-.28.14-.75-.21-1.08a.79.79,0,0,0,.37.18l-.27-.23c.15-.11.21-.11.4,0,.2-.41-.64-.07-.22-.49,0,0,.07,0,.09.15.3-.47.12-1,.44-1.47.52,0,0,.45.43.42.13-.7-.1-1.58.22-2.2l-.1.11c-.64-.31.49-.38.28-.81,0,.09.34.22.27.17.25-.41.12-1,.12-1.71l.15.14c.24-.22.31-.67.47-.94-.15-.13-.07-.29-.35-.27,1.25-.59,0-1.84,1-2.38,0,.1.09.27.11.19l0-.71c-.31,0-.2,0-.47.11a.59.59,0,0,1-.19-.53c.11.36.48.13.68.05-.1,0-.18-.08-.28-.09.62-.2-.58-.23-.09-.61l.15.07c0-.2-.19-.42-.09-.6.37,0,.11.23.38.32.06-.27-.49-.71-.08-.86.06.14,0,.31.08.45.47-.16.38-.22.5-.4v0l.3-.41-.14.09c-.8-.59,0-.74-.44-1.36.44.6.3.16.68.3.14-.09.31-.24.41-.16-.26-.3.34-.29,0-.72.13,0,.08-.23.38-.1,0-.31-.24,0-.39-.05-.32-.54.81-.89.35-1.73-.13-.63-.56-.8-.73-1.32.22-.17.46.18.46.18a.66.66,0,0,0,0-.81c.11.06.21,0,.35-.1-.06-.24-.47-.12-.32-.45a1.67,1.67,0,0,1,.54.19,6.76,6.76,0,0,0-.61-.8c.2-.14.37.1.54.19-.15-.35-.47-.89-.85-.82l0,.25c-.07-.1.25-.18.35-.11.37.2,0,.46-.1.5l-.14-.18c-.32.22-.26.37-.09.57s.38.42.37.62L79,14.44c.16.12.32.24.47.37-.14.09-.45.14-.53,0-.28.26.2.24-.12.45a.08.08,0,0,1-.1,0l.15.26c-.11-.06-.39,0-.3-.14-.35.4.33.77-.11.87l0,0c.07.65.4.12.76.7l-1,.09.37.16a.18.18,0,0,1-.24.11c.21.31.18,0,.4.21-.44.22-.06.9-.71.81.27.19.31-.24.43.15-.69-.09,0,.41-.37.61-.32-.18-.07-.4-.45-.2.54.33-.28.52-.23.79.46.14.06.57.1,1-.15-.07-.47.68-.74,1l-.07,0c.44.2.25.56.27.87-.28-.09-.38-.17-.46-.36l-.07.26a.46.46,0,0,1,.19.4l-.33-.17c-.08.35.21.82-.16,1.2.32.12,1-.09,1.09.45-.18,0-.48-.11-.52-.25,0,.05.1.19,0,.25L76.37,24c-.19.16.22.18.14.33-.25-.07-.21.07-.4,0,0-.05.14-.11.06-.2a.75.75,0,0,1-.52.36c.14,0,.33.1.33.25-.09.35-.34,0-.53.19.15.13-.1.3.28.42,0,.1-.22.07-.33.08.11.23-.2.85.26.77l0,0v0h0c.19.7-.59,1.15-.62,1.78l-.12,0c0,.4-.16.8,0,1.14,0,.1-.3.17-.44.08,0,.29.14.37-.19.68-.13-.34-.23,0-.07-.32-.23.3-.45.32-.23.8-.28-.23-.49.12-.45.32l.31-.17a1.41,1.41,0,0,1-.18.51l-.39-.23c-.74.53.45,1.56-.59,1.8.23.28.34-.31.62,0-.17.3-.88.43-.92.53-.38.36.47.62.15,1,.16,0,.58.07.6.47a.5.5,0,0,1-.81-.07.1.1,0,0,1,.13-.08c0-.13,0-.28-.24-.21l.13.09c-.21.11-.35.55-.55.36,0,.29.2.19.34,0-.36.33-.24.64-.54,1,.11,0,.31,0,.28,0-.41.55.18.37.09.82-.31.15-.51-.29-.47.2-.25.21-.41-.09-.5-.23.15.49-.45.64-.58.84l0-.25a.63.63,0,0,1-.06.35h.34c-.09.09-.13.19-.25.15.14.19.52.09.69.43-.21.1,0,.54-.43.45.32-.45-.42-.1-.32-.54a.31.31,0,0,1-.12.29s-.08-.05-.09-.09c-.53.34.36.39.16.88-.19-.15-.46-.05-.44,0,.08-.2.4,0,.5.29-.29.25,0,.39-.09.55l.15-.16c.2.15.11.3.09.55-.18-.05,0-.25-.14-.2.29.4-.61.39-.49.83-.22.1-.42-.15-.58,0,.13.49-.46.29-.39.78.34,0,.28-.05.45.35l.06-.74.25.6c.09-.2,0-.5.09-.59.16.29.09.24.37.25-.55.09,0,.64-.38.83L69.09,42c-.51.34,0,1-.4,1.52l.21-.14c.26.2-.12.39-.08.63-.24-.12-.38,0-.56,0,.18.07-.21.44.25.69l-.43.14c-.34.43.45.85.17,1.29-.21-.26-.47-.12-.52-.51-.07.15-.17.27,0,.35-.18,0,.14.57-.15.62.07.11.31.24.22.41a.3.3,0,0,1-.12-.06c.12.06,0,.35.37.31-1,.15-.55,1.37-1.37,1.5a7.28,7.28,0,0,1-.31,1.14c-.06-.06-.12-.06-.07-.11-.42.32.56.58.09,1-.5.06-.09-.36-.3-.27-.82-.3-.17.63-.77.74v-.1c-.38.12,0,.75-.24,1.12a.32.32,0,0,0-.11-.06A2.25,2.25,0,0,1,65,53.63c-.24-.27-.07-.26-.42-.33,0,.19.52.19.44.58-.22,0-.49.21-.83.08l.14-.34c-.51,0-.19.43-.35.57l-.17-.11c-.18.52.28.76,0,1.28H64c.31.53-.39.12-.19.58l-.51-.15a5.42,5.42,0,0,1,0,1.29,3.47,3.47,0,0,1-.3-1.21c-.1.19-.29.66-.11.88,0-.1-.07-.26,0-.3a1.16,1.16,0,0,1,.07,1.2c-.86-.53-.74.87-1.58.77,0,.84-.83,1.25-1.19,2,.85.1-.1.23.64.57,0,.2-.1.26-.15.25l-.73.32c-.27,0-.06-.26-.23-.33-.13.18-.23.18-.34.16a1.23,1.23,0,0,1-.31-.14c.26.14.34.25.23.22a1.5,1.5,0,0,0,.34.16c.12.22,0,.18-.18.06s-.24-.26-.14,0a2.44,2.44,0,0,0-.14-.28c.06.21,0,.06-.05.71a1,1,0,0,1,0-.4s-.07,0-.13,0l0,0h-.48a1.23,1.23,0,0,1-1.06-.28l.11-.17c-.15,0-.34.29-.46,0,0-.07.11-.17,0-.2s-.47.23-.62.06l.22-.17c-.65-.46-1.26.2-1.91.15.17-.56-.35-.92-.61-1.09l0-.08c-.82-.32-1.56,0-2.41,0-.31-.75-1.57-.74-2.25-1.31.09.14-.15.43-.3.45-.15-.17-.62.24-.44-.27l.06,0c0-.54-.41-.52-.7-.62l-.24.66c-.48-1.21-2.12-.24-2.28-1.24-.23.11-.46,0-.7.16l.12-.36a4.06,4.06,0,0,0-1.39-.47l.2-.22c-.35-.12-.75.91-1.09.84l.06-.57c-.63-.18-1.12-.84-1.88-.53,0-.08.1-.23.2-.22-.29-.1-1-.7-1.14.07.14-.48-.63-.24-1-.13l.16-.34c-.42.37-.46.5-.9.5-.08-.07,0-.3.1-.18-.26-.28-.34.27-.66,0l.2-.19c-.31-.12-.32,0-.58.22s-.58-.27-.54-.61c-.1.19-.35.4-.51.25a.23.23,0,0,1,.14-.21c-.47-.4-.92.17-1.19-.29a.43.43,0,0,0,0-.23,2.88,2.88,0,0,1,.72.28c.1-.33-.23-.49.18-.86-.35.16-1,.56-1.28.3a.41.41,0,0,1,0-.12l0,0a.23.23,0,0,0-.23,0,.87.87,0,0,0-.26-.18c0-.28-.35-.26-.52-.33-.09.37-.3.24-.17.6,0,0,0,0,.16,0s.06,0,.09,0l0,0,.43.1c-.19.14-.37.25-.51,0-.15.2-.32.41-.41.51-.09-.57-.47-1-.44-1.31-.59,0-1.28-.23-1.81.34-.17,0-.12-.24-.14-.36s.21,0,.28-.09c-.35.09-.91-.19-1.12.26-.31-.33.34-.37-.2-.45l.11-.12c-.8-1.06-2,.71-2.86-.59a.3.3,0,0,1,.09.2c-1.17-.81-2.78-.39-3.86-1.44-.33-.24-.45,0-.74.21l0-.41-.5.34c-.63.16-.66-1.22-1.51-.81v.29c-.23-.13-.82-.08-.69-.37,0,0-.12.19-.19.14l.13,0s0,0,0,0l0,0c-.05,0,.07,0,0,0a.23.23,0,0,1-.2,0c.07-.13.29-.08.48-.07l.12,0s0,0-.11,0a.51.51,0,0,1-.2-.18s0,.06,0-.08l-.22-.27a.38.38,0,0,1,.12-.17c-.05-.31,0-.63-.08-.91s-.13-.27-.34-.35a1.25,1.25,0,0,0-1,.17,1.84,1.84,0,0,0-.27,1.08,1.9,1.9,0,0,0-.37.2,2.49,2.49,0,0,1,.32-.81c-.53.32-.38.78-.25,1.1a.54.54,0,0,0-.34.43,2.47,2.47,0,0,0,.87.86c-.07.12-.23.08-.36.08s-.21.07,0,.5c.34.17.31-.06.35-.21s.1-.21.45,0l.12.3.26.11c0,.2,0,.29.23.16a.28.28,0,0,1-.19.29c.25-.12.54.08.74-.21.1.39.69.11.5.67a1.08,1.08,0,0,1,.67-.31c-.53.58.66.24.37.94.42-.54,1,0,1.49-.22,0,0-.12.12-.15.08.23.12.25.33.37.49.18-.49.59-.49.89-.74.16.57-.35.53-.39,1,.1-.41.63-.25.63-.62.14.37.15.21.15.66.22-.62.24,0,.55-.37.24.4-.09.61.33.52C25.74,55.66,25.35,55.78,25.35,55.78Zm8.95,1.47h0l-.18,0Zm.73.21a1.62,1.62,0,0,0-.31-.1c0-.13.08-.25.15-.23S35,57.33,35,57.46Zm-.81-2.93c.12,0,.14.06.14.14l-.22,0,0,0A.62.62,0,0,1,34.22,54.53Z"/><path class="cls-1" d="M33.87,54.94h0a1,1,0,0,0,0,.1l.08-.1Z"/><path class="cls-1" d="M75.66,26.14h0Z"/><polygon class="cls-1" points="44.86 61.11 44.89 61.02 44.8 61.08 44.86 61.11"/><path class="cls-1" d="M78.06,22.5l.11,0Z"/><path class="cls-1" d="M78.63,20.78l.2-.21A1.2,1.2,0,0,0,78.63,20.78Z"/><path class="cls-1" d="M79.17,19.49a.66.66,0,0,0-.15-.07h0Z"/><path class="cls-1" d="M72.7,40.67a.06.06,0,0,0,0,.06C72.72,40.87,72.72,40.78,72.7,40.67Z"/><path class="cls-1" d="M74.18,34.19a1,1,0,0,1,.09.26C74.34,34.35,74.38,34.27,74.18,34.19Z"/><polygon class="cls-1" points="70.29 47.66 70.28 47.66 70.26 47.7 70.29 47.66"/><path class="cls-1" d="M74.17,34.74a.27.27,0,0,0,.1-.29A.43.43,0,0,0,74.17,34.74Z"/><path class="cls-1" d="M79.92,12.94a.29.29,0,0,0,0-.09h-.06Z"/><path class="cls-1" d="M79.84,12.86l-.08-.08S79.8,12.86,79.84,12.86Z"/><path class="cls-1" d="M79.59,12.63l.17.15C79.73,12.71,79.7,12.62,79.59,12.63Z"/><path class="cls-1" d="M80.06,15.2l.13,0Z"/><path class="cls-1" d="M80.05,15.83c0-.14.33-.35.25-.57l-.11,0C80.39,15.35,79.84,15.67,80.05,15.83Z"/><path class="cls-1" d="M77.92,17.82l.23-.42c-.17,0-.38.1-.36-.12C77.22,17.74,78.13,17.25,77.92,17.82Z"/><path class="cls-1" d="M77.35,19.16c0-.26-.21-.05-.28-.08C77.16,19.26,77.18,19.31,77.35,19.16Z"/><path class="cls-1" d="M74.39,29.15,74.08,29C74.06,29.22,74.2,29.07,74.39,29.15Z"/><polygon class="cls-1" points="75.43 31.6 75.69 31.49 75.42 31.31 75.43 31.6"/><polygon class="cls-1" points="72.76 31.95 72.75 31.85 72.76 32.19 72.76 31.95"/><path class="cls-1" d="M66.46,48.2l.41.12C66.85,48.17,66.44,48,66.46,48.2Z"/><path class="cls-1" d="M63.62,55.19c-.23,0-.44.11-.32.32C63.41,55.37,63.63,55.29,63.62,55.19Z"/><polygon class="cls-1" points="47.72 58.46 47.91 58.37 47.6 58.4 47.72 58.46"/><path class="cls-1" d="M59.39,23.65c0-.11,0-.37,0-.32l-.07.44Z"/><path class="cls-1" d="M59.3,22.83a5.38,5.38,0,0,0-.14,1c.07-.42.06-.24.14-.74,0-.05,0,.14,0,.3,0-.11,0,.1.07-.17s0-.36-.11-.08A2.36,2.36,0,0,1,59.3,22.83Z"/><path class="cls-1" d="M56.92,21.92v0S56.93,21.93,56.92,21.92Z"/><path class="cls-1" d="M55.41,21.57s0-.05,0-.09A.14.14,0,0,0,55.41,21.57Z"/><path class="cls-1" d="M55.18,21.07v0S55.19,21,55.18,21.07Z"/><path class="cls-1" d="M56.92,21.92l0-.14C56.88,21.92,56.9,21.89,56.92,21.92Z"/><path class="cls-1" d="M58.86,23.85a.5.5,0,0,0,0-.12l0,.05Z"/><path class="cls-1" d="M57.62,21.62h0l0-.18Z"/><path class="cls-1" d="M58.15,21.6s0,.35-.07.51a.82.82,0,0,1,.05-.25C58.13,21.79,58.14,21.71,58.15,21.6Z"/><path class="cls-1" d="M58.9,22.33l0,0Z"/><path class="cls-1" d="M57.26,21.51v0Z"/><path class="cls-1" d="M43,24.25v0Z"/><polygon class="cls-1" points="42.23 22.45 42.24 22.43 42.22 22.22 42.23 22.45"/><path class="cls-1" d="M54.73,20.57Z"/><path class="cls-1" d="M50.29,20.71c.05.33-.09.42,0,.79A4.08,4.08,0,0,0,50.29,20.71Z"/><path class="cls-1" d="M58.85,23.8h0Z"/><path class="cls-1" d="M50.28,21.5h0v0Z"/><path class="cls-1" d="M53.6,20.74v0Z"/><path class="cls-1" d="M54.4,21.31v-.06A.22.22,0,0,0,54.4,21.31Z"/><path class="cls-1" d="M53.16,21.25s0-.09,0,0v.05C53.14,21.21,53.14,21.19,53.16,21.25Z"/><path class="cls-1" d="M52.71,21.23v.06Z"/><path class="cls-1" d="M44.26,24c0-.11,0-.22,0-.33C44.24,23.91,44.18,24,44.26,24Z"/><path class="cls-1" d="M58.88,23.64a.62.62,0,0,1,0,.16l0,0Z"/><path class="cls-1" d="M53,24.19,53,24.13A.13.13,0,0,0,53,24.19Z"/><path class="cls-1" d="M47.36,23.79l0,.05S47.35,23.84,47.36,23.79Z"/><path class="cls-1" d="M52.75,24.18a1.26,1.26,0,0,0,0-.26l0,.09Z"/><path class="cls-1" d="M44.22,23.64h0Z"/><path class="cls-1" d="M43.82,24.55c.07,0,0-.48,0-.76s.06.36.1.61c0-.13,0-.59.09-.57s0,.11,0,.21c0-.39.15,0,.18-.52l0,.12,0-.67s0-.31.07,0c0,0,0,.12,0,.22l0-.14c.06.46,0,.16,0,.5.05-.15.1-.54.15-.41,0,.45-.1.16,0,.55l-.08-.16c.09.7,0-.05.05.7.1.13.09-.23.19-.11,0-.25,0-.37,0-.62.1-.45.16,1.13.23.53,0-.31,0-.88.07-.58V24c.09.05,0-.73.12-.39s-.06.17,0,.23c.08.4,0-.29.07-.3L45,24c.1-.07.19-.4.29-.49a1.88,1.88,0,0,0,0,.41c.13-.23.29,0,.43.31l0-.39a.85.85,0,0,1,0,.25c.06.14,0-.25,0-.4s.05.22,0,.33c.07-.33.23-.72.34-.3l0,.11c.08.16.05-.8.14-.44v.07c.16.16.33-.2.47.39,0-.57.16.24.15-.54a3.59,3.59,0,0,0,.21.78s0-.49.08-.57v.41l0-.43,0,.49,0-.11a.88.88,0,0,1,0-.3c.06-.19.16.28.17.49l.13-.35a1,1,0,0,1,0,.33c.07-.42,0,.43.09,0,0-.09,0-.24,0-.32,0,.24.12.24.18.14v.28c.1.07.22-.14.34-.13a2.17,2.17,0,0,1,0-.67l0,.43a2.65,2.65,0,0,1,0-.49,1.85,1.85,0,0,1,0,.63l.06-.15c0,.13,0,.2,0,.36,0-.27.1.44.13,0v.13c.12,0,.17-.15.27-.17a3.09,3.09,0,0,1,.07-.6c.07.12.16.41.24.38a2.84,2.84,0,0,0,0-.54c0,.34.09.31.05.56.1-.06.13-.07.26-.35a1.78,1.78,0,0,1,0-.31c0-.06.05.14.05.3v0c.15-.51.34,1,.46.28v0l.13-.37c.06.06,0,.26,0,.47.13-.57.21.08.32-.29.08,1,.3-.07.41.57V24c0-.23,0,.14.06.19a2.06,2.06,0,0,1,0-.34c.26-.28.51.36.76.57s.08-1.22.19-.65l0,.44c.2-.53.38,0,.58-.42a1.11,1.11,0,0,1,0,.23c0,.32.14,0,.15-.24a1.94,1.94,0,0,1,0,.37c0,.19.11-.4.12-.08a.2.2,0,0,1,0,.12c0-.15.12.05.11-.32.06.18.14-.16.19.06.05-.41.11.2.14-.38,0,.6.1.49.16.21,0,.18,0,.19,0,.44,0,0,.1-.12.11-.43.06.72.21-.57.22.35a2.63,2.63,0,0,1,.46-.66c0,.6-.16.05-.18.68.14-.24.24-.75.36-.6a1,1,0,0,1,0,.36c.14-.24.24.07.38-.25a.94.94,0,0,1,0,.16s.05.09.06-.18l0,.07a6.41,6.41,0,0,1,.14-1c-.08.78.11.21,0,1.19a1.1,1.1,0,0,0,0-.36.86.86,0,0,1,0,.36c.09-.14.07-.43.15-.42s0,.18,0,.33c0-.25.1-.5.15-.39s0,.18,0,.18.22-.67.32-.42c-.07.57,0,.19,0,.69l.07-.15v-.24s.12-.34.16-.18l0,.2.1-.09,0-.19c.07-.25,0-.62.1-.48s.05,0,.06.3h0c0-.15.08-.32.11-.19s0,.55,0,.65c.06-.41.14-.1.2-.54,0,.1,0,.36,0,.41l0-.33a1.1,1.1,0,0,1,0,.37c.08.06,0-.63.09-.36,0,0,0,.08,0,.13s.19-.2.26,0c0,.5-.08.12-.08.54.12-.08.29-.58.4-.45l0-.06c.07-.7.06.35.14,0,0,.05,0,.39,0,.31.07.12.17-.16.31-.37l0,.18c0,.16.12.1.16.18a1.27,1.27,0,0,0,.06-.41c.08,1,.35-.52.42.34,0,0-.06.16,0,.16l.13-.16a1.86,1.86,0,0,0,0-.42c0-.18.08-.32.11-.32a1.91,1.91,0,0,0,0,.67l0-.3c0,.55.07-.61.12-.24l0,.16c0-.07.09-.28.12-.24,0,.36,0,.17-.08.46,0,0,.16-.66.17-.31,0,.1-.06.1-.09.19,0,.42,0,.32.06.39h0l.07.19V23.5c.14-.92.13-.16.27-.76a3,3,0,0,0-.09.73,1.45,1.45,0,0,1,0,.36c.07-.32,0,.26.14-.21,0,.13,0,0,0,.34.06-.1,0-.23,0-.39.12-.43.13.55.3,0,.12-.24.18-.67.29-.88a1.66,1.66,0,0,1-.07.47c0,.19.06.16.13,0a1.27,1.27,0,0,0,0,.35s.08-.46.1-.27a4.54,4.54,0,0,1-.09.51c.06-.11.13-.35.18-.46a2.16,2.16,0,0,1-.09.48,1,1,0,0,0,.2-.54l0-.13a1.45,1.45,0,0,1,0,.37c-.07.27,0-.13,0-.26l0-.08c.05-.76-.14.11-.2.06l.09-.55-.11.45a2,2,0,0,1,.06-.53c0-.27-.06.19-.07-.11a.25.25,0,0,1,0-.1l-.06.16c0-.12,0-.39,0-.31,0-.32-.17.4-.16,0v0c-.13.17-.05.4-.18.87l0-1-.05.4s0,0,0-.21a3.41,3.41,0,0,0-.06.43c0-.37-.17.16-.12-.48,0,.3,0,.24,0,.45,0-.7-.08.11-.1-.21s.08-.17.06-.49c-.09.6-.09-.14-.14,0-.05.48-.11.19-.2.35,0-.16-.11-.28-.16-.46v-.08c-.05.49-.11.39-.17.48a3.82,3.82,0,0,1,.08-.53h0a.82.82,0,0,1-.09.29l.05-.36c-.07,0-.17.41-.23.16a5,5,0,0,1-.12,1.17,4.62,4.62,0,0,1,.07-.57s0,.15,0,.07l.06-.3c0-.14,0,.25-.07.22,0-.26,0-.19,0-.39,0,0,0,.11,0,0a1,1,0,0,1-.05-.4,1.23,1.23,0,0,1-.06.38c-.06,0,0-.31,0-.45,0,.18,0,0-.09.38a2.65,2.65,0,0,1,0-.29c-.05.16-.16,0-.15.45V22h0c-.14.38-.21-.24-.33-.08v-.13c-.07.14-.15.07-.21.35a1.12,1.12,0,0,1,0-.4c-.06.1-.07.24-.13,0s0-.2.07-.16c-.06-.12-.06-.33-.15,0,.05-.33,0-.42-.06-.32l0,.24c0,.05-.06,0-.09,0l0-.44c-.1-.55-.3.89-.34,0-.05.3.06.22,0,.58-.05-.06-.07-.7-.09-.7-.07-.25-.12.63-.19.46a2.45,2.45,0,0,1-.09.72,2.06,2.06,0,0,1,0-.78s0,0,0,.09a.63.63,0,0,0,0-.3l0,.16c0-.16-.1-.15-.07-.41a.57.57,0,0,0,0,.34c-.06-.23-.12,0-.19-.17a1.14,1.14,0,0,1,0,.27c-.1-.2-.07.3-.15.36,0-.24.05-.57,0-.37a1.4,1.4,0,0,1,0-.55c-.09.3-.12-.2-.16-.26l0-.13c0,.08,0,.07-.06.07v.32a.29.29,0,0,1,0-.19c0,.2,0,.52-.07.8,0-.16-.1.17-.09-.25.09.15,0-.42.1-.48s0,0-.06,0a.27.27,0,0,1,0-.11c-.07-.38-.07.47-.16.45,0-.23,0-.45,0-.4a1.58,1.58,0,0,1,0,.58c0-.19-.08.13-.11.11l0,.08c0,.24-.06.21-.1.28,0-.19,0-.13,0-.21-.06.41-.08-.43-.16-.16,0-.16,0-.44,0-.55-.09.3-.06-.32-.15-.08a1.45,1.45,0,0,1-.05.55l.13-.22-.1.46s.09-.2.11-.14a1.1,1.1,0,0,0,0,.44c0-.48-.11.27-.16-.05l0-.78c-.07-.36-.18.39-.28.19l0,.14c0,.31-.07,0-.12.16a2.77,2.77,0,0,0,0-.52c0,.2-.09,0-.12.5l0-.34c-.09-.15-.14.74-.23.64a3.84,3.84,0,0,1,.08-.67s-.06-.05-.07.13c0-.16-.09.35-.11.1,0,.11,0,.39-.06.37V21.5A1.91,1.91,0,0,0,53,22c-.06-.82-.26.05-.31-.65-.07.08-.15.17-.21.18s0-.13,0-.1c-.07-.25-.07.75-.16.48,0-.43.06-.23,0-.39,0-.87-.12.11-.17-.39l0-.05c0-.3-.13.32-.2.25v-.13a1.41,1.41,0,0,1-.25.71,2.28,2.28,0,0,0,0-.52s0,.55-.08.64a6.5,6.5,0,0,1-.06-.71l.07,0c0-.48-.09,0-.12-.07V21c-.1.07-.11.59-.21.55v.16c-.06.51,0-.29-.1.09v-.53a3.64,3.64,0,0,1-.21.61,6.72,6.72,0,0,1,.18-.82s-.13,0-.15.3c0-.05,0-.18.05-.1-.05.41-.12.61-.19.6,0-1-.19-.26-.23-1.05-.14.38-.26-.16-.42-.1.05.79,0,0,0,.83,0,.05,0,0,0,0L50.17,21c0-.23,0-.18,0-.36s0-.34-.09-.56c0,.29,0,.42-.07.31l.06.37c-.11.43-.09-.68-.2-.25l0-.26c-.06.15-.21,0-.27.65a1.17,1.17,0,0,1,0-.38c-.14-.1-.31.7-.41.3v-.2c0,.06,0,.37-.08.17a1.38,1.38,0,0,0,0-.21c0,.07-.07.35-.1.23l0-.22c-.14-.26-.2.55-.31.68a1.61,1.61,0,0,0-.17-.87v-.08c-.16-.07-.26.49-.4.72-.1-.63-.31-.26-.45-.61a2.09,2.09,0,0,1,0,.51c0-.12-.09.41-.09-.13h0c0-.52-.1-.38-.16-.39v.7c-.16-1-.36.38-.46-.53,0,.18-.07.18-.1.35V20.6c-.09-.1-.14-.14-.26-.05l0-.27c-.07,0,0,1.09-.11,1.11l0-.56c-.12,0-.25-.48-.35,0a.94.94,0,0,1,0-.27c-.06,0-.22-.37-.18.4,0-.51-.12-.05-.17.17V20.8a2.16,2.16,0,0,1-.1.74c0-.05,0-.29,0-.2-.07-.19,0,.35-.11.16l0-.24c-.06,0-.05.1-.07.38s-.12-.09-.14-.43c0,.21,0,.48-.06.39a.83.83,0,0,1,0-.25c-.11-.24-.13.44-.22.08a.88.88,0,0,0,0-.22c.08,0,.15,0,.14.05a5.29,5.29,0,0,1-.05-.87c0,.26-.1.82-.17.66V20.9s0,0,0,.06,0-.1,0-.1c0-.29-.08-.15-.12-.16a3.79,3.79,0,0,0,0,.62.06.06,0,0,1,0-.07s0,0,0,0v0l.08,0c0,.19,0,.35-.08.15,0,.24,0,.48,0,.6-.07-.52-.17-.8-.2-1.11a1.18,1.18,0,0,0-.24.85c0,.09,0-.2-.06-.31s0-.06,0-.16c0,.18-.15.07-.14.56-.08-.21,0-.45-.07-.36v-.15c-.23-.77-.23,1.26-.49.27,0,.06,0,.09,0,.17-.26-.42-.45.45-.73-.24-.08-.13-.06.18-.08.42l0-.4L43,22c-.07.34-.24-1-.32-.32l0,.27c0-.05-.13.16-.15-.15,0,0,0,.29,0,.15v-.21l-.09.36c-.09-.14-.05-.83-.17-.86a3,3,0,0,0-.06.76.73.73,0,0,1,.08.33l0,.12a8.46,8.46,0,0,0,.19,1.67l0-.38.05.29-.06,0c.06.28.06,0,.07-.15a2.36,2.36,0,0,0,0,.33l0-.59a2.44,2.44,0,0,0,.06.61,6.64,6.64,0,0,1,0-.72c0,.27.06.5.08.26a1.28,1.28,0,0,1,0,.33c0-.19.08-.09.07-.42.07.35.12-.09.16.49a1.93,1.93,0,0,1,0-.49c0,.7.13,0,.16.78,0-.63.14-.29.19-.64,0,.05,0,.15,0,.12s.07.24.11.35a6.23,6.23,0,0,1,0-1,10.23,10.23,0,0,1,.06,1.09c0-.42.06-.43,0-.78a3.74,3.74,0,0,1,.1.58c0-.65,0-.11,0-.51.08.31.06.61.11.4A1.36,1.36,0,0,1,43.82,24.55Zm1.46-1.2h0l0,0Zm.13,0h0a.86.86,0,0,1,0-.25A1.47,1.47,0,0,0,45.41,23.33ZM45,20.76c0-.05,0,0,0,.1l0,.05v-.15Z"/><path class="cls-1" d="M45,21.25v0l0,.09v-.12Z"/><path class="cls-1" d="M56.94,22h0v0Z"/><polygon class="cls-1" points="47.22 23.98 47.21 23.89 47.2 23.97 47.22 23.98"/><path class="cls-1" d="M57.55,23.32a.14.14,0,0,0,0,.09Z"/><path class="cls-1" d="M57.85,23.43l0,.13A.49.49,0,0,0,57.85,23.43Z"/><path class="cls-1" d="M58.06,23.63l0-.16h0Z"/><path class="cls-1" d="M54.29,23.8v0C54.26,23.89,54.27,23.86,54.29,23.8Z"/><path class="cls-1" d="M55.46,23a1.43,1.43,0,0,1-.05.18S55.45,23.21,55.46,23Z"/><polygon class="cls-1" points="53.03 24.19 53.03 24.19 53.03 24.19 53.03 24.19"/><path class="cls-1" d="M55.36,23.16c0,.07,0,.06,0,0S55.38,23.1,55.36,23.16Z"/><path class="cls-1" d="M59.07,23.9v0Z"/><path class="cls-1" d="M59.08,23.86l0,0S59.09,23.82,59.08,23.86Z"/><path class="cls-1" d="M59.14,23.73l0,.09S59.12,23.83,59.14,23.73Z"/><path class="cls-1" d="M58.77,23.7v0Z"/><path class="cls-1" d="M58.68,23.73s0,.29.06.21l0-.11C58.72,24,58.72,23.5,58.68,23.73Z"/><path class="cls-1" d="M58.44,22l.07.12c0-.15,0-.34,0-.37C58.49,21.33,58.54,22.09,58.44,22Z"/><path class="cls-1" d="M58.21,21.79c0-.06,0-.21,0-.29A.49.49,0,0,0,58.21,21.79Z"/><path class="cls-1" d="M56.39,21.64l0-.34C56.38,21.35,56.41,21.43,56.39,21.64Z"/><polygon class="cls-1" points="55.92 23.37 55.94 23.58 55.98 23.27 55.92 23.37"/><polygon class="cls-1" points="55.88 20.94 55.9 20.89 55.84 21.01 55.88 20.94"/><path class="cls-1" d="M52.8,20.91v.41C52.82,21.25,52.84,20.78,52.8,20.91Z"/><path class="cls-1" d="M51.46,21.3c0-.21,0-.35-.07-.14C51.42,21.19,51.45,21.35,51.46,21.3Z"/><polygon class="cls-1" points="47.48 20.62 47.5 20.48 47.46 20.6 47.48 20.62"/><path class="cls-1" d="M50.54,30.7c0-.11,0-.37,0-.32l-.07.43Z"/><path class="cls-1" d="M50.49,29.87a8.61,8.61,0,0,0-.14,1c.07-.42,0-.25.13-.74,0-.05,0,.14,0,.3,0-.11,0,.1.06-.17s0-.36-.08-.09A2.58,2.58,0,0,1,50.49,29.87Z"/><path class="cls-1" d="M48.62,29V29S48.63,29,48.62,29Z"/><path class="cls-1" d="M47.45,28.61a.17.17,0,0,0,0-.09A.2.2,0,0,0,47.45,28.61Z"/><path class="cls-1" d="M47.29,28.1a.08.08,0,0,1,0,0C47.3,28.09,47.3,28.07,47.29,28.1Z"/><path class="cls-1" d="M48.62,29v-.14C48.59,29,48.61,29,48.62,29Z"/><path class="cls-1" d="M50.11,30.9a.53.53,0,0,0,0-.11l0,0Z"/><path class="cls-1" d="M49.19,28.68h0s0-.1,0-.17Z"/><path class="cls-1" d="M49.61,28.66s0,.36-.07.52a2,2,0,0,1,0-.26C49.59,28.85,49.6,28.77,49.61,28.66Z"/><path class="cls-1" d="M50.18,29.39l0-.05S50.19,29.37,50.18,29.39Z"/><path class="cls-1" d="M48.91,28.57a.66.66,0,0,0,0-.13S48.91,28.53,48.91,28.57Z"/><path class="cls-1" d="M37.22,30.11V30S37.21,30.11,37.22,30.11Z"/><path class="cls-1" d="M37,28.22v0A1.49,1.49,0,0,1,37,28Z"/><path class="cls-1" d="M47,27.59h0C47,27.55,47,27.56,47,27.59Z"/><path class="cls-1" d="M43.49,27.48c0,.34-.11.42-.09.8A5.73,5.73,0,0,0,43.49,27.48Z"/><path class="cls-1" d="M50.1,30.85h0Z"/><path class="cls-1" d="M43.4,28.28h0v0Z"/><path class="cls-1" d="M46.08,27.72a.92.92,0,0,0,0,.16S46.08,27.79,46.08,27.72Z"/><path class="cls-1" d="M46.67,28.31v0S46.66,28.31,46.67,28.31Z"/><path class="cls-1" d="M45.69,28.2s0-.08,0,0v0S45.68,28.14,45.69,28.2Z"/><path class="cls-1" d="M45.34,28.17v0Z"/><path class="cls-1" d="M38.3,30.05c0-.11,0-.22,0-.34C38.29,30,38.23,30.07,38.3,30.05Z"/><path class="cls-1" d="M50.13,30.69a.62.62,0,0,1,0,.16l0,0C50.12,30.77,50.13,30.72,50.13,30.69Z"/><path class="cls-1" d="M45.35,31.13l-.05-.06A.1.1,0,0,0,45.35,31.13Z"/><path class="cls-1" d="M40.81,30.27l0,0S40.8,30.31,40.81,30.27Z"/><path class="cls-1" d="M45.13,31.1a2.14,2.14,0,0,0,0-.26s0,.06,0,.1Z"/><path class="cls-1" d="M38.32,29.71Z"/><path class="cls-1" d="M37.86,30.55s.07-.47.12-.75,0,.36,0,.61a5.31,5.31,0,0,1,.16-.55,1.83,1.83,0,0,1,0,.21c.08-.38.12,0,.22-.48v.12c0-.25,0-.49.06-.67,0,0,.08-.3.06,0,0,0,0,.11,0,.21l0-.13c0,.46,0,.15-.09.49.07-.14.16-.52.19-.38-.05.45-.11.14-.1.54l0-.18c0,.72,0-.05-.07.71.06.14.11-.22.17-.08,0-.25,0-.37.08-.61.15-.44,0,1.13.1.54.06-.29.13-.86.15-.55l-.08.5c.07.06.13-.72.16-.37,0,.19-.07.16-.07.22,0,.41.07-.28.11-.28l0,.45c.08-.06.2-.38.3-.45a2.7,2.7,0,0,0-.05.41c.14-.21.23.08.31.36l.08-.38a.84.84,0,0,1,0,.25c0,.15,0-.25.06-.4s0,.23,0,.34c.11-.32.29-.68.32-.26l0,.11c0,.17.15-.78.17-.41l0,.06c.11.18.29-.15.32.44.08-.55.1.26.2-.51a3.54,3.54,0,0,0,.07.8s.09-.48.13-.56l0,.41.09-.43,0,.49,0-.1a1.06,1.06,0,0,1,0-.3c.07-.18.09.3.06.51l.16-.34a2.34,2.34,0,0,1-.07.32c.11-.4,0,.43.06.06a3.11,3.11,0,0,1,0-.32c0,.24.07.25.13.16l0,.28c.08.08.2-.12.3-.1a2.55,2.55,0,0,1,.07-.67l0,.44a2.41,2.41,0,0,1,.06-.49,2.23,2.23,0,0,1-.07.63l.06-.15c0,.13,0,.2-.05.36.05-.26,0,.44.11,0v.13c.1,0,.16-.13.24-.14a3.24,3.24,0,0,1,.12-.58c.05.12.08.42.15.4a3.73,3.73,0,0,0,.1-.54c0,.34,0,.32,0,.56.09-.05.11-.06.25-.32a1.62,1.62,0,0,1,0-.32c0-.05,0,.15,0,.31v0c.17-.5.17,1,.34.32v0l.14-.35c0,.06,0,.25,0,.46.17-.55.16.1.29-.26,0,1,.25-.05.27.6l0-.24c0-.22,0,.14,0,.2,0-.19,0-.22,0-.34.24-.26.39.39.57.62.07.07.18-1.21.21-.64l-.07.43c.21-.5.31.06.51-.37a1.45,1.45,0,0,1,0,.23c0,.32.11,0,.14-.23a2.88,2.88,0,0,1,0,.36c0,.19.13-.39.11-.08a.31.31,0,0,1,0,.13c0-.15.09.05.11-.32,0,.18.13-.15.15.07.07-.4.07.21.15-.37-.07.6,0,.5.11.22,0,.18,0,.19,0,.44,0,0,.09-.11.12-.42,0,.72.21-.56.15.36a2.59,2.59,0,0,1,.42-.64c-.07.6-.13.05-.19.67.13-.23.24-.74.33-.58a1.23,1.23,0,0,1-.06.36c.12-.24.19.07.32-.24l0,.16s0,.09.06-.18l0,.07a7.91,7.91,0,0,1,.19-1c-.12.77.07.21-.09,1.18a1.69,1.69,0,0,0,.07-.36,1.25,1.25,0,0,1,0,.37c.08-.14.09-.43.15-.42a2.33,2.33,0,0,1-.06.33c.06-.25.12-.5.16-.38s0,.18,0,.17.22-.66.28-.4c-.09.56,0,.19,0,.68l.07-.14v-.24s.12-.34.14-.18l-.06.2.1-.08,0-.2c.07-.24.06-.62.11-.48s0,0,0,.31h0c0-.15.08-.32.1-.19s-.07.54-.07.65c.06-.41.11-.11.19-.54a4.09,4.09,0,0,0,0,.41l0-.33a1.28,1.28,0,0,1,0,.37c0,.07,0-.63.09-.35,0,0,0,.07,0,.12s.17-.19.22,0c0,.5-.08.11-.1.53.11-.07.27-.57.35-.44v-.06c.09-.7,0,.36.11,0a1.27,1.27,0,0,0,0,.31c.05.12.15-.16.27-.37l0,.18c0,.17.08.11.12.19a1.71,1.71,0,0,0,.06-.41c0,1,.3-.52.32.35a.42.42,0,0,0,0,.15l.12-.15c0-.31,0-.19,0-.43s.07-.32.1-.31a2.17,2.17,0,0,0-.06.66c0-.1,0-.2,0-.29,0,.54.07-.62.1-.24l0,.16c0-.08.08-.29.1-.24,0,.35,0,.16-.08.45,0,0,.15-.66.15-.31,0,.1-.05.1-.08.2,0,.41,0,.31,0,.38h0l0,.19v-.11c.15-.92.12-.16.25-.75a3.06,3.06,0,0,0-.1.72,1.45,1.45,0,0,1,0,.36c.06-.32,0,.25.12-.21a2.2,2.2,0,0,1,0,.34c0-.1,0-.23,0-.39.11-.43.09.55.24,0,.11-.24.17-.68.26-.88a2.16,2.16,0,0,1-.07.46c0,.2,0,.16.1,0a1.89,1.89,0,0,0,0,.35s.07-.46.08-.27,0,.37-.08.52c0-.12.11-.36.15-.47a2.25,2.25,0,0,1-.08.48,1.24,1.24,0,0,0,.17-.54v-.13a1.45,1.45,0,0,1,0,.37c-.07.27,0-.13,0-.26l0-.08c.06-.76-.12.11-.16.06l.08-.54-.1.45a2.61,2.61,0,0,1,.06-.54c0-.27,0,.2,0-.11a.78.78,0,0,1,0-.09l0,.15c0-.11,0-.38,0-.3,0-.33-.15.4-.13,0v0c-.11.17-.05.4-.17.86l.06-1-.05.4s0-.05,0-.21c-.06.27,0,.17-.06.43,0-.37-.14.16-.08-.48,0,.3,0,.24-.06.45.07-.69-.06.11-.07-.21s.07-.16.06-.49c-.09.6-.06-.14-.11,0,0,.48-.09.2-.17.35,0-.16-.07-.27-.11-.45v-.08c-.06.48-.11.38-.16.48a4.89,4.89,0,0,1,.09-.53h0a.78.78,0,0,1-.07.29l0-.36c-.06,0-.15.42-.19.17a7.08,7.08,0,0,1-.14,1.16,4.89,4.89,0,0,1,.07-.57s0,.15,0,.07l.06-.3c0-.14,0,.25-.06.22,0-.26,0-.18,0-.39,0,0,0,.11,0,0a1.29,1.29,0,0,1,0-.41,1.64,1.64,0,0,1-.06.38c-.05,0,0-.31,0-.45,0,.18,0,0-.08.38a1,1,0,0,1,0-.29c-.05.17-.13,0-.15.45v.05h0c-.13.37-.15-.24-.25-.09v-.13c-.07.15-.12.08-.19.36a1.51,1.51,0,0,1,0-.4c0,.09-.07.24-.1,0s0-.2.05-.16c0-.12,0-.33-.11,0,0-.33,0-.43,0-.33v.24c0,.05,0,0-.07,0l.06-.44c-.05-.55-.29.89-.26,0-.07.3,0,.22,0,.57a6,6,0,0,1,0-.7c0-.25-.13.64-.18.46a3.38,3.38,0,0,1-.11.72,2.68,2.68,0,0,1,.05-.78s0,0,0,.09a.73.73,0,0,0,.05-.3l0,.16c0-.16-.08-.15,0-.41a.61.61,0,0,0,0,.34c0-.23-.09,0-.14-.17a1.47,1.47,0,0,1,0,.27c-.07-.21-.07.29-.14.35,0-.24.08-.57,0-.38a1.86,1.86,0,0,1,.07-.54c-.09.3-.08-.21-.11-.27l0-.12c0,.07,0,.07-.05.07l0,.31a.33.33,0,0,1,0-.19c0,.21,0,.52-.11.8,0-.16-.09.16,0-.25.06.15,0-.42.1-.48s0,0,0,0a.27.27,0,0,1,0-.11c0-.38-.08.46-.15.45,0-.24,0-.45,0-.4a1.89,1.89,0,0,1-.08.57c0-.19-.06.13-.08.1l0,.09c0,.24-.06.2-.1.27,0-.18,0-.12,0-.2-.08.41,0-.44-.11-.16,0-.17,0-.44,0-.55-.09.29,0-.33-.11-.09a2,2,0,0,1-.08.55l.12-.22-.11.46s.08-.2.09-.14a2.12,2.12,0,0,0-.06.44c0-.48-.11.26-.12-.06l.09-.78c0-.35-.17.39-.24.18l0,.14c0,.31-.06,0-.11.16a3.66,3.66,0,0,0,0-.52c0,.19-.06,0-.13.49V28c-.06-.15-.17.73-.23.63a6,6,0,0,1,.11-.66s0-.06-.06.12c0-.16-.1.35-.09.1a2.29,2.29,0,0,1-.08.36,1.09,1.09,0,0,1,0-.13,2.81,2.81,0,0,0-.07.46c0-.82-.21,0-.19-.67a.54.54,0,0,1-.18.17c0-.07,0-.13,0-.1,0-.25-.13.75-.17.47,0-.43.07-.23.06-.39.08-.86-.1.11-.1-.4l0,0c0-.29-.13.32-.18.25a1.09,1.09,0,0,0,0-.13,1.9,1.9,0,0,1-.25.69,4.63,4.63,0,0,0,.07-.52,4.68,4.68,0,0,1-.12.64c0-.19,0-.35,0-.72h.05c0-.48-.06,0-.08-.08l0-.2c-.09.06-.15.57-.22.53v.15c-.1.51,0-.29-.09.09l0-.52a4.37,4.37,0,0,1-.22.58,5.68,5.68,0,0,1,.22-.8s-.11,0-.15.28c0,0,0-.17,0-.09-.08.41-.15.6-.21.59.12-1-.12-.27-.08-1.06-.14.36-.19-.18-.32-.14,0,.79,0,0-.11.83,0,.05,0,0,0,0l0-.49c0-.24,0-.18.07-.36s0-.34,0-.56c0,.29-.06.41-.09.3v.37c-.13.42,0-.68-.13-.27l0-.25c-.06.15-.16,0-.27.62a1.4,1.4,0,0,1,0-.37c-.1-.11-.31.66-.35.26l0-.2c0,.05-.08.37-.08.17a1.11,1.11,0,0,0,0-.21c0,.06-.09.34-.1.22l0-.22c-.07-.27-.21.52-.32.65a2,2,0,0,0,0-.88V27c-.12-.09-.26.46-.4.67,0-.63-.2-.29-.27-.65a3.22,3.22,0,0,1-.08.51c0-.12-.12.39-.06-.14h0c0-.52,0-.39-.07-.41l-.08.7c0-1-.33.34-.29-.58-.05.17-.08.17-.13.34l0-.37c-.07-.11-.1-.16-.2-.08l0-.26s-.18,1.07-.23,1.08l0-.56c-.09,0-.12-.5-.27,0a1.08,1.08,0,0,1,.05-.26s-.12-.4-.19.37c.06-.5-.08-.06-.16.15l0-.36a2.48,2.48,0,0,1-.18.71c0-.05,0-.29,0-.2,0-.19-.07.35-.11.15l0-.24s0,.1-.11.37-.08-.1,0-.44c0,.2-.08.47-.1.37a1.41,1.41,0,0,1,0-.24c0-.25-.16.42-.17.05,0-.12,0-.18,0-.22s.11,0,.1.07a6.93,6.93,0,0,1,.09-.87c-.07.25-.2.8-.23.64a.53.53,0,0,1,0-.12v0s0,0,0,.05,0-.1,0-.1c0-.29,0-.16-.06-.18a3.91,3.91,0,0,0-.07.62.07.07,0,0,1,0-.06s0,0,0,0v0l.06,0c0,.18-.08.34-.08.13l-.1.6c0-.52,0-.81,0-1.13a1.38,1.38,0,0,0-.31.81c0,.09,0-.2,0-.31a1,1,0,0,0,0-.16c-.06.17-.14.06-.2.54,0-.22.08-.44,0-.37l0-.15c-.06-.79-.37,1.22-.42.2v.17c-.14-.46-.43.38-.53-.34,0-.15-.08.16-.14.39l0-.4-.11.46c-.11.33,0-1-.19-.37l0,.27c0-.05-.13.15-.09-.16,0,.05,0,.28,0,.14l0-.21-.13.34c0-.15.1-.82,0-.87a3.41,3.41,0,0,0-.17.73,1.14,1.14,0,0,1,0,.35l0,.1a10,10,0,0,0-.14,1.68l.1-.37,0,.3h0c0,.29,0,0,.07-.13,0,.16,0,.27,0,.33l.12-.58a3,3,0,0,0,0,.61c0-.27,0-.54.09-.71,0,.28,0,.51,0,.27a1.53,1.53,0,0,1-.05.33c.05-.19.09-.07.14-.4,0,.35.1-.08,0,.5a2.64,2.64,0,0,1,.13-.47c-.12.69.09.05,0,.8.1-.62.16-.27.26-.61,0,0,0,.15,0,.12a1.83,1.83,0,0,1,0,.37,6.25,6.25,0,0,1,.19-.95c0,.51-.09.61-.13,1.09,0-.42.12-.41.14-.76a4.24,4.24,0,0,1,0,.58c.08-.65,0-.11.12-.5,0,.32-.06.61,0,.41A1.42,1.42,0,0,1,37.86,30.55Zm1.35-1h0l0,0Zm.11,0,0,0a.81.81,0,0,1,0-.25A1.26,1.26,0,0,0,39.32,29.57ZM39.38,27c0-.05,0,0,0,.1s0,0,0,0v0Q39.36,27.06,39.38,27Z"/><path class="cls-1" d="M39.3,27.46v.11l0-.11Z"/><path class="cls-1" d="M48.63,29h0v0Z"/><polygon class="cls-1" points="40.67 30.44 40.68 30.35 40.66 30.43 40.67 30.44"/><path class="cls-1" d="M49.06,30.38v0Z"/><path class="cls-1" d="M49.3,30.49l0,.13A.7.7,0,0,0,49.3,30.49Z"/><path class="cls-1" d="M49.47,30.69a1,1,0,0,0,0-.16h0Z"/><path class="cls-1" d="M46.41,30.8h0C46.37,30.88,46.39,30.86,46.41,30.8Z"/><path class="cls-1" d="M47.4,30a1.22,1.22,0,0,1,0,.17S47.38,30.24,47.4,30Z"/><polygon class="cls-1" points="45.36 31.13 45.36 31.13 45.35 31.13 45.36 31.13"/><path class="cls-1" d="M47.31,30.19c0,.08,0,.06,0,0S47.33,30.14,47.31,30.19Z"/><path class="cls-1" d="M50.27,31v0a.35.35,0,0,1,0-.06Z"/><path class="cls-1" d="M50.29,30.91v0S50.3,30.87,50.29,30.91Z"/><path class="cls-1" d="M50.34,30.77l0,.1S50.32,30.88,50.34,30.77Z"/><path class="cls-1" d="M50,30.75l0,.14A1.13,1.13,0,0,0,50,30.75Z"/><path class="cls-1" d="M50,30.78s0,.29,0,.21v-.1C50,31.09,50,30.56,50,30.78Z"/><path class="cls-1" d="M49.83,29.09l.05.11a1.07,1.07,0,0,1,0-.37C49.89,28.39,49.9,29.15,49.83,29.09Z"/><path class="cls-1" d="M49.65,28.86a.92.92,0,0,0,0-.29A.7.7,0,0,0,49.65,28.86Z"/><path class="cls-1" d="M48.22,28.7l0-.34A1.21,1.21,0,0,0,48.22,28.7Z"/><polygon class="cls-1" points="47.75 30.41 47.76 30.62 47.8 30.32 47.75 30.41"/><polygon class="cls-1" points="47.85 27.99 47.87 27.94 47.81 28.06 47.85 27.99"/><path class="cls-1" d="M45.44,27.85l0,.41C45.42,28.19,45.48,27.72,45.44,27.85Z"/><path class="cls-1" d="M44.35,28.15c0-.2,0-.34,0-.14C44.33,28,44.33,28.21,44.35,28.15Z"/><polygon class="cls-1" points="41.31 27.14 41.35 27 41.3 27.11 41.31 27.14"/><path class="cls-1" d="M98,56c0,.09.17.16.28,0,0-.1-.08-.2-.11-.3Z"/><path class="cls-1" d="M99.34,55.41c.11-.23.26-.55,0-.71-.09.33-.2.28-.23.68-.15.12-.33.13-.37,0,0,.1-.29.16-.25.37a1,1,0,0,0,.76-.53C99.35,55.26,99.32,55.36,99.34,55.41Z"/><path class="cls-1" d="M103.51,43.55v.12A.24.24,0,0,0,103.51,43.55Z"/><path class="cls-1" d="M100.64,32.75c0,.08.06.11.09.1S100.66,32.72,100.64,32.75Z"/><path class="cls-1" d="M100.44,30.82v.12A.15.15,0,0,0,100.44,30.82Z"/><path class="cls-1" d="M103.51,43.55v-.31C103.41,43.24,103.49,43.4,103.51,43.55Z"/><path class="cls-1" d="M101.53,53.9a.58.58,0,0,0-.15.11l.15-.06Z"/><path class="cls-1" d="M105.17,48.18l0,.09.13,0Z"/><path class="cls-1" d="M106.39,51.76c0-.08-.25,0-.36,0a.27.27,0,0,1,.21.13A.42.42,0,0,0,106.39,51.76Z"/><path class="cls-1" d="M102.56,54.66l-.1.06Z"/><path class="cls-1" d="M104.41,45.59a.14.14,0,0,0,.07-.06A.13.13,0,0,0,104.41,45.59Z"/><path class="cls-1" d="M98.4,52.2h0S98.41,52.23,98.4,52.2Z"/><path class="cls-1" d="M98.56,56.73l0,0-.13,0Z"/><path class="cls-1" d="M99.81,27.37h0C99.86,27.46,99.84,27.41,99.81,27.37Z"/><path class="cls-1" d="M84.77.28c.47,0-.56.52.12.5C84.79.71,85.34.24,84.77.28Z"/><path class="cls-1" d="M101.64,53.91l.15,0A.39.39,0,0,0,101.64,53.91Z"/><path class="cls-1" d="M84.89.78Z"/><path class="cls-1" d="M97.4,19.64a.3.3,0,0,0-.07.11S97.37,19.71,97.4,19.64Z"/><path class="cls-1" d="M98.8,25.51v-.15A.66.66,0,0,0,98.8,25.51Z"/><path class="cls-1" d="M96.11,16.76a.31.31,0,0,0-.06-.21.06.06,0,0,0,0,0A.18.18,0,0,1,96.11,16.76Z"/><path class="cls-1" d="M95,13.69l0,.08.05.09Z"/><path class="cls-1" d="M95.63,42.78a1.12,1.12,0,0,1-.17.2C95.61,42.88,95.79,43.33,95.63,42.78Z"/><path class="cls-1" d="M101.56,54a.14.14,0,0,1,.08-.12l-.11,0S101.53,54,101.56,54Z"/><path class="cls-1" d="M94.31,17.24l-.14-.5A3.82,3.82,0,0,0,94.31,17.24Z"/><path class="cls-1" d="M89.32,20.33l.07.11A.14.14,0,0,0,89.32,20.33Z"/><path class="cls-1" d="M93.64,15.33A.83.83,0,0,0,93.7,15s0,0-.08,0Z"/><path class="cls-1" d="M95.46,43Z"/><path class="cls-1" d="M96.89,46.09c-.13-.47-.35-.14-.55-.19-.24-.54.14-.32.24-.55-.17-.33-.52-.53-.58-.79,0,0,0-.09.13-.05-.34-.31-.31-1.1-.73-1.46a.14.14,0,0,1,.06-.07.73.73,0,0,1-.39.17c-.06-.21-.3-.34-.12-.47,0,.13.11.12.18.16l-.14-.2c.23-.27.18.28.39.23-.21-.41-.58-.86-.59-1.21.26-.14.3.75.43.24l0,.55c.33-.51,0,.32.42-.17-.1-.69-.34-.72-.44-1.41-.19-.12-.21.11-.41,0-.52-.88.5-.93-.06-1.54-.23-.14-.59-.12-.54-.67l.35.09c-.14-.66-.54-.26-.51-1,.15.09.24.49.25.38.13-.51-.26-.27-.35-.61l.26-.15c-.23-.68-.63-1.4-.88-2.17.09,0,.21.14.25-.07A10.52,10.52,0,0,1,93,32l-.34-.3c0-.08.07-.18.14-.1,0-.4-.16,0-.3-.13s.06-.32.17-.2a5.14,5.14,0,0,1-.87-2.48l.11.11c-.06-.56-.65-.47-.57-1l.07.08c-.22-1.18-.82-2.38-.72-3.37-.38-.06-.2-1.18-.69-1.11A4.65,4.65,0,0,0,90,22c-.06-.26-.41-.28-.55-.56l.24-.09-.4-.33.23-.31-.16-.26c0,.11,0,.27-.11.28-.26-.41-.19-1.14-.06-1.19l-.56-1c.11,0,.2.15.31.27-.44-.47.22-.19-.18-.62,0,.09-.16,0-.21,0a2.56,2.56,0,0,0-.36-1.29l.2,0c-.24-.79-.65-1.6-1-2.46,0,.33-.27.37-.4.13l.22-.2c-.22-.1,0,.3-.32,0-.09-.33.21-.33.37-.17l-.24-.36c.07,0,.14,0,.25,0-.22-.1,0-.77-.36-.9L87,13c-.33-.86-.55-1.22-.85-1.91-.22.08-.28-.22-.54-.35A10.1,10.1,0,0,0,85.19,9c-.28-.39-.24,0-.44-.2.18-.11-.08-.72.19-.45a10.59,10.59,0,0,0-1-1.79c0,.14,0,.27-.11.23s-.08-.41,0-.43l0,0a4,4,0,0,1-.58-1.75c0-.18,0-.19.1-.25s0,0,0-.07A2,2,0,0,0,83.51,4V4a6.75,6.75,0,0,1,.24-.8c.25-.27,0,.27.26.14a1.15,1.15,0,0,1,.25-.52,1.18,1.18,0,0,1,.35-.29,5.3,5.3,0,0,0,.73-.47c.34.2.69.1,1.15.06a1.81,1.81,0,0,1,1.33.25V2.22c.23-.1.22.14.35.21,0-.12-.18-.19,0-.23l.16,0h.16c.07,0,.07.12.11.18.17.43.35.9.5,1.35L90,6.55c.24.66.86.06.88,1l-.35-.13c.87,1.17,1.11,2.68,1.88,3.86-.09-.05-.17,0-.22-.15-.08.35.39,1,.54,1,.07.2-.12.1-.14.25,0,.31.49.6.36.81,0,0-.09-.05-.12-.1.16.15.29.85.44.6.08.52.44.89.46,1.33.34.17.19.88.55.84-.36.09,0,1,.29,1.22-.15-.07,0,.3-.21.23.12.36.3.66.46.53-.2.8.79,1.21.36,1.76a25.4,25.4,0,0,1,1.34,2.89c-.37.07-.35-1.06-.72-.9a8.46,8.46,0,0,1,1.07,2.23c0,.25-.19-.08-.28-.14.43.86.48,1.78.91,2.54,0,0-.1-.07-.15-.15.06.16.05.39.21.33l-.09-.15c.17-.32.69.5.82.5-.55-.15.11.84-.61.57.06.1.17.21.28.15,0,.17,0,.24-.21.11.24.56.36.3.5.83-.08,0-.14-.08-.25-.11a1.39,1.39,0,0,1,.51.91s-.1.06-.14-.08c.24.76.77,1.19.85,2.07-.42-.15,0,.32-.33.44l.21.43.1-.22c.1.39.41.68.4,1.05l-.2-.26.26.72V32.9c.26.35.37-.15.43.4-.06-.1.1.39,0,.65h0a.92.92,0,0,1,.31.65c-.07.1-.35,0-.4.1.31.12.32.9.66,1.07a.27.27,0,0,0-.27,0l.24.11c0,.2,0,.24-.17.24.12.56.33-.28.35.42,0,0,0,0-.11-.11.09.68.47,1.23.54,1.86-.25.26-.22-.51-.42-.24a22.91,22.91,0,0,1,1,2.56l0-.17c.46,0,0,.69.29,1-.06-.09-.27-.07-.22,0a8.33,8.33,0,0,0,.84,2l-.14-.08a10.22,10.22,0,0,0,.27,1.29c.14.07.19.28.31.11-.29,1.31,1,2,.78,3.18,0-.11-.18-.25-.15-.15l.36.81c.17-.13.08-.15.17-.37a.92.92,0,0,1,.37.49c-.25-.34-.3.1-.35.3,0,0,.13,0,.18,0-.19.54.39-.05.36.62h-.1a2.48,2.48,0,0,1,.37.63c-.18.17-.18-.21-.36-.17.12.34.62.54.51.92-.1-.13-.17-.33-.28-.46a.94.94,0,0,0,0,.7v0l.08.61,0-.17c.7.26.38.82.93,1.26-.54-.48-.24-.06-.52-.11,0,.09-.1.18-.19.14.14.08.11.14.1.18s0,.08.21.3a.5.5,0,0,1-.35-.14c-.08.07.2.12.32.21s-.34.09-.57,0a.93.93,0,0,0-.33,0,1.48,1.48,0,0,0-.59.2c-.69.25-.79.54-1.41.78-.24-.09.13-.32.13-.32a1.43,1.43,0,0,0-1,.17c0-.08,0-.13-.15-.19s-.12.32-.5.3a1.08,1.08,0,0,1,.19-.39c-.31.16-.58.38-.88.56-.14-.1.13-.26.22-.39-.36.17-.93.46-1,.72l.26,0c-.12.06-.14-.15-.06-.23.26-.29.49-.09.53,0a1.48,1.48,0,0,0-.21.13c.38.36.88-.38,1.38-.45l-.12.38.41-.39c.12.07.23.25,0,.35.37.1.27-.18.59,0,0,0,0,0,0,.06l.31-.15c-.05.08.09.23-.12.21.61.11.91-.39,1.16-.16l0,0c.8-.21,0-.26.62-.63a3.57,3.57,0,0,0,.54.57,1.09,1.09,0,0,0,0-.26c.1,0,.3,0,.31.1.28-.21-.11-.1,0-.28a1.79,1.79,0,0,0,.83,0,1.62,1.62,0,0,1,.38,0c.06,0,.07-.08.21,0-.3-.3-.06.29-.39-.26.26.09.19-.08.07-.27s-.26-.39-.22-.58c.29.14.31.58.38.15a.68.68,0,0,1-.32-.61c0-.27,0-.47-.08-.61-.29.08-.34-.61-.6-1.08.11,0-.16-1-.2-1.5h0c-.32,0-.42-.5-.59-.83.18,0,.27,0,.41.16l-.11-.33a.61.61,0,0,1-.3-.34h.25a4.3,4.3,0,0,1-.58-1.42c-.21,0-.42.63-.75.08.1-.06.29-.14.38,0,0-.05-.15-.15-.13-.27l.26.18c0-.28-.2-.09-.25-.3.16,0,.07-.19.2-.2s0,.2.08.26a1.07,1.07,0,0,1,0-.68.18.18,0,0,1-.28-.1c-.15-.44.14-.21.14-.49-.14-.07-.11-.39-.35-.33,0-.13.07-.18.12-.25-.18-.2-.35-1.07-.53-.73v.06l0,0h0c-.46-.68-.34-1.6-.65-2.32l.08,0a6.34,6.34,0,0,0-.6-1.25c0-.14.06-.36.17-.33a1.34,1.34,0,0,1-.27-.87c.24.31.09-.15.2.33-.06-.46,0-.6-.31-1,.25.11.17-.4,0-.6l-.06.35a2.83,2.83,0,0,1-.18-.66l.3,0c.08-1-1-1.48-.65-2.33-.25-.19,0,.53-.27.38-.08-.43.19-1,.15-1.11,0-.61-.54-.43-.6-1.06-.07.11-.31.25-.52-.18s.26-.62.41-.38,0,.16,0,.16.16.3.22.1l-.11,0c0-.23-.13-.81.07-.71-.18-.3-.2-.1-.18.15,0-.58-.23-.84-.28-1.42,0,.1-.12.21-.14.12-.1-.84-.28-.31-.47-.85.06-.35.38,0,.1-.5,0-.37.24-.14.35,0-.32-.45-.13-1-.18-1.28l.15.25a1.64,1.64,0,0,1-.16-.41l-.15.2c0-.16,0-.3,0-.31-.17-.13-.29.21-.54-.07,0-.23-.28-.61,0-.75.1.68.24-.14.43.41a.87.87,0,0,1-.1-.4s.06,0,.08.05c.06-.7-.36-.21-.54-.87.17.05.23-.22.17-.32.07.26-.2.19-.38,0,0-.45-.21-.43-.26-.65l0,.26c-.17,0-.21-.26-.33-.53.1-.06.15.24.17.12-.35-.25,0-.8-.25-1.2,0-.24.27-.1.28-.3-.33-.45,0-.61-.28-1.09-.14.21-.09.22-.39-.1l.4.83L98,23c.08.26.29.51.3.68-.23-.22-.18-.2-.3,0,.18-.45-.38-.66-.31-1.14l.48-.12c0-.69-.56-1-.7-1.88v.28c-.22-.05-.19-.49-.35-.72.17,0,.17-.21.24-.35-.12.05-.18-.6-.52-.57l.09-.43c-.12-.68-.68-.59-.84-1.23.24.13.25-.19.51.19-.06-.21-.1-.41-.21-.37.06-.16-.41-.51-.32-.75-.1-.06-.28,0-.34-.27a.07.07,0,0,1,.07,0c-.07,0-.23-.32-.33-.06.28-.81-.66-1.76-.45-2.46-.22-.43-.47-.95-.63-1.36.06,0,.08,0,.09.06-.06-.62-.56-.18-.65-.87.12-.42.26.28.28,0,.47-.28-.37-.73-.25-1.27l.07.09c0-.4-.51-.72-.68-1.27a.08.08,0,0,0,.08,0,4.59,4.59,0,0,1-1.06-1.38c.26.08.2.19.36,0-.12-.22-.29.2-.54-.23,0-.19,0-.56.19-.69l.2.42c.18-.33-.25-.55-.3-.79l.14,0c-.32-.64-.63-.51-.91-1.23l-.06.12c-.46-.26,0-.4-.36-.68l.25-.25a10.47,10.47,0,0,1-.95-1.17,4.77,4.77,0,0,1,1,.89c-.11-.25-.4-.83-.61-.9.07.09.2.18.2.3a2,2,0,0,1-.89-1c.31-.1.21-.4,0-.84l-.18-.44L89.7,1l0-.12a.25.25,0,0,0-.09,0A1.5,1.5,0,0,1,89,.44L88.52.38,88.13.31,87.34.14A4.4,4.4,0,0,0,85.48.07c.56.41-.38.09-.18.59-.27.1-.37.14-.41.12a4,4,0,0,0-1,.13c-.28,0,.2-.25.12-.34-.64.34-.38,0-.86.15.2.09-.06.34-.38.59a2.84,2.84,0,0,1,.58-.2c-.52.82-1,.27-1.33,1.21L82.13,2c-.13.22-.36.6-.55,1a1.92,1.92,0,0,0-.11.31l-.14.44c-.06.3-.15.52,0,.68s-.1.28-.26,0c.07.2.16.41.26.63l.15.32.1.17.42.68a3,3,0,0,1,.56,1.27l-.15,0c.11.16.34.21.31.47,0,0-.14,0-.11.06s.39.36.41.61l-.21-.13c.22.94.87,1.23,1.25,2-.35.13-.18.87-.09,1.24h-.06a16.05,16.05,0,0,0,1.47,2.57c-.15.74.6,2.09.73,3.14,0-.17.27-.07.37.09s.46.54.13.62l0-.08c-.25.28,0,.71.12,1.08l.44-.08c-.29,1.17,1.06,2.45.68,3.15.18.2.27.49.45.69l-.23.06a9,9,0,0,0,.52,1.78l-.22-.12c.13.46.83.37,1,.79l-.3.23a6.38,6.38,0,0,0,.71,2.37.2.2,0,0,1-.21-.12c.1.38.17,1.51.6,1.24-.3.1.2.83.45,1.23h-.24c.39.29.47.28.69.76,0,.13-.15.16-.14,0,0,.44.3.26.31.78L91,31.65c.09.42.16.37.39.55s.15.8,0,.92a.49.49,0,0,1,.37.46c-.06.05-.14,0-.17-.06,0,.73.53,1,.43,1.49a.18.18,0,0,0-.11.12,6.3,6.3,0,0,1-.21-1c-.21,0-.13.51-.51.23.25.32.75.84.76,1.3a.15.15,0,0,1,0,.07l0,0a.5.5,0,0,0,.11.27,1.5,1.5,0,0,0,0,.37c-.16.1,0,.54.09.76.22-.08.26.22.38-.1,0,0,0,0-.09-.18a.26.26,0,0,0,0-.09h0l-.16-.54a.56.56,0,0,1,.24.58,4.05,4.05,0,0,1,.45.21c-.24.39-.26,1-.43,1.15.3.65.5,1.58,1,1.89.11.18-.06.25-.11.34-.07-.1-.1-.23-.18-.27.21.35.34,1.13.67,1.14,0,.52-.35-.2-.13.45l-.11-.06c-.13,1.44,1.33,1.92,1.11,3.54,0-.11,0-.16.06-.2.19,1.73,1.19,3.34,1.24,5.09.05.48.26.48.48.72l-.21.17.42.4c.41.62-.26,1.36.4,2.11l.13-.16c.06.32.39,1,.19,1,0,0,.2.05.15.19l-.12.05.45.7c.08.61-.53.06-.3.93.15.3.65.8.7.65s0-.36.1-.4l.15.27c.39-.07.84,0,.88-.76L99,55.5l.13-.22.14.42c.1-.3-.1-.4-.25-.54a.35.35,0,0,0,.13-.27l-.5-.38c.13-.1.36.13.34-.22-.24-.18-.26.32-.49,0,.1-.29.26-.26,0-.5.08-.06.16,0,.24.08-.19-.22-.25-.65-.49-.72.13-.31-.31-.82,0-.91a1.47,1.47,0,0,1-.49-.58c.55.3-.22-.87.26-.89-.47-.2-.49-1.07-.86-1.56,0,0,.11.06.11.12a1.91,1.91,0,0,1,0-.66c-.32,0-.53-.42-.8-.62.2-.47.44.13.69-.08-.25.09-.44-.59-.61-.4.1-.34,0-.27.24-.5-.41.06-.14-.25-.45-.42.07-.48.33-.21.09-.64C96.63,45.72,96.89,46.09,96.89,46.09ZM93.26,35.21h0l.07.23ZM93,34.28c0,.12.06.26.1.41s-.16,0-.18-.06S93,34.44,93,34.28ZM92,36.67c-.07-.14,0-.21,0-.24s.05.15.09.25h0A.3.3,0,0,1,92,36.67Z"/><path class="cls-1" d="M92.32,36.85a.33.33,0,0,1,0,.06.22.22,0,0,0,0-.1l-.08,0Z"/><path class="cls-1" d="M103.51,43.69v0s0,0,0,0S103.51,43.7,103.51,43.69Z"/><polygon class="cls-1" points="89.77 21.32 89.72 21.34 89.8 21.41 89.77 21.32"/><path class="cls-1" d="M104.31,49s0,0,0,.08S104.3,49,104.31,49Z"/><path class="cls-1" d="M105,51.2l0,.33A1.37,1.37,0,0,0,105,51.2Z"/><path class="cls-1" d="M105.36,52.74l.12,0h-.12Z"/><path class="cls-1" d="M97.32,26.05l0-.06C97.21,25.85,97.25,26,97.32,26.05Z"/><path class="cls-1" d="M100,34c-.06-.08-.12-.15-.17-.23C99.88,33.86,99.9,34,100,34Z"/><polygon class="cls-1" points="94.32 17.29 94.33 17.29 94.31 17.24 94.32 17.29"/><path class="cls-1" d="M99.76,33.34a.65.65,0,0,0,.1.38A1,1,0,0,0,99.76,33.34Z"/><path class="cls-1" d="M99.91,54.37l-.09,0a.08.08,0,0,1,0,0Z"/><path class="cls-1" d="M99.83,54.43l-.09.07C99.79,54.48,99.82,54.46,99.83,54.43Z"/><path class="cls-1" d="M99.57,54.64l.17-.14C99.67,54.52,99.58,54.56,99.57,54.64Z"/><path class="cls-1" d="M102.32,53.83v-.09A.22.22,0,0,0,102.32,53.83Z"/><path class="cls-1" d="M103,53.69c-.18,0-.46-.12-.7,0v.07C102.43,53.59,102.9,53.85,103,53.69Z"/><path class="cls-1" d="M106.5,54.33l-.8,0c.18.07.47.16.11.23C107.07,54.7,105.46,54.41,106.5,54.33Z"/><path class="cls-1" d="M106.48,52.41c.19.42.13,0,.19,0C106.49,52.12,106.45,52.08,106.48,52.41Z"/><path class="cls-1" d="M102.53,39.65l.21,0C102.65,39.4,102.66,39.64,102.53,39.65Z"/><polygon class="cls-1" points="100.78 37.5 100.72 37.77 100.94 37.82 100.78 37.5"/><polygon class="cls-1" points="101.85 35.65 101.91 35.74 101.72 35.37 101.85 35.65"/><path class="cls-1" d="M95.41,14.17l-.22.16C95.29,14.47,95.58,14.4,95.41,14.17Z"/><path class="cls-1" d="M91.55,5.26a.42.42,0,0,0-.14-.53C91.49,4.93,91.48,5.18,91.55,5.26Z"/><polygon class="cls-1" points="86.96 19.55 86.82 19.4 87 19.72 86.96 19.55"/><path class="cls-1" d="M107,54.37c0-.07,0-.23,0-.2l-.06.27Z"/><path class="cls-1" d="M106.74,53.84a1.12,1.12,0,0,0-.14.61c.08-.26.08-.15.17-.46,0,0,.08.1.07.2,0-.07.07.06.11-.11s-.13-.23-.23-.06A.52.52,0,0,1,106.74,53.84Z"/><path class="cls-1" d="M101.79,53.67l0,0A0,0,0,0,0,101.79,53.67Z"/><path class="cls-1" d="M98.87,54.87s0,0,0-.07S98.85,54.85,98.87,54.87Z"/><path class="cls-1" d="M98.12,55.06l0,0S98.11,55,98.12,55.06Z"/><path class="cls-1" d="M101.79,53.67l-.11-.06C101.7,53.69,101.74,53.66,101.79,53.67Z"/><path class="cls-1" d="M106,54.45a.1.1,0,0,0,0-.07l0,0Z"/><path class="cls-1" d="M103.13,53.16h0V53Z"/><path class="cls-1" d="M104.2,53a1.73,1.73,0,0,0,0,.33c0-.1,0-.15,0-.16A1.28,1.28,0,0,0,104.2,53Z"/><path class="cls-1" d="M105.86,53.49l0,0Z"/><path class="cls-1" d="M102.34,53.24a.22.22,0,0,0,0-.08Z"/><path class="cls-1" d="M105.52,54h0Z"/><polygon class="cls-1" points="106.83 52.99 106.84 53.01 106.97 53.04 106.83 52.99"/><path class="cls-1" d="M96.78,56.1h0S96.78,56.07,96.78,56.1Z"/><path class="cls-1" d="M103.09,63.39c.07-.22.3-.09.36-.36C103.39,63.11,103.09,63.2,103.09,63.39Z"/><path class="cls-1" d="M106,54.42h0Z"/><path class="cls-1" d="M103.45,63h0v0Z"/><path class="cls-1" d="M98.48,58.66l.07-.08A.3.3,0,0,0,98.48,58.66Z"/><path class="cls-1" d="M97.56,56.84v0A0,0,0,0,0,97.56,56.84Z"/><path class="cls-1" d="M99.3,59.11s0,0,0,.06l0,0S99.28,59.15,99.3,59.11Z"/><path class="cls-1" d="M99.9,59.77l0,0,0,0Z"/><path class="cls-1" d="M105.47,56.79a.71.71,0,0,1,.21,0C105.51,56.77,105.46,56.63,105.47,56.79Z"/><path class="cls-1" d="M106,54.32a.23.23,0,0,1,0,.1h0S106,54.34,106,54.32Z"/><path class="cls-1" d="M100.71,57.91l.06.13A.22.22,0,0,0,100.71,57.91Z"/><path class="cls-1" d="M105.48,62.39l0,0S105.46,62.37,105.48,62.39Z"/><path class="cls-1" d="M101.07,58.31a.3.3,0,0,0-.07.16l0,0Z"/><path class="cls-1" d="M105.68,56.76Z"/><path class="cls-1" d="M105.16,55.8c0,.14.3.08.47.11s-.23.07-.39.12c.08.1.36.19.35.26a.22.22,0,0,1-.14,0c.24.12,0,.32.31.45l-.08,0a2.12,2.12,0,0,1,.43,0c0,.06.19.11,0,.13,0,0-.08,0-.14-.06l.09.07c-.29,0-.1-.09-.32-.1.1.13.33.28.25.37-.28,0-.09-.22-.35-.1l.11-.15c-.45.11,0-.09-.44,0-.09.19.14.22,0,.41.16,0,.23,0,.39,0,.28.28-.71.21-.34.41.19.06.55.08.36.22l-.32-.05c0,.18.46.11.24.3-.12,0-.1-.15-.14-.12-.26.13.18.09.18.19l-.28,0c0,.19.25.41.3.63-.09,0-.18-.05-.26,0,.14.27,0,.58-.2.85l.24.1s-.11,0-.15,0,.15,0,.25,0-.14.08-.22,0c.21.18.45.51.19.7l-.07,0c-.1.15.5.16.27.3l0,0c-.11.32.12.68-.25.92.17,0,.13.1.11.18s0,.07.22.11a1.46,1.46,0,0,1-.5,0,2.48,2.48,0,0,1,.36.22l-.26-.13.27.19a3.07,3.07,0,0,1-.31-.17l.07.06.18.11c.12.15-.18,0-.31-.15a1.44,1.44,0,0,1,.21.3l-.19-.25c.25.32-.27-.29,0,0l.2.24c-.15-.16-.15-.14-.09,0l-.17-.26c0-.05.08.19.07.24a8.21,8.21,0,0,1,.38.83l-.25-.53c.16.35.1.17.29.62a6.18,6.18,0,0,1-.37-.79l.09.22-.21-.47c.15.37-.25-.58,0,.07l-.07-.18a1.28,1.28,0,0,0,0,.17v0a7.26,7.26,0,0,1,.22.77c-.09-.21-.22-.61-.23-.6,0,.19.06.35.1.59-.08-.39-.11-.4-.14-.64,0,0,0,0-.09.21a1.84,1.84,0,0,1,0,.31s0-.18,0-.32v0c0,.17-.11-.11-.1-.3s.05-.32-.08-.14h0a.8.8,0,0,1-.19.13s.11-.11.18-.23c-.11.14-.22,0-.27-.07s-.09-.19-.25-.18c.32-.57-.47-.4-.36-.85l-.09.12c-.15.06,0-.11,0-.17s0,.14-.13.18c-.49-.23-.6-.89-.87-1.35-.11-.16-.62.47-.54.06l.24-.15c-.5,0-.53-.56-1-.63.06,0,.12-.08.14-.06.09-.19-.19-.21-.31-.1,0,0,.1-.11.14-.19s-.33,0-.21-.14a.12.12,0,0,1,.08,0c-.1,0-.14-.19-.27,0,0-.18-.26-.12-.23-.3-.24.12-.07-.25-.35,0,.28-.24.06-.38-.13-.33.11,0,0-.13.18-.21-.06-.07-.18-.09-.31.05.22-.43-.52,0-.14-.5a2.57,2.57,0,0,1-.85-.37c.3-.22.2.21.51,0a3.34,3.34,0,0,0-.42-.07.38.38,0,0,1-.17-.06s0,0,0-.06.15-.07.21-.11c-.2,0,0-.11-.32-.14a.57.57,0,0,1,.13,0s0,0-.16,0h.06a2.29,2.29,0,0,1-.85-.07c.64.05.07-.12.91,0l-.31,0a1,1,0,0,1,.3,0c-.08-.06-.32-.08-.27-.14l.24.07c-.18-.06-.33-.15-.21-.17s.13,0,.12,0-.27-.36,0-.37c.25.27.13,0,.36.27l0-.09L99.32,56s0-.25.12-.22v.15l.12-.16-.16,0c0-.19-.23-.32-.06-.32,0,0,.09-.06.24.07h0c0-.12,0-.24.09-.21s.16.31.21.36c-.09-.25.17-.19.09-.46a.82.82,0,0,0,.12.23l-.07-.2c.08,0,.1.06.16.18.14,0-.23-.33,0-.26,0,0,0,0,0,.09.19,0,.24-.27.43-.25.18.26-.09.13.07.34.18-.15.28-.54.52-.55l0,0c-.14-.43.24.14.27-.09a.4.4,0,0,0,0,.19c.17,0,.25-.21.43-.41v.11c.12.08.24,0,.35,0s.06-.12,0-.27c.43.55.49-.46.85,0,0,0-.06.11,0,.1l.21-.13c0-.19,0-.11-.11-.25s.07-.22.13-.22c-.09.13,0,.3.09.41a1.23,1.23,0,0,1,0-.19c.16.33,0-.39.17-.17V54c.06-.06.11-.2.18-.17,0,.22-.06.11,0,.29.09,0,.16-.43.26-.22s-.1.07-.13.14c.11.25.11.19.18.22h0l.16.11,0-.07c.1-.59.24-.12.39-.5-.15.37,0,.21,0,.47,0,.07.1.14.08.21.08-.2.12.17.23-.13,0,.08.08,0,.06.21.1-.06,0-.14,0-.24.15-.28.34.34.57,0,.19-.15.24-.42.43-.55a.36.36,0,0,1-.07.29c.09.13.16.11.26,0a.37.37,0,0,0,0,.23c.07,0,.07-.3.16-.17s-.06.23-.1.32c.09-.07.19-.21.28-.28,0,.14-.07.21-.11.3a.46.46,0,0,0,.32-.33L106.5,54s0,.19,0,.23-.11-.09-.11-.17l.06,0c0-.48-.26.06-.38,0l.08-.35L106,54c0-.09,0-.29,0-.33-.09-.18-.09.11-.16-.08a.06.06,0,0,1,0-.06l-.1.1c0-.08,0-.25,0-.2-.15-.21-.27.25-.32,0v0c-.23.11,0,.26-.21.55l-.09-.63,0,.25s-.07,0-.06-.13c-.09.17,0,.11,0,.27-.11-.23-.31.11-.33-.3,0,.19.11.15,0,.28,0-.43-.14.08-.24-.12s.13-.11,0-.31c-.06.38-.2-.08-.29,0,0,.3-.19.13-.33.24,0-.11-.29-.15-.44-.25v-.05c0,.31-.14.26-.24.34a.68.68,0,0,1,0-.35l-.1,0a.22.22,0,0,1-.09.19v-.23c-.14,0-.23.31-.42.18,0,.22.22.57.08.74a1,1,0,0,1,0-.36s0,.1-.07.06l0-.2c-.09-.08,0,.16-.07.16,0-.17-.07-.11-.08-.24s.06.06.07,0a.45.45,0,0,1-.23-.21c0,.09,0,.22,0,.25s-.09-.19-.18-.25c0,.12-.12,0-.06.26,0,0-.08-.1-.11-.16,0,.12-.3.12-.15.35h0v0h0c-.14.29-.48,0-.65.18l0-.08c-.09.13-.25.15-.27.36,0,0-.14-.11-.16-.21-.07.1,0,.19-.23.12,0-.17-.08-.1,0-.14-.14,0-.23-.12-.26.15,0-.22-.21-.21-.24-.12l.15.1a.25.25,0,0,1-.17.08l-.1-.27c-.4-.18-.17.74-.62.34,0,.21.2,0,.25.28-.12,0-.44-.25-.47-.23-.24-.05.07.43-.14.44.07.07.23.28.18.43s-.36-.26-.34-.37,0,0,.07,0a.14.14,0,0,0-.07-.18l0,.09c-.11-.05-.25.07-.31-.09,0,.13.06.15.15.15-.21,0-.27.19-.51.27.07,0,.18.07.15.1-.35.13,0,.21-.08.37-.22,0-.28-.23-.33,0-.19.05-.26-.1-.29-.19,0,.25-.41.26-.54.37v-.13a.27.27,0,0,1-.08.18h.25c-.08,0-.12.09-.21.07.09.09.38,0,.49.19-.16.05,0,.22-.35.2.27-.21-.33,0-.22-.22,0,0,0,.09-.12.14a0,0,0,0,1-.06,0c-.47.21.24.15.35.38-.19,0-.29.06-.23.1s.26,0,.44,0c0,.15.19.15.22.22v-.09c.17,0,.19.08.3.15-.11,0-.14-.06-.17,0,.33,0-.12.31.16.42,0,.11-.26.11-.28.21.31.1,0,.31.28.45.11-.19.08-.14.32-.16a1.85,1.85,0,0,1-.34-.21l.39,0c-.06-.08-.25-.11-.25-.18.21,0,.15,0,.27-.09-.18.25.32.12.21.32l-.39.29c-.07.28.39.11.44.36l0-.11c.17-.1.11.1.22.1a.75.75,0,0,0-.2.27c.09-.08.1.14.36-.06l-.1.22c.06.21.5-.14.58,0-.18.08-.21.22-.39.21,0,.05,0,.11.14,0,0,.1.28,0,.2.13.07,0,.2-.14.24-.08a.31.31,0,0,1-.06.06c.06-.06.15,0,.25-.16-.27.48.37.35.15.77a2,2,0,0,1,.36.21s-.06.06-.06,0c0,.22.41-.25.42,0s-.18,0-.21.14c-.37.39.21.11.07.42h0c-.06.2.32,0,.4.16l-.06.06a.79.79,0,0,1,.63,0c-.18.12-.12,0-.26.2.07,0,.24-.25.37-.2a1,1,0,0,1-.21.42l-.09-.08c-.17.26.12.11.13.19l-.1.09c.17.11.4-.13.53,0l.06-.09c.3-.15-.06.2.19.1l-.21.26a2,2,0,0,1,.55,0,2,2,0,0,1-.6.14.28.28,0,0,0,.34.06s-.13,0-.11,0c.24-.12.42-.13.52,0-.46.44.16.38-.11.81.35,0,.3.43.54.61.27-.43.08,0,.42-.33.07,0,.09,0,.07.08l-.07.37c-.06.14-.12,0-.2.12.08.13-.1.2-.13.37.12-.15.22-.15.24,0l.08-.26c.17,0,.11.08.09.21s0,.28.2.32l-.18,0c.2.07.57.6.84.29,0,.09,0,.28-.08.25a1.05,1.05,0,0,0,.55.35.67.67,0,0,1,.44.47v.17c.06,0,.08-.26.17,0,0,.08,0,.18,0,.22s.12-.19.21,0l0,.18c.39.7.39-.08.54,0a6,6,0,0,0,.7,1.66l0,.12c.14.17.23.25.29.25,0-.46-.16-1.14-.22-1.63.18.26.24.08.28-.15s.07-.51.19-.59a1.37,1.37,0,0,1-.28-.54c.07,0-.21-.59.09-.15v0c.3.34.24,0,.26-.19l-.4-.5c.31.14.28-.25.23-.56s-.12-.58.17-.57c-.1-.17-.1-.3-.2-.45l.23.09a1.83,1.83,0,0,0,.05-.84l.17,0c0-.13-.68-.17-.69-.29l.35,0c0-.22.31-.45,0-.68,0,0,.15,0,.17,0s.24-.41-.25-.37c.32,0,0-.23-.11-.35h.24c-.3-.1-.38-.1-.47-.24s.19,0,.13,0c.12-.11-.22-.08-.1-.22l.15,0c0-.12-.06-.11-.24-.17s.06-.22.27-.24c-.13,0-.3-.08-.24-.14a.32.32,0,0,1,.16,0c.15-.19-.28-.28,0-.42a.33.33,0,0,0,.14,0,.73.73,0,0,1,0,.27c.21,0,.25-.13.55,0-.17-.1-.52-.27-.42-.39l.08,0,0,0s0-.06,0-.08.06-.06.06-.1c.18,0,.1-.14.1-.2-.23,0-.19-.08-.39,0,0,0,0,0,0,.05l0,0h0l0,.16c-.12-.05-.22-.1-.09-.17l-.38-.09c.33-.08.51-.25.71-.27-.13-.18-.09-.44-.53-.56-.05,0,.13-.06.2-.08s0,.07.1.09c-.11-.11,0-.32-.35-.35.14-.13.28.08.24-.11l.09,0c.5-.35-.78-.61-.13-1a.21.21,0,0,1-.11,0c.29-.44-.22-1,.26-1.37.09-.12-.1-.15-.24-.24h.25l-.28-.16c-.2-.21.65-.26.28-.54H107c0-.08-.07-.28.13-.24,0,0-.18,0-.08-.07h.13l-.19-.24c.11-.14.51.1.57-.12s-.34-.31-.43-.29a.27.27,0,0,1-.23.06l-.05-.1a1.66,1.66,0,0,0-1.07,0l.21.19-.19,0V53c-.19,0,0,.11.06.18a.57.57,0,0,0-.22,0l.35.2c-.15,0-.29-.11-.39,0,.16.09.35,0,.45.1-.19,0-.33,0-.19.11a.27.27,0,0,1-.2-.06c.11.09,0,.2.23.26-.23,0,0,.25-.34.21.09,0,.27.15.28.22-.43-.16,0,.25-.51.17.38.13.14.35.35.53,0,0-.09,0-.07,0s-.16.11-.24.16c.32,0,.39.18.59.26-.32.09-.38-.09-.69-.07.27,0,.26.21.48.18a.74.74,0,0,1-.37.1c.41,0,.06.08.31.16-.21.11-.38,0-.27.16C105.3,55.92,105.16,55.8,105.16,55.8Zm.66,3.16h0v-.07Zm0,.26a.41.41,0,0,0,0-.12c.08,0,.16,0,.16,0S105.89,59.18,105.82,59.22Zm1.63-.56s0,.06-.06.06a.36.36,0,0,0,0-.07h.09Z"/><path class="cls-1" d="M107.14,58.59s0,0,0,0l-.05,0h.07Z"/><path class="cls-1" d="M101.84,53.69h0l0,0Z"/><polygon class="cls-1" points="105.37 62.25 105.43 62.28 105.38 62.25 105.37 62.25"/><path class="cls-1" d="M103.39,54.21a.08.08,0,0,0,0,0Z"/><path class="cls-1" d="M104,54.21l.09.08Z"/><path class="cls-1" d="M104.44,54.32v-.1h0Z"/><path class="cls-1" d="M99.29,56.59h0Z"/><path class="cls-1" d="M99.59,55.47a.57.57,0,0,1,0,.13S99.66,55.58,99.59,55.47Z"/><polygon class="cls-1" points="100.71 57.9 100.7 57.9 100.71 57.91 100.71 57.9"/><path class="cls-1" d="M99.5,55.65c.06,0,.08,0,.09,0S99.51,55.6,99.5,55.65Z"/><path class="cls-1" d="M106.44,54.5l0,0v0Z"/><path class="cls-1" d="M106.47,54.48l0,0S106.47,54.45,106.47,54.48Z"/><path class="cls-1" d="M106.55,54.4l-.06.05S106.53,54.46,106.55,54.4Z"/><path class="cls-1" d="M105.83,54.35v.09A.34.34,0,0,1,105.83,54.35Z"/><path class="cls-1" d="M105.64,54.37s.1.19.17.14v-.07C105.78,54.56,105.69,54.23,105.64,54.37Z"/><path class="cls-1" d="M104.88,53.29l.16.07c0-.09-.06-.22,0-.24C104.86,52.85,105.1,53.33,104.88,53.29Z"/><path class="cls-1" d="M104.37,53.15c.09,0,0-.13,0-.18S104.3,53.08,104.37,53.15Z"/><path class="cls-1" d="M100.67,53.91l-.07-.2C100.54,53.77,100.63,53.79,100.67,53.91Z"/><polygon class="cls-1" points="100.51 55.2 100.62 55.29 100.56 55.1 100.51 55.2"/><polygon class="cls-1" points="99.44 54.04 99.45 54 99.38 54.12 99.44 54.04"/><path class="cls-1" d="M99.63,59.79l.19-.19C99.75,59.6,99.52,59.79,99.63,59.79Z"/><path class="cls-1" d="M101.67,61.5c-.07.12-.08.23,0,.17C101.69,61.62,101.72,61.5,101.67,61.5Z"/><polygon class="cls-1" points="107.38 64.53 107.46 64.7 107.4 64.46 107.38 64.53"/></g></g></svg>