<?xml version="1.0" encoding="UTF-8"?>
<svg width="257px" height="80px" viewBox="0 0 257 80" version="1.1" xmlns="http://www.w3.org/2000/svg" xmlns:xlink="http://www.w3.org/1999/xlink">
    <!-- Generator: Sketch 48.2 (47327) - http://www.bohemiancoding.com/sketch -->
    <title>suomensyopapotilaat-fi</title>
    <desc>Created with Sketch.</desc>
    <defs></defs>
    <g id="Page-1" stroke="none" stroke-width="1" fill="none" fill-rule="evenodd">
        <g id="suomensyopapotilaat-fi">
            <g id="logo" transform="translate(-1.000000, 0.000000)">
                <g id="c" transform="translate(0.100000, 0.000000)">
                    <path d="M74.0685056,64.1728203 C74.0685056,72.241584 67.4997623,78.7844055 59.3966943,78.7844055 C51.2929521,78.7844055 44.7235347,72.241584 44.7235347,64.1728203 C44.7235347,56.1033852 51.2929521,49.5619064 59.3966943,49.5619064 C67.4997623,49.5619064 74.0685056,56.1033852 74.0685056,64.1728203" id="Fill-2" fill="#FDD31E"></path>
                    <path d="M90.1559943,39.7758702 C90.1559943,47.8446339 83.5865769,54.3861127 75.4835089,54.3861127 C67.3804409,54.3861127 60.8116976,47.8446339 60.8116976,39.7758702 C60.8116976,31.7057637 67.3804409,25.1642849 75.4835089,25.1642849 C83.5865769,25.1642849 90.1559943,31.7057637 90.1559943,39.7758702" id="Fill-3" fill="#C7372A"></path>
                    <path d="M75.0466713,14.8143281 C75.0466713,22.8837632 68.477928,29.4259134 60.37486,29.4259134 C52.2711178,29.4259134 45.7023745,22.8837632 45.7023745,14.8143281 C45.7023745,6.7442217 52.2711178,0.202742878 60.37486,0.202742878 C68.477928,0.202742878 75.0466713,6.7442217 75.0466713,14.8143281" id="Fill-4" fill="#0074B0"></path>
                    <path d="M45.7549568,14.8143281 C45.7549568,22.8837632 39.1855394,29.4259134 31.0824714,29.4259134 C22.9794034,29.4259134 16.409986,22.8837632 16.409986,14.8143281 C16.409986,6.7442217 22.9794034,0.202742878 31.0824714,0.202742878 C39.1855394,0.202742878 45.7549568,6.7442217 45.7549568,14.8143281" id="Fill-5" fill="#3EA447"></path>
                    <path d="M30.2964334,39.6543587 C30.2964334,47.7224511 23.7270159,54.2652726 15.6239479,54.2652726 C7.52087993,54.2652726 0.951462488,47.7224511 0.951462488,39.6543587 C0.951462488,31.5835809 7.52087993,25.0421021 15.6239479,25.0421021 C23.7270159,25.0421021 30.2964334,31.5835809 30.2964334,39.6543587" id="Fill-6" fill="#EFA92C"></path>
                    <path d="M44.7329726,65.0395125 C44.7329726,73.1096189 38.1635551,79.6517691 30.0604871,79.6517691 C21.9574191,79.6517691 15.3880017,73.1096189 15.3880017,65.0395125 C15.3880017,56.9700774 21.9574191,50.4285986 30.0604871,50.4285986 C38.1635551,50.4285986 44.7329726,56.9700774 44.7329726,65.0395125" id="Fill-7" fill="#7F78AB"></path>
                    <path d="M67.7673927,17.0257024 L69.1089156,26.7519899 L69.2349783,27.7657043 L69.1089156,28.1705187 C68.9686961,28.4135416 68.7603893,28.5498224 68.4812986,28.5760045 C68.1449067,28.6021865 67.6420041,28.0369232 66.972591,26.8761867 C61.7972787,18.0246475 54.7829341,13.5985422 45.9282088,13.5985422 C38.8707197,13.5985422 33.3084556,15.7166011 29.2414166,19.9493621 C25.1730293,24.1827946 23.1384986,29.9663373 23.1384986,37.3006616 C23.1384986,45.7413444 25.4029084,52.6366162 29.9317279,57.9891625 C34.4598733,63.3417087 40.2837006,66.0176462 47.403884,66.0176462 C51.5578861,66.0176462 55.6438008,64.9307564 59.6609541,62.7603335 C63.6767591,60.5905819 66.4609247,57.9576098 68.0121027,54.8634312 C68.7300534,53.4247624 69.2835158,52.6916656 69.6711418,52.6641409 C70.1133725,52.6379589 70.3351619,52.8950798 70.3351619,53.4381891 L70.2933657,53.8852975 L70.1255069,54.7795145 L69.1581273,59.7460437 L68.9902684,60.4777978 C68.8790366,61.1806845 68.2284991,61.9124386 67.0406783,62.669032 C60.6526024,66.6466862 53.6153373,68.6345063 45.9295571,68.6345063 C37.0242718,68.6345063 29.8488096,66.0606116 24.4018222,60.9081229 C18.9541606,55.7563055 16.231341,48.9718038 16.231341,40.557303 C16.231341,32.1414595 19.0505615,25.1495156 24.6903507,19.5794571 C30.33014,14.0093986 37.407853,11.224705 45.9234899,11.224705 C51.7560809,11.224705 57.1201501,12.508967 62.013001,15.0761484 L63.6706919,15.9273999 L64.3353861,16.2113742 L65.0398542,16.4543972 C65.1787254,16.4543972 65.385684,16.3469837 65.661404,16.1301428 C66.2667746,15.7011604 66.6793435,15.4863335 66.9004588,15.4863335 C67.3406671,15.4863335 67.6298698,15.999904 67.7673927,17.0257024" id="Fill-8" fill="#FFFFFE"></path>
                </g>
                <path d="M108.205566,25.7851562 C108.780276,25.7851562 109.266355,25.8684074 109.663818,26.0349121 L110.219727,26.2685547 C110.268067,26.2900392 110.316406,26.3007812 110.364746,26.3007812 C110.4292,26.3007812 110.493652,26.273926 110.558105,26.2202148 L110.670898,26.1235352 C110.687012,26.1020507 110.716553,26.0913086 110.759521,26.0913086 C110.893799,26.0859375 110.960938,26.217528 110.960938,26.486084 C110.960938,26.577393 110.995849,26.8486306 111.065674,27.2998047 L111.19458,28.1296387 C111.221436,28.3068857 111.234863,28.416992 111.234863,28.4599609 C111.234863,28.6264657 111.178467,28.7097168 111.065674,28.7097168 C110.979736,28.7097168 110.893799,28.5808118 110.807861,28.322998 C110.614501,27.742917 110.221072,27.2648945 109.627563,26.888916 C109.034055,26.5129376 108.372074,26.3249512 107.641602,26.3249512 C107.061521,26.3249512 106.576784,26.4954817 106.187378,26.8365479 C105.797972,27.177614 105.603271,27.6032689 105.603271,28.1135254 C105.603271,28.5646995 105.729491,28.9540999 105.981934,29.2817383 C106.20215,29.5610366 106.442504,29.7651361 106.703003,29.894043 C106.963502,30.0229499 107.603999,30.2565901 108.624512,30.5949707 C110.611826,31.2448763 111.605469,32.3110277 111.605469,33.793457 C111.605469,34.7978566 111.240238,35.6196257 110.509766,36.2587891 C109.779293,36.8979524 108.842047,37.2175293 107.697998,37.2175293 C107.284422,37.2175293 106.829226,37.1584479 106.332397,37.0402832 C105.835569,36.9221185 105.471681,36.785157 105.240723,36.6293945 C105.144042,36.5649411 105.07959,36.4964603 105.047363,36.4239502 C105.015137,36.3514401 104.966797,36.1647964 104.902344,35.8640137 C104.891602,35.8210447 104.824464,35.5766624 104.700928,35.1308594 C104.561279,34.6474585 104.491455,34.303712 104.491455,34.0996094 C104.491455,33.9384758 104.545165,33.8605957 104.652588,33.8659668 C104.749268,33.8713379 104.835205,34.0029284 104.9104,34.2607422 C105.103761,34.9267611 105.51196,35.4853493 106.13501,35.9365234 C106.75806,36.3876976 107.434811,36.6132812 108.165283,36.6132812 C108.906498,36.6132812 109.533567,36.3957541 110.046509,35.9606934 C110.559451,35.5256326 110.815918,34.9965851 110.815918,34.3735352 C110.815918,33.7773408 110.579592,33.2751485 110.106934,32.8669434 C109.865233,32.6574697 109.166998,32.3593769 108.012207,31.9726562 C106.819818,31.5698222 105.975222,31.1240259 105.478394,30.6352539 C104.981565,30.1464819 104.733154,29.5126992 104.733154,28.7338867 C104.733154,27.8637652 105.056759,27.1547879 105.703979,26.6069336 C106.3512,26.0590793 107.185053,25.7851562 108.205566,25.7851562 Z M122.771973,32.3674316 L122.771973,28.1940918 C122.771973,27.5227017 122.675294,27.0352798 122.481934,26.7318115 C122.288573,26.4283432 121.96094,26.2551272 121.499023,26.2121582 C121.343261,26.1960448 121.265381,26.1369634 121.265381,26.0349121 C121.265381,25.9167475 121.319091,25.8603515 121.426514,25.8657227 C121.544678,25.8710938 121.716552,25.8925779 121.942139,25.9301758 C122.146241,25.9624025 122.390624,25.9785156 122.675293,25.9785156 C123.276858,25.9785156 123.64746,25.9704591 123.787109,25.9543457 C123.975099,25.9382323 124.093261,25.9301758 124.141602,25.9301758 C124.243653,25.9301758 124.294678,25.9785151 124.294678,26.0751953 C124.294678,26.1557621 124.238282,26.2202146 124.125488,26.2685547 C123.79785,26.4028327 123.585694,26.5908191 123.489014,26.8325195 C123.392334,27.07422 123.343994,27.5307584 123.343994,28.2021484 L123.343994,32.1901855 C123.343994,33.6565015 123.051272,34.7844199 122.46582,35.5739746 C122.095213,36.0734888 121.564823,36.4722885 120.874634,36.7703857 C120.184445,37.0684829 119.44727,37.2175293 118.663086,37.2175293 C117.749995,37.2175293 116.928226,37.040285 116.197754,36.685791 C115.467282,36.3312971 114.932863,35.850589 114.594482,35.2436523 C114.213133,34.5454067 114.022461,33.6350154 114.022461,32.5124512 L114.022461,28.4196777 L114.006348,27.9604492 C114.006348,27.3857393 113.927125,26.9896251 113.768677,26.7720947 C113.610229,26.5545643 113.291995,26.410889 112.813965,26.3410645 C112.668945,26.31958 112.596436,26.2631841 112.596436,26.171875 C112.596436,26.0429681 112.698485,25.9785156 112.902588,25.9785156 C113.036866,25.9785156 113.222167,25.9838867 113.458496,25.9946289 C113.705568,26.0107423 113.885497,26.0187988 113.998291,26.0187988 L114.618652,26.0107422 L115.230957,26.0107422 C115.29541,26.0107422 115.4458,26.0000001 115.682129,25.9785156 C115.88086,25.9624023 116.017822,25.9543457 116.093018,25.9543457 C116.216553,25.9543457 116.27832,25.997314 116.27832,26.083252 C116.27832,26.1853032 116.192384,26.2524412 116.020508,26.284668 C115.708983,26.3544925 115.500855,26.4901113 115.396118,26.6915283 C115.291381,26.8929453 115.239014,27.2541478 115.239014,27.7751465 L115.255127,28.3068848 L115.255127,32.3674316 C115.255127,33.7531808 115.469969,34.7414521 115.899658,35.3322754 C116.506595,36.1701702 117.524407,36.5891113 118.953125,36.5891113 C120.231452,36.5891113 121.187497,36.238651 121.821289,35.5377197 C122.455081,34.8367885 122.771973,33.7800364 122.771973,32.3674316 Z M131.569824,25.7851562 C133.250985,25.7851562 134.629999,26.3048044 135.706909,27.3441162 C136.783819,28.383428 137.322266,29.7141032 137.322266,31.3361816 C137.322266,33.0549402 136.779791,34.4648382 135.694824,35.565918 C134.609858,36.6669977 133.221444,37.2175293 131.529541,37.2175293 C129.794669,37.2175293 128.391485,36.6911674 127.319946,35.6384277 C126.248408,34.5856881 125.712646,33.2053308 125.712646,31.4973145 C125.712646,30.7560998 125.853636,30.0216101 126.13562,29.2938232 C126.417604,28.5660364 126.797605,27.9577661 127.275635,27.4689941 C127.78052,26.9533666 128.419674,26.5438248 129.193115,26.2403564 C129.966557,25.9368881 130.758785,25.7851562 131.569824,25.7851562 Z M131.046143,26.3088379 C129.800043,26.3088379 128.810428,26.7291218 128.077271,27.5697021 C127.344113,28.4102825 126.977539,29.5422292 126.977539,30.9655762 C126.977539,32.5930257 127.446162,33.9653264 128.383423,35.0825195 C129.320683,36.1997126 130.471429,36.7583008 131.835693,36.7583008 C133.081793,36.7583008 134.110348,36.3031051 134.921387,35.3927002 C135.732426,34.4822953 136.137939,33.3288644 136.137939,31.932373 C136.137939,30.326408 135.65186,28.9876763 134.679688,27.9161377 C133.707515,26.8445991 132.496345,26.3088379 131.046143,26.3088379 Z M148.657959,28.8789062 C148.201414,29.6792032 147.89795,30.2351059 147.747559,30.5466309 L147.030518,32.0854492 L146.20874,33.7773438 C146.165771,33.8740239 145.940188,34.3789017 145.531982,35.2919922 C145.365478,35.6679706 145.22046,35.9768054 145.096924,36.2185059 C145.027099,36.3635261 144.97876,36.4655759 144.951904,36.5246582 C144.844482,36.7771009 144.729005,36.9033203 144.605469,36.9033203 C144.476562,36.9033203 144.353028,36.7717298 144.234863,36.5085449 C144.213379,36.4602048 144.138184,36.3125012 144.009277,36.0654297 L143.848145,35.7270508 L140.826904,29.1850586 L140.641602,33.1730957 C140.625488,33.5007341 140.617432,34.1560009 140.617432,35.138916 C140.617432,36.0842332 140.950436,36.6079096 141.616455,36.7099609 C141.944093,36.7636721 142.10791,36.8442377 142.10791,36.9516602 C142.10791,37.0751959 142.03003,37.1369629 141.874268,37.1369629 C141.772216,37.1369629 141.672852,37.1315919 141.576172,37.1208496 C140.974606,37.0671384 140.510011,37.0402832 140.182373,37.0402832 C139.790281,37.0402832 139.414308,37.0644529 139.054443,37.112793 C138.947021,37.1289063 138.86377,37.1369629 138.804688,37.1369629 C138.643554,37.1369629 138.562988,37.0778815 138.562988,36.9597168 C138.562988,36.8684077 138.627441,36.8093263 138.756348,36.7824707 C139.148439,36.6911617 139.422363,36.5085463 139.578125,36.2346191 C139.733887,35.960692 139.827881,35.4934115 139.860107,34.8327637 L139.9729,32.4963379 C140.053467,30.8044349 140.09375,29.7355979 140.09375,29.2897949 C140.09375,28.3337355 139.967531,27.6261009 139.715088,27.1668701 C139.462645,26.7076393 139.041019,26.4243169 138.450195,26.3168945 C138.289062,26.2900389 138.208496,26.2229009 138.208496,26.1154785 C138.208496,25.9973139 138.275634,25.9382324 138.409912,25.9382324 C138.458252,25.9382324 138.546874,25.9436035 138.675781,25.9543457 C138.750977,25.9650879 138.933592,25.970459 139.223633,25.970459 C139.664065,25.970459 139.943359,25.9650879 140.061523,25.9543457 C140.185059,25.9382323 140.284423,25.9301758 140.359619,25.9301758 C140.590577,25.9301758 140.783935,26.0993635 140.939697,26.4377441 L141.02832,26.6230469 L144.387939,33.8659668 L144.798828,34.6958008 C144.85791,34.8354499 144.900879,34.9052734 144.927734,34.9052734 C144.959961,34.9052734 145.000244,34.8542486 145.048584,34.7521973 L145.145264,34.534668 L145.217773,34.3735352 L149.004395,26.2685547 C149.084961,26.0966788 149.145386,25.9906008 149.185669,25.9503174 C149.225952,25.910034 149.297119,25.8898926 149.39917,25.8898926 C149.442139,25.8898926 149.560302,25.9006347 149.753662,25.9221191 C149.823487,25.9274903 149.912109,25.9301758 150.019531,25.9301758 C150.357912,25.9301758 150.629149,25.9194337 150.833252,25.8979492 C150.929932,25.8925781 151.007812,25.8872071 151.066895,25.8818359 C151.174317,25.8764648 151.228027,25.9301752 151.228027,26.0429688 C151.228027,26.14502 151.174317,26.2094725 151.066895,26.2363281 L150.720459,26.3249512 C150.446532,26.3894046 150.254517,26.5572496 150.144409,26.8284912 C150.034301,27.0997328 149.979248,27.5441864 149.979248,28.1618652 L150.027588,30.1035156 L150.180664,34.4782715 L150.220947,35.4934082 C150.220947,35.9016134 150.296142,36.1943351 150.446533,36.371582 C150.596925,36.548829 150.870848,36.6669919 151.268311,36.7260742 C151.55298,36.7690432 151.695312,36.8415522 151.695312,36.9436035 C151.695312,37.0510259 151.595948,37.1047363 151.397217,37.1047363 C151.338134,37.1047363 151.270996,37.1020508 151.195801,37.0966797 L150.567383,37.0322266 C150.357909,37.0107421 150.132325,37 149.890625,37 C149.72412,37 149.460939,37.0107421 149.101074,37.0322266 C148.542478,37.0590822 148.220215,37.0725098 148.134277,37.0725098 C147.978515,37.0725098 147.900635,37.0241704 147.900635,36.9274902 C147.900635,36.8415523 147.967773,36.7797853 148.102051,36.7421875 C148.418947,36.6562496 148.631103,36.5166025 148.738525,36.3232422 C148.845948,36.1298818 148.899658,35.7915063 148.899658,35.3081055 L148.867432,33.994873 L148.657959,28.8789062 Z M155.46582,27.2675781 L155.46582,30.5063477 C155.46582,30.7534192 155.488647,30.9024656 155.534302,30.9534912 C155.579956,31.0045169 155.718261,31.0300293 155.949219,31.0300293 L157.189941,31.0300293 C157.753909,31.0300293 158.199705,30.9978031 158.527344,30.9333496 C158.817384,30.8742673 159.005371,30.7963872 159.091309,30.699707 C159.177247,30.6030269 159.255127,30.3774432 159.324951,30.0229492 C159.351807,29.8886712 159.418945,29.8242187 159.526367,29.8295898 C159.628418,29.834961 159.679443,29.90747 159.679443,30.0471191 C159.679443,30.084717 159.676758,30.1437984 159.671387,30.2243652 C159.628418,30.7453639 159.606934,31.220701 159.606934,31.6503906 C159.606934,31.978029 159.623047,32.3029769 159.655273,32.6252441 C159.666016,32.7326666 159.671387,32.8105466 159.671387,32.8588867 C159.671387,32.9931647 159.620362,33.0603027 159.518311,33.0603027 C159.405517,33.0603027 159.338379,33.0012213 159.316895,32.8830566 L159.268555,32.6574707 C159.204101,32.2976056 159.075196,32.0532233 158.881836,31.9243164 C158.688476,31.7954095 158.360842,31.730957 157.898926,31.730957 L156.118408,31.730957 C155.855223,31.730957 155.679322,31.7578122 155.590698,31.8115234 C155.502075,31.8652346 155.457764,31.9726554 155.457764,32.1337891 L155.46582,32.3996582 L155.46582,35.364502 C155.46582,35.8210472 155.547729,36.1057123 155.711548,36.2185059 C155.875367,36.3312994 156.29028,36.3876953 156.956299,36.3876953 C159.067149,36.3876953 160.423337,35.9123583 161.024902,34.9616699 C161.083985,34.8703609 161.143066,34.8220215 161.202148,34.8166504 C161.298829,34.8112793 161.347168,34.8811028 161.347168,35.026123 C161.347168,35.3752459 161.151125,35.7915015 160.759033,36.2749023 C160.286375,36.8549834 159.690189,37.1450195 158.970459,37.1450195 C158.814696,37.1450195 158.605226,37.1342775 158.342041,37.112793 C157.316157,37.0161128 156.467533,36.9677734 155.796143,36.9677734 C154.856196,36.9677734 154.192873,36.9999997 153.806152,37.0644531 C153.60205,37.102051 153.462403,37.1208496 153.387207,37.1208496 C153.215331,37.1208496 153.129395,37.0617682 153.129395,36.9436035 C153.129395,36.8522945 153.199218,36.787842 153.338867,36.7502441 L153.64502,36.6616211 C154.03174,36.5541987 154.225098,36.1782259 154.225098,35.5336914 L154.233154,35.0100098 L154.233154,28.2021484 C154.233154,27.4340782 154.14856,26.9171156 153.97937,26.6512451 C153.81018,26.3853746 153.481204,26.2524414 152.992432,26.2524414 C152.836669,26.2524414 152.758789,26.2014165 152.758789,26.0993652 C152.758789,25.9489739 152.879637,25.8737793 153.121338,25.8737793 C153.255616,25.8737793 153.435546,25.8872069 153.661133,25.9140625 C154.429203,26.0000004 155.353022,26.0429688 156.432617,26.0429688 C157.087894,26.0429688 157.667966,26.0322267 158.172852,26.0107422 L159.316895,25.9543457 C159.633791,25.9436035 159.827148,25.9328614 159.896973,25.9221191 C160.041993,25.9006347 160.149414,25.8898926 160.219238,25.8898926 C160.396485,25.8898926 160.485107,25.9677727 160.485107,26.1235352 C160.485107,26.1718752 160.477051,26.2336422 160.460938,26.3088379 C160.444824,26.3840336 160.42334,26.5988752 160.396484,26.9533691 L160.364258,27.4287109 C160.337402,27.7402359 160.310547,27.9349361 160.283691,28.0128174 C160.256836,28.0906986 160.197754,28.1323242 160.106445,28.1376953 C160.004394,28.1430664 159.953369,28.0625008 159.953369,27.8959961 L159.953369,27.6865234 C159.953369,27.5146476 159.921143,27.3508309 159.856689,27.1950684 C159.754638,26.9533679 159.547853,26.7922367 159.236328,26.7116699 C158.924803,26.6311031 158.352787,26.5908203 157.520264,26.5908203 L156.255371,26.5908203 C155.922362,26.5908203 155.70752,26.6324459 155.61084,26.7156982 C155.51416,26.7989506 155.46582,26.9829087 155.46582,27.2675781 Z M172.239746,29.0883789 L172.239746,35.8398438 C172.239746,36.4467804 172.226318,36.8160394 172.199463,36.9476318 C172.172607,37.0792243 172.097413,37.142334 171.973877,37.1369629 C171.89331,37.1315918 171.831543,37.1074221 171.788574,37.0644531 L171.611328,36.8549805 L164.81958,29.0883789 L164.739014,28.9997559 C164.706787,28.9675291 164.66919,28.951416 164.626221,28.951416 C164.524169,28.951416 164.473145,29.0722644 164.473145,29.3139648 L164.473145,34.7763672 L164.465088,35.1147461 L164.489258,35.6867676 C164.526856,36.0412615 164.618163,36.2856439 164.763184,36.4199219 C164.908204,36.5541999 165.192869,36.6535641 165.617188,36.7180176 C165.794434,36.7395021 165.883057,36.8093256 165.883057,36.9274902 C165.883057,37.0349126 165.826661,37.088623 165.713867,37.088623 C165.638671,37.088623 165.558106,37.083252 165.472168,37.0725098 C165.413086,37.0617675 165.179445,37.0456544 164.77124,37.0241699 L163.949463,36.9838867 L163.562744,37 C163.35327,37 163.154542,37.0134276 162.966553,37.0402832 C162.826904,37.0617677 162.727539,37.0725098 162.668457,37.0725098 C162.528808,37.0725098 162.453613,37.0214849 162.442871,36.9194336 C162.4375,36.8388668 162.512695,36.7717288 162.668457,36.7180176 C163.119631,36.5622551 163.424438,36.3541273 163.582886,36.0936279 C163.741334,35.8331286 163.820557,35.4128447 163.820557,34.8327637 L163.820557,29.354248 C163.820557,28.4250442 163.672853,27.69324 163.377441,27.1588135 C163.08203,26.624387 162.655032,26.3195805 162.096436,26.2443848 C161.951415,26.2229003 161.878906,26.1611333 161.878906,26.059082 C161.878906,25.9570307 161.937988,25.9060059 162.056152,25.9060059 C162.083008,25.9060059 162.125976,25.9086914 162.185059,25.9140625 L162.515381,25.9221191 L163.055176,25.9382324 L163.184082,25.9301758 C163.312989,25.9248047 163.412353,25.9221191 163.482178,25.9221191 C163.616456,25.9221191 163.750732,25.9999992 163.88501,26.1557617 L171.297119,34.5507812 C171.415284,34.6850593 171.490478,34.7495117 171.522705,34.7441406 C171.576416,34.7387695 171.605957,34.6877446 171.611328,34.5910645 L171.611328,30.6030273 L171.619385,29.5153809 L171.522705,27.6623535 C171.468994,27.2058083 171.336061,26.8822031 171.123901,26.6915283 C170.911742,26.5008535 170.529056,26.3598637 169.97583,26.2685547 C169.820068,26.2416991 169.742188,26.1745611 169.742188,26.0671387 C169.742188,25.9650874 169.820068,25.9140625 169.97583,25.9140625 C170.045655,25.9140625 170.158446,25.9221191 170.314209,25.9382324 C170.684816,25.9812014 171.181638,26.0026855 171.804688,26.0026855 C172.137697,26.0026855 172.403563,25.9865724 172.602295,25.9543457 C172.774171,25.922119 172.905761,25.9060059 172.99707,25.9060059 C173.136719,25.9060059 173.211914,25.9624018 173.222656,26.0751953 C173.228027,26.1450199 173.174317,26.1960448 173.061523,26.2282715 C172.733885,26.3088383 172.517701,26.4431143 172.412964,26.6311035 C172.308227,26.8190927 172.255859,27.1708959 172.255859,27.6865234 L172.255859,28.5566406 L172.239746,29.0883789 Z" id="SUOMEN" fill="#1A1919"></path>
                <path d="M108.205566,43.7851562 C108.780276,43.7851562 109.266355,43.8684074 109.663818,44.0349121 L110.219727,44.2685547 C110.268067,44.2900392 110.316406,44.3007812 110.364746,44.3007812 C110.4292,44.3007812 110.493652,44.273926 110.558105,44.2202148 L110.670898,44.1235352 C110.687012,44.1020507 110.716553,44.0913086 110.759521,44.0913086 C110.893799,44.0859375 110.960938,44.217528 110.960938,44.486084 C110.960938,44.577393 110.995849,44.8486306 111.065674,45.2998047 L111.19458,46.1296387 C111.221436,46.3068857 111.234863,46.416992 111.234863,46.4599609 C111.234863,46.6264657 111.178467,46.7097168 111.065674,46.7097168 C110.979736,46.7097168 110.893799,46.5808118 110.807861,46.322998 C110.614501,45.742917 110.221072,45.2648945 109.627563,44.888916 C109.034055,44.5129376 108.372074,44.3249512 107.641602,44.3249512 C107.061521,44.3249512 106.576784,44.4954817 106.187378,44.8365479 C105.797972,45.177614 105.603271,45.6032689 105.603271,46.1135254 C105.603271,46.5646995 105.729491,46.9540999 105.981934,47.2817383 C106.20215,47.5610366 106.442504,47.7651361 106.703003,47.894043 C106.963502,48.0229499 107.603999,48.2565901 108.624512,48.5949707 C110.611826,49.2448763 111.605469,50.3110277 111.605469,51.793457 C111.605469,52.7978566 111.240238,53.6196257 110.509766,54.2587891 C109.779293,54.8979524 108.842047,55.2175293 107.697998,55.2175293 C107.284422,55.2175293 106.829226,55.1584479 106.332397,55.0402832 C105.835569,54.9221185 105.471681,54.785157 105.240723,54.6293945 C105.144042,54.5649411 105.07959,54.4964603 105.047363,54.4239502 C105.015137,54.3514401 104.966797,54.1647964 104.902344,53.8640137 C104.891602,53.8210447 104.824464,53.5766624 104.700928,53.1308594 C104.561279,52.6474585 104.491455,52.303712 104.491455,52.0996094 C104.491455,51.9384758 104.545165,51.8605957 104.652588,51.8659668 C104.749268,51.8713379 104.835205,52.0029284 104.9104,52.2607422 C105.103761,52.9267611 105.51196,53.4853493 106.13501,53.9365234 C106.75806,54.3876976 107.434811,54.6132812 108.165283,54.6132812 C108.906498,54.6132812 109.533567,54.3957541 110.046509,53.9606934 C110.559451,53.5256326 110.815918,52.9965851 110.815918,52.3735352 C110.815918,51.7773408 110.579592,51.2751485 110.106934,50.8669434 C109.865233,50.6574697 109.166998,50.3593769 108.012207,49.9726562 C106.819818,49.5698222 105.975222,49.1240259 105.478394,48.6352539 C104.981565,48.1464819 104.733154,47.5126992 104.733154,46.7338867 C104.733154,45.8637652 105.056759,45.1547879 105.703979,44.6069336 C106.3512,44.0590793 107.185053,43.7851562 108.205566,43.7851562 Z M117.881592,53.3483887 C117.881592,53.9714387 117.932617,54.3527825 118.034668,54.4924316 C118.136719,54.6320808 118.429441,54.726074 118.912842,54.7744141 C119.079347,54.7905274 119.162598,54.8469233 119.162598,54.9436035 C119.162598,55.0725104 119.068604,55.1369629 118.880615,55.1369629 C118.821533,55.1369629 118.681886,55.1235353 118.46167,55.0966797 C118.327392,55.0805663 118.131349,55.0644532 117.873535,55.0483398 L117.237061,55.0161133 L116.608643,55.0322266 C116.21118,55.0322266 115.945313,55.0402831 115.811035,55.0563965 C115.655273,55.077881 115.553223,55.088623 115.504883,55.088623 C115.381347,55.088623 115.31958,55.0429692 115.31958,54.9516602 C115.31958,54.8442377 115.408202,54.7770997 115.585449,54.7502441 C116.036623,54.6857907 116.322631,54.5662851 116.443481,54.3917236 C116.564332,54.2171622 116.624756,53.8425322 116.624756,53.2678223 L116.632812,52.9213867 L116.632812,50.5205078 C116.632812,50.1767561 116.608643,49.9243172 116.560303,49.7631836 C116.511963,49.60205 116.3938,49.3737808 116.205811,49.0783691 L113.958008,45.5092773 L113.684082,45.0661621 C113.52832,44.8137194 113.308107,44.6082772 113.023438,44.4498291 C112.738768,44.291381 112.456789,44.2121582 112.17749,44.2121582 C112.021728,44.2121582 111.943848,44.1638188 111.943848,44.0671387 C111.943848,43.948974 112.027099,43.8898926 112.193604,43.8898926 C112.327882,43.8898926 112.464843,43.8979491 112.604492,43.9140625 C112.953615,43.9516603 113.318846,43.970459 113.700195,43.970459 C114.48975,43.970459 114.994628,43.9597169 115.214844,43.9382324 C115.451173,43.9167479 115.593506,43.9060059 115.641846,43.9060059 C115.797608,43.9060059 115.875488,43.9597163 115.875488,44.0671387 C115.875488,44.1477055 115.813721,44.2067869 115.690186,44.2443848 C115.33032,44.3518072 115.150391,44.5344225 115.150391,44.7922363 C115.150391,44.9318855 115.265868,45.1896954 115.496826,45.5656738 L115.722412,45.9523926 L117.40625,48.611084 L117.510986,48.7722168 C117.559326,48.8474125 117.607666,48.8850098 117.656006,48.8850098 C117.715088,48.8850098 117.771484,48.8474125 117.825195,48.7722168 L117.905762,48.6513672 L119.073975,46.8789062 L119.46875,46.2504883 C119.844728,45.6542939 120.032715,45.2541514 120.032715,45.0500488 C120.032715,44.6901837 119.694339,44.4296883 119.017578,44.2685547 C118.8833,44.236328 118.818848,44.174561 118.824219,44.083252 C118.82959,43.9919429 118.891357,43.9462891 119.009521,43.9462891 C119.090088,43.9462891 119.232421,43.9624022 119.436523,43.9946289 C119.592286,44.0214845 119.968259,44.0349121 120.564453,44.0349121 C121.112307,44.0349121 121.461425,44.0268555 121.611816,44.0107422 C121.815919,43.9892577 121.958252,43.9758301 122.038818,43.970459 C122.183839,43.9597167 122.256348,44.0080561 122.256348,44.1154785 C122.256348,44.2014164 122.18921,44.2658689 122.054932,44.3088379 C121.576902,44.4646004 121.179445,44.7653786 120.862549,45.2111816 L120.338867,45.9926758 L118.381104,48.9091797 L118.187744,49.1831055 C117.983642,49.473146 117.881592,49.7390125 117.881592,49.9807129 L117.881592,53.3483887 Z M128.435791,43.7851562 C130.116952,43.7851562 131.495966,44.3048044 132.572876,45.3441162 C133.649786,46.383428 134.188232,47.7141032 134.188232,49.3361816 C134.188232,51.0549402 133.645757,52.4648382 132.560791,53.565918 C131.475825,54.6669977 130.087411,55.2175293 128.395508,55.2175293 C126.660636,55.2175293 125.257452,54.6911674 124.185913,53.6384277 C123.114375,52.5856881 122.578613,51.2053308 122.578613,49.4973145 C122.578613,48.7560998 122.719603,48.0216101 123.001587,47.2938232 C123.283571,46.5660364 123.663572,45.9577661 124.141602,45.4689941 C124.646487,44.9533666 125.285641,44.5438248 126.059082,44.2403564 C126.832523,43.9368881 127.624752,43.7851562 128.435791,43.7851562 Z M127.912109,44.3088379 C126.666009,44.3088379 125.676395,44.7291218 124.943237,45.5697021 C124.210079,46.4102825 123.843506,47.5422292 123.843506,48.9655762 C123.843506,50.5930257 124.312129,51.9653264 125.24939,53.0825195 C126.18665,54.1997126 127.337396,54.7583008 128.70166,54.7583008 C129.94776,54.7583008 130.976314,54.3031051 131.787354,53.3927002 C132.598393,52.4822953 133.003906,51.3288644 133.003906,49.932373 C133.003906,48.326408 132.517827,46.9876763 131.545654,45.9161377 C130.573481,44.8445991 129.362312,44.3088379 127.912109,44.3088379 Z M126.913086,41.0136719 C127.020508,41.0136719 127.170897,41.1237782 127.364258,41.3439941 C127.557618,41.5642101 127.659668,41.7414544 127.67041,41.8757324 C127.681152,42.0046393 127.589845,42.1899402 127.396484,42.4316406 C127.203124,42.6733411 127.050049,42.7941895 126.937256,42.7941895 C126.829833,42.7941895 126.674073,42.6760266 126.469971,42.4396973 C126.265868,42.203368 126.161133,42.0207526 126.155762,41.8918457 C126.150391,41.7629388 126.245727,41.5843517 126.441772,41.3560791 C126.637818,41.1278065 126.794921,41.0136719 126.913086,41.0136719 Z M129.869873,41.0136719 C129.977295,41.0136719 130.129027,41.125121 130.325073,41.3480225 C130.521119,41.570924 130.621826,41.7468255 130.627197,41.8757324 C130.632568,42.0100104 130.539918,42.1966541 130.349243,42.4356689 C130.158568,42.6746838 130.006837,42.7941895 129.894043,42.7941895 C129.786621,42.7941895 129.63086,42.6760266 129.426758,42.4396973 C129.222655,42.203368 129.11792,42.0207526 129.112549,41.8918457 C129.107178,41.7629388 129.202514,41.5843517 129.39856,41.3560791 C129.594605,41.1278065 129.751708,41.0136719 129.869873,41.0136719 Z M138.17627,45.2836914 L138.17627,52.0029297 L138.168213,52.7844238 L138.192383,53.4611816 C138.251465,54.1110872 138.493162,54.4897456 138.91748,54.597168 C139.212892,54.6777348 139.43579,54.7180176 139.586182,54.7180176 C139.747315,54.7180176 139.830566,54.7663569 139.835938,54.8630371 C139.84668,55.0026862 139.752687,55.0725098 139.553955,55.0725098 C139.462646,55.0725098 139.282716,55.0617677 139.01416,55.0402832 C138.842284,55.029541 138.56299,55.0241699 138.17627,55.0241699 L137.604248,55.0080566 L136.97583,55.0161133 C136.658934,55.0161133 136.419923,55.0268554 136.258789,55.0483398 C136.049315,55.0751954 135.896241,55.088623 135.799561,55.088623 C135.659911,55.088623 135.590088,55.0349126 135.590088,54.9274902 C135.590088,54.8254389 135.67871,54.7609865 135.855957,54.7341309 C136.274904,54.6696774 136.560912,54.4333517 136.713989,54.0251465 C136.867066,53.6169413 136.943604,52.8811088 136.943604,51.817627 L136.943604,46.9272461 C136.943604,45.7993108 136.876466,45.0863052 136.742188,44.788208 C136.607909,44.4901108 136.272219,44.3115237 135.735107,44.2524414 C135.590087,44.2416992 135.520264,44.1879888 135.525635,44.0913086 C135.531006,43.9677728 135.635741,43.9060059 135.839844,43.9060059 C135.941895,43.9060059 136.078857,43.9194335 136.250732,43.9462891 C136.589113,43.9946291 136.868407,44.0187988 137.088623,44.0187988 C137.432375,44.0187988 137.931881,43.9892581 138.587158,43.9301758 C138.925539,43.9033202 139.202147,43.8898926 139.416992,43.8898926 C140.539556,43.8898926 141.45129,44.1597873 142.152222,44.699585 C142.853153,45.2393826 143.203613,45.9443316 143.203613,46.8144531 C143.203613,47.8671928 142.77393,48.6970184 141.914551,49.3039551 C141.270016,49.7551292 140.587894,49.9807129 139.868164,49.9807129 C139.529783,49.9807129 139.219606,49.9431156 138.937622,49.8679199 C138.655638,49.7927242 138.520019,49.7121586 138.530762,49.6262207 C138.541504,49.5617673 138.592529,49.529541 138.683838,49.529541 C138.726807,49.529541 138.780517,49.5375976 138.844971,49.5537109 C138.968506,49.5913088 139.167235,49.6101074 139.441162,49.6101074 C140.214603,49.6101074 140.833616,49.3979513 141.298218,48.9736328 C141.76282,48.5493143 141.995117,47.9853551 141.995117,47.2817383 C141.995117,46.4706991 141.688968,45.7993191 141.07666,45.2675781 C140.464352,44.7358372 139.688237,44.4699707 138.748291,44.4699707 C138.533446,44.4699707 138.385743,44.5102535 138.305176,44.5908203 C138.224609,44.6713871 138.184326,44.8244618 138.184326,45.0500488 L138.17627,45.2836914 Z M150.196777,50.786377 L147.280273,50.786377 C146.882811,50.786377 146.635743,50.8186032 146.539062,50.8830566 C146.442382,50.9475101 146.313477,51.1623517 146.152344,51.5275879 L145.628662,52.7119141 C145.392333,53.2543972 145.27417,53.6572252 145.27417,53.9204102 C145.27417,54.1728528 145.33728,54.3554682 145.463501,54.4682617 C145.589722,54.5810553 145.838133,54.677734 146.20874,54.7583008 C146.369874,54.7905275 146.453125,54.85498 146.458496,54.9516602 C146.463867,55.0429692 146.388673,55.088623 146.23291,55.088623 C146.173828,55.088623 146.08252,55.0859375 145.958984,55.0805664 L145.185547,55.0402832 C144.927733,55.029541 144.62964,55.0241699 144.29126,55.0241699 C144.135497,55.0241699 144.014649,55.0268554 143.928711,55.0322266 C143.654784,55.053711 143.504395,55.0644531 143.477539,55.0644531 C143.332519,55.0644531 143.26001,55.0161138 143.26001,54.9194336 C143.26001,54.8334957 143.305664,54.7770997 143.396973,54.7502441 L143.695068,54.6616211 C143.802491,54.6293944 143.947509,54.4991466 144.130127,54.270874 C144.312745,54.0426014 144.463134,53.8049329 144.581299,53.5578613 L144.814941,53.026123 L148.956055,43.8334961 C149.025879,43.6723625 149.103759,43.5917969 149.189697,43.5917969 C149.275635,43.5917969 149.348144,43.669677 149.407227,43.8254395 L152.871582,52.6877441 L153.048828,53.1228027 C153.301271,53.7727083 153.510741,54.1768791 153.677246,54.3353271 C153.843751,54.4937752 154.182126,54.6186519 154.692383,54.7099609 C154.858888,54.7421877 154.939453,54.8093257 154.934082,54.911377 C154.928711,55.002686 154.853516,55.0483398 154.708496,55.0483398 C154.660156,55.0483398 154.558106,55.0429688 154.402344,55.0322266 C154.123045,55.005371 153.626224,54.9919434 152.911865,54.9919434 C152.165279,54.9919434 151.697999,55.0080565 151.51001,55.0402832 C151.397216,55.0617677 151.313965,55.0725098 151.260254,55.0725098 C151.120605,55.0725098 151.050781,55.0161138 151.050781,54.9033203 C151.050781,54.8173824 151.117919,54.7609865 151.252197,54.7341309 L151.501953,54.6777344 C151.770509,54.6240232 151.904785,54.4414078 151.904785,54.1298828 C151.904785,53.8452134 151.740968,53.2785687 151.41333,52.4299316 L151.010498,51.3664551 C150.897705,51.0710434 150.809082,50.9005129 150.744629,50.8548584 C150.680175,50.8092039 150.49756,50.786377 150.196777,50.786377 Z M150.293457,49.4973145 L149.028564,46.3068848 L148.964111,46.1376953 C148.899658,45.9658195 148.829834,45.8771973 148.754639,45.8718262 C148.717041,45.8664551 148.674073,45.9174799 148.625732,46.0249023 L147.054688,49.5134277 C146.984863,49.6638191 146.949951,49.7631834 146.949951,49.8115234 C146.949951,49.9511726 147.073485,50.0209961 147.320557,50.0209961 L147.538086,50.0290527 L149.971191,50.0290527 C150.239747,50.0290527 150.374023,49.9619147 150.374023,49.8276367 C150.374023,49.7900389 150.360596,49.7282719 150.33374,49.642334 L150.293457,49.4973145 Z M147.723389,41.0136719 C147.830811,41.0136719 147.9812,41.1237782 148.174561,41.3439941 C148.367921,41.5642101 148.469971,41.7414544 148.480713,41.8757324 C148.486084,42.0046393 148.393434,42.1899402 148.202759,42.4316406 C148.012084,42.6733411 147.860352,42.7941895 147.747559,42.7941895 C147.640136,42.7941895 147.483033,42.6733411 147.276245,42.4316406 C147.069457,42.1899402 146.966064,42.0100104 146.966064,41.8918457 C146.966064,41.7575677 147.062743,41.5776378 147.256104,41.3520508 C147.449464,41.1264637 147.605224,41.0136719 147.723389,41.0136719 Z M150.680176,41.0136719 C150.787598,41.0136719 150.93933,41.125121 151.135376,41.3480225 C151.331422,41.570924 151.432129,41.7468255 151.4375,41.8757324 C151.442871,42.0100104 151.350221,42.1966541 151.159546,42.4356689 C150.968871,42.6746838 150.817139,42.7941895 150.704346,42.7941895 C150.596923,42.7941895 150.441163,42.6760266 150.237061,42.4396973 C150.032958,42.203368 149.928223,42.0207526 149.922852,41.8918457 C149.91748,41.7629388 150.012816,41.5843517 150.208862,41.3560791 C150.404908,41.1278065 150.562011,41.0136719 150.680176,41.0136719 Z M157.923096,45.2836914 L157.923096,52.0029297 L157.915039,52.7844238 L157.939209,53.4611816 C157.998291,54.1110872 158.239988,54.4897456 158.664307,54.597168 C158.959718,54.6777348 159.182616,54.7180176 159.333008,54.7180176 C159.494141,54.7180176 159.577393,54.7663569 159.582764,54.8630371 C159.593506,55.0026862 159.499513,55.0725098 159.300781,55.0725098 C159.209472,55.0725098 159.029542,55.0617677 158.760986,55.0402832 C158.58911,55.029541 158.309816,55.0241699 157.923096,55.0241699 L157.351074,55.0080566 L156.722656,55.0161133 C156.40576,55.0161133 156.166749,55.0268554 156.005615,55.0483398 C155.796142,55.0751954 155.643067,55.088623 155.546387,55.088623 C155.406738,55.088623 155.336914,55.0349126 155.336914,54.9274902 C155.336914,54.8254389 155.425536,54.7609865 155.602783,54.7341309 C156.021731,54.6696774 156.307738,54.4333517 156.460815,54.0251465 C156.613892,53.6169413 156.69043,52.8811088 156.69043,51.817627 L156.69043,46.9272461 C156.69043,45.7993108 156.623292,45.0863052 156.489014,44.788208 C156.354736,44.4901108 156.019046,44.3115237 155.481934,44.2524414 C155.336913,44.2416992 155.26709,44.1879888 155.272461,44.0913086 C155.277832,43.9677728 155.382567,43.9060059 155.58667,43.9060059 C155.688721,43.9060059 155.825683,43.9194335 155.997559,43.9462891 C156.335939,43.9946291 156.615233,44.0187988 156.835449,44.0187988 C157.179201,44.0187988 157.678708,43.9892581 158.333984,43.9301758 C158.672365,43.9033202 158.948974,43.8898926 159.163818,43.8898926 C160.286383,43.8898926 161.198117,44.1597873 161.899048,44.699585 C162.599979,45.2393826 162.950439,45.9443316 162.950439,46.8144531 C162.950439,47.8671928 162.520756,48.6970184 161.661377,49.3039551 C161.016842,49.7551292 160.33472,49.9807129 159.61499,49.9807129 C159.27661,49.9807129 158.966432,49.9431156 158.684448,49.8679199 C158.402464,49.7927242 158.266846,49.7121586 158.277588,49.6262207 C158.28833,49.5617673 158.339355,49.529541 158.430664,49.529541 C158.473633,49.529541 158.527343,49.5375976 158.591797,49.5537109 C158.715333,49.5913088 158.914061,49.6101074 159.187988,49.6101074 C159.96143,49.6101074 160.580442,49.3979513 161.045044,48.9736328 C161.509646,48.5493143 161.741943,47.9853551 161.741943,47.2817383 C161.741943,46.4706991 161.435794,45.7993191 160.823486,45.2675781 C160.211179,44.7358372 159.435063,44.4699707 158.495117,44.4699707 C158.280272,44.4699707 158.132569,44.5102535 158.052002,44.5908203 C157.971435,44.6713871 157.931152,44.8244618 157.931152,45.0500488 L157.923096,45.2836914 Z M169.846924,43.7851562 C171.528085,43.7851562 172.907099,44.3048044 173.984009,45.3441162 C175.060918,46.383428 175.599365,47.7141032 175.599365,49.3361816 C175.599365,51.0549402 175.05689,52.4648382 173.971924,53.565918 C172.886957,54.6669977 171.498544,55.2175293 169.806641,55.2175293 C168.071769,55.2175293 166.668584,54.6911674 165.597046,53.6384277 C164.525507,52.5856881 163.989746,51.2053308 163.989746,49.4973145 C163.989746,48.7560998 164.130736,48.0216101 164.41272,47.2938232 C164.694704,46.5660364 165.074705,45.9577661 165.552734,45.4689941 C166.05762,44.9533666 166.696773,44.5438248 167.470215,44.2403564 C168.243656,43.9368881 169.035885,43.7851562 169.846924,43.7851562 Z M169.323242,44.3088379 C168.077142,44.3088379 167.087528,44.7291218 166.35437,45.5697021 C165.621212,46.4102825 165.254639,47.5422292 165.254639,48.9655762 C165.254639,50.5930257 165.723262,51.9653264 166.660522,53.0825195 C167.597783,54.1997126 168.748528,54.7583008 170.112793,54.7583008 C171.358893,54.7583008 172.387447,54.3031051 173.198486,53.3927002 C174.009526,52.4822953 174.415039,51.3288644 174.415039,49.932373 C174.415039,48.326408 173.92896,46.9876763 172.956787,45.9161377 C171.984614,44.8445991 170.773445,44.3088379 169.323242,44.3088379 Z M184.695312,44.8486328 L182.431396,44.8486328 C182.195067,44.8486328 182.046021,44.8808591 181.984253,44.9453125 C181.922485,45.0097659 181.891602,45.1682116 181.891602,45.4206543 L181.891602,53.3161621 L181.899658,53.6303711 C181.926514,54.2587922 182.278317,54.6320795 182.955078,54.7502441 C183.143067,54.7824709 183.237061,54.8442378 183.237061,54.9355469 C183.237061,55.0537115 183.161866,55.112793 183.011475,55.112793 C182.947021,55.112793 182.815431,55.0966798 182.616699,55.0644531 C182.514648,55.0483398 182.272951,55.0402832 181.891602,55.0402832 L181.303467,55.0322266 L180.675049,55.0402832 C180.449462,55.0402832 180.25879,55.0483398 180.103027,55.0644531 C179.796873,55.0966798 179.616944,55.112793 179.563232,55.112793 C179.402099,55.112793 179.321533,55.0537115 179.321533,54.9355469 C179.321533,54.8496089 179.410155,54.7958985 179.587402,54.7744141 C180.000979,54.7207029 180.280273,54.6065683 180.425293,54.4320068 C180.570313,54.2574454 180.642822,53.9445823 180.642822,53.4934082 L180.642822,45.5092773 L180.634766,45.2998047 C180.634766,45.1064443 180.606568,44.9829104 180.550171,44.9291992 C180.493774,44.875488 180.363526,44.8486328 180.159424,44.8486328 L178.024414,44.8486328 C177.589353,44.8486328 177.273805,44.9359122 177.077759,45.1104736 C176.881713,45.2850351 176.729981,45.6140113 176.622559,46.0974121 C176.574219,46.3068858 176.501709,46.4089356 176.405029,46.4035645 C176.308349,46.3981933 176.26001,46.3256843 176.26001,46.1860352 C176.26001,46.0732416 176.292236,45.8664566 176.356689,45.5656738 C176.437256,45.1789531 176.477539,44.8593763 176.477539,44.6069336 C176.477539,44.359862 176.505737,44.1973881 176.562134,44.1195068 C176.618531,44.0416256 176.738036,44.0026855 176.920654,44.0026855 L185.5896,44.0026855 C185.885011,44.0026855 186.063598,44.0349118 186.125366,44.0993652 C186.187134,44.1638187 186.218018,44.3544906 186.218018,44.6713867 C186.218018,44.9882828 186.231445,45.2192376 186.258301,45.3642578 C186.285156,45.5468759 186.30127,45.6784664 186.306641,45.7590332 C186.312012,45.9201668 186.255616,46.0061035 186.137451,46.0168457 C186.040771,46.0222168 185.976319,45.9389657 185.944092,45.7670898 C185.874267,45.3857403 185.761475,45.1373297 185.605713,45.0218506 C185.44995,44.9063715 185.146487,44.8486328 184.695312,44.8486328 Z M189.61792,46.3552246 L189.61792,52.3815918 C189.61792,53.1335487 189.663574,53.6303699 189.754883,53.8720703 C189.862305,54.1459975 189.995238,54.3393549 190.153687,54.4521484 C190.312135,54.564942 190.560545,54.6455076 190.898926,54.6938477 C191.167482,54.7314455 191.301758,54.7985835 191.301758,54.8952637 C191.301758,55.0241706 191.218507,55.088623 191.052002,55.088623 C190.971435,55.088623 190.869385,55.0805665 190.74585,55.0644531 C190.579345,55.0429686 190.29468,55.0322266 189.891846,55.0322266 L188.723633,55.0161133 L187.772949,55.0725098 C187.617187,55.0886231 187.488282,55.0966797 187.38623,55.0966797 C187.24121,55.0966797 187.168701,55.0402838 187.168701,54.9274902 C187.168701,54.8308101 187.251952,54.7690431 187.418457,54.7421875 C187.826662,54.6723629 188.089843,54.5313731 188.208008,54.3192139 C188.326172,54.1070546 188.385254,53.6599155 188.385254,52.9777832 L188.385254,46.0812988 C188.385254,45.4152799 188.308717,44.966798 188.15564,44.7358398 C188.002563,44.5048817 187.676272,44.3491215 187.176758,44.2685547 C187.010253,44.236328 186.924316,44.1718755 186.918945,44.0751953 C186.913574,43.9570307 186.991454,43.8979492 187.152588,43.8979492 C187.195557,43.8979492 187.243896,43.9006347 187.297607,43.9060059 C187.689699,43.9489748 188.21069,43.970459 188.860596,43.970459 C189.258059,43.970459 189.59912,43.9624024 189.883789,43.9462891 L190.423584,43.9060059 C190.525635,43.9006347 190.592773,43.8979492 190.625,43.8979492 C190.77002,43.8979492 190.842529,43.9489741 190.842529,44.0510254 C190.842529,44.1477056 190.772706,44.2202146 190.633057,44.2685547 L190.214111,44.4296875 C189.816648,44.5800789 189.61792,45.2219182 189.61792,46.3552246 Z M195.023926,52.824707 L195.031982,53.1066895 C195.031982,53.7512239 195.093749,54.1325678 195.217285,54.2507324 C195.340821,54.3688971 195.743649,54.4279785 196.425781,54.4279785 C197.430181,54.4279785 198.301632,54.3084729 199.040161,54.069458 C199.77869,53.8304431 200.249999,53.5148945 200.454102,53.1228027 C200.529297,52.9777825 200.604492,52.9052734 200.679688,52.9052734 C200.765625,52.9052734 200.805908,52.9589838 200.800537,53.0664062 C200.779053,53.4209002 200.604494,53.8103006 200.276855,54.2346191 C199.814939,54.8200713 199.065679,55.112793 198.029053,55.112793 C197.857177,55.112793 197.658448,55.1047364 197.432861,55.088623 L196.562744,55.0241699 C196.052488,54.9865721 195.512698,54.9677734 194.943359,54.9677734 C194.282712,54.9677734 193.729494,54.9999997 193.283691,55.0644531 C193.095702,55.0913087 192.945313,55.1074218 192.83252,55.112793 C192.698242,55.1181641 192.631104,55.0698247 192.631104,54.9677734 C192.631104,54.8818355 192.703613,54.817383 192.848633,54.7744141 C193.21924,54.6616205 193.467651,54.496461 193.593872,54.2789307 C193.720093,54.0614003 193.783203,53.6948268 193.783203,53.1791992 L193.79126,52.8085938 L193.79126,45.605957 C193.79126,44.891598 193.501224,44.4753424 192.921143,44.3571777 L192.558594,44.284668 C192.429687,44.2578124 192.365234,44.204102 192.365234,44.1235352 C192.365234,43.9999994 192.456542,43.9382324 192.63916,43.9382324 C192.762696,43.9382324 192.931884,43.9489745 193.146729,43.970459 C193.511965,44.0026857 193.922849,44.0187988 194.379395,44.0187988 C194.873538,44.0187988 195.322019,44.0053712 195.724854,43.9785156 C195.928956,43.9677734 196.044433,43.9624023 196.071289,43.9624023 C196.200196,43.9624023 196.264648,44.0026851 196.264648,44.083252 C196.264648,44.2014166 196.186768,44.2792967 196.031006,44.3168945 L195.749023,44.3813477 C195.265623,44.4995123 195.023926,44.9802204 195.023926,45.8234863 L195.023926,52.824707 Z M207.302246,50.786377 L204.385742,50.786377 C203.988279,50.786377 203.741211,50.8186032 203.644531,50.8830566 C203.547851,50.9475101 203.418946,51.1623517 203.257812,51.5275879 L202.734131,52.7119141 C202.497802,53.2543972 202.379639,53.6572252 202.379639,53.9204102 C202.379639,54.1728528 202.442748,54.3554682 202.56897,54.4682617 C202.695191,54.5810553 202.943602,54.677734 203.314209,54.7583008 C203.475343,54.7905275 203.558594,54.85498 203.563965,54.9516602 C203.569336,55.0429692 203.494141,55.088623 203.338379,55.088623 C203.279297,55.088623 203.187989,55.0859375 203.064453,55.0805664 L202.291016,55.0402832 C202.033202,55.029541 201.735109,55.0241699 201.396729,55.0241699 C201.240966,55.0241699 201.120118,55.0268554 201.03418,55.0322266 C200.760253,55.053711 200.609863,55.0644531 200.583008,55.0644531 C200.437988,55.0644531 200.365479,55.0161138 200.365479,54.9194336 C200.365479,54.8334957 200.411132,54.7770997 200.502441,54.7502441 L200.800537,54.6616211 C200.90796,54.6293944 201.052978,54.4991466 201.235596,54.270874 C201.418214,54.0426014 201.568603,53.8049329 201.686768,53.5578613 L201.92041,53.026123 L206.061523,43.8334961 C206.131348,43.6723625 206.209228,43.5917969 206.295166,43.5917969 C206.381104,43.5917969 206.453613,43.669677 206.512695,43.8254395 L209.977051,52.6877441 L210.154297,53.1228027 C210.40674,53.7727083 210.61621,54.1768791 210.782715,54.3353271 C210.94922,54.4937752 211.287595,54.6186519 211.797852,54.7099609 C211.964356,54.7421877 212.044922,54.8093257 212.039551,54.911377 C212.03418,55.002686 211.958985,55.0483398 211.813965,55.0483398 C211.765625,55.0483398 211.663575,55.0429688 211.507812,55.0322266 C211.228514,55.005371 210.731693,54.9919434 210.017334,54.9919434 C209.270748,54.9919434 208.803468,55.0080565 208.615479,55.0402832 C208.502685,55.0617677 208.419434,55.0725098 208.365723,55.0725098 C208.226074,55.0725098 208.15625,55.0161138 208.15625,54.9033203 C208.15625,54.8173824 208.223388,54.7609865 208.357666,54.7341309 L208.607422,54.6777344 C208.875978,54.6240232 209.010254,54.4414078 209.010254,54.1298828 C209.010254,53.8452134 208.846437,53.2785687 208.518799,52.4299316 L208.115967,51.3664551 C208.003173,51.0710434 207.914551,50.9005129 207.850098,50.8548584 C207.785644,50.8092039 207.603029,50.786377 207.302246,50.786377 Z M207.398926,49.4973145 L206.134033,46.3068848 L206.06958,46.1376953 C206.005127,45.9658195 205.935303,45.8771973 205.860107,45.8718262 C205.82251,45.8664551 205.779541,45.9174799 205.731201,46.0249023 L204.160156,49.5134277 C204.090332,49.6638191 204.05542,49.7631834 204.05542,49.8115234 C204.05542,49.9511726 204.178954,50.0209961 204.426025,50.0209961 L204.643555,50.0290527 L207.07666,50.0290527 C207.345216,50.0290527 207.479492,49.9619147 207.479492,49.8276367 C207.479492,49.7900389 207.466065,49.7282719 207.439209,49.642334 L207.398926,49.4973145 Z M218.315674,50.786377 L215.39917,50.786377 C215.001707,50.786377 214.754639,50.8186032 214.657959,50.8830566 C214.561279,50.9475101 214.432374,51.1623517 214.27124,51.5275879 L213.747559,52.7119141 C213.511229,53.2543972 213.393066,53.6572252 213.393066,53.9204102 C213.393066,54.1728528 213.456176,54.3554682 213.582397,54.4682617 C213.708619,54.5810553 213.957029,54.677734 214.327637,54.7583008 C214.48877,54.7905275 214.572021,54.85498 214.577393,54.9516602 C214.582764,55.0429692 214.507569,55.088623 214.351807,55.088623 C214.292724,55.088623 214.201417,55.0859375 214.077881,55.0805664 L213.304443,55.0402832 C213.04663,55.029541 212.748537,55.0241699 212.410156,55.0241699 C212.254394,55.0241699 212.133545,55.0268554 212.047607,55.0322266 C211.77368,55.053711 211.623291,55.0644531 211.596436,55.0644531 C211.451415,55.0644531 211.378906,55.0161138 211.378906,54.9194336 C211.378906,54.8334957 211.42456,54.7770997 211.515869,54.7502441 L211.813965,54.6616211 C211.921387,54.6293944 212.066405,54.4991466 212.249023,54.270874 C212.431642,54.0426014 212.582031,53.8049329 212.700195,53.5578613 L212.933838,53.026123 L217.074951,43.8334961 C217.144776,43.6723625 217.222656,43.5917969 217.308594,43.5917969 C217.394532,43.5917969 217.467041,43.669677 217.526123,43.8254395 L220.990479,52.6877441 L221.167725,53.1228027 C221.420167,53.7727083 221.629638,54.1768791 221.796143,54.3353271 C221.962647,54.4937752 222.301023,54.6186519 222.811279,54.7099609 C222.977784,54.7421877 223.05835,54.8093257 223.052979,54.911377 C223.047607,55.002686 222.972413,55.0483398 222.827393,55.0483398 C222.779052,55.0483398 222.677003,55.0429688 222.52124,55.0322266 C222.241942,55.005371 221.745121,54.9919434 221.030762,54.9919434 C220.284176,54.9919434 219.816895,55.0080565 219.628906,55.0402832 C219.516113,55.0617677 219.432862,55.0725098 219.37915,55.0725098 C219.239501,55.0725098 219.169678,55.0161138 219.169678,54.9033203 C219.169678,54.8173824 219.236816,54.7609865 219.371094,54.7341309 L219.62085,54.6777344 C219.889406,54.6240232 220.023682,54.4414078 220.023682,54.1298828 C220.023682,53.8452134 219.859865,53.2785687 219.532227,52.4299316 L219.129395,51.3664551 C219.016601,51.0710434 218.927979,50.9005129 218.863525,50.8548584 C218.799072,50.8092039 218.616457,50.786377 218.315674,50.786377 Z M218.412354,49.4973145 L217.147461,46.3068848 L217.083008,46.1376953 C217.018554,45.9658195 216.948731,45.8771973 216.873535,45.8718262 C216.835937,45.8664551 216.792969,45.9174799 216.744629,46.0249023 L215.173584,49.5134277 C215.103759,49.6638191 215.068848,49.7631834 215.068848,49.8115234 C215.068848,49.9511726 215.192382,50.0209961 215.439453,50.0209961 L215.656982,50.0290527 L218.090088,50.0290527 C218.358644,50.0290527 218.49292,49.9619147 218.49292,49.8276367 C218.49292,49.7900389 218.479492,49.7282719 218.452637,49.642334 L218.412354,49.4973145 Z M231.149902,44.8486328 L228.885986,44.8486328 C228.649657,44.8486328 228.500611,44.8808591 228.438843,44.9453125 C228.377075,45.0097659 228.346191,45.1682116 228.346191,45.4206543 L228.346191,53.3161621 L228.354248,53.6303711 C228.381104,54.2587922 228.732907,54.6320795 229.409668,54.7502441 C229.597657,54.7824709 229.69165,54.8442378 229.69165,54.9355469 C229.69165,55.0537115 229.616456,55.112793 229.466064,55.112793 C229.401611,55.112793 229.270021,55.0966798 229.071289,55.0644531 C228.969238,55.0483398 228.727541,55.0402832 228.346191,55.0402832 L227.758057,55.0322266 L227.129639,55.0402832 C226.904052,55.0402832 226.71338,55.0483398 226.557617,55.0644531 C226.251463,55.0966798 226.071533,55.112793 226.017822,55.112793 C225.856689,55.112793 225.776123,55.0537115 225.776123,54.9355469 C225.776123,54.8496089 225.864745,54.7958985 226.041992,54.7744141 C226.455568,54.7207029 226.734863,54.6065683 226.879883,54.4320068 C227.024903,54.2574454 227.097412,53.9445823 227.097412,53.4934082 L227.097412,45.5092773 L227.089355,45.2998047 C227.089355,45.1064443 227.061158,44.9829104 227.004761,44.9291992 C226.948364,44.875488 226.818116,44.8486328 226.614014,44.8486328 L224.479004,44.8486328 C224.043943,44.8486328 223.728395,44.9359122 223.532349,45.1104736 C223.336303,45.2850351 223.184571,45.6140113 223.077148,46.0974121 C223.028808,46.3068858 222.956299,46.4089356 222.859619,46.4035645 C222.762939,46.3981933 222.7146,46.3256843 222.7146,46.1860352 C222.7146,46.0732416 222.746826,45.8664566 222.811279,45.5656738 C222.891846,45.1789531 222.932129,44.8593763 222.932129,44.6069336 C222.932129,44.359862 222.960327,44.1973881 223.016724,44.1195068 C223.07312,44.0416256 223.192626,44.0026855 223.375244,44.0026855 L232.044189,44.0026855 C232.339601,44.0026855 232.518188,44.0349118 232.579956,44.0993652 C232.641724,44.1638187 232.672607,44.3544906 232.672607,44.6713867 C232.672607,44.9882828 232.686035,45.2192376 232.712891,45.3642578 C232.739746,45.5468759 232.755859,45.6784664 232.76123,45.7590332 C232.766602,45.9201668 232.710206,46.0061035 232.592041,46.0168457 C232.495361,46.0222168 232.430908,45.9389657 232.398682,45.7670898 C232.328857,45.3857403 232.216065,45.1373297 232.060303,45.0218506 C231.90454,44.9063715 231.601076,44.8486328 231.149902,44.8486328 Z M243.130127,49.4731445 L245.35376,52.7602539 L245.611572,53.1469727 C246.299076,54.1567433 246.932858,54.6804197 247.512939,54.7180176 L247.770752,54.7341309 C247.867432,54.739502 247.913086,54.7770993 247.907715,54.8469238 C247.902344,54.9274906 247.782838,54.9999997 247.549194,55.0644531 C247.315551,55.1289066 247.051027,55.1611328 246.755615,55.1611328 C246.272214,55.1611328 245.838503,55.0281996 245.454468,54.7623291 C245.070433,54.4964586 244.679689,54.0627471 244.282227,53.4611816 L242.276123,50.3996582 L242.16333,50.2224121 C242.034423,50.0021962 241.824953,49.8920898 241.534912,49.8920898 L240.463379,49.8920898 L240.286133,49.9243164 C240.221679,49.9619143 240.189453,50.0478509 240.189453,50.1821289 L240.189453,52.6958008 L240.19751,53.0180664 C240.19751,53.4799828 240.220337,53.7955314 240.265991,53.9647217 C240.311646,54.133912 240.420409,54.2856439 240.592285,54.4199219 C240.823243,54.60254 241.180418,54.7180173 241.663818,54.7663574 C241.857179,54.7878419 241.956543,54.8496089 241.961914,54.9516602 C241.972656,55.0590826 241.884034,55.112793 241.696045,55.112793 C241.620849,55.112793 241.462404,55.1020509 241.220703,55.0805664 C241.000487,55.0590819 240.659426,55.0483398 240.19751,55.0483398 L239.424072,55.0402832 L239.005127,55.0483398 C238.822509,55.0483398 238.602296,55.0617674 238.344482,55.088623 C238.135009,55.1101075 237.989991,55.1208496 237.909424,55.1208496 C237.775146,55.1208496 237.708008,55.0644537 237.708008,54.9516602 C237.708008,54.8710933 237.775146,54.8173829 237.909424,54.7905273 C238.339113,54.7099605 238.621093,54.5152603 238.755371,54.2064209 C238.889649,53.8975815 238.956787,53.2893112 238.956787,52.3815918 L238.956787,46.5969238 L238.940674,45.7590332 C238.940674,44.9211384 238.647952,44.4538579 238.0625,44.3571777 L237.683838,44.3007812 C237.511962,44.2685545 237.426025,44.204102 237.426025,44.1074219 C237.426025,43.9946283 237.517333,43.9382324 237.699951,43.9382324 C237.74292,43.9382324 237.930907,43.9489745 238.263916,43.970459 C238.457276,43.9865723 238.696288,43.9946289 238.980957,43.9946289 C239.228029,43.9946289 239.649655,43.9758303 240.24585,43.9382324 C240.675539,43.9113768 241.054198,43.8979492 241.381836,43.8979492 C242.617194,43.8979492 243.549069,44.1302467 244.17749,44.5948486 C244.805911,45.0594506 245.120117,45.750972 245.120117,46.6694336 C245.120117,47.8779357 244.456794,48.8124967 243.130127,49.4731445 Z M240.761475,49.2958984 L241.671875,49.2958984 C242.375492,49.2958984 242.928709,49.102541 243.331543,48.7158203 C243.734377,48.3290996 243.935791,47.8000522 243.935791,47.1286621 C243.935791,46.3498496 243.661868,45.7093531 243.114014,45.2071533 C242.566159,44.7049535 241.867924,44.4538574 241.019287,44.4538574 C240.702391,44.4538574 240.483521,44.5062251 240.362671,44.6109619 C240.241821,44.7156988 240.181396,44.9050279 240.181396,45.1789551 L240.189453,45.4448242 L240.189453,48.7158203 C240.189453,48.968263 240.223022,49.1280514 240.290161,49.1951904 C240.3573,49.2623294 240.514403,49.2958984 240.761475,49.2958984 Z M253.305664,53.3483887 C253.305664,53.9714387 253.356689,54.3527825 253.45874,54.4924316 C253.560792,54.6320808 253.853513,54.726074 254.336914,54.7744141 C254.503419,54.7905274 254.58667,54.8469233 254.58667,54.9436035 C254.58667,55.0725104 254.492677,55.1369629 254.304688,55.1369629 C254.245605,55.1369629 254.105958,55.1235353 253.885742,55.0966797 C253.751464,55.0805663 253.555421,55.0644532 253.297607,55.0483398 L252.661133,55.0161133 L252.032715,55.0322266 C251.635252,55.0322266 251.369385,55.0402831 251.235107,55.0563965 C251.079345,55.077881 250.977295,55.088623 250.928955,55.088623 C250.805419,55.088623 250.743652,55.0429692 250.743652,54.9516602 C250.743652,54.8442377 250.832275,54.7770997 251.009521,54.7502441 C251.460696,54.6857907 251.746703,54.5662851 251.867554,54.3917236 C251.988404,54.2171622 252.048828,53.8425322 252.048828,53.2678223 L252.056885,52.9213867 L252.056885,50.5205078 C252.056885,50.1767561 252.032715,49.9243172 251.984375,49.7631836 C251.936035,49.60205 251.817872,49.3737808 251.629883,49.0783691 L249.38208,45.5092773 L249.108154,45.0661621 C248.952392,44.8137194 248.732179,44.6082772 248.44751,44.4498291 C248.16284,44.291381 247.880861,44.2121582 247.601562,44.2121582 C247.4458,44.2121582 247.36792,44.1638188 247.36792,44.0671387 C247.36792,43.948974 247.451171,43.8898926 247.617676,43.8898926 C247.751954,43.8898926 247.888915,43.8979491 248.028564,43.9140625 C248.377687,43.9516603 248.742918,43.970459 249.124268,43.970459 C249.913822,43.970459 250.4187,43.9597169 250.638916,43.9382324 C250.875245,43.9167479 251.017578,43.9060059 251.065918,43.9060059 C251.22168,43.9060059 251.299561,43.9597163 251.299561,44.0671387 C251.299561,44.1477055 251.237794,44.2067869 251.114258,44.2443848 C250.754393,44.3518072 250.574463,44.5344225 250.574463,44.7922363 C250.574463,44.9318855 250.68994,45.1896954 250.920898,45.5656738 L251.146484,45.9523926 L252.830322,48.611084 L252.935059,48.7722168 C252.983399,48.8474125 253.031738,48.8850098 253.080078,48.8850098 C253.13916,48.8850098 253.195556,48.8474125 253.249268,48.7722168 L253.329834,48.6513672 L254.498047,46.8789062 L254.892822,46.2504883 C255.268801,45.6542939 255.456787,45.2541514 255.456787,45.0500488 C255.456787,44.6901837 255.118412,44.4296883 254.44165,44.2685547 C254.307372,44.236328 254.24292,44.174561 254.248291,44.083252 C254.253662,43.9919429 254.315429,43.9462891 254.433594,43.9462891 C254.514161,43.9462891 254.656493,43.9624022 254.860596,43.9946289 C255.016358,44.0214845 255.392331,44.0349121 255.988525,44.0349121 C256.53638,44.0349121 256.885497,44.0268555 257.035889,44.0107422 C257.239991,43.9892577 257.382324,43.9758301 257.462891,43.970459 C257.607911,43.9597167 257.68042,44.0080561 257.68042,44.1154785 C257.68042,44.2014164 257.613282,44.2658689 257.479004,44.3088379 C257.000974,44.4646004 256.603517,44.7653786 256.286621,45.2111816 L255.762939,45.9926758 L253.805176,48.9091797 L253.611816,49.1831055 C253.407714,49.473146 253.305664,49.7390125 253.305664,49.9807129 L253.305664,53.3483887 Z" id="SYPPOTILAAT-RY" fill="#1A1919"></path>
            </g>
        </g>
    </g>
</svg>