<svg xmlns="http://www.w3.org/2000/svg" xmlns:xlink="http://www.w3.org/1999/xlink" viewBox="0 0 664.04 369.3"><defs><style>.cls-1{fill:none;}.cls-2{clip-path:url(#clip-path);}.cls-3{fill:#007fa3;}.cls-4{fill:#272525;}.cls-5{clip-path:url(#clip-path-2);}</style><clipPath id="clip-path" transform="translate(0)"><rect class="cls-1" y="43.02" width="289.54" height="292.43"/></clipPath><clipPath id="clip-path-2" transform="translate(0)"><rect class="cls-1" x="320.47" width="343.57" height="369.3"/></clipPath></defs><title>Asset 2</title><g id="Layer_2" data-name="Layer 2"><g id="Layer_1-2" data-name="Layer 1"><g class="cls-2"><path class="cls-3" d="M174.78,183.29c2-1.86,5.43-1.48,7.54.83,36.54,40.08,37.55,98.66,2.26,130.84S91,340.72,54.5,300.64l0-.05c-2.11-2.31-2.11-5.71-.07-7.56Z" transform="translate(0)"/><path class="cls-3" d="M83.25,210.24c-2,1.85-5.43,1.48-7.54-.83-36.54-40.09-37.55-98.67-2.26-130.84S167,52.81,203.53,92.89a.08.08,0,0,0,0,0c2.1,2.32,2.1,5.71.06,7.57Z" transform="translate(0)"/><path class="cls-3" d="M239,120.5a5,5,0,0,1-3.54-1.45L214.05,98a5,5,0,0,1,7.08-7.19l21.41,21.1A5,5,0,0,1,239,120.5" transform="translate(0)"/><path class="cls-3" d="M252.55,105.49A5,5,0,0,1,249,104L227.6,82.93a5,5,0,0,1,7.08-7.19l21.41,21.11a5,5,0,0,1-3.54,8.64" transform="translate(0)"/><path class="cls-3" d="M.2,304.69l18.46-42.22a2.28,2.28,0,0,1,3.78-.61L48,290.34a2.28,2.28,0,0,1-1,3.69L3,307.77A2.27,2.27,0,0,1,.2,304.69" transform="translate(0)"/><path class="cls-3" d="M263.79,88.2,244.37,69a5,5,0,0,1,0-7l17.33-17.5a4.94,4.94,0,0,1,7,0l19.42,19.22a5,5,0,0,1,0,7l-17.33,17.5a4.94,4.94,0,0,1-7,0" transform="translate(0)"/></g><polygon class="cls-4" points="376.21 104.64 344.21 23.48 343.73 23.48 343.73 104.16 337.27 104.16 337.27 16.55 348.47 16.55 379.74 96.24 411.01 16.55 422.08 16.55 422.08 104.16 415.88 104.16 415.88 23.48 415.27 23.48 383.14 104.64 376.21 104.64"/><rect class="cls-4" x="440.57" y="16.55" width="6.45" height="87.6"/><polygon class="cls-4" points="471.95 26.65 471.95 104.15 465.5 104.15 465.5 16.55 473.05 16.55 525.37 94.54 525.37 16.55 531.82 16.55 531.82 104.15 524.15 104.15 471.95 26.65"/><path class="cls-4" d="M577,22.27H579l19.23,54.39h-40.4Zm-3.9-5.84-31.63,87.73h7.17L556,82.5h44.16l7.55,21.66h7.17L583.15,16.43ZM560.88,9.86h5.84V0h-5.84Zm28.84,0h5.84V0h-5.84Z" transform="translate(0)"/><g class="cls-5"><path class="cls-4" d="M624.39,93.57h4.87a21.36,21.36,0,0,1,.85,6.45c0,4.13-1,10.46-2.92,14.35h-2.8Z" transform="translate(0)"/><path class="cls-4" d="M344.07,333.78c0,14.48-6.45,25.18-17.76,35.52-.73-.72-5.23-6.57-5.84-7.17,8.63-7.92,14.23-16.31,14.23-28.72V256.27h9.37Z" transform="translate(0)"/></g><path class="cls-4" d="M369.86,314.92h36.75l-17.52-50.5h-1.83Zm11.56-58.77h13.75l31.27,87.73H416.22L409,323.31H367.67l-7.18,20.57h-10.1Z" transform="translate(0)"/><polygon class="cls-4" points="519.75 264.67 488.61 264.67 488.61 343.88 479.23 343.88 479.23 264.67 448.09 264.67 448.09 256.27 519.75 256.27 519.75 264.67"/><polygon class="cls-4" points="548.95 343.88 548.95 312.24 519.14 256.27 529.97 256.27 553.69 302.38 577.42 256.27 588.13 256.27 558.32 312.24 558.32 343.88 548.95 343.88"/><g class="cls-5"><path class="cls-4" d="M642.75,249.58h-8.16V237.9h8.16Zm-26.89,0h-8.27V237.9h8.27Zm9.25,13.63c-17.52,0-28.35,10.58-28.35,36.74s10.83,37.11,28.35,37.11,28.47-10.83,28.47-37.11-10.83-36.74-28.47-36.74m.24-8.4c26.89,0,37.84,17.27,37.84,45.14s-11,45.39-37.84,45.39S587,327.94,587,300s11.44-45.14,38.33-45.14" transform="translate(0)"/><path class="cls-4" d="M379.36,202.12c0-13.62-11.32-15.21-22.88-17.15-12.41-2.07-25.31-5.36-25.31-23.13,0-19,15.34-23.36,31.27-23.36a188.75,188.75,0,0,1,19.23,1.22V146c-5.35-.61-12.53-1.7-19.59-1.7-14.48,0-24.09,3.4-24.09,17.39,0,13.27,10.1,15.33,21.05,17.16,13,2.07,27.13,4.38,27.13,23.48,0,15.94-10.22,26.53-30.78,26.53a139.69,139.69,0,0,1-23.12-1.95v-6.45c10,1.83,15.45,2.44,22.75,2.44,15.94,0,24.34-6.45,24.34-20.81" transform="translate(0)"/></g><polygon class="cls-4" points="416.95 227.43 416.95 194.94 387.26 139.82 394.8 139.82 420.11 188.01 445.54 139.82 453.08 139.82 423.4 194.94 423.4 227.43 416.95 227.43"/><g class="cls-5"><path class="cls-4" d="M508.2,133.13h-5.85v-9.86h5.85Zm-28.84,0h-5.84v-9.86h5.84Zm11.44,11.2c-18.5,0-30.55,10.95-30.55,39.17s12.05,39.43,30.55,39.43,30.66-11.08,30.66-39.43-12.17-39.17-30.66-39.17m.24-6c26.77,0,37.23,17.65,37.23,45.14S517.81,228.89,491,228.89s-37.6-17.76-37.6-45.39,10.83-45.14,37.6-45.14" transform="translate(0)"/><path class="cls-4" d="M546.63,190.08h20.93c14.12,0,20.32-11.32,20.32-22.15s-6.2-22.15-20.32-22.15H546.63Zm0,6v31.39h-6.44V139.82h27.86c17.89,0,26.64,13.75,26.64,28.23,0,14.24-8.75,28-26.52,28Z" transform="translate(0)"/></g><path class="cls-4" d="M626.08,145.54h2.07l19.23,54.39H607Zm-3.89-5.84-31.64,87.73h7.18l7.42-21.65h44.17l7.54,21.65H664L632.29,139.7ZM610,133.13h5.84v-9.85H610Zm28.83,0h5.84v-9.85h-5.84Z" transform="translate(0)"/></g></g></svg>