<svg class="svg" aria-hidden="true" xmlns="http://www.w3.org/2000/svg" viewBox="0 0 48.53 56.09"><defs><style>.cls-1{fill:#0087b1;}</style></defs><title>Asset 6</title><g id="Layer_2" data-name="Layer 2"><g id="Layer_1-2" data-name="Layer 1"><path class="cls-1" d="M1.1,9.29c-.11,0-.28.06-.17.26l.37,0Z" transform="translate(-0.89)"/><path class="cls-1" d="M1.05,10.92c.24.19.61.37.84.11-.39-.14-.29-.24-.74-.37-.12-.2,0-.41.09-.42-.11,0-.06-.35-.29-.39a.86.86,0,0,0,.31,1C1.22,11,1.11,10.91,1.05,10.92Z" transform="translate(-0.89)"/><path class="cls-1" d="M9.53,31.28l0-.15A.44.44,0,0,0,9.53,31.28Z" transform="translate(-0.89)"/><path class="cls-1" d="M15.21,43.68c-.05-.09-.1-.12-.13-.11S15.19,43.71,15.21,43.68Z" transform="translate(-0.89)"/><path class="cls-1" d="M15.82,46l0-.13C15.78,45.88,15.78,45.93,15.82,46Z" transform="translate(-0.89)"/><path class="cls-1" d="M9.53,31.28l.06.37C9.7,31.63,9.58,31.45,9.53,31.28Z" transform="translate(-0.89)"/><path class="cls-1" d="M2.89,13.45a.75.75,0,0,0-.16-.15l.1.16Z" transform="translate(-0.89)"/><path class="cls-1" d="M6.68,26l0-.1-.16,0Z" transform="translate(-0.89)"/><path class="cls-1" d="M4.68,21.78c0,.1.3,0,.43,0a.33.33,0,0,1-.27-.12A.39.39,0,0,0,4.68,21.78Z" transform="translate(-0.89)"/><path class="cls-1" d="M2.21,14.84l-.08-.1Z" transform="translate(-0.89)"/><path class="cls-1" d="M8.05,29a.18.18,0,0,0-.07.08A.27.27,0,0,0,8.05,29Z" transform="translate(-0.89)"/><path class="cls-1" d="M6.75,8.87s0,0,0,0S6.72,8.88,6.75,8.87Z" transform="translate(-0.89)"/><path class="cls-1" d="M1.28,9.61l.06,0a.88.88,0,0,0-.05-.15Z" transform="translate(-0.89)"/><path class="cls-1" d="M17.12,50v0C17,49.87,17.07,49.92,17.12,50Z" transform="translate(-0.89)"/><path class="cls-1" d="M48.79,40.24c0,.29-.17.13-.31,0s-.28-.17-.25.19C48.29,40.34,48.92,40.89,48.79,40.24Z" transform="translate(-0.89)"/><path class="cls-1" d="M2.9,13.58c0,.06.05.11.07.17A.73.73,0,0,0,2.9,13.58Z" transform="translate(-0.89)"/><path class="cls-1" d="M48.23,40.46h0v0Z" transform="translate(-0.89)"/><path class="cls-1" d="M25.46,56.09a.3.3,0,0,0-.13-.09S25.37,56.05,25.46,56.09Z" transform="translate(-0.89)"/><path class="cls-1" d="M18.64,52.15l.05.19A.74.74,0,0,0,18.64,52.15Z" transform="translate(-0.89)"/><path class="cls-1" d="M29.07,54.43a.38.38,0,0,0,.26-.07l0,0A.22.22,0,0,1,29.07,54.43Z" transform="translate(-0.89)"/><path class="cls-1" d="M32.76,53l-.09,0-.11.05Z" transform="translate(-0.89)"/><path class="cls-1" d="M17.89,4.55a.94.94,0,0,1-.25-.18C17.76,4.54,17.24,4.79,17.89,4.55Z" transform="translate(-0.89)"/><path class="cls-1" d="M2.74,13.52a.15.15,0,0,1,.16.06l-.07-.12S2.75,13.48,2.74,13.52Z" transform="translate(-0.89)"/><path class="cls-1" d="M28.42,52.3l.61-.18A3.42,3.42,0,0,0,28.42,52.3Z" transform="translate(-0.89)"/><path class="cls-1" d="M34.87,17.37l-.09-.11A.14.14,0,0,0,34.87,17.37Z" transform="translate(-0.89)"/><path class="cls-1" d="M30.75,51.4a.82.82,0,0,0,.4.06.18.18,0,0,0,0-.1Z" transform="translate(-0.89)"/><path class="cls-1" d="M17.64,4.36h0Z" transform="translate(-0.89)"/><path class="cls-1" d="M14,6.35c.56-.2.14-.43.18-.68.63-.34.4.15.69.24.39-.24.59-.67.91-.77,0,.05.11.05.07.15.34-.44,1.3-.47,1.7-1l.1.06a1,1,0,0,1-.24-.45c.25-.09.4-.38.57-.18-.16,0-.14.14-.19.24L18,3.78c.35.25-.32.23-.24.48a4.75,4.75,0,0,1,1.43-.78c.18.3-.9.41-.28.53l-.65.07c.63.36-.38.08.22.49.84-.16.85-.46,1.68-.6.13-.24-.14-.25,0-.49C21.22,2.81,21.3,4,22,3.37c.16-.27.14-.73.8-.65l-.11.42c.8-.16.32-.65,1.21-.6-.11.18-.59.28-.46.29.6.17.33-.31.74-.4l.16.32A14,14,0,0,1,26.87,2c-.05.1-.17.21,0,.31.92-.17,1.43.61,1.71,1.63l.44.24c0,.08-.05.22-.14.14.08.44.18,0,.37.09s0,.37-.17.26A6.11,6.11,0,0,1,30.55,7.5l-.15-.12c.16.67.86.46.86,1.14l-.1-.09c.47,1.39,1.37,2.75,1.43,4,.47,0,.42,1.4,1,1.24a5.42,5.42,0,0,0,.19,1.85c.11.3.53.27.75.6l-.28.14.52.34-.22.41.23.3c-.05-.14,0-.34.08-.36a1.65,1.65,0,0,1,.26,1.43l.8,1.1c-.12,0-.26-.16-.4-.28.59.51-.24.25.3.72,0-.11.19,0,.25,0a3.14,3.14,0,0,0,.6,1.51h-.24c.38.92,1,1.85,1.48,2.86-.08-.41.29-.48.46-.2l-.23.26c.27.1,0-.36.37-.08.15.39-.21.41-.41.24l.32.41c-.07.07-.17,0-.29,0,.27.1.08.94.53,1.05l-.07.07c.49,1,.81,1.41,1.23,2.22.26-.11.36.24.69.38a12.07,12.07,0,0,0,.73,2.11c.38.45.29,0,.55.2-.21.15.17.86-.18.57A13.93,13.93,0,0,0,43,33.52c0-.17,0-.32.12-.29.14.18.13.5,0,.52l0,0c1,1,.77,3.17,1.75,3.9l-.05,0,.77.88c.2.49-.32-.18-.28.23.94.89.83,1.75,1.55,2.51a2.43,2.43,0,0,0,.14,1.38,2.24,2.24,0,0,1,.05.78,1.3,1.3,0,0,1-.09.4.4.4,0,0,1-.17.17l.18,0c.11.2-.16.14-.24.22.12.05.22-.09.26,0a3.54,3.54,0,0,1-2,1.82c-.24.1-.48.19-.73.27l-.79.21L41.6,47c-.82.27-.12,1-1.29,1l.17-.42c-1.48,1-3.32,1.27-4.79,2.2.06-.11,0-.2.19-.26-.43-.1-1.25.47-1.18.65-.26.08-.13-.14-.31-.17-.39,0-.74.61-1,.45,0,0,.06-.1.12-.15-.18.2-1,.37-.73.55-.64.11-1.09.56-1.63.59-.2.41-1.07.25-1,.7-.12-.44-1.18.06-1.48.41.07-.18-.38,0-.3-.24-.44.18-.8.41-.64.6-1-.2-1.42,1-2.06.47a4.51,4.51,0,0,1-3.11.71c.1-.2.35-.13.57-.1s.46,0,.44-.23a1.87,1.87,0,0,1-2.09-.44c-.13-.22.23,0,.34-.05-.81-.46-1.11-1.46-1.73-2.23,0,0,.12.06.19.14-.09-.17-.12-.43-.3-.33l.13.15c-.14.41-.89-.47-1-.45.67.09-.25-1,.65-.77-.09-.11-.24-.23-.36-.15,0-.2,0-.28.24-.16-.37-.64-.48-.31-.72-.94.09,0,.18.08.31.1a1.83,1.83,0,0,1-.75-1c.07,0,.11-.08.18.07-.41-.88-1.13-1.32-1.38-2.37.53.12,0-.38.31-.58l-.34-.48-.07.28c-.2-.46-.63-.75-.69-1.2l.29.28-.45-.83.09.55c-.38-.39-.4.24-.58-.41.09.11-.21-.46-.12-.78h0a1.13,1.13,0,0,1-.5-.73c.06-.14.4-.1.45-.19-.39-.1-.57-1-1-1.17a.28.28,0,0,0,.31-.07l-.31-.07c0-.25,0-.29.15-.33-.25-.65-.34.4-.5-.43,0,0,.07,0,.16.11-.26-.8-.83-1.38-1-2.12.25-.37.37.56.55.19a24.75,24.75,0,0,1-1.77-2.85l.05.19c-.55.1-.11-.82-.57-1.2.09.1.34,0,.27,0a10.92,10.92,0,0,0-1.4-2.2l.18.06a11.93,11.93,0,0,0-.57-1.49c-.18-.06-.28-.31-.39-.08.08-1.62-1.55-2.27-1.52-3.69.07.13.26.27.21.16l-.57-.92c-.17.18-.07.19-.13.47a1.13,1.13,0,0,1-.53-.53c.35.37.34-.17.37-.41-.05.06-.15,0-.21.08.13-.69-.46.11-.54-.71H7a2.62,2.62,0,0,1-.54-.7c.19-.23.24.22.45.15-.2-.39-.82-.57-.74-1,.14.14.26.38.4.51a1.14,1.14,0,0,0-.08-.84v0l-.18-.73v.21c-.86-.21-.57-1-1.29-1.44.69.47.28,0,.57-.07,0-.21,0-.5.08-.46-.36-.22-.06-.61-.58-.91.08-.06-.14-.35.12-.37-.25-.38-.12.16-.24.18-.58-.51-.29-1.66-1.09-2.4-.51-.72-.87-.74-1.33-1.42,0-.31.41.07.41.07a1.9,1.9,0,0,0-.44-1.09c.11,0,.15-.06.21-.22-.15-.29-.42-.07-.44-.53a1.5,1.5,0,0,1,.48.16c-.22-.32-.53-.61-.76-1,.12-.16.33.13.48.22-.24-.39-.57-1-.86-1.07v.31c-.07-.15.18-.16.27-.07.34.29.12.55,0,.61l-.16-.24c-.42.48.51,1,.69,1.58L2,13.62l.54.42c-.05.16-.24.33-.4.09,0,.46.27.28.2.7,0,.05,0,0-.08,0l.27.33c-.11,0-.24.17-.28-.08.06.76.74,1,.55,1.34l0-.05c.52.88.32,0,.94.53l-.49.76.32,0c0,.1.1.3,0,.32.34.27.09-.12.36,0,0,.57.67,1.21.27,1.51.29.07,0-.51.34-.08-.42.35.33.52.3,1-.3,0-.35-.47-.38,0,.53.07.27.86.51,1.18.34-.14.48.7.87,1.23-.13,0,.33,1.2.46,1.8H6.11c.38-.05.59.54.85.91-.21.08-.32.05-.51-.13l.18.38c.15,0,.26.13.42.37l-.3,0c.26.5.78.89.93,1.62.25-.07.4-.83.88-.21-.11.09-.31.22-.45.06.05.05.21.16.21.31L8,27.85c0,.34.25.07.34.32-.18.08,0,.24-.19.27s0-.24-.15-.3a1.41,1.41,0,0,1,.07.84.22.22,0,0,1,.36.07c.26.5-.13.27-.08.62.18.06.21.45.48.33.07.15,0,.23-.08.33.24.2.63,1.21.77.78l0-.08,0,0h0c.68.73.71,1.86,1.24,2.66l-.09.05a7.55,7.55,0,0,0,1,1.38c.07.15,0,.43-.13.42a1.72,1.72,0,0,1,.51,1c-.35-.32-.08.2-.31-.35.17.55.08.73.58,1.16-.32-.08-.1.52.08.73v-.43a3.66,3.66,0,0,1,.36.75h-.37c.13,1.21,1.51,1.59,1.27,2.67.34.18-.12-.64.25-.5.18.49,0,1.2,0,1.35.13.73.72.41.92,1.15.07-.13.32-.35.66.12.17.51-.19.8-.41.54-.06-.12-.06-.19,0-.2-.11-.14-.25-.32-.28-.08l.14,0c0,.29.3,1,.06.87.26.32.24.08.18-.22.12.69.43,1,.6,1.66,0-.13.11-.28.15-.18.28,1,.39.33.71.94,0,.44-.45,0,0,.63.06.44-.25.2-.41.09.46.49.34,1.15.43,1.49l-.21-.26a1.72,1.72,0,0,1,.25.45l.15-.26c0,.2.09.34,0,.38.21.12.31-.29.65,0,0,.28.41.7.15.89-.2-.81-.26.2-.56-.43a1.08,1.08,0,0,1,.17.47s-.07,0-.1-.05c0,.85.46.21.76,1-.2,0-.23.32-.14.43-.13-.32.2-.26.46,0,.09.56.34.51.44.78l-.08-.33c.21,0,.3.28.53.6-.11.09-.25-.27-.24-.12.47.23.18,1,.74,1.44.08.31-.25.22-.15.49.66.42.38.81,1.19,1.22-.05-.36-.13-.29.49-.18A5.25,5.25,0,0,1,20,54.56a6.11,6.11,0,0,0,.85.3,4.33,4.33,0,0,1-.84-.63c.41.15.34.15.36-.11.1.63.86.51,1.22,1l-.29.51c.81.71,1.82.36,2.95.38l-.38-.07c.14-.24.71-.09,1.05-.26,0,.2.24.23.42.32,0-.14.8-.19.78-.6l.54.1c.86-.18.73-.85,1.5-1.08-.15.29.25.29-.2.63.25-.1.49-.15.44-.28.2,0,.59-.52.89-.43.07-.12,0-.33.32-.42,0,0,0,.09,0,.09s.39-.29.07-.4c1,.28,2.12-.87,3-.63.52-.28,1.15-.59,1.64-.79,0,.07,0,.09-.07.11.75-.09.22-.69,1.06-.8.51.14-.35.32-.06.34.34.56.9-.45,1.56-.29l-.11.08c.47,0,.88-.6,1.54-.81a.09.09,0,0,0,0,.09A5.35,5.35,0,0,1,40,49.67c-.1.32-.23.24,0,.43.27-.14-.23-.35.3-.63.23.06.68,0,.83.25l-.52.22c.4.23.68-.28,1-.33l0,.16c.79-.36.66-.73,1.54-1L43,48.66c.34-.55.48.05.85-.41l.28.32,1.5-1.18c-.15.43-.79.9-1.16,1.22.33-.11,1.13-.52,1.18-.79-.1.11-.23.27-.38.28a4,4,0,0,1,1.23-1.26c.17.35.59.13,1-.24s.85-.89,1.26-1a9.56,9.56,0,0,0,.58-2.18A4.41,4.41,0,0,0,49.15,41c-.36.75-.18-.45-.72-.11-.17-.3-.23-.42-.2-.46l-.13-1c.06-.28.26.21.37.12-.28-.64.1-.38,0-.86-.15.18-.39-.07-.5-.46v.62c-.74-.71.06-1-.67-1.7l.31.18c-.33-.39-.84-1.65-1.51-1.86,0-.11.12-.29.26-.12-.48-1.1-1.68-2.14-1.83-3.11h.17c-.14-.18-.43-.22-.42-.54.06,0,.18,0,.14-.08s-.51-.41-.56-.72l.26.15c-.35-1.13-1.17-1.42-1.7-2.25.39-.2.11-1.09,0-1.53l.06,0a18.65,18.65,0,0,0-2.06-3c.09-.92-1-2.48-1.28-3.73,0,.2-.32.12-.46-.07s-.63-.6-.24-.73l0,.09c.26-.37-.09-.87-.29-1.31l-.51.16c.16-1.45-1.63-2.83-1.29-3.73-.25-.22-.4-.56-.64-.77L36,14.1a13,13,0,0,0-.9-2.08l.27.11c-.22-.53-1-.33-1.28-.81l.32-.32c-.42-.92-.5-2-1.25-2.76a.23.23,0,0,1,.27.11c-.18-.44-.48-1.79-.94-1.4.34-.17-.38-1-.75-1.41l.29,0c-.51-.28-.6-.26-.95-.81,0-.15.15-.21.17,0-.07-.52-.4-.25-.51-.89L31,4c-.2-.51-.27-.43-.59-.61a1.43,1.43,0,0,1-.29-1.18.88.88,0,0,1-.7-.43c0-.1.17,0,.24,0a1.79,1.79,0,0,0-1-.79,4.09,4.09,0,0,1-1-.39.21.21,0,0,0-.1-.19A2.92,2.92,0,0,1,29,1c.18-.21-.52-.67.24-.63A4.57,4.57,0,0,0,28,.19a9.16,9.16,0,0,1-1.2,0s-.07-.05-.09-.09l.07,0a.81.81,0,0,0-.42.06,1.91,1.91,0,0,0-.53,0c-.11-.21-.72,0-1,.05.08.27-.29.3.1.46-.05,0,0,0,.23-.09s.09,0,.11-.06v0l.73-.14a.81.81,0,0,1-.78.24c-.11.21-.23.42-.3.53C24.4.8,23.62.75,23.46.54c-.81.36-2,.6-2.35,1.26-.22.13-.31-.07-.42-.13.12-.09.28-.12.34-.22-.44.26-1.39.46-1.39.84-.64,0,.23-.42-.56-.12L19.15,2C17.37,2,16.86,3.74,14.88,3.64c.14,0,.21,0,.25,0-2.1.38-4,1.78-6.07,2-.59.12-.56.36-.83.66L8,6.15l-.44.56c-.71.55-1.67-.13-2.51.73l.21.14c-.38.11-1.12.58-1.14.34,0,0,0,.25-.23.21L3.82,8,3,8.61c-.74.18-.13-.63-1.16-.24-.35.21-.9.87-.72.91s.43-.07.5.07l-.31.22c.11.46,0,1,1,1L2.82,10l.28.13-.49.22c.36.08.47-.17.62-.37a.43.43,0,0,0,.34.13L4,9.48c.14.14-.12.44.3.37.2-.3-.41-.27,0-.58.36.08.34.28.6,0,.1.09,0,.19-.06.3.24-.26.76-.38.82-.67.39.12,1-.47,1.11,0a1.83,1.83,0,0,1,.65-.66c-.3.69,1-.37,1.1.2.19-.59,1.25-.72,1.8-1.22,0,.05-.06.15-.13.15a2.24,2.24,0,0,1,.81,0c-.1-.38.44-.69.67-1,.58.18-.11.53.16.82-.14-.29.67-.59.42-.78.43.09.34,0,.63.23-.11-.48.29-.2.47-.59.58,0,.29.38.78,0C14.42,6,14,6.35,14,6.35ZM26.87,1.9h0l-.24,0Zm.87.18A1,1,0,0,0,27.39,2c0-.1.05-.2.14-.17C27.47,1.83,27.67,1.94,27.74,2.08Zm-2.35-2c.19-.07.27,0,.31,0l-.35.09v0A.27.27,0,0,1,25.39.08Z" transform="translate(-0.89)"/><path class="cls-1" d="M25.11.51,25,.54l.13,0,.05-.1Z" transform="translate(-0.89)"/><path class="cls-1" d="M9.5,31.11v0a.07.07,0,0,1,0-.06S9.5,31.09,9.5,31.11Z" transform="translate(-0.89)"/><polygon class="cls-1" points="33.3 16.24 33.36 16.21 33.27 16.14 33.3 16.24"/><path class="cls-1" d="M7.57,24.85a.17.17,0,0,0,0-.11A.23.23,0,0,0,7.57,24.85Z" transform="translate(-0.89)"/><path class="cls-1" d="M6.44,22.29l-.07-.4A3.9,3.9,0,0,0,6.44,22.29Z" transform="translate(-0.89)"/><path class="cls-1" d="M5.68,20.28a.28.28,0,0,0-.13,0h.13Z" transform="translate(-0.89)"/><path class="cls-1" d="M20.27,51.2l.05.06C20.45,51.4,20.37,51.3,20.27,51.2Z" transform="translate(-0.89)"/><path class="cls-1" d="M15.68,42.13a1.42,1.42,0,0,1,.25.24C15.88,42.2,15.82,42.07,15.68,42.13Z" transform="translate(-0.89)"/><polygon class="cls-1" points="27.47 52.33 27.47 52.33 27.54 52.3 27.47 52.33"/><path class="cls-1" d="M16.13,42.8a.82.82,0,0,0-.2-.43A1.13,1.13,0,0,0,16.13,42.8Z" transform="translate(-0.89)"/><path class="cls-1" d="M2.21,11.67l0-.1h0Z" transform="translate(-0.89)"/><path class="cls-1" d="M2.14,11.58l-.07-.1S2.1,11.57,2.14,11.58Z" transform="translate(-0.89)"/><path class="cls-1" d="M1.92,11.28l.15.2C2,11.4,2,11.3,1.92,11.28Z" transform="translate(-0.89)"/><path class="cls-1" d="M3.13,14.35h0Z" transform="translate(-0.89)"/><path class="cls-1" d="M3.49,15.14c-.06-.2,0-.56-.17-.8H3.24C3.43,14.41,3.26,15,3.49,15.14Z" transform="translate(-0.89)"/><path class="cls-1" d="M3.74,19l-.21-.7c0,.16-.12.37-.27.08C3.33,19.3,3.4,18.06,3.74,19Z" transform="translate(-0.89)"/><path class="cls-1" d="M4.52,21.08c-.21-.34-.15.07-.21.07C4.5,21.34,4.55,21.38,4.52,21.08Z" transform="translate(-0.89)"/><path class="cls-1" d="M11.51,35.77l-.25.08C11.42,36.1,11.35,35.81,11.51,35.77Z" transform="translate(-0.89)"/><polygon class="cls-1" points="13.15 38 13.17 37.67 12.9 37.65 13.15 38"/><polygon class="cls-1" points="12.28 40.44 12.19 40.34 12.49 40.75 12.28 40.44"/><path class="cls-1" d="M32.19,53.49,32,53.23C31.83,53.35,31.92,53.7,32.19,53.49Z" transform="translate(-0.89)"/><path class="cls-1" d="M43.07,48.93a.52.52,0,0,0,.66-.14C43.47,48.87,43.18,48.85,43.07,48.93Z" transform="translate(-0.89)"/><polygon class="cls-1" points="36.91 18.01 37.11 18.18 36.84 17.81 36.91 18.01"/><path class="cls-1" d="M33.36,42.07s.15.15.15.11L33.35,42Z" transform="translate(-0.89)"/><path class="cls-1" d="M33.8,42.29a2.47,2.47,0,0,0-.31-.47,3.05,3.05,0,0,0,.21.38s-.09,0-.15-.1-.06,0,0,.11.18.1.12-.05A1.13,1.13,0,0,1,33.8,42.29Z" transform="translate(-0.89)"/><path class="cls-1" d="M35.58,42.56v0A0,0,0,0,0,35.58,42.56Z" transform="translate(-0.89)"/><path class="cls-1" d="M36.16,43.42s0,0,0,0Z" transform="translate(-0.89)"/><path class="cls-1" d="M36,43.69v0S36,43.69,36,43.69Z" transform="translate(-0.89)"/><path class="cls-1" d="M35.58,42.56l0,.08C35.61,42.57,35.58,42.58,35.58,42.56Z" transform="translate(-0.89)"/><path class="cls-1" d="M33.77,41.6a.23.23,0,0,0,0,.07.06.06,0,0,1,0,0Z" transform="translate(-0.89)"/><path class="cls-1" d="M35.11,42.58h0l0,.1Z" transform="translate(-0.89)"/><path class="cls-1" d="M34.81,42.58s0-.2,0-.29c0,.09,0,.13,0,.14Z" transform="translate(-0.89)"/><path class="cls-1" d="M34.23,42.32v0Z" transform="translate(-0.89)"/><path class="cls-1" d="M35.3,42.69l0,.08Z" transform="translate(-0.89)"/><path class="cls-1" d="M33.49,41.7v0S33.5,41.7,33.49,41.7Z" transform="translate(-0.89)"/><polygon class="cls-1" points="33.27 42.73 33.26 42.74 33.23 42.86 33.27 42.73"/><path class="cls-1" d="M35.83,44.05Z" transform="translate(-0.89)"/><path class="cls-1" d="M35.1,45.58c.06.18,0,.24,0,.45A1.82,1.82,0,0,0,35.1,45.58Z" transform="translate(-0.89)"/><path class="cls-1" d="M33.8,41.62l0,0S33.8,41.61,33.8,41.62Z" transform="translate(-0.89)"/><polygon class="cls-1" points="34.26 46.03 34.26 46.03 34.27 46.05 34.26 46.03"/><path class="cls-1" d="M36,44.68h0Z" transform="translate(-0.89)"/><path class="cls-1" d="M36.28,44.12l0,0Z" transform="translate(-0.89)"/><path class="cls-1" d="M36.32,44.94s0,0,0,0h0S36.29,44.94,36.32,44.94Z" transform="translate(-0.89)"/><path class="cls-1" d="M36.26,45.16h0Z" transform="translate(-0.89)"/><path class="cls-1" d="M32.05,42.71l.16.1C32.09,42.72,32.1,42.62,32.05,42.71Z" transform="translate(-0.89)"/><path class="cls-1" d="M33.82,41.7c0-.05,0-.07,0-.08h0A.24.24,0,0,0,33.82,41.7Z" transform="translate(-0.89)"/><path class="cls-1" d="M38,45.23l-.05.09A.16.16,0,0,0,38,45.23Z" transform="translate(-0.89)"/><path class="cls-1" d="M32.32,46.26h0Z" transform="translate(-0.89)"/><path class="cls-1" d="M37.87,45.6h-.16l0,0Z" transform="translate(-0.89)"/><path class="cls-1" d="M32.21,42.81Z" transform="translate(-0.89)"/><path class="cls-1" d="M32.28,42c-.08.06.14.24.23.37s-.17-.12-.29-.21c0,.1.14.32.1.34a.32.32,0,0,1-.09-.08c.12.2-.13.15,0,.38l-.06,0,.31.23s.1.15-.05.05c0,0,0-.06-.08-.1l0,.07c-.22-.13,0-.09-.19-.21,0,.11.15.29.07.29s0-.15-.23-.22h.13c-.37-.19,0,0-.33-.23-.14,0,0,.19-.1.24.11.1.18.11.29.2.14.25-.62-.2-.38.07.14.11.43.25.24.25l-.26-.14c-.07.09.36.21.14.25s-.06-.12-.09-.11c-.24,0,.13.11.11.16l-.24-.08c0,.13.14.31.16.44a.45.45,0,0,0-.23,0c.1.19-.08.35-.22.56l.22.05s-.09,0-.14,0,.14,0,.23,0-.12.07-.18,0c.19.12.44.24.25.41h-.07c-.06.11.46-.05.29.09h0c0,.21.24.29,0,.58.28-.15,0,.24.35,0-.12.2-.2.23-.22.44,0,0,.25-.13.32-.12l-.17.15.22-.11-.18.21h.08a.3.3,0,0,1,.1-.15c.12,0,0,.23-.07.32a1.07,1.07,0,0,0,.25,0,.38.38,0,0,1-.16.11c.22-.12-.14.19.06.08a.86.86,0,0,1,.13-.14c-.06.14,0,.2.1.19l-.1.13c.08.1.27.09.39.16a.54.54,0,0,1,.19-.33l-.11.22c.1-.12,0-.1.15-.23,0,0-.11.26-.18.31l.1,0c0,.06-.06.09-.11.17.09-.12,0,.27.14.05l0,.07c.13.06.22,0,.33,0,.08-.19.11-.13.2-.28,0,.09.08.27.18.29s.07-.17.13-.28c0,.19.05.19,0,.31.12,0,.15,0,.32-.12a.51.51,0,0,1,0-.18s0,.09,0,.18v0c.18-.26.32.6.49.21v0l.14-.21c.07,0,0,.15,0,.26.14-.32.24,0,.35-.19.17.56.33-.09.53.23l0-.13c0-.13.06.07.1.09s-.07-.11-.07-.18c.23-.23.64,0,1-.1.13,0-.32-.61,0-.44l.11.23c0-.38.43-.35.39-.72,0,0,.1.1.08.12.18.06.13-.17,0-.25,0,0,.11.07.19.09s-.13-.24,0-.18a.07.07,0,0,1,0,.06c0-.08.1-.15-.1-.21.13-.05,0-.2.13-.23-.2-.12.16-.13-.15-.23.32.1.3-.1.15-.18.1,0,.11,0,.25,0s-.05-.14-.22-.15c.42-.08-.31-.24.21-.27a6,6,0,0,1-.4-.45c.34,0,.05.15.4.12-.15-.14-.44-.17-.38-.31s.15,0,.21,0c-.15-.11,0-.26-.21-.34a.14.14,0,0,1,.09,0s0-.07-.11,0h0a2.63,2.63,0,0,1-.59,0c.44-.07.09-.13.64-.21a.42.42,0,0,0-.21,0,.38.38,0,0,1,.2-.06c-.1-.06-.25,0-.27-.05l.19,0c-.15,0-.29,0-.25-.07s.09,0,.1,0-.42,0-.34-.19c.32-.09.09-.08.34-.19l-.1,0-.11.08c0-.05-.23,0-.17-.09l.13,0-.1-.07L37,43c-.15,0-.31.17-.27.07s0,0,.11-.14h0c-.09,0-.18,0-.14,0a3,3,0,0,1,.32-.19c-.22.1-.13-.08-.36,0a.87.87,0,0,0,.2-.12l-.17.08a.46.46,0,0,1,.16-.13c0-.09-.27.22-.2.06l.07,0c0-.12-.2-.06-.18-.18.2-.2.1,0,.26-.16-.12-.08-.42,0-.46-.09v0c-.28.29.06-.2-.11-.1a.73.73,0,0,0,.13-.13c0-.1-.2,0-.37,0l.06-.08c0-.1-.08-.11-.11-.18-.06.09-.08.06-.13.2.09-.61-.38.17-.35-.33,0,0,.06-.07.05-.07l-.15.05a1.19,1.19,0,0,0,0,.25c0,.09-.08.16-.11.16a.62.62,0,0,0,.06-.37l0,.16c0-.32-.07.34-.11.12l0-.09S35.06,42,35,42c0-.2,0-.09.07-.25-.05,0-.13.36-.15.16,0,0,0,0,.08-.1,0-.24,0-.18-.07-.23h0l-.08-.11,0,.06c-.08.53-.13.09-.2.44.06-.33,0-.19,0-.41a.66.66,0,0,1-.06-.2c0,.19-.09-.14-.12.14,0-.07-.05,0-.06-.19-.05.07,0,.13,0,.22,0,.25-.27-.26-.31.1a2.56,2.56,0,0,0,0,.55.6.6,0,0,1-.08-.26c-.09-.08-.12,0-.12,0a.48.48,0,0,0-.11-.17s.11.25,0,.18-.08-.2-.1-.28a1.48,1.48,0,0,0,0,.3.66.66,0,0,1-.11-.25.38.38,0,0,0,0,.35l.07,0s-.11-.14-.12-.18.1,0,.14.08v.06c.25.34.06-.12.14-.13l.12.29L34,42a.77.77,0,0,1,.12.27c.1.13,0-.11.08,0s0,0,0,0v-.09c0,.06.09.2.05.16.11.15,0-.25.1,0v0c0-.13-.07-.22-.07-.5.07.18.12.36.18.54l0-.23s0,0,0,.11c0-.16,0-.09,0-.24.07.19.11-.12.16.24,0-.17-.06-.13,0-.25,0,.38,0-.07.1.1s0,.1,0,.28c0-.34.07.07.09,0,0-.27.06-.11.12-.19,0,.09.08.15.11.26v0c0-.27.09-.21.14-.25a1.71,1.71,0,0,1-.09.29h0a.3.3,0,0,1,.07-.15l-.06.2s.15-.22.15-.07c.07-.17.13-.52.24-.61a1.86,1.86,0,0,1-.12.3s0-.08,0,0l-.08.15c0,.08.06-.13.08-.11a1.94,1.94,0,0,1-.07.22s0-.07,0,0a.45.45,0,0,1,0,.23.78.78,0,0,1,.1-.19c.05,0-.06.17-.07.25.05-.09,0,0,.13-.19,0,0,0,.1-.06.16s.09,0,.19-.2h0c.18-.14.06.19.17.16l-.05.05c.09,0,.11,0,.24-.07a.47.47,0,0,1-.13.18c.06,0,.12-.07.07,0s-.08.09-.09.05-.1.15.08,0c-.15.12-.16.18-.11.16l.09-.11s0,0,0,0l-.2.15c-.2.23.51-.19.12.15.16-.08.08-.11.26-.2,0,0-.29.27-.28.28s.34-.14.28,0a1,1,0,0,1,.38-.17c0,.06-.31.22-.39.23s0,0,0,0a.35.35,0,0,0-.15.07l.08,0c-.07.06,0,.1-.18.15a.23.23,0,0,0,.17-.09c-.1.1,0,.07,0,.15l.14-.06c-.08.11.17,0,.22,0-.11.08-.3.11-.18.12a.84.84,0,0,1-.29.1c.18,0-.08.11-.1.14h-.08s0,0,0,0l.17-.06a.22.22,0,0,1-.1,0,3.52,3.52,0,0,1,.44-.11c-.08,0,.12,0-.11.1.06-.08-.23.07-.28,0s0,0,0,0h-.06c-.19.1.26,0,.27,0s-.24.07-.21.08.21-.07.32-.07c-.1.06.08,0,.07,0l0,0c.14,0,.12,0,.17,0-.1,0-.07,0-.12,0,.24,0-.22.12-.06.13-.09,0-.25,0-.3.07.17,0-.18.07,0,.1a.8.8,0,0,1,.31,0l-.14-.06.27,0s-.12,0-.09-.06a.54.54,0,0,0,.25,0c-.26.07.16.06,0,.13l-.44,0c-.19.07.23.09.12.17l.08,0c.18,0,0,.05.1.07a2,2,0,0,0-.3,0c.11,0,0,0,.29.06l-.2,0c-.08.05.42.1.36.16s-.26,0-.37-.07,0,0,.07,0c-.09,0,.19.07,0,.06.06,0,.21,0,.2.07h-.08a1.65,1.65,0,0,0,.26.07c-.46,0,0,.19-.41.09a.24.24,0,0,1,.05.15l-.05,0c-.14,0,.35.24.19.22s-.09-.1-.18-.13c-.4-.27,0,.08-.23-.06l0,0c-.13-.09.11.16,0,.17l0-.05a.6.6,0,0,1,.17.39,1.37,1.37,0,0,0-.18-.24s.21.24.2.31a1.29,1.29,0,0,1-.28-.29l0,0c-.18-.2,0,0-.08,0l-.06-.1c0,.06.14.31.07.33l0,.07c.11.28-.11-.13,0,.08l-.15-.25a.88.88,0,0,1,0,.36c-.06-.21-.06-.33-.09-.46s-.06,0,0,.19c0,0,0-.1,0-.07.08.23.08.35,0,.37-.19-.54-.18-.09-.34-.51,0,.22-.16,0-.23,0,.09.44,0,0,0,.47,0,0,0,0,0,0l-.1-.27c0-.13,0-.1,0-.2s0-.2-.06-.32c0,.17,0,.24,0,.18l0,.21c-.06.25-.07-.39-.12-.14l0-.15c0,.09-.1,0-.16.36a1.36,1.36,0,0,1,0-.21c-.06-.06-.22.37-.25.14l0-.11s-.07.2-.07.08a.36.36,0,0,0,0-.11s-.08.18-.09.11l0-.12c0-.15-.19.27-.29.32a1,1,0,0,0,.07-.49l0-.05c-.06-.06-.23.2-.38.27.12-.34-.08-.22,0-.43a1.15,1.15,0,0,1-.18.23c0-.06-.18.15,0-.09h0c.17-.25.1-.2.08-.23l-.26.3c.33-.47-.31,0,0-.38-.09.05-.1,0-.19.08l.17-.13c0-.07,0-.1,0-.12l.13-.07s-.54.3-.57.27l.27-.17s.2-.2-.08-.14l.14,0s.17-.14-.24,0c.27-.09,0-.06-.11-.06l.2,0c-.27,0-.34,0-.42,0s.17,0,.12,0-.2,0-.1,0H33s-.06,0-.22,0,0-.07.24-.07c-.11,0-.27,0-.21,0h.13c.14,0-.23-.1,0-.12l.12,0s0,.07,0,.06a3.29,3.29,0,0,1,.49,0c-.14,0-.45-.11-.35-.13h.08s0,0,0,0h.06c.16,0,.09,0,.1,0-.2,0-.17-.07-.34-.1,0,0,0,0,0,0h0a.09.09,0,0,1,0,0c-.1,0-.19-.08-.07-.07L32.63,44a4,4,0,0,1,.63.13,1.21,1.21,0,0,0-.37-.34s.11,0,.17.06a.22.22,0,0,0,.07.06c-.08-.07,0-.09-.23-.25.13,0,.21.16.2.09l.07,0c.21.08.08,0,0-.19s-.16-.28.09-.13c0,0,0,0-.08-.06.25.1.12-.4.43-.1.06,0,0-.11,0-.24l.09.21a2.38,2.38,0,0,1,0-.26c0-.21.21.52.21.15l0-.15s.08-.09.08.08c0,0,0-.15,0-.08v.12c0-.06,0-.13.07-.2,0,.09,0,.47,0,.5s.12-.33.13-.41a.42.42,0,0,1,0-.19l0-.06c.07-.34.22-.68.12-.94a1.37,1.37,0,0,0-.13.2v-.18h.09c0-.16-.08,0-.12.07a.49.49,0,0,0,0-.2L34,42c0-.13.06-.27,0-.34,0,.15,0,.3,0,.4,0-.15,0-.28-.08-.15a.31.31,0,0,1,0-.18c-.05.11-.14,0-.14.23-.07-.18-.15.08-.2-.25a.68.68,0,0,1-.07.29c0-.4-.16,0-.27-.38.05.35-.16.22-.17.45,0,0,0-.08,0-.07s-.13-.09-.2-.13a2.25,2.25,0,0,1,.15.54c-.2-.21-.14-.31-.3-.54.12.2,0,.27.15.42a.84.84,0,0,1-.25-.23c.21.31,0,.08.1.29-.17-.1-.23-.26-.23-.12A.32.32,0,0,1,32.28,42ZM31.82,44h0v0Zm0,.15a.14.14,0,0,0,0-.06c.07,0,.15,0,.14,0A.34.34,0,0,0,31.8,44.12Zm1.47.06h-.05l0,0h0Z" transform="translate(-0.89)"/><path class="cls-1" d="M33,44.09H33l.06,0Z" transform="translate(-0.89)"/><path class="cls-1" d="M35.59,42.52h0v0Z" transform="translate(-0.89)"/><polygon class="cls-1" points="31.24 46.21 31.28 46.17 31.23 46.19 31.24 46.21"/><path class="cls-1" d="M35.27,41.64v0Z" transform="translate(-0.89)"/><path class="cls-1" d="M35,41.54l0-.07A.14.14,0,0,0,35,41.54Z" transform="translate(-0.89)"/><path class="cls-1" d="M34.7,41.44v.09h0Z" transform="translate(-0.89)"/><path class="cls-1" d="M37.66,43.83h0S37.7,43.83,37.66,43.83Z" transform="translate(-0.89)"/><path class="cls-1" d="M36.82,43l.1,0S36.93,42.89,36.82,43Z" transform="translate(-0.89)"/><polygon class="cls-1" points="37.08 45.22 37.07 45.22 37.07 45.23 37.08 45.22"/><path class="cls-1" d="M36.94,43s0,0,0,0S36.91,43,36.94,43Z" transform="translate(-0.89)"/><path class="cls-1" d="M33.53,41.72h0l0,0Z" transform="translate(-0.89)"/><path class="cls-1" d="M33.54,41.75v0S33.55,41.77,33.54,41.75Z" transform="translate(-0.89)"/><path class="cls-1" d="M33.54,41.84v-.06S33.51,41.79,33.54,41.84Z" transform="translate(-0.89)"/><path class="cls-1" d="M33.91,41.62l0-.07Z" transform="translate(-0.89)"/><path class="cls-1" d="M34,41.55s-.12-.12-.14-.06l0,.06C33.86,41.43,34,41.68,34,41.55Z" transform="translate(-0.89)"/><path class="cls-1" d="M34.59,42.37l-.06,0a.8.8,0,0,1,0,.21C34.67,42.76,34.52,42.35,34.59,42.37Z" transform="translate(-0.89)"/><path class="cls-1" d="M34.76,42.48s0,.12,0,.16A.29.29,0,0,0,34.76,42.48Z" transform="translate(-0.89)"/><path class="cls-1" d="M35.79,42.89l-.14.13S35.7,43,35.79,42.89Z" transform="translate(-0.89)"/><polygon class="cls-1" points="35.83 42.44 35.9 42.34 35.75 42.44 35.83 42.44"/><polygon class="cls-1" points="34.82 43.38 34.79 43.39 34.87 43.38 34.82 43.38"/><path class="cls-1" d="M36.1,45.06l.22.08S36,45,36.1,45.06Z" transform="translate(-0.89)"/><path class="cls-1" d="M35.86,45.67c-.07-.1-.13-.16-.08-.05S35.86,45.7,35.86,45.67Z" transform="translate(-0.89)"/><polygon class="cls-1" points="32.78 45.07 32.84 45.02 32.78 45.05 32.78 45.07"/><path class="cls-1" d="M30.15,5.67c0-.06-.07-.2-.1-.16l.07.24Z" transform="translate(-0.89)"/><path class="cls-1" d="M29.74,5.33a1.17,1.17,0,0,0,.13.55c0-.24,0-.15-.05-.43,0,0,.09,0,.12.14,0-.07.08,0,0-.13s-.18-.14-.19,0A.49.49,0,0,1,29.74,5.33Z" transform="translate(-0.89)"/><path class="cls-1" d="M26,6.27l0,0S26,6.27,26,6.27Z" transform="translate(-0.89)"/><path class="cls-1" d="M23.7,6.94s0,0,0-.06A.07.07,0,0,0,23.7,6.94Z" transform="translate(-0.89)"/><path class="cls-1" d="M23.22,6.82h0S23.22,6.8,23.22,6.82Z" transform="translate(-0.89)"/><path class="cls-1" d="M26,6.27l-.09-.06C25.93,6.29,26,6.26,26,6.27Z" transform="translate(-0.89)"/><path class="cls-1" d="M29.45,6.07a.15.15,0,0,0,0-.07l0,0Z" transform="translate(-0.89)"/><path class="cls-1" d="M26.9,5.72h0l0-.1Z" transform="translate(-0.89)"/><path class="cls-1" d="M27.65,5.42s0,.19.07.28a.27.27,0,0,1,0-.15A.81.81,0,0,1,27.65,5.42Z" transform="translate(-0.89)"/><path class="cls-1" d="M29,5.33v0Z" transform="translate(-0.89)"/><path class="cls-1" d="M26.34,5.88l0-.07Z" transform="translate(-0.89)"/><path class="cls-1" d="M5.63,14.69l0,0S5.62,14.69,5.63,14.69Z" transform="translate(-0.89)"/><polygon class="cls-1" points="3.52 14 3.53 13.99 3.49 13.88 3.52 14"/><path class="cls-1" d="M22.43,6.82h0S22.43,6.8,22.43,6.82Z" transform="translate(-0.89)"/><path class="cls-1" d="M16.08,9.28c.14.15,0,.27.15.43C16.19,9.64,16.21,9.36,16.08,9.28Z" transform="translate(-0.89)"/><path class="cls-1" d="M29.42,6.05h0S29.42,6.06,29.42,6.05Z" transform="translate(-0.89)"/><polygon class="cls-1" points="15.34 9.71 15.34 9.71 15.36 9.72 15.34 9.71"/><path class="cls-1" d="M20.86,7.52l.05.08A.15.15,0,0,0,20.86,7.52Z" transform="translate(-0.89)"/><path class="cls-1" d="M22.17,7.37l0,0S22.16,7.37,22.17,7.37Z" transform="translate(-0.89)"/><path class="cls-1" d="M20.35,8s0,0-.05,0V8S20.32,8,20.35,8Z" transform="translate(-0.89)"/><polygon class="cls-1" points="18.81 8.25 18.84 8.29 18.86 8.27 18.81 8.25"/><path class="cls-1" d="M7.57,14a.91.91,0,0,1-.09-.17C7.53,13.92,7.45,14,7.57,14Z" transform="translate(-0.89)"/><path class="cls-1" d="M29.41,6s0,.08,0,.09l0,0Z" transform="translate(-0.89)"/><path class="cls-1" d="M20.92,9.58H20.8A.25.25,0,0,0,20.92,9.58Z" transform="translate(-0.89)"/><path class="cls-1" d="M12.28,12.46l0,0S12.28,12.49,12.28,12.46Z" transform="translate(-0.89)"/><path class="cls-1" d="M20.51,9.73a.69.69,0,0,0-.11-.12.15.15,0,0,0,0,.06Z" transform="translate(-0.89)"/><path class="cls-1" d="M7.48,13.78Z" transform="translate(-0.89)"/><path class="cls-1" d="M7,14.47c.1,0,0-.27-.07-.43s.12.18.2.3c0-.09,0-.35.09-.36a.36.36,0,0,1,0,.11c0-.23.23-.08.24-.37l0,.06a2.7,2.7,0,0,1-.13-.36s0-.19.1,0c0,0,0,.07,0,.13l0-.09c.12.23,0,.1,0,.29.07-.11.11-.35.2-.3.09.24-.14.13,0,.32l-.13-.06c.2.36-.08,0,.13.38.16,0,.11-.17.28-.15,0-.14-.07-.19-.08-.34.12-.3.34.56.39.19,0-.17-.09-.48.06-.35l.05.28c.15,0,0-.42.16-.27,0,.11-.08.12-.05.15.16.18,0-.18.09-.2l.09.24c.14-.09.24-.31.39-.41,0,.08,0,.16.07.23.17-.19.45-.11.69,0v-.23s.06.09.06.13,0-.13,0-.23.1.11.09.18c.08-.22.27-.51.48-.32V13c.14.05,0-.47.16-.31v0c.27,0,.48-.26.76,0-.06-.31.29.06.17-.36.2.16.19.25.43.33.06,0,0-.29,0-.35l.07.22,0-.26.13.25,0-.08s-.08-.08-.1-.15.28.08.32.2l.16-.26a.33.33,0,0,1,0,.2c0-.27.09.22.14,0a.53.53,0,0,1,0-.18.18.18,0,0,0,.3,0l0,.16c.18,0,.33-.19.51-.25-.09,0-.16-.31-.11-.35l.1.22c0-.16-.09-.07-.08-.27.08,0,.14.25.12.34l.06-.11c0,.07,0,.11,0,.2,0-.15.22.18.19-.08l0,.06c.18-.06.24-.17.39-.23-.07-.2,0-.18,0-.35.13,0,.31.13.44.07s0-.18,0-.31c.07.18.2.11.17.27a.85.85,0,0,0,.35-.34c-.05-.06-.09-.09-.1-.15s.11,0,.14.13v0c.12-.35.71.33.75-.11v0l.1-.27c.1,0,0,.16.11.24.08-.37.33-.07.42-.33.33.48.43-.21.73.06l-.06-.12c0-.14.09.05.13.07s-.09-.1-.09-.18c.32-.28.85-.09,1.28-.12.15,0-.17-.67.12-.44l0,.25c.18-.38.59-.2.77-.54,0,.06,0,.13,0,.14s.22-.07.17-.21,0,.13.11.19.06-.27.16-.12,0,.06,0,.08.19,0,.07-.22c.14.05.17-.16.3-.08,0-.23.22,0,.12-.27.11.32.28.19.29,0,0,.1.09.08.12.22.07,0,.12-.12,0-.28.29.33.17-.4.43.06a2.5,2.5,0,0,1,.5-.59c.11.32-.21.11-.08.44.14-.2.15-.51.37-.5.07,0,0,.14,0,.2.14-.19.38-.1.48-.33a.17.17,0,0,1,0,.1s.1,0,0-.13l0,0c-.13-.19,0-.48-.07-.59.1.43.21,0,.32.59a.32.32,0,0,0,0-.2s.07.06.08.19c.09-.13,0-.26.1-.3a1.06,1.06,0,0,1,0,.19c0-.15,0-.31.12-.28s0,.09,0,.1c.15-.08.13-.46.36-.39.06.32.09.08.2.34l.07-.11L23.83,8c.08,0,.08-.24.19-.18L24,8l.13-.1L24,7.8c0-.17-.14-.33,0-.3,0,0,.08,0,.18.12h0c0-.1,0-.2.1-.16s.1.29.13.35c0-.24.17-.13.13-.38a1.94,1.94,0,0,0,.07.22l0-.19c.06,0,.08.07.11.18s-.16-.32,0-.22c0,0,0,0,0,.07.16,0,.21-.2.37-.16.14.25-.08.1,0,.31.16-.11.25-.45.44-.45l0,0c-.12-.38.2.14.22-.07a.59.59,0,0,0,0,.18c.14,0,.21-.18.35-.36V7c.1.06.2,0,.3,0s0-.1,0-.23c.45.46.34-.45.72-.08,0,0,0,.11,0,.1l.14-.15c-.07-.16-.06-.09-.14-.2s0-.2.05-.21.1.26.17.33a.67.67,0,0,1-.06-.15c.2.25-.11-.33.09-.18l0,.08c0-.06,0-.19.09-.18.09.18,0,.11,0,.26.07,0,0-.4.14-.24s-.05.08-.06.14c.15.2.14.14.2.15h0l.16.06-.06,0c-.1-.52.15-.16.15-.52,0,.34,0,.18.12.4,0,.05.12.09.13.16,0-.19.15.1.13-.18,0,.07.07,0,.12.16.05-.08-.06-.11-.09-.2,0-.27.38.19.42-.19.09-.18,0-.42.11-.59a.36.36,0,0,1,.06.27c.11.07.16,0,.2-.07a.38.38,0,0,0,.09.18c.05,0-.06-.26.05-.19a1.45,1.45,0,0,1,.05.3c0-.09.06-.24.1-.32a.47.47,0,0,1,0,.28.42.42,0,0,0,.11-.38l-.08,0s.08.16.07.2-.12,0-.15-.1l0-.06c-.2-.38-.16.13-.26.14l-.08-.3v.28c-.05-.07-.13-.23-.1-.29s0,.12-.14,0a.09.09,0,0,1,0,0l0,.11c0-.06-.09-.2,0-.17-.18-.13-.11.29-.24.08v0c-.13.16.06.22,0,.52l-.29-.5.07.22s-.06,0-.09-.1c0,.17.05.09.06.24-.15-.16-.19.18-.34-.16,0,.18.13.1.08.24-.16-.35-.07.1-.21,0s.06-.12-.08-.26c.08.33-.17,0-.21.06.09.26-.1.16-.17.28,0-.09-.26-.07-.39-.12v0c.08.27,0,.26-.1.34A.68.68,0,0,1,27,5.69l-.07,0a.2.2,0,0,1,0,.18l-.06-.2c-.09,0-.1.3-.27.21.06.18.29.47.21.63a.74.74,0,0,1-.09-.31s0,.1-.05.06V6.11c-.08-.05,0,.15,0,.15s-.07-.09-.1-.2.06,0,.05,0a.37.37,0,0,1-.21-.16c0,.07.08.18.05.21s-.1-.15-.18-.2c0,.1-.08,0,0,.23,0,0-.07-.09-.11-.14,0,.11-.21.11-.07.31h0c-.08.26-.37,0-.49.14l0-.06c-.06.11-.19.12-.2.29,0,0-.11-.1-.13-.19-.05.08,0,.16-.17.08,0-.15-.07-.1,0-.11-.11,0-.17-.13-.2.09,0-.19-.16-.2-.18-.13l.11.1a.15.15,0,0,1-.13.05l-.07-.24c-.3-.22-.16.6-.48.18,0,.18.14.08.17.28-.1,0-.32-.3-.34-.29s0,.38-.14.34c.05.07.15.29.08.4s-.24-.31-.21-.39,0,0,.05,0a.12.12,0,0,0,0-.16l0,.08c-.07-.07-.19,0-.21-.16a.12.12,0,0,0,.08.17c-.15-.08-.17.06-.32,0,0,0,.09.13.07.14-.2,0,0,.18-.11.26-.11-.1-.09-.31-.17-.16-.1-.06-.1-.22-.09-.3-.05.2-.24,0-.31,0l0-.09a.12.12,0,0,1-.07.07l.09.16s-.07,0-.1-.08c0,.12.14.27.13.44-.08-.07-.1.14-.2-.08.16,0-.1-.21,0-.29s0,0-.08,0,0,0,0-.06c-.21-.15,0,.27-.1.32,0-.13-.12-.23-.14-.19s.11.19.1.31c-.13-.07-.07.1-.12.11l.07,0c0,.14,0,.13-.06.2-.05-.1,0-.09,0-.13,0,.25-.24-.17-.28,0-.07-.07-.09-.23-.15-.27,0,.2-.18-.13-.24,0,.1.16.09.11.07.3l.14-.18,0,.29s.07-.15.11-.13,0,.11.07.24c-.17-.23-.09.2-.24.06l-.16-.42c-.2-.13-.15.3-.36.26l.09,0c0,.17-.1.06-.13.14a.72.72,0,0,0-.16-.25c.05.1-.12,0,0,.31l-.15-.15c-.16,0,0,.45-.15.45,0-.17-.11-.24-.07-.38s-.09,0-.06.1c-.05-.08,0,.23-.14.11,0,.07.06.22,0,.22a.17.17,0,0,1,0-.07c0,.07,0,.12.06.26-.3-.38-.36.17-.62-.16a1.6,1.6,0,0,1-.26.21c0-.05,0-.07,0-.06-.17-.09.08.42-.12.32s0-.14-.05-.21c-.19-.45-.13.12-.33-.11v0c-.13-.13-.1.23-.23.24l0-.07a.7.7,0,0,1-.19.5c0-.19,0-.11-.08-.29,0,0,.12.29.05.37a1,1,0,0,1-.26-.33l.09-.05c-.14-.23-.12.06-.18,0l0-.11c-.13.08,0,.36-.18.4l0,.07c0,.3-.12-.13-.13.11L17.72,9a1.38,1.38,0,0,1-.17.42,1.54,1.54,0,0,1,.08-.52.22.22,0,0,0-.16.24s0-.11.06-.08c0,.24,0,.38-.15.41-.18-.54-.33,0-.57-.42-.11.27-.41.06-.62.18.24.39-.06,0,.12.46,0,.05-.06.05-.08,0L16,9.51c-.09-.11,0-.11,0-.2s-.12-.17-.24-.25c.08.15,0,.23,0,.2l.17.16c-.08.29-.28-.31-.35,0V9.25c-.05.11-.31.11-.25.49,0-.05-.1-.16-.08-.2-.21,0-.29.53-.52.37l0-.11s0,.22-.07.13,0-.11,0-.11,0,.22-.1.18V9.86c-.23-.06-.18.4-.32.53A.52.52,0,0,0,13.7,10l0,0c-.23,0-.28.38-.45.58-.24-.3-.48,0-.75-.13a.39.39,0,0,1,0,.29c-.07,0-.07.27-.15,0h0c-.13-.28-.21-.17-.29-.15l.11.38c-.38-.48-.47.37-.74-.08,0,.11-.08.13-.1.24l-.06-.21a.53.53,0,0,0-.39.09V10.8c-.1,0,.07.62,0,.66l-.12-.3c-.17.06-.42-.15-.5.17,0,0,0-.13,0-.15s-.37-.11-.21.29c-.09-.27-.18,0-.24.18l0-.21c0,.28,0,.35-.07.46s-.07-.16,0-.12c-.12-.07,0,.21-.14.14v-.14c-.1,0-.07.08-.07.24s-.18,0-.25-.18c0,.12,0,.28-.05.24a.2.2,0,0,1,0-.13c-.19-.09-.15.3-.31.13a.27.27,0,0,0,0-.11.45.45,0,0,1,.21,0c-.06-.18-.16-.18-.17-.46,0,.16-.07.5-.18.44l0-.06v0s0,0-.05.05-.06,0-.09,0c-.06-.15-.14,0-.18,0,.06.2,0,.19.1.34,0,0,0,0,0-.05v0L8.58,12c0,.11,0,.21-.11.11,0,.14,0,.28,0,.35-.15-.26-.32-.38-.39-.55-.11.16-.32.18-.29.59,0,.06-.08-.1-.11-.15s0-.05,0-.11c0,.13-.23.12-.17.39-.14-.09,0-.26-.14-.18v-.08c-.41-.34-.24.81-.71.36a.2.2,0,0,1,.06.09c-.42-.13-.64.45-1.11.18-.12,0-.08.13-.09.28l-.1-.21,0,.28c-.08.23-.42-.44-.49,0l.07.14c-.07,0-.17.15-.22,0,0,0,0,.16,0,.1l0-.12-.1.25c-.15,0-.13-.45-.32-.41a.67.67,0,0,0,0,.46s.1.05.14.16l0,.08a1.78,1.78,0,0,0,.41.86l0-.24.09.15-.08,0c.1.14.09,0,.09-.11a.64.64,0,0,0,.1.16V14.5c.06.12,0,.27.14.32,0-.16-.15-.28-.1-.4.1.13.13.26.14.11a.28.28,0,0,1,0,.19c0-.12.13-.09.09-.28.12.17.16-.1.26.21a.54.54,0,0,1,0-.3c0,.4.19,0,.3.37,0-.36.19-.23.24-.45,0,0,0,.08,0,.07s.13.1.19.15a1.57,1.57,0,0,1,0-.57c.17.25.06.35.17.6-.08-.23.07-.27,0-.45a.8.8,0,0,1,.18.28c-.1-.35,0-.07,0-.3.15.14.13.32.19.18A.29.29,0,0,1,7,14.47Zm2.12-1.32h0l0,0Zm.2-.07-.09,0c0-.07,0-.14,0-.14S9.22,13,9.27,13.08Zm-.85-1.27s.05,0,.06,0l0,0v0S8.43,11.84,8.42,11.81Z" transform="translate(-0.89)"/><path class="cls-1" d="M8.45,12.09s0,0,0,0l0,0v-.06Z" transform="translate(-0.89)"/><path class="cls-1" d="M26,6.29h0a0,0,0,0,1,0,0Z" transform="translate(-0.89)"/><polygon class="cls-1" points="11.2 12.63 11.19 12.58 11.18 12.63 11.2 12.63"/><path class="cls-1" d="M27.35,6.58l0,0Z" transform="translate(-0.89)"/><path class="cls-1" d="M27.82,6.46l.09,0Z" transform="translate(-0.89)"/><path class="cls-1" d="M28.21,6.43l0-.08h0Z" transform="translate(-0.89)"/><path class="cls-1" d="M22.7,8.68h0C22.67,8.74,22.69,8.72,22.7,8.68Z" transform="translate(-0.89)"/><path class="cls-1" d="M24.19,7.62a.36.36,0,0,1,0,.11S24.23,7.73,24.19,7.62Z" transform="translate(-0.89)"/><polygon class="cls-1" points="20.04 9.58 20.04 9.58 20.03 9.58 20.04 9.58"/><path class="cls-1" d="M24.09,7.75c.05,0,.07,0,.08,0S24.11,7.72,24.09,7.75Z" transform="translate(-0.89)"/><path class="cls-1" d="M29.77,6h0V6Z" transform="translate(-0.89)"/><path class="cls-1" d="M29.78,6v0S29.78,5.92,29.78,6Z" transform="translate(-0.89)"/><path class="cls-1" d="M29.81,5.85l0,.07S29.83,5.91,29.81,5.85Z" transform="translate(-0.89)"/><path class="cls-1" d="M29.27,6.05l0,.08A.45.45,0,0,0,29.27,6.05Z" transform="translate(-0.89)"/><path class="cls-1" d="M29.14,6.12s.14.13.17.06l0,0C29.31,6.24,29.12,6,29.14,6.12Z" transform="translate(-0.89)"/><path class="cls-1" d="M28.21,5.45l.14,0c-.05-.07-.12-.16-.07-.2C28,5.1,28.38,5.43,28.21,5.45Z" transform="translate(-0.89)"/><path class="cls-1" d="M27.8,5.48c.05-.06,0-.12-.06-.16S27.73,5.43,27.8,5.48Z" transform="translate(-0.89)"/><path class="cls-1" d="M25.14,6.43l-.06-.18S25.1,6.32,25.14,6.43Z" transform="translate(-0.89)"/><polygon class="cls-1" points="24.09 7.54 24.18 7.63 24.14 7.46 24.09 7.54"/><polygon class="cls-1" points="23.3 6.37 23.32 6.34 23.26 6.43 23.3 6.37"/><path class="cls-1" d="M19.75,8l.1.21C19.87,8.2,19.78,8,19.75,8Z" transform="translate(-0.89)"/><path class="cls-1" d="M17.91,9c-.07-.1-.15-.15-.14,0S17.9,9,17.91,9Z" transform="translate(-0.89)"/><polygon class="cls-1" points="11.14 10.66 11.16 10.57 11.11 10.66 11.14 10.66"/><path class="cls-1" d="M44.53,35.7c0-.06,0-.21-.06-.17v.25Z" transform="translate(-0.89)"/><path class="cls-1" d="M44.2,35.29a1.08,1.08,0,0,0,0,.56c0-.24,0-.15,0-.43,0,0,.08.06.08.16,0-.07.07,0,.07-.12s-.14-.18-.19,0A.47.47,0,0,1,44.2,35.29Z" transform="translate(-0.89)"/><path class="cls-1" d="M40.18,36.15h0Z" transform="translate(-0.89)"/><path class="cls-1" d="M37.79,37s0,0,0-.06A.07.07,0,0,0,37.79,37Z" transform="translate(-0.89)"/><path class="cls-1" d="M37.29,36.91h0S37.29,36.89,37.29,36.91Z" transform="translate(-0.89)"/><path class="cls-1" d="M40.18,36.15l-.09,0C40.11,36.18,40.14,36.14,40.18,36.15Z" transform="translate(-0.89)"/><path class="cls-1" d="M43.78,36a.1.1,0,0,0,0-.07l0,0Z" transform="translate(-0.89)"/><path class="cls-1" d="M41.16,35.55h0l0-.1Z" transform="translate(-0.89)"/><path class="cls-1" d="M42,35.22s0,.2.06.29a.27.27,0,0,1,0-.15S42,35.28,42,35.22Z" transform="translate(-0.89)"/><path class="cls-1" d="M43.4,35.19l0,0Z" transform="translate(-0.89)"/><path class="cls-1" d="M40.56,35.73l0-.07A.15.15,0,0,0,40.56,35.73Z" transform="translate(-0.89)"/><path class="cls-1" d="M19,46.25l0,0S19,46.25,19,46.25Z" transform="translate(-0.89)"/><polygon class="cls-1" points="16.81 45.66 16.82 45.64 16.78 45.53 16.81 45.66"/><path class="cls-1" d="M36.48,37h0S36.48,36.93,36.48,37Z" transform="translate(-0.89)"/><path class="cls-1" d="M29.82,39.83c.14.14,0,.28.15.42C29.93,40.18,30,39.91,29.82,39.83Z" transform="translate(-0.89)"/><path class="cls-1" d="M43.75,36h0Z" transform="translate(-0.89)"/><polygon class="cls-1" points="29.08 40.25 29.08 40.26 29.1 40.27 29.08 40.25"/><path class="cls-1" d="M34.84,37.75l0,.08Z" transform="translate(-0.89)"/><path class="cls-1" d="M36.21,37.52l-.05,0A.06.06,0,0,0,36.21,37.52Z" transform="translate(-0.89)"/><path class="cls-1" d="M34.3,38.29s0,0-.06,0l0,0S34.26,38.27,34.3,38.29Z" transform="translate(-0.89)"/><polygon class="cls-1" points="32.73 38.57 32.76 38.61 32.77 38.59 32.73 38.57"/><path class="cls-1" d="M21,45.31a.91.91,0,0,1-.11-.16C21,45.29,20.92,45.38,21,45.31Z" transform="translate(-0.89)"/><path class="cls-1" d="M43.75,35.86s0,.08,0,.09h0A.19.19,0,0,0,43.75,35.86Z" transform="translate(-0.89)"/><path class="cls-1" d="M34.86,39.86h-.12A.17.17,0,0,0,34.86,39.86Z" transform="translate(-0.89)"/><path class="cls-1" d="M25.88,43.3v0S25.89,43.33,25.88,43.3Z" transform="translate(-0.89)"/><path class="cls-1" d="M34.43,40a.37.37,0,0,0-.11-.11.15.15,0,0,0,0,.06Z" transform="translate(-0.89)"/><path class="cls-1" d="M20.93,45.15Z" transform="translate(-0.89)"/><path class="cls-1" d="M20.41,45.9c.11,0-.05-.27-.09-.43s.13.17.23.28c.05-.09,0-.35.07-.37a.28.28,0,0,1,.05.11c0-.23.23-.11.22-.4a.21.21,0,0,1,0,.06,2.6,2.6,0,0,1-.16-.35c.05,0,0-.19.11,0,0,0,0,.07,0,.13l0-.09c.14.22,0,.11,0,.29.06-.12.09-.37.19-.33.11.23-.14.15.05.32l-.15,0c.24.33-.08,0,.16.37.17,0,.12-.19.29-.18,0-.15-.09-.19-.11-.34.11-.32.4.53.43.15,0-.17-.13-.48,0-.36l.07.28c.16,0-.07-.42.15-.3,0,.12-.08.14,0,.16.18.17,0-.18.08-.21l.11.23c.14-.1.23-.34.38-.45,0,.08,0,.16.09.22.17-.21.46-.16.72-.1v-.24s.07.08.07.13,0-.13,0-.23.11.1.11.17c.07-.23.25-.54.48-.38V44c.15,0,0-.47.14-.32v0c.28,0,.48-.31.8-.08-.09-.31.29,0,.15-.38.22.14.21.23.46.29.07,0,0-.29,0-.36l.09.21v-.26l.15.24,0-.08a.27.27,0,0,1-.11-.14c0-.14.29,0,.34.16l.16-.27a.44.44,0,0,1,0,.2c0-.27.11.21.14,0a.61.61,0,0,1-.05-.18.18.18,0,0,0,.3,0l.05.16c.18,0,.33-.22.52-.29-.1,0-.18-.31-.14-.35l.11.21c0-.15-.09-.06-.08-.26.08,0,.15.24.14.33l.05-.11a1.45,1.45,0,0,1,.06.19c0-.15.24.17.19-.1l0,.07c.19-.08.25-.19.4-.26-.07-.2,0-.18,0-.36.14,0,.33.12.46,0s0-.18,0-.32c.07.18.21.11.18.26a.78.78,0,0,0,.35-.35c-.05-.06-.09-.08-.1-.15s.12,0,.15.13v0c.13-.36.75.3.79-.15v0l.12-.27c.1,0,0,.16.1.24.1-.38.35-.09.45-.36.33.47.45-.23.76,0l-.05-.12c0-.14.08.05.13.07s-.1-.09-.1-.17c.34-.31.89-.15,1.33-.21.16,0-.16-.67.14-.45l0,.25c.19-.4.61-.24.81-.59,0,.06,0,.13,0,.14.13.14.23-.09.18-.22s.06.12.11.17.08-.27.17-.12,0,.06,0,.08.19-.06.08-.24c.15.05.18-.17.31-.09,0-.24.23,0,.13-.28.11.32.29.17.3,0,0,.1.1.07.12.21.08,0,.13-.12.05-.28.29.32.18-.42.45,0a2.86,2.86,0,0,1,.52-.63c.11.32-.22.13-.08.46.15-.22.16-.54.39-.54.06,0,0,.15,0,.21.15-.21.4-.13.51-.37a.17.17,0,0,1,0,.1s.1,0,0-.13l0,0c-.14-.18,0-.49-.06-.6.09.43.21,0,.32.59a.35.35,0,0,0,0-.21c.05,0,.08.06.09.19.1-.13,0-.27.11-.31s0,.11,0,.19c0-.16,0-.31.14-.3s0,.1,0,.11c.17-.09.15-.48.38-.42.07.32.1.07.22.33L38,38.2l-.09-.11c.08,0,.08-.25.19-.2l0,.13.14-.11-.13-.06c0-.17-.15-.33,0-.3,0,0,.08,0,.19.1h0c0-.1,0-.2.1-.17s.11.29.15.34c-.05-.23.17-.14.12-.39a1.77,1.77,0,0,0,.08.22l0-.19c.07,0,.09.06.12.17s-.17-.31,0-.23c0,0,0,.05,0,.08.17,0,.22-.22.39-.19.15.24-.09.11.05.31.17-.13.25-.47.46-.49h0c-.13-.38.21.12.22-.09,0,0,.06.22,0,.17.15,0,.21-.19.36-.38v.1c.11.06.21,0,.31,0s0-.1,0-.23c.46.45.36-.47.75-.1,0,0,0,.11,0,.1l.15-.16c-.08-.16-.06-.09-.15-.2s0-.2.06-.22c0,.14.1.26.17.34s0-.11-.06-.16c.21.26-.1-.33.11-.18l0,.09c0-.07,0-.2.1-.19.09.18,0,.11,0,.26.07,0,0-.41.16-.24s-.06.08-.07.14c.15.2.14.14.2.15h0l.16.06,0-.05c-.08-.53.16-.16.18-.52,0,.35,0,.18.1.4.05,0,.12.1.12.17,0-.2.15.1.15-.18,0,.07.06,0,.11.17.06-.08-.06-.12-.08-.21,0-.27.36.21.44-.17.11-.18.08-.42.19-.58a.34.34,0,0,1,0,.27c.1.09.15,0,.21,0a.35.35,0,0,0,.06.19c.06,0,0-.26.08-.17a1.41,1.41,0,0,1,0,.29c.05-.08.09-.22.15-.3,0,.12,0,.2,0,.28a.43.43,0,0,0,.16-.35L44,35.46s0,.17,0,.21-.11-.05-.13-.12l0,0c-.13-.41-.19.11-.29.1l0-.31,0,.27c0-.07-.09-.24,0-.29s0,.12-.15,0a.11.11,0,0,1,0-.05l0,.11c0-.07-.06-.21,0-.18-.18-.14-.15.28-.26.06v0c-.15.15,0,.23,0,.52l-.24-.51,0,.22s-.06,0-.08-.1c0,.18,0,.1,0,.25-.15-.17-.22.17-.34-.18,0,.18.12.11.06.25-.14-.36-.09.1-.22,0s.07-.13-.07-.27c.06.34-.18,0-.23.06.09.26-.11.16-.19.29,0-.09-.27-.07-.41-.12v-.05c.07.27-.06.26-.11.34a.47.47,0,0,1,0-.31l-.07,0a.22.22,0,0,1,0,.19l0-.2c-.09,0-.11.31-.29.23.06.18.29.46.21.63a.68.68,0,0,1-.1-.32s0,.1,0,.07V36c-.09-.05,0,.14,0,.15s-.08-.09-.11-.2.06,0,.06,0a.35.35,0,0,1-.22-.16c0,.08.07.19,0,.22s-.1-.15-.18-.2-.09,0,0,.24c0,0-.07-.09-.11-.14,0,.11-.22.12-.08.32h0c-.09.27-.4,0-.52.18l0-.07c-.07.12-.2.14-.21.31,0,0-.12-.1-.14-.18-.05.08,0,.16-.18.09,0-.15-.07-.09,0-.12-.12,0-.19-.11-.22.12,0-.19-.16-.19-.19-.12l.12.09a.16.16,0,0,1-.14.06l-.07-.24c-.32-.2-.16.63-.51.22,0,.18.16.07.19.28-.1,0-.34-.29-.36-.27-.18-.08,0,.38-.14.35,0,.07.16.29.09.4s-.25-.29-.23-.38,0,0,.06,0a.14.14,0,0,0,0-.17l0,.09c-.09-.06-.2,0-.23-.15,0,.11,0,.15.09.17-.16-.07-.18.07-.33,0a.33.33,0,0,1,.08.13c-.22,0,0,.19-.12.28-.12-.1-.1-.31-.17-.16C37,37.11,37,37,37,36.88c0,.2-.24,0-.31,0l0-.09a.12.12,0,0,1-.07.07l.09.16s-.07,0-.1-.08c0,.12.14.27.13.44-.08-.07-.1.14-.2-.07.17,0-.1-.22,0-.3s0,.05-.08,0,0,0,0-.06c-.21-.15,0,.27-.11.32,0-.13-.12-.22-.13-.19s.1.2.09.32c-.13-.06-.07.11-.12.12l.07,0c0,.13,0,.14-.07.2-.05-.09,0-.09,0-.12,0,.24-.24-.17-.29,0-.07-.06-.09-.23-.15-.27,0,.2-.18-.12-.25.06.1.15.09.11.07.3l.14-.19,0,.29c.06,0,.08-.15.13-.14,0,.16,0,.12.06.25-.17-.22-.1.21-.25.07l-.15-.41c-.21-.13-.17.31-.38.28l.08,0c0,.18-.1.07-.13.16a.72.72,0,0,0-.16-.25c0,.1-.13,0,0,.33L34.7,38c-.17,0,0,.46-.17.46,0-.16-.11-.24-.06-.38,0,0-.1,0-.06.1-.06-.07-.06.24-.15.13,0,.07.05.21,0,.22a.15.15,0,0,1,0-.06c0,.06,0,.12.06.26-.31-.38-.38.19-.65-.13a1.09,1.09,0,0,1-.27.22s0-.06,0-.06c-.17-.08.07.43-.12.35s0-.16,0-.22c-.19-.45-.15.13-.35-.1l0,0c-.14-.13-.11.24-.25.26l0-.07a.74.74,0,0,1-.21.51c0-.19,0-.11-.08-.28,0,0,.13.28,0,.37a.91.91,0,0,1-.26-.32l.09-.05c-.15-.23-.12.06-.19,0l0-.11c-.13.1,0,.37-.19.42l0,.08c0,.3-.13-.13-.14.11l-.13-.27a1.84,1.84,0,0,1-.18.45,1.6,1.6,0,0,1,.09-.54.24.24,0,0,0-.17.25s0-.11.06-.08c0,.24,0,.39-.15.43-.19-.54-.35,0-.6-.4-.12.28-.43.08-.65.21.24.38-.06,0,.12.46,0,.05-.07.05-.09,0l-.26-.19c-.09-.11,0-.12,0-.21s-.12-.16-.24-.24c.07.14,0,.23-.05.2l.17.16c-.08.3-.28-.3-.36,0v-.15c-.06.11-.32.13-.27.5,0,0-.1-.15-.08-.19-.22,0-.31.55-.56.4l0-.11s0,.22-.08.14,0-.11-.05-.11,0,.22-.1.18V40.5c-.25,0-.19.41-.33.55a.5.5,0,0,0-.42-.36v0c-.25.06-.3.41-.47.62-.27-.27-.51,0-.8-.05a.43.43,0,0,1,.06.29c-.08,0-.06.27-.16,0h0c-.15-.26-.22-.14-.31-.12l.13.38c-.42-.45-.48.42-.78,0,0,.11-.08.14-.1.25l-.07-.2a.64.64,0,0,0-.41.13l0-.15c-.1,0,.11.62,0,.67l-.15-.29c-.17.08-.45-.11-.51.23,0,0,0-.13,0-.15s-.4-.07-.21.32c-.1-.26-.19,0-.23.2l-.07-.2c0,.28,0,.35,0,.46s-.09-.14,0-.11c-.13-.07,0,.21-.15.15v-.14c-.09,0-.06.09,0,.25s-.19,0-.27-.15c0,.11,0,.28,0,.25a.31.31,0,0,1,0-.14c-.2-.07-.13.32-.31.17l-.06-.11c.12,0,.22-.07.21,0-.07-.18-.18-.17-.2-.45,0,.16,0,.51-.16.47l0-.06v0s0,0-.05.06a.13.13,0,0,0-.1,0c-.07-.15-.14,0-.19,0,.08.2,0,.19.13.33s0,0,0,0,0,0,0,0v0l.11-.06c0,.11,0,.21-.1.13l.06.34c-.18-.25-.36-.34-.45-.5-.1.17-.31.21-.26.61,0,.07-.09-.08-.13-.13s0-.06,0-.11c0,.12-.23.13-.14.4-.16-.07,0-.26-.17-.16v-.09c-.45-.29-.2.85-.72.45a.16.16,0,0,1,.07.07c-.45-.08-.65.52-1.16.3-.13,0-.07.13-.08.28l-.11-.2V45c-.08.23-.47-.41-.52,0l.08.13c-.08,0-.18.17-.24,0,0,0,0,.16,0,.1l0-.11-.09.25c-.16,0-.16-.44-.36-.38a.66.66,0,0,0,0,.46s.1,0,.15.15l0,.08a1.59,1.59,0,0,0,.46.84l0-.24.1.14-.09,0c.11.12.09,0,.09-.13a.37.37,0,0,0,.12.16l0-.35c.06.12.05.27.15.31,0-.17-.16-.27-.12-.39.11.12.15.25.16.1a.27.27,0,0,1,0,.18c0-.12.13-.1.09-.28.12.16.16-.13.28.18,0-.08,0-.28,0-.31.06.4.2-.06.34.35-.07-.36.18-.25.23-.48,0,0,0,.09,0,.07s.14.1.21.14c-.1-.28,0-.38,0-.57.2.23.09.34.21.58-.09-.22.06-.28-.05-.45a.91.91,0,0,1,.22.27c-.13-.35,0-.08,0-.31.16.13.15.3.21.16C20.45,45.74,20.41,45.9,20.41,45.9Zm2.16-1.56h0l-.05,0Zm.2-.09a.16.16,0,0,0-.09,0c0-.07-.06-.14,0-.14S22.71,44.21,22.77,44.25Zm-1-1.18s.05,0,.07,0l-.05,0v0Z" transform="translate(-0.89)"/><path class="cls-1" d="M21.84,43.35s0,0,0,0l0,0v-.07Z" transform="translate(-0.89)"/><path class="cls-1" d="M40.22,36.17h0s0,0,0,0Z" transform="translate(-0.89)"/><polygon class="cls-1" points="24.81 43.49 24.79 43.44 24.79 43.49 24.81 43.49"/><path class="cls-1" d="M41.6,36.41l0,.05S41.61,36.43,41.6,36.41Z" transform="translate(-0.89)"/><path class="cls-1" d="M42.09,36.28l.1,0Z" transform="translate(-0.89)"/><path class="cls-1" d="M42.5,36.26l0-.09h0Z" transform="translate(-0.89)"/><path class="cls-1" d="M36.73,38.83a0,0,0,0,0,0,0S36.71,38.87,36.73,38.83Z" transform="translate(-0.89)"/><path class="cls-1" d="M38.31,37.65a.43.43,0,0,1,0,.12S38.36,37.76,38.31,37.65Z" transform="translate(-0.89)"/><polygon class="cls-1" points="33.98 39.86 33.98 39.85 33.97 39.86 33.98 39.86"/><path class="cls-1" d="M38.21,37.8s.07,0,.08,0S38.22,37.76,38.21,37.8Z" transform="translate(-0.89)"/><path class="cls-1" d="M44.11,35.93h0v0Z" transform="translate(-0.89)"/><path class="cls-1" d="M44.12,35.9l0,0S44.12,35.87,44.12,35.9Z" transform="translate(-0.89)"/><path class="cls-1" d="M44.17,35.81l0,.06S44.17,35.87,44.17,35.81Z" transform="translate(-0.89)"/><path class="cls-1" d="M43.6,35.94l0,.07Z" transform="translate(-0.89)"/><path class="cls-1" d="M43.46,36s.13.13.17.07V36C43.62,36.13,43.46,35.86,43.46,36Z" transform="translate(-0.89)"/><path class="cls-1" d="M42.57,35.27l.15,0c0-.08-.11-.17-.06-.21C42.43,34.9,42.75,35.25,42.57,35.27Z" transform="translate(-0.89)"/><path class="cls-1" d="M42.13,35.28c.06-.06,0-.11-.05-.15S42.05,35.23,42.13,35.28Z" transform="translate(-0.89)"/><path class="cls-1" d="M39.28,36.37l-.06-.18C39.18,36.24,39.24,36.26,39.28,36.37Z" transform="translate(-0.89)"/><polygon class="cls-1" points="38.25 37.51 38.34 37.6 38.3 37.42 38.25 37.51"/><polygon class="cls-1" points="37.4 36.38 37.41 36.35 37.36 36.45 37.4 36.38"/><path class="cls-1" d="M33.67,38.35l.1.21C33.79,38.51,33.7,38.26,33.67,38.35Z" transform="translate(-0.89)"/><path class="cls-1" d="M31.74,39.4c-.07-.1-.15-.15-.15,0S31.72,39.44,31.74,39.4Z" transform="translate(-0.89)"/><polygon class="cls-1" points="24.64 41.51 24.65 41.42 24.6 41.52 24.64 41.51"/><path class="cls-1" d="M27.11,29s0,.14,0,.12l0-.16Z" transform="translate(-0.89)"/><path class="cls-1" d="M27.46,29.32a.39.39,0,0,0,0-.38c0,.16,0,.09,0,.28-.05,0-.1-.07-.1-.13s-.07,0-.09.06.18.15.23.05A.19.19,0,0,1,27.46,29.32Z" transform="translate(-0.89)"/><path class="cls-1" d="M29.66,28.5v0S29.67,28.51,29.66,28.5Z" transform="translate(-0.89)"/><path class="cls-1" d="M26.57,26.21a0,0,0,0,0,.05,0S26.57,26.19,26.57,26.21Z" transform="translate(-0.89)"/><path class="cls-1" d="M26.18,25.71l0,0S26.19,25.71,26.18,25.71Z" transform="translate(-0.89)"/><path class="cls-1" d="M29.66,28.5l0-.08C29.55,28.43,29.63,28.47,29.66,28.5Z" transform="translate(-0.89)"/><path class="cls-1" d="M27.81,29a.1.1,0,0,0,0,0v0Z" transform="translate(-0.89)"/><path class="cls-1" d="M31.74,29.8l0,0,.25.09Z" transform="translate(-0.89)"/><path class="cls-1" d="M31.66,30.22c.05,0-.38-.18-.57-.26l.24.12Z" transform="translate(-0.89)"/><path class="cls-1" d="M28.71,29.63v0S28.71,29.64,28.71,29.63Z" transform="translate(-0.89)"/><path class="cls-1" d="M30.79,29.09l.1,0Z" transform="translate(-0.89)"/><path class="cls-1" d="M18.57,17.33v0S18.56,17.32,18.57,17.33Z" transform="translate(-0.89)"/><polygon class="cls-1" points="16.85 16.01 16.87 16.02 16.91 15.95 16.85 16.01"/><path class="cls-1" d="M25.37,24.92h0S25.39,24.93,25.37,24.92Z" transform="translate(-0.89)"/><path class="cls-1" d="M26.73,24.48c-.18-.19.26-.08,0-.32C26.77,24.24,26.5,24.32,26.73,24.48Z" transform="translate(-0.89)"/><path class="cls-1" d="M27.85,29h0S27.85,29,27.85,29Z" transform="translate(-0.89)"/><polygon class="cls-1" points="25.84 24.16 25.84 24.16 25.81 24.14 25.84 24.16"/><path class="cls-1" d="M23.87,24h0Z" transform="translate(-0.89)"/><path class="cls-1" d="M24.67,24.78l0,0A.05.05,0,0,0,24.67,24.78Z" transform="translate(-0.89)"/><path class="cls-1" d="M23.14,23.7s.06,0,0,0h0S23.18,23.7,23.14,23.7Z" transform="translate(-0.89)"/><path class="cls-1" d="M22.78,23.35l-.1,0,0,0Z" transform="translate(-0.89)"/><path class="cls-1" d="M21.24,18.93a.28.28,0,0,1,0-.13C21.22,18.89,21.08,18.84,21.24,18.93Z" transform="translate(-0.89)"/><path class="cls-1" d="M27.89,29l0-.06h0A.17.17,0,0,0,27.89,29Z" transform="translate(-0.89)"/><path class="cls-1" d="M20.76,23.1V23A.13.13,0,0,0,20.76,23.1Z" transform="translate(-0.89)"/><path class="cls-1" d="M26.9,22.89h0Z" transform="translate(-0.89)"/><path class="cls-1" d="M20.68,22.76a.11.11,0,0,0,.09,0l0,0Z" transform="translate(-0.89)"/><path class="cls-1" d="M21.27,18.8Z" transform="translate(-0.89)"/><path class="cls-1" d="M20.18,18.5c.13.08.16-.12.25-.19s0,.16,0,.28.29-.08.36,0,0,0,0,.06c.18-.05.31.2.53.12,0,0,0,0,0,.05a1,1,0,0,1,.12-.23c.06,0,.17,0,.13.09s-.07,0-.11,0h.09c0,.18-.11,0-.18.1.15,0,.36,0,.43.11s-.25-.1-.21.11l-.1-.15c0,.3-.08-.07-.14.24.16.16.26.06.42.22.09-.05.06-.12.15-.17.36,0,0,.49.29.43.11-.06.25-.23.33,0l-.16.13c.17.13.26-.16.37.07-.07,0-.17,0-.16,0,0,.2.15,0,.24,0l-.08.15c.21.1.48.15.71.26,0,0-.11.06-.09.13a1.79,1.79,0,0,1,.75.67l.18-.05s0,.08,0,.09.06-.08.14-.09,0,.12,0,.13c.25,0,.65.13.74.39H25c.1.15.33-.13.38.08h0c.27.27.69.41.79.76.17-.14.24.3.44.08a1.08,1.08,0,0,1,.05.25.69.69,0,0,0,0,.1v.09s.18-.1.25-.08l-.14.09.21,0a1,1,0,0,1-.17.1h.07a.22.22,0,0,1,.11-.07c.15,0,0,.14-.13.14l.28.05-.23,0c.3,0-.29,0,0,0l.24,0c-.16,0-.14,0,0,.06L26.86,23a1.89,1.89,0,0,1,.23.11l.78.28-.5-.17c.34.13.17,0,.59.22,0,0-.57-.21-.75-.28l.21.09L27,23.12c.35.14-.54-.22.08,0l-.17-.07s.23.11.3.16a7.2,7.2,0,0,1,.94.52,1.8,1.8,0,0,1-.44-.14,2,2,0,0,1-.28-.13l.69.47c-.46-.31-.48-.31-.76-.51l.2.2.35.26a3,3,0,0,1-.37-.26l0,0c.18.16-.16-.07-.37-.23s-.33-.28-.18-.09l0,0a.34.34,0,0,1,.07.17c-.06,0-.07-.13-.18-.25.07.14,0,.11,0,.07s-.07-.06-.11,0a1,1,0,0,0,0-.18v0l-.13,0c-.19,0-.4,0-.49-.21v.09c-.1.06-.07-.07-.12-.11s.05.1,0,.13a2.66,2.66,0,0,1-.89-.29l-.22-.11a1.73,1.73,0,0,0-.28-.12c-.28-.11-.57-.21-.87-.31-.46-.13,0,.48-.57.13a.48.48,0,0,1,0-.17,2.25,2.25,0,0,1-.51,0L22,22c-.41-.09-.51,0-.59.11s-.1-.09-.07-.1c-.27-.09-.2.09-.09.15-.06,0-.12-.06-.21-.09s.06.15-.09.1a0,0,0,0,1,0-.05s-.18.18,0,.2c-.18.12-.09.39-.15.43.2.11,0,.11.27.22-.32-.11-.22.07,0,.18-.13,0-.1,0-.28,0a.49.49,0,0,0,.38.22c-.44.08.74.41.27.48.77.38,1.29.65,1.74.9-.22.13-.48-.31-.74-.2a5.17,5.17,0,0,0,.73.3,1.54,1.54,0,0,1,.47.26c.05.07-.09.06-.14.07.31.1.47.36.77.41,0,0-.05,0-.09,0s.09.1.14,0h-.06c0-.18.35-.14.41-.2-.25.19.17.22-.16.44a.16.16,0,0,0,.14-.07c0,.05,0,.09-.07.12.19.07.2-.06.34,0,0,0-.07,0-.12.07.13,0,.26-.06.35.06s0,.06-.07,0c.22.13.5,0,.67.27-.19.13,0,.11-.06.27l.16,0v-.11c.1.08.28,0,.33.15H26l.22.11-.07-.14c.16,0,.12-.2.23-.06,0,0,.11.08.1.21h0c.09,0,.18,0,.23.07s-.14.15-.15.2.28.14.44,0c-.05,0-.1.09-.11.11l.12-.07a.12.12,0,0,1,0,.15c.13.12.09-.23.2,0,0,0,0,0-.06,0,.14.17.39.18.51.34-.06.19-.17-.06-.2.11.25.14.61.16.81.35l0-.05c.21-.18.06.2.21.16,0,0-.14.08-.12.06s.23.08.53.19h-.12c0,.05.09.11.1.15a1.57,1.57,0,0,0,.33,0c-.27.05-.12.09.13.19s.56.24.17.16L29.27,29l.33.16a4,4,0,0,0,.45.12,3.24,3.24,0,0,1,.53.22,5.88,5.88,0,0,0-.8-.26l.38.13c-.62-.18.81.29.48.23l-.22-.09c.14.07.42.19.49.24h0a1.26,1.26,0,0,1-.33-.14l-.32-.13.1.05c.15.08.62.29.14.12-.09-.05,0,0-.13-.09a5.59,5.59,0,0,0-.66-.22h0l-.36-.12.17.06c1,.47,0,.07.51.36a5.23,5.23,0,0,0-.76-.37l-.44-.18c.28.15-.34-.14.05.09-.12-.07-.07,0-.36-.17a2.85,2.85,0,0,0,.37.19c.15.1-.06,0-.22,0s-.3-.11-.18,0,.23.29.14.36a.42.42,0,0,1-.2-.2c-.19-.1-.23-.09-.26,0a.92.92,0,0,0-.17-.15s.14.19,0,.1L27.82,29s0,.14-.06.17-.05-.13-.07-.19-.14.06-.11.2l.09.06s-.08-.13-.07-.15.13.06.17.12l0,0c.27.32.25,0,.36,0l.15.23a.39.39,0,0,0,0-.18c.09.07.26.2.21.23.24.13,0-.07.26.07l0,0,0-.06c0,.05.23.18.11.13.41.17.11-.14.45.06h0c.18-.05-.23-.18-.37-.38l.89.49-.29-.19a.66.66,0,0,1,.25.11c-.11-.12-.16-.09-.31-.21.45.2.2,0,.85.28-.25-.15-.36-.13-.43-.22.74.35.05,0,.5.13s0,.07.49.25c-.57-.3.43.1.45,0-.57-.25,0-.07,0-.13a4.8,4.8,0,0,0,.67.17s0-.06,0-.08l.12,0a5.74,5.74,0,0,1-1-.45,6.12,6.12,0,0,1,.77.29l-.14-.09-.5-.22.46.15c-.21-.14-.81-.37-.77-.46a6.58,6.58,0,0,1-1.2-.3,5.6,5.6,0,0,1,.59.15s-.2-.07-.16-.07l.38.12s-.3-.09-.33-.13c.25.05.12,0,.33.05,0,0,0,0,.08.06s0-.09.14-.09a1.24,1.24,0,0,1-.4-.1c-.18-.11.21,0,.21-.06-.18,0-.15-.11-.45-.14,0,0,.08,0,.14,0-.22-.08-.46-.3-.62-.23v0h0c-.46-.14-.41-.39-.76-.56l.05,0c-.21-.07-.39-.23-.52-.19a.12.12,0,0,1,0-.17c-.11,0-.15,0-.24-.16.14,0,0-.08.13,0-.09-.12-.07-.21-.28-.19.12-.07,0-.19-.08-.2l0,.13a.55.55,0,0,1-.17-.13l.12-.11c-.12-.34-.64,0-.63-.44-.13,0,.09.16,0,.23-.1-.1-.08-.37-.11-.4s-.29.1-.42-.07c0,.06-.08.21-.23.17s0-.3.1-.29a0,0,0,0,1,0,.05c.05,0,.11,0,.1-.06l0,0c0-.09-.18-.2-.08-.25-.12,0-.1.05-.05.12-.1-.17-.23-.16-.34-.31,0,0,0,.12,0,.1-.18-.22-.16,0-.32-.06s.15-.16,0-.2.07-.14.13-.16c-.2,0-.21-.24-.27-.31h.1a.22.22,0,0,1-.13-.05l0,.12s-.07-.07,0-.11-.08.18-.23.21-.2-.07-.13-.21c.14.17.07-.14.23-.06,0,0-.07,0-.1-.07s0,0,0,0c-.09-.23-.18.09-.35,0,.07-.06.05-.17,0-.17s-.05.14-.15.15-.15,0-.21-.09l0,.07c-.07.06-.12,0-.22,0s.1,0,.09,0c-.17.06-.1-.27-.28-.27,0-.09.09-.14.06-.21-.2,0-.08-.21-.26-.22s0,.09-.15.15a1.42,1.42,0,0,1,.25.07l-.25,0c.07.05.19,0,.22.09-.13,0-.1,0-.12.11,0-.21-.27-.06-.26-.2l.21-.21c.08-.11-.25,0-.28-.1l0,0c-.17,0-.1-.05-.2-.07.15,0,.19,0,.28,0a2.78,2.78,0,0,0-.41-.06l.19,0c.06,0-.69-.14-.75-.22.29.07.42.08.65.14,0,0,0,0-.16-.05.15,0-.42-.13-.2-.1a2.08,2.08,0,0,1-.44-.14l.14,0c-.14,0-.26-.1-.54-.16.38.08.3,0,.18,0s-.25-.18.24-.05c-.12-.13-.11-.27-.05-.25l.11.06c.38.18-.78-.47-.31-.26s.16.13.38.24c.89.54,0,0,.58.28l0,0c.28.18-.16-.17,0-.11l.09.07c-.24-.23-.14-.27-.06-.29a1,1,0,0,0,.2.25s-.27-.28-.18-.3a1.87,1.87,0,0,1,.38.37h-.07c.2.24.08,0,.15.07l.05.09c.07,0,0-.23.16-.18l0-.06c.08-.18.08.13.18,0a1.34,1.34,0,0,1,0,.2,1.2,1.2,0,0,1,.47-.11,1.38,1.38,0,0,1-.45.2c.08,0,.29.06.35,0s-.09,0-.11,0a.46.46,0,0,1,.46-.1c-.14.36.4.21.43.54a.65.65,0,0,1,.45.11l.21.11.11.06.22.07c-.15-.36.16,0,.15-.28.11,0,.14,0,.16.05a3.37,3.37,0,0,0,.39.33c.13.14-.1,0-.07.12.32.14.18.2.44.39-.1-.16,0-.16.24,0l-.34-.27c.27-.08.57.48.89.44a.3.3,0,0,1,0,.08c.09,0,.32.1.51.15s.28,0,.16-.18c.09.07.29.23.24.24a.68.68,0,0,0,.32.07s0-.09.05-.13.1-.11.28,0l.12.1s-.18-.18,0-.09l.12.1s-.11-.16,0-.11l.09.09c.13,0,.1,0,.07-.07s-.07-.08,0-.17c.2.15.44-.05.49-.16l0,0c.1-.23-.25-.39-.52-.65.09,0,.15,0,.17,0a.7.7,0,0,0-.1-.19c-.1-.14-.23-.3-.19-.4a1.41,1.41,0,0,1-.47-.15s-.57-.26-.13-.17l0,0c.33,0,0-.19-.17-.32l-.49-.05c.14-.13-.24-.39-.52-.55s-.53-.3-.49-.49c-.16,0-.28-.13-.42-.15l.1-.1a1.74,1.74,0,0,0-.51-.41l.1-.05c-.11-.1-.39.21-.51.14l.09-.2c-.21-.15-.32-.46-.65-.46,0,0,.07-.07.11-.05s-.31-.4-.44-.14c.11-.15-.21-.17-.38-.19l.1-.1c-.2.08-.23.11-.4.06,0,0,0-.11.06-.05-.06-.14-.16,0-.25-.11l.1,0c-.1-.09-.12,0-.24,0s-.19-.18-.14-.29c-.06.05-.18.09-.22,0a.08.08,0,0,1,.08-.06c-.14-.21-.37-.06-.43-.26a.13.13,0,0,0,0-.09l.25.2c.07-.11,0-.21.16-.29-.15,0-.44.07-.52-.06a.06.06,0,0,1,0,0h0s-.05,0-.09,0a.27.27,0,0,0-.08-.1c0-.1-.1-.14-.16-.19-.07.12-.14.05-.13.19l.06,0h0l.15.1c-.09,0-.17,0-.19-.07l-.22.13c0-.22-.07-.41,0-.53-.23-.06-.47-.25-.73-.11-.07,0,0-.1,0-.15s.08,0,.12,0c-.14,0-.33-.18-.46,0-.08-.16.17-.1,0-.19l.06,0c-.2-.49-.85,0-1-.57a.11.11,0,0,1,0,.08c-.37-.43-1-.47-1.35-1-.1-.13-.18,0-.3,0l.05-.14-.23.06c-.26,0-.14-.52-.51-.46l0,.1c-.08-.07-.31-.12-.24-.21s-.08.08-.09,0l0-.07h-.29c-.14-.15.19-.26-.05-.42s-.38,0-.37.11a.14.14,0,0,1,0,.17l-.1,0c-.14.2-.32.36-.2.62l.21,0v.12l-.12-.06c0,.13.1.07.18.05a.17.17,0,0,0,0,.14l.25-.11c0,.09-.15.12-.08.22.11-.05,0-.21.18-.21s-.05.2.08.17a.12.12,0,0,1-.11.08c.11,0,.21.09.31,0,0,.16.25.12.13.3a.47.47,0,0,1,.29,0c-.26.16.23.16.05.39.21-.15.37.1.59.09,0,0-.05,0-.06,0s.06.15.1.22c.11-.16.27-.11.41-.17,0,.23-.19.15-.25.33.08-.14.27,0,.3-.15,0,.15,0,.09,0,.25.15-.19.1,0,.25-.07.05.18-.09.21.08.23S20.18,18.5,20.18,18.5Zm3.26,1.65h0l-.07,0Zm.25.17a.31.31,0,0,0-.11-.08s.06-.08.09-.06S23.68,20.26,23.69,20.32Zm0-1.17c.05,0,.05,0,0,.07l-.08,0h0Z" transform="translate(-0.89)"/><path class="cls-1" d="M23.53,19.25h0v0l0,0Z" transform="translate(-0.89)"/><path class="cls-1" d="M29.67,28.53Z" transform="translate(-0.89)"/><polygon class="cls-1" points="25.84 22.85 25.87 22.83 25.84 22.84 25.84 22.85"/><path class="cls-1" d="M29.78,29.2l-.11,0Z" transform="translate(-0.89)"/><path class="cls-1" d="M29.67,29.29l-.24-.08Z" transform="translate(-0.89)"/><path class="cls-1" d="M29.07,29.15l.17.08h0Z" transform="translate(-0.89)"/><path class="cls-1" d="M24.16,25.57h0C24.08,25.56,24.12,25.57,24.16,25.57Z" transform="translate(-0.89)"/><path class="cls-1" d="M26.52,26.83a.4.4,0,0,1-.11,0S26.47,26.89,26.52,26.83Z" transform="translate(-0.89)"/><polygon class="cls-1" points="19.88 23.11 19.88 23.11 19.88 23.1 19.88 23.11"/><path class="cls-1" d="M26.31,26.76a.1.1,0,0,0,.1.07A.18.18,0,0,0,26.31,26.76Z" transform="translate(-0.89)"/><path class="cls-1" d="M27.51,28.91h0l0,0Z" transform="translate(-0.89)"/><path class="cls-1" d="M27.51,28.92v0S27.51,28.94,27.51,28.92Z" transform="translate(-0.89)"/><path class="cls-1" d="M27.47,29l0,0S27.46,28.93,27.47,29Z" transform="translate(-0.89)"/><path class="cls-1" d="M28,29,28,29Z" transform="translate(-0.89)"/><path class="cls-1" d="M28.14,29c-.06,0-.24-.14-.23-.1L28,29C27.87,28.89,28.22,29.13,28.14,29Z" transform="translate(-0.89)"/><path class="cls-1" d="M30.24,29.91l-.33-.08c.16.07.39.17.31.17C30.9,30.25,29.88,29.84,30.24,29.91Z" transform="translate(-0.89)"/><path class="cls-1" d="M31.19,30.1c-.06,0,.24.1.32.14S31.43,30.17,31.19,30.1Z" transform="translate(-0.89)"/><path class="cls-1" d="M28.43,27.52l.08-.1C28.43,27.39,28.48,27.46,28.43,27.52Z" transform="translate(-0.89)"/><polygon class="cls-1" points="26.5 27.6 26.51 27.71 26.61 27.63 26.5 27.6"/><polygon class="cls-1" points="26.63 26.58 26.67 26.58 26.54 26.55 26.63 26.58"/><path class="cls-1" d="M23.23,23.6l-.55-.19C22.8,23.47,23.41,23.68,23.23,23.6Z" transform="translate(-0.89)"/><path class="cls-1" d="M24.13,23.48c0,.09.07.15.09.07S24.15,23.46,24.13,23.48Z" transform="translate(-0.89)"/><polygon class="cls-1" points="28.09 22.98 28.26 23.05 28.03 22.93 28.09 22.98"/></g></g></svg>
